<?xml version="1.0" encoding="UTF-8" standalone="no"?>
<!-- Created with Inkscape (http://www.inkscape.org/) -->
<svg
   xmlns:dc="http://purl.org/dc/elements/1.1/"
   xmlns:cc="http://web.resource.org/cc/"
   xmlns:rdf="http://www.w3.org/1999/02/22-rdf-syntax-ns#"
   xmlns:svg="http://www.w3.org/2000/svg"
   xmlns="http://www.w3.org/2000/svg"
   xmlns:sodipodi="http://sodipodi.sourceforge.net/DTD/sodipodi-0.dtd"
   xmlns:inkscape="http://www.inkscape.org/namespaces/inkscape"
   width="744.09448819"
   height="1052.3622047"
   id="svg2"
   sodipodi:version="0.32"
   inkscape:version="0.45"
   sodipodi:modified="true">
  <sodipodi:namedview
     id="base"
     pagecolor="#ffffff"
     bordercolor="#666666"
     borderopacity="1.0"
     gridtolerance="10000"
     guidetolerance="10"
     objecttolerance="10"
     inkscape:pageopacity="0.0"
     inkscape:pageshadow="2"
     inkscape:zoom="0.35"
     inkscape:cx="375"
     inkscape:cy="-42.192572"
     inkscape:document-units="px"
     inkscape:current-layer="svg2"
     inkscape:window-width="874"
     inkscape:window-height="626"
     inkscape:window-x="5"
     inkscape:window-y="73" />
  <defs
     id="defs4">
    <marker
       inkscape:stockid="Dot_l"
       orient="auto"
       refY="0.0"
       refX="0.0"
       id="Dot_l"
       style="overflow:visible">
      <path
         id="path3300"
         d="M -2.5,-1.0 C -2.5,1.7600000 -4.7400000,4.0 -7.5,4.0 C -10.260000,4.0 -12.5,1.7600000 -12.5,-1.0 C -12.5,-3.7600000 -10.260000,-6.0 -7.5,-6.0 C -4.7400000,-6.0 -2.5,-3.7600000 -2.5,-1.0 z "
         style="fill-rule:evenodd;stroke:#000000;stroke-width:1.0pt;marker-start:none;marker-end:none"
         transform="scale(0.8) translate(7.4, 1)" />
    </marker>
    <marker
       inkscape:stockid="Dot_m"
       orient="auto"
       refY="0.0"
       refX="0.0"
       id="Dot_m"
       style="overflow:visible">
      <path
         id="path3297"
         d="M -2.5,-1.0 C -2.5,1.7600000 -4.7400000,4.0 -7.5,4.0 C -10.260000,4.0 -12.5,1.7600000 -12.5,-1.0 C -12.5,-3.7600000 -10.260000,-6.0 -7.5,-6.0 C -4.7400000,-6.0 -2.5,-3.7600000 -2.5,-1.0 z "
         style="fill-rule:evenodd;stroke:#000000;stroke-width:1.0pt;marker-start:none;marker-end:none"
         transform="scale(0.4) translate(7.4, 1)" />
    </marker>
  </defs>
  <metadata
     id="metadata7">
    <rdf:RDF>
      <cc:Work
         rdf:about="">
        <dc:format>image/svg+xml</dc:format>
        <dc:type
           rdf:resource="http://purl.org/dc/dcmitype/StillImage" />
      </cc:Work>
    </rdf:RDF>
  </metadata>
  <g
     inkscape:label="Layer 1"
     id="layer1"
     inkscape:groupmode="layer" />
  <path
     id="path2165"
     style="fill:none;stroke:#000000;stroke-width:3.62970877;marker-start:none;marker-mid:url(#Dot_l)"
     d="M 961.4286,755.82801 L 1218.0878,136.19798 L 598.45771,392.85716 L 1218.0878,649.51632 L 961.4286,29.886281 L 704.76941,649.51632 L 1324.3995,392.85716 L 704.76941,136.19798 L 961.4286,755.82801 z M 961.42858,294.8825 L 862.44644,409.11398 L 989.60184,490.8318 L 1052.3918,353.341 L 907.3645,310.75715 L 885.85362,460.36857 L 1037.0035,460.36857 L 1015.4927,310.75715 L 870.46538,353.341 L 933.25532,490.8318 L 1060.4107,409.11398 L 961.42858,294.8825 z " />
  <path
     id="path2184"
     style="fill:none;stroke:#000000;stroke-width:3.66684413;marker-mid:url(#Dot_l)"
     d="M 962.44621,864.99763 L 599.49414,1283.8667 L 1065.7532,1583.5131 L 1295.9941,1079.3558 L 764.20166,923.20751 L 685.32462,1471.8093 L 1239.5678,1471.8093 L 1160.6908,923.20751 L 628.89834,1079.3558 L 859.13927,1583.5131 L 1325.3983,1283.8667 L 962.44621,864.99763 z M 962.44621,1324.2554 L 1033.1569,1153.5447 L 862.44622,1224.2554 L 1033.1569,1294.9661 L 962.44621,1124.2554 L 891.73553,1294.9661 L 1062.4462,1224.2554 L 891.73553,1153.5447 L 962.44621,1324.2554 z " />
  <path
     id="path2190"
     d="M -642.85715,867.39014 L -1005.8092,1286.2592 L -539.5502,1585.9057 L -309.30927,1081.7484 L -841.1017,925.60002 L -919.97874,1474.2018 L -365.73555,1474.2018 L -444.61259,925.60002 L -976.40502,1081.7484 L -746.16409,1585.9057 L -279.90507,1286.2592 L -642.85715,867.39014 z "
     style="fill:none;stroke:#000000;stroke-width:3.66684413" />
  <path
     style="fill:none;stroke:#000000"
     id="path2192"
     d="M -642.85715,1326.6479 L -572.14647,1155.9372 L -742.85714,1226.6479 L -572.14647,1297.3586 L -642.85715,1126.6479 L -713.56783,1297.3586 L -542.85715,1226.6479 L -713.56783,1155.9372 L -642.85715,1326.6479 z " />
</svg>
