<?xml version="1.0" encoding="UTF-8" standalone="no"?>
<svg
   xmlns:dc="http://purl.org/dc/elements/1.1/"
   xmlns:cc="http://web.resource.org/cc/"
   xmlns:rdf="http://www.w3.org/1999/02/22-rdf-syntax-ns#"
   xmlns:svg="http://www.w3.org/2000/svg"
   xmlns="http://www.w3.org/2000/svg"
   xmlns:xlink="http://www.w3.org/1999/xlink"
   xmlns:sodipodi="http://sodipodi.sourceforge.net/DTD/sodipodi-0.dtd"
   xmlns:inkscape="http://www.inkscape.org/namespaces/inkscape"
   width="590"
   xlink:xlink="xlink"
   height="590"
   id="svg2803"
   sodipodi:version="0.32"
   inkscape:version="0.45"
   sodipodi:docname="angled_stripes.svg"
   sodipodi:docbase="/media/oldubu/home/tamarind/0_Code_0/play-svg/scripts/images"
   inkscape:output_extension="org.inkscape.output.svg.inkscape"
   sodipodi:modified="true">
  <metadata
     id="metadata2857">
    <rdf:RDF>
      <cc:Work
         rdf:about="">
        <dc:format>image/svg+xml</dc:format>
        <dc:type
           rdf:resource="http://purl.org/dc/dcmitype/StillImage" />
      </cc:Work>
    </rdf:RDF>
  </metadata>
  <sodipodi:namedview
     inkscape:window-height="693"
     inkscape:window-width="1024"
     inkscape:pageshadow="2"
     inkscape:pageopacity="0.0"
     guidetolerance="10.0"
     gridtolerance="10.0"
     objecttolerance="10.0"
     borderopacity="1.0"
     bordercolor="#666666"
     pagecolor="#ffffff"
     id="base"
     inkscape:zoom="0.80508475"
     inkscape:cx="295"
     inkscape:cy="295"
     inkscape:window-x="0"
     inkscape:window-y="25"
     inkscape:current-layer="svg2803" />
  <defs
     id="defs2805" />
  <g
     id="g2967"
     transform="translate(53.410526,-1.2421058)">
    <g
       transform="translate(0.118255,-0.8262885)"
       id="g2906">
      <path
         style="fill:#000000;stroke:none"
         d="M 110.92138,184.85258 L 119.81027,184.85258 L 110.92138,193.74147 L 110.92138,184.85258 z "
         id="path2810" />
      <path
         style="fill:#000000;stroke:none"
         d="M 310.92138,384.85258 L 302.03249,384.85258 L 310.92138,375.96369 L 310.92138,384.85258 z "
         id="path2812" />
      <path
         style="fill:#000000;stroke:none"
         d="M 306.47694,184.85258 L 310.92138,184.85258 L 310.92138,189.29702 L 115.36582,384.85258 L 110.92138,384.85258 L 110.92138,380.40814 L 306.47694,184.85258 z "
         id="path2814" />
      <path
         style="fill:#000000;stroke:none"
         d="M 128.69916,184.85258 L 137.58805,184.85258 L 110.92138,211.51925 L 110.92138,202.63036 L 128.69916,184.85258 z "
         id="path2816" />
      <path
         style="fill:#000000;stroke:none"
         d="M 310.92138,367.0748 L 310.92138,358.18591 L 284.25471,384.85258 L 293.1436,384.85258 L 310.92138,367.0748 z "
         id="path2818" />
      <path
         style="fill:#000000;stroke:none"
         d="M 146.47694,184.85258 L 155.36582,184.85258 L 110.92138,229.29702 L 110.92138,220.40814 L 146.47694,184.85258 z "
         id="path2820" />
      <path
         style="fill:#000000;stroke:none"
         d="M 310.92138,349.29702 L 310.92138,340.40814 L 266.47694,384.85258 L 275.36582,384.85258 L 310.92138,349.29702 z "
         id="path2822" />
      <path
         style="fill:#000000;stroke:none"
         d="M 164.25471,184.85258 L 173.1436,184.85258 L 110.92138,247.0748 L 110.92138,238.18591 L 164.25471,184.85258 z "
         id="path2824" />
      <path
         style="fill:#000000;stroke:none"
         d="M 310.92138,331.51925 L 310.92138,322.63036 L 248.69916,384.85258 L 257.58805,384.85258 L 310.92138,331.51925 z "
         id="path2826" />
      <path
         style="fill:#000000;stroke:none"
         d="M 199.81027,184.85258 L 208.69916,184.85258 L 110.92138,282.63036 L 110.92138,273.74147 L 199.81027,184.85258 z "
         id="path2832" />
      <path
         style="fill:#000000;stroke:none"
         d="M 310.92138,295.96369 L 310.92138,287.0748 L 213.1436,384.85258 L 222.03249,384.85258 L 310.92138,295.96369 z "
         id="path2834" />
      <path
         style="fill:#000000;stroke:none"
         d="M 217.58805,184.85258 L 226.47694,184.85258 L 110.92138,300.40814 L 110.92138,291.51925 L 217.58805,184.85258 z "
         id="path2836" />
      <path
         style="fill:#000000;stroke:none"
         d="M 310.92138,278.18591 L 310.92138,269.29702 L 195.36582,384.85258 L 204.25471,384.85258 L 310.92138,278.18591 z "
         id="path2838" />
      <path
         style="fill:#000000;stroke:none"
         d="M 235.36582,184.85258 L 244.25471,184.85258 L 110.92138,318.18591 L 110.92138,309.29702 L 235.36582,184.85258 z "
         id="path2840" />
      <path
         style="fill:#000000;stroke:none"
         d="M 310.92138,260.40814 L 310.92138,251.51925 L 177.58805,384.85258 L 186.47694,384.85258 L 310.92138,260.40814 z "
         id="path2842" />
      <path
         style="fill:#000000;stroke:none"
         d="M 253.1436,184.85258 L 262.03249,184.85258 L 110.92138,335.96369 L 110.92138,327.0748 L 253.1436,184.85258 z "
         id="path2844" />
      <path
         style="fill:#000000;stroke:none"
         d="M 310.92138,242.63036 L 310.92138,233.74147 L 159.81027,384.85258 L 168.69916,384.85258 L 310.92138,242.63036 z "
         id="path2846" />
      <path
         style="fill:#000000;stroke:none"
         d="M 288.69916,184.85258 L 297.58805,184.85258 L 110.92138,371.51925 L 110.92138,362.63036 L 288.69916,184.85258 z "
         id="path2852" />
      <path
         style="fill:#000000;stroke:none"
         d="M 310.92138,207.0748 L 310.92138,198.18591 L 124.25471,384.85258 L 133.1436,384.85258 L 310.92138,207.0748 z "
         id="path2854" />
    </g>
    <g
       transform="matrix(0,1,-1,0,495.89221,73.104912)"
       id="g2927">
      <path
         style="fill:#000000;stroke:none"
         d="M 110.92138,184.85258 L 119.81027,184.85258 L 110.92138,193.74147 L 110.92138,184.85258 z "
         id="path2929" />
      <path
         style="fill:#000000;stroke:none"
         d="M 310.92138,384.85258 L 302.03249,384.85258 L 310.92138,375.96369 L 310.92138,384.85258 z "
         id="path2931" />
      <path
         style="fill:#000000;stroke:none"
         d="M 306.47694,184.85258 L 310.92138,184.85258 L 310.92138,189.29702 L 115.36582,384.85258 L 110.92138,384.85258 L 110.92138,380.40814 L 306.47694,184.85258 z "
         id="path2933" />
      <path
         style="fill:#000000;stroke:none"
         d="M 128.69916,184.85258 L 137.58805,184.85258 L 110.92138,211.51925 L 110.92138,202.63036 L 128.69916,184.85258 z "
         id="path2935" />
      <path
         style="fill:#000000;stroke:none"
         d="M 310.92138,367.0748 L 310.92138,358.18591 L 284.25471,384.85258 L 293.1436,384.85258 L 310.92138,367.0748 z "
         id="path2937" />
      <path
         style="fill:#000000;stroke:none"
         d="M 146.47694,184.85258 L 155.36582,184.85258 L 110.92138,229.29702 L 110.92138,220.40814 L 146.47694,184.85258 z "
         id="path2939" />
      <path
         style="fill:#000000;stroke:none"
         d="M 310.92138,349.29702 L 310.92138,340.40814 L 266.47694,384.85258 L 275.36582,384.85258 L 310.92138,349.29702 z "
         id="path2941" />
      <path
         style="fill:#000000;stroke:none"
         d="M 164.25471,184.85258 L 173.1436,184.85258 L 110.92138,247.0748 L 110.92138,238.18591 L 164.25471,184.85258 z "
         id="path2943" />
      <path
         style="fill:#000000;stroke:none"
         d="M 310.92138,331.51925 L 310.92138,322.63036 L 248.69916,384.85258 L 257.58805,384.85258 L 310.92138,331.51925 z "
         id="path2945" />
      <path
         style="fill:#000000;stroke:none"
         d="M 199.81027,184.85258 L 208.69916,184.85258 L 110.92138,282.63036 L 110.92138,273.74147 L 199.81027,184.85258 z "
         id="path2947" />
      <path
         style="fill:#000000;stroke:none"
         d="M 310.92138,295.96369 L 310.92138,287.0748 L 213.1436,384.85258 L 222.03249,384.85258 L 310.92138,295.96369 z "
         id="path2949" />
      <path
         style="fill:#000000;stroke:none"
         d="M 217.58805,184.85258 L 226.47694,184.85258 L 110.92138,300.40814 L 110.92138,291.51925 L 217.58805,184.85258 z "
         id="path2951" />
      <path
         style="fill:#000000;stroke:none"
         d="M 310.92138,278.18591 L 310.92138,269.29702 L 195.36582,384.85258 L 204.25471,384.85258 L 310.92138,278.18591 z "
         id="path2953" />
      <path
         style="fill:#000000;stroke:none"
         d="M 235.36582,184.85258 L 244.25471,184.85258 L 110.92138,318.18591 L 110.92138,309.29702 L 235.36582,184.85258 z "
         id="path2955" />
      <path
         style="fill:#000000;stroke:none"
         d="M 310.92138,260.40814 L 310.92138,251.51925 L 177.58805,384.85258 L 186.47694,384.85258 L 310.92138,260.40814 z "
         id="path2957" />
      <path
         style="fill:#000000;stroke:none"
         d="M 253.1436,184.85258 L 262.03249,184.85258 L 110.92138,335.96369 L 110.92138,327.0748 L 253.1436,184.85258 z "
         id="path2959" />
      <path
         style="fill:#000000;stroke:none"
         d="M 310.92138,242.63036 L 310.92138,233.74147 L 159.81027,384.85258 L 168.69916,384.85258 L 310.92138,242.63036 z "
         id="path2961" />
      <path
         style="fill:#000000;stroke:none"
         d="M 288.69916,184.85258 L 297.58805,184.85258 L 110.92138,371.51925 L 110.92138,362.63036 L 288.69916,184.85258 z "
         id="path2963" />
      <path
         style="fill:#000000;stroke:none"
         d="M 310.92138,207.0748 L 310.92138,198.18591 L 124.25471,384.85258 L 133.1436,384.85258 L 310.92138,207.0748 z "
         id="path2965" />
    </g>
  </g>
</svg>
