<svg svg="http://www.w3.org/2000/svg" xlink="http://www.w3.org/1999/xlink" width="1280" height="1280">
  <defs/>
  <g id="canvas" transform="matrix(1,0,0,-1,0,1280) translate(640,640)">
    <g id="flower">
      <path style="fill:none;stroke:black" d="M0.00000,70.00000 C-22.92362,101.55166 -22.92362,168.44834 0.00000,200.00000 C22.92362,168.44834 22.92362,101.55166 0.00000,70.00000 Z"/>
      <path style="fill:none;stroke:black" d="M26.78784,64.67157 C17.68347,102.59399 43.28372,164.39846 76.53669,184.77591 C85.64106,146.85348 60.04081,85.04901 26.78784,64.67157 Z"/>
      <path style="fill:none;stroke:black" d="M49.49747,49.49747 C55.59842,88.01732 102.90151,135.32041 141.42136,141.42136 C135.32041,102.90151 88.01732,55.59842 49.49747,49.49747 Z"/>
      <path style="fill:none;stroke:black" d="M64.67157,26.78784 C85.04901,60.04081 146.85348,85.64106 184.77591,76.53669 C164.39846,43.28372 102.59399,17.68347 64.67157,26.78784 Z"/>
      <path style="fill:none;stroke:black" d="M70.00000,0.00000 C101.55166,22.92362 168.44834,22.92362 200.00000,0.00000 C168.44834,-22.92362 101.55166,-22.92362 70.00000,0.00000 Z"/>
      <path style="fill:none;stroke:black" d="M64.67157,-26.78784 C102.59399,-17.68347 164.39846,-43.28372 184.77591,-76.53669 C146.85348,-85.64106 85.04901,-60.04081 64.67157,-26.78784 Z"/>
      <path style="fill:none;stroke:black" d="M49.49747,-49.49747 C88.01732,-55.59842 135.32041,-102.90151 141.42136,-141.42136 C102.90151,-135.32041 55.59842,-88.01732 49.49747,-49.49747 Z"/>
      <path style="fill:none;stroke:black" d="M26.78784,-64.67157 C60.04081,-85.04901 85.64106,-146.85348 76.53669,-184.77591 C43.28372,-164.39846 17.68347,-102.59399 26.78784,-64.67157 Z"/>
      <path style="fill:none;stroke:black" d="M0.00000,-70.00000 C22.92362,-101.55166 22.92362,-168.44834 0.00000,-200.00000 C-22.92362,-168.44834 -22.92362,-101.55166 0.00000,-70.00000 Z"/>
      <path style="fill:none;stroke:black" d="M-26.78784,-64.67157 C-17.68347,-102.59399 -43.28372,-164.39846 -76.53669,-184.77591 C-85.64106,-146.85348 -60.04081,-85.04901 -26.78784,-64.67157 Z"/>
      <path style="fill:none;stroke:black" d="M-49.49747,-49.49747 C-55.59842,-88.01732 -102.90151,-135.32041 -141.42136,-141.42136 C-135.32041,-102.90151 -88.01732,-55.59842 -49.49747,-49.49747 Z"/>
      <path style="fill:none;stroke:black" d="M-64.67157,-26.78784 C-85.04901,-60.04081 -146.85348,-85.64106 -184.77591,-76.53669 C-164.39846,-43.28372 -102.59399,-17.68347 -64.67157,-26.78784 Z"/>
      <path style="fill:none;stroke:black" d="M-70.00000,-0.00000 C-101.55166,-22.92362 -168.44834,-22.92362 -200.00000,-0.00000 C-168.44834,22.92362 -101.55166,22.92362 -70.00000,-0.00000 Z"/>
      <path style="fill:none;stroke:black" d="M-64.67157,26.78784 C-102.59399,17.68347 -164.39846,43.28372 -184.77591,76.53669 C-146.85348,85.64106 -85.04901,60.04081 -64.67157,26.78784 Z"/>
      <path style="fill:none;stroke:black" d="M-49.49747,49.49747 C-88.01732,55.59842 -135.32041,102.90151 -141.42136,141.42136 C-102.90151,135.32041 -55.59842,88.01732 -49.49747,49.49747 Z"/>
      <path style="fill:none;stroke:black" d="M-26.78784,64.67157 C-60.04081,85.04901 -85.64106,146.85348 -76.53669,184.77591 C-43.28372,164.39846 -17.68347,102.59399 -26.78784,64.67157 Z"/>
    </g>
  </g>
</svg>
