<svg svg="http://www.w3.org/2000/svg" xlink="http://www.w3.org/1999/xlink" width="1280" height="1280">
  <defs/>
  <g id="canvas" transform="matrix(1,0,0,-1,0,1280) translate(640,640)">
    <g id="cardiod">
      <circle style="fill:none;stroke:black;stroke-width:3;" cx="0.00000" r="0.00000" cy="300.00000" fill="none"/>
      <circle style="fill:none;stroke:black;stroke-width:3;" cx="11.15101" r="11.15294" cy="299.79269" fill="none"/>
      <circle style="fill:none;stroke:black;stroke-width:3;" cx="22.28662" r="22.30203" cy="299.17103" fill="none"/>
      <circle style="fill:none;stroke:black;stroke-width:3;" cx="33.39142" r="33.44341" cy="298.13590" fill="none"/>
      <circle style="fill:none;stroke:black;stroke-width:3;" cx="44.45007" r="44.57323" cy="296.68871" fill="none"/>
      <circle style="fill:none;stroke:black;stroke-width:3;" cx="55.44728" r="55.68765" cy="294.83148" fill="none"/>
      <circle style="fill:none;stroke:black;stroke-width:3;" cx="66.36787" r="66.78283" cy="292.56676" fill="none"/>
      <circle style="fill:none;stroke:black;stroke-width:3;" cx="77.19672" r="77.85494" cy="289.89768" fill="none"/>
      <circle style="fill:none;stroke:black;stroke-width:3;" cx="87.91889" r="88.90013" cy="286.82794" fill="none"/>
      <circle style="fill:none;stroke:black;stroke-width:3;" cx="98.51954" r="99.91461" cy="283.36178" fill="none"/>
      <circle style="fill:none;stroke:black;stroke-width:3;" cx="108.98403" r="110.89457" cy="279.50399" fill="none"/>
      <circle style="fill:none;stroke:black;stroke-width:3;" cx="119.29789" r="121.83620" cy="275.25990" fill="none"/>
      <circle style="fill:none;stroke:black;stroke-width:3;" cx="129.44688" r="132.73573" cy="270.63538" fill="none"/>
      <circle style="fill:none;stroke:black;stroke-width:3;" cx="139.41695" r="143.58940" cy="265.63681" fill="none"/>
      <circle style="fill:none;stroke:black;stroke-width:3;" cx="149.19434" r="154.39345" cy="260.27111" fill="none"/>
      <circle style="fill:none;stroke:black;stroke-width:3;" cx="158.76553" r="165.14414" cy="254.54569" fill="none"/>
      <circle style="fill:none;stroke:black;stroke-width:3;" cx="168.11729" r="175.83777" cy="248.46846" fill="none"/>
      <circle style="fill:none;stroke:black;stroke-width:3;" cx="177.23670" r="186.47064" cy="242.04783" fill="none"/>
      <circle style="fill:none;stroke:black;stroke-width:3;" cx="186.11115" r="197.03908" cy="235.29267" fill="none"/>
      <circle style="fill:none;stroke:black;stroke-width:3;" cx="194.72838" r="207.53943" cy="228.21231" fill="none"/>
      <circle style="fill:none;stroke:black;stroke-width:3;" cx="203.07647" r="217.96806" cy="220.81654" fill="none"/>
      <circle style="fill:none;stroke:black;stroke-width:3;" cx="211.14390" r="228.32137" cy="213.11559" fill="none"/>
      <circle style="fill:none;stroke:black;stroke-width:3;" cx="218.91951" r="238.59578" cy="205.12009" fill="none"/>
      <circle style="fill:none;stroke:black;stroke-width:3;" cx="226.39255" r="248.78775" cy="196.84109" fill="none"/>
      <circle style="fill:none;stroke:black;stroke-width:3;" cx="233.55269" r="258.89375" cy="188.29004" fill="none"/>
      <circle style="fill:none;stroke:black;stroke-width:3;" cx="240.39005" r="268.91029" cy="179.47876" fill="none"/>
      <circle style="fill:none;stroke:black;stroke-width:3;" cx="246.89516" r="278.83390" cy="170.41942" fill="none"/>
      <circle style="fill:none;stroke:black;stroke-width:3;" cx="253.05904" r="288.66117" cy="161.12455" fill="none"/>
      <circle style="fill:none;stroke:black;stroke-width:3;" cx="258.87317" r="298.38868" cy="151.60699" fill="none"/>
      <circle style="fill:none;stroke:black;stroke-width:3;" cx="264.32952" r="308.01309" cy="141.87990" fill="none"/>
      <circle style="fill:none;stroke:black;stroke-width:3;" cx="269.42054" r="317.53106" cy="131.95671" fill="none"/>
      <circle style="fill:none;stroke:black;stroke-width:3;" cx="274.13919" r="326.93931" cy="121.85115" fill="none"/>
      <circle style="fill:none;stroke:black;stroke-width:3;" cx="278.47896" r="336.23458" cy="111.57718" fill="none"/>
      <circle style="fill:none;stroke:black;stroke-width:3;" cx="282.43385" r="345.41367" cy="101.14900" fill="none"/>
      <circle style="fill:none;stroke:black;stroke-width:3;" cx="285.99839" r="354.47340" cy="90.58102" fill="none"/>
      <circle style="fill:none;stroke:black;stroke-width:3;" cx="289.16765" r="363.41064" cy="79.88785" fill="none"/>
      <circle style="fill:none;stroke:black;stroke-width:3;" cx="291.93726" r="372.22230" cy="69.08427" fill="none"/>
      <circle style="fill:none;stroke:black;stroke-width:3;" cx="294.30338" r="380.90534" cy="58.18520" fill="none"/>
      <circle style="fill:none;stroke:black;stroke-width:3;" cx="296.26275" r="389.45676" cy="47.20573" fill="none"/>
      <circle style="fill:none;stroke:black;stroke-width:3;" cx="297.81266" r="397.87359" cy="36.16100" fill="none"/>
      <circle style="fill:none;stroke:black;stroke-width:3;" cx="298.95097" r="406.15295" cy="25.06630" fill="none"/>
      <circle style="fill:none;stroke:black;stroke-width:3;" cx="299.67609" r="414.29195" cy="13.93696" fill="none"/>
      <circle style="fill:none;stroke:black;stroke-width:3;" cx="299.98704" r="422.28780" cy="2.78836" fill="none"/>
      <circle style="fill:none;stroke:black;stroke-width:3;" cx="299.88338" r="430.13772" cy="-8.36410" fill="none"/>
      <circle style="fill:none;stroke:black;stroke-width:3;" cx="299.36525" r="437.83901" cy="-19.50500" fill="none"/>
      <circle style="fill:none;stroke:black;stroke-width:3;" cx="298.43338" r="445.38901" cy="-30.61894" fill="none"/>
      <circle style="fill:none;stroke:black;stroke-width:3;" cx="297.08904" r="452.78509" cy="-41.69057" fill="none"/>
      <circle style="fill:none;stroke:black;stroke-width:3;" cx="295.33410" r="460.02472" cy="-52.70457" fill="none"/>
      <circle style="fill:none;stroke:black;stroke-width:3;" cx="293.17098" r="467.10538" cy="-63.64573" fill="none"/>
      <circle style="fill:none;stroke:black;stroke-width:3;" cx="290.60267" r="474.02464" cy="-74.49893" fill="none"/>
      <circle style="fill:none;stroke:black;stroke-width:3;" cx="287.63272" r="480.78009" cy="-85.24916" fill="none"/>
      <circle style="fill:none;stroke:black;stroke-width:3;" cx="284.26524" r="487.36941" cy="-95.88157" fill="none"/>
      <circle style="fill:none;stroke:black;stroke-width:3;" cx="280.50487" r="493.79032" cy="-106.38147" fill="none"/>
      <circle style="fill:none;stroke:black;stroke-width:3;" cx="276.35683" r="500.04060" cy="-116.73433" fill="none"/>
      <circle style="fill:none;stroke:black;stroke-width:3;" cx="271.82683" r="506.11808" cy="-126.92586" fill="none"/>
      <circle style="fill:none;stroke:black;stroke-width:3;" cx="266.92115" r="512.02068" cy="-136.94196" fill="none"/>
      <circle style="fill:none;stroke:black;stroke-width:3;" cx="261.64655" r="517.74635" cy="-146.76880" fill="none"/>
      <circle style="fill:none;stroke:black;stroke-width:3;" cx="256.01034" r="523.29311" cy="-156.39279" fill="none"/>
      <circle style="fill:none;stroke:black;stroke-width:3;" cx="250.02030" r="528.65904" cy="-165.80063" fill="none"/>
      <circle style="fill:none;stroke:black;stroke-width:3;" cx="243.68471" r="533.84229" cy="-174.97932" fill="none"/>
      <circle style="fill:none;stroke:black;stroke-width:3;" cx="237.01232" r="538.84108" cy="-183.91618" fill="none"/>
      <circle style="fill:none;stroke:black;stroke-width:3;" cx="230.01236" r="543.65366" cy="-192.59884" fill="none"/>
      <circle style="fill:none;stroke:black;stroke-width:3;" cx="222.69450" r="548.27839" cy="-201.01532" fill="none"/>
      <circle style="fill:none;stroke:black;stroke-width:3;" cx="215.06886" r="552.71365" cy="-209.15397" fill="none"/>
      <circle style="fill:none;stroke:black;stroke-width:3;" cx="207.14598" r="556.95793" cy="-217.00356" fill="none"/>
      <circle style="fill:none;stroke:black;stroke-width:3;" cx="198.93680" r="561.00975" cy="-224.55322" fill="none"/>
      <circle style="fill:none;stroke:black;stroke-width:3;" cx="190.45267" r="564.86770" cy="-231.79254" fill="none"/>
      <circle style="fill:none;stroke:black;stroke-width:3;" cx="181.70532" r="568.53047" cy="-238.71149" fill="none"/>
      <circle style="fill:none;stroke:black;stroke-width:3;" cx="172.70683" r="571.99678" cy="-245.30053" fill="none"/>
      <circle style="fill:none;stroke:black;stroke-width:3;" cx="163.46965" r="575.26544" cy="-251.55054" fill="none"/>
      <circle style="fill:none;stroke:black;stroke-width:3;" cx="154.00654" r="578.33531" cy="-257.45288" fill="none"/>
      <circle style="fill:none;stroke:black;stroke-width:3;" cx="144.33058" r="581.20533" cy="-262.99940" fill="none"/>
      <circle style="fill:none;stroke:black;stroke-width:3;" cx="134.45514" r="583.87452" cy="-268.18243" fill="none"/>
      <circle style="fill:none;stroke:black;stroke-width:3;" cx="124.39388" r="586.34195" cy="-272.99480" fill="none"/>
      <circle style="fill:none;stroke:black;stroke-width:3;" cx="114.16068" r="588.60677" cy="-277.42988" fill="none"/>
      <circle style="fill:none;stroke:black;stroke-width:3;" cx="103.76971" r="590.66819" cy="-281.48152" fill="none"/>
      <circle style="fill:none;stroke:black;stroke-width:3;" cx="93.23532" r="592.52551" cy="-285.14413" fill="none"/>
      <circle style="fill:none;stroke:black;stroke-width:3;" cx="82.57207" r="594.17808" cy="-288.41264" fill="none"/>
      <circle style="fill:none;stroke:black;stroke-width:3;" cx="71.79470" r="595.62532" cy="-291.28255" fill="none"/>
      <circle style="fill:none;stroke:black;stroke-width:3;" cx="60.91810" r="596.86675" cy="-293.74987" fill="none"/>
      <circle style="fill:none;stroke:black;stroke-width:3;" cx="49.95731" r="597.90193" cy="-295.81120" fill="none"/>
      <circle style="fill:none;stroke:black;stroke-width:3;" cx="38.92747" r="598.73051" cy="-297.46370" fill="none"/>
      <circle style="fill:none;stroke:black;stroke-width:3;" cx="27.84383" r="599.35219" cy="-298.70507" fill="none"/>
      <circle style="fill:none;stroke:black;stroke-width:3;" cx="16.72170" r="599.76676" cy="-299.53361" fill="none"/>
      <circle style="fill:none;stroke:black;stroke-width:3;" cx="5.57647" r="599.97408" cy="-299.94817" fill="none"/>
      <circle style="fill:none;stroke:black;stroke-width:3;" cx="-5.57647" r="599.97408" cy="-299.94817" fill="none"/>
      <circle style="fill:none;stroke:black;stroke-width:3;" cx="-16.72170" r="599.76676" cy="-299.53361" fill="none"/>
      <circle style="fill:none;stroke:black;stroke-width:3;" cx="-27.84383" r="599.35219" cy="-298.70507" fill="none"/>
      <circle style="fill:none;stroke:black;stroke-width:3;" cx="-38.92747" r="598.73051" cy="-297.46370" fill="none"/>
      <circle style="fill:none;stroke:black;stroke-width:3;" cx="-49.95731" r="597.90193" cy="-295.81120" fill="none"/>
      <circle style="fill:none;stroke:black;stroke-width:3;" cx="-60.91810" r="596.86675" cy="-293.74987" fill="none"/>
      <circle style="fill:none;stroke:black;stroke-width:3;" cx="-71.79470" r="595.62532" cy="-291.28255" fill="none"/>
      <circle style="fill:none;stroke:black;stroke-width:3;" cx="-82.57207" r="594.17808" cy="-288.41264" fill="none"/>
      <circle style="fill:none;stroke:black;stroke-width:3;" cx="-93.23532" r="592.52551" cy="-285.14413" fill="none"/>
      <circle style="fill:none;stroke:black;stroke-width:3;" cx="-103.76971" r="590.66819" cy="-281.48152" fill="none"/>
      <circle style="fill:none;stroke:black;stroke-width:3;" cx="-114.16068" r="588.60677" cy="-277.42988" fill="none"/>
      <circle style="fill:none;stroke:black;stroke-width:3;" cx="-124.39388" r="586.34195" cy="-272.99480" fill="none"/>
      <circle style="fill:none;stroke:black;stroke-width:3;" cx="-134.45514" r="583.87452" cy="-268.18243" fill="none"/>
      <circle style="fill:none;stroke:black;stroke-width:3;" cx="-144.33058" r="581.20533" cy="-262.99940" fill="none"/>
      <circle style="fill:none;stroke:black;stroke-width:3;" cx="-154.00654" r="578.33531" cy="-257.45288" fill="none"/>
      <circle style="fill:none;stroke:black;stroke-width:3;" cx="-163.46965" r="575.26544" cy="-251.55054" fill="none"/>
      <circle style="fill:none;stroke:black;stroke-width:3;" cx="-172.70683" r="571.99678" cy="-245.30053" fill="none"/>
      <circle style="fill:none;stroke:black;stroke-width:3;" cx="-181.70532" r="568.53047" cy="-238.71149" fill="none"/>
      <circle style="fill:none;stroke:black;stroke-width:3;" cx="-190.45267" r="564.86770" cy="-231.79254" fill="none"/>
      <circle style="fill:none;stroke:black;stroke-width:3;" cx="-198.93680" r="561.00975" cy="-224.55322" fill="none"/>
      <circle style="fill:none;stroke:black;stroke-width:3;" cx="-207.14598" r="556.95793" cy="-217.00356" fill="none"/>
      <circle style="fill:none;stroke:black;stroke-width:3;" cx="-215.06886" r="552.71365" cy="-209.15397" fill="none"/>
      <circle style="fill:none;stroke:black;stroke-width:3;" cx="-222.69450" r="548.27839" cy="-201.01532" fill="none"/>
      <circle style="fill:none;stroke:black;stroke-width:3;" cx="-230.01236" r="543.65366" cy="-192.59884" fill="none"/>
      <circle style="fill:none;stroke:black;stroke-width:3;" cx="-237.01232" r="538.84108" cy="-183.91618" fill="none"/>
      <circle style="fill:none;stroke:black;stroke-width:3;" cx="-243.68471" r="533.84229" cy="-174.97932" fill="none"/>
      <circle style="fill:none;stroke:black;stroke-width:3;" cx="-250.02030" r="528.65904" cy="-165.80063" fill="none"/>
      <circle style="fill:none;stroke:black;stroke-width:3;" cx="-256.01034" r="523.29311" cy="-156.39279" fill="none"/>
      <circle style="fill:none;stroke:black;stroke-width:3;" cx="-261.64655" r="517.74635" cy="-146.76880" fill="none"/>
      <circle style="fill:none;stroke:black;stroke-width:3;" cx="-266.92115" r="512.02068" cy="-136.94196" fill="none"/>
      <circle style="fill:none;stroke:black;stroke-width:3;" cx="-271.82683" r="506.11808" cy="-126.92586" fill="none"/>
      <circle style="fill:none;stroke:black;stroke-width:3;" cx="-276.35683" r="500.04060" cy="-116.73433" fill="none"/>
      <circle style="fill:none;stroke:black;stroke-width:3;" cx="-280.50487" r="493.79032" cy="-106.38147" fill="none"/>
      <circle style="fill:none;stroke:black;stroke-width:3;" cx="-284.26524" r="487.36941" cy="-95.88157" fill="none"/>
      <circle style="fill:none;stroke:black;stroke-width:3;" cx="-287.63272" r="480.78009" cy="-85.24916" fill="none"/>
      <circle style="fill:none;stroke:black;stroke-width:3;" cx="-290.60267" r="474.02464" cy="-74.49893" fill="none"/>
      <circle style="fill:none;stroke:black;stroke-width:3;" cx="-293.17098" r="467.10538" cy="-63.64573" fill="none"/>
      <circle style="fill:none;stroke:black;stroke-width:3;" cx="-295.33410" r="460.02472" cy="-52.70457" fill="none"/>
      <circle style="fill:none;stroke:black;stroke-width:3;" cx="-297.08904" r="452.78509" cy="-41.69057" fill="none"/>
      <circle style="fill:none;stroke:black;stroke-width:3;" cx="-298.43338" r="445.38901" cy="-30.61894" fill="none"/>
      <circle style="fill:none;stroke:black;stroke-width:3;" cx="-299.36525" r="437.83901" cy="-19.50500" fill="none"/>
      <circle style="fill:none;stroke:black;stroke-width:3;" cx="-299.88338" r="430.13772" cy="-8.36410" fill="none"/>
      <circle style="fill:none;stroke:black;stroke-width:3;" cx="-299.98704" r="422.28780" cy="2.78836" fill="none"/>
      <circle style="fill:none;stroke:black;stroke-width:3;" cx="-299.67609" r="414.29195" cy="13.93696" fill="none"/>
      <circle style="fill:none;stroke:black;stroke-width:3;" cx="-298.95097" r="406.15295" cy="25.06630" fill="none"/>
      <circle style="fill:none;stroke:black;stroke-width:3;" cx="-297.81266" r="397.87359" cy="36.16100" fill="none"/>
      <circle style="fill:none;stroke:black;stroke-width:3;" cx="-296.26275" r="389.45676" cy="47.20573" fill="none"/>
      <circle style="fill:none;stroke:black;stroke-width:3;" cx="-294.30338" r="380.90534" cy="58.18520" fill="none"/>
      <circle style="fill:none;stroke:black;stroke-width:3;" cx="-291.93726" r="372.22230" cy="69.08427" fill="none"/>
      <circle style="fill:none;stroke:black;stroke-width:3;" cx="-289.16765" r="363.41064" cy="79.88785" fill="none"/>
      <circle style="fill:none;stroke:black;stroke-width:3;" cx="-285.99839" r="354.47340" cy="90.58102" fill="none"/>
      <circle style="fill:none;stroke:black;stroke-width:3;" cx="-282.43385" r="345.41367" cy="101.14900" fill="none"/>
      <circle style="fill:none;stroke:black;stroke-width:3;" cx="-278.47896" r="336.23458" cy="111.57718" fill="none"/>
      <circle style="fill:none;stroke:black;stroke-width:3;" cx="-274.13919" r="326.93931" cy="121.85115" fill="none"/>
      <circle style="fill:none;stroke:black;stroke-width:3;" cx="-269.42054" r="317.53106" cy="131.95671" fill="none"/>
      <circle style="fill:none;stroke:black;stroke-width:3;" cx="-264.32952" r="308.01309" cy="141.87990" fill="none"/>
      <circle style="fill:none;stroke:black;stroke-width:3;" cx="-258.87317" r="298.38868" cy="151.60699" fill="none"/>
      <circle style="fill:none;stroke:black;stroke-width:3;" cx="-253.05904" r="288.66117" cy="161.12455" fill="none"/>
      <circle style="fill:none;stroke:black;stroke-width:3;" cx="-246.89516" r="278.83390" cy="170.41942" fill="none"/>
      <circle style="fill:none;stroke:black;stroke-width:3;" cx="-240.39005" r="268.91029" cy="179.47876" fill="none"/>
      <circle style="fill:none;stroke:black;stroke-width:3;" cx="-233.55269" r="258.89375" cy="188.29004" fill="none"/>
      <circle style="fill:none;stroke:black;stroke-width:3;" cx="-226.39255" r="248.78775" cy="196.84109" fill="none"/>
      <circle style="fill:none;stroke:black;stroke-width:3;" cx="-218.91951" r="238.59578" cy="205.12009" fill="none"/>
      <circle style="fill:none;stroke:black;stroke-width:3;" cx="-211.14390" r="228.32137" cy="213.11559" fill="none"/>
      <circle style="fill:none;stroke:black;stroke-width:3;" cx="-203.07647" r="217.96806" cy="220.81654" fill="none"/>
      <circle style="fill:none;stroke:black;stroke-width:3;" cx="-194.72838" r="207.53943" cy="228.21231" fill="none"/>
      <circle style="fill:none;stroke:black;stroke-width:3;" cx="-186.11115" r="197.03908" cy="235.29267" fill="none"/>
      <circle style="fill:none;stroke:black;stroke-width:3;" cx="-177.23670" r="186.47064" cy="242.04783" fill="none"/>
      <circle style="fill:none;stroke:black;stroke-width:3;" cx="-168.11729" r="175.83777" cy="248.46846" fill="none"/>
      <circle style="fill:none;stroke:black;stroke-width:3;" cx="-158.76553" r="165.14414" cy="254.54569" fill="none"/>
      <circle style="fill:none;stroke:black;stroke-width:3;" cx="-149.19434" r="154.39345" cy="260.27111" fill="none"/>
      <circle style="fill:none;stroke:black;stroke-width:3;" cx="-139.41695" r="143.58940" cy="265.63681" fill="none"/>
      <circle style="fill:none;stroke:black;stroke-width:3;" cx="-129.44688" r="132.73573" cy="270.63538" fill="none"/>
      <circle style="fill:none;stroke:black;stroke-width:3;" cx="-119.29789" r="121.83620" cy="275.25990" fill="none"/>
      <circle style="fill:none;stroke:black;stroke-width:3;" cx="-108.98403" r="110.89457" cy="279.50399" fill="none"/>
      <circle style="fill:none;stroke:black;stroke-width:3;" cx="-98.51954" r="99.91461" cy="283.36178" fill="none"/>
      <circle style="fill:none;stroke:black;stroke-width:3;" cx="-87.91889" r="88.90013" cy="286.82794" fill="none"/>
      <circle style="fill:none;stroke:black;stroke-width:3;" cx="-77.19672" r="77.85494" cy="289.89768" fill="none"/>
      <circle style="fill:none;stroke:black;stroke-width:3;" cx="-66.36787" r="66.78283" cy="292.56676" fill="none"/>
      <circle style="fill:none;stroke:black;stroke-width:3;" cx="-55.44728" r="55.68765" cy="294.83148" fill="none"/>
      <circle style="fill:none;stroke:black;stroke-width:3;" cx="-44.45007" r="44.57323" cy="296.68871" fill="none"/>
      <circle style="fill:none;stroke:black;stroke-width:3;" cx="-33.39142" r="33.44341" cy="298.13590" fill="none"/>
      <circle style="fill:none;stroke:black;stroke-width:3;" cx="-22.28662" r="22.30203" cy="299.17103" fill="none"/>
      <circle style="fill:none;stroke:black;stroke-width:3;" cx="-11.15101" r="11.15294" cy="299.79269" fill="none"/>
    </g>
  </g>
</svg>
