<svg xmlns:ns0="http://www.w3.org/2000/svg" xlink="http://www.w3.org/1999/xlink" xmlns="http://www.w3.org/2000/svg" ns0:svg="http://www.w3.org/2000/svg" width="1280" height="1280">
  <defs/>
  <g id="canvas" transform="matrix(1,0,0,-1,0,1280) translate(640,640)">
    <rect y="-200.00000" x="-200.00000" style="stroke:none; fill:white" width="400.00000" height="400.00000"/>
    <circle style="fill:black; stroke:none" cx="0.00000" r="200.00000" cy="0.00000"/>
    <rect y="-141.42136" x="-141.42136" style="stroke:none; fill:white" width="282.84271" height="282.84271"/>
    <circle style="fill:black; stroke:none" cx="0.00000" r="141.42136" cy="0.00000"/>
    <rect y="-100.00000" x="-100.00000" style="stroke:none; fill:white" width="200.00000" height="200.00000"/>
    <circle style="fill:black; stroke:none" cx="0.00000" r="100.00000" cy="0.00000"/>
    <rect y="-70.71068" x="-70.71068" style="stroke:none; fill:white" width="141.42136" height="141.42136"/>
    <circle style="fill:black; stroke:none" cx="0.00000" r="70.71068" cy="0.00000"/>
    <rect y="-50.00000" x="-50.00000" style="stroke:none; fill:white" width="100.00000" height="100.00000"/>
    <circle style="fill:black; stroke:none" cx="0.00000" r="50.00000" cy="0.00000"/>
    <rect y="-35.35534" x="-35.35534" style="stroke:none; fill:white" width="70.71068" height="70.71068"/>
    <circle style="fill:black; stroke:none" cx="0.00000" r="35.35534" cy="0.00000"/>
    <rect y="-25.00000" x="-25.00000" style="stroke:none; fill:white" width="50.00000" height="50.00000"/>
    <circle style="fill:black; stroke:none" cx="0.00000" r="25.00000" cy="0.00000"/>
    <rect y="-17.67767" x="-17.67767" style="stroke:none; fill:white" width="35.35534" height="35.35534"/>
    <circle style="fill:black; stroke:none" cx="0.00000" r="17.67767" cy="0.00000"/>
    <rect y="-12.50000" x="-12.50000" style="stroke:none; fill:white" width="25.00000" height="25.00000"/>
    <circle style="fill:black; stroke:none" cx="0.00000" r="12.50000" cy="0.00000"/>
    <rect y="-8.83883" x="-8.83883" style="stroke:none; fill:white" width="17.67767" height="17.67767"/>
    <circle style="fill:black; stroke:none" cx="0.00000" r="8.83883" cy="0.00000"/>
    <rect y="-6.25000" x="-6.25000" style="stroke:none; fill:white" width="12.50000" height="12.50000"/>
    <circle style="fill:black; stroke:none" cx="0.00000" r="6.25000" cy="0.00000"/>
    <rect y="-4.41942" x="-4.41942" style="stroke:none; fill:white" width="8.83883" height="8.83883"/>
    <circle style="fill:black; stroke:none" cx="0.00000" r="4.41942" cy="0.00000"/>
    <rect y="-3.12500" x="-3.12500" style="stroke:none; fill:white" width="6.25000" height="6.25000"/>
    <circle style="fill:black; stroke:none" cx="0.00000" r="3.12500" cy="0.00000"/>
    <rect y="-2.20971" x="-2.20971" style="stroke:none; fill:white" width="4.41942" height="4.41942"/>
    <circle style="fill:black; stroke:none" cx="0.00000" r="2.20971" cy="0.00000"/>
    <rect y="-1.56250" x="-1.56250" style="stroke:none; fill:white" width="3.12500" height="3.12500"/>
    <circle style="fill:black; stroke:none" cx="0.00000" r="1.56250" cy="0.00000"/>
    <rect y="-1.10485" x="-1.10485" style="stroke:none; fill:white" width="2.20971" height="2.20971"/>
    <circle style="fill:black; stroke:none" cx="0.00000" r="1.10485" cy="0.00000"/>
    <rect y="-0.78125" x="-0.78125" style="stroke:none; fill:white" width="1.56250" height="1.56250"/>
    <circle style="fill:black; stroke:none" cx="0.00000" r="0.78125" cy="0.00000"/>
    <rect y="-0.55243" x="-0.55243" style="stroke:none; fill:white" width="1.10485" height="1.10485"/>
    <circle style="fill:black; stroke:none" cx="0.00000" r="0.55243" cy="0.00000"/>
    <rect y="-0.39062" x="-0.39062" style="stroke:none; fill:white" width="0.78125" height="0.78125"/>
    <circle style="fill:black; stroke:none" cx="0.00000" r="0.39062" cy="0.00000"/>
    <rect y="-0.27621" x="-0.27621" style="stroke:none; fill:white" width="0.55243" height="0.55243"/>
    <circle style="fill:black; stroke:none" cx="0.00000" r="0.27621" cy="0.00000"/>
    <rect y="-0.19531" x="-0.19531" style="stroke:none; fill:white" width="0.39062" height="0.39062"/>
    <circle style="fill:black; stroke:none" cx="0.00000" r="0.19531" cy="0.00000"/>
    <rect y="-0.13811" x="-0.13811" style="stroke:none; fill:white" width="0.27621" height="0.27621"/>
    <circle style="fill:black; stroke:none" cx="0.00000" r="0.13811" cy="0.00000"/>
  </g>
</svg>
