<svg xmlns:ns0="http://www.w3.org/2000/svg" xlink="http://www.w3.org/1999/xlink" xmlns="http://www.w3.org/2000/svg" ns0:svg="http://www.w3.org/2000/svg" width="1280" height="1280">
  <defs/>
  <g id="canvas" transform="matrix(1,0,0,-1,0,1280) translate(640,640)">
    <g id="offsetradialgrid">
      <g id="even">
        <path style="stroke:black;stroke-width:4;fill:none" d="M-517.37474,168.10524 L-414.21670,300.94605 L-456.50713,148.32816 L-512.00000,-0.00000 Z"/>
        <path style="stroke:black;stroke-width:4;fill:none" d="M-319.75518,440.10524 L-158.21670,486.94094 L-282.13692,388.32816 L-414.21670,300.94605 Z"/>
        <path style="stroke:black;stroke-width:4;fill:none" d="M-0.00000,544.00000 L158.21670,486.94094 L-0.00000,480.00000 L-158.21670,486.94094 Z"/>
        <path style="stroke:black;stroke-width:4;fill:none" d="M319.75518,440.10524 L414.21670,300.94605 L282.13692,388.32816 L158.21670,486.94094 Z"/>
        <path style="stroke:black;stroke-width:4;fill:none" d="M517.37474,168.10524 L512.00000,0.00000 L456.50713,148.32816 L414.21670,300.94605 Z"/>
        <path style="stroke:black;stroke-width:4;fill:none" d="M517.37474,-168.10524 L414.21670,-300.94605 L456.50713,-148.32816 L512.00000,0.00000 Z"/>
        <path style="stroke:black;stroke-width:4;fill:none" d="M319.75518,-440.10524 L158.21670,-486.94094 L282.13692,-388.32816 L414.21670,-300.94605 Z"/>
        <path style="stroke:black;stroke-width:4;fill:none" d="M0.00000,-544.00000 L-158.21670,-486.94094 L0.00000,-480.00000 L158.21670,-486.94094 Z"/>
        <path style="stroke:black;stroke-width:4;fill:none" d="M-319.75518,-440.10524 L-414.21670,-300.94605 L-282.13692,-388.32816 L-158.21670,-486.94094 Z"/>
        <path style="stroke:black;stroke-width:4;fill:none" d="M-517.37474,-168.10524 L-512.00000,-0.00000 L-456.50713,-148.32816 L-414.21670,-300.94605 Z"/>
        <path style="stroke:black;stroke-width:4;fill:none" d="M-456.50713,-148.32816 L-448.00000,-0.00000 L-395.63951,-128.55107 L-362.43961,-263.32779 Z"/>
        <path style="stroke:black;stroke-width:4;fill:none" d="M-456.50713,148.32816 L-362.43961,263.32779 L-395.63951,128.55107 L-448.00000,-0.00000 Z"/>
        <path style="stroke:black;stroke-width:4;fill:none" d="M-282.13692,388.32816 L-138.43961,426.07332 L-244.51866,336.55107 L-362.43961,263.32779 Z"/>
        <path style="stroke:black;stroke-width:4;fill:none" d="M-0.00000,480.00000 L138.43961,426.07332 L-0.00000,416.00000 L-138.43961,426.07332 Z"/>
        <path style="stroke:black;stroke-width:4;fill:none" d="M282.13692,388.32816 L362.43961,263.32779 L244.51866,336.55107 L138.43961,426.07332 Z"/>
        <path style="stroke:black;stroke-width:4;fill:none" d="M456.50713,148.32816 L448.00000,0.00000 L395.63951,128.55107 L362.43961,263.32779 Z"/>
        <path style="stroke:black;stroke-width:4;fill:none" d="M456.50713,-148.32816 L362.43961,-263.32779 L395.63951,-128.55107 L448.00000,0.00000 Z"/>
        <path style="stroke:black;stroke-width:4;fill:none" d="M282.13692,-388.32816 L138.43961,-426.07332 L244.51866,-336.55107 L362.43961,-263.32779 Z"/>
        <path style="stroke:black;stroke-width:4;fill:none" d="M0.00000,-480.00000 L-138.43961,-426.07332 L0.00000,-416.00000 L138.43961,-426.07332 Z"/>
        <path style="stroke:black;stroke-width:4;fill:none" d="M-282.13692,-388.32816 L-362.43961,-263.32779 L-244.51866,-336.55107 L-138.43961,-426.07332 Z"/>
        <path style="stroke:black;stroke-width:4;fill:none" d="M-244.51866,-336.55107 L-310.66253,-225.70954 L-206.90041,-284.77398 L-118.66253,-365.20570 Z"/>
        <path style="stroke:black;stroke-width:4;fill:none" d="M-395.63951,-128.55107 L-384.00000,-0.00000 L-334.77189,-108.77398 L-310.66253,-225.70954 Z"/>
        <path style="stroke:black;stroke-width:4;fill:none" d="M-395.63951,128.55107 L-310.66253,225.70954 L-334.77189,108.77398 L-384.00000,-0.00000 Z"/>
        <path style="stroke:black;stroke-width:4;fill:none" d="M-244.51866,336.55107 L-118.66253,365.20570 L-206.90041,284.77398 L-310.66253,225.70954 Z"/>
        <path style="stroke:black;stroke-width:4;fill:none" d="M-0.00000,416.00000 L118.66253,365.20570 L-0.00000,352.00000 L-118.66253,365.20570 Z"/>
        <path style="stroke:black;stroke-width:4;fill:none" d="M244.51866,336.55107 L310.66253,225.70954 L206.90041,284.77398 L118.66253,365.20570 Z"/>
        <path style="stroke:black;stroke-width:4;fill:none" d="M395.63951,128.55107 L384.00000,0.00000 L334.77189,108.77398 L310.66253,225.70954 Z"/>
        <path style="stroke:black;stroke-width:4;fill:none" d="M395.63951,-128.55107 L310.66253,-225.70954 L334.77189,-108.77398 L384.00000,0.00000 Z"/>
        <path style="stroke:black;stroke-width:4;fill:none" d="M244.51866,-336.55107 L118.66253,-365.20570 L206.90041,-284.77398 L310.66253,-225.70954 Z"/>
        <path style="stroke:black;stroke-width:4;fill:none" d="M0.00000,-416.00000 L-118.66253,-365.20570 L0.00000,-352.00000 L118.66253,-365.20570 Z"/>
        <path style="stroke:black;stroke-width:4;fill:none" d="M0.00000,-352.00000 L-98.88544,-304.33809 L0.00000,-288.00000 L98.88544,-304.33809 Z"/>
        <path style="stroke:black;stroke-width:4;fill:none" d="M-206.90041,-284.77398 L-258.88544,-188.09128 L-169.28215,-232.99689 L-98.88544,-304.33809 Z"/>
        <path style="stroke:black;stroke-width:4;fill:none" d="M-334.77189,-108.77398 L-320.00000,-0.00000 L-273.90428,-88.99689 L-258.88544,-188.09128 Z"/>
        <path style="stroke:black;stroke-width:4;fill:none" d="M-334.77189,108.77398 L-258.88544,188.09128 L-273.90428,88.99689 L-320.00000,-0.00000 Z"/>
        <path style="stroke:black;stroke-width:4;fill:none" d="M-206.90041,284.77398 L-98.88544,304.33809 L-169.28215,232.99689 L-258.88544,188.09128 Z"/>
        <path style="stroke:black;stroke-width:4;fill:none" d="M-0.00000,352.00000 L98.88544,304.33809 L-0.00000,288.00000 L-98.88544,304.33809 Z"/>
        <path style="stroke:black;stroke-width:4;fill:none" d="M206.90041,284.77398 L258.88544,188.09128 L169.28215,232.99689 L98.88544,304.33809 Z"/>
        <path style="stroke:black;stroke-width:4;fill:none" d="M334.77189,108.77398 L320.00000,0.00000 L273.90428,88.99689 L258.88544,188.09128 Z"/>
        <path style="stroke:black;stroke-width:4;fill:none" d="M334.77189,-108.77398 L258.88544,-188.09128 L273.90428,-88.99689 L320.00000,0.00000 Z"/>
        <path style="stroke:black;stroke-width:4;fill:none" d="M206.90041,-284.77398 L98.88544,-304.33809 L169.28215,-232.99689 L258.88544,-188.09128 Z"/>
        <path style="stroke:black;stroke-width:4;fill:none" d="M169.28215,-232.99689 L79.10835,-243.47047 L131.66390,-181.21981 L207.10835,-150.47302 Z"/>
        <path style="stroke:black;stroke-width:4;fill:none" d="M0.00000,-288.00000 L-79.10835,-243.47047 L0.00000,-224.00000 L79.10835,-243.47047 Z"/>
        <path style="stroke:black;stroke-width:4;fill:none" d="M-169.28215,-232.99689 L-207.10835,-150.47302 L-131.66390,-181.21981 L-79.10835,-243.47047 Z"/>
        <path style="stroke:black;stroke-width:4;fill:none" d="M-273.90428,-88.99689 L-256.00000,-0.00000 L-213.03666,-69.21981 L-207.10835,-150.47302 Z"/>
        <path style="stroke:black;stroke-width:4;fill:none" d="M-273.90428,88.99689 L-207.10835,150.47302 L-213.03666,69.21981 L-256.00000,-0.00000 Z"/>
        <path style="stroke:black;stroke-width:4;fill:none" d="M-169.28215,232.99689 L-79.10835,243.47047 L-131.66390,181.21981 L-207.10835,150.47302 Z"/>
        <path style="stroke:black;stroke-width:4;fill:none" d="M-0.00000,288.00000 L79.10835,243.47047 L-0.00000,224.00000 L-79.10835,243.47047 Z"/>
        <path style="stroke:black;stroke-width:4;fill:none" d="M169.28215,232.99689 L207.10835,150.47302 L131.66390,181.21981 L79.10835,243.47047 Z"/>
        <path style="stroke:black;stroke-width:4;fill:none" d="M273.90428,88.99689 L256.00000,0.00000 L213.03666,69.21981 L207.10835,150.47302 Z"/>
        <path style="stroke:black;stroke-width:4;fill:none" d="M273.90428,-88.99689 L207.10835,-150.47302 L213.03666,-69.21981 L256.00000,0.00000 Z"/>
        <path style="stroke:black;stroke-width:4;fill:none" d="M213.03666,-69.21981 L155.33126,-112.85477 L152.16904,-49.44272 L192.00000,0.00000 Z"/>
        <path style="stroke:black;stroke-width:4;fill:none" d="M131.66390,-181.21981 L59.33126,-182.60285 L94.04564,-129.44272 L155.33126,-112.85477 Z"/>
        <path style="stroke:black;stroke-width:4;fill:none" d="M0.00000,-224.00000 L-59.33126,-182.60285 L0.00000,-160.00000 L59.33126,-182.60285 Z"/>
        <path style="stroke:black;stroke-width:4;fill:none" d="M-131.66390,-181.21981 L-155.33126,-112.85477 L-94.04564,-129.44272 L-59.33126,-182.60285 Z"/>
        <path style="stroke:black;stroke-width:4;fill:none" d="M-213.03666,-69.21981 L-192.00000,-0.00000 L-152.16904,-49.44272 L-155.33126,-112.85477 Z"/>
        <path style="stroke:black;stroke-width:4;fill:none" d="M-213.03666,69.21981 L-155.33126,112.85477 L-152.16904,49.44272 L-192.00000,-0.00000 Z"/>
        <path style="stroke:black;stroke-width:4;fill:none" d="M-131.66390,181.21981 L-59.33126,182.60285 L-94.04564,129.44272 L-155.33126,112.85477 Z"/>
        <path style="stroke:black;stroke-width:4;fill:none" d="M-0.00000,224.00000 L59.33126,182.60285 L-0.00000,160.00000 L-59.33126,182.60285 Z"/>
        <path style="stroke:black;stroke-width:4;fill:none" d="M131.66390,181.21981 L155.33126,112.85477 L94.04564,129.44272 L59.33126,182.60285 Z"/>
        <path style="stroke:black;stroke-width:4;fill:none" d="M213.03666,69.21981 L192.00000,0.00000 L152.16904,49.44272 L155.33126,112.85477 Z"/>
        <path style="stroke:black;stroke-width:4;fill:none" d="M152.16904,49.44272 L128.00000,0.00000 L91.30143,29.66563 L103.55418,75.23651 Z"/>
        <path style="stroke:black;stroke-width:4;fill:none" d="M152.16904,-49.44272 L103.55418,-75.23651 L91.30143,-29.66563 L128.00000,0.00000 Z"/>
        <path style="stroke:black;stroke-width:4;fill:none" d="M94.04564,-129.44272 L39.55418,-121.73523 L56.42738,-77.66563 L103.55418,-75.23651 Z"/>
        <path style="stroke:black;stroke-width:4;fill:none" d="M0.00000,-160.00000 L-39.55418,-121.73523 L0.00000,-96.00000 L39.55418,-121.73523 Z"/>
        <path style="stroke:black;stroke-width:4;fill:none" d="M-94.04564,-129.44272 L-103.55418,-75.23651 L-56.42738,-77.66563 L-39.55418,-121.73523 Z"/>
        <path style="stroke:black;stroke-width:4;fill:none" d="M-152.16904,-49.44272 L-128.00000,-0.00000 L-91.30143,-29.66563 L-103.55418,-75.23651 Z"/>
        <path style="stroke:black;stroke-width:4;fill:none" d="M-152.16904,49.44272 L-103.55418,75.23651 L-91.30143,29.66563 L-128.00000,-0.00000 Z"/>
        <path style="stroke:black;stroke-width:4;fill:none" d="M-94.04564,129.44272 L-39.55418,121.73523 L-56.42738,77.66563 L-103.55418,75.23651 Z"/>
        <path style="stroke:black;stroke-width:4;fill:none" d="M-0.00000,160.00000 L39.55418,121.73523 L-0.00000,96.00000 L-39.55418,121.73523 Z"/>
        <path style="stroke:black;stroke-width:4;fill:none" d="M94.04564,129.44272 L103.55418,75.23651 L56.42738,77.66563 L39.55418,121.73523 Z"/>
        <path style="stroke:black;stroke-width:4;fill:none" d="M56.42738,77.66563 L51.77709,37.61826 L18.80913,25.88854 L19.77709,60.86762 Z"/>
        <path style="stroke:black;stroke-width:4;fill:none" d="M91.30143,29.66563 L64.00000,0.00000 L30.43381,9.88854 L51.77709,37.61826 Z"/>
        <path style="stroke:black;stroke-width:4;fill:none" d="M91.30143,-29.66563 L51.77709,-37.61826 L30.43381,-9.88854 L64.00000,0.00000 Z"/>
        <path style="stroke:black;stroke-width:4;fill:none" d="M56.42738,-77.66563 L19.77709,-60.86762 L18.80913,-25.88854 L51.77709,-37.61826 Z"/>
        <path style="stroke:black;stroke-width:4;fill:none" d="M0.00000,-96.00000 L-19.77709,-60.86762 L0.00000,-32.00000 L19.77709,-60.86762 Z"/>
        <path style="stroke:black;stroke-width:4;fill:none" d="M-56.42738,-77.66563 L-51.77709,-37.61826 L-18.80913,-25.88854 L-19.77709,-60.86762 Z"/>
        <path style="stroke:black;stroke-width:4;fill:none" d="M-91.30143,-29.66563 L-64.00000,-0.00000 L-30.43381,-9.88854 L-51.77709,-37.61826 Z"/>
        <path style="stroke:black;stroke-width:4;fill:none" d="M-91.30143,29.66563 L-51.77709,37.61826 L-30.43381,9.88854 L-64.00000,-0.00000 Z"/>
        <path style="stroke:black;stroke-width:4;fill:none" d="M-56.42738,77.66563 L-19.77709,60.86762 L-18.80913,25.88854 L-51.77709,37.61826 Z"/>
        <path style="stroke:black;stroke-width:4;fill:none" d="M-0.00000,96.00000 L19.77709,60.86762 L0.00000,32.00000 L-19.77709,60.86762 Z"/>
      </g>
      <g id="odd">
        <path style="stroke:black;stroke-width:4;fill:none" d="M-465.99379,338.56431 L-319.75518,440.10524 L-414.21670,300.94605 L-517.37474,168.10524 Z"/>
        <path style="stroke:black;stroke-width:4;fill:none" d="M-177.99379,547.80855 L-0.00000,544.00000 L-158.21670,486.94094 L-319.75518,440.10524 Z"/>
        <path style="stroke:black;stroke-width:4;fill:none" d="M177.99379,547.80855 L319.75518,440.10524 L158.21670,486.94094 L-0.00000,544.00000 Z"/>
        <path style="stroke:black;stroke-width:4;fill:none" d="M465.99379,338.56431 L517.37474,168.10524 L414.21670,300.94605 L319.75518,440.10524 Z"/>
        <path style="stroke:black;stroke-width:4;fill:none" d="M576.00000,0.00000 L517.37474,-168.10524 L512.00000,0.00000 L517.37474,168.10524 Z"/>
        <path style="stroke:black;stroke-width:4;fill:none" d="M465.99379,-338.56431 L319.75518,-440.10524 L414.21670,-300.94605 L517.37474,-168.10524 Z"/>
        <path style="stroke:black;stroke-width:4;fill:none" d="M177.99379,-547.80855 L0.00000,-544.00000 L158.21670,-486.94094 L319.75518,-440.10524 Z"/>
        <path style="stroke:black;stroke-width:4;fill:none" d="M-177.99379,-547.80855 L-319.75518,-440.10524 L-158.21670,-486.94094 L0.00000,-544.00000 Z"/>
        <path style="stroke:black;stroke-width:4;fill:none" d="M-465.99379,-338.56431 L-517.37474,-168.10524 L-414.21670,-300.94605 L-319.75518,-440.10524 Z"/>
        <path style="stroke:black;stroke-width:4;fill:none" d="M-576.00000,-0.00000 L-517.37474,168.10524 L-512.00000,-0.00000 L-517.37474,-168.10524 Z"/>
        <path style="stroke:black;stroke-width:4;fill:none" d="M-512.00000,-0.00000 L-456.50713,148.32816 L-448.00000,-0.00000 L-456.50713,-148.32816 Z"/>
        <path style="stroke:black;stroke-width:4;fill:none" d="M-414.21670,300.94605 L-282.13692,388.32816 L-362.43961,263.32779 L-456.50713,148.32816 Z"/>
        <path style="stroke:black;stroke-width:4;fill:none" d="M-158.21670,486.94094 L-0.00000,480.00000 L-138.43961,426.07332 L-282.13692,388.32816 Z"/>
        <path style="stroke:black;stroke-width:4;fill:none" d="M158.21670,486.94094 L282.13692,388.32816 L138.43961,426.07332 L-0.00000,480.00000 Z"/>
        <path style="stroke:black;stroke-width:4;fill:none" d="M414.21670,300.94605 L456.50713,148.32816 L362.43961,263.32779 L282.13692,388.32816 Z"/>
        <path style="stroke:black;stroke-width:4;fill:none" d="M512.00000,0.00000 L456.50713,-148.32816 L448.00000,0.00000 L456.50713,148.32816 Z"/>
        <path style="stroke:black;stroke-width:4;fill:none" d="M414.21670,-300.94605 L282.13692,-388.32816 L362.43961,-263.32779 L456.50713,-148.32816 Z"/>
        <path style="stroke:black;stroke-width:4;fill:none" d="M158.21670,-486.94094 L0.00000,-480.00000 L138.43961,-426.07332 L282.13692,-388.32816 Z"/>
        <path style="stroke:black;stroke-width:4;fill:none" d="M-158.21670,-486.94094 L-282.13692,-388.32816 L-138.43961,-426.07332 L0.00000,-480.00000 Z"/>
        <path style="stroke:black;stroke-width:4;fill:none" d="M-414.21670,-300.94605 L-456.50713,-148.32816 L-362.43961,-263.32779 L-282.13692,-388.32816 Z"/>
        <path style="stroke:black;stroke-width:4;fill:none" d="M-362.43961,-263.32779 L-395.63951,-128.55107 L-310.66253,-225.70954 L-244.51866,-336.55107 Z"/>
        <path style="stroke:black;stroke-width:4;fill:none" d="M-448.00000,-0.00000 L-395.63951,128.55107 L-384.00000,-0.00000 L-395.63951,-128.55107 Z"/>
        <path style="stroke:black;stroke-width:4;fill:none" d="M-362.43961,263.32779 L-244.51866,336.55107 L-310.66253,225.70954 L-395.63951,128.55107 Z"/>
        <path style="stroke:black;stroke-width:4;fill:none" d="M-138.43961,426.07332 L-0.00000,416.00000 L-118.66253,365.20570 L-244.51866,336.55107 Z"/>
        <path style="stroke:black;stroke-width:4;fill:none" d="M138.43961,426.07332 L244.51866,336.55107 L118.66253,365.20570 L-0.00000,416.00000 Z"/>
        <path style="stroke:black;stroke-width:4;fill:none" d="M362.43961,263.32779 L395.63951,128.55107 L310.66253,225.70954 L244.51866,336.55107 Z"/>
        <path style="stroke:black;stroke-width:4;fill:none" d="M448.00000,0.00000 L395.63951,-128.55107 L384.00000,0.00000 L395.63951,128.55107 Z"/>
        <path style="stroke:black;stroke-width:4;fill:none" d="M362.43961,-263.32779 L244.51866,-336.55107 L310.66253,-225.70954 L395.63951,-128.55107 Z"/>
        <path style="stroke:black;stroke-width:4;fill:none" d="M138.43961,-426.07332 L0.00000,-416.00000 L118.66253,-365.20570 L244.51866,-336.55107 Z"/>
        <path style="stroke:black;stroke-width:4;fill:none" d="M-138.43961,-426.07332 L-244.51866,-336.55107 L-118.66253,-365.20570 L0.00000,-416.00000 Z"/>
        <path style="stroke:black;stroke-width:4;fill:none" d="M-118.66253,-365.20570 L-206.90041,-284.77398 L-98.88544,-304.33809 L0.00000,-352.00000 Z"/>
        <path style="stroke:black;stroke-width:4;fill:none" d="M-310.66253,-225.70954 L-334.77189,-108.77398 L-258.88544,-188.09128 L-206.90041,-284.77398 Z"/>
        <path style="stroke:black;stroke-width:4;fill:none" d="M-384.00000,-0.00000 L-334.77189,108.77398 L-320.00000,-0.00000 L-334.77189,-108.77398 Z"/>
        <path style="stroke:black;stroke-width:4;fill:none" d="M-310.66253,225.70954 L-206.90041,284.77398 L-258.88544,188.09128 L-334.77189,108.77398 Z"/>
        <path style="stroke:black;stroke-width:4;fill:none" d="M-118.66253,365.20570 L-0.00000,352.00000 L-98.88544,304.33809 L-206.90041,284.77398 Z"/>
        <path style="stroke:black;stroke-width:4;fill:none" d="M118.66253,365.20570 L206.90041,284.77398 L98.88544,304.33809 L-0.00000,352.00000 Z"/>
        <path style="stroke:black;stroke-width:4;fill:none" d="M310.66253,225.70954 L334.77189,108.77398 L258.88544,188.09128 L206.90041,284.77398 Z"/>
        <path style="stroke:black;stroke-width:4;fill:none" d="M384.00000,0.00000 L334.77189,-108.77398 L320.00000,0.00000 L334.77189,108.77398 Z"/>
        <path style="stroke:black;stroke-width:4;fill:none" d="M310.66253,-225.70954 L206.90041,-284.77398 L258.88544,-188.09128 L334.77189,-108.77398 Z"/>
        <path style="stroke:black;stroke-width:4;fill:none" d="M118.66253,-365.20570 L0.00000,-352.00000 L98.88544,-304.33809 L206.90041,-284.77398 Z"/>
        <path style="stroke:black;stroke-width:4;fill:none" d="M98.88544,-304.33809 L0.00000,-288.00000 L79.10835,-243.47047 L169.28215,-232.99689 Z"/>
        <path style="stroke:black;stroke-width:4;fill:none" d="M-98.88544,-304.33809 L-169.28215,-232.99689 L-79.10835,-243.47047 L0.00000,-288.00000 Z"/>
        <path style="stroke:black;stroke-width:4;fill:none" d="M-258.88544,-188.09128 L-273.90428,-88.99689 L-207.10835,-150.47302 L-169.28215,-232.99689 Z"/>
        <path style="stroke:black;stroke-width:4;fill:none" d="M-320.00000,-0.00000 L-273.90428,88.99689 L-256.00000,-0.00000 L-273.90428,-88.99689 Z"/>
        <path style="stroke:black;stroke-width:4;fill:none" d="M-258.88544,188.09128 L-169.28215,232.99689 L-207.10835,150.47302 L-273.90428,88.99689 Z"/>
        <path style="stroke:black;stroke-width:4;fill:none" d="M-98.88544,304.33809 L-0.00000,288.00000 L-79.10835,243.47047 L-169.28215,232.99689 Z"/>
        <path style="stroke:black;stroke-width:4;fill:none" d="M98.88544,304.33809 L169.28215,232.99689 L79.10835,243.47047 L-0.00000,288.00000 Z"/>
        <path style="stroke:black;stroke-width:4;fill:none" d="M258.88544,188.09128 L273.90428,88.99689 L207.10835,150.47302 L169.28215,232.99689 Z"/>
        <path style="stroke:black;stroke-width:4;fill:none" d="M320.00000,0.00000 L273.90428,-88.99689 L256.00000,0.00000 L273.90428,88.99689 Z"/>
        <path style="stroke:black;stroke-width:4;fill:none" d="M258.88544,-188.09128 L169.28215,-232.99689 L207.10835,-150.47302 L273.90428,-88.99689 Z"/>
        <path style="stroke:black;stroke-width:4;fill:none" d="M207.10835,-150.47302 L131.66390,-181.21981 L155.33126,-112.85477 L213.03666,-69.21981 Z"/>
        <path style="stroke:black;stroke-width:4;fill:none" d="M79.10835,-243.47047 L0.00000,-224.00000 L59.33126,-182.60285 L131.66390,-181.21981 Z"/>
        <path style="stroke:black;stroke-width:4;fill:none" d="M-79.10835,-243.47047 L-131.66390,-181.21981 L-59.33126,-182.60285 L0.00000,-224.00000 Z"/>
        <path style="stroke:black;stroke-width:4;fill:none" d="M-207.10835,-150.47302 L-213.03666,-69.21981 L-155.33126,-112.85477 L-131.66390,-181.21981 Z"/>
        <path style="stroke:black;stroke-width:4;fill:none" d="M-256.00000,-0.00000 L-213.03666,69.21981 L-192.00000,-0.00000 L-213.03666,-69.21981 Z"/>
        <path style="stroke:black;stroke-width:4;fill:none" d="M-207.10835,150.47302 L-131.66390,181.21981 L-155.33126,112.85477 L-213.03666,69.21981 Z"/>
        <path style="stroke:black;stroke-width:4;fill:none" d="M-79.10835,243.47047 L-0.00000,224.00000 L-59.33126,182.60285 L-131.66390,181.21981 Z"/>
        <path style="stroke:black;stroke-width:4;fill:none" d="M79.10835,243.47047 L131.66390,181.21981 L59.33126,182.60285 L-0.00000,224.00000 Z"/>
        <path style="stroke:black;stroke-width:4;fill:none" d="M207.10835,150.47302 L213.03666,69.21981 L155.33126,112.85477 L131.66390,181.21981 Z"/>
        <path style="stroke:black;stroke-width:4;fill:none" d="M256.00000,0.00000 L213.03666,-69.21981 L192.00000,0.00000 L213.03666,69.21981 Z"/>
        <path style="stroke:black;stroke-width:4;fill:none" d="M192.00000,0.00000 L152.16904,-49.44272 L128.00000,0.00000 L152.16904,49.44272 Z"/>
        <path style="stroke:black;stroke-width:4;fill:none" d="M155.33126,-112.85477 L94.04564,-129.44272 L103.55418,-75.23651 L152.16904,-49.44272 Z"/>
        <path style="stroke:black;stroke-width:4;fill:none" d="M59.33126,-182.60285 L0.00000,-160.00000 L39.55418,-121.73523 L94.04564,-129.44272 Z"/>
        <path style="stroke:black;stroke-width:4;fill:none" d="M-59.33126,-182.60285 L-94.04564,-129.44272 L-39.55418,-121.73523 L0.00000,-160.00000 Z"/>
        <path style="stroke:black;stroke-width:4;fill:none" d="M-155.33126,-112.85477 L-152.16904,-49.44272 L-103.55418,-75.23651 L-94.04564,-129.44272 Z"/>
        <path style="stroke:black;stroke-width:4;fill:none" d="M-192.00000,-0.00000 L-152.16904,49.44272 L-128.00000,-0.00000 L-152.16904,-49.44272 Z"/>
        <path style="stroke:black;stroke-width:4;fill:none" d="M-155.33126,112.85477 L-94.04564,129.44272 L-103.55418,75.23651 L-152.16904,49.44272 Z"/>
        <path style="stroke:black;stroke-width:4;fill:none" d="M-59.33126,182.60285 L-0.00000,160.00000 L-39.55418,121.73523 L-94.04564,129.44272 Z"/>
        <path style="stroke:black;stroke-width:4;fill:none" d="M59.33126,182.60285 L94.04564,129.44272 L39.55418,121.73523 L-0.00000,160.00000 Z"/>
        <path style="stroke:black;stroke-width:4;fill:none" d="M155.33126,112.85477 L152.16904,49.44272 L103.55418,75.23651 L94.04564,129.44272 Z"/>
        <path style="stroke:black;stroke-width:4;fill:none" d="M103.55418,75.23651 L91.30143,29.66563 L51.77709,37.61826 L56.42738,77.66563 Z"/>
        <path style="stroke:black;stroke-width:4;fill:none" d="M128.00000,0.00000 L91.30143,-29.66563 L64.00000,0.00000 L91.30143,29.66563 Z"/>
        <path style="stroke:black;stroke-width:4;fill:none" d="M103.55418,-75.23651 L56.42738,-77.66563 L51.77709,-37.61826 L91.30143,-29.66563 Z"/>
        <path style="stroke:black;stroke-width:4;fill:none" d="M39.55418,-121.73523 L0.00000,-96.00000 L19.77709,-60.86762 L56.42738,-77.66563 Z"/>
        <path style="stroke:black;stroke-width:4;fill:none" d="M-39.55418,-121.73523 L-56.42738,-77.66563 L-19.77709,-60.86762 L0.00000,-96.00000 Z"/>
        <path style="stroke:black;stroke-width:4;fill:none" d="M-103.55418,-75.23651 L-91.30143,-29.66563 L-51.77709,-37.61826 L-56.42738,-77.66563 Z"/>
        <path style="stroke:black;stroke-width:4;fill:none" d="M-128.00000,-0.00000 L-91.30143,29.66563 L-64.00000,-0.00000 L-91.30143,-29.66563 Z"/>
        <path style="stroke:black;stroke-width:4;fill:none" d="M-103.55418,75.23651 L-56.42738,77.66563 L-51.77709,37.61826 L-91.30143,29.66563 Z"/>
        <path style="stroke:black;stroke-width:4;fill:none" d="M-39.55418,121.73523 L-0.00000,96.00000 L-19.77709,60.86762 L-56.42738,77.66563 Z"/>
        <path style="stroke:black;stroke-width:4;fill:none" d="M39.55418,121.73523 L56.42738,77.66563 L19.77709,60.86762 L-0.00000,96.00000 Z"/>
      </g>
    </g>
  </g>
</svg>
