<svg xmlns:ns0="http://www.w3.org/2000/svg" xlink="http://www.w3.org/1999/xlink" xmlns="http://www.w3.org/2000/svg" ns0:svg="http://www.w3.org/2000/svg" width="1280" height="1280">
  <defs/>
  <g id="canvas" transform="matrix(1,0,0,-1,0,1280) translate(640,640)">
    <g id="circledcircles">
      <circle style="stroke:none; fill:red; fill-opacity:0.1" cx="0.00000" r="300.00000" cy="300.00000"/>
      <circle style="stroke:none; fill:red; fill-opacity:0.1" cx="92.70510" r="300.00000" cy="285.31695"/>
      <circle style="stroke:none; fill:red; fill-opacity:0.1" cx="176.33558" r="300.00000" cy="242.70510"/>
      <circle style="stroke:none; fill:red; fill-opacity:0.1" cx="242.70510" r="300.00000" cy="176.33558"/>
      <circle style="stroke:none; fill:red; fill-opacity:0.1" cx="285.31695" r="300.00000" cy="92.70510"/>
      <circle style="stroke:none; fill:red; fill-opacity:0.1" cx="300.00000" r="300.00000" cy="0.00000"/>
      <circle style="stroke:none; fill:red; fill-opacity:0.1" cx="285.31695" r="300.00000" cy="-92.70510"/>
      <circle style="stroke:none; fill:red; fill-opacity:0.1" cx="242.70510" r="300.00000" cy="-176.33558"/>
      <circle style="stroke:none; fill:red; fill-opacity:0.1" cx="176.33558" r="300.00000" cy="-242.70510"/>
      <circle style="stroke:none; fill:red; fill-opacity:0.1" cx="92.70510" r="300.00000" cy="-285.31695"/>
      <circle style="stroke:none; fill:red; fill-opacity:0.1" cx="0.00000" r="300.00000" cy="-300.00000"/>
      <circle style="stroke:none; fill:red; fill-opacity:0.1" cx="-92.70510" r="300.00000" cy="-285.31695"/>
      <circle style="stroke:none; fill:red; fill-opacity:0.1" cx="-176.33558" r="300.00000" cy="-242.70510"/>
      <circle style="stroke:none; fill:red; fill-opacity:0.1" cx="-242.70510" r="300.00000" cy="-176.33558"/>
      <circle style="stroke:none; fill:red; fill-opacity:0.1" cx="-285.31695" r="300.00000" cy="-92.70510"/>
      <circle style="stroke:none; fill:red; fill-opacity:0.1" cx="-300.00000" r="300.00000" cy="-0.00000"/>
      <circle style="stroke:none; fill:red; fill-opacity:0.1" cx="-285.31695" r="300.00000" cy="92.70510"/>
      <circle style="stroke:none; fill:red; fill-opacity:0.1" cx="-242.70510" r="300.00000" cy="176.33558"/>
      <circle style="stroke:none; fill:red; fill-opacity:0.1" cx="-176.33558" r="300.00000" cy="242.70510"/>
      <circle style="stroke:none; fill:red; fill-opacity:0.1" cx="-92.70510" r="300.00000" cy="285.31695"/>
    </g>
    <g id="circledcircles">
      <circle style="stroke:black; fill:none; stroke-width:2" cx="0.00000" r="300.00000" cy="300.00000"/>
      <circle style="stroke:black; fill:none; stroke-width:2" cx="92.70510" r="300.00000" cy="285.31695"/>
      <circle style="stroke:black; fill:none; stroke-width:2" cx="176.33558" r="300.00000" cy="242.70510"/>
      <circle style="stroke:black; fill:none; stroke-width:2" cx="242.70510" r="300.00000" cy="176.33558"/>
      <circle style="stroke:black; fill:none; stroke-width:2" cx="285.31695" r="300.00000" cy="92.70510"/>
      <circle style="stroke:black; fill:none; stroke-width:2" cx="300.00000" r="300.00000" cy="0.00000"/>
      <circle style="stroke:black; fill:none; stroke-width:2" cx="285.31695" r="300.00000" cy="-92.70510"/>
      <circle style="stroke:black; fill:none; stroke-width:2" cx="242.70510" r="300.00000" cy="-176.33558"/>
      <circle style="stroke:black; fill:none; stroke-width:2" cx="176.33558" r="300.00000" cy="-242.70510"/>
      <circle style="stroke:black; fill:none; stroke-width:2" cx="92.70510" r="300.00000" cy="-285.31695"/>
      <circle style="stroke:black; fill:none; stroke-width:2" cx="0.00000" r="300.00000" cy="-300.00000"/>
      <circle style="stroke:black; fill:none; stroke-width:2" cx="-92.70510" r="300.00000" cy="-285.31695"/>
      <circle style="stroke:black; fill:none; stroke-width:2" cx="-176.33558" r="300.00000" cy="-242.70510"/>
      <circle style="stroke:black; fill:none; stroke-width:2" cx="-242.70510" r="300.00000" cy="-176.33558"/>
      <circle style="stroke:black; fill:none; stroke-width:2" cx="-285.31695" r="300.00000" cy="-92.70510"/>
      <circle style="stroke:black; fill:none; stroke-width:2" cx="-300.00000" r="300.00000" cy="-0.00000"/>
      <circle style="stroke:black; fill:none; stroke-width:2" cx="-285.31695" r="300.00000" cy="92.70510"/>
      <circle style="stroke:black; fill:none; stroke-width:2" cx="-242.70510" r="300.00000" cy="176.33558"/>
      <circle style="stroke:black; fill:none; stroke-width:2" cx="-176.33558" r="300.00000" cy="242.70510"/>
      <circle style="stroke:black; fill:none; stroke-width:2" cx="-92.70510" r="300.00000" cy="285.31695"/>
    </g>
  </g>
</svg>
