<svg xmlns:ns0="http://www.w3.org/2000/svg" xlink="http://www.w3.org/1999/xlink" xmlns="http://www.w3.org/2000/svg" ns0:svg="http://www.w3.org/2000/svg" width="1280" height="1280">
  <defs/>
  <g id="canvas" transform="matrix(1,0,0,-1,0,1280) translate(640,640)">
    <g id="weavegroup">
      <path style="stroke:black;stroke-width:4;fill:none" d="M0.00000,500.00000 C66.21373,571.62961 157.57967,553.45579 191.34172,461.93977 C225.10376,370.42374 256.08343,349.72379 353.55339,353.55339 C451.02335,357.38300 502.77800,279.92669 461.93977,191.34172 C421.10153,102.75674 428.37039,66.21373 500.00000,0.00000 C571.62961,-66.21373 553.45579,-157.57967 461.93977,-191.34172 C370.42374,-225.10376 349.72379,-256.08343 353.55339,-353.55339 C357.38300,-451.02335 279.92669,-502.77800 191.34172,-461.93977 C102.75674,-421.10153 66.21373,-428.37039 0.00000,-500.00000 C-66.21373,-571.62961 -157.57967,-553.45579 -191.34172,-461.93977 C-225.10376,-370.42374 -256.08343,-349.72379 -353.55339,-353.55339 C-451.02335,-357.38300 -502.77800,-279.92669 -461.93977,-191.34172 C-421.10153,-102.75674 -428.37039,-66.21373 -500.00000,-0.00000 C-571.62961,66.21373 -553.45579,157.57967 -461.93977,191.34172 C-370.42374,225.10376 -349.72379,256.08343 -353.55339,353.55339 C-357.38300,451.02335 -279.92669,502.77800 -191.34172,461.93977 C-102.75674,421.10153 -66.21373,428.37039 0.00000,500.00000 Z"/>
      <path style="stroke:black;stroke-width:4;fill:none" d="M0.00000,500.00000 C66.21373,428.37039 102.75674,421.10153 191.34172,461.93977 C279.92669,502.77800 357.38300,451.02335 353.55339,353.55339 C349.72379,256.08343 370.42374,225.10376 461.93977,191.34172 C553.45579,157.57967 571.62961,66.21373 500.00000,0.00000 C428.37039,-66.21373 421.10153,-102.75674 461.93977,-191.34172 C502.77800,-279.92669 451.02335,-357.38300 353.55339,-353.55339 C256.08343,-349.72379 225.10376,-370.42374 191.34172,-461.93977 C157.57967,-553.45579 66.21373,-571.62961 0.00000,-500.00000 C-66.21373,-428.37039 -102.75674,-421.10153 -191.34172,-461.93977 C-279.92669,-502.77800 -357.38300,-451.02335 -353.55339,-353.55339 C-349.72379,-256.08343 -370.42374,-225.10376 -461.93977,-191.34172 C-553.45579,-157.57967 -571.62961,-66.21373 -500.00000,-0.00000 C-428.37039,66.21373 -421.10153,102.75674 -461.93977,191.34172 C-502.77800,279.92669 -451.02335,357.38300 -353.55339,353.55339 C-256.08343,349.72379 -225.10376,370.42374 -191.34172,461.93977 C-157.57967,553.45579 -66.21373,571.62961 0.00000,500.00000 Z"/>
    </g>
  </g>
</svg>
