<svg xmlns:ns0="http://www.w3.org/2000/svg" xlink="http://www.w3.org/1999/xlink" xmlns="http://www.w3.org/2000/svg" ns0:svg="http://www.w3.org/2000/svg" width="1280" height="1280">
  <defs/>
  <g id="canvas" transform="matrix(1,0,0,-1,0,1280) translate(640,640)">
    <g id="flower">
      <path style="fill:none;stroke:black" d="M0.00000,20.00000 C-102.27463,160.76896 -102.27463,459.23104 0.00000,600.00000 C102.27463,459.23104 102.27463,160.76896 0.00000,20.00000 Z"/>
      <path style="fill:none;stroke:black" d="M3.90181,19.61571 C-68.94499,177.63262 -10.71792,470.35984 117.05419,588.47117 C189.90099,430.45426 131.67392,137.72704 3.90181,19.61571 Z"/>
      <path style="fill:none;stroke:black" d="M7.65367,18.47759 C-32.96582,187.66996 81.25067,463.41297 229.61006,554.32772 C270.22955,385.13535 156.01306,109.39234 7.65367,18.47759 Z"/>
      <path style="fill:none;stroke:black" d="M11.11140,16.62939 C4.28020,190.49524 170.09685,438.65740 333.34214,498.88177 C340.17335,325.01592 174.35670,76.85376 11.11140,16.62939 Z"/>
      <path style="fill:none;stroke:black" d="M14.14214,14.14214 C41.36173,185.99991 252.40630,397.04447 424.26407,424.26407 C397.04447,252.40630 185.99991,41.36173 14.14214,14.14214 Z"/>
      <path style="fill:none;stroke:black" d="M16.62939,11.11140 C76.85376,174.35670 325.01592,340.17335 498.88177,333.34214 C438.65740,170.09685 190.49524,4.28020 16.62939,11.11140 Z"/>
      <path style="fill:none;stroke:black" d="M18.47759,7.65367 C109.39234,156.01306 385.13535,270.22955 554.32772,229.61006 C463.41297,81.25067 187.66996,-32.96582 18.47759,7.65367 Z"/>
      <path style="fill:none;stroke:black" d="M19.61571,3.90181 C137.72704,131.67392 430.45426,189.90099 588.47117,117.05419 C470.35984,-10.71792 177.63262,-68.94499 19.61571,3.90181 Z"/>
      <path style="fill:none;stroke:black" d="M20.00000,0.00000 C160.76896,102.27463 459.23104,102.27463 600.00000,0.00000 C459.23104,-102.27463 160.76896,-102.27463 20.00000,0.00000 Z"/>
      <path style="fill:none;stroke:black" d="M19.61571,-3.90181 C177.63262,68.94499 470.35984,10.71792 588.47117,-117.05419 C430.45426,-189.90099 137.72704,-131.67392 19.61571,-3.90181 Z"/>
      <path style="fill:none;stroke:black" d="M18.47759,-7.65367 C187.66996,32.96582 463.41297,-81.25067 554.32772,-229.61006 C385.13535,-270.22955 109.39234,-156.01306 18.47759,-7.65367 Z"/>
      <path style="fill:none;stroke:black" d="M16.62939,-11.11140 C190.49524,-4.28020 438.65740,-170.09685 498.88177,-333.34214 C325.01592,-340.17335 76.85376,-174.35670 16.62939,-11.11140 Z"/>
      <path style="fill:none;stroke:black" d="M14.14214,-14.14214 C185.99991,-41.36173 397.04447,-252.40630 424.26407,-424.26407 C252.40630,-397.04447 41.36173,-185.99991 14.14214,-14.14214 Z"/>
      <path style="fill:none;stroke:black" d="M11.11140,-16.62939 C174.35670,-76.85376 340.17335,-325.01592 333.34214,-498.88177 C170.09685,-438.65740 4.28020,-190.49524 11.11140,-16.62939 Z"/>
      <path style="fill:none;stroke:black" d="M7.65367,-18.47759 C156.01306,-109.39234 270.22955,-385.13535 229.61006,-554.32772 C81.25067,-463.41297 -32.96582,-187.66996 7.65367,-18.47759 Z"/>
      <path style="fill:none;stroke:black" d="M3.90181,-19.61571 C131.67392,-137.72704 189.90099,-430.45426 117.05419,-588.47117 C-10.71792,-470.35984 -68.94499,-177.63262 3.90181,-19.61571 Z"/>
      <path style="fill:none;stroke:black" d="M0.00000,-20.00000 C102.27463,-160.76896 102.27463,-459.23104 0.00000,-600.00000 C-102.27463,-459.23104 -102.27463,-160.76896 0.00000,-20.00000 Z"/>
      <path style="fill:none;stroke:black" d="M-3.90181,-19.61571 C68.94499,-177.63262 10.71792,-470.35984 -117.05419,-588.47117 C-189.90099,-430.45426 -131.67392,-137.72704 -3.90181,-19.61571 Z"/>
      <path style="fill:none;stroke:black" d="M-7.65367,-18.47759 C32.96582,-187.66996 -81.25067,-463.41297 -229.61006,-554.32772 C-270.22955,-385.13535 -156.01306,-109.39234 -7.65367,-18.47759 Z"/>
      <path style="fill:none;stroke:black" d="M-11.11140,-16.62939 C-4.28020,-190.49524 -170.09685,-438.65740 -333.34214,-498.88177 C-340.17335,-325.01592 -174.35670,-76.85376 -11.11140,-16.62939 Z"/>
      <path style="fill:none;stroke:black" d="M-14.14214,-14.14214 C-41.36173,-185.99991 -252.40630,-397.04447 -424.26407,-424.26407 C-397.04447,-252.40630 -185.99991,-41.36173 -14.14214,-14.14214 Z"/>
      <path style="fill:none;stroke:black" d="M-16.62939,-11.11140 C-76.85376,-174.35670 -325.01592,-340.17335 -498.88177,-333.34214 C-438.65740,-170.09685 -190.49524,-4.28020 -16.62939,-11.11140 Z"/>
      <path style="fill:none;stroke:black" d="M-18.47759,-7.65367 C-109.39234,-156.01306 -385.13535,-270.22955 -554.32772,-229.61006 C-463.41297,-81.25067 -187.66996,32.96582 -18.47759,-7.65367 Z"/>
      <path style="fill:none;stroke:black" d="M-19.61571,-3.90181 C-137.72704,-131.67392 -430.45426,-189.90099 -588.47117,-117.05419 C-470.35984,10.71792 -177.63262,68.94499 -19.61571,-3.90181 Z"/>
      <path style="fill:none;stroke:black" d="M-20.00000,-0.00000 C-160.76896,-102.27463 -459.23104,-102.27463 -600.00000,-0.00000 C-459.23104,102.27463 -160.76896,102.27463 -20.00000,-0.00000 Z"/>
      <path style="fill:none;stroke:black" d="M-19.61571,3.90181 C-177.63262,-68.94499 -470.35984,-10.71792 -588.47117,117.05419 C-430.45426,189.90099 -137.72704,131.67392 -19.61571,3.90181 Z"/>
      <path style="fill:none;stroke:black" d="M-18.47759,7.65367 C-187.66996,-32.96582 -463.41297,81.25067 -554.32772,229.61006 C-385.13535,270.22955 -109.39234,156.01306 -18.47759,7.65367 Z"/>
      <path style="fill:none;stroke:black" d="M-16.62939,11.11140 C-190.49524,4.28020 -438.65740,170.09685 -498.88177,333.34214 C-325.01592,340.17335 -76.85376,174.35670 -16.62939,11.11140 Z"/>
      <path style="fill:none;stroke:black" d="M-14.14214,14.14214 C-185.99991,41.36173 -397.04447,252.40630 -424.26407,424.26407 C-252.40630,397.04447 -41.36173,185.99991 -14.14214,14.14214 Z"/>
      <path style="fill:none;stroke:black" d="M-11.11140,16.62939 C-174.35670,76.85376 -340.17335,325.01592 -333.34214,498.88177 C-170.09685,438.65740 -4.28020,190.49524 -11.11140,16.62939 Z"/>
      <path style="fill:none;stroke:black" d="M-7.65367,18.47759 C-156.01306,109.39234 -270.22955,385.13535 -229.61006,554.32772 C-81.25067,463.41297 32.96582,187.66996 -7.65367,18.47759 Z"/>
      <path style="fill:none;stroke:black" d="M-3.90181,19.61571 C-131.67392,137.72704 -189.90099,430.45426 -117.05419,588.47117 C10.71792,470.35984 68.94499,177.63262 -3.90181,19.61571 Z"/>
    </g>
  </g>
</svg>
