<svg xmlns:ns0="http://www.w3.org/2000/svg" xlink="http://www.w3.org/1999/xlink" xmlns="http://www.w3.org/2000/svg" ns0:svg="http://www.w3.org/2000/svg" width="1280" height="1280">
  <defs/>
  <g id="canvas" transform="matrix(1,0,0,-1,0,1280) translate(640,640)">
    <g id="hexagonlattice">
      <path style="stroke:black;fill:none" d="M0.00000,30.00000 L25.98076,15.00000 L25.98076,-15.00000 L0.00000,-30.00000 L-25.98076,-15.00000 L-25.98076,15.00000 Z"/>
      <g id="level1">
        <path style="stroke:black;fill:none" d="M25.98076,75.00000 L51.96152,60.00000 L51.96152,30.00000 L25.98076,15.00000 L0.00000,30.00000 L-0.00000,60.00000 Z"/>
        <path style="stroke:black;fill:none" d="M51.96152,30.00000 L77.94229,15.00000 L77.94229,-15.00000 L51.96152,-30.00000 L25.98076,-15.00000 L25.98076,15.00000 Z"/>
        <path style="stroke:black;fill:none" d="M25.98076,-15.00000 L51.96152,-30.00000 L51.96152,-60.00000 L25.98076,-75.00000 L0.00000,-60.00000 L0.00000,-30.00000 Z"/>
        <path style="stroke:black;fill:none" d="M-25.98076,-15.00000 L-0.00000,-30.00000 L-0.00000,-60.00000 L-25.98076,-75.00000 L-51.96152,-60.00000 L-51.96152,-30.00000 Z"/>
        <path style="stroke:black;fill:none" d="M-51.96152,30.00000 L-25.98076,15.00000 L-25.98076,-15.00000 L-51.96152,-30.00000 L-77.94229,-15.00000 L-77.94229,15.00000 Z"/>
        <path style="stroke:black;fill:none" d="M-25.98076,75.00000 L0.00000,60.00000 L0.00000,30.00000 L-25.98076,15.00000 L-51.96152,30.00000 L-51.96152,60.00000 Z"/>
      </g>
      <g id="level2">
        <path style="stroke:black;fill:none" d="M51.96152,120.00000 L77.94229,105.00000 L77.94229,75.00000 L51.96152,60.00000 L25.98076,75.00000 L25.98076,105.00000 Z"/>
        <path style="stroke:black;fill:none" d="M77.94229,75.00000 L103.92305,60.00000 L103.92305,30.00000 L77.94229,15.00000 L51.96152,30.00000 L51.96152,60.00000 Z"/>
        <path style="stroke:black;fill:none" d="M103.92305,30.00000 L129.90381,15.00000 L129.90381,-15.00000 L103.92305,-30.00000 L77.94229,-15.00000 L77.94229,15.00000 Z"/>
        <path style="stroke:black;fill:none" d="M77.94229,-15.00000 L103.92305,-30.00000 L103.92305,-60.00000 L77.94229,-75.00000 L51.96152,-60.00000 L51.96152,-30.00000 Z"/>
        <path style="stroke:black;fill:none" d="M51.96152,-60.00000 L77.94229,-75.00000 L77.94229,-105.00000 L51.96152,-120.00000 L25.98076,-105.00000 L25.98076,-75.00000 Z"/>
        <path style="stroke:black;fill:none" d="M0.00000,-60.00000 L25.98076,-75.00000 L25.98076,-105.00000 L0.00000,-120.00000 L-25.98076,-105.00000 L-25.98076,-75.00000 Z"/>
        <path style="stroke:black;fill:none" d="M-51.96152,-60.00000 L-25.98076,-75.00000 L-25.98076,-105.00000 L-51.96152,-120.00000 L-77.94229,-105.00000 L-77.94229,-75.00000 Z"/>
        <path style="stroke:black;fill:none" d="M-77.94229,-15.00000 L-51.96152,-30.00000 L-51.96152,-60.00000 L-77.94229,-75.00000 L-103.92305,-60.00000 L-103.92305,-30.00000 Z"/>
        <path style="stroke:black;fill:none" d="M-103.92305,30.00000 L-77.94229,15.00000 L-77.94229,-15.00000 L-103.92305,-30.00000 L-129.90381,-15.00000 L-129.90381,15.00000 Z"/>
        <path style="stroke:black;fill:none" d="M-77.94229,75.00000 L-51.96152,60.00000 L-51.96152,30.00000 L-77.94229,15.00000 L-103.92305,30.00000 L-103.92305,60.00000 Z"/>
        <path style="stroke:black;fill:none" d="M-51.96152,120.00000 L-25.98076,105.00000 L-25.98076,75.00000 L-51.96152,60.00000 L-77.94229,75.00000 L-77.94229,105.00000 Z"/>
        <path style="stroke:black;fill:none" d="M0.00000,120.00000 L25.98076,105.00000 L25.98076,75.00000 L0.00000,60.00000 L-25.98076,75.00000 L-25.98076,105.00000 Z"/>
      </g>
      <g id="level3">
        <path style="stroke:black;fill:none" d="M77.94229,165.00000 L103.92305,150.00000 L103.92305,120.00000 L77.94229,105.00000 L51.96152,120.00000 L51.96152,150.00000 Z"/>
        <path style="stroke:black;fill:none" d="M103.92305,120.00000 L129.90381,105.00000 L129.90381,75.00000 L103.92305,60.00000 L77.94229,75.00000 L77.94229,105.00000 Z"/>
        <path style="stroke:black;fill:none" d="M129.90381,75.00000 L155.88457,60.00000 L155.88457,30.00000 L129.90381,15.00000 L103.92305,30.00000 L103.92305,60.00000 Z"/>
        <path style="stroke:black;fill:none" d="M155.88457,30.00000 L181.86533,15.00000 L181.86533,-15.00000 L155.88457,-30.00000 L129.90381,-15.00000 L129.90381,15.00000 Z"/>
        <path style="stroke:black;fill:none" d="M129.90381,-15.00000 L155.88457,-30.00000 L155.88457,-60.00000 L129.90381,-75.00000 L103.92305,-60.00000 L103.92305,-30.00000 Z"/>
        <path style="stroke:black;fill:none" d="M103.92305,-60.00000 L129.90381,-75.00000 L129.90381,-105.00000 L103.92305,-120.00000 L77.94229,-105.00000 L77.94229,-75.00000 Z"/>
        <path style="stroke:black;fill:none" d="M77.94229,-105.00000 L103.92305,-120.00000 L103.92305,-150.00000 L77.94229,-165.00000 L51.96152,-150.00000 L51.96152,-120.00000 Z"/>
        <path style="stroke:black;fill:none" d="M25.98076,-105.00000 L51.96152,-120.00000 L51.96152,-150.00000 L25.98076,-165.00000 L0.00000,-150.00000 L0.00000,-120.00000 Z"/>
        <path style="stroke:black;fill:none" d="M-25.98076,-105.00000 L0.00000,-120.00000 L0.00000,-150.00000 L-25.98076,-165.00000 L-51.96152,-150.00000 L-51.96152,-120.00000 Z"/>
        <path style="stroke:black;fill:none" d="M-77.94229,-105.00000 L-51.96152,-120.00000 L-51.96152,-150.00000 L-77.94229,-165.00000 L-103.92305,-150.00000 L-103.92305,-120.00000 Z"/>
        <path style="stroke:black;fill:none" d="M-103.92305,-60.00000 L-77.94229,-75.00000 L-77.94229,-105.00000 L-103.92305,-120.00000 L-129.90381,-105.00000 L-129.90381,-75.00000 Z"/>
        <path style="stroke:black;fill:none" d="M-129.90381,-15.00000 L-103.92305,-30.00000 L-103.92305,-60.00000 L-129.90381,-75.00000 L-155.88457,-60.00000 L-155.88457,-30.00000 Z"/>
        <path style="stroke:black;fill:none" d="M-155.88457,30.00000 L-129.90381,15.00000 L-129.90381,-15.00000 L-155.88457,-30.00000 L-181.86533,-15.00000 L-181.86533,15.00000 Z"/>
        <path style="stroke:black;fill:none" d="M-129.90381,75.00000 L-103.92305,60.00000 L-103.92305,30.00000 L-129.90381,15.00000 L-155.88457,30.00000 L-155.88457,60.00000 Z"/>
        <path style="stroke:black;fill:none" d="M-103.92305,120.00000 L-77.94229,105.00000 L-77.94229,75.00000 L-103.92305,60.00000 L-129.90381,75.00000 L-129.90381,105.00000 Z"/>
        <path style="stroke:black;fill:none" d="M-77.94229,165.00000 L-51.96152,150.00000 L-51.96152,120.00000 L-77.94229,105.00000 L-103.92305,120.00000 L-103.92305,150.00000 Z"/>
        <path style="stroke:black;fill:none" d="M-25.98076,165.00000 L0.00000,150.00000 L0.00000,120.00000 L-25.98076,105.00000 L-51.96152,120.00000 L-51.96152,150.00000 Z"/>
        <path style="stroke:black;fill:none" d="M25.98076,165.00000 L51.96152,150.00000 L51.96152,120.00000 L25.98076,105.00000 L-0.00000,120.00000 L-0.00000,150.00000 Z"/>
      </g>
      <g id="level4">
        <path style="stroke:black;fill:none" d="M103.92305,210.00000 L129.90381,195.00000 L129.90381,165.00000 L103.92305,150.00000 L77.94229,165.00000 L77.94229,195.00000 Z"/>
        <path style="stroke:black;fill:none" d="M129.90381,165.00000 L155.88457,150.00000 L155.88457,120.00000 L129.90381,105.00000 L103.92305,120.00000 L103.92305,150.00000 Z"/>
        <path style="stroke:black;fill:none" d="M155.88457,120.00000 L181.86533,105.00000 L181.86533,75.00000 L155.88457,60.00000 L129.90381,75.00000 L129.90381,105.00000 Z"/>
        <path style="stroke:black;fill:none" d="M181.86533,75.00000 L207.84610,60.00000 L207.84610,30.00000 L181.86533,15.00000 L155.88457,30.00000 L155.88457,60.00000 Z"/>
        <path style="stroke:black;fill:none" d="M207.84610,30.00000 L233.82686,15.00000 L233.82686,-15.00000 L207.84610,-30.00000 L181.86533,-15.00000 L181.86533,15.00000 Z"/>
        <path style="stroke:black;fill:none" d="M181.86533,-15.00000 L207.84610,-30.00000 L207.84610,-60.00000 L181.86533,-75.00000 L155.88457,-60.00000 L155.88457,-30.00000 Z"/>
        <path style="stroke:black;fill:none" d="M155.88457,-60.00000 L181.86533,-75.00000 L181.86533,-105.00000 L155.88457,-120.00000 L129.90381,-105.00000 L129.90381,-75.00000 Z"/>
        <path style="stroke:black;fill:none" d="M129.90381,-105.00000 L155.88457,-120.00000 L155.88457,-150.00000 L129.90381,-165.00000 L103.92305,-150.00000 L103.92305,-120.00000 Z"/>
        <path style="stroke:black;fill:none" d="M103.92305,-150.00000 L129.90381,-165.00000 L129.90381,-195.00000 L103.92305,-210.00000 L77.94229,-195.00000 L77.94229,-165.00000 Z"/>
        <path style="stroke:black;fill:none" d="M51.96152,-150.00000 L77.94229,-165.00000 L77.94229,-195.00000 L51.96152,-210.00000 L25.98076,-195.00000 L25.98076,-165.00000 Z"/>
        <path style="stroke:black;fill:none" d="M0.00000,-150.00000 L25.98076,-165.00000 L25.98076,-195.00000 L0.00000,-210.00000 L-25.98076,-195.00000 L-25.98076,-165.00000 Z"/>
        <path style="stroke:black;fill:none" d="M-51.96152,-150.00000 L-25.98076,-165.00000 L-25.98076,-195.00000 L-51.96152,-210.00000 L-77.94229,-195.00000 L-77.94229,-165.00000 Z"/>
        <path style="stroke:black;fill:none" d="M-103.92305,-150.00000 L-77.94229,-165.00000 L-77.94229,-195.00000 L-103.92305,-210.00000 L-129.90381,-195.00000 L-129.90381,-165.00000 Z"/>
        <path style="stroke:black;fill:none" d="M-129.90381,-105.00000 L-103.92305,-120.00000 L-103.92305,-150.00000 L-129.90381,-165.00000 L-155.88457,-150.00000 L-155.88457,-120.00000 Z"/>
        <path style="stroke:black;fill:none" d="M-155.88457,-60.00000 L-129.90381,-75.00000 L-129.90381,-105.00000 L-155.88457,-120.00000 L-181.86533,-105.00000 L-181.86533,-75.00000 Z"/>
        <path style="stroke:black;fill:none" d="M-181.86533,-15.00000 L-155.88457,-30.00000 L-155.88457,-60.00000 L-181.86533,-75.00000 L-207.84610,-60.00000 L-207.84610,-30.00000 Z"/>
        <path style="stroke:black;fill:none" d="M-207.84610,30.00000 L-181.86533,15.00000 L-181.86533,-15.00000 L-207.84610,-30.00000 L-233.82686,-15.00000 L-233.82686,15.00000 Z"/>
        <path style="stroke:black;fill:none" d="M-181.86533,75.00000 L-155.88457,60.00000 L-155.88457,30.00000 L-181.86533,15.00000 L-207.84610,30.00000 L-207.84610,60.00000 Z"/>
        <path style="stroke:black;fill:none" d="M-155.88457,120.00000 L-129.90381,105.00000 L-129.90381,75.00000 L-155.88457,60.00000 L-181.86533,75.00000 L-181.86533,105.00000 Z"/>
        <path style="stroke:black;fill:none" d="M-129.90381,165.00000 L-103.92305,150.00000 L-103.92305,120.00000 L-129.90381,105.00000 L-155.88457,120.00000 L-155.88457,150.00000 Z"/>
        <path style="stroke:black;fill:none" d="M-103.92305,210.00000 L-77.94229,195.00000 L-77.94229,165.00000 L-103.92305,150.00000 L-129.90381,165.00000 L-129.90381,195.00000 Z"/>
        <path style="stroke:black;fill:none" d="M-51.96152,210.00000 L-25.98076,195.00000 L-25.98076,165.00000 L-51.96152,150.00000 L-77.94229,165.00000 L-77.94229,195.00000 Z"/>
        <path style="stroke:black;fill:none" d="M0.00000,210.00000 L25.98076,195.00000 L25.98076,165.00000 L0.00000,150.00000 L-25.98076,165.00000 L-25.98076,195.00000 Z"/>
        <path style="stroke:black;fill:none" d="M51.96152,210.00000 L77.94229,195.00000 L77.94229,165.00000 L51.96152,150.00000 L25.98076,165.00000 L25.98076,195.00000 Z"/>
      </g>
      <g id="level5">
        <path style="stroke:black;fill:none" d="M129.90381,255.00000 L155.88457,240.00000 L155.88457,210.00000 L129.90381,195.00000 L103.92305,210.00000 L103.92305,240.00000 Z"/>
        <path style="stroke:black;fill:none" d="M155.88457,210.00000 L181.86533,195.00000 L181.86533,165.00000 L155.88457,150.00000 L129.90381,165.00000 L129.90381,195.00000 Z"/>
        <path style="stroke:black;fill:none" d="M181.86533,165.00000 L207.84610,150.00000 L207.84610,120.00000 L181.86533,105.00000 L155.88457,120.00000 L155.88457,150.00000 Z"/>
        <path style="stroke:black;fill:none" d="M207.84610,120.00000 L233.82686,105.00000 L233.82686,75.00000 L207.84610,60.00000 L181.86533,75.00000 L181.86533,105.00000 Z"/>
        <path style="stroke:black;fill:none" d="M233.82686,75.00000 L259.80762,60.00000 L259.80762,30.00000 L233.82686,15.00000 L207.84610,30.00000 L207.84610,60.00000 Z"/>
        <path style="stroke:black;fill:none" d="M259.80762,30.00000 L285.78838,15.00000 L285.78838,-15.00000 L259.80762,-30.00000 L233.82686,-15.00000 L233.82686,15.00000 Z"/>
        <path style="stroke:black;fill:none" d="M233.82686,-15.00000 L259.80762,-30.00000 L259.80762,-60.00000 L233.82686,-75.00000 L207.84610,-60.00000 L207.84610,-30.00000 Z"/>
        <path style="stroke:black;fill:none" d="M207.84610,-60.00000 L233.82686,-75.00000 L233.82686,-105.00000 L207.84610,-120.00000 L181.86533,-105.00000 L181.86533,-75.00000 Z"/>
        <path style="stroke:black;fill:none" d="M181.86533,-105.00000 L207.84610,-120.00000 L207.84610,-150.00000 L181.86533,-165.00000 L155.88457,-150.00000 L155.88457,-120.00000 Z"/>
        <path style="stroke:black;fill:none" d="M155.88457,-150.00000 L181.86533,-165.00000 L181.86533,-195.00000 L155.88457,-210.00000 L129.90381,-195.00000 L129.90381,-165.00000 Z"/>
        <path style="stroke:black;fill:none" d="M129.90381,-195.00000 L155.88457,-210.00000 L155.88457,-240.00000 L129.90381,-255.00000 L103.92305,-240.00000 L103.92305,-210.00000 Z"/>
        <path style="stroke:black;fill:none" d="M77.94229,-195.00000 L103.92305,-210.00000 L103.92305,-240.00000 L77.94229,-255.00000 L51.96152,-240.00000 L51.96152,-210.00000 Z"/>
        <path style="stroke:black;fill:none" d="M25.98076,-195.00000 L51.96152,-210.00000 L51.96152,-240.00000 L25.98076,-255.00000 L0.00000,-240.00000 L0.00000,-210.00000 Z"/>
        <path style="stroke:black;fill:none" d="M-25.98076,-195.00000 L0.00000,-210.00000 L0.00000,-240.00000 L-25.98076,-255.00000 L-51.96152,-240.00000 L-51.96152,-210.00000 Z"/>
        <path style="stroke:black;fill:none" d="M-77.94229,-195.00000 L-51.96152,-210.00000 L-51.96152,-240.00000 L-77.94229,-255.00000 L-103.92305,-240.00000 L-103.92305,-210.00000 Z"/>
        <path style="stroke:black;fill:none" d="M-129.90381,-195.00000 L-103.92305,-210.00000 L-103.92305,-240.00000 L-129.90381,-255.00000 L-155.88457,-240.00000 L-155.88457,-210.00000 Z"/>
        <path style="stroke:black;fill:none" d="M-155.88457,-150.00000 L-129.90381,-165.00000 L-129.90381,-195.00000 L-155.88457,-210.00000 L-181.86533,-195.00000 L-181.86533,-165.00000 Z"/>
        <path style="stroke:black;fill:none" d="M-181.86533,-105.00000 L-155.88457,-120.00000 L-155.88457,-150.00000 L-181.86533,-165.00000 L-207.84610,-150.00000 L-207.84610,-120.00000 Z"/>
        <path style="stroke:black;fill:none" d="M-207.84610,-60.00000 L-181.86533,-75.00000 L-181.86533,-105.00000 L-207.84610,-120.00000 L-233.82686,-105.00000 L-233.82686,-75.00000 Z"/>
        <path style="stroke:black;fill:none" d="M-233.82686,-15.00000 L-207.84610,-30.00000 L-207.84610,-60.00000 L-233.82686,-75.00000 L-259.80762,-60.00000 L-259.80762,-30.00000 Z"/>
        <path style="stroke:black;fill:none" d="M-259.80762,30.00000 L-233.82686,15.00000 L-233.82686,-15.00000 L-259.80762,-30.00000 L-285.78838,-15.00000 L-285.78838,15.00000 Z"/>
        <path style="stroke:black;fill:none" d="M-233.82686,75.00000 L-207.84610,60.00000 L-207.84610,30.00000 L-233.82686,15.00000 L-259.80762,30.00000 L-259.80762,60.00000 Z"/>
        <path style="stroke:black;fill:none" d="M-207.84610,120.00000 L-181.86533,105.00000 L-181.86533,75.00000 L-207.84610,60.00000 L-233.82686,75.00000 L-233.82686,105.00000 Z"/>
        <path style="stroke:black;fill:none" d="M-181.86533,165.00000 L-155.88457,150.00000 L-155.88457,120.00000 L-181.86533,105.00000 L-207.84610,120.00000 L-207.84610,150.00000 Z"/>
        <path style="stroke:black;fill:none" d="M-155.88457,210.00000 L-129.90381,195.00000 L-129.90381,165.00000 L-155.88457,150.00000 L-181.86533,165.00000 L-181.86533,195.00000 Z"/>
        <path style="stroke:black;fill:none" d="M-129.90381,255.00000 L-103.92305,240.00000 L-103.92305,210.00000 L-129.90381,195.00000 L-155.88457,210.00000 L-155.88457,240.00000 Z"/>
        <path style="stroke:black;fill:none" d="M-77.94229,255.00000 L-51.96152,240.00000 L-51.96152,210.00000 L-77.94229,195.00000 L-103.92305,210.00000 L-103.92305,240.00000 Z"/>
        <path style="stroke:black;fill:none" d="M-25.98076,255.00000 L0.00000,240.00000 L0.00000,210.00000 L-25.98076,195.00000 L-51.96152,210.00000 L-51.96152,240.00000 Z"/>
        <path style="stroke:black;fill:none" d="M25.98076,255.00000 L51.96152,240.00000 L51.96152,210.00000 L25.98076,195.00000 L0.00000,210.00000 L0.00000,240.00000 Z"/>
        <path style="stroke:black;fill:none" d="M77.94229,255.00000 L103.92305,240.00000 L103.92305,210.00000 L77.94229,195.00000 L51.96152,210.00000 L51.96152,240.00000 Z"/>
      </g>
      <g id="level6">
        <path style="stroke:black;fill:none" d="M155.88457,300.00000 L181.86533,285.00000 L181.86533,255.00000 L155.88457,240.00000 L129.90381,255.00000 L129.90381,285.00000 Z"/>
        <path style="stroke:black;fill:none" d="M181.86533,255.00000 L207.84610,240.00000 L207.84610,210.00000 L181.86533,195.00000 L155.88457,210.00000 L155.88457,240.00000 Z"/>
        <path style="stroke:black;fill:none" d="M207.84610,210.00000 L233.82686,195.00000 L233.82686,165.00000 L207.84610,150.00000 L181.86533,165.00000 L181.86533,195.00000 Z"/>
        <path style="stroke:black;fill:none" d="M233.82686,165.00000 L259.80762,150.00000 L259.80762,120.00000 L233.82686,105.00000 L207.84610,120.00000 L207.84610,150.00000 Z"/>
        <path style="stroke:black;fill:none" d="M259.80762,120.00000 L285.78838,105.00000 L285.78838,75.00000 L259.80762,60.00000 L233.82686,75.00000 L233.82686,105.00000 Z"/>
        <path style="stroke:black;fill:none" d="M285.78838,75.00000 L311.76915,60.00000 L311.76915,30.00000 L285.78838,15.00000 L259.80762,30.00000 L259.80762,60.00000 Z"/>
        <path style="stroke:black;fill:none" d="M311.76915,30.00000 L337.74991,15.00000 L337.74991,-15.00000 L311.76915,-30.00000 L285.78838,-15.00000 L285.78838,15.00000 Z"/>
        <path style="stroke:black;fill:none" d="M285.78838,-15.00000 L311.76915,-30.00000 L311.76915,-60.00000 L285.78838,-75.00000 L259.80762,-60.00000 L259.80762,-30.00000 Z"/>
        <path style="stroke:black;fill:none" d="M259.80762,-60.00000 L285.78838,-75.00000 L285.78838,-105.00000 L259.80762,-120.00000 L233.82686,-105.00000 L233.82686,-75.00000 Z"/>
        <path style="stroke:black;fill:none" d="M233.82686,-105.00000 L259.80762,-120.00000 L259.80762,-150.00000 L233.82686,-165.00000 L207.84610,-150.00000 L207.84610,-120.00000 Z"/>
        <path style="stroke:black;fill:none" d="M207.84610,-150.00000 L233.82686,-165.00000 L233.82686,-195.00000 L207.84610,-210.00000 L181.86533,-195.00000 L181.86533,-165.00000 Z"/>
        <path style="stroke:black;fill:none" d="M181.86533,-195.00000 L207.84610,-210.00000 L207.84610,-240.00000 L181.86533,-255.00000 L155.88457,-240.00000 L155.88457,-210.00000 Z"/>
        <path style="stroke:black;fill:none" d="M155.88457,-240.00000 L181.86533,-255.00000 L181.86533,-285.00000 L155.88457,-300.00000 L129.90381,-285.00000 L129.90381,-255.00000 Z"/>
        <path style="stroke:black;fill:none" d="M103.92305,-240.00000 L129.90381,-255.00000 L129.90381,-285.00000 L103.92305,-300.00000 L77.94229,-285.00000 L77.94229,-255.00000 Z"/>
        <path style="stroke:black;fill:none" d="M51.96152,-240.00000 L77.94229,-255.00000 L77.94229,-285.00000 L51.96152,-300.00000 L25.98076,-285.00000 L25.98076,-255.00000 Z"/>
        <path style="stroke:black;fill:none" d="M0.00000,-240.00000 L25.98076,-255.00000 L25.98076,-285.00000 L0.00000,-300.00000 L-25.98076,-285.00000 L-25.98076,-255.00000 Z"/>
        <path style="stroke:black;fill:none" d="M-51.96152,-240.00000 L-25.98076,-255.00000 L-25.98076,-285.00000 L-51.96152,-300.00000 L-77.94229,-285.00000 L-77.94229,-255.00000 Z"/>
        <path style="stroke:black;fill:none" d="M-103.92305,-240.00000 L-77.94229,-255.00000 L-77.94229,-285.00000 L-103.92305,-300.00000 L-129.90381,-285.00000 L-129.90381,-255.00000 Z"/>
        <path style="stroke:black;fill:none" d="M-155.88457,-240.00000 L-129.90381,-255.00000 L-129.90381,-285.00000 L-155.88457,-300.00000 L-181.86533,-285.00000 L-181.86533,-255.00000 Z"/>
        <path style="stroke:black;fill:none" d="M-181.86533,-195.00000 L-155.88457,-210.00000 L-155.88457,-240.00000 L-181.86533,-255.00000 L-207.84610,-240.00000 L-207.84610,-210.00000 Z"/>
        <path style="stroke:black;fill:none" d="M-207.84610,-150.00000 L-181.86533,-165.00000 L-181.86533,-195.00000 L-207.84610,-210.00000 L-233.82686,-195.00000 L-233.82686,-165.00000 Z"/>
        <path style="stroke:black;fill:none" d="M-233.82686,-105.00000 L-207.84610,-120.00000 L-207.84610,-150.00000 L-233.82686,-165.00000 L-259.80762,-150.00000 L-259.80762,-120.00000 Z"/>
        <path style="stroke:black;fill:none" d="M-259.80762,-60.00000 L-233.82686,-75.00000 L-233.82686,-105.00000 L-259.80762,-120.00000 L-285.78838,-105.00000 L-285.78838,-75.00000 Z"/>
        <path style="stroke:black;fill:none" d="M-285.78838,-15.00000 L-259.80762,-30.00000 L-259.80762,-60.00000 L-285.78838,-75.00000 L-311.76915,-60.00000 L-311.76915,-30.00000 Z"/>
        <path style="stroke:black;fill:none" d="M-311.76915,30.00000 L-285.78838,15.00000 L-285.78838,-15.00000 L-311.76915,-30.00000 L-337.74991,-15.00000 L-337.74991,15.00000 Z"/>
        <path style="stroke:black;fill:none" d="M-285.78838,75.00000 L-259.80762,60.00000 L-259.80762,30.00000 L-285.78838,15.00000 L-311.76915,30.00000 L-311.76915,60.00000 Z"/>
        <path style="stroke:black;fill:none" d="M-259.80762,120.00000 L-233.82686,105.00000 L-233.82686,75.00000 L-259.80762,60.00000 L-285.78838,75.00000 L-285.78838,105.00000 Z"/>
        <path style="stroke:black;fill:none" d="M-233.82686,165.00000 L-207.84610,150.00000 L-207.84610,120.00000 L-233.82686,105.00000 L-259.80762,120.00000 L-259.80762,150.00000 Z"/>
        <path style="stroke:black;fill:none" d="M-207.84610,210.00000 L-181.86533,195.00000 L-181.86533,165.00000 L-207.84610,150.00000 L-233.82686,165.00000 L-233.82686,195.00000 Z"/>
        <path style="stroke:black;fill:none" d="M-181.86533,255.00000 L-155.88457,240.00000 L-155.88457,210.00000 L-181.86533,195.00000 L-207.84610,210.00000 L-207.84610,240.00000 Z"/>
        <path style="stroke:black;fill:none" d="M-155.88457,300.00000 L-129.90381,285.00000 L-129.90381,255.00000 L-155.88457,240.00000 L-181.86533,255.00000 L-181.86533,285.00000 Z"/>
        <path style="stroke:black;fill:none" d="M-103.92305,300.00000 L-77.94229,285.00000 L-77.94229,255.00000 L-103.92305,240.00000 L-129.90381,255.00000 L-129.90381,285.00000 Z"/>
        <path style="stroke:black;fill:none" d="M-51.96152,300.00000 L-25.98076,285.00000 L-25.98076,255.00000 L-51.96152,240.00000 L-77.94229,255.00000 L-77.94229,285.00000 Z"/>
        <path style="stroke:black;fill:none" d="M0.00000,300.00000 L25.98076,285.00000 L25.98076,255.00000 L0.00000,240.00000 L-25.98076,255.00000 L-25.98076,285.00000 Z"/>
        <path style="stroke:black;fill:none" d="M51.96152,300.00000 L77.94229,285.00000 L77.94229,255.00000 L51.96152,240.00000 L25.98076,255.00000 L25.98076,285.00000 Z"/>
        <path style="stroke:black;fill:none" d="M103.92305,300.00000 L129.90381,285.00000 L129.90381,255.00000 L103.92305,240.00000 L77.94229,255.00000 L77.94229,285.00000 Z"/>
      </g>
      <g id="level7">
        <path style="stroke:black;fill:none" d="M181.86533,345.00000 L207.84610,330.00000 L207.84610,300.00000 L181.86533,285.00000 L155.88457,300.00000 L155.88457,330.00000 Z"/>
        <path style="stroke:black;fill:none" d="M207.84610,300.00000 L233.82686,285.00000 L233.82686,255.00000 L207.84610,240.00000 L181.86533,255.00000 L181.86533,285.00000 Z"/>
        <path style="stroke:black;fill:none" d="M233.82686,255.00000 L259.80762,240.00000 L259.80762,210.00000 L233.82686,195.00000 L207.84610,210.00000 L207.84610,240.00000 Z"/>
        <path style="stroke:black;fill:none" d="M259.80762,210.00000 L285.78838,195.00000 L285.78838,165.00000 L259.80762,150.00000 L233.82686,165.00000 L233.82686,195.00000 Z"/>
        <path style="stroke:black;fill:none" d="M285.78838,165.00000 L311.76915,150.00000 L311.76915,120.00000 L285.78838,105.00000 L259.80762,120.00000 L259.80762,150.00000 Z"/>
        <path style="stroke:black;fill:none" d="M311.76915,120.00000 L337.74991,105.00000 L337.74991,75.00000 L311.76915,60.00000 L285.78838,75.00000 L285.78838,105.00000 Z"/>
        <path style="stroke:black;fill:none" d="M337.74991,75.00000 L363.73067,60.00000 L363.73067,30.00000 L337.74991,15.00000 L311.76915,30.00000 L311.76915,60.00000 Z"/>
        <path style="stroke:black;fill:none" d="M363.73067,30.00000 L389.71143,15.00000 L389.71143,-15.00000 L363.73067,-30.00000 L337.74991,-15.00000 L337.74991,15.00000 Z"/>
        <path style="stroke:black;fill:none" d="M337.74991,-15.00000 L363.73067,-30.00000 L363.73067,-60.00000 L337.74991,-75.00000 L311.76915,-60.00000 L311.76915,-30.00000 Z"/>
        <path style="stroke:black;fill:none" d="M311.76915,-60.00000 L337.74991,-75.00000 L337.74991,-105.00000 L311.76915,-120.00000 L285.78838,-105.00000 L285.78838,-75.00000 Z"/>
        <path style="stroke:black;fill:none" d="M285.78838,-105.00000 L311.76915,-120.00000 L311.76915,-150.00000 L285.78838,-165.00000 L259.80762,-150.00000 L259.80762,-120.00000 Z"/>
        <path style="stroke:black;fill:none" d="M259.80762,-150.00000 L285.78838,-165.00000 L285.78838,-195.00000 L259.80762,-210.00000 L233.82686,-195.00000 L233.82686,-165.00000 Z"/>
        <path style="stroke:black;fill:none" d="M233.82686,-195.00000 L259.80762,-210.00000 L259.80762,-240.00000 L233.82686,-255.00000 L207.84610,-240.00000 L207.84610,-210.00000 Z"/>
        <path style="stroke:black;fill:none" d="M207.84610,-240.00000 L233.82686,-255.00000 L233.82686,-285.00000 L207.84610,-300.00000 L181.86533,-285.00000 L181.86533,-255.00000 Z"/>
        <path style="stroke:black;fill:none" d="M181.86533,-285.00000 L207.84610,-300.00000 L207.84610,-330.00000 L181.86533,-345.00000 L155.88457,-330.00000 L155.88457,-300.00000 Z"/>
        <path style="stroke:black;fill:none" d="M129.90381,-285.00000 L155.88457,-300.00000 L155.88457,-330.00000 L129.90381,-345.00000 L103.92305,-330.00000 L103.92305,-300.00000 Z"/>
        <path style="stroke:black;fill:none" d="M77.94229,-285.00000 L103.92305,-300.00000 L103.92305,-330.00000 L77.94229,-345.00000 L51.96152,-330.00000 L51.96152,-300.00000 Z"/>
        <path style="stroke:black;fill:none" d="M25.98076,-285.00000 L51.96152,-300.00000 L51.96152,-330.00000 L25.98076,-345.00000 L0.00000,-330.00000 L0.00000,-300.00000 Z"/>
        <path style="stroke:black;fill:none" d="M-25.98076,-285.00000 L0.00000,-300.00000 L0.00000,-330.00000 L-25.98076,-345.00000 L-51.96152,-330.00000 L-51.96152,-300.00000 Z"/>
        <path style="stroke:black;fill:none" d="M-77.94229,-285.00000 L-51.96152,-300.00000 L-51.96152,-330.00000 L-77.94229,-345.00000 L-103.92305,-330.00000 L-103.92305,-300.00000 Z"/>
        <path style="stroke:black;fill:none" d="M-129.90381,-285.00000 L-103.92305,-300.00000 L-103.92305,-330.00000 L-129.90381,-345.00000 L-155.88457,-330.00000 L-155.88457,-300.00000 Z"/>
        <path style="stroke:black;fill:none" d="M-181.86533,-285.00000 L-155.88457,-300.00000 L-155.88457,-330.00000 L-181.86533,-345.00000 L-207.84610,-330.00000 L-207.84610,-300.00000 Z"/>
        <path style="stroke:black;fill:none" d="M-207.84610,-240.00000 L-181.86533,-255.00000 L-181.86533,-285.00000 L-207.84610,-300.00000 L-233.82686,-285.00000 L-233.82686,-255.00000 Z"/>
        <path style="stroke:black;fill:none" d="M-233.82686,-195.00000 L-207.84610,-210.00000 L-207.84610,-240.00000 L-233.82686,-255.00000 L-259.80762,-240.00000 L-259.80762,-210.00000 Z"/>
        <path style="stroke:black;fill:none" d="M-259.80762,-150.00000 L-233.82686,-165.00000 L-233.82686,-195.00000 L-259.80762,-210.00000 L-285.78838,-195.00000 L-285.78838,-165.00000 Z"/>
        <path style="stroke:black;fill:none" d="M-285.78838,-105.00000 L-259.80762,-120.00000 L-259.80762,-150.00000 L-285.78838,-165.00000 L-311.76915,-150.00000 L-311.76915,-120.00000 Z"/>
        <path style="stroke:black;fill:none" d="M-311.76915,-60.00000 L-285.78838,-75.00000 L-285.78838,-105.00000 L-311.76915,-120.00000 L-337.74991,-105.00000 L-337.74991,-75.00000 Z"/>
        <path style="stroke:black;fill:none" d="M-337.74991,-15.00000 L-311.76915,-30.00000 L-311.76915,-60.00000 L-337.74991,-75.00000 L-363.73067,-60.00000 L-363.73067,-30.00000 Z"/>
        <path style="stroke:black;fill:none" d="M-363.73067,30.00000 L-337.74991,15.00000 L-337.74991,-15.00000 L-363.73067,-30.00000 L-389.71143,-15.00000 L-389.71143,15.00000 Z"/>
        <path style="stroke:black;fill:none" d="M-337.74991,75.00000 L-311.76915,60.00000 L-311.76915,30.00000 L-337.74991,15.00000 L-363.73067,30.00000 L-363.73067,60.00000 Z"/>
        <path style="stroke:black;fill:none" d="M-311.76915,120.00000 L-285.78838,105.00000 L-285.78838,75.00000 L-311.76915,60.00000 L-337.74991,75.00000 L-337.74991,105.00000 Z"/>
        <path style="stroke:black;fill:none" d="M-285.78838,165.00000 L-259.80762,150.00000 L-259.80762,120.00000 L-285.78838,105.00000 L-311.76915,120.00000 L-311.76915,150.00000 Z"/>
        <path style="stroke:black;fill:none" d="M-259.80762,210.00000 L-233.82686,195.00000 L-233.82686,165.00000 L-259.80762,150.00000 L-285.78838,165.00000 L-285.78838,195.00000 Z"/>
        <path style="stroke:black;fill:none" d="M-233.82686,255.00000 L-207.84610,240.00000 L-207.84610,210.00000 L-233.82686,195.00000 L-259.80762,210.00000 L-259.80762,240.00000 Z"/>
        <path style="stroke:black;fill:none" d="M-207.84610,300.00000 L-181.86533,285.00000 L-181.86533,255.00000 L-207.84610,240.00000 L-233.82686,255.00000 L-233.82686,285.00000 Z"/>
        <path style="stroke:black;fill:none" d="M-181.86533,345.00000 L-155.88457,330.00000 L-155.88457,300.00000 L-181.86533,285.00000 L-207.84610,300.00000 L-207.84610,330.00000 Z"/>
        <path style="stroke:black;fill:none" d="M-129.90381,345.00000 L-103.92305,330.00000 L-103.92305,300.00000 L-129.90381,285.00000 L-155.88457,300.00000 L-155.88457,330.00000 Z"/>
        <path style="stroke:black;fill:none" d="M-77.94229,345.00000 L-51.96152,330.00000 L-51.96152,300.00000 L-77.94229,285.00000 L-103.92305,300.00000 L-103.92305,330.00000 Z"/>
        <path style="stroke:black;fill:none" d="M-25.98076,345.00000 L0.00000,330.00000 L0.00000,300.00000 L-25.98076,285.00000 L-51.96152,300.00000 L-51.96152,330.00000 Z"/>
        <path style="stroke:black;fill:none" d="M25.98076,345.00000 L51.96152,330.00000 L51.96152,300.00000 L25.98076,285.00000 L0.00000,300.00000 L0.00000,330.00000 Z"/>
        <path style="stroke:black;fill:none" d="M77.94229,345.00000 L103.92305,330.00000 L103.92305,300.00000 L77.94229,285.00000 L51.96152,300.00000 L51.96152,330.00000 Z"/>
        <path style="stroke:black;fill:none" d="M129.90381,345.00000 L155.88457,330.00000 L155.88457,300.00000 L129.90381,285.00000 L103.92305,300.00000 L103.92305,330.00000 Z"/>
      </g>
      <g id="level8">
        <path style="stroke:black;fill:none" d="M207.84610,390.00000 L233.82686,375.00000 L233.82686,345.00000 L207.84610,330.00000 L181.86533,345.00000 L181.86533,375.00000 Z"/>
        <path style="stroke:black;fill:none" d="M233.82686,345.00000 L259.80762,330.00000 L259.80762,300.00000 L233.82686,285.00000 L207.84610,300.00000 L207.84610,330.00000 Z"/>
        <path style="stroke:black;fill:none" d="M259.80762,300.00000 L285.78838,285.00000 L285.78838,255.00000 L259.80762,240.00000 L233.82686,255.00000 L233.82686,285.00000 Z"/>
        <path style="stroke:black;fill:none" d="M285.78838,255.00000 L311.76915,240.00000 L311.76915,210.00000 L285.78838,195.00000 L259.80762,210.00000 L259.80762,240.00000 Z"/>
        <path style="stroke:black;fill:none" d="M311.76915,210.00000 L337.74991,195.00000 L337.74991,165.00000 L311.76915,150.00000 L285.78838,165.00000 L285.78838,195.00000 Z"/>
        <path style="stroke:black;fill:none" d="M337.74991,165.00000 L363.73067,150.00000 L363.73067,120.00000 L337.74991,105.00000 L311.76915,120.00000 L311.76915,150.00000 Z"/>
        <path style="stroke:black;fill:none" d="M363.73067,120.00000 L389.71143,105.00000 L389.71143,75.00000 L363.73067,60.00000 L337.74991,75.00000 L337.74991,105.00000 Z"/>
        <path style="stroke:black;fill:none" d="M389.71143,75.00000 L415.69219,60.00000 L415.69219,30.00000 L389.71143,15.00000 L363.73067,30.00000 L363.73067,60.00000 Z"/>
        <path style="stroke:black;fill:none" d="M415.69219,30.00000 L441.67296,15.00000 L441.67296,-15.00000 L415.69219,-30.00000 L389.71143,-15.00000 L389.71143,15.00000 Z"/>
        <path style="stroke:black;fill:none" d="M389.71143,-15.00000 L415.69219,-30.00000 L415.69219,-60.00000 L389.71143,-75.00000 L363.73067,-60.00000 L363.73067,-30.00000 Z"/>
        <path style="stroke:black;fill:none" d="M363.73067,-60.00000 L389.71143,-75.00000 L389.71143,-105.00000 L363.73067,-120.00000 L337.74991,-105.00000 L337.74991,-75.00000 Z"/>
        <path style="stroke:black;fill:none" d="M337.74991,-105.00000 L363.73067,-120.00000 L363.73067,-150.00000 L337.74991,-165.00000 L311.76915,-150.00000 L311.76915,-120.00000 Z"/>
        <path style="stroke:black;fill:none" d="M311.76915,-150.00000 L337.74991,-165.00000 L337.74991,-195.00000 L311.76915,-210.00000 L285.78838,-195.00000 L285.78838,-165.00000 Z"/>
        <path style="stroke:black;fill:none" d="M285.78838,-195.00000 L311.76915,-210.00000 L311.76915,-240.00000 L285.78838,-255.00000 L259.80762,-240.00000 L259.80762,-210.00000 Z"/>
        <path style="stroke:black;fill:none" d="M259.80762,-240.00000 L285.78838,-255.00000 L285.78838,-285.00000 L259.80762,-300.00000 L233.82686,-285.00000 L233.82686,-255.00000 Z"/>
        <path style="stroke:black;fill:none" d="M233.82686,-285.00000 L259.80762,-300.00000 L259.80762,-330.00000 L233.82686,-345.00000 L207.84610,-330.00000 L207.84610,-300.00000 Z"/>
        <path style="stroke:black;fill:none" d="M207.84610,-330.00000 L233.82686,-345.00000 L233.82686,-375.00000 L207.84610,-390.00000 L181.86533,-375.00000 L181.86533,-345.00000 Z"/>
        <path style="stroke:black;fill:none" d="M155.88457,-330.00000 L181.86533,-345.00000 L181.86533,-375.00000 L155.88457,-390.00000 L129.90381,-375.00000 L129.90381,-345.00000 Z"/>
        <path style="stroke:black;fill:none" d="M103.92305,-330.00000 L129.90381,-345.00000 L129.90381,-375.00000 L103.92305,-390.00000 L77.94229,-375.00000 L77.94229,-345.00000 Z"/>
        <path style="stroke:black;fill:none" d="M51.96152,-330.00000 L77.94229,-345.00000 L77.94229,-375.00000 L51.96152,-390.00000 L25.98076,-375.00000 L25.98076,-345.00000 Z"/>
        <path style="stroke:black;fill:none" d="M0.00000,-330.00000 L25.98076,-345.00000 L25.98076,-375.00000 L0.00000,-390.00000 L-25.98076,-375.00000 L-25.98076,-345.00000 Z"/>
        <path style="stroke:black;fill:none" d="M-51.96152,-330.00000 L-25.98076,-345.00000 L-25.98076,-375.00000 L-51.96152,-390.00000 L-77.94229,-375.00000 L-77.94229,-345.00000 Z"/>
        <path style="stroke:black;fill:none" d="M-103.92305,-330.00000 L-77.94229,-345.00000 L-77.94229,-375.00000 L-103.92305,-390.00000 L-129.90381,-375.00000 L-129.90381,-345.00000 Z"/>
        <path style="stroke:black;fill:none" d="M-155.88457,-330.00000 L-129.90381,-345.00000 L-129.90381,-375.00000 L-155.88457,-390.00000 L-181.86533,-375.00000 L-181.86533,-345.00000 Z"/>
        <path style="stroke:black;fill:none" d="M-207.84610,-330.00000 L-181.86533,-345.00000 L-181.86533,-375.00000 L-207.84610,-390.00000 L-233.82686,-375.00000 L-233.82686,-345.00000 Z"/>
        <path style="stroke:black;fill:none" d="M-233.82686,-285.00000 L-207.84610,-300.00000 L-207.84610,-330.00000 L-233.82686,-345.00000 L-259.80762,-330.00000 L-259.80762,-300.00000 Z"/>
        <path style="stroke:black;fill:none" d="M-259.80762,-240.00000 L-233.82686,-255.00000 L-233.82686,-285.00000 L-259.80762,-300.00000 L-285.78838,-285.00000 L-285.78838,-255.00000 Z"/>
        <path style="stroke:black;fill:none" d="M-285.78838,-195.00000 L-259.80762,-210.00000 L-259.80762,-240.00000 L-285.78838,-255.00000 L-311.76915,-240.00000 L-311.76915,-210.00000 Z"/>
        <path style="stroke:black;fill:none" d="M-311.76915,-150.00000 L-285.78838,-165.00000 L-285.78838,-195.00000 L-311.76915,-210.00000 L-337.74991,-195.00000 L-337.74991,-165.00000 Z"/>
        <path style="stroke:black;fill:none" d="M-337.74991,-105.00000 L-311.76915,-120.00000 L-311.76915,-150.00000 L-337.74991,-165.00000 L-363.73067,-150.00000 L-363.73067,-120.00000 Z"/>
        <path style="stroke:black;fill:none" d="M-363.73067,-60.00000 L-337.74991,-75.00000 L-337.74991,-105.00000 L-363.73067,-120.00000 L-389.71143,-105.00000 L-389.71143,-75.00000 Z"/>
        <path style="stroke:black;fill:none" d="M-389.71143,-15.00000 L-363.73067,-30.00000 L-363.73067,-60.00000 L-389.71143,-75.00000 L-415.69219,-60.00000 L-415.69219,-30.00000 Z"/>
        <path style="stroke:black;fill:none" d="M-415.69219,30.00000 L-389.71143,15.00000 L-389.71143,-15.00000 L-415.69219,-30.00000 L-441.67296,-15.00000 L-441.67296,15.00000 Z"/>
        <path style="stroke:black;fill:none" d="M-389.71143,75.00000 L-363.73067,60.00000 L-363.73067,30.00000 L-389.71143,15.00000 L-415.69219,30.00000 L-415.69219,60.00000 Z"/>
        <path style="stroke:black;fill:none" d="M-363.73067,120.00000 L-337.74991,105.00000 L-337.74991,75.00000 L-363.73067,60.00000 L-389.71143,75.00000 L-389.71143,105.00000 Z"/>
        <path style="stroke:black;fill:none" d="M-337.74991,165.00000 L-311.76915,150.00000 L-311.76915,120.00000 L-337.74991,105.00000 L-363.73067,120.00000 L-363.73067,150.00000 Z"/>
        <path style="stroke:black;fill:none" d="M-311.76915,210.00000 L-285.78838,195.00000 L-285.78838,165.00000 L-311.76915,150.00000 L-337.74991,165.00000 L-337.74991,195.00000 Z"/>
        <path style="stroke:black;fill:none" d="M-285.78838,255.00000 L-259.80762,240.00000 L-259.80762,210.00000 L-285.78838,195.00000 L-311.76915,210.00000 L-311.76915,240.00000 Z"/>
        <path style="stroke:black;fill:none" d="M-259.80762,300.00000 L-233.82686,285.00000 L-233.82686,255.00000 L-259.80762,240.00000 L-285.78838,255.00000 L-285.78838,285.00000 Z"/>
        <path style="stroke:black;fill:none" d="M-233.82686,345.00000 L-207.84610,330.00000 L-207.84610,300.00000 L-233.82686,285.00000 L-259.80762,300.00000 L-259.80762,330.00000 Z"/>
        <path style="stroke:black;fill:none" d="M-207.84610,390.00000 L-181.86533,375.00000 L-181.86533,345.00000 L-207.84610,330.00000 L-233.82686,345.00000 L-233.82686,375.00000 Z"/>
        <path style="stroke:black;fill:none" d="M-155.88457,390.00000 L-129.90381,375.00000 L-129.90381,345.00000 L-155.88457,330.00000 L-181.86533,345.00000 L-181.86533,375.00000 Z"/>
        <path style="stroke:black;fill:none" d="M-103.92305,390.00000 L-77.94229,375.00000 L-77.94229,345.00000 L-103.92305,330.00000 L-129.90381,345.00000 L-129.90381,375.00000 Z"/>
        <path style="stroke:black;fill:none" d="M-51.96152,390.00000 L-25.98076,375.00000 L-25.98076,345.00000 L-51.96152,330.00000 L-77.94229,345.00000 L-77.94229,375.00000 Z"/>
        <path style="stroke:black;fill:none" d="M0.00000,390.00000 L25.98076,375.00000 L25.98076,345.00000 L0.00000,330.00000 L-25.98076,345.00000 L-25.98076,375.00000 Z"/>
        <path style="stroke:black;fill:none" d="M51.96152,390.00000 L77.94229,375.00000 L77.94229,345.00000 L51.96152,330.00000 L25.98076,345.00000 L25.98076,375.00000 Z"/>
        <path style="stroke:black;fill:none" d="M103.92305,390.00000 L129.90381,375.00000 L129.90381,345.00000 L103.92305,330.00000 L77.94229,345.00000 L77.94229,375.00000 Z"/>
        <path style="stroke:black;fill:none" d="M155.88457,390.00000 L181.86533,375.00000 L181.86533,345.00000 L155.88457,330.00000 L129.90381,345.00000 L129.90381,375.00000 Z"/>
      </g>
      <g id="level9">
        <path style="stroke:black;fill:none" d="M233.82686,435.00000 L259.80762,420.00000 L259.80762,390.00000 L233.82686,375.00000 L207.84610,390.00000 L207.84610,420.00000 Z"/>
        <path style="stroke:black;fill:none" d="M259.80762,390.00000 L285.78838,375.00000 L285.78838,345.00000 L259.80762,330.00000 L233.82686,345.00000 L233.82686,375.00000 Z"/>
        <path style="stroke:black;fill:none" d="M285.78838,345.00000 L311.76915,330.00000 L311.76915,300.00000 L285.78838,285.00000 L259.80762,300.00000 L259.80762,330.00000 Z"/>
        <path style="stroke:black;fill:none" d="M311.76915,300.00000 L337.74991,285.00000 L337.74991,255.00000 L311.76915,240.00000 L285.78838,255.00000 L285.78838,285.00000 Z"/>
        <path style="stroke:black;fill:none" d="M337.74991,255.00000 L363.73067,240.00000 L363.73067,210.00000 L337.74991,195.00000 L311.76915,210.00000 L311.76915,240.00000 Z"/>
        <path style="stroke:black;fill:none" d="M363.73067,210.00000 L389.71143,195.00000 L389.71143,165.00000 L363.73067,150.00000 L337.74991,165.00000 L337.74991,195.00000 Z"/>
        <path style="stroke:black;fill:none" d="M389.71143,165.00000 L415.69219,150.00000 L415.69219,120.00000 L389.71143,105.00000 L363.73067,120.00000 L363.73067,150.00000 Z"/>
        <path style="stroke:black;fill:none" d="M415.69219,120.00000 L441.67296,105.00000 L441.67296,75.00000 L415.69219,60.00000 L389.71143,75.00000 L389.71143,105.00000 Z"/>
        <path style="stroke:black;fill:none" d="M441.67296,75.00000 L467.65372,60.00000 L467.65372,30.00000 L441.67296,15.00000 L415.69219,30.00000 L415.69219,60.00000 Z"/>
        <path style="stroke:black;fill:none" d="M467.65372,30.00000 L493.63448,15.00000 L493.63448,-15.00000 L467.65372,-30.00000 L441.67296,-15.00000 L441.67296,15.00000 Z"/>
        <path style="stroke:black;fill:none" d="M441.67296,-15.00000 L467.65372,-30.00000 L467.65372,-60.00000 L441.67296,-75.00000 L415.69219,-60.00000 L415.69219,-30.00000 Z"/>
        <path style="stroke:black;fill:none" d="M415.69219,-60.00000 L441.67296,-75.00000 L441.67296,-105.00000 L415.69219,-120.00000 L389.71143,-105.00000 L389.71143,-75.00000 Z"/>
        <path style="stroke:black;fill:none" d="M389.71143,-105.00000 L415.69219,-120.00000 L415.69219,-150.00000 L389.71143,-165.00000 L363.73067,-150.00000 L363.73067,-120.00000 Z"/>
        <path style="stroke:black;fill:none" d="M363.73067,-150.00000 L389.71143,-165.00000 L389.71143,-195.00000 L363.73067,-210.00000 L337.74991,-195.00000 L337.74991,-165.00000 Z"/>
        <path style="stroke:black;fill:none" d="M337.74991,-195.00000 L363.73067,-210.00000 L363.73067,-240.00000 L337.74991,-255.00000 L311.76915,-240.00000 L311.76915,-210.00000 Z"/>
        <path style="stroke:black;fill:none" d="M311.76915,-240.00000 L337.74991,-255.00000 L337.74991,-285.00000 L311.76915,-300.00000 L285.78838,-285.00000 L285.78838,-255.00000 Z"/>
        <path style="stroke:black;fill:none" d="M285.78838,-285.00000 L311.76915,-300.00000 L311.76915,-330.00000 L285.78838,-345.00000 L259.80762,-330.00000 L259.80762,-300.00000 Z"/>
        <path style="stroke:black;fill:none" d="M259.80762,-330.00000 L285.78838,-345.00000 L285.78838,-375.00000 L259.80762,-390.00000 L233.82686,-375.00000 L233.82686,-345.00000 Z"/>
        <path style="stroke:black;fill:none" d="M233.82686,-375.00000 L259.80762,-390.00000 L259.80762,-420.00000 L233.82686,-435.00000 L207.84610,-420.00000 L207.84610,-390.00000 Z"/>
        <path style="stroke:black;fill:none" d="M181.86533,-375.00000 L207.84610,-390.00000 L207.84610,-420.00000 L181.86533,-435.00000 L155.88457,-420.00000 L155.88457,-390.00000 Z"/>
        <path style="stroke:black;fill:none" d="M129.90381,-375.00000 L155.88457,-390.00000 L155.88457,-420.00000 L129.90381,-435.00000 L103.92305,-420.00000 L103.92305,-390.00000 Z"/>
        <path style="stroke:black;fill:none" d="M77.94229,-375.00000 L103.92305,-390.00000 L103.92305,-420.00000 L77.94229,-435.00000 L51.96152,-420.00000 L51.96152,-390.00000 Z"/>
        <path style="stroke:black;fill:none" d="M25.98076,-375.00000 L51.96152,-390.00000 L51.96152,-420.00000 L25.98076,-435.00000 L0.00000,-420.00000 L0.00000,-390.00000 Z"/>
        <path style="stroke:black;fill:none" d="M-25.98076,-375.00000 L0.00000,-390.00000 L0.00000,-420.00000 L-25.98076,-435.00000 L-51.96152,-420.00000 L-51.96152,-390.00000 Z"/>
        <path style="stroke:black;fill:none" d="M-77.94229,-375.00000 L-51.96152,-390.00000 L-51.96152,-420.00000 L-77.94229,-435.00000 L-103.92305,-420.00000 L-103.92305,-390.00000 Z"/>
        <path style="stroke:black;fill:none" d="M-129.90381,-375.00000 L-103.92305,-390.00000 L-103.92305,-420.00000 L-129.90381,-435.00000 L-155.88457,-420.00000 L-155.88457,-390.00000 Z"/>
        <path style="stroke:black;fill:none" d="M-181.86533,-375.00000 L-155.88457,-390.00000 L-155.88457,-420.00000 L-181.86533,-435.00000 L-207.84610,-420.00000 L-207.84610,-390.00000 Z"/>
        <path style="stroke:black;fill:none" d="M-233.82686,-375.00000 L-207.84610,-390.00000 L-207.84610,-420.00000 L-233.82686,-435.00000 L-259.80762,-420.00000 L-259.80762,-390.00000 Z"/>
        <path style="stroke:black;fill:none" d="M-259.80762,-330.00000 L-233.82686,-345.00000 L-233.82686,-375.00000 L-259.80762,-390.00000 L-285.78838,-375.00000 L-285.78838,-345.00000 Z"/>
        <path style="stroke:black;fill:none" d="M-285.78838,-285.00000 L-259.80762,-300.00000 L-259.80762,-330.00000 L-285.78838,-345.00000 L-311.76915,-330.00000 L-311.76915,-300.00000 Z"/>
        <path style="stroke:black;fill:none" d="M-311.76915,-240.00000 L-285.78838,-255.00000 L-285.78838,-285.00000 L-311.76915,-300.00000 L-337.74991,-285.00000 L-337.74991,-255.00000 Z"/>
        <path style="stroke:black;fill:none" d="M-337.74991,-195.00000 L-311.76915,-210.00000 L-311.76915,-240.00000 L-337.74991,-255.00000 L-363.73067,-240.00000 L-363.73067,-210.00000 Z"/>
        <path style="stroke:black;fill:none" d="M-363.73067,-150.00000 L-337.74991,-165.00000 L-337.74991,-195.00000 L-363.73067,-210.00000 L-389.71143,-195.00000 L-389.71143,-165.00000 Z"/>
        <path style="stroke:black;fill:none" d="M-389.71143,-105.00000 L-363.73067,-120.00000 L-363.73067,-150.00000 L-389.71143,-165.00000 L-415.69219,-150.00000 L-415.69219,-120.00000 Z"/>
        <path style="stroke:black;fill:none" d="M-415.69219,-60.00000 L-389.71143,-75.00000 L-389.71143,-105.00000 L-415.69219,-120.00000 L-441.67296,-105.00000 L-441.67296,-75.00000 Z"/>
        <path style="stroke:black;fill:none" d="M-441.67296,-15.00000 L-415.69219,-30.00000 L-415.69219,-60.00000 L-441.67296,-75.00000 L-467.65372,-60.00000 L-467.65372,-30.00000 Z"/>
        <path style="stroke:black;fill:none" d="M-467.65372,30.00000 L-441.67296,15.00000 L-441.67296,-15.00000 L-467.65372,-30.00000 L-493.63448,-15.00000 L-493.63448,15.00000 Z"/>
        <path style="stroke:black;fill:none" d="M-441.67296,75.00000 L-415.69219,60.00000 L-415.69219,30.00000 L-441.67296,15.00000 L-467.65372,30.00000 L-467.65372,60.00000 Z"/>
        <path style="stroke:black;fill:none" d="M-415.69219,120.00000 L-389.71143,105.00000 L-389.71143,75.00000 L-415.69219,60.00000 L-441.67296,75.00000 L-441.67296,105.00000 Z"/>
        <path style="stroke:black;fill:none" d="M-389.71143,165.00000 L-363.73067,150.00000 L-363.73067,120.00000 L-389.71143,105.00000 L-415.69219,120.00000 L-415.69219,150.00000 Z"/>
        <path style="stroke:black;fill:none" d="M-363.73067,210.00000 L-337.74991,195.00000 L-337.74991,165.00000 L-363.73067,150.00000 L-389.71143,165.00000 L-389.71143,195.00000 Z"/>
        <path style="stroke:black;fill:none" d="M-337.74991,255.00000 L-311.76915,240.00000 L-311.76915,210.00000 L-337.74991,195.00000 L-363.73067,210.00000 L-363.73067,240.00000 Z"/>
        <path style="stroke:black;fill:none" d="M-311.76915,300.00000 L-285.78838,285.00000 L-285.78838,255.00000 L-311.76915,240.00000 L-337.74991,255.00000 L-337.74991,285.00000 Z"/>
        <path style="stroke:black;fill:none" d="M-285.78838,345.00000 L-259.80762,330.00000 L-259.80762,300.00000 L-285.78838,285.00000 L-311.76915,300.00000 L-311.76915,330.00000 Z"/>
        <path style="stroke:black;fill:none" d="M-259.80762,390.00000 L-233.82686,375.00000 L-233.82686,345.00000 L-259.80762,330.00000 L-285.78838,345.00000 L-285.78838,375.00000 Z"/>
        <path style="stroke:black;fill:none" d="M-233.82686,435.00000 L-207.84610,420.00000 L-207.84610,390.00000 L-233.82686,375.00000 L-259.80762,390.00000 L-259.80762,420.00000 Z"/>
        <path style="stroke:black;fill:none" d="M-181.86533,435.00000 L-155.88457,420.00000 L-155.88457,390.00000 L-181.86533,375.00000 L-207.84610,390.00000 L-207.84610,420.00000 Z"/>
        <path style="stroke:black;fill:none" d="M-129.90381,435.00000 L-103.92305,420.00000 L-103.92305,390.00000 L-129.90381,375.00000 L-155.88457,390.00000 L-155.88457,420.00000 Z"/>
        <path style="stroke:black;fill:none" d="M-77.94229,435.00000 L-51.96152,420.00000 L-51.96152,390.00000 L-77.94229,375.00000 L-103.92305,390.00000 L-103.92305,420.00000 Z"/>
        <path style="stroke:black;fill:none" d="M-25.98076,435.00000 L0.00000,420.00000 L0.00000,390.00000 L-25.98076,375.00000 L-51.96152,390.00000 L-51.96152,420.00000 Z"/>
        <path style="stroke:black;fill:none" d="M25.98076,435.00000 L51.96152,420.00000 L51.96152,390.00000 L25.98076,375.00000 L0.00000,390.00000 L0.00000,420.00000 Z"/>
        <path style="stroke:black;fill:none" d="M77.94229,435.00000 L103.92305,420.00000 L103.92305,390.00000 L77.94229,375.00000 L51.96152,390.00000 L51.96152,420.00000 Z"/>
        <path style="stroke:black;fill:none" d="M129.90381,435.00000 L155.88457,420.00000 L155.88457,390.00000 L129.90381,375.00000 L103.92305,390.00000 L103.92305,420.00000 Z"/>
        <path style="stroke:black;fill:none" d="M181.86533,435.00000 L207.84610,420.00000 L207.84610,390.00000 L181.86533,375.00000 L155.88457,390.00000 L155.88457,420.00000 Z"/>
      </g>
      <g id="level10">
        <path style="stroke:black;fill:none" d="M259.80762,480.00000 L285.78838,465.00000 L285.78838,435.00000 L259.80762,420.00000 L233.82686,435.00000 L233.82686,465.00000 Z"/>
        <path style="stroke:black;fill:none" d="M285.78838,435.00000 L311.76915,420.00000 L311.76915,390.00000 L285.78838,375.00000 L259.80762,390.00000 L259.80762,420.00000 Z"/>
        <path style="stroke:black;fill:none" d="M311.76915,390.00000 L337.74991,375.00000 L337.74991,345.00000 L311.76915,330.00000 L285.78838,345.00000 L285.78838,375.00000 Z"/>
        <path style="stroke:black;fill:none" d="M337.74991,345.00000 L363.73067,330.00000 L363.73067,300.00000 L337.74991,285.00000 L311.76915,300.00000 L311.76915,330.00000 Z"/>
        <path style="stroke:black;fill:none" d="M363.73067,300.00000 L389.71143,285.00000 L389.71143,255.00000 L363.73067,240.00000 L337.74991,255.00000 L337.74991,285.00000 Z"/>
        <path style="stroke:black;fill:none" d="M389.71143,255.00000 L415.69219,240.00000 L415.69219,210.00000 L389.71143,195.00000 L363.73067,210.00000 L363.73067,240.00000 Z"/>
        <path style="stroke:black;fill:none" d="M415.69219,210.00000 L441.67296,195.00000 L441.67296,165.00000 L415.69219,150.00000 L389.71143,165.00000 L389.71143,195.00000 Z"/>
        <path style="stroke:black;fill:none" d="M441.67296,165.00000 L467.65372,150.00000 L467.65372,120.00000 L441.67296,105.00000 L415.69219,120.00000 L415.69219,150.00000 Z"/>
        <path style="stroke:black;fill:none" d="M467.65372,120.00000 L493.63448,105.00000 L493.63448,75.00000 L467.65372,60.00000 L441.67296,75.00000 L441.67296,105.00000 Z"/>
        <path style="stroke:black;fill:none" d="M493.63448,75.00000 L519.61524,60.00000 L519.61524,30.00000 L493.63448,15.00000 L467.65372,30.00000 L467.65372,60.00000 Z"/>
        <path style="stroke:black;fill:none" d="M519.61524,30.00000 L545.59600,15.00000 L545.59600,-15.00000 L519.61524,-30.00000 L493.63448,-15.00000 L493.63448,15.00000 Z"/>
        <path style="stroke:black;fill:none" d="M493.63448,-15.00000 L519.61524,-30.00000 L519.61524,-60.00000 L493.63448,-75.00000 L467.65372,-60.00000 L467.65372,-30.00000 Z"/>
        <path style="stroke:black;fill:none" d="M467.65372,-60.00000 L493.63448,-75.00000 L493.63448,-105.00000 L467.65372,-120.00000 L441.67296,-105.00000 L441.67296,-75.00000 Z"/>
        <path style="stroke:black;fill:none" d="M441.67296,-105.00000 L467.65372,-120.00000 L467.65372,-150.00000 L441.67296,-165.00000 L415.69219,-150.00000 L415.69219,-120.00000 Z"/>
        <path style="stroke:black;fill:none" d="M415.69219,-150.00000 L441.67296,-165.00000 L441.67296,-195.00000 L415.69219,-210.00000 L389.71143,-195.00000 L389.71143,-165.00000 Z"/>
        <path style="stroke:black;fill:none" d="M389.71143,-195.00000 L415.69219,-210.00000 L415.69219,-240.00000 L389.71143,-255.00000 L363.73067,-240.00000 L363.73067,-210.00000 Z"/>
        <path style="stroke:black;fill:none" d="M363.73067,-240.00000 L389.71143,-255.00000 L389.71143,-285.00000 L363.73067,-300.00000 L337.74991,-285.00000 L337.74991,-255.00000 Z"/>
        <path style="stroke:black;fill:none" d="M337.74991,-285.00000 L363.73067,-300.00000 L363.73067,-330.00000 L337.74991,-345.00000 L311.76915,-330.00000 L311.76915,-300.00000 Z"/>
        <path style="stroke:black;fill:none" d="M311.76915,-330.00000 L337.74991,-345.00000 L337.74991,-375.00000 L311.76915,-390.00000 L285.78838,-375.00000 L285.78838,-345.00000 Z"/>
        <path style="stroke:black;fill:none" d="M285.78838,-375.00000 L311.76915,-390.00000 L311.76915,-420.00000 L285.78838,-435.00000 L259.80762,-420.00000 L259.80762,-390.00000 Z"/>
        <path style="stroke:black;fill:none" d="M259.80762,-420.00000 L285.78838,-435.00000 L285.78838,-465.00000 L259.80762,-480.00000 L233.82686,-465.00000 L233.82686,-435.00000 Z"/>
        <path style="stroke:black;fill:none" d="M207.84610,-420.00000 L233.82686,-435.00000 L233.82686,-465.00000 L207.84610,-480.00000 L181.86533,-465.00000 L181.86533,-435.00000 Z"/>
        <path style="stroke:black;fill:none" d="M155.88457,-420.00000 L181.86533,-435.00000 L181.86533,-465.00000 L155.88457,-480.00000 L129.90381,-465.00000 L129.90381,-435.00000 Z"/>
        <path style="stroke:black;fill:none" d="M103.92305,-420.00000 L129.90381,-435.00000 L129.90381,-465.00000 L103.92305,-480.00000 L77.94229,-465.00000 L77.94229,-435.00000 Z"/>
        <path style="stroke:black;fill:none" d="M51.96152,-420.00000 L77.94229,-435.00000 L77.94229,-465.00000 L51.96152,-480.00000 L25.98076,-465.00000 L25.98076,-435.00000 Z"/>
        <path style="stroke:black;fill:none" d="M0.00000,-420.00000 L25.98076,-435.00000 L25.98076,-465.00000 L0.00000,-480.00000 L-25.98076,-465.00000 L-25.98076,-435.00000 Z"/>
        <path style="stroke:black;fill:none" d="M-51.96152,-420.00000 L-25.98076,-435.00000 L-25.98076,-465.00000 L-51.96152,-480.00000 L-77.94229,-465.00000 L-77.94229,-435.00000 Z"/>
        <path style="stroke:black;fill:none" d="M-103.92305,-420.00000 L-77.94229,-435.00000 L-77.94229,-465.00000 L-103.92305,-480.00000 L-129.90381,-465.00000 L-129.90381,-435.00000 Z"/>
        <path style="stroke:black;fill:none" d="M-155.88457,-420.00000 L-129.90381,-435.00000 L-129.90381,-465.00000 L-155.88457,-480.00000 L-181.86533,-465.00000 L-181.86533,-435.00000 Z"/>
        <path style="stroke:black;fill:none" d="M-207.84610,-420.00000 L-181.86533,-435.00000 L-181.86533,-465.00000 L-207.84610,-480.00000 L-233.82686,-465.00000 L-233.82686,-435.00000 Z"/>
        <path style="stroke:black;fill:none" d="M-259.80762,-420.00000 L-233.82686,-435.00000 L-233.82686,-465.00000 L-259.80762,-480.00000 L-285.78838,-465.00000 L-285.78838,-435.00000 Z"/>
        <path style="stroke:black;fill:none" d="M-285.78838,-375.00000 L-259.80762,-390.00000 L-259.80762,-420.00000 L-285.78838,-435.00000 L-311.76915,-420.00000 L-311.76915,-390.00000 Z"/>
        <path style="stroke:black;fill:none" d="M-311.76915,-330.00000 L-285.78838,-345.00000 L-285.78838,-375.00000 L-311.76915,-390.00000 L-337.74991,-375.00000 L-337.74991,-345.00000 Z"/>
        <path style="stroke:black;fill:none" d="M-337.74991,-285.00000 L-311.76915,-300.00000 L-311.76915,-330.00000 L-337.74991,-345.00000 L-363.73067,-330.00000 L-363.73067,-300.00000 Z"/>
        <path style="stroke:black;fill:none" d="M-363.73067,-240.00000 L-337.74991,-255.00000 L-337.74991,-285.00000 L-363.73067,-300.00000 L-389.71143,-285.00000 L-389.71143,-255.00000 Z"/>
        <path style="stroke:black;fill:none" d="M-389.71143,-195.00000 L-363.73067,-210.00000 L-363.73067,-240.00000 L-389.71143,-255.00000 L-415.69219,-240.00000 L-415.69219,-210.00000 Z"/>
        <path style="stroke:black;fill:none" d="M-415.69219,-150.00000 L-389.71143,-165.00000 L-389.71143,-195.00000 L-415.69219,-210.00000 L-441.67296,-195.00000 L-441.67296,-165.00000 Z"/>
        <path style="stroke:black;fill:none" d="M-441.67296,-105.00000 L-415.69219,-120.00000 L-415.69219,-150.00000 L-441.67296,-165.00000 L-467.65372,-150.00000 L-467.65372,-120.00000 Z"/>
        <path style="stroke:black;fill:none" d="M-467.65372,-60.00000 L-441.67296,-75.00000 L-441.67296,-105.00000 L-467.65372,-120.00000 L-493.63448,-105.00000 L-493.63448,-75.00000 Z"/>
        <path style="stroke:black;fill:none" d="M-493.63448,-15.00000 L-467.65372,-30.00000 L-467.65372,-60.00000 L-493.63448,-75.00000 L-519.61524,-60.00000 L-519.61524,-30.00000 Z"/>
        <path style="stroke:black;fill:none" d="M-519.61524,30.00000 L-493.63448,15.00000 L-493.63448,-15.00000 L-519.61524,-30.00000 L-545.59600,-15.00000 L-545.59600,15.00000 Z"/>
        <path style="stroke:black;fill:none" d="M-493.63448,75.00000 L-467.65372,60.00000 L-467.65372,30.00000 L-493.63448,15.00000 L-519.61524,30.00000 L-519.61524,60.00000 Z"/>
        <path style="stroke:black;fill:none" d="M-467.65372,120.00000 L-441.67296,105.00000 L-441.67296,75.00000 L-467.65372,60.00000 L-493.63448,75.00000 L-493.63448,105.00000 Z"/>
        <path style="stroke:black;fill:none" d="M-441.67296,165.00000 L-415.69219,150.00000 L-415.69219,120.00000 L-441.67296,105.00000 L-467.65372,120.00000 L-467.65372,150.00000 Z"/>
        <path style="stroke:black;fill:none" d="M-415.69219,210.00000 L-389.71143,195.00000 L-389.71143,165.00000 L-415.69219,150.00000 L-441.67296,165.00000 L-441.67296,195.00000 Z"/>
        <path style="stroke:black;fill:none" d="M-389.71143,255.00000 L-363.73067,240.00000 L-363.73067,210.00000 L-389.71143,195.00000 L-415.69219,210.00000 L-415.69219,240.00000 Z"/>
        <path style="stroke:black;fill:none" d="M-363.73067,300.00000 L-337.74991,285.00000 L-337.74991,255.00000 L-363.73067,240.00000 L-389.71143,255.00000 L-389.71143,285.00000 Z"/>
        <path style="stroke:black;fill:none" d="M-337.74991,345.00000 L-311.76915,330.00000 L-311.76915,300.00000 L-337.74991,285.00000 L-363.73067,300.00000 L-363.73067,330.00000 Z"/>
        <path style="stroke:black;fill:none" d="M-311.76915,390.00000 L-285.78838,375.00000 L-285.78838,345.00000 L-311.76915,330.00000 L-337.74991,345.00000 L-337.74991,375.00000 Z"/>
        <path style="stroke:black;fill:none" d="M-285.78838,435.00000 L-259.80762,420.00000 L-259.80762,390.00000 L-285.78838,375.00000 L-311.76915,390.00000 L-311.76915,420.00000 Z"/>
        <path style="stroke:black;fill:none" d="M-259.80762,480.00000 L-233.82686,465.00000 L-233.82686,435.00000 L-259.80762,420.00000 L-285.78838,435.00000 L-285.78838,465.00000 Z"/>
        <path style="stroke:black;fill:none" d="M-207.84610,480.00000 L-181.86533,465.00000 L-181.86533,435.00000 L-207.84610,420.00000 L-233.82686,435.00000 L-233.82686,465.00000 Z"/>
        <path style="stroke:black;fill:none" d="M-155.88457,480.00000 L-129.90381,465.00000 L-129.90381,435.00000 L-155.88457,420.00000 L-181.86533,435.00000 L-181.86533,465.00000 Z"/>
        <path style="stroke:black;fill:none" d="M-103.92305,480.00000 L-77.94229,465.00000 L-77.94229,435.00000 L-103.92305,420.00000 L-129.90381,435.00000 L-129.90381,465.00000 Z"/>
        <path style="stroke:black;fill:none" d="M-51.96152,480.00000 L-25.98076,465.00000 L-25.98076,435.00000 L-51.96152,420.00000 L-77.94229,435.00000 L-77.94229,465.00000 Z"/>
        <path style="stroke:black;fill:none" d="M0.00000,480.00000 L25.98076,465.00000 L25.98076,435.00000 L0.00000,420.00000 L-25.98076,435.00000 L-25.98076,465.00000 Z"/>
        <path style="stroke:black;fill:none" d="M51.96152,480.00000 L77.94229,465.00000 L77.94229,435.00000 L51.96152,420.00000 L25.98076,435.00000 L25.98076,465.00000 Z"/>
        <path style="stroke:black;fill:none" d="M103.92305,480.00000 L129.90381,465.00000 L129.90381,435.00000 L103.92305,420.00000 L77.94229,435.00000 L77.94229,465.00000 Z"/>
        <path style="stroke:black;fill:none" d="M155.88457,480.00000 L181.86533,465.00000 L181.86533,435.00000 L155.88457,420.00000 L129.90381,435.00000 L129.90381,465.00000 Z"/>
        <path style="stroke:black;fill:none" d="M207.84610,480.00000 L233.82686,465.00000 L233.82686,435.00000 L207.84610,420.00000 L181.86533,435.00000 L181.86533,465.00000 Z"/>
      </g>
      <g id="level11">
        <path style="stroke:black;fill:none" d="M285.78838,525.00000 L311.76915,510.00000 L311.76915,480.00000 L285.78838,465.00000 L259.80762,480.00000 L259.80762,510.00000 Z"/>
        <path style="stroke:black;fill:none" d="M311.76915,480.00000 L337.74991,465.00000 L337.74991,435.00000 L311.76915,420.00000 L285.78838,435.00000 L285.78838,465.00000 Z"/>
        <path style="stroke:black;fill:none" d="M337.74991,435.00000 L363.73067,420.00000 L363.73067,390.00000 L337.74991,375.00000 L311.76915,390.00000 L311.76915,420.00000 Z"/>
        <path style="stroke:black;fill:none" d="M363.73067,390.00000 L389.71143,375.00000 L389.71143,345.00000 L363.73067,330.00000 L337.74991,345.00000 L337.74991,375.00000 Z"/>
        <path style="stroke:black;fill:none" d="M389.71143,345.00000 L415.69219,330.00000 L415.69219,300.00000 L389.71143,285.00000 L363.73067,300.00000 L363.73067,330.00000 Z"/>
        <path style="stroke:black;fill:none" d="M415.69219,300.00000 L441.67296,285.00000 L441.67296,255.00000 L415.69219,240.00000 L389.71143,255.00000 L389.71143,285.00000 Z"/>
        <path style="stroke:black;fill:none" d="M441.67296,255.00000 L467.65372,240.00000 L467.65372,210.00000 L441.67296,195.00000 L415.69219,210.00000 L415.69219,240.00000 Z"/>
        <path style="stroke:black;fill:none" d="M467.65372,210.00000 L493.63448,195.00000 L493.63448,165.00000 L467.65372,150.00000 L441.67296,165.00000 L441.67296,195.00000 Z"/>
        <path style="stroke:black;fill:none" d="M493.63448,165.00000 L519.61524,150.00000 L519.61524,120.00000 L493.63448,105.00000 L467.65372,120.00000 L467.65372,150.00000 Z"/>
        <path style="stroke:black;fill:none" d="M519.61524,120.00000 L545.59600,105.00000 L545.59600,75.00000 L519.61524,60.00000 L493.63448,75.00000 L493.63448,105.00000 Z"/>
        <path style="stroke:black;fill:none" d="M545.59600,75.00000 L571.57677,60.00000 L571.57677,30.00000 L545.59600,15.00000 L519.61524,30.00000 L519.61524,60.00000 Z"/>
        <path style="stroke:black;fill:none" d="M571.57677,30.00000 L597.55753,15.00000 L597.55753,-15.00000 L571.57677,-30.00000 L545.59600,-15.00000 L545.59600,15.00000 Z"/>
        <path style="stroke:black;fill:none" d="M545.59600,-15.00000 L571.57677,-30.00000 L571.57677,-60.00000 L545.59600,-75.00000 L519.61524,-60.00000 L519.61524,-30.00000 Z"/>
        <path style="stroke:black;fill:none" d="M519.61524,-60.00000 L545.59600,-75.00000 L545.59600,-105.00000 L519.61524,-120.00000 L493.63448,-105.00000 L493.63448,-75.00000 Z"/>
        <path style="stroke:black;fill:none" d="M493.63448,-105.00000 L519.61524,-120.00000 L519.61524,-150.00000 L493.63448,-165.00000 L467.65372,-150.00000 L467.65372,-120.00000 Z"/>
        <path style="stroke:black;fill:none" d="M467.65372,-150.00000 L493.63448,-165.00000 L493.63448,-195.00000 L467.65372,-210.00000 L441.67296,-195.00000 L441.67296,-165.00000 Z"/>
        <path style="stroke:black;fill:none" d="M441.67296,-195.00000 L467.65372,-210.00000 L467.65372,-240.00000 L441.67296,-255.00000 L415.69219,-240.00000 L415.69219,-210.00000 Z"/>
        <path style="stroke:black;fill:none" d="M415.69219,-240.00000 L441.67296,-255.00000 L441.67296,-285.00000 L415.69219,-300.00000 L389.71143,-285.00000 L389.71143,-255.00000 Z"/>
        <path style="stroke:black;fill:none" d="M389.71143,-285.00000 L415.69219,-300.00000 L415.69219,-330.00000 L389.71143,-345.00000 L363.73067,-330.00000 L363.73067,-300.00000 Z"/>
        <path style="stroke:black;fill:none" d="M363.73067,-330.00000 L389.71143,-345.00000 L389.71143,-375.00000 L363.73067,-390.00000 L337.74991,-375.00000 L337.74991,-345.00000 Z"/>
        <path style="stroke:black;fill:none" d="M337.74991,-375.00000 L363.73067,-390.00000 L363.73067,-420.00000 L337.74991,-435.00000 L311.76915,-420.00000 L311.76915,-390.00000 Z"/>
        <path style="stroke:black;fill:none" d="M311.76915,-420.00000 L337.74991,-435.00000 L337.74991,-465.00000 L311.76915,-480.00000 L285.78838,-465.00000 L285.78838,-435.00000 Z"/>
        <path style="stroke:black;fill:none" d="M285.78838,-465.00000 L311.76915,-480.00000 L311.76915,-510.00000 L285.78838,-525.00000 L259.80762,-510.00000 L259.80762,-480.00000 Z"/>
        <path style="stroke:black;fill:none" d="M233.82686,-465.00000 L259.80762,-480.00000 L259.80762,-510.00000 L233.82686,-525.00000 L207.84610,-510.00000 L207.84610,-480.00000 Z"/>
        <path style="stroke:black;fill:none" d="M181.86533,-465.00000 L207.84610,-480.00000 L207.84610,-510.00000 L181.86533,-525.00000 L155.88457,-510.00000 L155.88457,-480.00000 Z"/>
        <path style="stroke:black;fill:none" d="M129.90381,-465.00000 L155.88457,-480.00000 L155.88457,-510.00000 L129.90381,-525.00000 L103.92305,-510.00000 L103.92305,-480.00000 Z"/>
        <path style="stroke:black;fill:none" d="M77.94229,-465.00000 L103.92305,-480.00000 L103.92305,-510.00000 L77.94229,-525.00000 L51.96152,-510.00000 L51.96152,-480.00000 Z"/>
        <path style="stroke:black;fill:none" d="M25.98076,-465.00000 L51.96152,-480.00000 L51.96152,-510.00000 L25.98076,-525.00000 L0.00000,-510.00000 L0.00000,-480.00000 Z"/>
        <path style="stroke:black;fill:none" d="M-25.98076,-465.00000 L0.00000,-480.00000 L0.00000,-510.00000 L-25.98076,-525.00000 L-51.96152,-510.00000 L-51.96152,-480.00000 Z"/>
        <path style="stroke:black;fill:none" d="M-77.94229,-465.00000 L-51.96152,-480.00000 L-51.96152,-510.00000 L-77.94229,-525.00000 L-103.92305,-510.00000 L-103.92305,-480.00000 Z"/>
        <path style="stroke:black;fill:none" d="M-129.90381,-465.00000 L-103.92305,-480.00000 L-103.92305,-510.00000 L-129.90381,-525.00000 L-155.88457,-510.00000 L-155.88457,-480.00000 Z"/>
        <path style="stroke:black;fill:none" d="M-181.86533,-465.00000 L-155.88457,-480.00000 L-155.88457,-510.00000 L-181.86533,-525.00000 L-207.84610,-510.00000 L-207.84610,-480.00000 Z"/>
        <path style="stroke:black;fill:none" d="M-233.82686,-465.00000 L-207.84610,-480.00000 L-207.84610,-510.00000 L-233.82686,-525.00000 L-259.80762,-510.00000 L-259.80762,-480.00000 Z"/>
        <path style="stroke:black;fill:none" d="M-285.78838,-465.00000 L-259.80762,-480.00000 L-259.80762,-510.00000 L-285.78838,-525.00000 L-311.76915,-510.00000 L-311.76915,-480.00000 Z"/>
        <path style="stroke:black;fill:none" d="M-311.76915,-420.00000 L-285.78838,-435.00000 L-285.78838,-465.00000 L-311.76915,-480.00000 L-337.74991,-465.00000 L-337.74991,-435.00000 Z"/>
        <path style="stroke:black;fill:none" d="M-337.74991,-375.00000 L-311.76915,-390.00000 L-311.76915,-420.00000 L-337.74991,-435.00000 L-363.73067,-420.00000 L-363.73067,-390.00000 Z"/>
        <path style="stroke:black;fill:none" d="M-363.73067,-330.00000 L-337.74991,-345.00000 L-337.74991,-375.00000 L-363.73067,-390.00000 L-389.71143,-375.00000 L-389.71143,-345.00000 Z"/>
        <path style="stroke:black;fill:none" d="M-389.71143,-285.00000 L-363.73067,-300.00000 L-363.73067,-330.00000 L-389.71143,-345.00000 L-415.69219,-330.00000 L-415.69219,-300.00000 Z"/>
        <path style="stroke:black;fill:none" d="M-415.69219,-240.00000 L-389.71143,-255.00000 L-389.71143,-285.00000 L-415.69219,-300.00000 L-441.67296,-285.00000 L-441.67296,-255.00000 Z"/>
        <path style="stroke:black;fill:none" d="M-441.67296,-195.00000 L-415.69219,-210.00000 L-415.69219,-240.00000 L-441.67296,-255.00000 L-467.65372,-240.00000 L-467.65372,-210.00000 Z"/>
        <path style="stroke:black;fill:none" d="M-467.65372,-150.00000 L-441.67296,-165.00000 L-441.67296,-195.00000 L-467.65372,-210.00000 L-493.63448,-195.00000 L-493.63448,-165.00000 Z"/>
        <path style="stroke:black;fill:none" d="M-493.63448,-105.00000 L-467.65372,-120.00000 L-467.65372,-150.00000 L-493.63448,-165.00000 L-519.61524,-150.00000 L-519.61524,-120.00000 Z"/>
        <path style="stroke:black;fill:none" d="M-519.61524,-60.00000 L-493.63448,-75.00000 L-493.63448,-105.00000 L-519.61524,-120.00000 L-545.59600,-105.00000 L-545.59600,-75.00000 Z"/>
        <path style="stroke:black;fill:none" d="M-545.59600,-15.00000 L-519.61524,-30.00000 L-519.61524,-60.00000 L-545.59600,-75.00000 L-571.57677,-60.00000 L-571.57677,-30.00000 Z"/>
        <path style="stroke:black;fill:none" d="M-571.57677,30.00000 L-545.59600,15.00000 L-545.59600,-15.00000 L-571.57677,-30.00000 L-597.55753,-15.00000 L-597.55753,15.00000 Z"/>
        <path style="stroke:black;fill:none" d="M-545.59600,75.00000 L-519.61524,60.00000 L-519.61524,30.00000 L-545.59600,15.00000 L-571.57677,30.00000 L-571.57677,60.00000 Z"/>
        <path style="stroke:black;fill:none" d="M-519.61524,120.00000 L-493.63448,105.00000 L-493.63448,75.00000 L-519.61524,60.00000 L-545.59600,75.00000 L-545.59600,105.00000 Z"/>
        <path style="stroke:black;fill:none" d="M-493.63448,165.00000 L-467.65372,150.00000 L-467.65372,120.00000 L-493.63448,105.00000 L-519.61524,120.00000 L-519.61524,150.00000 Z"/>
        <path style="stroke:black;fill:none" d="M-467.65372,210.00000 L-441.67296,195.00000 L-441.67296,165.00000 L-467.65372,150.00000 L-493.63448,165.00000 L-493.63448,195.00000 Z"/>
        <path style="stroke:black;fill:none" d="M-441.67296,255.00000 L-415.69219,240.00000 L-415.69219,210.00000 L-441.67296,195.00000 L-467.65372,210.00000 L-467.65372,240.00000 Z"/>
        <path style="stroke:black;fill:none" d="M-415.69219,300.00000 L-389.71143,285.00000 L-389.71143,255.00000 L-415.69219,240.00000 L-441.67296,255.00000 L-441.67296,285.00000 Z"/>
        <path style="stroke:black;fill:none" d="M-389.71143,345.00000 L-363.73067,330.00000 L-363.73067,300.00000 L-389.71143,285.00000 L-415.69219,300.00000 L-415.69219,330.00000 Z"/>
        <path style="stroke:black;fill:none" d="M-363.73067,390.00000 L-337.74991,375.00000 L-337.74991,345.00000 L-363.73067,330.00000 L-389.71143,345.00000 L-389.71143,375.00000 Z"/>
        <path style="stroke:black;fill:none" d="M-337.74991,435.00000 L-311.76915,420.00000 L-311.76915,390.00000 L-337.74991,375.00000 L-363.73067,390.00000 L-363.73067,420.00000 Z"/>
        <path style="stroke:black;fill:none" d="M-311.76915,480.00000 L-285.78838,465.00000 L-285.78838,435.00000 L-311.76915,420.00000 L-337.74991,435.00000 L-337.74991,465.00000 Z"/>
        <path style="stroke:black;fill:none" d="M-285.78838,525.00000 L-259.80762,510.00000 L-259.80762,480.00000 L-285.78838,465.00000 L-311.76915,480.00000 L-311.76915,510.00000 Z"/>
        <path style="stroke:black;fill:none" d="M-233.82686,525.00000 L-207.84610,510.00000 L-207.84610,480.00000 L-233.82686,465.00000 L-259.80762,480.00000 L-259.80762,510.00000 Z"/>
        <path style="stroke:black;fill:none" d="M-181.86533,525.00000 L-155.88457,510.00000 L-155.88457,480.00000 L-181.86533,465.00000 L-207.84610,480.00000 L-207.84610,510.00000 Z"/>
        <path style="stroke:black;fill:none" d="M-129.90381,525.00000 L-103.92305,510.00000 L-103.92305,480.00000 L-129.90381,465.00000 L-155.88457,480.00000 L-155.88457,510.00000 Z"/>
        <path style="stroke:black;fill:none" d="M-77.94229,525.00000 L-51.96152,510.00000 L-51.96152,480.00000 L-77.94229,465.00000 L-103.92305,480.00000 L-103.92305,510.00000 Z"/>
        <path style="stroke:black;fill:none" d="M-25.98076,525.00000 L0.00000,510.00000 L0.00000,480.00000 L-25.98076,465.00000 L-51.96152,480.00000 L-51.96152,510.00000 Z"/>
        <path style="stroke:black;fill:none" d="M25.98076,525.00000 L51.96152,510.00000 L51.96152,480.00000 L25.98076,465.00000 L0.00000,480.00000 L0.00000,510.00000 Z"/>
        <path style="stroke:black;fill:none" d="M77.94229,525.00000 L103.92305,510.00000 L103.92305,480.00000 L77.94229,465.00000 L51.96152,480.00000 L51.96152,510.00000 Z"/>
        <path style="stroke:black;fill:none" d="M129.90381,525.00000 L155.88457,510.00000 L155.88457,480.00000 L129.90381,465.00000 L103.92305,480.00000 L103.92305,510.00000 Z"/>
        <path style="stroke:black;fill:none" d="M181.86533,525.00000 L207.84610,510.00000 L207.84610,480.00000 L181.86533,465.00000 L155.88457,480.00000 L155.88457,510.00000 Z"/>
        <path style="stroke:black;fill:none" d="M233.82686,525.00000 L259.80762,510.00000 L259.80762,480.00000 L233.82686,465.00000 L207.84610,480.00000 L207.84610,510.00000 Z"/>
      </g>
    </g>
  </g>
</svg>
