<svg xmlns:ns0="http://www.w3.org/2000/svg" xlink="http://www.w3.org/1999/xlink" xmlns="http://www.w3.org/2000/svg" ns0:svg="http://www.w3.org/2000/svg" width="1280" height="1280">
  <defs/>
  <g id="canvas" transform="matrix(1,0,0,-1,0,1280) translate(640,640)">
    <g id="cardiod">
      <circle style="fill:none;stroke:black;stroke-width:1;" cx="0.00000" r="0.00000" cy="200.00000" fill="none"/>
      <circle style="fill:none;stroke:black;stroke-width:1;" cx="7.43401" r="7.43529" cy="199.86179" fill="none"/>
      <circle style="fill:none;stroke:black;stroke-width:1;" cx="14.85774" r="14.86802" cy="199.44736" fill="none"/>
      <circle style="fill:none;stroke:black;stroke-width:1;" cx="22.26094" r="22.29561" cy="198.75726" fill="none"/>
      <circle style="fill:none;stroke:black;stroke-width:1;" cx="29.63338" r="29.71549" cy="197.79247" fill="none"/>
      <circle style="fill:none;stroke:black;stroke-width:1;" cx="36.96486" r="37.12510" cy="196.55432" fill="none"/>
      <circle style="fill:none;stroke:black;stroke-width:1;" cx="44.24524" r="44.52189" cy="195.04450" fill="none"/>
      <circle style="fill:none;stroke:black;stroke-width:1;" cx="51.46448" r="51.90329" cy="193.26512" fill="none"/>
      <circle style="fill:none;stroke:black;stroke-width:1;" cx="58.61259" r="59.26676" cy="191.21863" fill="none"/>
      <circle style="fill:none;stroke:black;stroke-width:1;" cx="65.67969" r="66.60974" cy="188.90786" fill="none"/>
      <circle style="fill:none;stroke:black;stroke-width:1;" cx="72.65602" r="73.92971" cy="186.33599" fill="none"/>
      <circle style="fill:none;stroke:black;stroke-width:1;" cx="79.53193" r="81.22413" cy="183.50660" fill="none"/>
      <circle style="fill:none;stroke:black;stroke-width:1;" cx="86.29792" r="88.49049" cy="180.42358" fill="none"/>
      <circle style="fill:none;stroke:black;stroke-width:1;" cx="92.94463" r="95.72627" cy="177.09121" fill="none"/>
      <circle style="fill:none;stroke:black;stroke-width:1;" cx="99.46289" r="102.92896" cy="173.51407" fill="none"/>
      <circle style="fill:none;stroke:black;stroke-width:1;" cx="105.84369" r="110.09610" cy="169.69712" fill="none"/>
      <circle style="fill:none;stroke:black;stroke-width:1;" cx="112.07819" r="117.22518" cy="165.64564" fill="none"/>
      <circle style="fill:none;stroke:black;stroke-width:1;" cx="118.15780" r="124.31376" cy="161.36522" fill="none"/>
      <circle style="fill:none;stroke:black;stroke-width:1;" cx="124.07410" r="131.35939" cy="156.86178" fill="none"/>
      <circle style="fill:none;stroke:black;stroke-width:1;" cx="129.81892" r="138.35962" cy="152.14154" fill="none"/>
      <circle style="fill:none;stroke:black;stroke-width:1;" cx="135.38432" r="145.31204" cy="147.21103" fill="none"/>
      <circle style="fill:none;stroke:black;stroke-width:1;" cx="140.76260" r="152.21425" cy="142.07706" fill="none"/>
      <circle style="fill:none;stroke:black;stroke-width:1;" cx="145.94634" r="159.06386" cy="136.74672" fill="none"/>
      <circle style="fill:none;stroke:black;stroke-width:1;" cx="150.92836" r="165.85850" cy="131.22739" fill="none"/>
      <circle style="fill:none;stroke:black;stroke-width:1;" cx="155.70179" r="172.59583" cy="125.52670" fill="none"/>
      <circle style="fill:none;stroke:black;stroke-width:1;" cx="160.26003" r="179.27353" cy="119.65251" fill="none"/>
      <circle style="fill:none;stroke:black;stroke-width:1;" cx="164.59677" r="185.88927" cy="113.61295" fill="none"/>
      <circle style="fill:none;stroke:black;stroke-width:1;" cx="168.70603" r="192.44078" cy="107.41637" fill="none"/>
      <circle style="fill:none;stroke:black;stroke-width:1;" cx="172.58212" r="198.92579" cy="101.07133" fill="none"/>
      <circle style="fill:none;stroke:black;stroke-width:1;" cx="176.21968" r="205.34206" cy="94.58660" fill="none"/>
      <circle style="fill:none;stroke:black;stroke-width:1;" cx="179.61369" r="211.68737" cy="87.97114" fill="none"/>
      <circle style="fill:none;stroke:black;stroke-width:1;" cx="182.75946" r="217.95954" cy="81.23410" fill="none"/>
      <circle style="fill:none;stroke:black;stroke-width:1;" cx="185.65264" r="224.15639" cy="74.38478" fill="none"/>
      <circle style="fill:none;stroke:black;stroke-width:1;" cx="188.28923" r="230.27578" cy="67.43266" fill="none"/>
      <circle style="fill:none;stroke:black;stroke-width:1;" cx="190.66559" r="236.31560" cy="60.38734" fill="none"/>
      <circle style="fill:none;stroke:black;stroke-width:1;" cx="192.77844" r="242.27376" cy="53.25857" fill="none"/>
      <circle style="fill:none;stroke:black;stroke-width:1;" cx="194.62484" r="248.14820" cy="46.05618" fill="none"/>
      <circle style="fill:none;stroke:black;stroke-width:1;" cx="196.20226" r="253.93689" cy="38.79014" fill="none"/>
      <circle style="fill:none;stroke:black;stroke-width:1;" cx="197.50850" r="259.63784" cy="31.47048" fill="none"/>
      <circle style="fill:none;stroke:black;stroke-width:1;" cx="198.54177" r="265.24906" cy="24.10734" fill="none"/>
      <circle style="fill:none;stroke:black;stroke-width:1;" cx="199.30064" r="270.76863" cy="16.71087" fill="none"/>
      <circle style="fill:none;stroke:black;stroke-width:1;" cx="199.78406" r="276.19464" cy="9.29131" fill="none"/>
      <circle style="fill:none;stroke:black;stroke-width:1;" cx="199.99136" r="281.52520" cy="1.85890" fill="none"/>
      <circle style="fill:none;stroke:black;stroke-width:1;" cx="199.92225" r="286.75848" cy="-5.57607" fill="none"/>
      <circle style="fill:none;stroke:black;stroke-width:1;" cx="199.57684" r="291.89268" cy="-13.00334" fill="none"/>
      <circle style="fill:none;stroke:black;stroke-width:1;" cx="198.95558" r="296.92600" cy="-20.41263" fill="none"/>
      <circle style="fill:none;stroke:black;stroke-width:1;" cx="198.05936" r="301.85673" cy="-27.79371" fill="none"/>
      <circle style="fill:none;stroke:black;stroke-width:1;" cx="196.88940" r="306.68315" cy="-35.13638" fill="none"/>
      <circle style="fill:none;stroke:black;stroke-width:1;" cx="195.44732" r="311.40359" cy="-42.43049" fill="none"/>
      <circle style="fill:none;stroke:black;stroke-width:1;" cx="193.73511" r="316.01643" cy="-49.66595" fill="none"/>
      <circle style="fill:none;stroke:black;stroke-width:1;" cx="191.75515" r="320.52006" cy="-56.83277" fill="none"/>
      <circle style="fill:none;stroke:black;stroke-width:1;" cx="189.51016" r="324.91294" cy="-63.92105" fill="none"/>
      <circle style="fill:none;stroke:black;stroke-width:1;" cx="187.00325" r="329.19355" cy="-70.92098" fill="none"/>
      <circle style="fill:none;stroke:black;stroke-width:1;" cx="184.23788" r="333.36040" cy="-77.82289" fill="none"/>
      <circle style="fill:none;stroke:black;stroke-width:1;" cx="181.21789" r="337.41206" cy="-84.61724" fill="none"/>
      <circle style="fill:none;stroke:black;stroke-width:1;" cx="177.94743" r="341.34712" cy="-91.29464" fill="none"/>
      <circle style="fill:none;stroke:black;stroke-width:1;" cx="174.43104" r="345.16423" cy="-97.84587" fill="none"/>
      <circle style="fill:none;stroke:black;stroke-width:1;" cx="170.67356" r="348.86207" cy="-104.26186" fill="none"/>
      <circle style="fill:none;stroke:black;stroke-width:1;" cx="166.68020" r="352.43936" cy="-110.53376" fill="none"/>
      <circle style="fill:none;stroke:black;stroke-width:1;" cx="162.45647" r="355.89486" cy="-116.65288" fill="none"/>
      <circle style="fill:none;stroke:black;stroke-width:1;" cx="158.00821" r="359.22739" cy="-122.61079" fill="none"/>
      <circle style="fill:none;stroke:black;stroke-width:1;" cx="153.34157" r="362.43578" cy="-128.39923" fill="none"/>
      <circle style="fill:none;stroke:black;stroke-width:1;" cx="148.46300" r="365.51893" cy="-134.01021" fill="none"/>
      <circle style="fill:none;stroke:black;stroke-width:1;" cx="143.37924" r="368.47577" cy="-139.43598" fill="none"/>
      <circle style="fill:none;stroke:black;stroke-width:1;" cx="138.09732" r="371.30529" cy="-144.66904" fill="none"/>
      <circle style="fill:none;stroke:black;stroke-width:1;" cx="132.62453" r="374.00650" cy="-149.70215" fill="none"/>
      <circle style="fill:none;stroke:black;stroke-width:1;" cx="126.96845" r="376.57847" cy="-154.52836" fill="none"/>
      <circle style="fill:none;stroke:black;stroke-width:1;" cx="121.13688" r="379.02031" cy="-159.14100" fill="none"/>
      <circle style="fill:none;stroke:black;stroke-width:1;" cx="115.13789" r="381.33119" cy="-163.53369" fill="none"/>
      <circle style="fill:none;stroke:black;stroke-width:1;" cx="108.97977" r="383.51029" cy="-167.70036" fill="none"/>
      <circle style="fill:none;stroke:black;stroke-width:1;" cx="102.67103" r="385.55687" cy="-171.63525" fill="none"/>
      <circle style="fill:none;stroke:black;stroke-width:1;" cx="96.22039" r="387.47022" cy="-175.33293" fill="none"/>
      <circle style="fill:none;stroke:black;stroke-width:1;" cx="89.63676" r="389.24968" cy="-178.78828" fill="none"/>
      <circle style="fill:none;stroke:black;stroke-width:1;" cx="82.92925" r="390.89463" cy="-181.99654" fill="none"/>
      <circle style="fill:none;stroke:black;stroke-width:1;" cx="76.10712" r="392.40451" cy="-184.95325" fill="none"/>
      <circle style="fill:none;stroke:black;stroke-width:1;" cx="69.17981" r="393.77879" cy="-187.65435" fill="none"/>
      <circle style="fill:none;stroke:black;stroke-width:1;" cx="62.15688" r="395.01701" cy="-190.09609" fill="none"/>
      <circle style="fill:none;stroke:black;stroke-width:1;" cx="55.04805" r="396.11872" cy="-192.27510" fill="none"/>
      <circle style="fill:none;stroke:black;stroke-width:1;" cx="47.86313" r="397.08355" cy="-194.18836" fill="none"/>
      <circle style="fill:none;stroke:black;stroke-width:1;" cx="40.61207" r="397.91117" cy="-195.83325" fill="none"/>
      <circle style="fill:none;stroke:black;stroke-width:1;" cx="33.30487" r="398.60129" cy="-197.20747" fill="none"/>
      <circle style="fill:none;stroke:black;stroke-width:1;" cx="25.95165" r="399.15367" cy="-198.30913" fill="none"/>
      <circle style="fill:none;stroke:black;stroke-width:1;" cx="18.56255" r="399.56812" cy="-199.13672" fill="none"/>
      <circle style="fill:none;stroke:black;stroke-width:1;" cx="11.14780" r="399.84451" cy="-199.68907" fill="none"/>
      <circle style="fill:none;stroke:black;stroke-width:1;" cx="3.71765" r="399.98272" cy="-199.96544" fill="none"/>
      <circle style="fill:none;stroke:black;stroke-width:1;" cx="-3.71765" r="399.98272" cy="-199.96544" fill="none"/>
      <circle style="fill:none;stroke:black;stroke-width:1;" cx="-11.14780" r="399.84451" cy="-199.68907" fill="none"/>
      <circle style="fill:none;stroke:black;stroke-width:1;" cx="-18.56255" r="399.56812" cy="-199.13672" fill="none"/>
      <circle style="fill:none;stroke:black;stroke-width:1;" cx="-25.95165" r="399.15367" cy="-198.30913" fill="none"/>
      <circle style="fill:none;stroke:black;stroke-width:1;" cx="-33.30487" r="398.60129" cy="-197.20747" fill="none"/>
      <circle style="fill:none;stroke:black;stroke-width:1;" cx="-40.61207" r="397.91117" cy="-195.83325" fill="none"/>
      <circle style="fill:none;stroke:black;stroke-width:1;" cx="-47.86313" r="397.08355" cy="-194.18836" fill="none"/>
      <circle style="fill:none;stroke:black;stroke-width:1;" cx="-55.04805" r="396.11872" cy="-192.27510" fill="none"/>
      <circle style="fill:none;stroke:black;stroke-width:1;" cx="-62.15688" r="395.01701" cy="-190.09609" fill="none"/>
      <circle style="fill:none;stroke:black;stroke-width:1;" cx="-69.17981" r="393.77879" cy="-187.65435" fill="none"/>
      <circle style="fill:none;stroke:black;stroke-width:1;" cx="-76.10712" r="392.40451" cy="-184.95325" fill="none"/>
      <circle style="fill:none;stroke:black;stroke-width:1;" cx="-82.92925" r="390.89463" cy="-181.99654" fill="none"/>
      <circle style="fill:none;stroke:black;stroke-width:1;" cx="-89.63676" r="389.24968" cy="-178.78828" fill="none"/>
      <circle style="fill:none;stroke:black;stroke-width:1;" cx="-96.22039" r="387.47022" cy="-175.33293" fill="none"/>
      <circle style="fill:none;stroke:black;stroke-width:1;" cx="-102.67103" r="385.55687" cy="-171.63525" fill="none"/>
      <circle style="fill:none;stroke:black;stroke-width:1;" cx="-108.97977" r="383.51029" cy="-167.70036" fill="none"/>
      <circle style="fill:none;stroke:black;stroke-width:1;" cx="-115.13789" r="381.33119" cy="-163.53369" fill="none"/>
      <circle style="fill:none;stroke:black;stroke-width:1;" cx="-121.13688" r="379.02031" cy="-159.14100" fill="none"/>
      <circle style="fill:none;stroke:black;stroke-width:1;" cx="-126.96845" r="376.57847" cy="-154.52836" fill="none"/>
      <circle style="fill:none;stroke:black;stroke-width:1;" cx="-132.62453" r="374.00650" cy="-149.70215" fill="none"/>
      <circle style="fill:none;stroke:black;stroke-width:1;" cx="-138.09732" r="371.30529" cy="-144.66904" fill="none"/>
      <circle style="fill:none;stroke:black;stroke-width:1;" cx="-143.37924" r="368.47577" cy="-139.43598" fill="none"/>
      <circle style="fill:none;stroke:black;stroke-width:1;" cx="-148.46300" r="365.51893" cy="-134.01021" fill="none"/>
      <circle style="fill:none;stroke:black;stroke-width:1;" cx="-153.34157" r="362.43578" cy="-128.39923" fill="none"/>
      <circle style="fill:none;stroke:black;stroke-width:1;" cx="-158.00821" r="359.22739" cy="-122.61079" fill="none"/>
      <circle style="fill:none;stroke:black;stroke-width:1;" cx="-162.45647" r="355.89486" cy="-116.65288" fill="none"/>
      <circle style="fill:none;stroke:black;stroke-width:1;" cx="-166.68020" r="352.43936" cy="-110.53376" fill="none"/>
      <circle style="fill:none;stroke:black;stroke-width:1;" cx="-170.67356" r="348.86207" cy="-104.26186" fill="none"/>
      <circle style="fill:none;stroke:black;stroke-width:1;" cx="-174.43104" r="345.16423" cy="-97.84587" fill="none"/>
      <circle style="fill:none;stroke:black;stroke-width:1;" cx="-177.94743" r="341.34712" cy="-91.29464" fill="none"/>
      <circle style="fill:none;stroke:black;stroke-width:1;" cx="-181.21789" r="337.41206" cy="-84.61724" fill="none"/>
      <circle style="fill:none;stroke:black;stroke-width:1;" cx="-184.23788" r="333.36040" cy="-77.82289" fill="none"/>
      <circle style="fill:none;stroke:black;stroke-width:1;" cx="-187.00325" r="329.19355" cy="-70.92098" fill="none"/>
      <circle style="fill:none;stroke:black;stroke-width:1;" cx="-189.51016" r="324.91294" cy="-63.92105" fill="none"/>
      <circle style="fill:none;stroke:black;stroke-width:1;" cx="-191.75515" r="320.52006" cy="-56.83277" fill="none"/>
      <circle style="fill:none;stroke:black;stroke-width:1;" cx="-193.73511" r="316.01643" cy="-49.66595" fill="none"/>
      <circle style="fill:none;stroke:black;stroke-width:1;" cx="-195.44732" r="311.40359" cy="-42.43049" fill="none"/>
      <circle style="fill:none;stroke:black;stroke-width:1;" cx="-196.88940" r="306.68315" cy="-35.13638" fill="none"/>
      <circle style="fill:none;stroke:black;stroke-width:1;" cx="-198.05936" r="301.85673" cy="-27.79371" fill="none"/>
      <circle style="fill:none;stroke:black;stroke-width:1;" cx="-198.95558" r="296.92600" cy="-20.41263" fill="none"/>
      <circle style="fill:none;stroke:black;stroke-width:1;" cx="-199.57684" r="291.89268" cy="-13.00334" fill="none"/>
      <circle style="fill:none;stroke:black;stroke-width:1;" cx="-199.92225" r="286.75848" cy="-5.57607" fill="none"/>
      <circle style="fill:none;stroke:black;stroke-width:1;" cx="-199.99136" r="281.52520" cy="1.85890" fill="none"/>
      <circle style="fill:none;stroke:black;stroke-width:1;" cx="-199.78406" r="276.19464" cy="9.29131" fill="none"/>
      <circle style="fill:none;stroke:black;stroke-width:1;" cx="-199.30064" r="270.76863" cy="16.71087" fill="none"/>
      <circle style="fill:none;stroke:black;stroke-width:1;" cx="-198.54177" r="265.24906" cy="24.10734" fill="none"/>
      <circle style="fill:none;stroke:black;stroke-width:1;" cx="-197.50850" r="259.63784" cy="31.47048" fill="none"/>
      <circle style="fill:none;stroke:black;stroke-width:1;" cx="-196.20226" r="253.93689" cy="38.79014" fill="none"/>
      <circle style="fill:none;stroke:black;stroke-width:1;" cx="-194.62484" r="248.14820" cy="46.05618" fill="none"/>
      <circle style="fill:none;stroke:black;stroke-width:1;" cx="-192.77844" r="242.27376" cy="53.25857" fill="none"/>
      <circle style="fill:none;stroke:black;stroke-width:1;" cx="-190.66559" r="236.31560" cy="60.38734" fill="none"/>
      <circle style="fill:none;stroke:black;stroke-width:1;" cx="-188.28923" r="230.27578" cy="67.43266" fill="none"/>
      <circle style="fill:none;stroke:black;stroke-width:1;" cx="-185.65264" r="224.15639" cy="74.38478" fill="none"/>
      <circle style="fill:none;stroke:black;stroke-width:1;" cx="-182.75946" r="217.95954" cy="81.23410" fill="none"/>
      <circle style="fill:none;stroke:black;stroke-width:1;" cx="-179.61369" r="211.68737" cy="87.97114" fill="none"/>
      <circle style="fill:none;stroke:black;stroke-width:1;" cx="-176.21968" r="205.34206" cy="94.58660" fill="none"/>
      <circle style="fill:none;stroke:black;stroke-width:1;" cx="-172.58212" r="198.92579" cy="101.07133" fill="none"/>
      <circle style="fill:none;stroke:black;stroke-width:1;" cx="-168.70603" r="192.44078" cy="107.41637" fill="none"/>
      <circle style="fill:none;stroke:black;stroke-width:1;" cx="-164.59677" r="185.88927" cy="113.61295" fill="none"/>
      <circle style="fill:none;stroke:black;stroke-width:1;" cx="-160.26003" r="179.27353" cy="119.65251" fill="none"/>
      <circle style="fill:none;stroke:black;stroke-width:1;" cx="-155.70179" r="172.59583" cy="125.52670" fill="none"/>
      <circle style="fill:none;stroke:black;stroke-width:1;" cx="-150.92836" r="165.85850" cy="131.22739" fill="none"/>
      <circle style="fill:none;stroke:black;stroke-width:1;" cx="-145.94634" r="159.06386" cy="136.74672" fill="none"/>
      <circle style="fill:none;stroke:black;stroke-width:1;" cx="-140.76260" r="152.21425" cy="142.07706" fill="none"/>
      <circle style="fill:none;stroke:black;stroke-width:1;" cx="-135.38432" r="145.31204" cy="147.21103" fill="none"/>
      <circle style="fill:none;stroke:black;stroke-width:1;" cx="-129.81892" r="138.35962" cy="152.14154" fill="none"/>
      <circle style="fill:none;stroke:black;stroke-width:1;" cx="-124.07410" r="131.35939" cy="156.86178" fill="none"/>
      <circle style="fill:none;stroke:black;stroke-width:1;" cx="-118.15780" r="124.31376" cy="161.36522" fill="none"/>
      <circle style="fill:none;stroke:black;stroke-width:1;" cx="-112.07819" r="117.22518" cy="165.64564" fill="none"/>
      <circle style="fill:none;stroke:black;stroke-width:1;" cx="-105.84369" r="110.09610" cy="169.69712" fill="none"/>
      <circle style="fill:none;stroke:black;stroke-width:1;" cx="-99.46289" r="102.92896" cy="173.51407" fill="none"/>
      <circle style="fill:none;stroke:black;stroke-width:1;" cx="-92.94463" r="95.72627" cy="177.09121" fill="none"/>
      <circle style="fill:none;stroke:black;stroke-width:1;" cx="-86.29792" r="88.49049" cy="180.42358" fill="none"/>
      <circle style="fill:none;stroke:black;stroke-width:1;" cx="-79.53193" r="81.22413" cy="183.50660" fill="none"/>
      <circle style="fill:none;stroke:black;stroke-width:1;" cx="-72.65602" r="73.92971" cy="186.33599" fill="none"/>
      <circle style="fill:none;stroke:black;stroke-width:1;" cx="-65.67969" r="66.60974" cy="188.90786" fill="none"/>
      <circle style="fill:none;stroke:black;stroke-width:1;" cx="-58.61259" r="59.26676" cy="191.21863" fill="none"/>
      <circle style="fill:none;stroke:black;stroke-width:1;" cx="-51.46448" r="51.90329" cy="193.26512" fill="none"/>
      <circle style="fill:none;stroke:black;stroke-width:1;" cx="-44.24524" r="44.52189" cy="195.04450" fill="none"/>
      <circle style="fill:none;stroke:black;stroke-width:1;" cx="-36.96486" r="37.12510" cy="196.55432" fill="none"/>
      <circle style="fill:none;stroke:black;stroke-width:1;" cx="-29.63338" r="29.71549" cy="197.79247" fill="none"/>
      <circle style="fill:none;stroke:black;stroke-width:1;" cx="-22.26094" r="22.29561" cy="198.75726" fill="none"/>
      <circle style="fill:none;stroke:black;stroke-width:1;" cx="-14.85774" r="14.86802" cy="199.44736" fill="none"/>
      <circle style="fill:none;stroke:black;stroke-width:1;" cx="-7.43401" r="7.43529" cy="199.86179" fill="none"/>
    </g>
  </g>
</svg>
