<svg xmlns:ns0="http://www.w3.org/2000/svg" xlink="http://www.w3.org/1999/xlink" xmlns="http://www.w3.org/2000/svg" ns0:svg="http://www.w3.org/2000/svg" width="1280" height="1280">
  <defs/>
  <g id="canvas" transform="matrix(1,0,0,-1,0,1280) translate(640,640)">
    <g>
      <path style="stroke:none;fill:black" d="M400.00000,400.00000 L400.00000,-400.00000 L-400.00000,-400.00000 L-400.00000,400.00000 Z"/>
      <path style="stroke:none;fill:white" d="M380.00000,380.00000 L380.00000,-380.00000 L-380.00000,-380.00000 L-380.00000,380.00000 Z"/>
      <path style="stroke:none;fill:black" d="M360.00000,360.00000 L360.00000,-360.00000 L-360.00000,-360.00000 L-360.00000,360.00000 Z"/>
      <path style="stroke:none;fill:white" d="M340.00000,340.00000 L340.00000,-340.00000 L-340.00000,-340.00000 L-340.00000,340.00000 Z"/>
      <path style="stroke:none;fill:black" d="M320.00000,320.00000 L320.00000,-320.00000 L-320.00000,-320.00000 L-320.00000,320.00000 Z"/>
      <path style="stroke:none;fill:white" d="M300.00000,300.00000 L300.00000,-300.00000 L-300.00000,-300.00000 L-300.00000,300.00000 Z"/>
      <path style="stroke:none;fill:black" d="M280.00000,280.00000 L280.00000,-280.00000 L-280.00000,-280.00000 L-280.00000,280.00000 Z"/>
      <path style="stroke:none;fill:white" d="M260.00000,260.00000 L260.00000,-260.00000 L-260.00000,-260.00000 L-260.00000,260.00000 Z"/>
      <path style="stroke:none;fill:black" d="M240.00000,240.00000 L240.00000,-240.00000 L-240.00000,-240.00000 L-240.00000,240.00000 Z"/>
      <path style="stroke:none;fill:white" d="M220.00000,220.00000 L220.00000,-220.00000 L-220.00000,-220.00000 L-220.00000,220.00000 Z"/>
      <path style="stroke:none;fill:black" d="M200.00000,200.00000 L200.00000,-200.00000 L-200.00000,-200.00000 L-200.00000,200.00000 Z"/>
      <path style="stroke:none;fill:white" d="M180.00000,180.00000 L180.00000,-180.00000 L-180.00000,-180.00000 L-180.00000,180.00000 Z"/>
      <path style="stroke:none;fill:black" d="M160.00000,160.00000 L160.00000,-160.00000 L-160.00000,-160.00000 L-160.00000,160.00000 Z"/>
      <path style="stroke:none;fill:white" d="M140.00000,140.00000 L140.00000,-140.00000 L-140.00000,-140.00000 L-140.00000,140.00000 Z"/>
      <path style="stroke:none;fill:black" d="M120.00000,120.00000 L120.00000,-120.00000 L-120.00000,-120.00000 L-120.00000,120.00000 Z"/>
      <path style="stroke:none;fill:white" d="M100.00000,100.00000 L100.00000,-100.00000 L-100.00000,-100.00000 L-100.00000,100.00000 Z"/>
      <path style="stroke:none;fill:black" d="M80.00000,80.00000 L80.00000,-80.00000 L-80.00000,-80.00000 L-80.00000,80.00000 Z"/>
      <path style="stroke:none;fill:white" d="M60.00000,60.00000 L60.00000,-60.00000 L-60.00000,-60.00000 L-60.00000,60.00000 Z"/>
      <path style="stroke:none;fill:black" d="M40.00000,40.00000 L40.00000,-40.00000 L-40.00000,-40.00000 L-40.00000,40.00000 Z"/>
      <path style="stroke:none;fill:white" d="M20.00000,20.00000 L20.00000,-20.00000 L-20.00000,-20.00000 L-20.00000,20.00000 Z"/>
    </g>
  </g>
</svg>
