<?xml version="1.0" encoding="UTF-8" standalone="no"?>
<svg
   xmlns:dc="http://purl.org/dc/elements/1.1/"
   xmlns:cc="http://web.resource.org/cc/"
   xmlns:rdf="http://www.w3.org/1999/02/22-rdf-syntax-ns#"
   xmlns:svg="http://www.w3.org/2000/svg"
   xmlns="http://www.w3.org/2000/svg"
   xmlns:xlink="http://www.w3.org/1999/xlink"
   xmlns:sodipodi="http://sodipodi.sourceforge.net/DTD/sodipodi-0.dtd"
   xmlns:inkscape="http://www.inkscape.org/namespaces/inkscape"
   width="590"
   xlink:xlink="xlink"
   height="590"
   id="svg2160"
   sodipodi:version="0.32"
   inkscape:version="0.45"
   sodipodi:docname="crissPath04.svg"
   sodipodi:docbase="/media/oldubu/home/tamarind/0_Code_0/play-svg/scripts/images"
   inkscape:output_extension="org.inkscape.output.svg.inkscape"
   inkscape:export-filename="/media/oldubu/home/tamarind/0_Code_0/play-svg/scripts/images/crissPath04.png"
   inkscape:export-xdpi="93"
   inkscape:export-ydpi="93"
   sodipodi:modified="TRUE">
  <metadata
     id="metadata2168">
    <rdf:RDF>
      <cc:Work
         rdf:about="">
        <dc:format>image/svg+xml</dc:format>
        <dc:type
           rdf:resource="http://purl.org/dc/dcmitype/StillImage" />
      </cc:Work>
    </rdf:RDF>
  </metadata>
  <sodipodi:namedview
     inkscape:window-height="625"
     inkscape:window-width="874"
     inkscape:pageshadow="2"
     inkscape:pageopacity="0.0"
     guidetolerance="10.0"
     gridtolerance="10.0"
     objecttolerance="10.0"
     borderopacity="1.0"
     bordercolor="#666666"
     pagecolor="#ffffff"
     id="base"
     inkscape:zoom="0.71525424"
     inkscape:cx="295"
     inkscape:cy="291.00487"
     inkscape:window-x="5"
     inkscape:window-y="49"
     inkscape:current-layer="svg2160" />
  <defs
     id="defs2162" />
  <rect
     style="opacity:1;fill:#ffffff;fill-opacity:1;fill-rule:evenodd;stroke:none;stroke-width:3;stroke-linejoin:round;stroke-miterlimit:4;stroke-dasharray:none;stroke-opacity:1"
     id="rect3151"
     width="591.39813"
     height="592.7962"
     x="1.3981043"
     y="0" />
  <g
     id="g3145"
     transform="matrix(1.3118987,0,0,1.3118987,-91.490696,-90.175951)">
    <g
       style="fill:#000000;fill-opacity:1;fill-rule:evenodd"
       transform="matrix(1,0,0,-1,295,293.6019)"
       id="canvas">
      <path
         id="path2165"
         d="M 0,-75 L 20.23366,-198.97386 L 0,75 L 20.23366,198.97386 L 0,-75 L 40.2597,-195.90599 L 0,75 L 40.2597,195.90599 L 0,-75 L 59.87262,-190.82785 L 0,75 L 59.87262,190.82785 L 0,-75 L 78.87117,-183.79156 L 0,75 L 78.87117,183.79156 L 0,-75 L 97.06039,-174.86932 L 0,75 L 97.06039,174.86932 L 0,-75 L 114.25364,-164.15269 L 0,75 L 114.25364,164.15269 L 0,-75 L 130.2745,-151.75162 L 0,75 L 130.2745,151.75162 L 0,-75 L 144.95856,-137.79338 L 0,75 L 144.95856,137.79338 L 0,-75 L 158.15515,-122.4212 L 0,75 L 158.15515,122.4212 L 0,-75 L 169.72885,-105.7928 L 0,75 L 169.72885,105.7928 L 0,-75 L 179.56091,-88.07883 L 0,75 L 179.56091,88.07883 L 0,-75 L 187.55043,-69.46105 L 0,75 L 187.55043,69.46105 L 0,-75 L 193.61542,-50.13051 L 0,75 L 193.61542,50.13051 L 0,-75 L 197.69366,-30.28556 L 0,75 L 197.69366,30.28556 L 0,-75 L 199.7433,-10.12983 L 0,75 L 199.7433,10.12983 L 0,-75 z "
         style="fill:#000000;fill-opacity:1;fill-rule:evenodd;stroke:#000000" />
    </g>
    <g
       style="fill:#000000;fill-opacity:1;fill-rule:evenodd"
       transform="matrix(-1,0,0,-1,294.20814,293.6019)"
       id="g3141">
      <path
         id="path3143"
         d="M 0,-75 L 20.23366,-198.97386 L 0,75 L 20.23366,198.97386 L 0,-75 L 40.2597,-195.90599 L 0,75 L 40.2597,195.90599 L 0,-75 L 59.87262,-190.82785 L 0,75 L 59.87262,190.82785 L 0,-75 L 78.87117,-183.79156 L 0,75 L 78.87117,183.79156 L 0,-75 L 97.06039,-174.86932 L 0,75 L 97.06039,174.86932 L 0,-75 L 114.25364,-164.15269 L 0,75 L 114.25364,164.15269 L 0,-75 L 130.2745,-151.75162 L 0,75 L 130.2745,151.75162 L 0,-75 L 144.95856,-137.79338 L 0,75 L 144.95856,137.79338 L 0,-75 L 158.15515,-122.4212 L 0,75 L 158.15515,122.4212 L 0,-75 L 169.72885,-105.7928 L 0,75 L 169.72885,105.7928 L 0,-75 L 179.56091,-88.07883 L 0,75 L 179.56091,88.07883 L 0,-75 L 187.55043,-69.46105 L 0,75 L 187.55043,69.46105 L 0,-75 L 193.61542,-50.13051 L 0,75 L 193.61542,50.13051 L 0,-75 L 197.69366,-30.28556 L 0,75 L 197.69366,30.28556 L 0,-75 L 199.7433,-10.12983 L 0,75 L 199.7433,10.12983 L 0,-75 z "
         style="fill:#000000;fill-opacity:1;fill-rule:evenodd;stroke:#000000" />
    </g>
  </g>
</svg>
