<svg xmlns:ns0="http://www.w3.org/2000/svg" xlink="http://www.w3.org/1999/xlink" xmlns="http://www.w3.org/2000/svg" ns0:svg="http://www.w3.org/2000/svg" width="1280" height="1280">
  <defs/>
  <g id="canvas" transform="matrix(1,0,0,-1,0,1280) translate(640,640)">
    <g id="grid">
      <line y1="600.00000" x2="-600.00000" style="stroke:black;fill:none" x1="-600.00000" y2="-600.00000"/>
      <line y1="600.00000" x2="-466.66667" style="stroke:black;fill:none" x1="-466.66667" y2="-600.00000"/>
      <line y1="600.00000" x2="-333.33333" style="stroke:black;fill:none" x1="-333.33333" y2="-600.00000"/>
      <line y1="600.00000" x2="-200.00000" style="stroke:black;fill:none" x1="-200.00000" y2="-600.00000"/>
      <line y1="600.00000" x2="-66.66667" style="stroke:black;fill:none" x1="-66.66667" y2="-600.00000"/>
      <line y1="600.00000" x2="66.66667" style="stroke:black;fill:none" x1="66.66667" y2="-600.00000"/>
      <line y1="600.00000" x2="200.00000" style="stroke:black;fill:none" x1="200.00000" y2="-600.00000"/>
      <line y1="600.00000" x2="333.33333" style="stroke:black;fill:none" x1="333.33333" y2="-600.00000"/>
      <line y1="600.00000" x2="466.66667" style="stroke:black;fill:none" x1="466.66667" y2="-600.00000"/>
      <line y1="600.00000" x2="600.00000" style="stroke:black;fill:none" x1="600.00000" y2="-600.00000"/>
      <line y1="600.00000" x2="-600.00000" style="stroke:black;fill:none" x1="600.00000" y2="600.00000"/>
      <line y1="466.66667" x2="-600.00000" style="stroke:black;fill:none" x1="600.00000" y2="466.66667"/>
      <line y1="333.33333" x2="-600.00000" style="stroke:black;fill:none" x1="600.00000" y2="333.33333"/>
      <line y1="200.00000" x2="-600.00000" style="stroke:black;fill:none" x1="600.00000" y2="200.00000"/>
      <line y1="66.66667" x2="-600.00000" style="stroke:black;fill:none" x1="600.00000" y2="66.66667"/>
      <line y1="-66.66667" x2="-600.00000" style="stroke:black;fill:none" x1="600.00000" y2="-66.66667"/>
      <line y1="-200.00000" x2="-600.00000" style="stroke:black;fill:none" x1="600.00000" y2="-200.00000"/>
      <line y1="-333.33333" x2="-600.00000" style="stroke:black;fill:none" x1="600.00000" y2="-333.33333"/>
      <line y1="-466.66667" x2="-600.00000" style="stroke:black;fill:none" x1="600.00000" y2="-466.66667"/>
      <line y1="-600.00000" x2="-600.00000" style="stroke:black;fill:none" x1="600.00000" y2="-600.00000"/>
      <line y1="600.00000" x2="600.00000" style="stroke:black;fill:none" x1="-600.00000" y2="-600.00000"/>
      <line y1="600.00000" x2="600.00000" style="stroke:black;fill:none" x1="-466.66667" y2="-466.66667"/>
      <line y1="600.00000" x2="600.00000" style="stroke:black;fill:none" x1="-333.33333" y2="-333.33333"/>
      <line y1="600.00000" x2="600.00000" style="stroke:black;fill:none" x1="-200.00000" y2="-200.00000"/>
      <line y1="600.00000" x2="600.00000" style="stroke:black;fill:none" x1="-66.66667" y2="-66.66667"/>
      <line y1="600.00000" x2="600.00000" style="stroke:black;fill:none" x1="66.66667" y2="66.66667"/>
      <line y1="600.00000" x2="600.00000" style="stroke:black;fill:none" x1="200.00000" y2="200.00000"/>
      <line y1="600.00000" x2="600.00000" style="stroke:black;fill:none" x1="333.33333" y2="333.33333"/>
      <line y1="600.00000" x2="600.00000" style="stroke:black;fill:none" x1="466.66667" y2="466.66667"/>
      <line y1="600.00000" x2="600.00000" style="stroke:black;fill:none" x1="600.00000" y2="600.00000"/>
      <line y1="600.00000" x2="-600.00000" style="stroke:black;fill:none" x1="600.00000" y2="-600.00000"/>
      <line y1="466.66667" x2="-466.66667" style="stroke:black;fill:none" x1="600.00000" y2="-600.00000"/>
      <line y1="333.33333" x2="-333.33333" style="stroke:black;fill:none" x1="600.00000" y2="-600.00000"/>
      <line y1="200.00000" x2="-200.00000" style="stroke:black;fill:none" x1="600.00000" y2="-600.00000"/>
      <line y1="66.66667" x2="-66.66667" style="stroke:black;fill:none" x1="600.00000" y2="-600.00000"/>
      <line y1="-66.66667" x2="66.66667" style="stroke:black;fill:none" x1="600.00000" y2="-600.00000"/>
      <line y1="-200.00000" x2="200.00000" style="stroke:black;fill:none" x1="600.00000" y2="-600.00000"/>
      <line y1="-333.33333" x2="333.33333" style="stroke:black;fill:none" x1="600.00000" y2="-600.00000"/>
      <line y1="-466.66667" x2="466.66667" style="stroke:black;fill:none" x1="600.00000" y2="-600.00000"/>
      <line y1="-600.00000" x2="600.00000" style="stroke:black;fill:none" x1="600.00000" y2="-600.00000"/>
      <line y1="-600.00000" x2="-600.00000" style="stroke:black;fill:none" x1="600.00000" y2="600.00000"/>
      <line y1="-600.00000" x2="-600.00000" style="stroke:black;fill:none" x1="466.66667" y2="466.66667"/>
      <line y1="-600.00000" x2="-600.00000" style="stroke:black;fill:none" x1="333.33333" y2="333.33333"/>
      <line y1="-600.00000" x2="-600.00000" style="stroke:black;fill:none" x1="200.00000" y2="200.00000"/>
      <line y1="-600.00000" x2="-600.00000" style="stroke:black;fill:none" x1="66.66667" y2="66.66667"/>
      <line y1="-600.00000" x2="-600.00000" style="stroke:black;fill:none" x1="-66.66667" y2="-66.66667"/>
      <line y1="-600.00000" x2="-600.00000" style="stroke:black;fill:none" x1="-200.00000" y2="-200.00000"/>
      <line y1="-600.00000" x2="-600.00000" style="stroke:black;fill:none" x1="-333.33333" y2="-333.33333"/>
      <line y1="-600.00000" x2="-600.00000" style="stroke:black;fill:none" x1="-466.66667" y2="-466.66667"/>
      <line y1="-600.00000" x2="-600.00000" style="stroke:black;fill:none" x1="-600.00000" y2="-600.00000"/>
      <line y1="-600.00000" x2="600.00000" style="stroke:black;fill:none" x1="-600.00000" y2="600.00000"/>
      <line y1="-466.66667" x2="466.66667" style="stroke:black;fill:none" x1="-600.00000" y2="600.00000"/>
      <line y1="-333.33333" x2="333.33333" style="stroke:black;fill:none" x1="-600.00000" y2="600.00000"/>
      <line y1="-200.00000" x2="200.00000" style="stroke:black;fill:none" x1="-600.00000" y2="600.00000"/>
      <line y1="-66.66667" x2="66.66667" style="stroke:black;fill:none" x1="-600.00000" y2="600.00000"/>
      <line y1="66.66667" x2="-66.66667" style="stroke:black;fill:none" x1="-600.00000" y2="600.00000"/>
      <line y1="200.00000" x2="-200.00000" style="stroke:black;fill:none" x1="-600.00000" y2="600.00000"/>
      <line y1="333.33333" x2="-333.33333" style="stroke:black;fill:none" x1="-600.00000" y2="600.00000"/>
      <line y1="466.66667" x2="-466.66667" style="stroke:black;fill:none" x1="-600.00000" y2="600.00000"/>
      <line y1="600.00000" x2="-600.00000" style="stroke:black;fill:none" x1="-600.00000" y2="600.00000"/>
    </g>
  </g>
</svg>
