<svg svg="http://www.w3.org/2000/svg" xlink="http://www.w3.org/1999/xlink" width="1280" height="1280">
  <defs/>
  <g id="canvas" transform="matrix(1,0,0,-1,0,1280) translate(640,640)">
    <g id="wheelgroup">
      <circle r="50.00000" stroke-opacity="1" cy="0.00000" stroke="black" cx="0.00000" stroke-width="13" fill="none"/>
      <circle r="200.00000" stroke-opacity="1" cy="0.00000" stroke="black" cx="0.00000" stroke-width="13" fill="none"/>
      <line y1="50.00000" x2="0.00000" style="stroke:black;fill:none; stroke-width:8" x1="0.00000" y2="200.00000"/>
      <line y1="0.00000" x2="200.00000" style="stroke:black;fill:none; stroke-width:8" x1="50.00000" y2="0.00000"/>
      <line y1="-50.00000" x2="0.00000" style="stroke:black;fill:none; stroke-width:8" x1="0.00000" y2="-200.00000"/>
      <line y1="-0.00000" x2="-200.00000" style="stroke:black;fill:none; stroke-width:8" x1="-50.00000" y2="-0.00000"/>
      <line y1="46.19398" x2="76.53669" style="stroke:black;fill:none; stroke-width:4" x1="19.13417" y2="184.77591"/>
      <line y1="35.35534" x2="141.42136" style="stroke:black;fill:none; stroke-width:4" x1="35.35534" y2="141.42136"/>
      <line y1="19.13417" x2="184.77591" style="stroke:black;fill:none; stroke-width:4" x1="46.19398" y2="76.53669"/>
      <line y1="-19.13417" x2="184.77591" style="stroke:black;fill:none; stroke-width:4" x1="46.19398" y2="-76.53669"/>
      <line y1="-35.35534" x2="141.42136" style="stroke:black;fill:none; stroke-width:4" x1="35.35534" y2="-141.42136"/>
      <line y1="-46.19398" x2="76.53669" style="stroke:black;fill:none; stroke-width:4" x1="19.13417" y2="-184.77591"/>
      <line y1="-46.19398" x2="-76.53669" style="stroke:black;fill:none; stroke-width:4" x1="-19.13417" y2="-184.77591"/>
      <line y1="-35.35534" x2="-141.42136" style="stroke:black;fill:none; stroke-width:4" x1="-35.35534" y2="-141.42136"/>
      <line y1="-19.13417" x2="-184.77591" style="stroke:black;fill:none; stroke-width:4" x1="-46.19398" y2="-76.53669"/>
      <line y1="19.13417" x2="-184.77591" style="stroke:black;fill:none; stroke-width:4" x1="-46.19398" y2="76.53669"/>
      <line y1="35.35534" x2="-141.42136" style="stroke:black;fill:none; stroke-width:4" x1="-35.35534" y2="141.42136"/>
      <line y1="46.19398" x2="-76.53669" style="stroke:black;fill:none; stroke-width:4" x1="-19.13417" y2="184.77591"/>
      <line y1="49.93977" x2="9.81353" style="stroke:black;fill:none; stroke-width:1" x1="2.45338" y2="199.75909"/>
      <line y1="49.75924" x2="19.60343" style="stroke:black;fill:none; stroke-width:1" x1="4.90086" y2="199.03695"/>
      <line y1="49.45883" x2="29.34609" style="stroke:black;fill:none; stroke-width:1" x1="7.33652" y2="197.83530"/>
      <line y1="49.03926" x2="39.01806" style="stroke:black;fill:none; stroke-width:1" x1="9.75452" y2="196.15706"/>
      <line y1="48.50156" x2="48.59604" style="stroke:black;fill:none; stroke-width:1" x1="12.14901" y2="194.00625"/>
      <line y1="47.84702" x2="58.05694" style="stroke:black;fill:none; stroke-width:1" x1="14.51423" y2="191.38807"/>
      <line y1="47.07720" x2="67.37797" style="stroke:black;fill:none; stroke-width:1" x1="16.84449" y2="188.30881"/>
      <line y1="45.19946" x2="85.51102" style="stroke:black;fill:none; stroke-width:1" x1="21.37775" y2="180.79786"/>
      <line y1="44.09606" x2="94.27935" style="stroke:black;fill:none; stroke-width:1" x1="23.56984" y2="176.38425"/>
      <line y1="42.88643" x2="102.82055" style="stroke:black;fill:none; stroke-width:1" x1="25.70514" y2="171.54572"/>
      <line y1="41.57348" x2="111.11405" style="stroke:black;fill:none; stroke-width:1" x1="27.77851" y2="166.29392"/>
      <line y1="40.16038" x2="119.13986" style="stroke:black;fill:none; stroke-width:1" x1="29.78497" y2="160.64151"/>
      <line y1="38.65052" x2="126.87866" style="stroke:black;fill:none; stroke-width:1" x1="31.71966" y2="154.60209"/>
      <line y1="37.04756" x2="134.31179" style="stroke:black;fill:none; stroke-width:1" x1="33.57795" y2="148.19023"/>
      <line y1="33.57795" x2="148.19023" style="stroke:black;fill:none; stroke-width:1" x1="37.04756" y2="134.31179"/>
      <line y1="31.71966" x2="154.60209" style="stroke:black;fill:none; stroke-width:1" x1="38.65052" y2="126.87866"/>
      <line y1="29.78497" x2="160.64151" style="stroke:black;fill:none; stroke-width:1" x1="40.16038" y2="119.13986"/>
      <line y1="27.77851" x2="166.29392" style="stroke:black;fill:none; stroke-width:1" x1="41.57348" y2="111.11405"/>
      <line y1="25.70514" x2="171.54572" style="stroke:black;fill:none; stroke-width:1" x1="42.88643" y2="102.82055"/>
      <line y1="23.56984" x2="176.38425" style="stroke:black;fill:none; stroke-width:1" x1="44.09606" y2="94.27935"/>
      <line y1="21.37775" x2="180.79786" style="stroke:black;fill:none; stroke-width:1" x1="45.19946" y2="85.51102"/>
      <line y1="16.84449" x2="188.30881" style="stroke:black;fill:none; stroke-width:1" x1="47.07720" y2="67.37797"/>
      <line y1="14.51423" x2="191.38807" style="stroke:black;fill:none; stroke-width:1" x1="47.84702" y2="58.05694"/>
      <line y1="12.14901" x2="194.00625" style="stroke:black;fill:none; stroke-width:1" x1="48.50156" y2="48.59604"/>
      <line y1="9.75452" x2="196.15706" style="stroke:black;fill:none; stroke-width:1" x1="49.03926" y2="39.01806"/>
      <line y1="7.33652" x2="197.83530" style="stroke:black;fill:none; stroke-width:1" x1="49.45883" y2="29.34609"/>
      <line y1="4.90086" x2="199.03695" style="stroke:black;fill:none; stroke-width:1" x1="49.75924" y2="19.60343"/>
      <line y1="2.45338" x2="199.75909" style="stroke:black;fill:none; stroke-width:1" x1="49.93977" y2="9.81353"/>
      <line y1="-2.45338" x2="199.75909" style="stroke:black;fill:none; stroke-width:1" x1="49.93977" y2="-9.81353"/>
      <line y1="-4.90086" x2="199.03695" style="stroke:black;fill:none; stroke-width:1" x1="49.75924" y2="-19.60343"/>
      <line y1="-7.33652" x2="197.83530" style="stroke:black;fill:none; stroke-width:1" x1="49.45883" y2="-29.34609"/>
      <line y1="-9.75452" x2="196.15706" style="stroke:black;fill:none; stroke-width:1" x1="49.03926" y2="-39.01806"/>
      <line y1="-12.14901" x2="194.00625" style="stroke:black;fill:none; stroke-width:1" x1="48.50156" y2="-48.59604"/>
      <line y1="-14.51423" x2="191.38807" style="stroke:black;fill:none; stroke-width:1" x1="47.84702" y2="-58.05694"/>
      <line y1="-16.84449" x2="188.30881" style="stroke:black;fill:none; stroke-width:1" x1="47.07720" y2="-67.37797"/>
      <line y1="-21.37775" x2="180.79786" style="stroke:black;fill:none; stroke-width:1" x1="45.19946" y2="-85.51102"/>
      <line y1="-23.56984" x2="176.38425" style="stroke:black;fill:none; stroke-width:1" x1="44.09606" y2="-94.27935"/>
      <line y1="-25.70514" x2="171.54572" style="stroke:black;fill:none; stroke-width:1" x1="42.88643" y2="-102.82055"/>
      <line y1="-27.77851" x2="166.29392" style="stroke:black;fill:none; stroke-width:1" x1="41.57348" y2="-111.11405"/>
      <line y1="-29.78497" x2="160.64151" style="stroke:black;fill:none; stroke-width:1" x1="40.16038" y2="-119.13986"/>
      <line y1="-31.71966" x2="154.60209" style="stroke:black;fill:none; stroke-width:1" x1="38.65052" y2="-126.87866"/>
      <line y1="-33.57795" x2="148.19023" style="stroke:black;fill:none; stroke-width:1" x1="37.04756" y2="-134.31179"/>
      <line y1="-37.04756" x2="134.31179" style="stroke:black;fill:none; stroke-width:1" x1="33.57795" y2="-148.19023"/>
      <line y1="-38.65052" x2="126.87866" style="stroke:black;fill:none; stroke-width:1" x1="31.71966" y2="-154.60209"/>
      <line y1="-40.16038" x2="119.13986" style="stroke:black;fill:none; stroke-width:1" x1="29.78497" y2="-160.64151"/>
      <line y1="-41.57348" x2="111.11405" style="stroke:black;fill:none; stroke-width:1" x1="27.77851" y2="-166.29392"/>
      <line y1="-42.88643" x2="102.82055" style="stroke:black;fill:none; stroke-width:1" x1="25.70514" y2="-171.54572"/>
      <line y1="-44.09606" x2="94.27935" style="stroke:black;fill:none; stroke-width:1" x1="23.56984" y2="-176.38425"/>
      <line y1="-45.19946" x2="85.51102" style="stroke:black;fill:none; stroke-width:1" x1="21.37775" y2="-180.79786"/>
      <line y1="-47.07720" x2="67.37797" style="stroke:black;fill:none; stroke-width:1" x1="16.84449" y2="-188.30881"/>
      <line y1="-47.84702" x2="58.05694" style="stroke:black;fill:none; stroke-width:1" x1="14.51423" y2="-191.38807"/>
      <line y1="-48.50156" x2="48.59604" style="stroke:black;fill:none; stroke-width:1" x1="12.14901" y2="-194.00625"/>
      <line y1="-49.03926" x2="39.01806" style="stroke:black;fill:none; stroke-width:1" x1="9.75452" y2="-196.15706"/>
      <line y1="-49.45883" x2="29.34609" style="stroke:black;fill:none; stroke-width:1" x1="7.33652" y2="-197.83530"/>
      <line y1="-49.75924" x2="19.60343" style="stroke:black;fill:none; stroke-width:1" x1="4.90086" y2="-199.03695"/>
      <line y1="-49.93977" x2="9.81353" style="stroke:black;fill:none; stroke-width:1" x1="2.45338" y2="-199.75909"/>
      <line y1="-49.93977" x2="-9.81353" style="stroke:black;fill:none; stroke-width:1" x1="-2.45338" y2="-199.75909"/>
      <line y1="-49.75924" x2="-19.60343" style="stroke:black;fill:none; stroke-width:1" x1="-4.90086" y2="-199.03695"/>
      <line y1="-49.45883" x2="-29.34609" style="stroke:black;fill:none; stroke-width:1" x1="-7.33652" y2="-197.83530"/>
      <line y1="-49.03926" x2="-39.01806" style="stroke:black;fill:none; stroke-width:1" x1="-9.75452" y2="-196.15706"/>
      <line y1="-48.50156" x2="-48.59604" style="stroke:black;fill:none; stroke-width:1" x1="-12.14901" y2="-194.00625"/>
      <line y1="-47.84702" x2="-58.05694" style="stroke:black;fill:none; stroke-width:1" x1="-14.51423" y2="-191.38807"/>
      <line y1="-47.07720" x2="-67.37797" style="stroke:black;fill:none; stroke-width:1" x1="-16.84449" y2="-188.30881"/>
      <line y1="-45.19946" x2="-85.51102" style="stroke:black;fill:none; stroke-width:1" x1="-21.37775" y2="-180.79786"/>
      <line y1="-44.09606" x2="-94.27935" style="stroke:black;fill:none; stroke-width:1" x1="-23.56984" y2="-176.38425"/>
      <line y1="-42.88643" x2="-102.82055" style="stroke:black;fill:none; stroke-width:1" x1="-25.70514" y2="-171.54572"/>
      <line y1="-41.57348" x2="-111.11405" style="stroke:black;fill:none; stroke-width:1" x1="-27.77851" y2="-166.29392"/>
      <line y1="-40.16038" x2="-119.13986" style="stroke:black;fill:none; stroke-width:1" x1="-29.78497" y2="-160.64151"/>
      <line y1="-38.65052" x2="-126.87866" style="stroke:black;fill:none; stroke-width:1" x1="-31.71966" y2="-154.60209"/>
      <line y1="-37.04756" x2="-134.31179" style="stroke:black;fill:none; stroke-width:1" x1="-33.57795" y2="-148.19023"/>
      <line y1="-33.57795" x2="-148.19023" style="stroke:black;fill:none; stroke-width:1" x1="-37.04756" y2="-134.31179"/>
      <line y1="-31.71966" x2="-154.60209" style="stroke:black;fill:none; stroke-width:1" x1="-38.65052" y2="-126.87866"/>
      <line y1="-29.78497" x2="-160.64151" style="stroke:black;fill:none; stroke-width:1" x1="-40.16038" y2="-119.13986"/>
      <line y1="-27.77851" x2="-166.29392" style="stroke:black;fill:none; stroke-width:1" x1="-41.57348" y2="-111.11405"/>
      <line y1="-25.70514" x2="-171.54572" style="stroke:black;fill:none; stroke-width:1" x1="-42.88643" y2="-102.82055"/>
      <line y1="-23.56984" x2="-176.38425" style="stroke:black;fill:none; stroke-width:1" x1="-44.09606" y2="-94.27935"/>
      <line y1="-21.37775" x2="-180.79786" style="stroke:black;fill:none; stroke-width:1" x1="-45.19946" y2="-85.51102"/>
      <line y1="-16.84449" x2="-188.30881" style="stroke:black;fill:none; stroke-width:1" x1="-47.07720" y2="-67.37797"/>
      <line y1="-14.51423" x2="-191.38807" style="stroke:black;fill:none; stroke-width:1" x1="-47.84702" y2="-58.05694"/>
      <line y1="-12.14901" x2="-194.00625" style="stroke:black;fill:none; stroke-width:1" x1="-48.50156" y2="-48.59604"/>
      <line y1="-9.75452" x2="-196.15706" style="stroke:black;fill:none; stroke-width:1" x1="-49.03926" y2="-39.01806"/>
      <line y1="-7.33652" x2="-197.83530" style="stroke:black;fill:none; stroke-width:1" x1="-49.45883" y2="-29.34609"/>
      <line y1="-4.90086" x2="-199.03695" style="stroke:black;fill:none; stroke-width:1" x1="-49.75924" y2="-19.60343"/>
      <line y1="-2.45338" x2="-199.75909" style="stroke:black;fill:none; stroke-width:1" x1="-49.93977" y2="-9.81353"/>
      <line y1="2.45338" x2="-199.75909" style="stroke:black;fill:none; stroke-width:1" x1="-49.93977" y2="9.81353"/>
      <line y1="4.90086" x2="-199.03695" style="stroke:black;fill:none; stroke-width:1" x1="-49.75924" y2="19.60343"/>
      <line y1="7.33652" x2="-197.83530" style="stroke:black;fill:none; stroke-width:1" x1="-49.45883" y2="29.34609"/>
      <line y1="9.75452" x2="-196.15706" style="stroke:black;fill:none; stroke-width:1" x1="-49.03926" y2="39.01806"/>
      <line y1="12.14901" x2="-194.00625" style="stroke:black;fill:none; stroke-width:1" x1="-48.50156" y2="48.59604"/>
      <line y1="14.51423" x2="-191.38807" style="stroke:black;fill:none; stroke-width:1" x1="-47.84702" y2="58.05694"/>
      <line y1="16.84449" x2="-188.30881" style="stroke:black;fill:none; stroke-width:1" x1="-47.07720" y2="67.37797"/>
      <line y1="21.37775" x2="-180.79786" style="stroke:black;fill:none; stroke-width:1" x1="-45.19946" y2="85.51102"/>
      <line y1="23.56984" x2="-176.38425" style="stroke:black;fill:none; stroke-width:1" x1="-44.09606" y2="94.27935"/>
      <line y1="25.70514" x2="-171.54572" style="stroke:black;fill:none; stroke-width:1" x1="-42.88643" y2="102.82055"/>
      <line y1="27.77851" x2="-166.29392" style="stroke:black;fill:none; stroke-width:1" x1="-41.57348" y2="111.11405"/>
      <line y1="29.78497" x2="-160.64151" style="stroke:black;fill:none; stroke-width:1" x1="-40.16038" y2="119.13986"/>
      <line y1="31.71966" x2="-154.60209" style="stroke:black;fill:none; stroke-width:1" x1="-38.65052" y2="126.87866"/>
      <line y1="33.57795" x2="-148.19023" style="stroke:black;fill:none; stroke-width:1" x1="-37.04756" y2="134.31179"/>
      <line y1="37.04756" x2="-134.31179" style="stroke:black;fill:none; stroke-width:1" x1="-33.57795" y2="148.19023"/>
      <line y1="38.65052" x2="-126.87866" style="stroke:black;fill:none; stroke-width:1" x1="-31.71966" y2="154.60209"/>
      <line y1="40.16038" x2="-119.13986" style="stroke:black;fill:none; stroke-width:1" x1="-29.78497" y2="160.64151"/>
      <line y1="41.57348" x2="-111.11405" style="stroke:black;fill:none; stroke-width:1" x1="-27.77851" y2="166.29392"/>
      <line y1="42.88643" x2="-102.82055" style="stroke:black;fill:none; stroke-width:1" x1="-25.70514" y2="171.54572"/>
      <line y1="44.09606" x2="-94.27935" style="stroke:black;fill:none; stroke-width:1" x1="-23.56984" y2="176.38425"/>
      <line y1="45.19946" x2="-85.51102" style="stroke:black;fill:none; stroke-width:1" x1="-21.37775" y2="180.79786"/>
      <line y1="47.07720" x2="-67.37797" style="stroke:black;fill:none; stroke-width:1" x1="-16.84449" y2="188.30881"/>
      <line y1="47.84702" x2="-58.05694" style="stroke:black;fill:none; stroke-width:1" x1="-14.51423" y2="191.38807"/>
      <line y1="48.50156" x2="-48.59604" style="stroke:black;fill:none; stroke-width:1" x1="-12.14901" y2="194.00625"/>
      <line y1="49.03926" x2="-39.01806" style="stroke:black;fill:none; stroke-width:1" x1="-9.75452" y2="196.15706"/>
      <line y1="49.45883" x2="-29.34609" style="stroke:black;fill:none; stroke-width:1" x1="-7.33652" y2="197.83530"/>
      <line y1="49.75924" x2="-19.60343" style="stroke:black;fill:none; stroke-width:1" x1="-4.90086" y2="199.03695"/>
      <line y1="49.93977" x2="-9.81353" style="stroke:black;fill:none; stroke-width:1" x1="-2.45338" y2="199.75909"/>
      <circle style="fill:none;stroke:black;stroke-width:4" cx="0.00000" r="50.00000" cy="0.00000"/>
      <circle style="fill:none;stroke:black;stroke-width:4" cx="0.00000" r="125.00000" cy="0.00000"/>
      <circle style="fill:none;stroke:black;stroke-width:2" cx="0.00000" r="87.50000" cy="0.00000"/>
      <circle style="fill:none;stroke:black;stroke-width:2" cx="0.00000" r="162.50000" cy="0.00000"/>
    </g>
  </g>
</svg>
