<?xml version="1.0" encoding="UTF-8" standalone="no"?>
<!-- Created with Inkscape (http://www.inkscape.org/) -->
<svg
   xmlns:dc="http://purl.org/dc/elements/1.1/"
   xmlns:cc="http://web.resource.org/cc/"
   xmlns:rdf="http://www.w3.org/1999/02/22-rdf-syntax-ns#"
   xmlns:svg="http://www.w3.org/2000/svg"
   xmlns="http://www.w3.org/2000/svg"
   xmlns:xlink="http://www.w3.org/1999/xlink"
   xmlns:sodipodi="http://sodipodi.sourceforge.net/DTD/sodipodi-0.dtd"
   xmlns:inkscape="http://www.inkscape.org/namespaces/inkscape"
   width="612pt"
   height="792pt"
   id="svg2316"
   sodipodi:version="0.32"
   inkscape:version="0.45"
   sodipodi:modified="true">
  <defs
     id="defs2318" />
  <sodipodi:namedview
     inkscape:document-units="in"
     pagecolor="#ffffff"
     bordercolor="#666666"
     borderopacity="1.0"
     inkscape:pageopacity="0.0"
     inkscape:pageshadow="2"
     inkscape:zoom="0.36"
     inkscape:cx="340"
     inkscape:cy="500"
     inkscape:current-layer="layer1"
     id="namedview2320" />
  <metadata
     id="metadata2322">
    <rdf:RDF>
      <cc:Work
         rdf:about="">
        <dc:format>image/svg+xml</dc:format>
        <dc:type
           rdf:resource="http://purl.org/dc/dcmitype/StillImage" />
      </cc:Work>
    </rdf:RDF>
  </metadata>
  <g
     inkscape:label="Layer 1"
     inkscape:groupmode="layer"
     id="layer1">
    <g
       id="g2912"
       transform="translate(-0.5279973,52.861998)"
       inkscape:tile-w="240.94489"
       inkscape:tile-h="339.8899"
       inkscape:tile-cx="194.44444"
       inkscape:tile-cy="348.33334">
      <g
         inkscape:tile-cy="295.47134"
         inkscape:tile-cx="104.61811"
         inkscape:tile-h="339.8899"
         inkscape:tile-w="60.236223"
         transform="matrix(0.2996827,0,0,0.2996827,167.03717,118.01703)"
         id="g2914">
        <path
           style="fill:#000000;fill-opacity:1;stroke:#000000"
           d="M -208.28384,1098.7236 C -208.28384,1098.7236 -275.22508,982.77797 -299.56809,940.61464 C -304.97785,931.24466 -308.28384,925.51852 -308.28384,925.51852 C -308.28384,925.51852 -308.28384,985.51852 -308.28384,985.51852 C -308.28384,985.51852 -304.97785,991.24466 -299.56809,1000.6146 C -275.22508,1042.778 -208.28384,1158.7236 -208.28384,1158.7236 C -208.28384,1158.7236 -141.3426,1042.778 -116.99959,1000.6146 C -111.58983,991.24466 -108.28384,985.51852 -108.28384,985.51852 C -108.28384,985.51852 -108.28384,925.51852 -108.28384,925.51852 C -108.28384,925.51852 -111.58983,931.24466 -116.99959,940.61464 C -141.3426,982.77797 -208.28384,1098.7236 -208.28384,1098.7236 C -208.28384,1098.7236 -208.28384,1098.7236 -208.28384,1098.7236"
           id="path2916" />
        <path
           style="fill:#000000;fill-opacity:1;stroke:#000000"
           d="M -208.28384,997.18051 C -208.28384,997.18051 -278.53096,887.05594 -300.43967,849.10894 C -305.30845,840.67596 -308.28384,835.972 -308.28384,836.62501 C -308.28384,837.7046 -308.28384,893.34028 -308.28384,894.41988 C -308.28384,895.07288 -305.30845,900.67596 -300.43967,909.10894 C -278.53096,947.05594 -208.28384,1057.1805 -208.28384,1057.1805 C -208.28384,1057.1805 -138.03672,947.05594 -116.12801,909.10894 C -111.25923,900.67596 -108.28384,895.07288 -108.28384,894.41987 C -108.28384,893.34027 -108.28384,837.70459 -108.28384,836.625 C -108.28384,835.972 -111.25923,840.67596 -116.12801,849.10894 C -138.03672,887.05594 -208.28384,997.18051 -208.28384,997.18051 C -208.28384,997.18051 -208.28384,997.18051 -208.28384,997.18051"
           id="path2918" />
        <path
           style="fill:#000000;fill-opacity:1;stroke:#000000"
           d="M -208.28384,895.63743 C -208.28384,895.63743 -281.83683,791.33392 -301.31124,757.60325 C -305.63905,750.10727 -308.28384,746.42548 -308.28384,747.73149 C -308.28384,749.89069 -308.28384,801.16205 -308.28384,803.32124 C -308.28384,804.62724 -305.63905,810.10727 -301.31124,817.60325 C -281.83683,851.33392 -208.28384,955.63743 -208.28384,955.63743 C -208.28384,955.63743 -134.73085,851.33392 -115.25644,817.60325 C -110.92863,810.10727 -108.28384,804.62724 -108.28384,803.32122 C -108.28384,801.16203 -108.28384,749.89067 -108.28384,747.73148 C -108.28384,746.42547 -110.92863,750.10727 -115.25644,757.60325 C -134.73085,791.33392 -208.28384,895.63743 -208.28384,895.63743 C -208.28384,895.63743 -208.28384,895.63743 -208.28384,895.63743"
           id="path2920" />
        <path
           style="fill:#000000;fill-opacity:1;stroke:#000000"
           d="M -208.28384,794.09434 C -208.28384,794.09434 -285.14271,695.61189 -302.18282,666.09756 C -305.96965,659.53857 -308.28384,656.87896 -308.28384,658.83798 C -308.28384,662.07677 -308.28384,708.98381 -308.28384,712.2226 C -308.28384,714.18161 -305.96965,719.53857 -302.18282,726.09756 C -285.14271,755.61189 -208.28384,854.09434 -208.28384,854.09434 C -208.28384,854.09434 -131.42497,755.61189 -114.38486,726.09756 C -110.59803,719.53857 -108.28384,714.1816 -108.28384,712.22258 C -108.28384,708.98378 -108.28384,662.07674 -108.28384,658.83795 C -108.28384,656.87895 -110.59803,659.53857 -114.38486,666.09756 C -131.42497,695.61189 -208.28384,794.09434 -208.28384,794.09434 C -208.28384,794.09434 -208.28384,794.09434 -208.28384,794.09434"
           id="path2922" />
        <path
           style="fill:#000000;fill-opacity:1;stroke:#000000"
           d="M -208.28384,692.55125 C -208.28384,692.55125 -288.44858,599.88986 -303.05439,574.59186 C -306.30025,568.96988 -308.28384,567.33244 -308.28384,569.94446 C -308.28384,574.26285 -308.28384,616.80558 -308.28384,621.12396 C -308.28384,623.73597 -306.30025,628.96988 -303.05439,634.59186 C -288.44858,659.88986 -208.28384,752.55126 -208.28384,752.55126 C -208.28384,752.55126 -128.1191,659.88986 -113.51329,634.59186 C -110.26743,628.96988 -108.28384,623.73595 -108.28384,621.12393 C -108.28384,616.80554 -108.28384,574.26281 -108.28384,569.94443 C -108.28384,567.33242 -110.26743,568.96988 -113.51329,574.59186 C -128.1191,599.88986 -208.28384,692.55125 -208.28384,692.55125 C -208.28384,692.55125 -208.28384,692.55125 -208.28384,692.55125"
           id="path2924" />
        <path
           style="fill:#000000;fill-opacity:1;stroke:#000000"
           d="M -208.28384,591.00817 C -208.28384,591.00817 -291.75446,504.16784 -303.92597,483.08617 C -306.63085,478.40118 -308.28384,477.78591 -308.28384,481.05095 C -308.28384,486.44894 -308.28384,524.62734 -308.28384,530.02532 C -308.28384,533.29033 -306.63085,538.40118 -303.92597,543.08617 C -291.75446,564.16784 -208.28384,651.00817 -208.28384,651.00817 C -208.28384,651.00817 -124.81322,564.16784 -112.64171,543.08617 C -109.93683,538.40118 -108.28384,533.29031 -108.28384,530.02528 C -108.28384,524.62729 -108.28384,486.44889 -108.28384,481.05091 C -108.28384,477.7859 -109.93683,478.40118 -112.64171,483.08617 C -124.81322,504.16784 -208.28384,591.00817 -208.28384,591.00817 C -208.28384,591.00817 -208.28384,591.00817 -208.28384,591.00817"
           id="path2926" />
        <path
           style="fill:#000000;fill-opacity:1;stroke:#000000"
           d="M -208.28384,489.46508 C -208.28384,489.46508 -295.06034,408.44581 -304.79754,391.58048 C -306.96145,387.83249 -308.28384,388.23939 -308.28384,392.15743 C -308.28384,398.63502 -308.28384,432.4491 -308.28384,438.92668 C -308.28384,442.84469 -306.96145,447.83249 -304.79754,451.58048 C -295.06034,468.44581 -208.28384,549.46508 -208.28384,549.46508 C -208.28384,549.46508 -121.50734,468.44581 -111.77014,451.58048 C -109.60623,447.83249 -108.28384,442.84467 -108.28384,438.92663 C -108.28384,432.44904 -108.28384,398.63496 -108.28384,392.15739 C -108.28384,388.23937 -109.60623,387.83249 -111.77014,391.58048 C -121.50734,408.44581 -208.28384,489.46508 -208.28384,489.46508 C -208.28384,489.46508 -208.28384,489.46508 -208.28384,489.46508"
           id="path2928" />
        <path
           style="fill:#000000;fill-opacity:1;stroke:#000000"
           d="M -208.28384,387.922 C -208.28384,387.922 -298.36621,312.72379 -305.66912,300.07479 C -307.29204,297.26379 -308.28384,298.69287 -308.28384,303.26392 C -308.28384,310.8211 -308.28384,340.27087 -308.28384,347.82804 C -308.28384,352.39905 -307.29204,357.26379 -305.66912,360.07479 C -298.36621,372.72379 -208.28384,447.922 -208.28384,447.922 C -208.28384,447.922 -118.20147,372.72379 -110.89856,360.07479 C -109.27564,357.26379 -108.28384,352.39903 -108.28384,347.82798 C -108.28384,340.2708 -108.28384,310.82104 -108.28384,303.26387 C -108.28384,298.69285 -109.27564,297.26379 -110.89856,300.07479 C -118.20147,312.72379 -208.28384,387.922 -208.28384,387.922 C -208.28384,387.922 -208.28384,387.922 -208.28384,387.922"
           id="path2930" />
        <path
           style="fill:#000000;fill-opacity:1;stroke:#000000"
           d="M -208.28384,286.37891 C -208.28384,286.37891 -301.67209,217.00176 -306.54069,208.56909 C -307.62264,206.6951 -308.28384,209.14635 -308.28384,214.3704 C -308.28384,223.00719 -308.28384,248.09263 -308.28384,256.72939 C -308.28384,261.95342 -307.62264,266.6951 -306.54069,268.56909 C -301.67209,277.00176 -208.28384,346.37891 -208.28384,346.37891 C -208.28384,346.37891 -114.89559,277.00176 -110.02699,268.56909 C -108.94504,266.6951 -108.28384,261.95339 -108.28384,256.72934 C -108.28384,248.09255 -108.28384,223.00711 -108.28384,214.37034 C -108.28384,209.14632 -108.94504,206.6951 -110.02699,208.56909 C -114.89559,217.00176 -208.28384,286.37891 -208.28384,286.37891 C -208.28384,286.37891 -208.28384,286.37891 -208.28384,286.37891"
           id="path2932" />
        <path
           style="fill:#000000;fill-opacity:1;stroke:#000000"
           d="M -208.28384,184.83582 C -208.28384,184.83582 -304.97796,121.27973 -307.41227,117.0634 C -307.95324,116.1264 -308.28384,119.59983 -308.28384,125.47689 C -308.28384,135.19327 -308.28384,155.91439 -308.28384,165.63075 C -308.28384,171.50778 -307.95324,176.1264 -307.41227,177.0634 C -304.97796,181.27973 -208.28384,244.83583 -208.28384,244.83583 C -208.28384,244.83583 -111.58972,181.27973 -109.15541,177.0634 C -108.61444,176.1264 -108.28384,171.50775 -108.28384,165.63069 C -108.28384,155.91431 -108.28384,135.19318 -108.28384,125.47682 C -108.28384,119.5998 -108.61444,116.1264 -109.15541,117.0634 C -111.58972,121.27973 -208.28384,184.83582 -208.28384,184.83582 C -208.28384,184.83582 -208.28384,184.83582 -208.28384,184.83582"
           id="path2934" />
        <path
           style="fill:#000000;fill-opacity:1;stroke:#000000"
           d="M -208.28384,83.292737 C -208.28384,83.292737 -308.28384,25.557707 -308.28384,25.557707 C -308.28384,25.557707 -308.28384,30.053309 -308.28384,36.583374 C -308.28384,47.379355 -308.28384,63.736158 -308.28384,74.532114 C -308.28384,81.062139 -308.28384,85.557707 -308.28384,85.557707 C -308.28384,85.557707 -208.28384,143.29274 -208.28384,143.29274 C -208.28384,143.29274 -108.28384,85.557707 -108.28384,85.557707 C -108.28384,85.557707 -108.28384,81.062105 -108.28384,74.53204 C -108.28384,63.736059 -108.28384,47.379256 -108.28384,36.5833 C -108.28384,30.053275 -108.28384,25.557707 -108.28384,25.557707 C -108.28384,25.557707 -208.28384,83.292737 -208.28384,83.292737 C -208.28384,83.292737 -208.28384,83.292737 -208.28384,83.292737"
           id="path2936" />
      </g>
      <g
         id="use2938"
         transform="matrix(0.2996827,0,0,0.2996827,167.03717,118.01703)">
        <path
           id="path3174"
           d="M -208.28384,1098.7236 C -208.28384,1098.7236 -275.22508,982.77797 -299.56809,940.61464 C -304.97785,931.24466 -308.28384,925.51852 -308.28384,925.51852 C -308.28384,925.51852 -308.28384,985.51852 -308.28384,985.51852 C -308.28384,985.51852 -304.97785,991.24466 -299.56809,1000.6146 C -275.22508,1042.778 -208.28384,1158.7236 -208.28384,1158.7236 C -208.28384,1158.7236 -141.3426,1042.778 -116.99959,1000.6146 C -111.58983,991.24466 -108.28384,985.51852 -108.28384,985.51852 C -108.28384,985.51852 -108.28384,925.51852 -108.28384,925.51852 C -108.28384,925.51852 -111.58983,931.24466 -116.99959,940.61464 C -141.3426,982.77797 -208.28384,1098.7236 -208.28384,1098.7236 C -208.28384,1098.7236 -208.28384,1098.7236 -208.28384,1098.7236"
           style="fill:#000000;fill-opacity:1;stroke:#000000" />
        <path
           id="path3176"
           d="M -208.28384,997.18051 C -208.28384,997.18051 -278.53096,887.05594 -300.43967,849.10894 C -305.30845,840.67596 -308.28384,835.972 -308.28384,836.62501 C -308.28384,837.7046 -308.28384,893.34028 -308.28384,894.41988 C -308.28384,895.07288 -305.30845,900.67596 -300.43967,909.10894 C -278.53096,947.05594 -208.28384,1057.1805 -208.28384,1057.1805 C -208.28384,1057.1805 -138.03672,947.05594 -116.12801,909.10894 C -111.25923,900.67596 -108.28384,895.07288 -108.28384,894.41987 C -108.28384,893.34027 -108.28384,837.70459 -108.28384,836.625 C -108.28384,835.972 -111.25923,840.67596 -116.12801,849.10894 C -138.03672,887.05594 -208.28384,997.18051 -208.28384,997.18051 C -208.28384,997.18051 -208.28384,997.18051 -208.28384,997.18051"
           style="fill:#000000;fill-opacity:1;stroke:#000000" />
        <path
           id="path3178"
           d="M -208.28384,895.63743 C -208.28384,895.63743 -281.83683,791.33392 -301.31124,757.60325 C -305.63905,750.10727 -308.28384,746.42548 -308.28384,747.73149 C -308.28384,749.89069 -308.28384,801.16205 -308.28384,803.32124 C -308.28384,804.62724 -305.63905,810.10727 -301.31124,817.60325 C -281.83683,851.33392 -208.28384,955.63743 -208.28384,955.63743 C -208.28384,955.63743 -134.73085,851.33392 -115.25644,817.60325 C -110.92863,810.10727 -108.28384,804.62724 -108.28384,803.32122 C -108.28384,801.16203 -108.28384,749.89067 -108.28384,747.73148 C -108.28384,746.42547 -110.92863,750.10727 -115.25644,757.60325 C -134.73085,791.33392 -208.28384,895.63743 -208.28384,895.63743 C -208.28384,895.63743 -208.28384,895.63743 -208.28384,895.63743"
           style="fill:#000000;fill-opacity:1;stroke:#000000" />
        <path
           id="path3180"
           d="M -208.28384,794.09434 C -208.28384,794.09434 -285.14271,695.61189 -302.18282,666.09756 C -305.96965,659.53857 -308.28384,656.87896 -308.28384,658.83798 C -308.28384,662.07677 -308.28384,708.98381 -308.28384,712.2226 C -308.28384,714.18161 -305.96965,719.53857 -302.18282,726.09756 C -285.14271,755.61189 -208.28384,854.09434 -208.28384,854.09434 C -208.28384,854.09434 -131.42497,755.61189 -114.38486,726.09756 C -110.59803,719.53857 -108.28384,714.1816 -108.28384,712.22258 C -108.28384,708.98378 -108.28384,662.07674 -108.28384,658.83795 C -108.28384,656.87895 -110.59803,659.53857 -114.38486,666.09756 C -131.42497,695.61189 -208.28384,794.09434 -208.28384,794.09434 C -208.28384,794.09434 -208.28384,794.09434 -208.28384,794.09434"
           style="fill:#000000;fill-opacity:1;stroke:#000000" />
        <path
           id="path3182"
           d="M -208.28384,692.55125 C -208.28384,692.55125 -288.44858,599.88986 -303.05439,574.59186 C -306.30025,568.96988 -308.28384,567.33244 -308.28384,569.94446 C -308.28384,574.26285 -308.28384,616.80558 -308.28384,621.12396 C -308.28384,623.73597 -306.30025,628.96988 -303.05439,634.59186 C -288.44858,659.88986 -208.28384,752.55126 -208.28384,752.55126 C -208.28384,752.55126 -128.1191,659.88986 -113.51329,634.59186 C -110.26743,628.96988 -108.28384,623.73595 -108.28384,621.12393 C -108.28384,616.80554 -108.28384,574.26281 -108.28384,569.94443 C -108.28384,567.33242 -110.26743,568.96988 -113.51329,574.59186 C -128.1191,599.88986 -208.28384,692.55125 -208.28384,692.55125 C -208.28384,692.55125 -208.28384,692.55125 -208.28384,692.55125"
           style="fill:#000000;fill-opacity:1;stroke:#000000" />
        <path
           id="path3184"
           d="M -208.28384,591.00817 C -208.28384,591.00817 -291.75446,504.16784 -303.92597,483.08617 C -306.63085,478.40118 -308.28384,477.78591 -308.28384,481.05095 C -308.28384,486.44894 -308.28384,524.62734 -308.28384,530.02532 C -308.28384,533.29033 -306.63085,538.40118 -303.92597,543.08617 C -291.75446,564.16784 -208.28384,651.00817 -208.28384,651.00817 C -208.28384,651.00817 -124.81322,564.16784 -112.64171,543.08617 C -109.93683,538.40118 -108.28384,533.29031 -108.28384,530.02528 C -108.28384,524.62729 -108.28384,486.44889 -108.28384,481.05091 C -108.28384,477.7859 -109.93683,478.40118 -112.64171,483.08617 C -124.81322,504.16784 -208.28384,591.00817 -208.28384,591.00817 C -208.28384,591.00817 -208.28384,591.00817 -208.28384,591.00817"
           style="fill:#000000;fill-opacity:1;stroke:#000000" />
        <path
           id="path3186"
           d="M -208.28384,489.46508 C -208.28384,489.46508 -295.06034,408.44581 -304.79754,391.58048 C -306.96145,387.83249 -308.28384,388.23939 -308.28384,392.15743 C -308.28384,398.63502 -308.28384,432.4491 -308.28384,438.92668 C -308.28384,442.84469 -306.96145,447.83249 -304.79754,451.58048 C -295.06034,468.44581 -208.28384,549.46508 -208.28384,549.46508 C -208.28384,549.46508 -121.50734,468.44581 -111.77014,451.58048 C -109.60623,447.83249 -108.28384,442.84467 -108.28384,438.92663 C -108.28384,432.44904 -108.28384,398.63496 -108.28384,392.15739 C -108.28384,388.23937 -109.60623,387.83249 -111.77014,391.58048 C -121.50734,408.44581 -208.28384,489.46508 -208.28384,489.46508 C -208.28384,489.46508 -208.28384,489.46508 -208.28384,489.46508"
           style="fill:#000000;fill-opacity:1;stroke:#000000" />
        <path
           id="path3188"
           d="M -208.28384,387.922 C -208.28384,387.922 -298.36621,312.72379 -305.66912,300.07479 C -307.29204,297.26379 -308.28384,298.69287 -308.28384,303.26392 C -308.28384,310.8211 -308.28384,340.27087 -308.28384,347.82804 C -308.28384,352.39905 -307.29204,357.26379 -305.66912,360.07479 C -298.36621,372.72379 -208.28384,447.922 -208.28384,447.922 C -208.28384,447.922 -118.20147,372.72379 -110.89856,360.07479 C -109.27564,357.26379 -108.28384,352.39903 -108.28384,347.82798 C -108.28384,340.2708 -108.28384,310.82104 -108.28384,303.26387 C -108.28384,298.69285 -109.27564,297.26379 -110.89856,300.07479 C -118.20147,312.72379 -208.28384,387.922 -208.28384,387.922 C -208.28384,387.922 -208.28384,387.922 -208.28384,387.922"
           style="fill:#000000;fill-opacity:1;stroke:#000000" />
        <path
           id="path3190"
           d="M -208.28384,286.37891 C -208.28384,286.37891 -301.67209,217.00176 -306.54069,208.56909 C -307.62264,206.6951 -308.28384,209.14635 -308.28384,214.3704 C -308.28384,223.00719 -308.28384,248.09263 -308.28384,256.72939 C -308.28384,261.95342 -307.62264,266.6951 -306.54069,268.56909 C -301.67209,277.00176 -208.28384,346.37891 -208.28384,346.37891 C -208.28384,346.37891 -114.89559,277.00176 -110.02699,268.56909 C -108.94504,266.6951 -108.28384,261.95339 -108.28384,256.72934 C -108.28384,248.09255 -108.28384,223.00711 -108.28384,214.37034 C -108.28384,209.14632 -108.94504,206.6951 -110.02699,208.56909 C -114.89559,217.00176 -208.28384,286.37891 -208.28384,286.37891 C -208.28384,286.37891 -208.28384,286.37891 -208.28384,286.37891"
           style="fill:#000000;fill-opacity:1;stroke:#000000" />
        <path
           id="path3192"
           d="M -208.28384,184.83582 C -208.28384,184.83582 -304.97796,121.27973 -307.41227,117.0634 C -307.95324,116.1264 -308.28384,119.59983 -308.28384,125.47689 C -308.28384,135.19327 -308.28384,155.91439 -308.28384,165.63075 C -308.28384,171.50778 -307.95324,176.1264 -307.41227,177.0634 C -304.97796,181.27973 -208.28384,244.83583 -208.28384,244.83583 C -208.28384,244.83583 -111.58972,181.27973 -109.15541,177.0634 C -108.61444,176.1264 -108.28384,171.50775 -108.28384,165.63069 C -108.28384,155.91431 -108.28384,135.19318 -108.28384,125.47682 C -108.28384,119.5998 -108.61444,116.1264 -109.15541,117.0634 C -111.58972,121.27973 -208.28384,184.83582 -208.28384,184.83582 C -208.28384,184.83582 -208.28384,184.83582 -208.28384,184.83582"
           style="fill:#000000;fill-opacity:1;stroke:#000000" />
        <path
           id="path3194"
           d="M -208.28384,83.292737 C -208.28384,83.292737 -308.28384,25.557707 -308.28384,25.557707 C -308.28384,25.557707 -308.28384,30.053309 -308.28384,36.583374 C -308.28384,47.379355 -308.28384,63.736158 -308.28384,74.532114 C -308.28384,81.062139 -308.28384,85.557707 -308.28384,85.557707 C -308.28384,85.557707 -208.28384,143.29274 -208.28384,143.29274 C -208.28384,143.29274 -108.28384,85.557707 -108.28384,85.557707 C -108.28384,85.557707 -108.28384,81.062105 -108.28384,74.53204 C -108.28384,63.736059 -108.28384,47.379256 -108.28384,36.5833 C -108.28384,30.053275 -108.28384,25.557707 -108.28384,25.557707 C -108.28384,25.557707 -208.28384,83.292737 -208.28384,83.292737 C -208.28384,83.292737 -208.28384,83.292737 -208.28384,83.292737"
           style="fill:#000000;fill-opacity:1;stroke:#000000" />
      </g>
      <g
         id="use2940"
         transform="matrix(0.2996827,0,0,0.2996827,227.27339,118.01703)">
        <path
           id="path3198"
           d="M -208.28384,1098.7236 C -208.28384,1098.7236 -275.22508,982.77797 -299.56809,940.61464 C -304.97785,931.24466 -308.28384,925.51852 -308.28384,925.51852 C -308.28384,925.51852 -308.28384,985.51852 -308.28384,985.51852 C -308.28384,985.51852 -304.97785,991.24466 -299.56809,1000.6146 C -275.22508,1042.778 -208.28384,1158.7236 -208.28384,1158.7236 C -208.28384,1158.7236 -141.3426,1042.778 -116.99959,1000.6146 C -111.58983,991.24466 -108.28384,985.51852 -108.28384,985.51852 C -108.28384,985.51852 -108.28384,925.51852 -108.28384,925.51852 C -108.28384,925.51852 -111.58983,931.24466 -116.99959,940.61464 C -141.3426,982.77797 -208.28384,1098.7236 -208.28384,1098.7236 C -208.28384,1098.7236 -208.28384,1098.7236 -208.28384,1098.7236"
           style="fill:#000000;fill-opacity:1;stroke:#000000" />
        <path
           id="path3200"
           d="M -208.28384,997.18051 C -208.28384,997.18051 -278.53096,887.05594 -300.43967,849.10894 C -305.30845,840.67596 -308.28384,835.972 -308.28384,836.62501 C -308.28384,837.7046 -308.28384,893.34028 -308.28384,894.41988 C -308.28384,895.07288 -305.30845,900.67596 -300.43967,909.10894 C -278.53096,947.05594 -208.28384,1057.1805 -208.28384,1057.1805 C -208.28384,1057.1805 -138.03672,947.05594 -116.12801,909.10894 C -111.25923,900.67596 -108.28384,895.07288 -108.28384,894.41987 C -108.28384,893.34027 -108.28384,837.70459 -108.28384,836.625 C -108.28384,835.972 -111.25923,840.67596 -116.12801,849.10894 C -138.03672,887.05594 -208.28384,997.18051 -208.28384,997.18051 C -208.28384,997.18051 -208.28384,997.18051 -208.28384,997.18051"
           style="fill:#000000;fill-opacity:1;stroke:#000000" />
        <path
           id="path3202"
           d="M -208.28384,895.63743 C -208.28384,895.63743 -281.83683,791.33392 -301.31124,757.60325 C -305.63905,750.10727 -308.28384,746.42548 -308.28384,747.73149 C -308.28384,749.89069 -308.28384,801.16205 -308.28384,803.32124 C -308.28384,804.62724 -305.63905,810.10727 -301.31124,817.60325 C -281.83683,851.33392 -208.28384,955.63743 -208.28384,955.63743 C -208.28384,955.63743 -134.73085,851.33392 -115.25644,817.60325 C -110.92863,810.10727 -108.28384,804.62724 -108.28384,803.32122 C -108.28384,801.16203 -108.28384,749.89067 -108.28384,747.73148 C -108.28384,746.42547 -110.92863,750.10727 -115.25644,757.60325 C -134.73085,791.33392 -208.28384,895.63743 -208.28384,895.63743 C -208.28384,895.63743 -208.28384,895.63743 -208.28384,895.63743"
           style="fill:#000000;fill-opacity:1;stroke:#000000" />
        <path
           id="path3204"
           d="M -208.28384,794.09434 C -208.28384,794.09434 -285.14271,695.61189 -302.18282,666.09756 C -305.96965,659.53857 -308.28384,656.87896 -308.28384,658.83798 C -308.28384,662.07677 -308.28384,708.98381 -308.28384,712.2226 C -308.28384,714.18161 -305.96965,719.53857 -302.18282,726.09756 C -285.14271,755.61189 -208.28384,854.09434 -208.28384,854.09434 C -208.28384,854.09434 -131.42497,755.61189 -114.38486,726.09756 C -110.59803,719.53857 -108.28384,714.1816 -108.28384,712.22258 C -108.28384,708.98378 -108.28384,662.07674 -108.28384,658.83795 C -108.28384,656.87895 -110.59803,659.53857 -114.38486,666.09756 C -131.42497,695.61189 -208.28384,794.09434 -208.28384,794.09434 C -208.28384,794.09434 -208.28384,794.09434 -208.28384,794.09434"
           style="fill:#000000;fill-opacity:1;stroke:#000000" />
        <path
           id="path3206"
           d="M -208.28384,692.55125 C -208.28384,692.55125 -288.44858,599.88986 -303.05439,574.59186 C -306.30025,568.96988 -308.28384,567.33244 -308.28384,569.94446 C -308.28384,574.26285 -308.28384,616.80558 -308.28384,621.12396 C -308.28384,623.73597 -306.30025,628.96988 -303.05439,634.59186 C -288.44858,659.88986 -208.28384,752.55126 -208.28384,752.55126 C -208.28384,752.55126 -128.1191,659.88986 -113.51329,634.59186 C -110.26743,628.96988 -108.28384,623.73595 -108.28384,621.12393 C -108.28384,616.80554 -108.28384,574.26281 -108.28384,569.94443 C -108.28384,567.33242 -110.26743,568.96988 -113.51329,574.59186 C -128.1191,599.88986 -208.28384,692.55125 -208.28384,692.55125 C -208.28384,692.55125 -208.28384,692.55125 -208.28384,692.55125"
           style="fill:#000000;fill-opacity:1;stroke:#000000" />
        <path
           id="path3208"
           d="M -208.28384,591.00817 C -208.28384,591.00817 -291.75446,504.16784 -303.92597,483.08617 C -306.63085,478.40118 -308.28384,477.78591 -308.28384,481.05095 C -308.28384,486.44894 -308.28384,524.62734 -308.28384,530.02532 C -308.28384,533.29033 -306.63085,538.40118 -303.92597,543.08617 C -291.75446,564.16784 -208.28384,651.00817 -208.28384,651.00817 C -208.28384,651.00817 -124.81322,564.16784 -112.64171,543.08617 C -109.93683,538.40118 -108.28384,533.29031 -108.28384,530.02528 C -108.28384,524.62729 -108.28384,486.44889 -108.28384,481.05091 C -108.28384,477.7859 -109.93683,478.40118 -112.64171,483.08617 C -124.81322,504.16784 -208.28384,591.00817 -208.28384,591.00817 C -208.28384,591.00817 -208.28384,591.00817 -208.28384,591.00817"
           style="fill:#000000;fill-opacity:1;stroke:#000000" />
        <path
           id="path3210"
           d="M -208.28384,489.46508 C -208.28384,489.46508 -295.06034,408.44581 -304.79754,391.58048 C -306.96145,387.83249 -308.28384,388.23939 -308.28384,392.15743 C -308.28384,398.63502 -308.28384,432.4491 -308.28384,438.92668 C -308.28384,442.84469 -306.96145,447.83249 -304.79754,451.58048 C -295.06034,468.44581 -208.28384,549.46508 -208.28384,549.46508 C -208.28384,549.46508 -121.50734,468.44581 -111.77014,451.58048 C -109.60623,447.83249 -108.28384,442.84467 -108.28384,438.92663 C -108.28384,432.44904 -108.28384,398.63496 -108.28384,392.15739 C -108.28384,388.23937 -109.60623,387.83249 -111.77014,391.58048 C -121.50734,408.44581 -208.28384,489.46508 -208.28384,489.46508 C -208.28384,489.46508 -208.28384,489.46508 -208.28384,489.46508"
           style="fill:#000000;fill-opacity:1;stroke:#000000" />
        <path
           id="path3212"
           d="M -208.28384,387.922 C -208.28384,387.922 -298.36621,312.72379 -305.66912,300.07479 C -307.29204,297.26379 -308.28384,298.69287 -308.28384,303.26392 C -308.28384,310.8211 -308.28384,340.27087 -308.28384,347.82804 C -308.28384,352.39905 -307.29204,357.26379 -305.66912,360.07479 C -298.36621,372.72379 -208.28384,447.922 -208.28384,447.922 C -208.28384,447.922 -118.20147,372.72379 -110.89856,360.07479 C -109.27564,357.26379 -108.28384,352.39903 -108.28384,347.82798 C -108.28384,340.2708 -108.28384,310.82104 -108.28384,303.26387 C -108.28384,298.69285 -109.27564,297.26379 -110.89856,300.07479 C -118.20147,312.72379 -208.28384,387.922 -208.28384,387.922 C -208.28384,387.922 -208.28384,387.922 -208.28384,387.922"
           style="fill:#000000;fill-opacity:1;stroke:#000000" />
        <path
           id="path3214"
           d="M -208.28384,286.37891 C -208.28384,286.37891 -301.67209,217.00176 -306.54069,208.56909 C -307.62264,206.6951 -308.28384,209.14635 -308.28384,214.3704 C -308.28384,223.00719 -308.28384,248.09263 -308.28384,256.72939 C -308.28384,261.95342 -307.62264,266.6951 -306.54069,268.56909 C -301.67209,277.00176 -208.28384,346.37891 -208.28384,346.37891 C -208.28384,346.37891 -114.89559,277.00176 -110.02699,268.56909 C -108.94504,266.6951 -108.28384,261.95339 -108.28384,256.72934 C -108.28384,248.09255 -108.28384,223.00711 -108.28384,214.37034 C -108.28384,209.14632 -108.94504,206.6951 -110.02699,208.56909 C -114.89559,217.00176 -208.28384,286.37891 -208.28384,286.37891 C -208.28384,286.37891 -208.28384,286.37891 -208.28384,286.37891"
           style="fill:#000000;fill-opacity:1;stroke:#000000" />
        <path
           id="path3216"
           d="M -208.28384,184.83582 C -208.28384,184.83582 -304.97796,121.27973 -307.41227,117.0634 C -307.95324,116.1264 -308.28384,119.59983 -308.28384,125.47689 C -308.28384,135.19327 -308.28384,155.91439 -308.28384,165.63075 C -308.28384,171.50778 -307.95324,176.1264 -307.41227,177.0634 C -304.97796,181.27973 -208.28384,244.83583 -208.28384,244.83583 C -208.28384,244.83583 -111.58972,181.27973 -109.15541,177.0634 C -108.61444,176.1264 -108.28384,171.50775 -108.28384,165.63069 C -108.28384,155.91431 -108.28384,135.19318 -108.28384,125.47682 C -108.28384,119.5998 -108.61444,116.1264 -109.15541,117.0634 C -111.58972,121.27973 -208.28384,184.83582 -208.28384,184.83582 C -208.28384,184.83582 -208.28384,184.83582 -208.28384,184.83582"
           style="fill:#000000;fill-opacity:1;stroke:#000000" />
        <path
           id="path3218"
           d="M -208.28384,83.292737 C -208.28384,83.292737 -308.28384,25.557707 -308.28384,25.557707 C -308.28384,25.557707 -308.28384,30.053309 -308.28384,36.583374 C -308.28384,47.379355 -308.28384,63.736158 -308.28384,74.532114 C -308.28384,81.062139 -308.28384,85.557707 -308.28384,85.557707 C -308.28384,85.557707 -208.28384,143.29274 -208.28384,143.29274 C -208.28384,143.29274 -108.28384,85.557707 -108.28384,85.557707 C -108.28384,85.557707 -108.28384,81.062105 -108.28384,74.53204 C -108.28384,63.736059 -108.28384,47.379256 -108.28384,36.5833 C -108.28384,30.053275 -108.28384,25.557707 -108.28384,25.557707 C -108.28384,25.557707 -208.28384,83.292737 -208.28384,83.292737 C -208.28384,83.292737 -208.28384,83.292737 -208.28384,83.292737"
           style="fill:#000000;fill-opacity:1;stroke:#000000" />
      </g>
      <g
         id="use2942"
         transform="matrix(0.2996827,0,0,0.2996827,287.50962,118.01703)">
        <path
           id="path3222"
           d="M -208.28384,1098.7236 C -208.28384,1098.7236 -275.22508,982.77797 -299.56809,940.61464 C -304.97785,931.24466 -308.28384,925.51852 -308.28384,925.51852 C -308.28384,925.51852 -308.28384,985.51852 -308.28384,985.51852 C -308.28384,985.51852 -304.97785,991.24466 -299.56809,1000.6146 C -275.22508,1042.778 -208.28384,1158.7236 -208.28384,1158.7236 C -208.28384,1158.7236 -141.3426,1042.778 -116.99959,1000.6146 C -111.58983,991.24466 -108.28384,985.51852 -108.28384,985.51852 C -108.28384,985.51852 -108.28384,925.51852 -108.28384,925.51852 C -108.28384,925.51852 -111.58983,931.24466 -116.99959,940.61464 C -141.3426,982.77797 -208.28384,1098.7236 -208.28384,1098.7236 C -208.28384,1098.7236 -208.28384,1098.7236 -208.28384,1098.7236"
           style="fill:#000000;fill-opacity:1;stroke:#000000" />
        <path
           id="path3224"
           d="M -208.28384,997.18051 C -208.28384,997.18051 -278.53096,887.05594 -300.43967,849.10894 C -305.30845,840.67596 -308.28384,835.972 -308.28384,836.62501 C -308.28384,837.7046 -308.28384,893.34028 -308.28384,894.41988 C -308.28384,895.07288 -305.30845,900.67596 -300.43967,909.10894 C -278.53096,947.05594 -208.28384,1057.1805 -208.28384,1057.1805 C -208.28384,1057.1805 -138.03672,947.05594 -116.12801,909.10894 C -111.25923,900.67596 -108.28384,895.07288 -108.28384,894.41987 C -108.28384,893.34027 -108.28384,837.70459 -108.28384,836.625 C -108.28384,835.972 -111.25923,840.67596 -116.12801,849.10894 C -138.03672,887.05594 -208.28384,997.18051 -208.28384,997.18051 C -208.28384,997.18051 -208.28384,997.18051 -208.28384,997.18051"
           style="fill:#000000;fill-opacity:1;stroke:#000000" />
        <path
           id="path3226"
           d="M -208.28384,895.63743 C -208.28384,895.63743 -281.83683,791.33392 -301.31124,757.60325 C -305.63905,750.10727 -308.28384,746.42548 -308.28384,747.73149 C -308.28384,749.89069 -308.28384,801.16205 -308.28384,803.32124 C -308.28384,804.62724 -305.63905,810.10727 -301.31124,817.60325 C -281.83683,851.33392 -208.28384,955.63743 -208.28384,955.63743 C -208.28384,955.63743 -134.73085,851.33392 -115.25644,817.60325 C -110.92863,810.10727 -108.28384,804.62724 -108.28384,803.32122 C -108.28384,801.16203 -108.28384,749.89067 -108.28384,747.73148 C -108.28384,746.42547 -110.92863,750.10727 -115.25644,757.60325 C -134.73085,791.33392 -208.28384,895.63743 -208.28384,895.63743 C -208.28384,895.63743 -208.28384,895.63743 -208.28384,895.63743"
           style="fill:#000000;fill-opacity:1;stroke:#000000" />
        <path
           id="path3228"
           d="M -208.28384,794.09434 C -208.28384,794.09434 -285.14271,695.61189 -302.18282,666.09756 C -305.96965,659.53857 -308.28384,656.87896 -308.28384,658.83798 C -308.28384,662.07677 -308.28384,708.98381 -308.28384,712.2226 C -308.28384,714.18161 -305.96965,719.53857 -302.18282,726.09756 C -285.14271,755.61189 -208.28384,854.09434 -208.28384,854.09434 C -208.28384,854.09434 -131.42497,755.61189 -114.38486,726.09756 C -110.59803,719.53857 -108.28384,714.1816 -108.28384,712.22258 C -108.28384,708.98378 -108.28384,662.07674 -108.28384,658.83795 C -108.28384,656.87895 -110.59803,659.53857 -114.38486,666.09756 C -131.42497,695.61189 -208.28384,794.09434 -208.28384,794.09434 C -208.28384,794.09434 -208.28384,794.09434 -208.28384,794.09434"
           style="fill:#000000;fill-opacity:1;stroke:#000000" />
        <path
           id="path3230"
           d="M -208.28384,692.55125 C -208.28384,692.55125 -288.44858,599.88986 -303.05439,574.59186 C -306.30025,568.96988 -308.28384,567.33244 -308.28384,569.94446 C -308.28384,574.26285 -308.28384,616.80558 -308.28384,621.12396 C -308.28384,623.73597 -306.30025,628.96988 -303.05439,634.59186 C -288.44858,659.88986 -208.28384,752.55126 -208.28384,752.55126 C -208.28384,752.55126 -128.1191,659.88986 -113.51329,634.59186 C -110.26743,628.96988 -108.28384,623.73595 -108.28384,621.12393 C -108.28384,616.80554 -108.28384,574.26281 -108.28384,569.94443 C -108.28384,567.33242 -110.26743,568.96988 -113.51329,574.59186 C -128.1191,599.88986 -208.28384,692.55125 -208.28384,692.55125 C -208.28384,692.55125 -208.28384,692.55125 -208.28384,692.55125"
           style="fill:#000000;fill-opacity:1;stroke:#000000" />
        <path
           id="path3232"
           d="M -208.28384,591.00817 C -208.28384,591.00817 -291.75446,504.16784 -303.92597,483.08617 C -306.63085,478.40118 -308.28384,477.78591 -308.28384,481.05095 C -308.28384,486.44894 -308.28384,524.62734 -308.28384,530.02532 C -308.28384,533.29033 -306.63085,538.40118 -303.92597,543.08617 C -291.75446,564.16784 -208.28384,651.00817 -208.28384,651.00817 C -208.28384,651.00817 -124.81322,564.16784 -112.64171,543.08617 C -109.93683,538.40118 -108.28384,533.29031 -108.28384,530.02528 C -108.28384,524.62729 -108.28384,486.44889 -108.28384,481.05091 C -108.28384,477.7859 -109.93683,478.40118 -112.64171,483.08617 C -124.81322,504.16784 -208.28384,591.00817 -208.28384,591.00817 C -208.28384,591.00817 -208.28384,591.00817 -208.28384,591.00817"
           style="fill:#000000;fill-opacity:1;stroke:#000000" />
        <path
           id="path3234"
           d="M -208.28384,489.46508 C -208.28384,489.46508 -295.06034,408.44581 -304.79754,391.58048 C -306.96145,387.83249 -308.28384,388.23939 -308.28384,392.15743 C -308.28384,398.63502 -308.28384,432.4491 -308.28384,438.92668 C -308.28384,442.84469 -306.96145,447.83249 -304.79754,451.58048 C -295.06034,468.44581 -208.28384,549.46508 -208.28384,549.46508 C -208.28384,549.46508 -121.50734,468.44581 -111.77014,451.58048 C -109.60623,447.83249 -108.28384,442.84467 -108.28384,438.92663 C -108.28384,432.44904 -108.28384,398.63496 -108.28384,392.15739 C -108.28384,388.23937 -109.60623,387.83249 -111.77014,391.58048 C -121.50734,408.44581 -208.28384,489.46508 -208.28384,489.46508 C -208.28384,489.46508 -208.28384,489.46508 -208.28384,489.46508"
           style="fill:#000000;fill-opacity:1;stroke:#000000" />
        <path
           id="path3236"
           d="M -208.28384,387.922 C -208.28384,387.922 -298.36621,312.72379 -305.66912,300.07479 C -307.29204,297.26379 -308.28384,298.69287 -308.28384,303.26392 C -308.28384,310.8211 -308.28384,340.27087 -308.28384,347.82804 C -308.28384,352.39905 -307.29204,357.26379 -305.66912,360.07479 C -298.36621,372.72379 -208.28384,447.922 -208.28384,447.922 C -208.28384,447.922 -118.20147,372.72379 -110.89856,360.07479 C -109.27564,357.26379 -108.28384,352.39903 -108.28384,347.82798 C -108.28384,340.2708 -108.28384,310.82104 -108.28384,303.26387 C -108.28384,298.69285 -109.27564,297.26379 -110.89856,300.07479 C -118.20147,312.72379 -208.28384,387.922 -208.28384,387.922 C -208.28384,387.922 -208.28384,387.922 -208.28384,387.922"
           style="fill:#000000;fill-opacity:1;stroke:#000000" />
        <path
           id="path3238"
           d="M -208.28384,286.37891 C -208.28384,286.37891 -301.67209,217.00176 -306.54069,208.56909 C -307.62264,206.6951 -308.28384,209.14635 -308.28384,214.3704 C -308.28384,223.00719 -308.28384,248.09263 -308.28384,256.72939 C -308.28384,261.95342 -307.62264,266.6951 -306.54069,268.56909 C -301.67209,277.00176 -208.28384,346.37891 -208.28384,346.37891 C -208.28384,346.37891 -114.89559,277.00176 -110.02699,268.56909 C -108.94504,266.6951 -108.28384,261.95339 -108.28384,256.72934 C -108.28384,248.09255 -108.28384,223.00711 -108.28384,214.37034 C -108.28384,209.14632 -108.94504,206.6951 -110.02699,208.56909 C -114.89559,217.00176 -208.28384,286.37891 -208.28384,286.37891 C -208.28384,286.37891 -208.28384,286.37891 -208.28384,286.37891"
           style="fill:#000000;fill-opacity:1;stroke:#000000" />
        <path
           id="path3240"
           d="M -208.28384,184.83582 C -208.28384,184.83582 -304.97796,121.27973 -307.41227,117.0634 C -307.95324,116.1264 -308.28384,119.59983 -308.28384,125.47689 C -308.28384,135.19327 -308.28384,155.91439 -308.28384,165.63075 C -308.28384,171.50778 -307.95324,176.1264 -307.41227,177.0634 C -304.97796,181.27973 -208.28384,244.83583 -208.28384,244.83583 C -208.28384,244.83583 -111.58972,181.27973 -109.15541,177.0634 C -108.61444,176.1264 -108.28384,171.50775 -108.28384,165.63069 C -108.28384,155.91431 -108.28384,135.19318 -108.28384,125.47682 C -108.28384,119.5998 -108.61444,116.1264 -109.15541,117.0634 C -111.58972,121.27973 -208.28384,184.83582 -208.28384,184.83582 C -208.28384,184.83582 -208.28384,184.83582 -208.28384,184.83582"
           style="fill:#000000;fill-opacity:1;stroke:#000000" />
        <path
           id="path3242"
           d="M -208.28384,83.292737 C -208.28384,83.292737 -308.28384,25.557707 -308.28384,25.557707 C -308.28384,25.557707 -308.28384,30.053309 -308.28384,36.583374 C -308.28384,47.379355 -308.28384,63.736158 -308.28384,74.532114 C -308.28384,81.062139 -308.28384,85.557707 -308.28384,85.557707 C -308.28384,85.557707 -208.28384,143.29274 -208.28384,143.29274 C -208.28384,143.29274 -108.28384,85.557707 -108.28384,85.557707 C -108.28384,85.557707 -108.28384,81.062105 -108.28384,74.53204 C -108.28384,63.736059 -108.28384,47.379256 -108.28384,36.5833 C -108.28384,30.053275 -108.28384,25.557707 -108.28384,25.557707 C -108.28384,25.557707 -208.28384,83.292737 -208.28384,83.292737 C -208.28384,83.292737 -208.28384,83.292737 -208.28384,83.292737"
           style="fill:#000000;fill-opacity:1;stroke:#000000" />
      </g>
      <g
         id="use2944"
         transform="matrix(0.2996827,0,0,0.2996827,347.74584,118.01703)">
        <path
           id="path3246"
           d="M -208.28384,1098.7236 C -208.28384,1098.7236 -275.22508,982.77797 -299.56809,940.61464 C -304.97785,931.24466 -308.28384,925.51852 -308.28384,925.51852 C -308.28384,925.51852 -308.28384,985.51852 -308.28384,985.51852 C -308.28384,985.51852 -304.97785,991.24466 -299.56809,1000.6146 C -275.22508,1042.778 -208.28384,1158.7236 -208.28384,1158.7236 C -208.28384,1158.7236 -141.3426,1042.778 -116.99959,1000.6146 C -111.58983,991.24466 -108.28384,985.51852 -108.28384,985.51852 C -108.28384,985.51852 -108.28384,925.51852 -108.28384,925.51852 C -108.28384,925.51852 -111.58983,931.24466 -116.99959,940.61464 C -141.3426,982.77797 -208.28384,1098.7236 -208.28384,1098.7236 C -208.28384,1098.7236 -208.28384,1098.7236 -208.28384,1098.7236"
           style="fill:#000000;fill-opacity:1;stroke:#000000" />
        <path
           id="path3248"
           d="M -208.28384,997.18051 C -208.28384,997.18051 -278.53096,887.05594 -300.43967,849.10894 C -305.30845,840.67596 -308.28384,835.972 -308.28384,836.62501 C -308.28384,837.7046 -308.28384,893.34028 -308.28384,894.41988 C -308.28384,895.07288 -305.30845,900.67596 -300.43967,909.10894 C -278.53096,947.05594 -208.28384,1057.1805 -208.28384,1057.1805 C -208.28384,1057.1805 -138.03672,947.05594 -116.12801,909.10894 C -111.25923,900.67596 -108.28384,895.07288 -108.28384,894.41987 C -108.28384,893.34027 -108.28384,837.70459 -108.28384,836.625 C -108.28384,835.972 -111.25923,840.67596 -116.12801,849.10894 C -138.03672,887.05594 -208.28384,997.18051 -208.28384,997.18051 C -208.28384,997.18051 -208.28384,997.18051 -208.28384,997.18051"
           style="fill:#000000;fill-opacity:1;stroke:#000000" />
        <path
           id="path3250"
           d="M -208.28384,895.63743 C -208.28384,895.63743 -281.83683,791.33392 -301.31124,757.60325 C -305.63905,750.10727 -308.28384,746.42548 -308.28384,747.73149 C -308.28384,749.89069 -308.28384,801.16205 -308.28384,803.32124 C -308.28384,804.62724 -305.63905,810.10727 -301.31124,817.60325 C -281.83683,851.33392 -208.28384,955.63743 -208.28384,955.63743 C -208.28384,955.63743 -134.73085,851.33392 -115.25644,817.60325 C -110.92863,810.10727 -108.28384,804.62724 -108.28384,803.32122 C -108.28384,801.16203 -108.28384,749.89067 -108.28384,747.73148 C -108.28384,746.42547 -110.92863,750.10727 -115.25644,757.60325 C -134.73085,791.33392 -208.28384,895.63743 -208.28384,895.63743 C -208.28384,895.63743 -208.28384,895.63743 -208.28384,895.63743"
           style="fill:#000000;fill-opacity:1;stroke:#000000" />
        <path
           id="path3252"
           d="M -208.28384,794.09434 C -208.28384,794.09434 -285.14271,695.61189 -302.18282,666.09756 C -305.96965,659.53857 -308.28384,656.87896 -308.28384,658.83798 C -308.28384,662.07677 -308.28384,708.98381 -308.28384,712.2226 C -308.28384,714.18161 -305.96965,719.53857 -302.18282,726.09756 C -285.14271,755.61189 -208.28384,854.09434 -208.28384,854.09434 C -208.28384,854.09434 -131.42497,755.61189 -114.38486,726.09756 C -110.59803,719.53857 -108.28384,714.1816 -108.28384,712.22258 C -108.28384,708.98378 -108.28384,662.07674 -108.28384,658.83795 C -108.28384,656.87895 -110.59803,659.53857 -114.38486,666.09756 C -131.42497,695.61189 -208.28384,794.09434 -208.28384,794.09434 C -208.28384,794.09434 -208.28384,794.09434 -208.28384,794.09434"
           style="fill:#000000;fill-opacity:1;stroke:#000000" />
        <path
           id="path3254"
           d="M -208.28384,692.55125 C -208.28384,692.55125 -288.44858,599.88986 -303.05439,574.59186 C -306.30025,568.96988 -308.28384,567.33244 -308.28384,569.94446 C -308.28384,574.26285 -308.28384,616.80558 -308.28384,621.12396 C -308.28384,623.73597 -306.30025,628.96988 -303.05439,634.59186 C -288.44858,659.88986 -208.28384,752.55126 -208.28384,752.55126 C -208.28384,752.55126 -128.1191,659.88986 -113.51329,634.59186 C -110.26743,628.96988 -108.28384,623.73595 -108.28384,621.12393 C -108.28384,616.80554 -108.28384,574.26281 -108.28384,569.94443 C -108.28384,567.33242 -110.26743,568.96988 -113.51329,574.59186 C -128.1191,599.88986 -208.28384,692.55125 -208.28384,692.55125 C -208.28384,692.55125 -208.28384,692.55125 -208.28384,692.55125"
           style="fill:#000000;fill-opacity:1;stroke:#000000" />
        <path
           id="path3256"
           d="M -208.28384,591.00817 C -208.28384,591.00817 -291.75446,504.16784 -303.92597,483.08617 C -306.63085,478.40118 -308.28384,477.78591 -308.28384,481.05095 C -308.28384,486.44894 -308.28384,524.62734 -308.28384,530.02532 C -308.28384,533.29033 -306.63085,538.40118 -303.92597,543.08617 C -291.75446,564.16784 -208.28384,651.00817 -208.28384,651.00817 C -208.28384,651.00817 -124.81322,564.16784 -112.64171,543.08617 C -109.93683,538.40118 -108.28384,533.29031 -108.28384,530.02528 C -108.28384,524.62729 -108.28384,486.44889 -108.28384,481.05091 C -108.28384,477.7859 -109.93683,478.40118 -112.64171,483.08617 C -124.81322,504.16784 -208.28384,591.00817 -208.28384,591.00817 C -208.28384,591.00817 -208.28384,591.00817 -208.28384,591.00817"
           style="fill:#000000;fill-opacity:1;stroke:#000000" />
        <path
           id="path3258"
           d="M -208.28384,489.46508 C -208.28384,489.46508 -295.06034,408.44581 -304.79754,391.58048 C -306.96145,387.83249 -308.28384,388.23939 -308.28384,392.15743 C -308.28384,398.63502 -308.28384,432.4491 -308.28384,438.92668 C -308.28384,442.84469 -306.96145,447.83249 -304.79754,451.58048 C -295.06034,468.44581 -208.28384,549.46508 -208.28384,549.46508 C -208.28384,549.46508 -121.50734,468.44581 -111.77014,451.58048 C -109.60623,447.83249 -108.28384,442.84467 -108.28384,438.92663 C -108.28384,432.44904 -108.28384,398.63496 -108.28384,392.15739 C -108.28384,388.23937 -109.60623,387.83249 -111.77014,391.58048 C -121.50734,408.44581 -208.28384,489.46508 -208.28384,489.46508 C -208.28384,489.46508 -208.28384,489.46508 -208.28384,489.46508"
           style="fill:#000000;fill-opacity:1;stroke:#000000" />
        <path
           id="path3260"
           d="M -208.28384,387.922 C -208.28384,387.922 -298.36621,312.72379 -305.66912,300.07479 C -307.29204,297.26379 -308.28384,298.69287 -308.28384,303.26392 C -308.28384,310.8211 -308.28384,340.27087 -308.28384,347.82804 C -308.28384,352.39905 -307.29204,357.26379 -305.66912,360.07479 C -298.36621,372.72379 -208.28384,447.922 -208.28384,447.922 C -208.28384,447.922 -118.20147,372.72379 -110.89856,360.07479 C -109.27564,357.26379 -108.28384,352.39903 -108.28384,347.82798 C -108.28384,340.2708 -108.28384,310.82104 -108.28384,303.26387 C -108.28384,298.69285 -109.27564,297.26379 -110.89856,300.07479 C -118.20147,312.72379 -208.28384,387.922 -208.28384,387.922 C -208.28384,387.922 -208.28384,387.922 -208.28384,387.922"
           style="fill:#000000;fill-opacity:1;stroke:#000000" />
        <path
           id="path3262"
           d="M -208.28384,286.37891 C -208.28384,286.37891 -301.67209,217.00176 -306.54069,208.56909 C -307.62264,206.6951 -308.28384,209.14635 -308.28384,214.3704 C -308.28384,223.00719 -308.28384,248.09263 -308.28384,256.72939 C -308.28384,261.95342 -307.62264,266.6951 -306.54069,268.56909 C -301.67209,277.00176 -208.28384,346.37891 -208.28384,346.37891 C -208.28384,346.37891 -114.89559,277.00176 -110.02699,268.56909 C -108.94504,266.6951 -108.28384,261.95339 -108.28384,256.72934 C -108.28384,248.09255 -108.28384,223.00711 -108.28384,214.37034 C -108.28384,209.14632 -108.94504,206.6951 -110.02699,208.56909 C -114.89559,217.00176 -208.28384,286.37891 -208.28384,286.37891 C -208.28384,286.37891 -208.28384,286.37891 -208.28384,286.37891"
           style="fill:#000000;fill-opacity:1;stroke:#000000" />
        <path
           id="path3264"
           d="M -208.28384,184.83582 C -208.28384,184.83582 -304.97796,121.27973 -307.41227,117.0634 C -307.95324,116.1264 -308.28384,119.59983 -308.28384,125.47689 C -308.28384,135.19327 -308.28384,155.91439 -308.28384,165.63075 C -308.28384,171.50778 -307.95324,176.1264 -307.41227,177.0634 C -304.97796,181.27973 -208.28384,244.83583 -208.28384,244.83583 C -208.28384,244.83583 -111.58972,181.27973 -109.15541,177.0634 C -108.61444,176.1264 -108.28384,171.50775 -108.28384,165.63069 C -108.28384,155.91431 -108.28384,135.19318 -108.28384,125.47682 C -108.28384,119.5998 -108.61444,116.1264 -109.15541,117.0634 C -111.58972,121.27973 -208.28384,184.83582 -208.28384,184.83582 C -208.28384,184.83582 -208.28384,184.83582 -208.28384,184.83582"
           style="fill:#000000;fill-opacity:1;stroke:#000000" />
        <path
           id="path3266"
           d="M -208.28384,83.292737 C -208.28384,83.292737 -308.28384,25.557707 -308.28384,25.557707 C -308.28384,25.557707 -308.28384,30.053309 -308.28384,36.583374 C -308.28384,47.379355 -308.28384,63.736158 -308.28384,74.532114 C -308.28384,81.062139 -308.28384,85.557707 -308.28384,85.557707 C -308.28384,85.557707 -208.28384,143.29274 -208.28384,143.29274 C -208.28384,143.29274 -108.28384,85.557707 -108.28384,85.557707 C -108.28384,85.557707 -108.28384,81.062105 -108.28384,74.53204 C -108.28384,63.736059 -108.28384,47.379256 -108.28384,36.5833 C -108.28384,30.053275 -108.28384,25.557707 -108.28384,25.557707 C -108.28384,25.557707 -208.28384,83.292737 -208.28384,83.292737 C -208.28384,83.292737 -208.28384,83.292737 -208.28384,83.292737"
           style="fill:#000000;fill-opacity:1;stroke:#000000" />
      </g>
    </g>
    <use
       x="0"
       y="0"
       inkscape:tiled-clone-of="#g2912"
       xlink:href="#g2912"
       transform="translate(-7.2222223e-7,359.33434)"
       id="use3374"
       width="765"
       height="990" />
    <use
       x="0"
       y="0"
       inkscape:tiled-clone-of="#g2912"
       xlink:href="#g2912"
       transform="translate(272.88934,-2.7777769)"
       id="use3376"
       width="765"
       height="990" />
    <use
       x="0"
       y="0"
       inkscape:tiled-clone-of="#g2912"
       xlink:href="#g2912"
       transform="translate(275.66712,359.33434)"
       id="use3378"
       width="765"
       height="990" />
  </g>
</svg>
