<svg svg="http://www.w3.org/2000/svg" xlink="http://www.w3.org/1999/xlink" width="1280" height="1280">
  <defs/>
  <g id="canvas" transform="matrix(1,0,0,-1,0,1280) translate(640,640)">
    <g id="hexagonlattice">
      <circle style="stroke:black;fill:none" cx="0.00000" r="50.00000" cy="0.00000"/>
      <g id="flowerlayer1">
        <circle style="stroke:black;fill:none" cx="25.00000" r="50.00000" cy="43.30127"/>
        <circle style="stroke:black;fill:none" cx="50.00000" r="50.00000" cy="0.00000"/>
        <circle style="stroke:black;fill:none" cx="25.00000" r="50.00000" cy="-43.30127"/>
        <circle style="stroke:black;fill:none" cx="-25.00000" r="50.00000" cy="-43.30127"/>
        <circle style="stroke:black;fill:none" cx="-50.00000" r="50.00000" cy="-0.00000"/>
        <circle style="stroke:black;fill:none" cx="-25.00000" r="50.00000" cy="43.30127"/>
      </g>
      <g id="flowerlayer2">
        <circle style="stroke:black;fill:none" cx="50.00000" r="50.00000" cy="86.60254"/>
        <circle style="stroke:black;fill:none" cx="75.00000" r="50.00000" cy="43.30127"/>
        <circle style="stroke:black;fill:none" cx="100.00000" r="50.00000" cy="0.00000"/>
        <circle style="stroke:black;fill:none" cx="75.00000" r="50.00000" cy="-43.30127"/>
        <circle style="stroke:black;fill:none" cx="50.00000" r="50.00000" cy="-86.60254"/>
        <circle style="stroke:black;fill:none" cx="0.00000" r="50.00000" cy="-86.60254"/>
        <circle style="stroke:black;fill:none" cx="-50.00000" r="50.00000" cy="-86.60254"/>
        <circle style="stroke:black;fill:none" cx="-75.00000" r="50.00000" cy="-43.30127"/>
        <circle style="stroke:black;fill:none" cx="-100.00000" r="50.00000" cy="-0.00000"/>
        <circle style="stroke:black;fill:none" cx="-75.00000" r="50.00000" cy="43.30127"/>
        <circle style="stroke:black;fill:none" cx="-50.00000" r="50.00000" cy="86.60254"/>
        <circle style="stroke:black;fill:none" cx="0.00000" r="50.00000" cy="86.60254"/>
      </g>
      <g id="flowerlayer3">
        <circle style="stroke:black;fill:none" cx="75.00000" r="50.00000" cy="129.90381"/>
        <circle style="stroke:black;fill:none" cx="100.00000" r="50.00000" cy="86.60254"/>
        <circle style="stroke:black;fill:none" cx="125.00000" r="50.00000" cy="43.30127"/>
        <circle style="stroke:black;fill:none" cx="150.00000" r="50.00000" cy="0.00000"/>
        <circle style="stroke:black;fill:none" cx="125.00000" r="50.00000" cy="-43.30127"/>
        <circle style="stroke:black;fill:none" cx="100.00000" r="50.00000" cy="-86.60254"/>
        <circle style="stroke:black;fill:none" cx="75.00000" r="50.00000" cy="-129.90381"/>
        <circle style="stroke:black;fill:none" cx="25.00000" r="50.00000" cy="-129.90381"/>
        <circle style="stroke:black;fill:none" cx="-25.00000" r="50.00000" cy="-129.90381"/>
        <circle style="stroke:black;fill:none" cx="-75.00000" r="50.00000" cy="-129.90381"/>
        <circle style="stroke:black;fill:none" cx="-100.00000" r="50.00000" cy="-86.60254"/>
        <circle style="stroke:black;fill:none" cx="-125.00000" r="50.00000" cy="-43.30127"/>
        <circle style="stroke:black;fill:none" cx="-150.00000" r="50.00000" cy="-0.00000"/>
        <circle style="stroke:black;fill:none" cx="-125.00000" r="50.00000" cy="43.30127"/>
        <circle style="stroke:black;fill:none" cx="-100.00000" r="50.00000" cy="86.60254"/>
        <circle style="stroke:black;fill:none" cx="-75.00000" r="50.00000" cy="129.90381"/>
        <circle style="stroke:black;fill:none" cx="-25.00000" r="50.00000" cy="129.90381"/>
        <circle style="stroke:black;fill:none" cx="25.00000" r="50.00000" cy="129.90381"/>
      </g>
      <g id="flowerlayer4">
        <circle style="stroke:black;fill:none" cx="100.00000" r="50.00000" cy="173.20508"/>
        <circle style="stroke:black;fill:none" cx="125.00000" r="50.00000" cy="129.90381"/>
        <circle style="stroke:black;fill:none" cx="150.00000" r="50.00000" cy="86.60254"/>
        <circle style="stroke:black;fill:none" cx="175.00000" r="50.00000" cy="43.30127"/>
        <circle style="stroke:black;fill:none" cx="200.00000" r="50.00000" cy="0.00000"/>
        <circle style="stroke:black;fill:none" cx="175.00000" r="50.00000" cy="-43.30127"/>
        <circle style="stroke:black;fill:none" cx="150.00000" r="50.00000" cy="-86.60254"/>
        <circle style="stroke:black;fill:none" cx="125.00000" r="50.00000" cy="-129.90381"/>
        <circle style="stroke:black;fill:none" cx="100.00000" r="50.00000" cy="-173.20508"/>
        <circle style="stroke:black;fill:none" cx="50.00000" r="50.00000" cy="-173.20508"/>
        <circle style="stroke:black;fill:none" cx="0.00000" r="50.00000" cy="-173.20508"/>
        <circle style="stroke:black;fill:none" cx="-50.00000" r="50.00000" cy="-173.20508"/>
        <circle style="stroke:black;fill:none" cx="-100.00000" r="50.00000" cy="-173.20508"/>
        <circle style="stroke:black;fill:none" cx="-125.00000" r="50.00000" cy="-129.90381"/>
        <circle style="stroke:black;fill:none" cx="-150.00000" r="50.00000" cy="-86.60254"/>
        <circle style="stroke:black;fill:none" cx="-175.00000" r="50.00000" cy="-43.30127"/>
        <circle style="stroke:black;fill:none" cx="-200.00000" r="50.00000" cy="-0.00000"/>
        <circle style="stroke:black;fill:none" cx="-175.00000" r="50.00000" cy="43.30127"/>
        <circle style="stroke:black;fill:none" cx="-150.00000" r="50.00000" cy="86.60254"/>
        <circle style="stroke:black;fill:none" cx="-125.00000" r="50.00000" cy="129.90381"/>
        <circle style="stroke:black;fill:none" cx="-100.00000" r="50.00000" cy="173.20508"/>
        <circle style="stroke:black;fill:none" cx="-50.00000" r="50.00000" cy="173.20508"/>
        <circle style="stroke:black;fill:none" cx="0.00000" r="50.00000" cy="173.20508"/>
        <circle style="stroke:black;fill:none" cx="50.00000" r="50.00000" cy="173.20508"/>
      </g>
      <g id="flowerlayer5">
        <circle style="stroke:black;fill:none" cx="125.00000" r="50.00000" cy="216.50635"/>
        <circle style="stroke:black;fill:none" cx="150.00000" r="50.00000" cy="173.20508"/>
        <circle style="stroke:black;fill:none" cx="175.00000" r="50.00000" cy="129.90381"/>
        <circle style="stroke:black;fill:none" cx="200.00000" r="50.00000" cy="86.60254"/>
        <circle style="stroke:black;fill:none" cx="225.00000" r="50.00000" cy="43.30127"/>
        <circle style="stroke:black;fill:none" cx="250.00000" r="50.00000" cy="0.00000"/>
        <circle style="stroke:black;fill:none" cx="225.00000" r="50.00000" cy="-43.30127"/>
        <circle style="stroke:black;fill:none" cx="200.00000" r="50.00000" cy="-86.60254"/>
        <circle style="stroke:black;fill:none" cx="175.00000" r="50.00000" cy="-129.90381"/>
        <circle style="stroke:black;fill:none" cx="150.00000" r="50.00000" cy="-173.20508"/>
        <circle style="stroke:black;fill:none" cx="125.00000" r="50.00000" cy="-216.50635"/>
        <circle style="stroke:black;fill:none" cx="75.00000" r="50.00000" cy="-216.50635"/>
        <circle style="stroke:black;fill:none" cx="25.00000" r="50.00000" cy="-216.50635"/>
        <circle style="stroke:black;fill:none" cx="-25.00000" r="50.00000" cy="-216.50635"/>
        <circle style="stroke:black;fill:none" cx="-75.00000" r="50.00000" cy="-216.50635"/>
        <circle style="stroke:black;fill:none" cx="-125.00000" r="50.00000" cy="-216.50635"/>
        <circle style="stroke:black;fill:none" cx="-150.00000" r="50.00000" cy="-173.20508"/>
        <circle style="stroke:black;fill:none" cx="-175.00000" r="50.00000" cy="-129.90381"/>
        <circle style="stroke:black;fill:none" cx="-200.00000" r="50.00000" cy="-86.60254"/>
        <circle style="stroke:black;fill:none" cx="-225.00000" r="50.00000" cy="-43.30127"/>
        <circle style="stroke:black;fill:none" cx="-250.00000" r="50.00000" cy="-0.00000"/>
        <circle style="stroke:black;fill:none" cx="-225.00000" r="50.00000" cy="43.30127"/>
        <circle style="stroke:black;fill:none" cx="-200.00000" r="50.00000" cy="86.60254"/>
        <circle style="stroke:black;fill:none" cx="-175.00000" r="50.00000" cy="129.90381"/>
        <circle style="stroke:black;fill:none" cx="-150.00000" r="50.00000" cy="173.20508"/>
        <circle style="stroke:black;fill:none" cx="-125.00000" r="50.00000" cy="216.50635"/>
        <circle style="stroke:black;fill:none" cx="-75.00000" r="50.00000" cy="216.50635"/>
        <circle style="stroke:black;fill:none" cx="-25.00000" r="50.00000" cy="216.50635"/>
        <circle style="stroke:black;fill:none" cx="25.00000" r="50.00000" cy="216.50635"/>
        <circle style="stroke:black;fill:none" cx="75.00000" r="50.00000" cy="216.50635"/>
      </g>
      <g id="flowerlayer6">
        <circle style="stroke:black;fill:none" cx="150.00000" r="50.00000" cy="259.80762"/>
        <circle style="stroke:black;fill:none" cx="175.00000" r="50.00000" cy="216.50635"/>
        <circle style="stroke:black;fill:none" cx="200.00000" r="50.00000" cy="173.20508"/>
        <circle style="stroke:black;fill:none" cx="225.00000" r="50.00000" cy="129.90381"/>
        <circle style="stroke:black;fill:none" cx="250.00000" r="50.00000" cy="86.60254"/>
        <circle style="stroke:black;fill:none" cx="275.00000" r="50.00000" cy="43.30127"/>
        <circle style="stroke:black;fill:none" cx="300.00000" r="50.00000" cy="0.00000"/>
        <circle style="stroke:black;fill:none" cx="275.00000" r="50.00000" cy="-43.30127"/>
        <circle style="stroke:black;fill:none" cx="250.00000" r="50.00000" cy="-86.60254"/>
        <circle style="stroke:black;fill:none" cx="225.00000" r="50.00000" cy="-129.90381"/>
        <circle style="stroke:black;fill:none" cx="200.00000" r="50.00000" cy="-173.20508"/>
        <circle style="stroke:black;fill:none" cx="175.00000" r="50.00000" cy="-216.50635"/>
        <circle style="stroke:black;fill:none" cx="150.00000" r="50.00000" cy="-259.80762"/>
        <circle style="stroke:black;fill:none" cx="100.00000" r="50.00000" cy="-259.80762"/>
        <circle style="stroke:black;fill:none" cx="50.00000" r="50.00000" cy="-259.80762"/>
        <circle style="stroke:black;fill:none" cx="0.00000" r="50.00000" cy="-259.80762"/>
        <circle style="stroke:black;fill:none" cx="-50.00000" r="50.00000" cy="-259.80762"/>
        <circle style="stroke:black;fill:none" cx="-100.00000" r="50.00000" cy="-259.80762"/>
        <circle style="stroke:black;fill:none" cx="-150.00000" r="50.00000" cy="-259.80762"/>
        <circle style="stroke:black;fill:none" cx="-175.00000" r="50.00000" cy="-216.50635"/>
        <circle style="stroke:black;fill:none" cx="-200.00000" r="50.00000" cy="-173.20508"/>
        <circle style="stroke:black;fill:none" cx="-225.00000" r="50.00000" cy="-129.90381"/>
        <circle style="stroke:black;fill:none" cx="-250.00000" r="50.00000" cy="-86.60254"/>
        <circle style="stroke:black;fill:none" cx="-275.00000" r="50.00000" cy="-43.30127"/>
        <circle style="stroke:black;fill:none" cx="-300.00000" r="50.00000" cy="-0.00000"/>
        <circle style="stroke:black;fill:none" cx="-275.00000" r="50.00000" cy="43.30127"/>
        <circle style="stroke:black;fill:none" cx="-250.00000" r="50.00000" cy="86.60254"/>
        <circle style="stroke:black;fill:none" cx="-225.00000" r="50.00000" cy="129.90381"/>
        <circle style="stroke:black;fill:none" cx="-200.00000" r="50.00000" cy="173.20508"/>
        <circle style="stroke:black;fill:none" cx="-175.00000" r="50.00000" cy="216.50635"/>
        <circle style="stroke:black;fill:none" cx="-150.00000" r="50.00000" cy="259.80762"/>
        <circle style="stroke:black;fill:none" cx="-100.00000" r="50.00000" cy="259.80762"/>
        <circle style="stroke:black;fill:none" cx="-50.00000" r="50.00000" cy="259.80762"/>
        <circle style="stroke:black;fill:none" cx="0.00000" r="50.00000" cy="259.80762"/>
        <circle style="stroke:black;fill:none" cx="50.00000" r="50.00000" cy="259.80762"/>
        <circle style="stroke:black;fill:none" cx="100.00000" r="50.00000" cy="259.80762"/>
      </g>
    </g>
  </g>
</svg>
