<svg xmlns:ns0="http://www.w3.org/2000/svg" xlink="http://www.w3.org/1999/xlink" xmlns="http://www.w3.org/2000/svg" ns0:svg="http://www.w3.org/2000/svg" width="1280" height="1280">
  <defs/>
  <g id="canvas" transform="matrix(1,0,0,-1,0,1280) translate(640,640)">
    <path style="stroke:none;fill:black;fill-rule:evenodd" id="criss" d="M0.00000,-225.00000 L60.70099,-596.92159 L0.00000,225.00000 L60.70099,596.92159 L0.00000,-225.00000 L120.77911,-587.71796 L0.00000,225.00000 L120.77911,587.71796 L0.00000,-225.00000 L179.61787,-572.48355 L0.00000,225.00000 L179.61787,572.48355 L0.00000,-225.00000 L236.61351,-551.37469 L0.00000,225.00000 L236.61351,551.37469 L0.00000,-225.00000 L291.18118,-524.60797 L0.00000,225.00000 L291.18118,524.60797 L0.00000,-225.00000 L342.76093,-492.45806 L0.00000,225.00000 L342.76093,492.45806 L0.00000,-225.00000 L390.82349,-455.25487 L0.00000,225.00000 L390.82349,455.25487 L0.00000,-225.00000 L434.87567,-413.38015 L0.00000,225.00000 L434.87567,413.38015 L0.00000,-225.00000 L474.46544,-367.26359 L0.00000,225.00000 L474.46544,367.26359 L0.00000,-225.00000 L509.18655,-317.37841 L0.00000,225.00000 L509.18655,317.37841 L0.00000,-225.00000 L538.68272,-264.23649 L0.00000,225.00000 L538.68272,264.23649 L0.00000,-225.00000 L562.65128,-208.38315 L0.00000,225.00000 L562.65128,208.38315 L0.00000,-225.00000 L580.84627,-150.39152 L0.00000,225.00000 L580.84627,150.39152 L0.00000,-225.00000 L593.08099,-90.85667 L0.00000,225.00000 L593.08099,90.85667 L0.00000,-225.00000 L599.22990,-30.38950 L0.00000,225.00000 L599.22990,30.38950 L0.00000,-225.00000 Z"/>
    <use xmlns:ns0="http://www.w3.org/1999/xlink" ns0:href="#criss" transform="rotate(180)"/>
  </g>
</svg>
