<?xml version="1.0" encoding="UTF-8" standalone="no"?>
<svg
   xmlns:dc="http://purl.org/dc/elements/1.1/"
   xmlns:cc="http://web.resource.org/cc/"
   xmlns:rdf="http://www.w3.org/1999/02/22-rdf-syntax-ns#"
   xmlns:svg="http://www.w3.org/2000/svg"
   xmlns="http://www.w3.org/2000/svg"
   xmlns:xlink="http://www.w3.org/1999/xlink"
   xmlns:sodipodi="http://sodipodi.sourceforge.net/DTD/sodipodi-0.dtd"
   xmlns:inkscape="http://www.inkscape.org/namespaces/inkscape"
   width="590"
   xlink:xlink="xlink"
   height="590"
   id="svg42293"
   sodipodi:version="0.32"
   inkscape:version="0.45"
   sodipodi:docname="hexsplay11.svg"
   sodipodi:docbase="/media/oldubu/home/tamarind/0_Code_0/play-svg/scripts/images"
   inkscape:output_extension="org.inkscape.output.svg.inkscape"
   inkscape:export-filename="/media/oldubu/home/tamarind/0_Code_0/play-svg/scripts/images/hexsplay11.png"
   inkscape:export-xdpi="93"
   inkscape:export-ydpi="93"
   sodipodi:modified="TRUE">
  <metadata
     id="metadata42311">
    <rdf:RDF>
      <cc:Work
         rdf:about="">
        <dc:format>image/svg+xml</dc:format>
        <dc:type
           rdf:resource="http://purl.org/dc/dcmitype/StillImage" />
      </cc:Work>
    </rdf:RDF>
  </metadata>
  <sodipodi:namedview
     inkscape:window-height="626"
     inkscape:window-width="874"
     inkscape:pageshadow="2"
     inkscape:pageopacity="0.0"
     guidetolerance="10.0"
     gridtolerance="10.0"
     objecttolerance="10.0"
     borderopacity="1.0"
     bordercolor="#666666"
     pagecolor="#ffffff"
     id="base"
     inkscape:zoom="0.79714441"
     inkscape:cx="298.62409"
     inkscape:cy="405.25121"
     inkscape:window-x="140"
     inkscape:window-y="73"
     inkscape:current-layer="svg42293" />
  <defs
     id="defs42295" />
  <g
     id="g46205"
     transform="translate(-3.6240887,-3.6240699)">
    <g
       id="g46201">
      <path
         sodipodi:type="arc"
         style="opacity:1;fill:#ffffff;fill-opacity:1;fill-rule:evenodd;stroke:#000000;stroke-width:9;stroke-linejoin:round;stroke-miterlimit:4;stroke-dasharray:none;stroke-opacity:1"
         id="path44251"
         sodipodi:cx="289.9263"
         sodipodi:cy="297.17444"
         sodipodi:rx="250.78624"
         sodipodi:ry="250.78624"
         d="M 540.71254 297.17444 A 250.78624 250.78624 0 1 1  39.14006,297.17444 A 250.78624 250.78624 0 1 1  540.71254 297.17444 z"
         transform="translate(8.6977887,1.4496314)" />
      <path
         sodipodi:type="arc"
         style="opacity:1;fill:none;fill-opacity:1;fill-rule:evenodd;stroke:#ffffff;stroke-width:3;stroke-linejoin:round;stroke-miterlimit:4;stroke-dasharray:none;stroke-opacity:1"
         id="path45230"
         sodipodi:cx="289.9263"
         sodipodi:cy="297.17444"
         sodipodi:rx="250.78624"
         sodipodi:ry="250.78624"
         d="M 540.71254 297.17444 A 250.78624 250.78624 0 1 1  39.14006,297.17444 A 250.78624 250.78624 0 1 1  540.71254 297.17444 z"
         transform="translate(8.6977887,1.4496314)" />
    </g>
    <g
       style="fill:#000000;fill-opacity:1;fill-rule:evenodd;stroke:none"
       transform="matrix(0.7998013,0,0,-0.7998013,298.62409,298.62407)"
       id="canvas">
      <path
         id="path42298"
         d="M 0,300 L 0,0 L 25.98076,15 L 0,270 L 0,240 L 51.96152,30 L 77.94229,45 L 0,210 L 0,180 L 103.92305,60 L 129.90381,75 L 0,150 L 0,120 L 155.88457,90 L 181.86533,105 L 0,90 L 0,60 L 207.8461,120 L 233.82686,135 L 0,30 L 0,0 L 0,300 z "
         style="fill:#000000;fill-opacity:1;fill-rule:evenodd;stroke:none;stroke-width:1" />
      <path
         id="path42300"
         d="M 259.80762,150 L 0,0 L 25.98076,-15 L 233.82686,135 L 207.8461,120 L 51.96152,-30 L 77.94229,-45 L 181.86533,105 L 155.88457,90 L 103.92305,-60 L 129.90381,-75 L 129.90381,75 L 103.92305,60 L 155.88457,-90 L 181.86533,-105 L 77.94229,45 L 51.96152,30 L 207.8461,-120 L 233.82686,-135 L 25.98076,15 L 0,0 L 259.80762,150 z "
         style="fill:#000000;fill-opacity:1;fill-rule:evenodd;stroke:none;stroke-width:1" />
      <path
         id="path42302"
         d="M 259.80762,-150 L 0,0 L 0,-30 L 233.82686,-135 L 207.8461,-120 L 0,-60 L 0,-90 L 181.86533,-105 L 155.88457,-90 L 0,-120 L 0,-150 L 129.90381,-75 L 103.92305,-60 L 0,-180 L 0,-210 L 77.94229,-45 L 51.96152,-30 L 0,-240 L 0,-270 L 25.98076,-15 L 0,0 L 259.80762,-150 z "
         style="fill:#000000;fill-opacity:1;fill-rule:evenodd;stroke:none;stroke-width:1" />
      <path
         id="path42304"
         d="M 0,-300 L 0,0 L -25.98076,-15 L 0,-270 L 0,-240 L -51.96152,-30 L -77.94229,-45 L 0,-210 L 0,-180 L -103.92305,-60 L -129.90381,-75 L 0,-150 L 0,-120 L -155.88457,-90 L -181.86533,-105 L 0,-90 L 0,-60 L -207.8461,-120 L -233.82686,-135 L 0,-30 L 0,0 L 0,-300 z "
         style="fill:#000000;fill-opacity:1;fill-rule:evenodd;stroke:none;stroke-width:1" />
      <path
         id="path42306"
         d="M -259.80762,-150 L 0,0 L -25.98076,15 L -233.82686,-135 L -207.8461,-120 L -51.96152,30 L -77.94229,45 L -181.86533,-105 L -155.88457,-90 L -103.92305,60 L -129.90381,75 L -129.90381,-75 L -103.92305,-60 L -155.88457,90 L -181.86533,105 L -77.94229,-45 L -51.96152,-30 L -207.8461,120 L -233.82686,135 L -25.98076,-15 L 0,0 L -259.80762,-150 z "
         style="fill:#000000;fill-opacity:1;fill-rule:evenodd;stroke:none;stroke-width:1" />
      <path
         id="path42308"
         d="M -259.80762,150 L 0,0 L 0,30 L -233.82686,135 L -207.8461,120 L 0,60 L 0,90 L -181.86533,105 L -155.88457,90 L 0,120 L 0,150 L -129.90381,75 L -103.92305,60 L 0,180 L 0,210 L -77.94229,45 L -51.96152,30 L 0,240 L 0,270 L -25.98076,15 L 0,0 L -259.80762,150 z "
         style="fill:#000000;fill-opacity:1;fill-rule:evenodd;stroke:none;stroke-width:1" />
    </g>
  </g>
</svg>
