<svg xmlns:ns0="http://www.w3.org/2000/svg" xlink="http://www.w3.org/1999/xlink" xmlns="http://www.w3.org/2000/svg" ns0:svg="http://www.w3.org/2000/svg" width="1280" height="1280">
  <defs/>
  <g id="canvas" transform="matrix(1,0,0,-1,0,1280) translate(640,640)">
    <g>
      <path style="fill:none;stroke:none" d="M-400.00000,400.00000 L400.00000,400.00000 L400.00000,-400.00000 L-400.00000,-400.00000 Z"/>
      <path style="fill:none;stroke:black" d="M-400.00000,400.00000 L400.00000,400.00000 L400.00000,-400.00000 L-400.00000,-400.00000 Z"/>
    </g>
    <g>
      <path style="fill:none;stroke:none" d="M-400.00000,400.00000 L400.00000,400.00000 L400.00000,-400.00000 L-400.00000,-400.00000 Z"/>
      <path style="fill:none;stroke:black" d="M-400.00000,400.00000 C1200.00000,400.00000 -400.00000,-1200.00000 -400.00000,400.00000 Z"/>
    </g>
    <g>
      <path style="fill:none;stroke:none" d="M-400.00000,400.00000 L400.00000,400.00000 L400.00000,-400.00000 L-400.00000,-400.00000 Z"/>
      <path style="fill:none;stroke:black" d="M-400.00000,400.00000 L400.00000,400.00000 C400.00000,-200.00000 -400.00000,-200.00000 -400.00000,400.00000 Z"/>
    </g>
    <g>
      <path style="fill:none;stroke:none" d="M-400.00000,400.00000 L400.00000,400.00000 L400.00000,-400.00000 L-400.00000,-400.00000 Z"/>
      <path style="fill:none;stroke:black" d="M-400.00000,400.00000 C200.00000,400.00000 400.00000,200.00000 400.00000,-400.00000 C-200.00000,-400.00000 -400.00000,-200.00000 -400.00000,400.00000 Z"/>
    </g>
    <g>
      <path style="fill:none;stroke:none" d="M-400.00000,400.00000 L400.00000,400.00000 L400.00000,-400.00000 L-400.00000,-400.00000 Z"/>
      <path style="fill:none;stroke:black" d="M-400.00000,400.00000 L400.00000,400.00000 L400.00000,-400.00000 C-200.00000,-400.00000 -400.00000,-200.00000 -400.00000,400.00000 Z"/>
    </g>
  </g>
</svg>
