<?xml version="1.0" encoding="UTF-8" standalone="no"?>
<svg
   xmlns:dc="http://purl.org/dc/elements/1.1/"
   xmlns:cc="http://web.resource.org/cc/"
   xmlns:rdf="http://www.w3.org/1999/02/22-rdf-syntax-ns#"
   xmlns:svg="http://www.w3.org/2000/svg"
   xmlns="http://www.w3.org/2000/svg"
   xmlns:xlink="http://www.w3.org/1999/xlink"
   xmlns:sodipodi="http://sodipodi.sourceforge.net/DTD/sodipodi-0.dtd"
   xmlns:inkscape="http://www.inkscape.org/namespaces/inkscape"
   width="590"
   xlink:xlink="xlink"
   height="590"
   id="svg5130"
   sodipodi:version="0.32"
   inkscape:version="0.45"
   sodipodi:docname="kolam_tile.svg"
   sodipodi:docbase="/media/oldubu/home/tamarind/0_Code_0/play-svg/scripts/images"
   inkscape:output_extension="org.inkscape.output.svg.inkscape">
  <metadata
     id="metadata5166">
    <rdf:RDF>
      <cc:Work
         rdf:about="">
        <dc:format>image/svg+xml</dc:format>
        <dc:type
           rdf:resource="http://purl.org/dc/dcmitype/StillImage" />
      </cc:Work>
    </rdf:RDF>
  </metadata>
  <sodipodi:namedview
     inkscape:window-height="626"
     inkscape:window-width="874"
     inkscape:pageshadow="2"
     inkscape:pageopacity="0.0"
     guidetolerance="10.0"
     gridtolerance="10.0"
     objecttolerance="10.0"
     borderopacity="1.0"
     bordercolor="#666666"
     pagecolor="#ffffff"
     id="base"
     showguides="true"
     inkscape:guide-bbox="true"
     inkscape:zoom="0.68983051"
     inkscape:cx="295"
     inkscape:cy="389.57947"
     inkscape:window-x="0"
     inkscape:window-y="49"
     inkscape:current-layer="svg5130" />
  <defs
     id="defs5132" />
  <g
     id="g5135"
     transform="matrix(0.7071068,-0.7071068,-0.7071068,-0.7071068,283.06147,249.55105)">
    <path
       id="path5137"
       d="M -25,25 L 25,25 L 25,-25 L -25,-25 L -25,25 z "
       style="fill:none;stroke:none" />
    <path
       id="path5139"
       d="M -25,25 L 25,25 L 25,-25 L -25,-25 L -25,25 z "
       style="fill:none;stroke:#000000" />
  </g>
  <g
     id="g5141"
     transform="matrix(0.7071068,-0.7071068,-0.7071068,-0.7071068,292.21626,119.02646)">
    <path
       id="path5143"
       d="M -25,25 L 25,25 L 25,-25 L -25,-25 L -25,25 z "
       style="fill:none;stroke:none" />
    <path
       id="path5145"
       d="M -25,25 C 75,25 -25,-75 -25,25 z "
       style="fill:none;stroke:#000000" />
  </g>
  <g
     id="g5147"
     transform="matrix(0.7071068,-0.7071068,-0.7071068,-0.7071068,126.03108,253.09603)">
    <path
       id="path5149"
       d="M -25,25 L 25,25 L 25,-25 L -25,-25 L -25,25 z "
       style="fill:none;stroke:none" />
    <path
       id="path5151"
       d="M -25,25 L 25,25 C 25,-12.5 -25,-12.5 -25,25 z "
       style="fill:none;stroke:#000000" />
  </g>
  <g
     id="g5153"
     transform="matrix(0.7071068,-0.7071068,-0.7071068,-0.7071068,278.71999,409.5532)">
    <path
       id="path5155"
       d="M -25,25 L 25,25 L 25,-25 L -25,-25 L -25,25 z "
       style="fill:none;stroke:none" />
    <path
       id="path5157"
       d="M -25,25 C 12.5,25 25,12.5 25,-25 C -12.5,-25 -25,-12.5 -25,25 z "
       style="fill:none;stroke:#000000" />
  </g>
  <g
     id="g5159"
     transform="matrix(0.7071068,-0.7071068,-0.7071068,-0.7071068,459.28597,249.49328)">
    <path
       id="path5161"
       d="M -25,25 L 25,25 L 25,-25 L -25,-25 L -25,25 z "
       style="fill:none;stroke:none" />
    <path
       id="path5163"
       d="M -25,25 L 25,25 L 25,-25 C -12.5,-25 -25,-12.5 -25,25 z "
       style="fill:none;stroke:#000000" />
  </g>
</svg>
