<?xml version="1.0" encoding="UTF-8" standalone="no"?>
<svg
   xmlns:dc="http://purl.org/dc/elements/1.1/"
   xmlns:cc="http://web.resource.org/cc/"
   xmlns:rdf="http://www.w3.org/1999/02/22-rdf-syntax-ns#"
   xmlns:svg="http://www.w3.org/2000/svg"
   xmlns="http://www.w3.org/2000/svg"
   xmlns:xlink="http://www.w3.org/1999/xlink"
   xmlns:sodipodi="http://sodipodi.sourceforge.net/DTD/sodipodi-0.dtd"
   xmlns:inkscape="http://www.inkscape.org/namespaces/inkscape"
   width="590"
   xlink:xlink="xlink"
   height="590"
   id="svg2590"
   sodipodi:version="0.32"
   inkscape:version="0.45"
   sodipodi:docname="kolam_tiles.svg"
   sodipodi:docbase="/media/oldubu/home/tamarind/0_Code_0/play-svg/scripts/images"
   inkscape:output_extension="org.inkscape.output.svg.inkscape"
   sodipodi:modified="true">
  <sodipodi:namedview
     inkscape:window-height="693"
     inkscape:window-width="1024"
     inkscape:pageshadow="2"
     inkscape:pageopacity="0.0"
     guidetolerance="10.0"
     gridtolerance="10.0"
     objecttolerance="10.0"
     borderopacity="1.0"
     bordercolor="#666666"
     pagecolor="#ffffff"
     id="base"
     inkscape:zoom="1.379661"
     inkscape:cx="1018.1519"
     inkscape:cy="328.06009"
     inkscape:window-x="0"
     inkscape:window-y="25"
     inkscape:current-layer="svg2590"
     showguides="true"
     inkscape:guide-bbox="true" />
  <metadata
     id="metadata2626">
    <rdf:RDF>
      <cc:Work
         rdf:about="">
        <dc:format>image/svg+xml</dc:format>
        <dc:type
           rdf:resource="http://purl.org/dc/dcmitype/StillImage" />
      </cc:Work>
    </rdf:RDF>
  </metadata>
  <defs
     id="defs2592" />
  <g
     id="g2595"
     transform="matrix(0.2970221,-0.2970221,-0.2970221,-0.2970221,496.17263,353.66057)">
    <path
       style="fill:none;stroke:none"
       id="path2597"
       d="M -100,100 L 100,100 L 100,-100 L -100,-100 L -100,100 z " />
    <path
       style="fill:none;stroke:#000000"
       id="path2599"
       d="M -100,100 L 100,100 L 100,-100 L -100,-100 L -100,100 z " />
  </g>
  <g
     id="g3294"
     transform="matrix(0.4200527,0,0,0.4200527,189.74858,177.99819)">
    <path
       style="fill:none;stroke:none"
       id="path2603"
       d="M 405.8968,-88.072803 L 547.31816,-229.49416 L 405.8968,-370.91552 L 264.47544,-229.49416 L 405.8968,-88.072803 z " />
    <path
       style="fill:none;stroke:#000000;stroke-width:1"
       id="path2605"
       d="M 405.8968,-88.072803 C 688.73952,-370.91552 123.05408,-370.91552 405.8968,-88.072803 z " />
  </g>
  <g
     id="g3204"
     transform="matrix(0.4200527,0,0,0.4200527,74.342968,160.73039)">
    <path
       style="fill:none;stroke:none"
       id="path2621"
       d="M 175.12346,-188.3855 L 33.7021,-46.96414 L -107.71926,-188.3855 L 33.7021,-329.80686 L 175.12346,-188.3855 z " />
    <path
       style="fill:none;stroke:#000000;stroke-width:1"
       id="path2623"
       d="M 175.12346,-188.3855 L 33.7021,-46.96414 L -107.71926,-188.3855 C -1.65324,-294.45152 69.05744,-294.45152 175.12346,-188.3855 z " />
  </g>
  <g
     id="g3317"
     transform="matrix(0.4200527,0,0,0.4200527,-211.56224,253.16649)">
    <path
       style="fill:none;stroke:none"
       id="path3141"
       d="M 1179.1075,-84.60111 L 1037.6861,-226.02247 L 896.26476,-84.60111 L 1037.6861,56.82025 L 1179.1075,-84.60111 z " />
    <path
       style="fill:none;stroke:#000000;stroke-width:1"
       id="path3143"
       d="M 1179.1075,-84.60111 L 1037.6861,-226.02247 C 931.6201,-119.95645 1073.0415,21.46491 1179.1075,-84.60111 z " />
  </g>
  <g
     id="g3288"
     transform="matrix(0.4200527,0,0,0.4200527,172.22633,265.3302)">
    <path
       style="fill:none;stroke:none"
       id="path3147"
       d="M 771.20393,27.86266 L 629.78257,-113.5587 L 771.20393,-254.98006 L 912.62529,-113.5587 L 771.20393,27.86266 z " />
    <path
       style="fill:none;stroke:#000000;stroke-width:1"
       id="path3149"
       d="M 771.20393,27.86266 C 665.13791,-78.20336 665.13791,-148.91404 771.20393,-254.98006 C 877.26995,-148.91404 877.26995,-78.20336 771.20393,27.86266 z " />
  </g>
  <g
     id="g3216"
     transform="matrix(0.4200527,0,0,0.4200527,100.67806,115.93966)">
    <path
       style="fill:none;stroke:none"
       id="path3210"
       d="M -28.74263,383.5098 L -170.16399,242.08844 L -28.74263,100.66708 L 112.67873,242.08844 L -28.74263,383.5098 z " />
    <path
       style="fill:none;stroke:#000000;stroke-width:1"
       id="path3212"
       d="M -28.74263,383.5098 L -170.16399,242.08844 L -28.74263,100.66708 C 77.32339,206.7331 77.32339,277.44378 -28.74263,383.5098 z " />
  </g>
  <g
     id="g3228"
     transform="matrix(0.4200527,0,0,0.4200527,73.88551,221.15716)">
    <path
       style="fill:none;stroke:none"
       id="path3222"
       d="M 34.54115,497.86609 L 175.96251,639.28745 L 34.54115,780.70881 L -106.88021,639.28745 L 34.54115,497.86609 z " />
    <path
       style="fill:none;stroke:#000000;stroke-width:1"
       id="path3224"
       d="M 34.54115,497.86609 L 175.96251,639.28745 L 34.54115,780.70881 C -71.52487,674.64279 -71.52487,603.93211 34.54115,497.86609 z " />
  </g>
  <g
     id="g3240"
     transform="matrix(0.4200527,0,0,0.4200527,89.717468,-12.406331)">
    <path
       style="fill:none;stroke:none"
       id="path3234"
       d="M 138.5221,871.47851 L -2.899263,730.05715 L -144.32062,871.47851 L -2.899263,1012.8999 L 138.5221,871.47851 z " />
    <path
       style="fill:none;stroke:#000000;stroke-width:1"
       id="path3236"
       d="M 138.5221,871.47851 L -2.899263,730.05715 L -144.32062,871.47851 C -38.254603,977.54453 32.456077,977.54453 138.5221,871.47851 z " />
  </g>
  <g
     id="g3252"
     transform="matrix(0.4200527,0,0,0.4200527,208.01623,427.98047)">
    <path
       style="fill:none;stroke:none"
       id="path3246"
       d="M 221.2365,146.41278 L 362.65786,287.83414 L 504.07922,146.41278 L 362.65786,4.99142 L 221.2365,146.41278 z " />
    <path
       style="fill:none;stroke:#000000;stroke-width:1"
       id="path3248"
       d="M 221.2365,146.41278 C 504.07922,429.2555 504.07922,-136.42994 221.2365,146.41278 z " />
  </g>
  <g
     id="g3264"
     transform="matrix(0.4200527,0,0,0.4200527,201.92701,161.64022)">
    <path
       style="fill:none;stroke:none"
       id="path3258"
       d="M 518.07554,456.63395 L 376.65418,315.21259 L 235.23282,456.63395 L 376.65418,598.05531 L 518.07554,456.63395 z " />
    <path
       style="fill:none;stroke:#000000;stroke-width:1"
       id="path3260"
       d="M 518.07554,456.63395 C 235.23282,173.79123 235.23282,739.47667 518.07554,456.63395 z " />
  </g>
  <g
     id="g3276"
     transform="matrix(0.4200527,0,0,0.4200527,205.58054,-104.59498)">
    <path
       style="fill:none;stroke:none"
       id="path3270"
       d="M 368.20639,625.68368 L 509.62775,767.10504 L 368.20639,908.5264 L 226.78503,767.10504 L 368.20639,625.68368 z " />
    <path
       style="fill:none;stroke:#000000;stroke-width:1"
       id="path3272"
       d="M 368.20639,625.68368 C 651.04911,908.5264 85.36367,908.5264 368.20639,625.68368 z " />
  </g>
  <g
     id="g3305"
     transform="matrix(0.4200527,0,0,0.4200527,181.96908,-65.151559)">
    <path
       style="fill:none;stroke:none"
       id="path3299"
       d="M 606.58847,349.36118 L 748.00983,207.93982 L 889.43119,349.36118 L 748.00983,490.78254 L 606.58847,349.36118 z " />
    <path
       style="fill:none;stroke:#000000;stroke-width:1"
       id="path3301"
       d="M 606.58847,349.36118 C 712.65449,243.29516 783.36517,243.29516 889.43119,349.36118 C 783.36517,455.4272 712.65449,455.4272 606.58847,349.36118 z " />
  </g>
  <g
     id="g3329"
     transform="matrix(0.4200527,0,0,0.4200527,-221.30498,-23.639872)">
    <path
       style="fill:none;stroke:none"
       id="path3323"
       d="M 1060.8802,391.95761 L 1202.3016,250.53621 L 1060.8802,109.11487 L 919.45886,250.53621 L 1060.8802,391.95761 z " />
    <path
       style="fill:none;stroke:#000000;stroke-width:1"
       id="path3325"
       d="M 1060.8802,391.95761 L 1202.3016,250.53621 C 1096.2356,144.47021 954.8142,285.89161 1060.8802,391.95761 z " />
  </g>
  <g
     id="g3341"
     transform="matrix(0.4200527,0,0,0.4200527,-233.4834,255.15177)">
    <path
       style="fill:none;stroke:none"
       id="path3335"
       d="M 1090.3729,416.9367 L 948.95153,558.3581 L 1090.3729,699.77944 L 1231.7942,558.3581 L 1090.3729,416.9367 z " />
    <path
       style="fill:none;stroke:#000000;stroke-width:1"
       id="path3337"
       d="M 1090.3729,416.9367 L 948.95153,558.3581 C 1055.0176,664.4241 1196.4389,523.0027 1090.3729,416.9367 z " />
  </g>
  <g
     id="g3353"
     transform="matrix(0.4200527,0,0,0.4200527,-185.98754,-31.891795)">
    <path
       style="fill:none;stroke:none"
       id="path3347"
       d="M 977.30159,1058.788 L 835.88023,917.36664 L 977.30159,775.9453 L 1118.723,917.36664 L 977.30159,1058.788 z " />
    <path
       style="fill:none;stroke:#000000;stroke-width:1"
       id="path3349"
       d="M 977.30159,1058.788 L 835.88023,917.36664 C 941.94625,811.30064 1083.3676,952.72204 977.30159,1058.788 z " />
  </g>
  <path
     d="M 436.76817,489.48157 L 496.1726,430.07713 L 555.57708,489.48157 L 496.1726,548.88598 L 436.76817,489.48157 z "
     id="path3359"
     style="fill:none;stroke:none" />
  <g
     id="g3596"
     transform="translate(95.675676,-275.42998)">
    <g
       transform="matrix(0.2970221,-0.2970221,-0.2970221,-0.2970221,949.60053,231.64167)"
       id="g3554">
      <path
         d="M -100,100 L 100,100 L 100,-100 L -100,-100 L -100,100 z "
         id="path3556"
         style="fill:none;stroke:none" />
      <path
         d="M -100,100 L 100,100 L 100,-100 L -100,-100 L -100,100 z "
         id="path3558"
         style="fill:none;stroke:#000000" />
    </g>
    <g
       transform="matrix(0.4200527,0,0,0.4200527,794.93445,28.646015)"
       id="g3560">
      <path
         d="M 368.20639,625.68368 L 509.62775,767.10504 L 368.20639,908.5264 L 226.78503,767.10504 L 368.20639,625.68368 z "
         id="path3562"
         style="fill:none;stroke:none" />
      <path
         d="M 368.20639,625.68368 C 651.04911,908.5264 85.36367,908.5264 368.20639,625.68368 z "
         id="path3564"
         style="fill:none;stroke:#000000;stroke-width:1" />
    </g>
    <g
       transform="matrix(0.4200527,0,0,0.4200527,916.49402,169.93056)"
       id="g3566">
      <path
         d="M 221.2365,146.41278 L 362.65786,287.83414 L 504.07922,146.41278 L 362.65786,4.99142 L 221.2365,146.41278 z "
         id="path3568"
         style="fill:none;stroke:none" />
      <path
         d="M 221.2365,146.41278 C 504.07922,429.2555 504.07922,-136.42994 221.2365,146.41278 z "
         id="path3570"
         style="fill:none;stroke:#000000;stroke-width:1" />
    </g>
    <g
       transform="matrix(0.4200527,0,0,0.4200527,779.10249,208.81242)"
       id="g3572">
      <path
         d="M 405.8968,-88.072803 L 547.31816,-229.49416 L 405.8968,-370.91552 L 264.47544,-229.49416 L 405.8968,-88.072803 z "
         id="path3574"
         style="fill:none;stroke:none" />
      <path
         d="M 405.8968,-88.072803 C 688.73952,-370.91552 123.05408,-370.91552 405.8968,-88.072803 z "
         id="path3576"
         style="fill:none;stroke:#000000;stroke-width:1" />
    </g>
    <g
       transform="matrix(0.4200527,0,0,0.4200527,672.15703,39.621324)"
       id="g3578">
      <path
         d="M 518.07554,456.63395 L 376.65418,315.21259 L 235.23282,456.63395 L 376.65418,598.05531 L 518.07554,456.63395 z "
         id="path3580"
         style="fill:none;stroke:none" />
      <path
         d="M 518.07554,456.63395 C 235.23282,173.79123 235.23282,739.47667 518.07554,456.63395 z "
         id="path3582"
         style="fill:none;stroke:#000000;stroke-width:1" />
    </g>
    <path
       style="fill:none;stroke:none"
       id="path3584"
       d="M 771.07219,112.41279 L 830.47662,53.008352 L 889.8811,112.41279 L 830.47662,171.8172 L 771.07219,112.41279 z " />
    <path
       style="fill:none;stroke:none"
       id="path3586"
       d="M 1009.32,112.41279 L 1068.7245,53.008352 L 1128.1289,112.41279 L 1068.7245,171.8172 L 1009.32,112.41279 z " />
    <path
       style="fill:none;stroke:none"
       id="path3592"
       d="M 1009.3199,350.66056 L 1068.7244,291.25612 L 1128.1289,350.66056 L 1068.7244,410.06497 L 1009.3199,350.66056 z " />
    <path
       style="fill:none;stroke:none"
       id="path3594"
       d="M 771.07215,350.66056 L 830.47665,291.25612 L 889.88115,350.66056 L 830.47665,410.06497 L 771.07215,350.66056 z " />
  </g>
  <g
     id="g3617"
     transform="matrix(0.2970221,-0.2970221,-0.2970221,-0.2970221,1426.4373,784.25061)">
    <path
       style="fill:none;stroke:none"
       id="path3619"
       d="M -100,100 L 100,100 L 100,-100 L -100,-100 L -100,100 z " />
    <path
       style="fill:none;stroke:#000000"
       id="path3621"
       d="M -100,100 L 100,100 L 100,-100 L -100,-100 L -100,100 z " />
  </g>
  <g
     id="g3623"
     transform="matrix(0.2970221,-0.2970221,-0.2970221,-0.2970221,1713.4643,784.2506)">
    <path
       style="fill:none;stroke:none"
       id="path3625"
       d="M -100,100 L 100,100 L 100,-100 L -100,-100 L -100,100 z " />
    <path
       style="fill:none;stroke:#000000"
       id="path3627"
       d="M -100,100 L 100,100 L 100,-100 L -100,-100 L -100,100 z " />
  </g>
  <g
     id="g3629"
     transform="matrix(0.2970221,-0.2970221,-0.2970221,-0.2970221,1423.5381,503.02211)">
    <path
       style="fill:none;stroke:none"
       id="path3631"
       d="M -100,100 L 100,100 L 100,-100 L -100,-100 L -100,100 z " />
    <path
       style="fill:none;stroke:#000000"
       id="path3633"
       d="M -100,100 L 100,100 L 100,-100 L -100,-100 L -100,100 z " />
  </g>
  <g
     id="g3635"
     transform="matrix(0.2970221,-0.2970221,-0.2970221,-0.2970221,1087.4335,738.09965)">
    <path
       style="fill:none;stroke:none"
       id="path3637"
       d="M -100,100 L 100,100 L 100,-100 L -100,-100 L -100,100 z " />
    <path
       style="fill:none;stroke:#000000"
       id="path3639"
       d="M -100,100 L 100,100 L 100,-100 L -100,-100 L -100,100 z " />
  </g>
  <g
     id="g3641"
     transform="matrix(0.2970221,-0.2970221,-0.2970221,-0.2970221,1414.8402,1094.4717)">
    <path
       style="fill:none;stroke:none"
       id="path3643"
       d="M -100,100 L 100,100 L 100,-100 L -100,-100 L -100,100 z " />
    <path
       style="fill:none;stroke:#000000"
       id="path3645"
       d="M -100,100 L 100,100 L 100,-100 L -100,-100 L -100,100 z " />
  </g>
  <g
     id="g3647"
     transform="matrix(0.4200527,0,0,0.4200527,1250.1408,445.65581)">
    <path
       style="fill:none;stroke:none"
       id="path3649"
       d="M 405.8968,-88.072803 L 547.31816,-229.49416 L 405.8968,-370.91552 L 264.47544,-229.49416 L 405.8968,-88.072803 z " />
    <path
       style="fill:none;stroke:#000000;stroke-width:1"
       id="path3651"
       d="M 405.8968,-88.072803 C 688.73952,-370.91552 123.05408,-370.91552 405.8968,-88.072803 z " />
  </g>
  <g
     id="g3653"
     transform="matrix(0.4200527,0,0,0.4200527,1102.4911,689.88737)">
    <path
       style="fill:none;stroke:none"
       id="path3655"
       d="M 771.20393,27.86266 L 629.78257,-113.5587 L 771.20393,-254.98006 L 912.62529,-113.5587 L 771.20393,27.86266 z " />
    <path
       style="fill:none;stroke:#000000;stroke-width:1"
       id="path3657"
       d="M 771.20393,27.86266 C 665.13791,-78.20336 665.13791,-148.91404 771.20393,-254.98006 C 877.26995,-148.91404 877.26995,-78.20336 771.20393,27.86266 z " />
  </g>
  <g
     id="g3659"
     transform="matrix(0.4200527,0,0,0.4200527,1102.4911,988.51144)">
    <path
       style="fill:none;stroke:none"
       id="path3661"
       d="M 771.20393,27.86266 L 629.78257,-113.5587 L 771.20393,-254.98006 L 912.62529,-113.5587 L 771.20393,27.86266 z " />
    <path
       style="fill:none;stroke:#000000;stroke-width:1"
       id="path3663"
       d="M 771.20393,27.86266 C 665.13791,-78.20336 665.13791,-148.91404 771.20393,-254.98006 C 877.26995,-148.91404 877.26995,-78.20336 771.20393,27.86266 z " />
  </g>
  <g
     id="g3665"
     transform="matrix(0.4200527,0,0,0.4200527,967.27065,637.5005)">
    <path
       style="fill:none;stroke:none"
       id="path3667"
       d="M 606.58847,349.36118 L 748.00983,207.93982 L 889.43119,349.36118 L 748.00983,490.78254 L 606.58847,349.36118 z " />
    <path
       style="fill:none;stroke:#000000;stroke-width:1"
       id="path3669"
       d="M 606.58847,349.36118 C 712.65449,243.29516 783.36517,243.29516 889.43119,349.36118 C 783.36517,455.4272 712.65449,455.4272 606.58847,349.36118 z " />
  </g>
  <g
     id="g3671"
     transform="matrix(0.4200527,0,0,0.4200527,1245.5999,634.60124)">
    <path
       style="fill:none;stroke:none"
       id="path3673"
       d="M 606.58847,349.36118 L 748.00983,207.93982 L 889.43119,349.36118 L 748.00983,490.78254 L 606.58847,349.36118 z " />
    <path
       style="fill:none;stroke:#000000;stroke-width:1"
       id="path3675"
       d="M 606.58847,349.36118 C 712.65449,243.29516 783.36517,243.29516 889.43119,349.36118 C 783.36517,455.4272 712.65449,455.4272 606.58847,349.36118 z " />
  </g>
  <g
     id="g3677"
     transform="matrix(0.4200527,0,0,0.4200527,1099.9605,317.01031)">
    <path
       style="fill:none;stroke:none"
       id="path3679"
       d="M 518.07554,456.63395 L 376.65418,315.21259 L 235.23282,456.63395 L 376.65418,598.05531 L 518.07554,456.63395 z " />
    <path
       style="fill:none;stroke:#000000;stroke-width:1"
       id="path3681"
       d="M 518.07554,456.63395 C 235.23282,173.79123 235.23282,739.47667 518.07554,456.63395 z " />
  </g>
  <g
     id="g3683"
     transform="matrix(0.4200527,0,0,0.4200527,1436.5657,441.52103)">
    <path
       style="fill:none;stroke:none"
       id="path3685"
       d="M 221.2365,146.41278 L 362.65786,287.83414 L 504.07922,146.41278 L 362.65786,4.99142 L 221.2365,146.41278 z " />
    <path
       style="fill:none;stroke:#000000;stroke-width:1"
       id="path3687"
       d="M 221.2365,146.41278 C 504.07922,429.2555 504.07922,-136.42994 221.2365,146.41278 z " />
  </g>
  <g
     id="g3689"
     transform="matrix(0.4200527,0,0,0.4200527,1413.3715,1032.9706)">
    <path
       style="fill:none;stroke:none"
       id="path3691"
       d="M 221.2365,146.41278 L 362.65786,287.83414 L 504.07922,146.41278 L 362.65786,4.99142 L 221.2365,146.41278 z " />
    <path
       style="fill:none;stroke:#000000;stroke-width:1"
       id="path3693"
       d="M 221.2365,146.41278 C 504.07922,429.2555 504.07922,-136.42994 221.2365,146.41278 z " />
  </g>
  <g
     id="g3695"
     transform="matrix(0.4200527,0,0,0.4200527,1102.8597,908.45994)">
    <path
       style="fill:none;stroke:none"
       id="path3697"
       d="M 518.07554,456.63395 L 376.65418,315.21259 L 235.23282,456.63395 L 376.65418,598.05531 L 518.07554,456.63395 z " />
    <path
       style="fill:none;stroke:#000000;stroke-width:1"
       id="path3699"
       d="M 518.07554,456.63395 C 235.23282,173.79123 235.23282,739.47667 518.07554,456.63395 z " />
  </g>
  <g
     id="g3701"
     transform="matrix(0.4200527,0,0,0.4200527,1263.0735,937.6102)">
    <path
       style="fill:none;stroke:none"
       id="path3703"
       d="M 368.20639,625.68368 L 509.62775,767.10504 L 368.20639,908.5264 L 226.78503,767.10504 L 368.20639,625.68368 z " />
    <path
       style="fill:none;stroke:#000000;stroke-width:1"
       id="path3705"
       d="M 368.20639,625.68368 C 651.04911,908.5264 85.36367,908.5264 368.20639,625.68368 z " />
  </g>
  <g
     id="g3707"
     transform="matrix(0.4200527,0,0,0.4200527,1584.8917,627.38907)">
    <path
       style="fill:none;stroke:none"
       id="path3709"
       d="M 368.20639,625.68368 L 509.62775,767.10504 L 368.20639,908.5264 L 226.78503,767.10504 L 368.20639,625.68368 z " />
    <path
       style="fill:none;stroke:#000000;stroke-width:1"
       id="path3711"
       d="M 368.20639,625.68368 C 651.04911,908.5264 85.36367,908.5264 368.20639,625.68368 z " />
  </g>
  <g
     id="g3713"
     transform="matrix(0.4200527,0,0,0.4200527,724.02048,601.72616)">
    <path
       style="fill:none;stroke:none"
       id="path3715"
       d="M 368.20639,625.68368 L 509.62775,767.10504 L 368.20639,908.5264 L 226.78503,767.10504 L 368.20639,625.68368 z " />
    <path
       style="fill:none;stroke:#000000;stroke-width:1"
       id="path3717"
       d="M 368.20639,625.68368 C 651.04911,908.5264 85.36367,908.5264 368.20639,625.68368 z " />
  </g>
  <g
     id="g3719"
     transform="matrix(0.4200527,0,0,0.4200527,916.93545,715.27041)">
    <path
       style="fill:none;stroke:none"
       id="path3721"
       d="M 405.8968,-88.072803 L 547.31816,-229.49416 L 405.8968,-370.91552 L 264.47544,-229.49416 L 405.8968,-88.072803 z " />
    <path
       style="fill:none;stroke:#000000;stroke-width:1"
       id="path3723"
       d="M 405.8968,-88.072803 C 688.73952,-370.91552 123.05408,-370.91552 405.8968,-88.072803 z " />
  </g>
  <g
     id="g3725"
     transform="matrix(0.4200527,0,0,0.4200527,1540.0671,726.88431)">
    <path
       style="fill:none;stroke:none"
       id="path3727"
       d="M 405.8968,-88.072803 L 547.31816,-229.49416 L 405.8968,-370.91552 L 264.47544,-229.49416 L 405.8968,-88.072803 z " />
    <path
       style="fill:none;stroke:#000000;stroke-width:1"
       id="path3729"
       d="M 405.8968,-88.072803 C 688.73952,-370.91552 123.05408,-370.91552 405.8968,-88.072803 z " />
  </g>
  <g
     id="g3737"
     transform="matrix(0.4200527,0,0,0.4200527,1720.6934,719.85026)">
    <path
       style="fill:none;stroke:none"
       id="path3739"
       d="M 221.2365,146.41278 L 362.65786,287.83414 L 504.07922,146.41278 L 362.65786,4.99142 L 221.2365,146.41278 z " />
    <path
       style="fill:none;stroke:#000000;stroke-width:1"
       id="path3741"
       d="M 221.2365,146.41278 C 504.07922,429.2555 504.07922,-136.42994 221.2365,146.41278 z " />
  </g>
  <path
     d="M 1213.372,630.58969 L 1272.7764,571.18525 L 1332.1809,630.58969 L 1272.7764,689.9941 L 1213.372,630.58969 z "
     id="path3743"
     style="fill:none;stroke:none" />
  <path
     d="M 1207.5734,366.75677 L 1266.9779,307.35233 L 1326.3823,366.75677 L 1266.9779,426.16118 L 1207.5734,366.75677 z "
     id="path3745"
     style="fill:none;stroke:none" />
  <path
     d="M 1028.0291,381.25308 L 1087.4335,321.84864 L 1146.838,381.25308 L 1087.4335,440.65749 L 1028.0291,381.25308 z "
     id="path3747"
     style="fill:none;stroke:none" />
  <path
     d="M 1028.0291,500.06193 L 1087.4335,440.65749 L 1146.838,500.06193 L 1087.4335,559.46634 L 1028.0291,500.06193 z "
     id="path3749"
     style="fill:none;stroke:none" />
  <path
     d="M 1028.0291,857.11859 L 1087.4335,797.71409 L 1146.838,857.11859 L 1087.4335,916.52298 L 1028.0291,857.11859 z "
     id="path3759"
     style="fill:none;stroke:none" />
  <path
     d="M 1207.5734,1224.9386 L 1266.9779,1165.5341 L 1326.3823,1224.9386 L 1266.9779,1284.343 L 1207.5734,1224.9386 z "
     id="path3761"
     style="fill:none;stroke:none" />
  <path
     d="M 1028.0291,1094.9464 L 1087.4336,1035.5419 L 1146.838,1094.9464 L 1087.4336,1154.3508 L 1028.0291,1094.9464 z "
     id="path3763"
     style="fill:none;stroke:none" />
  <path
     d="M 1477.2049,1236.5356 L 1536.6093,1177.1312 L 1596.0138,1236.5356 L 1536.6093,1295.94 L 1477.2049,1236.5356 z "
     id="path3767"
     style="fill:none;stroke:none" />
  <path
     d="M 1662.7577,1233.6364 L 1722.1621,1174.2319 L 1781.5666,1233.6364 L 1722.1621,1293.0408 L 1662.7577,1233.6364 z "
     id="path3769"
     style="fill:none;stroke:none" />
  <path
     d="M 1828.0157,1236.5356 L 1887.4201,1177.1312 L 1946.8246,1236.5356 L 1887.4201,1295.94 L 1828.0157,1236.5356 z "
     id="path3771"
     style="fill:none;stroke:none" />
  <path
     d="M 1830.915,1079.9754 L 1890.3194,1020.571 L 1949.7239,1079.9754 L 1890.3194,1139.3798 L 1830.915,1079.9754 z "
     id="path3773"
     style="fill:none;stroke:none" />
  <path
     d="M 1811.6275,925.81819 L 1871.0319,866.41375 L 1930.4364,925.81819 L 1871.0319,985.2226 L 1811.6275,925.81819 z "
     id="path3775"
     style="fill:none;stroke:none" />
  <path
     d="M 1494.6005,917.61672 L 1554.0049,858.21228 L 1613.4094,917.61672 L 1554.0049,977.02113 L 1494.6005,917.61672 z "
     id="path3777"
     style="fill:none;stroke:none" />
  <path
     d="M 1506.1975,647.98527 L 1565.6019,588.58083 L 1625.0064,647.98527 L 1565.6019,707.38968 L 1506.1975,647.98527 z "
     id="path3779"
     style="fill:none;stroke:none" />
  <path
     d="M 1645.3621,505.92138 L 1704.7666,446.51694 L 1764.171,505.92138 L 1704.7666,565.32579 L 1645.3621,505.92138 z "
     id="path3781"
     style="fill:none;stroke:none" />
  <path
     d="M 1790.3253,511.71991 L 1849.7297,452.31547 L 1909.1342,511.71991 L 1849.7297,571.12432 L 1790.3253,511.71991 z "
     id="path3783"
     style="fill:none;stroke:none" />
  <path
     d="M 1796.5267,636.48158 L 1855.9312,577.07714 L 1915.3357,636.48158 L 1855.9312,695.88599 L 1796.5267,636.48158 z "
     id="path3785"
     style="fill:none;stroke:none" />
  <path
     d="M 1509.0968,372.55529 L 1568.5012,313.15085 L 1627.9057,372.55529 L 1568.5012,431.9597 L 1509.0968,372.55529 z "
     id="path3787"
     style="fill:none;stroke:none" />
  <path
     d="M 1668.5562,387.05161 L 1727.9607,327.64717 L 1787.3651,387.05161 L 1727.9607,446.45602 L 1668.5562,387.05161 z "
     id="path3789"
     style="fill:none;stroke:none" />
  <path
     d="M 1862.8068,395.74939 L 1922.2113,336.34495 L 1981.6158,395.74939 L 1922.2113,455.1538 L 1862.8068,395.74939 z "
     id="path3791"
     style="fill:none;stroke:none" />
  <path
     d="M 1659.8584,1085.774 L 1719.2629,1026.3695 L 1778.6673,1085.774 L 1719.2629,1145.1784 L 1659.8584,1085.774 z "
     id="path3793"
     style="fill:none;stroke:none" />
  <g
     id="g3799">
    <g
       transform="matrix(0.4200527,0,0,0.4200527,755.05317,522.67519)"
       id="g3731">
      <path
         d="M 518.07554,456.63395 L 376.65418,315.21259 L 235.23282,456.63395 L 376.65418,598.05531 L 518.07554,456.63395 z "
         id="path3733"
         style="fill:none;stroke:none" />
      <path
         d="M 518.07554,456.63395 C 235.23282,173.79123 235.23282,739.47667 518.07554,456.63395 z "
         id="path3735"
         style="fill:none;stroke:#000000;stroke-width:1" />
    </g>
    <path
       style="fill:none;stroke:none"
       id="path3751"
       d="M 853.96833,595.67668 L 913.37276,536.27224 L 972.77724,595.67668 L 913.37276,655.08109 L 853.96833,595.67668 z " />
    <path
       style="fill:none;stroke:none"
       id="path3753"
       d="M 853.96832,476.86783 L 913.37275,417.46339 L 972.77726,476.86783 L 913.37275,536.27224 L 853.96832,476.86783 z " />
    <path
       style="fill:none;stroke:none"
       id="path3755"
       d="M 853.96835,833.29438 L 913.37278,773.88994 L 972.77722,833.29438 L 913.37278,892.69879 L 853.96835,833.29438 z " />
    <path
       style="fill:none;stroke:none"
       id="path3757"
       d="M 853.96833,952.10319 L 913.37276,892.69879 L 972.77724,952.10319 L 913.37276,1011.5076 L 853.96833,952.10319 z " />
    <path
       style="fill:none;stroke:none"
       id="path3765"
       d="M 853.96833,1070.912 L 913.37276,1011.5076 L 972.77724,1070.912 L 913.37276,1130.3165 L 853.96833,1070.912 z " />
    <path
       style="fill:none;stroke:none"
       id="path3795"
       d="M 853.96835,358.05898 L 913.37278,298.65454 L 972.77722,358.05898 L 913.37278,417.46339 L 853.96835,358.05898 z " />
  </g>
  <path
     d="M 1213.372,937.91156 L 1272.7764,878.50712 L 1332.1809,937.91156 L 1272.7764,997.31597 L 1213.372,937.91156 z "
     id="path3797"
     style="fill:none;stroke:none" />
</svg>
