<svg xmlns:ns0="http://www.w3.org/2000/svg" xlink="http://www.w3.org/1999/xlink" xmlns="http://www.w3.org/2000/svg" ns0:svg="http://www.w3.org/2000/svg" width="1280" height="1280">
  <defs/>
  <g id="canvas" transform="matrix(1,0,0,-1,0,1280) translate(640,640)">
    <g id="lotus">
      <path style="fill:none;stroke:black;stroke-width:1" d="M9.81649,399.87953 C11.28897,459.86146 80.96248,407.02589 92.66790,465.87301 C80.96248,407.02589 165.55172,429.17669 143.95801,373.19712 C112.36838,386.28198 44.00887,399.87953 9.81649,399.87953"/>
      <path style="fill:none;stroke:black;stroke-width:1" d="M162.09653,365.68390 C186.41100,420.53649 230.56165,345.05989 263.89586,394.94807 C230.56165,345.05989 317.18865,333.15366 275.81622,289.69883 C251.63856,313.87650 193.68616,352.59905 162.09653,365.68390"/>
      <path style="fill:none;stroke:black;stroke-width:1" d="M289.69883,275.81622 C333.15366,317.18865 345.05989,230.56165 394.94807,263.89586 C345.05989,230.56165 420.53649,186.41100 365.68390,162.09653 C352.59905,193.68616 313.87650,251.63856 289.69883,275.81622"/>
      <path style="fill:none;stroke:black;stroke-width:1" d="M373.19712,143.95801 C429.17669,165.55172 407.02589,80.96248 465.87301,92.66790 C407.02589,80.96248 459.86146,11.28897 399.87953,9.81649 C399.87953,44.00887 386.28198,112.36838 373.19712,143.95801"/>
      <path style="fill:none;stroke:black;stroke-width:1" d="M399.87953,-9.81649 C459.86146,-11.28897 407.02589,-80.96248 465.87301,-92.66790 C407.02589,-80.96248 429.17669,-165.55172 373.19712,-143.95801 C386.28198,-112.36838 399.87953,-44.00887 399.87953,-9.81649"/>
      <path style="fill:none;stroke:black;stroke-width:1" d="M365.68390,-162.09653 C420.53649,-186.41100 345.05989,-230.56165 394.94807,-263.89586 C345.05989,-230.56165 333.15366,-317.18865 289.69883,-275.81622 C313.87650,-251.63856 352.59905,-193.68616 365.68390,-162.09653"/>
      <path style="fill:none;stroke:black;stroke-width:1" d="M275.81622,-289.69883 C317.18865,-333.15366 230.56165,-345.05989 263.89586,-394.94807 C230.56165,-345.05989 186.41100,-420.53649 162.09653,-365.68390 C193.68616,-352.59905 251.63856,-313.87650 275.81622,-289.69883"/>
      <path style="fill:none;stroke:black;stroke-width:1" d="M143.95801,-373.19712 C165.55172,-429.17669 80.96248,-407.02589 92.66790,-465.87301 C80.96248,-407.02589 11.28897,-459.86146 9.81649,-399.87953 C44.00887,-399.87953 112.36838,-386.28198 143.95801,-373.19712"/>
      <path style="fill:none;stroke:black;stroke-width:1" d="M-9.81649,-399.87953 C-11.28897,-459.86146 -80.96248,-407.02589 -92.66790,-465.87301 C-80.96248,-407.02589 -165.55172,-429.17669 -143.95801,-373.19712 C-112.36838,-386.28198 -44.00887,-399.87953 -9.81649,-399.87953"/>
      <path style="fill:none;stroke:black;stroke-width:1" d="M-162.09653,-365.68390 C-186.41100,-420.53649 -230.56165,-345.05989 -263.89586,-394.94807 C-230.56165,-345.05989 -317.18865,-333.15366 -275.81622,-289.69883 C-251.63856,-313.87650 -193.68616,-352.59905 -162.09653,-365.68390"/>
      <path style="fill:none;stroke:black;stroke-width:1" d="M-289.69883,-275.81622 C-333.15366,-317.18865 -345.05989,-230.56165 -394.94807,-263.89586 C-345.05989,-230.56165 -420.53649,-186.41100 -365.68390,-162.09653 C-352.59905,-193.68616 -313.87650,-251.63856 -289.69883,-275.81622"/>
      <path style="fill:none;stroke:black;stroke-width:1" d="M-373.19712,-143.95801 C-429.17669,-165.55172 -407.02589,-80.96248 -465.87301,-92.66790 C-407.02589,-80.96248 -459.86146,-11.28897 -399.87953,-9.81649 C-399.87953,-44.00887 -386.28198,-112.36838 -373.19712,-143.95801"/>
      <path style="fill:none;stroke:black;stroke-width:1" d="M-399.87953,9.81649 C-459.86146,11.28897 -407.02589,80.96248 -465.87301,92.66790 C-407.02589,80.96248 -429.17669,165.55172 -373.19712,143.95801 C-386.28198,112.36838 -399.87953,44.00887 -399.87953,9.81649"/>
      <path style="fill:none;stroke:black;stroke-width:1" d="M-365.68390,162.09653 C-420.53649,186.41100 -345.05989,230.56165 -394.94807,263.89586 C-345.05989,230.56165 -333.15366,317.18865 -289.69883,275.81622 C-313.87650,251.63856 -352.59905,193.68616 -365.68390,162.09653"/>
      <path style="fill:none;stroke:black;stroke-width:1" d="M-275.81622,289.69883 C-317.18865,333.15366 -230.56165,345.05989 -263.89586,394.94807 C-230.56165,345.05989 -186.41100,420.53649 -162.09653,365.68390 C-193.68616,352.59905 -251.63856,313.87650 -275.81622,289.69883"/>
      <path style="fill:none;stroke:black;stroke-width:1" d="M-143.95801,373.19712 C-165.55172,429.17669 -80.96248,407.02589 -92.66790,465.87301 C-80.96248,407.02589 -11.28897,459.86146 -9.81649,399.87953 C-44.00887,399.87953 -112.36838,386.28198 -143.95801,373.19712"/>
    </g>
  </g>
</svg>
