<svg xmlns:ns0="http://www.w3.org/2000/svg" xlink="http://www.w3.org/1999/xlink" xmlns="http://www.w3.org/2000/svg" ns0:svg="http://www.w3.org/2000/svg" width="1280" height="1280">
  <defs/>
  <g id="canvas" transform="matrix(1,0,0,-1,0,1280) translate(640,640)">
    <g>
      <g>
        <circle style="stroke:black;fill:none" cx="0.00000" r="100.00000" cy="200.00000"/>
        <circle style="stroke:black;fill:none" cx="173.20508" r="100.00000" cy="100.00000"/>
        <circle style="stroke:black;fill:none" cx="173.20508" r="100.00000" cy="-100.00000"/>
        <circle style="stroke:black;fill:none" cx="0.00000" r="100.00000" cy="-200.00000"/>
        <circle style="stroke:black;fill:none" cx="-173.20508" r="100.00000" cy="-100.00000"/>
        <circle style="stroke:black;fill:none" cx="-173.20508" r="100.00000" cy="100.00000"/>
        <circle style="stroke:black;fill:none" cx="0.00000" r="100.00000" cy="400.00000"/>
        <circle style="stroke:black;fill:none" cx="346.41016" r="100.00000" cy="200.00000"/>
        <circle style="stroke:black;fill:none" cx="346.41016" r="100.00000" cy="-200.00000"/>
        <circle style="stroke:black;fill:none" cx="0.00000" r="100.00000" cy="-400.00000"/>
        <circle style="stroke:black;fill:none" cx="-346.41016" r="100.00000" cy="-200.00000"/>
        <circle style="stroke:black;fill:none" cx="-346.41016" r="100.00000" cy="200.00000"/>
        <circle style="stroke:black;fill:none" cx="0.00000" r="100.00000" cy="0.00000"/>
      </g>
      <g>
        <line y1="100.00000" x2="0.00000" style="stroke:black;fill:none" x1="173.20508" y2="200.00000"/>
        <line y1="-100.00000" x2="0.00000" style="stroke:black;fill:none" x1="173.20508" y2="200.00000"/>
        <line y1="-100.00000" x2="173.20508" style="stroke:black;fill:none" x1="173.20508" y2="100.00000"/>
        <line y1="-200.00000" x2="0.00000" style="stroke:black;fill:none" x1="0.00000" y2="200.00000"/>
        <line y1="-200.00000" x2="173.20508" style="stroke:black;fill:none" x1="0.00000" y2="100.00000"/>
        <line y1="-200.00000" x2="173.20508" style="stroke:black;fill:none" x1="0.00000" y2="-100.00000"/>
        <line y1="-100.00000" x2="0.00000" style="stroke:black;fill:none" x1="-173.20508" y2="200.00000"/>
        <line y1="-100.00000" x2="173.20508" style="stroke:black;fill:none" x1="-173.20508" y2="100.00000"/>
        <line y1="-100.00000" x2="173.20508" style="stroke:black;fill:none" x1="-173.20508" y2="-100.00000"/>
        <line y1="-100.00000" x2="0.00000" style="stroke:black;fill:none" x1="-173.20508" y2="-200.00000"/>
        <line y1="100.00000" x2="0.00000" style="stroke:black;fill:none" x1="-173.20508" y2="200.00000"/>
        <line y1="100.00000" x2="173.20508" style="stroke:black;fill:none" x1="-173.20508" y2="100.00000"/>
        <line y1="100.00000" x2="173.20508" style="stroke:black;fill:none" x1="-173.20508" y2="-100.00000"/>
        <line y1="100.00000" x2="0.00000" style="stroke:black;fill:none" x1="-173.20508" y2="-200.00000"/>
        <line y1="100.00000" x2="-173.20508" style="stroke:black;fill:none" x1="-173.20508" y2="-100.00000"/>
        <line y1="400.00000" x2="0.00000" style="stroke:black;fill:none" x1="0.00000" y2="200.00000"/>
        <line y1="400.00000" x2="173.20508" style="stroke:black;fill:none" x1="0.00000" y2="100.00000"/>
        <line y1="400.00000" x2="173.20508" style="stroke:black;fill:none" x1="0.00000" y2="-100.00000"/>
        <line y1="400.00000" x2="0.00000" style="stroke:black;fill:none" x1="0.00000" y2="-200.00000"/>
        <line y1="400.00000" x2="-173.20508" style="stroke:black;fill:none" x1="0.00000" y2="-100.00000"/>
        <line y1="400.00000" x2="-173.20508" style="stroke:black;fill:none" x1="0.00000" y2="100.00000"/>
        <line y1="200.00000" x2="0.00000" style="stroke:black;fill:none" x1="346.41016" y2="200.00000"/>
        <line y1="200.00000" x2="173.20508" style="stroke:black;fill:none" x1="346.41016" y2="100.00000"/>
        <line y1="200.00000" x2="173.20508" style="stroke:black;fill:none" x1="346.41016" y2="-100.00000"/>
        <line y1="200.00000" x2="0.00000" style="stroke:black;fill:none" x1="346.41016" y2="-200.00000"/>
        <line y1="200.00000" x2="-173.20508" style="stroke:black;fill:none" x1="346.41016" y2="-100.00000"/>
        <line y1="200.00000" x2="-173.20508" style="stroke:black;fill:none" x1="346.41016" y2="100.00000"/>
        <line y1="200.00000" x2="0.00000" style="stroke:black;fill:none" x1="346.41016" y2="400.00000"/>
        <line y1="-200.00000" x2="0.00000" style="stroke:black;fill:none" x1="346.41016" y2="200.00000"/>
        <line y1="-200.00000" x2="173.20508" style="stroke:black;fill:none" x1="346.41016" y2="100.00000"/>
        <line y1="-200.00000" x2="173.20508" style="stroke:black;fill:none" x1="346.41016" y2="-100.00000"/>
        <line y1="-200.00000" x2="0.00000" style="stroke:black;fill:none" x1="346.41016" y2="-200.00000"/>
        <line y1="-200.00000" x2="-173.20508" style="stroke:black;fill:none" x1="346.41016" y2="-100.00000"/>
        <line y1="-200.00000" x2="-173.20508" style="stroke:black;fill:none" x1="346.41016" y2="100.00000"/>
        <line y1="-200.00000" x2="0.00000" style="stroke:black;fill:none" x1="346.41016" y2="400.00000"/>
        <line y1="-200.00000" x2="346.41016" style="stroke:black;fill:none" x1="346.41016" y2="200.00000"/>
        <line y1="-400.00000" x2="0.00000" style="stroke:black;fill:none" x1="0.00000" y2="200.00000"/>
        <line y1="-400.00000" x2="173.20508" style="stroke:black;fill:none" x1="0.00000" y2="100.00000"/>
        <line y1="-400.00000" x2="173.20508" style="stroke:black;fill:none" x1="0.00000" y2="-100.00000"/>
        <line y1="-400.00000" x2="0.00000" style="stroke:black;fill:none" x1="0.00000" y2="-200.00000"/>
        <line y1="-400.00000" x2="-173.20508" style="stroke:black;fill:none" x1="0.00000" y2="-100.00000"/>
        <line y1="-400.00000" x2="-173.20508" style="stroke:black;fill:none" x1="0.00000" y2="100.00000"/>
        <line y1="-400.00000" x2="0.00000" style="stroke:black;fill:none" x1="0.00000" y2="400.00000"/>
        <line y1="-400.00000" x2="346.41016" style="stroke:black;fill:none" x1="0.00000" y2="200.00000"/>
        <line y1="-400.00000" x2="346.41016" style="stroke:black;fill:none" x1="0.00000" y2="-200.00000"/>
        <line y1="-200.00000" x2="0.00000" style="stroke:black;fill:none" x1="-346.41016" y2="200.00000"/>
        <line y1="-200.00000" x2="173.20508" style="stroke:black;fill:none" x1="-346.41016" y2="100.00000"/>
        <line y1="-200.00000" x2="173.20508" style="stroke:black;fill:none" x1="-346.41016" y2="-100.00000"/>
        <line y1="-200.00000" x2="0.00000" style="stroke:black;fill:none" x1="-346.41016" y2="-200.00000"/>
        <line y1="-200.00000" x2="-173.20508" style="stroke:black;fill:none" x1="-346.41016" y2="-100.00000"/>
        <line y1="-200.00000" x2="-173.20508" style="stroke:black;fill:none" x1="-346.41016" y2="100.00000"/>
        <line y1="-200.00000" x2="0.00000" style="stroke:black;fill:none" x1="-346.41016" y2="400.00000"/>
        <line y1="-200.00000" x2="346.41016" style="stroke:black;fill:none" x1="-346.41016" y2="200.00000"/>
        <line y1="-200.00000" x2="346.41016" style="stroke:black;fill:none" x1="-346.41016" y2="-200.00000"/>
        <line y1="-200.00000" x2="0.00000" style="stroke:black;fill:none" x1="-346.41016" y2="-400.00000"/>
        <line y1="200.00000" x2="0.00000" style="stroke:black;fill:none" x1="-346.41016" y2="200.00000"/>
        <line y1="200.00000" x2="173.20508" style="stroke:black;fill:none" x1="-346.41016" y2="100.00000"/>
        <line y1="200.00000" x2="173.20508" style="stroke:black;fill:none" x1="-346.41016" y2="-100.00000"/>
        <line y1="200.00000" x2="0.00000" style="stroke:black;fill:none" x1="-346.41016" y2="-200.00000"/>
        <line y1="200.00000" x2="-173.20508" style="stroke:black;fill:none" x1="-346.41016" y2="-100.00000"/>
        <line y1="200.00000" x2="-173.20508" style="stroke:black;fill:none" x1="-346.41016" y2="100.00000"/>
        <line y1="200.00000" x2="0.00000" style="stroke:black;fill:none" x1="-346.41016" y2="400.00000"/>
        <line y1="200.00000" x2="346.41016" style="stroke:black;fill:none" x1="-346.41016" y2="200.00000"/>
        <line y1="200.00000" x2="346.41016" style="stroke:black;fill:none" x1="-346.41016" y2="-200.00000"/>
        <line y1="200.00000" x2="0.00000" style="stroke:black;fill:none" x1="-346.41016" y2="-400.00000"/>
        <line y1="200.00000" x2="-346.41016" style="stroke:black;fill:none" x1="-346.41016" y2="-200.00000"/>
        <line y1="0.00000" x2="0.00000" style="stroke:black;fill:none" x1="0.00000" y2="200.00000"/>
        <line y1="0.00000" x2="173.20508" style="stroke:black;fill:none" x1="0.00000" y2="100.00000"/>
        <line y1="0.00000" x2="173.20508" style="stroke:black;fill:none" x1="0.00000" y2="-100.00000"/>
        <line y1="0.00000" x2="0.00000" style="stroke:black;fill:none" x1="0.00000" y2="-200.00000"/>
        <line y1="0.00000" x2="-173.20508" style="stroke:black;fill:none" x1="0.00000" y2="-100.00000"/>
        <line y1="0.00000" x2="-173.20508" style="stroke:black;fill:none" x1="0.00000" y2="100.00000"/>
        <line y1="0.00000" x2="0.00000" style="stroke:black;fill:none" x1="0.00000" y2="400.00000"/>
        <line y1="0.00000" x2="346.41016" style="stroke:black;fill:none" x1="0.00000" y2="200.00000"/>
        <line y1="0.00000" x2="346.41016" style="stroke:black;fill:none" x1="0.00000" y2="-200.00000"/>
        <line y1="0.00000" x2="0.00000" style="stroke:black;fill:none" x1="0.00000" y2="-400.00000"/>
        <line y1="0.00000" x2="-346.41016" style="stroke:black;fill:none" x1="0.00000" y2="-200.00000"/>
        <line y1="0.00000" x2="-346.41016" style="stroke:black;fill:none" x1="0.00000" y2="200.00000"/>
      </g>
    </g>
  </g>
</svg>
