<?xml version="1.0" encoding="UTF-8" standalone="no"?>
<!-- Created with Inkscape (http://www.inkscape.org/) -->
<svg
   xmlns:dc="http://purl.org/dc/elements/1.1/"
   xmlns:cc="http://web.resource.org/cc/"
   xmlns:rdf="http://www.w3.org/1999/02/22-rdf-syntax-ns#"
   xmlns:svg="http://www.w3.org/2000/svg"
   xmlns="http://www.w3.org/2000/svg"
   xmlns:xlink="http://www.w3.org/1999/xlink"
   xmlns:sodipodi="http://sodipodi.sourceforge.net/DTD/sodipodi-0.dtd"
   xmlns:inkscape="http://www.inkscape.org/namespaces/inkscape"
   width="765"
   height="990"
   id="svg13771"
   sodipodi:version="0.32"
   inkscape:version="0.45"
   sodipodi:docname="mizster_cubeball.svg"
   sodipodi:docbase="/media/oldubu/home/tamarind/0_Code_0/play-svg/scripts/images"
   inkscape:output_extension="org.inkscape.output.svg.inkscape"
   version="1.0"
   sodipodi:modified="true">
  <defs
     id="defs13773">
    <linearGradient
       id="linearGradient10729">
      <stop
         style="stop-color:#ffffff;stop-opacity:1;"
         offset="0"
         id="stop10731" />
      <stop
         style="stop-color:#3e3b3b;stop-opacity:1;"
         offset="1"
         id="stop10733" />
    </linearGradient>
    <radialGradient
       inkscape:collect="always"
       xlink:href="#linearGradient10729"
       id="radialGradient11718"
       gradientUnits="userSpaceOnUse"
       cx="237.50221"
       cy="310.79892"
       fx="237.50221"
       fy="310.79892"
       r="48.637844" />
    <linearGradient
       id="linearGradient3159">
      <stop
         offset="0"
         id="stop3161"
         style="stop-color:#000000;stop-opacity:1;" />
      <stop
         offset="0.39285713"
         id="stop62621"
         style="stop-color:#000000;stop-opacity:0.81632656;" />
      <stop
         offset="1"
         id="stop3163"
         style="stop-color:#ffffff;stop-opacity:0;" />
    </linearGradient>
    <radialGradient
       inkscape:collect="always"
       xlink:href="#linearGradient3159"
       id="radialGradient11716"
       gradientUnits="userSpaceOnUse"
       gradientTransform="scale(1,1.1134612)"
       cx="0"
       cy="0"
       fx="0"
       fy="0"
       r="259.80762" />
    <radialGradient
       inkscape:collect="always"
       xlink:href="#linearGradient3159"
       id="radialGradient13917"
       gradientUnits="userSpaceOnUse"
       gradientTransform="scale(1,1.1134612)"
       cx="0"
       cy="0"
       fx="0"
       fy="0"
       r="259.80762" />
    <radialGradient
       inkscape:collect="always"
       xlink:href="#linearGradient10729"
       id="radialGradient13919"
       gradientUnits="userSpaceOnUse"
       cx="237.50221"
       cy="310.79892"
       fx="237.50221"
       fy="310.79892"
       r="48.637844" />
    <radialGradient
       inkscape:collect="always"
       xlink:href="#linearGradient3159"
       id="radialGradient14021"
       gradientUnits="userSpaceOnUse"
       gradientTransform="scale(1,1.1134612)"
       cx="0"
       cy="0"
       fx="0"
       fy="0"
       r="259.80762" />
    <radialGradient
       inkscape:collect="always"
       xlink:href="#linearGradient10729"
       id="radialGradient14023"
       gradientUnits="userSpaceOnUse"
       cx="237.50221"
       cy="310.79892"
       fx="237.50221"
       fy="310.79892"
       r="48.637844" />
    <radialGradient
       inkscape:collect="always"
       xlink:href="#linearGradient3159"
       id="radialGradient14025"
       gradientUnits="userSpaceOnUse"
       gradientTransform="scale(1,1.1134612)"
       cx="0"
       cy="0"
       fx="0"
       fy="0"
       r="259.80762" />
    <radialGradient
       inkscape:collect="always"
       xlink:href="#linearGradient10729"
       id="radialGradient14027"
       gradientUnits="userSpaceOnUse"
       cx="237.50221"
       cy="310.79892"
       fx="237.50221"
       fy="310.79892"
       r="48.637844" />
  </defs>
  <sodipodi:namedview
     id="base"
     pagecolor="#ffffff"
     bordercolor="#666666"
     borderopacity="1.0"
     gridtolerance="10000"
     guidetolerance="10"
     objecttolerance="10"
     inkscape:pageopacity="0.0"
     inkscape:pageshadow="2"
     inkscape:zoom="0.35"
     inkscape:cx="375"
     inkscape:cy="520"
     inkscape:document-units="px"
     inkscape:current-layer="layer1"
     width="765px"
     height="990px"
     inkscape:window-width="874"
     inkscape:window-height="626"
     inkscape:window-x="0"
     inkscape:window-y="25" />
  <metadata
     id="metadata13776">
    <rdf:RDF>
      <cc:Work
         rdf:about="">
        <dc:format>image/svg+xml</dc:format>
        <dc:type
           rdf:resource="http://purl.org/dc/dcmitype/StillImage" />
      </cc:Work>
    </rdf:RDF>
  </metadata>
  <g
     inkscape:label="Layer 1"
     inkscape:groupmode="layer"
     id="layer1">
    <g
       id="g13745"
       transform="matrix(0.7887914,0,0,0.7887914,14.896964,94.311184)">
      <g
         transform="matrix(0.1979857,0,0,0.1979857,238.10184,167.56342)"
         id="g11706">
        <g
           id="canvas"
           transform="matrix(1.7356881,0,0,-1.7356881,295,295)">
          <path
             style="fill:url(#radialGradient11716);fill-opacity:1;stroke:none"
             d="M 0,200 L 18.55769,289.28571 L 24.74358,185.71429 L 55.67306,267.85714 L 49.48717,171.42857 L 92.78844,246.42857 L 74.23075,157.14286 L 129.90381,225 L 98.97433,142.85714 L 167.01919,203.57143 L 123.71791,128.57143 L 204.13456,182.14286 L 148.4615,114.28571 L 241.24993,160.71429 L 173.20508,100 L 259.80762,128.57143 L 173.20508,71.42857 L 259.80762,85.71429 L 173.20508,42.85714 L 259.80762,42.85714 L 173.20508,14.28571 L 259.80762,0 L 173.20508,-14.28571 L 259.80762,-42.85714 L 173.20508,-42.85714 L 259.80762,-85.71429 L 173.20508,-71.42857 L 259.80762,-128.57143 L 173.20508,-100 L 241.24993,-160.71429 L 148.4615,-114.28571 L 204.13456,-182.14286 L 123.71791,-128.57143 L 167.01919,-203.57143 L 98.97433,-142.85714 L 129.90381,-225 L 74.23075,-157.14286 L 92.78844,-246.42857 L 49.48717,-171.42857 L 55.67306,-267.85714 L 24.74358,-185.71429 L 18.55769,-289.28571 L 0,-200 L -18.55769,-289.28571 L -24.74358,-185.71429 L -55.67306,-267.85714 L -49.48717,-171.42857 L -92.78844,-246.42857 L -74.23075,-157.14286 L -129.90381,-225 L -98.97433,-142.85714 L -167.01919,-203.57143 L -123.71791,-128.57143 L -204.13456,-182.14286 L -148.4615,-114.28571 L -241.24993,-160.71429 L -173.20508,-100 L -259.80762,-128.57143 L -173.20508,-71.42857 L -259.80762,-85.71429 L -173.20508,-42.85714 L -259.80762,-42.85714 L -173.20508,-14.28571 L -259.80762,0 L -173.20508,14.28571 L -259.80762,42.85714 L -173.20508,42.85714 L -259.80762,85.71429 L -173.20508,71.42857 L -259.80762,128.57143 L -173.20508,100 L -241.24993,160.71429 L -148.4615,114.28571 L -204.13456,182.14286 L -123.71791,128.57143 L -167.01919,203.57143 L -98.97433,142.85714 L -129.90381,225 L -74.23075,157.14286 L -92.78844,246.42857 L -49.48717,171.42857 L -55.67306,267.85714 L -24.74358,185.71429 L -18.55769,289.28571 L 0,200 z "
             id="path2175" />
        </g>
        <path
           sodipodi:type="arc"
           style="opacity:1;color:#000000;fill:url(#radialGradient11718);fill-opacity:1;fill-rule:nonzero;stroke:none;stroke-width:1.65346313;stroke-linecap:square;stroke-linejoin:round;marker:none;marker-start:none;marker-mid:none;marker-end:none;stroke-miterlimit:4;stroke-dasharray:none;stroke-dashoffset:0;stroke-opacity:1;visibility:visible;display:inline;overflow:visible;enable-background:accumulate"
           id="path10727"
           sodipodi:cx="237.50221"
           sodipodi:cy="310.79892"
           sodipodi:rx="47.137844"
           sodipodi:ry="47.137844"
           d="M 284.64006 310.79892 A 47.137844 47.137844 0 1 1  190.36437,310.79892 A 47.137844 47.137844 0 1 1  284.64006 310.79892 z"
           transform="matrix(4.8583054,0,0,4.8583054,-858.85828,-1214.9561)" />
        <g
           id="g3233"
           transform="matrix(0.706747,0,0,-0.706747,295,295)"
           style="opacity:1;stroke:#000000;stroke-width:3.33316708;stroke-linecap:round;stroke-linejoin:round;stroke-miterlimit:4;stroke-dasharray:none;stroke-opacity:1">
          <g
             id="hexbox"
             style="stroke:#000000;stroke-width:3.33316708;stroke-linecap:round;stroke-linejoin:round;stroke-miterlimit:4;stroke-dasharray:none;stroke-opacity:1">
            <path
               d="M -173.20508,100 L 0,200 L 173.20508,100 L 0,0 L -173.20508,100 z "
               id="path3224"
               style="fill:#e8e8e8;fill-opacity:1;stroke:#000000;stroke-width:3.33316708;stroke-linecap:round;stroke-linejoin:round;stroke-miterlimit:4;stroke-dasharray:none;stroke-opacity:1" />
            <path
               d="M 173.20508,100 L 173.20508,-100 L 0,-200 L 0,0 L 173.20508,100 z "
               id="path3226"
               style="fill:#676767;fill-opacity:1;stroke:#000000;stroke-width:3.33316708;stroke-linecap:round;stroke-linejoin:round;stroke-miterlimit:4;stroke-dasharray:none;stroke-opacity:1" />
            <path
               d="M 0,-200 L -173.20508,-100 L -173.20508,100 L 0,0 L 0,-200 z "
               id="path3228"
               style="fill:#a0a0a0;fill-opacity:1;stroke:#000000;stroke-width:3.33316708;stroke-linecap:round;stroke-linejoin:round;stroke-miterlimit:4;stroke-dasharray:none;stroke-opacity:1" />
          </g>
        </g>
      </g>
      <g
         transform="translate(-38.697583,-3.7690575)"
         id="g11796">
        <text
           xml:space="preserve"
           style="font-size:47.21653748px;font-style:normal;font-variant:normal;font-weight:normal;font-stretch:normal;text-align:start;line-height:125%;writing-mode:lr-tb;text-anchor:start;fill:#000000;fill-opacity:1;stroke:none;stroke-width:1px;stroke-linecap:butt;stroke-linejoin:miter;stroke-opacity:1;font-family:El Abogado Loco"
           x="174.92079"
           y="42.857555"
           id="text11720"
           sodipodi:linespacing="125%"><tspan
             sodipodi:role="line"
             id="tspan11722"
             x="174.92079"
             y="42.857555">MIZSTER</tspan></text>
        <text
           xml:space="preserve"
           style="font-size:47.21653748px;font-style:normal;font-variant:normal;font-weight:normal;font-stretch:normal;text-align:start;line-height:125%;writing-mode:lr-tb;text-anchor:start;fill:#000000;fill-opacity:1;stroke:none;stroke-width:1px;stroke-linecap:butt;stroke-linejoin:miter;stroke-opacity:1;font-family:El Abogado Loco"
           x="327.65454"
           y="43.007412"
           id="text11724"
           sodipodi:linespacing="125%"><tspan
             sodipodi:role="line"
             id="tspan11728"
             x="327.65454"
             y="43.007412">CUBEBALL</tspan></text>
      </g>
      <text
         sodipodi:linespacing="125%"
         id="text11740"
         y="76.419724"
         x="203.86195"
         style="font-size:14px;font-style:oblique;font-variant:normal;font-weight:normal;font-stretch:normal;text-align:start;line-height:125%;writing-mode:lr-tb;text-anchor:start;fill:#000000;fill-opacity:1;stroke:none;stroke-width:1px;stroke-linecap:butt;stroke-linejoin:miter;stroke-opacity:1;font-family:FreeSans"
         xml:space="preserve"><tspan
           y="76.419724"
           x="203.86195"
           id="tspan11744"
           sodipodi:role="line">Fun for all shapes and sizes !</tspan></text>
      <text
         sodipodi:linespacing="125%"
         id="text11756"
         y="54.793839"
         x="248.31894"
         style="font-size:18px;font-style:normal;font-variant:normal;font-weight:normal;font-stretch:normal;text-align:start;line-height:125%;writing-mode:lr-tb;text-anchor:start;fill:#000000;fill-opacity:1;stroke:none;stroke-width:1px;stroke-linecap:butt;stroke-linejoin:miter;stroke-opacity:1;font-family:El Abogado Loco"
         xml:space="preserve"><tspan
           y="54.793839"
           x="248.31894"
           id="tspan11758"
           sodipodi:role="line">the Space Cadet</tspan></text>
      <text
         transform="scale(0.9017224,1.1089888)"
         sodipodi:linespacing="125%"
         id="text11768"
         y="93.476479"
         x="197.38066"
         style="font-size:21.60125732px;font-style:normal;font-variant:normal;font-weight:normal;font-stretch:normal;text-align:start;line-height:125%;writing-mode:lr-tb;text-anchor:start;fill:#000000;fill-opacity:1;stroke:none;stroke-width:1px;stroke-linecap:butt;stroke-linejoin:miter;stroke-opacity:1;font-family:Domestic Manners"
         xml:space="preserve"><tspan
           y="93.476479"
           x="197.38066"
           id="tspan11770"
           sodipodi:role="line">mizster.cubeball@gmail.com</tspan></text>
      <text
         transform="scale(0.9017224,1.1089888)"
         sodipodi:linespacing="125%"
         id="text11772"
         y="119.3055"
         x="246.80092"
         style="font-size:21.60125732px;font-style:normal;font-variant:normal;font-weight:normal;font-stretch:normal;text-align:start;line-height:125%;writing-mode:lr-tb;text-anchor:start;fill:#000000;fill-opacity:1;stroke:none;stroke-width:1px;stroke-linecap:butt;stroke-linejoin:miter;stroke-opacity:1;font-family:Domestic Manners"
         xml:space="preserve"><tspan
           y="119.3055"
           x="246.80092"
           id="tspan11774"
           sodipodi:role="line">613-237-0976</tspan></text>
      <path
         transform="matrix(2.2395093,1.4675365,-1.4675365,2.2395093,410.37272,-15.943977)"
         d="M 54.367109,159.0227 L -109.39277,76.771854 L 43.718491,-23.922941 L 54.367109,159.0227 z "
         inkscape:randomized="0"
         inkscape:rounded="0"
         inkscape:flatsided="true"
         sodipodi:arg2="2.0362542"
         sodipodi:arg1="0.98905669"
         sodipodi:r2="67.532417"
         sodipodi:r1="105.80249"
         sodipodi:cy="70.623871"
         sodipodi:cx="-3.7690575"
         sodipodi:sides="3"
         id="path11802"
         style="opacity:1;color:#000000;fill:none;fill-opacity:1;fill-rule:nonzero;stroke:#000000;stroke-width:3.68000007;stroke-linecap:square;stroke-linejoin:round;marker:none;marker-start:none;marker-mid:none;marker-end:none;stroke-miterlimit:4;stroke-dasharray:none;stroke-dashoffset:0;stroke-opacity:1;visibility:visible;display:inline;overflow:visible;enable-background:accumulate"
         sodipodi:type="star" />
      <path
         transform="matrix(2.2395093,1.4675365,-1.4675365,2.2395093,410.37272,-15.943977)"
         d="M 54.367109,159.0227 L -109.39277,76.771854 L 43.718491,-23.922941 L 54.367109,159.0227 z "
         inkscape:randomized="0"
         inkscape:rounded="0"
         inkscape:flatsided="true"
         sodipodi:arg2="2.0362542"
         sodipodi:arg1="0.98905669"
         sodipodi:r2="67.532417"
         sodipodi:r1="105.80249"
         sodipodi:cy="70.623871"
         sodipodi:cx="-3.7690575"
         sodipodi:sides="3"
         id="path12774"
         style="opacity:1;color:#000000;fill:none;fill-opacity:1;fill-rule:nonzero;stroke:#fffcfc;stroke-width:1.49392474;stroke-linecap:square;stroke-linejoin:round;marker:none;marker-start:none;marker-mid:none;marker-end:none;stroke-miterlimit:4;stroke-dasharray:none;stroke-dashoffset:0;stroke-opacity:1;visibility:visible;display:inline;overflow:visible;enable-background:accumulate"
         sodipodi:type="star" />
    </g>
    <g
       id="g13867"
       transform="matrix(-0.7887914,0,0,-0.7887914,755.10305,427.3125)">
      <g
         transform="matrix(0.1979857,0,0,0.1979857,238.10184,167.56342)"
         id="g13869">
        <g
           id="g13871"
           transform="matrix(1.7356881,0,0,-1.7356881,295,295)">
          <path
             style="fill:url(#radialGradient13917);fill-opacity:1;stroke:none"
             d="M 0,200 L 18.55769,289.28571 L 24.74358,185.71429 L 55.67306,267.85714 L 49.48717,171.42857 L 92.78844,246.42857 L 74.23075,157.14286 L 129.90381,225 L 98.97433,142.85714 L 167.01919,203.57143 L 123.71791,128.57143 L 204.13456,182.14286 L 148.4615,114.28571 L 241.24993,160.71429 L 173.20508,100 L 259.80762,128.57143 L 173.20508,71.42857 L 259.80762,85.71429 L 173.20508,42.85714 L 259.80762,42.85714 L 173.20508,14.28571 L 259.80762,0 L 173.20508,-14.28571 L 259.80762,-42.85714 L 173.20508,-42.85714 L 259.80762,-85.71429 L 173.20508,-71.42857 L 259.80762,-128.57143 L 173.20508,-100 L 241.24993,-160.71429 L 148.4615,-114.28571 L 204.13456,-182.14286 L 123.71791,-128.57143 L 167.01919,-203.57143 L 98.97433,-142.85714 L 129.90381,-225 L 74.23075,-157.14286 L 92.78844,-246.42857 L 49.48717,-171.42857 L 55.67306,-267.85714 L 24.74358,-185.71429 L 18.55769,-289.28571 L 0,-200 L -18.55769,-289.28571 L -24.74358,-185.71429 L -55.67306,-267.85714 L -49.48717,-171.42857 L -92.78844,-246.42857 L -74.23075,-157.14286 L -129.90381,-225 L -98.97433,-142.85714 L -167.01919,-203.57143 L -123.71791,-128.57143 L -204.13456,-182.14286 L -148.4615,-114.28571 L -241.24993,-160.71429 L -173.20508,-100 L -259.80762,-128.57143 L -173.20508,-71.42857 L -259.80762,-85.71429 L -173.20508,-42.85714 L -259.80762,-42.85714 L -173.20508,-14.28571 L -259.80762,0 L -173.20508,14.28571 L -259.80762,42.85714 L -173.20508,42.85714 L -259.80762,85.71429 L -173.20508,71.42857 L -259.80762,128.57143 L -173.20508,100 L -241.24993,160.71429 L -148.4615,114.28571 L -204.13456,182.14286 L -123.71791,128.57143 L -167.01919,203.57143 L -98.97433,142.85714 L -129.90381,225 L -74.23075,157.14286 L -92.78844,246.42857 L -49.48717,171.42857 L -55.67306,267.85714 L -24.74358,185.71429 L -18.55769,289.28571 L 0,200 z "
             id="path13873" />
        </g>
        <path
           sodipodi:type="arc"
           style="opacity:1;color:#000000;fill:url(#radialGradient13919);fill-opacity:1;fill-rule:nonzero;stroke:none;stroke-width:1.65346313;stroke-linecap:square;stroke-linejoin:round;marker:none;marker-start:none;marker-mid:none;marker-end:none;stroke-miterlimit:4;stroke-dasharray:none;stroke-dashoffset:0;stroke-opacity:1;visibility:visible;display:inline;overflow:visible;enable-background:accumulate"
           id="path13875"
           sodipodi:cx="237.50221"
           sodipodi:cy="310.79892"
           sodipodi:rx="47.137844"
           sodipodi:ry="47.137844"
           d="M 284.64006 310.79892 A 47.137844 47.137844 0 1 1  190.36437,310.79892 A 47.137844 47.137844 0 1 1  284.64006 310.79892 z"
           transform="matrix(4.8583054,0,0,4.8583054,-858.85828,-1214.9561)" />
        <g
           id="g13877"
           transform="matrix(0.706747,0,0,-0.706747,295,295)"
           style="opacity:1;stroke:#000000;stroke-width:3.33316708;stroke-linecap:round;stroke-linejoin:round;stroke-miterlimit:4;stroke-dasharray:none;stroke-opacity:1">
          <g
             id="g13879"
             style="stroke:#000000;stroke-width:3.33316708;stroke-linecap:round;stroke-linejoin:round;stroke-miterlimit:4;stroke-dasharray:none;stroke-opacity:1">
            <path
               d="M -173.20508,100 L 0,200 L 173.20508,100 L 0,0 L -173.20508,100 z "
               id="path13881"
               style="fill:#e8e8e8;fill-opacity:1;stroke:#000000;stroke-width:3.33316708;stroke-linecap:round;stroke-linejoin:round;stroke-miterlimit:4;stroke-dasharray:none;stroke-opacity:1" />
            <path
               d="M 173.20508,100 L 173.20508,-100 L 0,-200 L 0,0 L 173.20508,100 z "
               id="path13883"
               style="fill:#676767;fill-opacity:1;stroke:#000000;stroke-width:3.33316708;stroke-linecap:round;stroke-linejoin:round;stroke-miterlimit:4;stroke-dasharray:none;stroke-opacity:1" />
            <path
               d="M 0,-200 L -173.20508,-100 L -173.20508,100 L 0,0 L 0,-200 z "
               id="path13885"
               style="fill:#a0a0a0;fill-opacity:1;stroke:#000000;stroke-width:3.33316708;stroke-linecap:round;stroke-linejoin:round;stroke-miterlimit:4;stroke-dasharray:none;stroke-opacity:1" />
          </g>
        </g>
      </g>
      <g
         transform="translate(-38.697583,-3.7690575)"
         id="g13887">
        <text
           xml:space="preserve"
           style="font-size:47.21653748px;font-style:normal;font-variant:normal;font-weight:normal;font-stretch:normal;text-align:start;line-height:125%;writing-mode:lr-tb;text-anchor:start;fill:#000000;fill-opacity:1;stroke:none;stroke-width:1px;stroke-linecap:butt;stroke-linejoin:miter;stroke-opacity:1;font-family:El Abogado Loco"
           x="174.92079"
           y="42.857555"
           id="text13889"
           sodipodi:linespacing="125%"><tspan
             sodipodi:role="line"
             id="tspan13891"
             x="174.92079"
             y="42.857555">MIZSTER</tspan></text>
        <text
           xml:space="preserve"
           style="font-size:47.21653748px;font-style:normal;font-variant:normal;font-weight:normal;font-stretch:normal;text-align:start;line-height:125%;writing-mode:lr-tb;text-anchor:start;fill:#000000;fill-opacity:1;stroke:none;stroke-width:1px;stroke-linecap:butt;stroke-linejoin:miter;stroke-opacity:1;font-family:El Abogado Loco"
           x="327.65454"
           y="43.007412"
           id="text13893"
           sodipodi:linespacing="125%"><tspan
             sodipodi:role="line"
             id="tspan13895"
             x="327.65454"
             y="43.007412">CUBEBALL</tspan></text>
      </g>
      <text
         sodipodi:linespacing="125%"
         id="text13897"
         y="76.419724"
         x="203.86195"
         style="font-size:14px;font-style:oblique;font-variant:normal;font-weight:normal;font-stretch:normal;text-align:start;line-height:125%;writing-mode:lr-tb;text-anchor:start;fill:#000000;fill-opacity:1;stroke:none;stroke-width:1px;stroke-linecap:butt;stroke-linejoin:miter;stroke-opacity:1;font-family:FreeSans"
         xml:space="preserve"><tspan
           y="76.419724"
           x="203.86195"
           id="tspan13899"
           sodipodi:role="line">Fun for all shapes and sizes !</tspan></text>
      <text
         sodipodi:linespacing="125%"
         id="text13901"
         y="54.793839"
         x="248.31894"
         style="font-size:18px;font-style:normal;font-variant:normal;font-weight:normal;font-stretch:normal;text-align:start;line-height:125%;writing-mode:lr-tb;text-anchor:start;fill:#000000;fill-opacity:1;stroke:none;stroke-width:1px;stroke-linecap:butt;stroke-linejoin:miter;stroke-opacity:1;font-family:El Abogado Loco"
         xml:space="preserve"><tspan
           y="54.793839"
           x="248.31894"
           id="tspan13903"
           sodipodi:role="line">the Space Cadet</tspan></text>
      <text
         transform="scale(0.9017224,1.1089888)"
         sodipodi:linespacing="125%"
         id="text13905"
         y="93.476479"
         x="197.38066"
         style="font-size:21.60125732px;font-style:normal;font-variant:normal;font-weight:normal;font-stretch:normal;text-align:start;line-height:125%;writing-mode:lr-tb;text-anchor:start;fill:#000000;fill-opacity:1;stroke:none;stroke-width:1px;stroke-linecap:butt;stroke-linejoin:miter;stroke-opacity:1;font-family:Domestic Manners"
         xml:space="preserve"><tspan
           y="93.476479"
           x="197.38066"
           id="tspan13907"
           sodipodi:role="line">mizster.cubeball@gmail.com</tspan></text>
      <text
         transform="scale(0.9017224,1.1089888)"
         sodipodi:linespacing="125%"
         id="text13909"
         y="119.3055"
         x="246.80092"
         style="font-size:21.60125732px;font-style:normal;font-variant:normal;font-weight:normal;font-stretch:normal;text-align:start;line-height:125%;writing-mode:lr-tb;text-anchor:start;fill:#000000;fill-opacity:1;stroke:none;stroke-width:1px;stroke-linecap:butt;stroke-linejoin:miter;stroke-opacity:1;font-family:Domestic Manners"
         xml:space="preserve"><tspan
           y="119.3055"
           x="246.80092"
           id="tspan13911"
           sodipodi:role="line">613-237-0976</tspan></text>
      <path
         transform="matrix(2.2395093,1.4675365,-1.4675365,2.2395093,410.37272,-15.943977)"
         d="M 54.367109,159.0227 L -109.39277,76.771854 L 43.718491,-23.922941 L 54.367109,159.0227 z "
         inkscape:randomized="0"
         inkscape:rounded="0"
         inkscape:flatsided="true"
         sodipodi:arg2="2.0362542"
         sodipodi:arg1="0.98905669"
         sodipodi:r2="67.532417"
         sodipodi:r1="105.80249"
         sodipodi:cy="70.623871"
         sodipodi:cx="-3.7690575"
         sodipodi:sides="3"
         id="path13913"
         style="opacity:1;color:#000000;fill:none;fill-opacity:1;fill-rule:nonzero;stroke:#000000;stroke-width:3.68000007;stroke-linecap:square;stroke-linejoin:round;marker:none;marker-start:none;marker-mid:none;marker-end:none;stroke-miterlimit:4;stroke-dasharray:none;stroke-dashoffset:0;stroke-opacity:1;visibility:visible;display:inline;overflow:visible;enable-background:accumulate"
         sodipodi:type="star" />
      <path
         transform="matrix(2.2395093,1.4675365,-1.4675365,2.2395093,410.37272,-15.943977)"
         d="M 54.367109,159.0227 L -109.39277,76.771854 L 43.718491,-23.922941 L 54.367109,159.0227 z "
         inkscape:randomized="0"
         inkscape:rounded="0"
         inkscape:flatsided="true"
         sodipodi:arg2="2.0362542"
         sodipodi:arg1="0.98905669"
         sodipodi:r2="67.532417"
         sodipodi:r1="105.80249"
         sodipodi:cy="70.623871"
         sodipodi:cx="-3.7690575"
         sodipodi:sides="3"
         id="path13915"
         style="opacity:1;color:#000000;fill:none;fill-opacity:1;fill-rule:nonzero;stroke:#fffcfc;stroke-width:1.49392474;stroke-linecap:square;stroke-linejoin:round;marker:none;marker-start:none;marker-mid:none;marker-end:none;stroke-miterlimit:4;stroke-dasharray:none;stroke-dashoffset:0;stroke-opacity:1;visibility:visible;display:inline;overflow:visible;enable-background:accumulate"
         sodipodi:type="star" />
    </g>
    <g
       id="g13921"
       transform="matrix(0.7887914,0,0,0.7887914,29.896953,523.00439)">
      <g
         transform="matrix(0.1979857,0,0,0.1979857,238.10184,167.56342)"
         id="g13923">
        <g
           id="g13925"
           transform="matrix(1.7356881,0,0,-1.7356881,295,295)">
          <path
             style="fill:url(#radialGradient14021);fill-opacity:1;stroke:none"
             d="M 0,200 L 18.55769,289.28571 L 24.74358,185.71429 L 55.67306,267.85714 L 49.48717,171.42857 L 92.78844,246.42857 L 74.23075,157.14286 L 129.90381,225 L 98.97433,142.85714 L 167.01919,203.57143 L 123.71791,128.57143 L 204.13456,182.14286 L 148.4615,114.28571 L 241.24993,160.71429 L 173.20508,100 L 259.80762,128.57143 L 173.20508,71.42857 L 259.80762,85.71429 L 173.20508,42.85714 L 259.80762,42.85714 L 173.20508,14.28571 L 259.80762,0 L 173.20508,-14.28571 L 259.80762,-42.85714 L 173.20508,-42.85714 L 259.80762,-85.71429 L 173.20508,-71.42857 L 259.80762,-128.57143 L 173.20508,-100 L 241.24993,-160.71429 L 148.4615,-114.28571 L 204.13456,-182.14286 L 123.71791,-128.57143 L 167.01919,-203.57143 L 98.97433,-142.85714 L 129.90381,-225 L 74.23075,-157.14286 L 92.78844,-246.42857 L 49.48717,-171.42857 L 55.67306,-267.85714 L 24.74358,-185.71429 L 18.55769,-289.28571 L 0,-200 L -18.55769,-289.28571 L -24.74358,-185.71429 L -55.67306,-267.85714 L -49.48717,-171.42857 L -92.78844,-246.42857 L -74.23075,-157.14286 L -129.90381,-225 L -98.97433,-142.85714 L -167.01919,-203.57143 L -123.71791,-128.57143 L -204.13456,-182.14286 L -148.4615,-114.28571 L -241.24993,-160.71429 L -173.20508,-100 L -259.80762,-128.57143 L -173.20508,-71.42857 L -259.80762,-85.71429 L -173.20508,-42.85714 L -259.80762,-42.85714 L -173.20508,-14.28571 L -259.80762,0 L -173.20508,14.28571 L -259.80762,42.85714 L -173.20508,42.85714 L -259.80762,85.71429 L -173.20508,71.42857 L -259.80762,128.57143 L -173.20508,100 L -241.24993,160.71429 L -148.4615,114.28571 L -204.13456,182.14286 L -123.71791,128.57143 L -167.01919,203.57143 L -98.97433,142.85714 L -129.90381,225 L -74.23075,157.14286 L -92.78844,246.42857 L -49.48717,171.42857 L -55.67306,267.85714 L -24.74358,185.71429 L -18.55769,289.28571 L 0,200 z "
             id="path13927" />
        </g>
        <path
           sodipodi:type="arc"
           style="opacity:1;color:#000000;fill:url(#radialGradient14023);fill-opacity:1;fill-rule:nonzero;stroke:none;stroke-width:1.65346313;stroke-linecap:square;stroke-linejoin:round;marker:none;marker-start:none;marker-mid:none;marker-end:none;stroke-miterlimit:4;stroke-dasharray:none;stroke-dashoffset:0;stroke-opacity:1;visibility:visible;display:inline;overflow:visible;enable-background:accumulate"
           id="path13929"
           sodipodi:cx="237.50221"
           sodipodi:cy="310.79892"
           sodipodi:rx="47.137844"
           sodipodi:ry="47.137844"
           d="M 284.64006 310.79892 A 47.137844 47.137844 0 1 1  190.36437,310.79892 A 47.137844 47.137844 0 1 1  284.64006 310.79892 z"
           transform="matrix(4.8583054,0,0,4.8583054,-858.85828,-1214.9561)" />
        <g
           id="g13931"
           transform="matrix(0.706747,0,0,-0.706747,295,295)"
           style="opacity:1;stroke:#000000;stroke-width:3.33316708;stroke-linecap:round;stroke-linejoin:round;stroke-miterlimit:4;stroke-dasharray:none;stroke-opacity:1">
          <g
             id="g13933"
             style="stroke:#000000;stroke-width:3.33316708;stroke-linecap:round;stroke-linejoin:round;stroke-miterlimit:4;stroke-dasharray:none;stroke-opacity:1">
            <path
               d="M -173.20508,100 L 0,200 L 173.20508,100 L 0,0 L -173.20508,100 z "
               id="path13935"
               style="fill:#e8e8e8;fill-opacity:1;stroke:#000000;stroke-width:3.33316708;stroke-linecap:round;stroke-linejoin:round;stroke-miterlimit:4;stroke-dasharray:none;stroke-opacity:1" />
            <path
               d="M 173.20508,100 L 173.20508,-100 L 0,-200 L 0,0 L 173.20508,100 z "
               id="path13937"
               style="fill:#676767;fill-opacity:1;stroke:#000000;stroke-width:3.33316708;stroke-linecap:round;stroke-linejoin:round;stroke-miterlimit:4;stroke-dasharray:none;stroke-opacity:1" />
            <path
               d="M 0,-200 L -173.20508,-100 L -173.20508,100 L 0,0 L 0,-200 z "
               id="path13939"
               style="fill:#a0a0a0;fill-opacity:1;stroke:#000000;stroke-width:3.33316708;stroke-linecap:round;stroke-linejoin:round;stroke-miterlimit:4;stroke-dasharray:none;stroke-opacity:1" />
          </g>
        </g>
      </g>
      <g
         transform="translate(-38.697583,-3.7690575)"
         id="g13941">
        <text
           xml:space="preserve"
           style="font-size:47.21653748px;font-style:normal;font-variant:normal;font-weight:normal;font-stretch:normal;text-align:start;line-height:125%;writing-mode:lr-tb;text-anchor:start;fill:#000000;fill-opacity:1;stroke:none;stroke-width:1px;stroke-linecap:butt;stroke-linejoin:miter;stroke-opacity:1;font-family:El Abogado Loco"
           x="174.92079"
           y="42.857555"
           id="text13943"
           sodipodi:linespacing="125%"><tspan
             sodipodi:role="line"
             id="tspan13945"
             x="174.92079"
             y="42.857555">MIZSTER</tspan></text>
        <text
           xml:space="preserve"
           style="font-size:47.21653748px;font-style:normal;font-variant:normal;font-weight:normal;font-stretch:normal;text-align:start;line-height:125%;writing-mode:lr-tb;text-anchor:start;fill:#000000;fill-opacity:1;stroke:none;stroke-width:1px;stroke-linecap:butt;stroke-linejoin:miter;stroke-opacity:1;font-family:El Abogado Loco"
           x="327.65454"
           y="43.007412"
           id="text13947"
           sodipodi:linespacing="125%"><tspan
             sodipodi:role="line"
             id="tspan13949"
             x="327.65454"
             y="43.007412">CUBEBALL</tspan></text>
      </g>
      <text
         sodipodi:linespacing="125%"
         id="text13951"
         y="76.419724"
         x="203.86195"
         style="font-size:14px;font-style:oblique;font-variant:normal;font-weight:normal;font-stretch:normal;text-align:start;line-height:125%;writing-mode:lr-tb;text-anchor:start;fill:#000000;fill-opacity:1;stroke:none;stroke-width:1px;stroke-linecap:butt;stroke-linejoin:miter;stroke-opacity:1;font-family:FreeSans"
         xml:space="preserve"><tspan
           y="76.419724"
           x="203.86195"
           id="tspan13953"
           sodipodi:role="line">Fun for all shapes and sizes !</tspan></text>
      <text
         sodipodi:linespacing="125%"
         id="text13955"
         y="54.793839"
         x="248.31894"
         style="font-size:18px;font-style:normal;font-variant:normal;font-weight:normal;font-stretch:normal;text-align:start;line-height:125%;writing-mode:lr-tb;text-anchor:start;fill:#000000;fill-opacity:1;stroke:none;stroke-width:1px;stroke-linecap:butt;stroke-linejoin:miter;stroke-opacity:1;font-family:El Abogado Loco"
         xml:space="preserve"><tspan
           y="54.793839"
           x="248.31894"
           id="tspan13957"
           sodipodi:role="line">the Space Cadet</tspan></text>
      <text
         transform="scale(0.9017224,1.1089888)"
         sodipodi:linespacing="125%"
         id="text13959"
         y="93.476479"
         x="197.38066"
         style="font-size:21.60125732px;font-style:normal;font-variant:normal;font-weight:normal;font-stretch:normal;text-align:start;line-height:125%;writing-mode:lr-tb;text-anchor:start;fill:#000000;fill-opacity:1;stroke:none;stroke-width:1px;stroke-linecap:butt;stroke-linejoin:miter;stroke-opacity:1;font-family:Domestic Manners"
         xml:space="preserve"><tspan
           y="93.476479"
           x="197.38066"
           id="tspan13961"
           sodipodi:role="line">mizster.cubeball@gmail.com</tspan></text>
      <text
         transform="scale(0.9017224,1.1089888)"
         sodipodi:linespacing="125%"
         id="text13963"
         y="119.3055"
         x="246.80092"
         style="font-size:21.60125732px;font-style:normal;font-variant:normal;font-weight:normal;font-stretch:normal;text-align:start;line-height:125%;writing-mode:lr-tb;text-anchor:start;fill:#000000;fill-opacity:1;stroke:none;stroke-width:1px;stroke-linecap:butt;stroke-linejoin:miter;stroke-opacity:1;font-family:Domestic Manners"
         xml:space="preserve"><tspan
           y="119.3055"
           x="246.80092"
           id="tspan13965"
           sodipodi:role="line">613-237-0976</tspan></text>
      <path
         transform="matrix(2.2395093,1.4675365,-1.4675365,2.2395093,410.37272,-15.943977)"
         d="M 54.367109,159.0227 L -109.39277,76.771854 L 43.718491,-23.922941 L 54.367109,159.0227 z "
         inkscape:randomized="0"
         inkscape:rounded="0"
         inkscape:flatsided="true"
         sodipodi:arg2="2.0362542"
         sodipodi:arg1="0.98905669"
         sodipodi:r2="67.532417"
         sodipodi:r1="105.80249"
         sodipodi:cy="70.623871"
         sodipodi:cx="-3.7690575"
         sodipodi:sides="3"
         id="path13967"
         style="opacity:1;color:#000000;fill:none;fill-opacity:1;fill-rule:nonzero;stroke:#000000;stroke-width:3.68000007;stroke-linecap:square;stroke-linejoin:round;marker:none;marker-start:none;marker-mid:none;marker-end:none;stroke-miterlimit:4;stroke-dasharray:none;stroke-dashoffset:0;stroke-opacity:1;visibility:visible;display:inline;overflow:visible;enable-background:accumulate"
         sodipodi:type="star" />
      <path
         transform="matrix(2.2395093,1.4675365,-1.4675365,2.2395093,410.37272,-15.943977)"
         d="M 54.367109,159.0227 L -109.39277,76.771854 L 43.718491,-23.922941 L 54.367109,159.0227 z "
         inkscape:randomized="0"
         inkscape:rounded="0"
         inkscape:flatsided="true"
         sodipodi:arg2="2.0362542"
         sodipodi:arg1="0.98905669"
         sodipodi:r2="67.532417"
         sodipodi:r1="105.80249"
         sodipodi:cy="70.623871"
         sodipodi:cx="-3.7690575"
         sodipodi:sides="3"
         id="path13969"
         style="opacity:1;color:#000000;fill:none;fill-opacity:1;fill-rule:nonzero;stroke:#fffcfc;stroke-width:1.49392474;stroke-linecap:square;stroke-linejoin:round;marker:none;marker-start:none;marker-mid:none;marker-end:none;stroke-miterlimit:4;stroke-dasharray:none;stroke-dashoffset:0;stroke-opacity:1;visibility:visible;display:inline;overflow:visible;enable-background:accumulate"
         sodipodi:type="star" />
    </g>
    <g
       id="g13971"
       transform="matrix(-0.7887914,0,0,-0.7887914,770.10305,856.0057)">
      <g
         transform="matrix(0.1979857,0,0,0.1979857,238.10184,167.56342)"
         id="g13973">
        <g
           id="g13975"
           transform="matrix(1.7356881,0,0,-1.7356881,295,295)">
          <path
             style="fill:url(#radialGradient14025);fill-opacity:1;stroke:none"
             d="M 0,200 L 18.55769,289.28571 L 24.74358,185.71429 L 55.67306,267.85714 L 49.48717,171.42857 L 92.78844,246.42857 L 74.23075,157.14286 L 129.90381,225 L 98.97433,142.85714 L 167.01919,203.57143 L 123.71791,128.57143 L 204.13456,182.14286 L 148.4615,114.28571 L 241.24993,160.71429 L 173.20508,100 L 259.80762,128.57143 L 173.20508,71.42857 L 259.80762,85.71429 L 173.20508,42.85714 L 259.80762,42.85714 L 173.20508,14.28571 L 259.80762,0 L 173.20508,-14.28571 L 259.80762,-42.85714 L 173.20508,-42.85714 L 259.80762,-85.71429 L 173.20508,-71.42857 L 259.80762,-128.57143 L 173.20508,-100 L 241.24993,-160.71429 L 148.4615,-114.28571 L 204.13456,-182.14286 L 123.71791,-128.57143 L 167.01919,-203.57143 L 98.97433,-142.85714 L 129.90381,-225 L 74.23075,-157.14286 L 92.78844,-246.42857 L 49.48717,-171.42857 L 55.67306,-267.85714 L 24.74358,-185.71429 L 18.55769,-289.28571 L 0,-200 L -18.55769,-289.28571 L -24.74358,-185.71429 L -55.67306,-267.85714 L -49.48717,-171.42857 L -92.78844,-246.42857 L -74.23075,-157.14286 L -129.90381,-225 L -98.97433,-142.85714 L -167.01919,-203.57143 L -123.71791,-128.57143 L -204.13456,-182.14286 L -148.4615,-114.28571 L -241.24993,-160.71429 L -173.20508,-100 L -259.80762,-128.57143 L -173.20508,-71.42857 L -259.80762,-85.71429 L -173.20508,-42.85714 L -259.80762,-42.85714 L -173.20508,-14.28571 L -259.80762,0 L -173.20508,14.28571 L -259.80762,42.85714 L -173.20508,42.85714 L -259.80762,85.71429 L -173.20508,71.42857 L -259.80762,128.57143 L -173.20508,100 L -241.24993,160.71429 L -148.4615,114.28571 L -204.13456,182.14286 L -123.71791,128.57143 L -167.01919,203.57143 L -98.97433,142.85714 L -129.90381,225 L -74.23075,157.14286 L -92.78844,246.42857 L -49.48717,171.42857 L -55.67306,267.85714 L -24.74358,185.71429 L -18.55769,289.28571 L 0,200 z "
             id="path13977" />
        </g>
        <path
           sodipodi:type="arc"
           style="opacity:1;color:#000000;fill:url(#radialGradient14027);fill-opacity:1;fill-rule:nonzero;stroke:none;stroke-width:1.65346313;stroke-linecap:square;stroke-linejoin:round;marker:none;marker-start:none;marker-mid:none;marker-end:none;stroke-miterlimit:4;stroke-dasharray:none;stroke-dashoffset:0;stroke-opacity:1;visibility:visible;display:inline;overflow:visible;enable-background:accumulate"
           id="path13979"
           sodipodi:cx="237.50221"
           sodipodi:cy="310.79892"
           sodipodi:rx="47.137844"
           sodipodi:ry="47.137844"
           d="M 284.64006 310.79892 A 47.137844 47.137844 0 1 1  190.36437,310.79892 A 47.137844 47.137844 0 1 1  284.64006 310.79892 z"
           transform="matrix(4.8583054,0,0,4.8583054,-858.85828,-1214.9561)" />
        <g
           id="g13981"
           transform="matrix(0.706747,0,0,-0.706747,295,295)"
           style="opacity:1;stroke:#000000;stroke-width:3.33316708;stroke-linecap:round;stroke-linejoin:round;stroke-miterlimit:4;stroke-dasharray:none;stroke-opacity:1">
          <g
             id="g13983"
             style="stroke:#000000;stroke-width:3.33316708;stroke-linecap:round;stroke-linejoin:round;stroke-miterlimit:4;stroke-dasharray:none;stroke-opacity:1">
            <path
               d="M -173.20508,100 L 0,200 L 173.20508,100 L 0,0 L -173.20508,100 z "
               id="path13985"
               style="fill:#e8e8e8;fill-opacity:1;stroke:#000000;stroke-width:3.33316708;stroke-linecap:round;stroke-linejoin:round;stroke-miterlimit:4;stroke-dasharray:none;stroke-opacity:1" />
            <path
               d="M 173.20508,100 L 173.20508,-100 L 0,-200 L 0,0 L 173.20508,100 z "
               id="path13987"
               style="fill:#676767;fill-opacity:1;stroke:#000000;stroke-width:3.33316708;stroke-linecap:round;stroke-linejoin:round;stroke-miterlimit:4;stroke-dasharray:none;stroke-opacity:1" />
            <path
               d="M 0,-200 L -173.20508,-100 L -173.20508,100 L 0,0 L 0,-200 z "
               id="path13989"
               style="fill:#a0a0a0;fill-opacity:1;stroke:#000000;stroke-width:3.33316708;stroke-linecap:round;stroke-linejoin:round;stroke-miterlimit:4;stroke-dasharray:none;stroke-opacity:1" />
          </g>
        </g>
      </g>
      <g
         transform="translate(-38.697583,-3.7690575)"
         id="g13991">
        <text
           xml:space="preserve"
           style="font-size:47.21653748px;font-style:normal;font-variant:normal;font-weight:normal;font-stretch:normal;text-align:start;line-height:125%;writing-mode:lr-tb;text-anchor:start;fill:#000000;fill-opacity:1;stroke:none;stroke-width:1px;stroke-linecap:butt;stroke-linejoin:miter;stroke-opacity:1;font-family:El Abogado Loco"
           x="174.92079"
           y="42.857555"
           id="text13993"
           sodipodi:linespacing="125%"><tspan
             sodipodi:role="line"
             id="tspan13995"
             x="174.92079"
             y="42.857555">MIZSTER</tspan></text>
        <text
           xml:space="preserve"
           style="font-size:47.21653748px;font-style:normal;font-variant:normal;font-weight:normal;font-stretch:normal;text-align:start;line-height:125%;writing-mode:lr-tb;text-anchor:start;fill:#000000;fill-opacity:1;stroke:none;stroke-width:1px;stroke-linecap:butt;stroke-linejoin:miter;stroke-opacity:1;font-family:El Abogado Loco"
           x="327.65454"
           y="43.007412"
           id="text13997"
           sodipodi:linespacing="125%"><tspan
             sodipodi:role="line"
             id="tspan13999"
             x="327.65454"
             y="43.007412">CUBEBALL</tspan></text>
      </g>
      <text
         sodipodi:linespacing="125%"
         id="text14001"
         y="76.419724"
         x="203.86195"
         style="font-size:14px;font-style:oblique;font-variant:normal;font-weight:normal;font-stretch:normal;text-align:start;line-height:125%;writing-mode:lr-tb;text-anchor:start;fill:#000000;fill-opacity:1;stroke:none;stroke-width:1px;stroke-linecap:butt;stroke-linejoin:miter;stroke-opacity:1;font-family:FreeSans"
         xml:space="preserve"><tspan
           y="76.419724"
           x="203.86195"
           id="tspan14003"
           sodipodi:role="line">Fun for all shapes and sizes !</tspan></text>
      <text
         sodipodi:linespacing="125%"
         id="text14005"
         y="54.793839"
         x="248.31894"
         style="font-size:18px;font-style:normal;font-variant:normal;font-weight:normal;font-stretch:normal;text-align:start;line-height:125%;writing-mode:lr-tb;text-anchor:start;fill:#000000;fill-opacity:1;stroke:none;stroke-width:1px;stroke-linecap:butt;stroke-linejoin:miter;stroke-opacity:1;font-family:El Abogado Loco"
         xml:space="preserve"><tspan
           y="54.793839"
           x="248.31894"
           id="tspan14007"
           sodipodi:role="line">the Space Cadet</tspan></text>
      <text
         transform="scale(0.9017224,1.1089888)"
         sodipodi:linespacing="125%"
         id="text14009"
         y="93.476479"
         x="197.38066"
         style="font-size:21.60125732px;font-style:normal;font-variant:normal;font-weight:normal;font-stretch:normal;text-align:start;line-height:125%;writing-mode:lr-tb;text-anchor:start;fill:#000000;fill-opacity:1;stroke:none;stroke-width:1px;stroke-linecap:butt;stroke-linejoin:miter;stroke-opacity:1;font-family:Domestic Manners"
         xml:space="preserve"><tspan
           y="93.476479"
           x="197.38066"
           id="tspan14011"
           sodipodi:role="line">mizster.cubeball@gmail.com</tspan></text>
      <text
         transform="scale(0.9017224,1.1089888)"
         sodipodi:linespacing="125%"
         id="text14013"
         y="119.3055"
         x="246.80092"
         style="font-size:21.60125732px;font-style:normal;font-variant:normal;font-weight:normal;font-stretch:normal;text-align:start;line-height:125%;writing-mode:lr-tb;text-anchor:start;fill:#000000;fill-opacity:1;stroke:none;stroke-width:1px;stroke-linecap:butt;stroke-linejoin:miter;stroke-opacity:1;font-family:Domestic Manners"
         xml:space="preserve"><tspan
           y="119.3055"
           x="246.80092"
           id="tspan14015"
           sodipodi:role="line">613-237-0976</tspan></text>
      <path
         transform="matrix(2.2395093,1.4675365,-1.4675365,2.2395093,410.37272,-15.943977)"
         d="M 54.367109,159.0227 L -109.39277,76.771854 L 43.718491,-23.922941 L 54.367109,159.0227 z "
         inkscape:randomized="0"
         inkscape:rounded="0"
         inkscape:flatsided="true"
         sodipodi:arg2="2.0362542"
         sodipodi:arg1="0.98905669"
         sodipodi:r2="67.532417"
         sodipodi:r1="105.80249"
         sodipodi:cy="70.623871"
         sodipodi:cx="-3.7690575"
         sodipodi:sides="3"
         id="path14017"
         style="opacity:1;color:#000000;fill:none;fill-opacity:1;fill-rule:nonzero;stroke:#000000;stroke-width:3.68000007;stroke-linecap:square;stroke-linejoin:round;marker:none;marker-start:none;marker-mid:none;marker-end:none;stroke-miterlimit:4;stroke-dasharray:none;stroke-dashoffset:0;stroke-opacity:1;visibility:visible;display:inline;overflow:visible;enable-background:accumulate"
         sodipodi:type="star" />
      <path
         transform="matrix(2.2395093,1.4675365,-1.4675365,2.2395093,410.37272,-15.943977)"
         d="M 54.367109,159.0227 L -109.39277,76.771854 L 43.718491,-23.922941 L 54.367109,159.0227 z "
         inkscape:randomized="0"
         inkscape:rounded="0"
         inkscape:flatsided="true"
         sodipodi:arg2="2.0362542"
         sodipodi:arg1="0.98905669"
         sodipodi:r2="67.532417"
         sodipodi:r1="105.80249"
         sodipodi:cy="70.623871"
         sodipodi:cx="-3.7690575"
         sodipodi:sides="3"
         id="path14019"
         style="opacity:1;color:#000000;fill:none;fill-opacity:1;fill-rule:nonzero;stroke:#fffcfc;stroke-width:1.49392474;stroke-linecap:square;stroke-linejoin:round;marker:none;marker-start:none;marker-mid:none;marker-end:none;stroke-miterlimit:4;stroke-dasharray:none;stroke-dashoffset:0;stroke-opacity:1;visibility:visible;display:inline;overflow:visible;enable-background:accumulate"
         sodipodi:type="star" />
    </g>
  </g>
</svg>
