<svg xmlns:ns0="http://www.w3.org/2000/svg" xlink="http://www.w3.org/1999/xlink" xmlns="http://www.w3.org/2000/svg" ns0:svg="http://www.w3.org/2000/svg" width="1280" height="1280">
  <defs/>
  <g id="canvas" transform="matrix(1,0,0,-1,0,1280) translate(640,640)">
    <path style="stroke:black;fill:none" d="M-536.84211,31.57895 L-536.84211,31.57895 L-473.68421,-31.57895 L-410.52632,31.57895 L-347.36842,-31.57895 L-284.21053,31.57895 L-221.05263,-31.57895 L-157.89474,31.57895 L-94.73684,-31.57895 L-31.57895,31.57895 L31.57895,-31.57895 L94.73684,31.57895 L157.89474,-31.57895 L221.05263,31.57895 L284.21053,-31.57895 L347.36842,31.57895 L410.52632,-31.57895 L473.68421,31.57895 L536.84211,-31.57895 L600.00000,31.57895"/>
    <path style="stroke:black;fill:none" d="M-536.84211,37.89474 L-536.84211,37.89474 L-473.68421,-37.89474 L-410.52632,37.89474 L-347.36842,-37.89474 L-284.21053,37.89474 L-221.05263,-37.89474 L-157.89474,37.89474 L-94.73684,-37.89474 L-31.57895,37.89474 L31.57895,-37.89474 L94.73684,37.89474 L157.89474,-37.89474 L221.05263,37.89474 L284.21053,-37.89474 L347.36842,37.89474 L410.52632,-37.89474 L473.68421,37.89474 L536.84211,-37.89474 L600.00000,37.89474"/>
    <path style="stroke:black;fill:none" d="M-536.84211,44.21053 L-536.84211,44.21053 L-473.68421,-44.21053 L-410.52632,44.21053 L-347.36842,-44.21053 L-284.21053,44.21053 L-221.05263,-44.21053 L-157.89474,44.21053 L-94.73684,-44.21053 L-31.57895,44.21053 L31.57895,-44.21053 L94.73684,44.21053 L157.89474,-44.21053 L221.05263,44.21053 L284.21053,-44.21053 L347.36842,44.21053 L410.52632,-44.21053 L473.68421,44.21053 L536.84211,-44.21053 L600.00000,44.21053"/>
    <path style="stroke:black;fill:none" d="M-536.84211,50.52632 L-536.84211,50.52632 L-473.68421,-50.52632 L-410.52632,50.52632 L-347.36842,-50.52632 L-284.21053,50.52632 L-221.05263,-50.52632 L-157.89474,50.52632 L-94.73684,-50.52632 L-31.57895,50.52632 L31.57895,-50.52632 L94.73684,50.52632 L157.89474,-50.52632 L221.05263,50.52632 L284.21053,-50.52632 L347.36842,50.52632 L410.52632,-50.52632 L473.68421,50.52632 L536.84211,-50.52632 L600.00000,50.52632"/>
    <path style="stroke:black;fill:none" d="M-536.84211,56.84211 L-536.84211,56.84211 L-473.68421,-56.84211 L-410.52632,56.84211 L-347.36842,-56.84211 L-284.21053,56.84211 L-221.05263,-56.84211 L-157.89474,56.84211 L-94.73684,-56.84211 L-31.57895,56.84211 L31.57895,-56.84211 L94.73684,56.84211 L157.89474,-56.84211 L221.05263,56.84211 L284.21053,-56.84211 L347.36842,56.84211 L410.52632,-56.84211 L473.68421,56.84211 L536.84211,-56.84211 L600.00000,56.84211"/>
    <path style="stroke:black;fill:none" d="M-536.84211,63.15789 L-536.84211,63.15789 L-473.68421,-63.15789 L-410.52632,63.15789 L-347.36842,-63.15789 L-284.21053,63.15789 L-221.05263,-63.15789 L-157.89474,63.15789 L-94.73684,-63.15789 L-31.57895,63.15789 L31.57895,-63.15789 L94.73684,63.15789 L157.89474,-63.15789 L221.05263,63.15789 L284.21053,-63.15789 L347.36842,63.15789 L410.52632,-63.15789 L473.68421,63.15789 L536.84211,-63.15789 L600.00000,63.15789"/>
    <path style="stroke:black;fill:none" d="M-536.84211,69.47368 L-536.84211,69.47368 L-473.68421,-69.47368 L-410.52632,69.47368 L-347.36842,-69.47368 L-284.21053,69.47368 L-221.05263,-69.47368 L-157.89474,69.47368 L-94.73684,-69.47368 L-31.57895,69.47368 L31.57895,-69.47368 L94.73684,69.47368 L157.89474,-69.47368 L221.05263,69.47368 L284.21053,-69.47368 L347.36842,69.47368 L410.52632,-69.47368 L473.68421,69.47368 L536.84211,-69.47368 L600.00000,69.47368"/>
    <path style="stroke:black;fill:none" d="M-536.84211,75.78947 L-536.84211,75.78947 L-473.68421,-75.78947 L-410.52632,75.78947 L-347.36842,-75.78947 L-284.21053,75.78947 L-221.05263,-75.78947 L-157.89474,75.78947 L-94.73684,-75.78947 L-31.57895,75.78947 L31.57895,-75.78947 L94.73684,75.78947 L157.89474,-75.78947 L221.05263,75.78947 L284.21053,-75.78947 L347.36842,75.78947 L410.52632,-75.78947 L473.68421,75.78947 L536.84211,-75.78947 L600.00000,75.78947"/>
    <path style="stroke:black;fill:none" d="M-536.84211,82.10526 L-536.84211,82.10526 L-473.68421,-82.10526 L-410.52632,82.10526 L-347.36842,-82.10526 L-284.21053,82.10526 L-221.05263,-82.10526 L-157.89474,82.10526 L-94.73684,-82.10526 L-31.57895,82.10526 L31.57895,-82.10526 L94.73684,82.10526 L157.89474,-82.10526 L221.05263,82.10526 L284.21053,-82.10526 L347.36842,82.10526 L410.52632,-82.10526 L473.68421,82.10526 L536.84211,-82.10526 L600.00000,82.10526"/>
    <path style="stroke:black;fill:none" d="M-536.84211,88.42105 L-536.84211,88.42105 L-473.68421,-88.42105 L-410.52632,88.42105 L-347.36842,-88.42105 L-284.21053,88.42105 L-221.05263,-88.42105 L-157.89474,88.42105 L-94.73684,-88.42105 L-31.57895,88.42105 L31.57895,-88.42105 L94.73684,88.42105 L157.89474,-88.42105 L221.05263,88.42105 L284.21053,-88.42105 L347.36842,88.42105 L410.52632,-88.42105 L473.68421,88.42105 L536.84211,-88.42105 L600.00000,88.42105"/>
    <path style="stroke:black;fill:none" d="M-536.84211,94.73684 L-536.84211,94.73684 L-473.68421,-94.73684 L-410.52632,94.73684 L-347.36842,-94.73684 L-284.21053,94.73684 L-221.05263,-94.73684 L-157.89474,94.73684 L-94.73684,-94.73684 L-31.57895,94.73684 L31.57895,-94.73684 L94.73684,94.73684 L157.89474,-94.73684 L221.05263,94.73684 L284.21053,-94.73684 L347.36842,94.73684 L410.52632,-94.73684 L473.68421,94.73684 L536.84211,-94.73684 L600.00000,94.73684"/>
    <path style="stroke:black;fill:none" d="M-536.84211,101.05263 L-536.84211,101.05263 L-473.68421,-101.05263 L-410.52632,101.05263 L-347.36842,-101.05263 L-284.21053,101.05263 L-221.05263,-101.05263 L-157.89474,101.05263 L-94.73684,-101.05263 L-31.57895,101.05263 L31.57895,-101.05263 L94.73684,101.05263 L157.89474,-101.05263 L221.05263,101.05263 L284.21053,-101.05263 L347.36842,101.05263 L410.52632,-101.05263 L473.68421,101.05263 L536.84211,-101.05263 L600.00000,101.05263"/>
    <path style="stroke:black;fill:none" d="M-536.84211,107.36842 L-536.84211,107.36842 L-473.68421,-107.36842 L-410.52632,107.36842 L-347.36842,-107.36842 L-284.21053,107.36842 L-221.05263,-107.36842 L-157.89474,107.36842 L-94.73684,-107.36842 L-31.57895,107.36842 L31.57895,-107.36842 L94.73684,107.36842 L157.89474,-107.36842 L221.05263,107.36842 L284.21053,-107.36842 L347.36842,107.36842 L410.52632,-107.36842 L473.68421,107.36842 L536.84211,-107.36842 L600.00000,107.36842"/>
    <path style="stroke:black;fill:none" d="M-536.84211,113.68421 L-536.84211,113.68421 L-473.68421,-113.68421 L-410.52632,113.68421 L-347.36842,-113.68421 L-284.21053,113.68421 L-221.05263,-113.68421 L-157.89474,113.68421 L-94.73684,-113.68421 L-31.57895,113.68421 L31.57895,-113.68421 L94.73684,113.68421 L157.89474,-113.68421 L221.05263,113.68421 L284.21053,-113.68421 L347.36842,113.68421 L410.52632,-113.68421 L473.68421,113.68421 L536.84211,-113.68421 L600.00000,113.68421"/>
    <path style="stroke:black;fill:none" d="M-536.84211,120.00000 L-536.84211,120.00000 L-473.68421,-120.00000 L-410.52632,120.00000 L-347.36842,-120.00000 L-284.21053,120.00000 L-221.05263,-120.00000 L-157.89474,120.00000 L-94.73684,-120.00000 L-31.57895,120.00000 L31.57895,-120.00000 L94.73684,120.00000 L157.89474,-120.00000 L221.05263,120.00000 L284.21053,-120.00000 L347.36842,120.00000 L410.52632,-120.00000 L473.68421,120.00000 L536.84211,-120.00000 L600.00000,120.00000"/>
    <path style="stroke:black;fill:none" d="M-536.84211,126.31579 L-536.84211,126.31579 L-473.68421,-126.31579 L-410.52632,126.31579 L-347.36842,-126.31579 L-284.21053,126.31579 L-221.05263,-126.31579 L-157.89474,126.31579 L-94.73684,-126.31579 L-31.57895,126.31579 L31.57895,-126.31579 L94.73684,126.31579 L157.89474,-126.31579 L221.05263,126.31579 L284.21053,-126.31579 L347.36842,126.31579 L410.52632,-126.31579 L473.68421,126.31579 L536.84211,-126.31579 L600.00000,126.31579"/>
    <path style="stroke:black;fill:none" d="M-536.84211,132.63158 L-536.84211,132.63158 L-473.68421,-132.63158 L-410.52632,132.63158 L-347.36842,-132.63158 L-284.21053,132.63158 L-221.05263,-132.63158 L-157.89474,132.63158 L-94.73684,-132.63158 L-31.57895,132.63158 L31.57895,-132.63158 L94.73684,132.63158 L157.89474,-132.63158 L221.05263,132.63158 L284.21053,-132.63158 L347.36842,132.63158 L410.52632,-132.63158 L473.68421,132.63158 L536.84211,-132.63158 L600.00000,132.63158"/>
    <path style="stroke:black;fill:none" d="M-536.84211,138.94737 L-536.84211,138.94737 L-473.68421,-138.94737 L-410.52632,138.94737 L-347.36842,-138.94737 L-284.21053,138.94737 L-221.05263,-138.94737 L-157.89474,138.94737 L-94.73684,-138.94737 L-31.57895,138.94737 L31.57895,-138.94737 L94.73684,138.94737 L157.89474,-138.94737 L221.05263,138.94737 L284.21053,-138.94737 L347.36842,138.94737 L410.52632,-138.94737 L473.68421,138.94737 L536.84211,-138.94737 L600.00000,138.94737"/>
    <path style="stroke:black;fill:none" d="M-536.84211,145.26316 L-536.84211,145.26316 L-473.68421,-145.26316 L-410.52632,145.26316 L-347.36842,-145.26316 L-284.21053,145.26316 L-221.05263,-145.26316 L-157.89474,145.26316 L-94.73684,-145.26316 L-31.57895,145.26316 L31.57895,-145.26316 L94.73684,145.26316 L157.89474,-145.26316 L221.05263,145.26316 L284.21053,-145.26316 L347.36842,145.26316 L410.52632,-145.26316 L473.68421,145.26316 L536.84211,-145.26316 L600.00000,145.26316"/>
    <path style="stroke:black;fill:none" d="M-536.84211,151.57895 L-536.84211,151.57895 L-473.68421,-151.57895 L-410.52632,151.57895 L-347.36842,-151.57895 L-284.21053,151.57895 L-221.05263,-151.57895 L-157.89474,151.57895 L-94.73684,-151.57895 L-31.57895,151.57895 L31.57895,-151.57895 L94.73684,151.57895 L157.89474,-151.57895 L221.05263,151.57895 L284.21053,-151.57895 L347.36842,151.57895 L410.52632,-151.57895 L473.68421,151.57895 L536.84211,-151.57895 L600.00000,151.57895"/>
    <path style="stroke:black;fill:none" d="M-536.84211,157.89474 L-536.84211,157.89474 L-473.68421,-157.89474 L-410.52632,157.89474 L-347.36842,-157.89474 L-284.21053,157.89474 L-221.05263,-157.89474 L-157.89474,157.89474 L-94.73684,-157.89474 L-31.57895,157.89474 L31.57895,-157.89474 L94.73684,157.89474 L157.89474,-157.89474 L221.05263,157.89474 L284.21053,-157.89474 L347.36842,157.89474 L410.52632,-157.89474 L473.68421,157.89474 L536.84211,-157.89474 L600.00000,157.89474"/>
    <path style="stroke:black;fill:none" d="M-536.84211,164.21053 L-536.84211,164.21053 L-473.68421,-164.21053 L-410.52632,164.21053 L-347.36842,-164.21053 L-284.21053,164.21053 L-221.05263,-164.21053 L-157.89474,164.21053 L-94.73684,-164.21053 L-31.57895,164.21053 L31.57895,-164.21053 L94.73684,164.21053 L157.89474,-164.21053 L221.05263,164.21053 L284.21053,-164.21053 L347.36842,164.21053 L410.52632,-164.21053 L473.68421,164.21053 L536.84211,-164.21053 L600.00000,164.21053"/>
    <path style="stroke:black;fill:none" d="M-536.84211,170.52632 L-536.84211,170.52632 L-473.68421,-170.52632 L-410.52632,170.52632 L-347.36842,-170.52632 L-284.21053,170.52632 L-221.05263,-170.52632 L-157.89474,170.52632 L-94.73684,-170.52632 L-31.57895,170.52632 L31.57895,-170.52632 L94.73684,170.52632 L157.89474,-170.52632 L221.05263,170.52632 L284.21053,-170.52632 L347.36842,170.52632 L410.52632,-170.52632 L473.68421,170.52632 L536.84211,-170.52632 L600.00000,170.52632"/>
    <path style="stroke:black;fill:none" d="M-536.84211,176.84211 L-536.84211,176.84211 L-473.68421,-176.84211 L-410.52632,176.84211 L-347.36842,-176.84211 L-284.21053,176.84211 L-221.05263,-176.84211 L-157.89474,176.84211 L-94.73684,-176.84211 L-31.57895,176.84211 L31.57895,-176.84211 L94.73684,176.84211 L157.89474,-176.84211 L221.05263,176.84211 L284.21053,-176.84211 L347.36842,176.84211 L410.52632,-176.84211 L473.68421,176.84211 L536.84211,-176.84211 L600.00000,176.84211"/>
    <path style="stroke:black;fill:none" d="M-536.84211,183.15789 L-536.84211,183.15789 L-473.68421,-183.15789 L-410.52632,183.15789 L-347.36842,-183.15789 L-284.21053,183.15789 L-221.05263,-183.15789 L-157.89474,183.15789 L-94.73684,-183.15789 L-31.57895,183.15789 L31.57895,-183.15789 L94.73684,183.15789 L157.89474,-183.15789 L221.05263,183.15789 L284.21053,-183.15789 L347.36842,183.15789 L410.52632,-183.15789 L473.68421,183.15789 L536.84211,-183.15789 L600.00000,183.15789"/>
  </g>
</svg>
