<svg xmlns:ns0="http://www.w3.org/2000/svg" xlink="http://www.w3.org/1999/xlink" xmlns="http://www.w3.org/2000/svg" ns0:svg="http://www.w3.org/2000/svg" width="1280" height="1280">
  <defs/>
  <g id="canvas" transform="matrix(1,0,0,-1,0,1280) translate(640,640)">
    <path style="stroke:black;fill:none" d="M-540.00000,10.00000 C-558.97367,66.92100 -498.97367,46.92100 -480.00000,-10.00000 C-461.02633,-66.92100 -401.02633,-46.92100 -420.00000,10.00000 C-438.97367,66.92100 -378.97367,46.92100 -360.00000,-10.00000 C-341.02633,-66.92100 -281.02633,-46.92100 -300.00000,10.00000 C-318.97367,66.92100 -258.97367,46.92100 -240.00000,-10.00000 C-221.02633,-66.92100 -161.02633,-46.92100 -180.00000,10.00000 C-198.97367,66.92100 -138.97367,46.92100 -120.00000,-10.00000 C-101.02633,-66.92100 -41.02633,-46.92100 -60.00000,10.00000 C-78.97367,66.92100 -18.97367,46.92100 0.00000,-10.00000 C18.97367,-66.92100 78.97367,-46.92100 60.00000,10.00000 C41.02633,66.92100 101.02633,46.92100 120.00000,-10.00000 C138.97367,-66.92100 198.97367,-46.92100 180.00000,10.00000 C161.02633,66.92100 221.02633,46.92100 240.00000,-10.00000 C258.97367,-66.92100 318.97367,-46.92100 300.00000,10.00000 C281.02633,66.92100 341.02633,46.92100 360.00000,-10.00000 C378.97367,-66.92100 438.97367,-46.92100 420.00000,10.00000 C401.02633,66.92100 461.02633,46.92100 480.00000,-10.00000 C498.97367,-66.92100 558.97367,-46.92100 540.00000,10.00000"/>
    <path style="stroke:black;fill:none" d="M-540.00000,10.00000 C-560.87103,72.61310 -500.87103,52.61310 -480.00000,-10.00000 C-459.12897,-72.61310 -399.12897,-52.61310 -420.00000,10.00000 C-440.87103,72.61310 -380.87103,52.61310 -360.00000,-10.00000 C-339.12897,-72.61310 -279.12897,-52.61310 -300.00000,10.00000 C-320.87103,72.61310 -260.87103,52.61310 -240.00000,-10.00000 C-219.12897,-72.61310 -159.12897,-52.61310 -180.00000,10.00000 C-200.87103,72.61310 -140.87103,52.61310 -120.00000,-10.00000 C-99.12897,-72.61310 -39.12897,-52.61310 -60.00000,10.00000 C-80.87103,72.61310 -20.87103,52.61310 0.00000,-10.00000 C20.87103,-72.61310 80.87103,-52.61310 60.00000,10.00000 C39.12897,72.61310 99.12897,52.61310 120.00000,-10.00000 C140.87103,-72.61310 200.87103,-52.61310 180.00000,10.00000 C159.12897,72.61310 219.12897,52.61310 240.00000,-10.00000 C260.87103,-72.61310 320.87103,-52.61310 300.00000,10.00000 C279.12897,72.61310 339.12897,52.61310 360.00000,-10.00000 C380.87103,-72.61310 440.87103,-52.61310 420.00000,10.00000 C399.12897,72.61310 459.12897,52.61310 480.00000,-10.00000 C500.87103,-72.61310 560.87103,-52.61310 540.00000,10.00000"/>
    <path style="stroke:black;fill:none" d="M-540.00000,10.00000 C-562.76840,78.30520 -502.76840,58.30520 -480.00000,-10.00000 C-457.23160,-78.30520 -397.23160,-58.30520 -420.00000,10.00000 C-442.76840,78.30520 -382.76840,58.30520 -360.00000,-10.00000 C-337.23160,-78.30520 -277.23160,-58.30520 -300.00000,10.00000 C-322.76840,78.30520 -262.76840,58.30520 -240.00000,-10.00000 C-217.23160,-78.30520 -157.23160,-58.30520 -180.00000,10.00000 C-202.76840,78.30520 -142.76840,58.30520 -120.00000,-10.00000 C-97.23160,-78.30520 -37.23160,-58.30520 -60.00000,10.00000 C-82.76840,78.30520 -22.76840,58.30520 0.00000,-10.00000 C22.76840,-78.30520 82.76840,-58.30520 60.00000,10.00000 C37.23160,78.30520 97.23160,58.30520 120.00000,-10.00000 C142.76840,-78.30520 202.76840,-58.30520 180.00000,10.00000 C157.23160,78.30520 217.23160,58.30520 240.00000,-10.00000 C262.76840,-78.30520 322.76840,-58.30520 300.00000,10.00000 C277.23160,78.30520 337.23160,58.30520 360.00000,-10.00000 C382.76840,-78.30520 442.76840,-58.30520 420.00000,10.00000 C397.23160,78.30520 457.23160,58.30520 480.00000,-10.00000 C502.76840,-78.30520 562.76840,-58.30520 540.00000,10.00000"/>
    <path style="stroke:black;fill:none" d="M-540.00000,10.00000 C-564.66577,83.99730 -504.66577,63.99730 -480.00000,-10.00000 C-455.33423,-83.99730 -395.33423,-63.99730 -420.00000,10.00000 C-444.66577,83.99730 -384.66577,63.99730 -360.00000,-10.00000 C-335.33423,-83.99730 -275.33423,-63.99730 -300.00000,10.00000 C-324.66577,83.99730 -264.66577,63.99730 -240.00000,-10.00000 C-215.33423,-83.99730 -155.33423,-63.99730 -180.00000,10.00000 C-204.66577,83.99730 -144.66577,63.99730 -120.00000,-10.00000 C-95.33423,-83.99730 -35.33423,-63.99730 -60.00000,10.00000 C-84.66577,83.99730 -24.66577,63.99730 0.00000,-10.00000 C24.66577,-83.99730 84.66577,-63.99730 60.00000,10.00000 C35.33423,83.99730 95.33423,63.99730 120.00000,-10.00000 C144.66577,-83.99730 204.66577,-63.99730 180.00000,10.00000 C155.33423,83.99730 215.33423,63.99730 240.00000,-10.00000 C264.66577,-83.99730 324.66577,-63.99730 300.00000,10.00000 C275.33423,83.99730 335.33423,63.99730 360.00000,-10.00000 C384.66577,-83.99730 444.66577,-63.99730 420.00000,10.00000 C395.33423,83.99730 455.33423,63.99730 480.00000,-10.00000 C504.66577,-83.99730 564.66577,-63.99730 540.00000,10.00000"/>
    <path style="stroke:black;fill:none" d="M-540.00000,10.00000 C-566.56313,89.68940 -506.56313,69.68940 -480.00000,-10.00000 C-453.43687,-89.68940 -393.43687,-69.68940 -420.00000,10.00000 C-446.56313,89.68940 -386.56313,69.68940 -360.00000,-10.00000 C-333.43687,-89.68940 -273.43687,-69.68940 -300.00000,10.00000 C-326.56313,89.68940 -266.56313,69.68940 -240.00000,-10.00000 C-213.43687,-89.68940 -153.43687,-69.68940 -180.00000,10.00000 C-206.56313,89.68940 -146.56313,69.68940 -120.00000,-10.00000 C-93.43687,-89.68940 -33.43687,-69.68940 -60.00000,10.00000 C-86.56313,89.68940 -26.56313,69.68940 0.00000,-10.00000 C26.56313,-89.68940 86.56313,-69.68940 60.00000,10.00000 C33.43687,89.68940 93.43687,69.68940 120.00000,-10.00000 C146.56313,-89.68940 206.56313,-69.68940 180.00000,10.00000 C153.43687,89.68940 213.43687,69.68940 240.00000,-10.00000 C266.56313,-89.68940 326.56313,-69.68940 300.00000,10.00000 C273.43687,89.68940 333.43687,69.68940 360.00000,-10.00000 C386.56313,-89.68940 446.56313,-69.68940 420.00000,10.00000 C393.43687,89.68940 453.43687,69.68940 480.00000,-10.00000 C506.56313,-89.68940 566.56313,-69.68940 540.00000,10.00000"/>
    <path style="stroke:black;fill:none" d="M-540.00000,10.00000 C-568.46050,95.38150 -508.46050,75.38150 -480.00000,-10.00000 C-451.53950,-95.38150 -391.53950,-75.38150 -420.00000,10.00000 C-448.46050,95.38150 -388.46050,75.38150 -360.00000,-10.00000 C-331.53950,-95.38150 -271.53950,-75.38150 -300.00000,10.00000 C-328.46050,95.38150 -268.46050,75.38150 -240.00000,-10.00000 C-211.53950,-95.38150 -151.53950,-75.38150 -180.00000,10.00000 C-208.46050,95.38150 -148.46050,75.38150 -120.00000,-10.00000 C-91.53950,-95.38150 -31.53950,-75.38150 -60.00000,10.00000 C-88.46050,95.38150 -28.46050,75.38150 0.00000,-10.00000 C28.46050,-95.38150 88.46050,-75.38150 60.00000,10.00000 C31.53950,95.38150 91.53950,75.38150 120.00000,-10.00000 C148.46050,-95.38150 208.46050,-75.38150 180.00000,10.00000 C151.53950,95.38150 211.53950,75.38150 240.00000,-10.00000 C268.46050,-95.38150 328.46050,-75.38150 300.00000,10.00000 C271.53950,95.38150 331.53950,75.38150 360.00000,-10.00000 C388.46050,-95.38150 448.46050,-75.38150 420.00000,10.00000 C391.53950,95.38150 451.53950,75.38150 480.00000,-10.00000 C508.46050,-95.38150 568.46050,-75.38150 540.00000,10.00000"/>
    <path style="stroke:black;fill:none" d="M-540.00000,10.00000 C-570.35787,101.07360 -510.35787,81.07360 -480.00000,-10.00000 C-449.64213,-101.07360 -389.64213,-81.07360 -420.00000,10.00000 C-450.35787,101.07360 -390.35787,81.07360 -360.00000,-10.00000 C-329.64213,-101.07360 -269.64213,-81.07360 -300.00000,10.00000 C-330.35787,101.07360 -270.35787,81.07360 -240.00000,-10.00000 C-209.64213,-101.07360 -149.64213,-81.07360 -180.00000,10.00000 C-210.35787,101.07360 -150.35787,81.07360 -120.00000,-10.00000 C-89.64213,-101.07360 -29.64213,-81.07360 -60.00000,10.00000 C-90.35787,101.07360 -30.35787,81.07360 0.00000,-10.00000 C30.35787,-101.07360 90.35787,-81.07360 60.00000,10.00000 C29.64213,101.07360 89.64213,81.07360 120.00000,-10.00000 C150.35787,-101.07360 210.35787,-81.07360 180.00000,10.00000 C149.64213,101.07360 209.64213,81.07360 240.00000,-10.00000 C270.35787,-101.07360 330.35787,-81.07360 300.00000,10.00000 C269.64213,101.07360 329.64213,81.07360 360.00000,-10.00000 C390.35787,-101.07360 450.35787,-81.07360 420.00000,10.00000 C389.64213,101.07360 449.64213,81.07360 480.00000,-10.00000 C510.35787,-101.07360 570.35787,-81.07360 540.00000,10.00000"/>
    <path style="stroke:black;fill:none" d="M-540.00000,10.00000 C-572.25523,106.76570 -512.25523,86.76570 -480.00000,-10.00000 C-447.74477,-106.76570 -387.74477,-86.76570 -420.00000,10.00000 C-452.25523,106.76570 -392.25523,86.76570 -360.00000,-10.00000 C-327.74477,-106.76570 -267.74477,-86.76570 -300.00000,10.00000 C-332.25523,106.76570 -272.25523,86.76570 -240.00000,-10.00000 C-207.74477,-106.76570 -147.74477,-86.76570 -180.00000,10.00000 C-212.25523,106.76570 -152.25523,86.76570 -120.00000,-10.00000 C-87.74477,-106.76570 -27.74477,-86.76570 -60.00000,10.00000 C-92.25523,106.76570 -32.25523,86.76570 0.00000,-10.00000 C32.25523,-106.76570 92.25523,-86.76570 60.00000,10.00000 C27.74477,106.76570 87.74477,86.76570 120.00000,-10.00000 C152.25523,-106.76570 212.25523,-86.76570 180.00000,10.00000 C147.74477,106.76570 207.74477,86.76570 240.00000,-10.00000 C272.25523,-106.76570 332.25523,-86.76570 300.00000,10.00000 C267.74477,106.76570 327.74477,86.76570 360.00000,-10.00000 C392.25523,-106.76570 452.25523,-86.76570 420.00000,10.00000 C387.74477,106.76570 447.74477,86.76570 480.00000,-10.00000 C512.25523,-106.76570 572.25523,-86.76570 540.00000,10.00000"/>
    <path style="stroke:black;fill:none" d="M-540.00000,10.00000 C-574.15260,112.45780 -514.15260,92.45780 -480.00000,-10.00000 C-445.84740,-112.45780 -385.84740,-92.45780 -420.00000,10.00000 C-454.15260,112.45780 -394.15260,92.45780 -360.00000,-10.00000 C-325.84740,-112.45780 -265.84740,-92.45780 -300.00000,10.00000 C-334.15260,112.45780 -274.15260,92.45780 -240.00000,-10.00000 C-205.84740,-112.45780 -145.84740,-92.45780 -180.00000,10.00000 C-214.15260,112.45780 -154.15260,92.45780 -120.00000,-10.00000 C-85.84740,-112.45780 -25.84740,-92.45780 -60.00000,10.00000 C-94.15260,112.45780 -34.15260,92.45780 0.00000,-10.00000 C34.15260,-112.45780 94.15260,-92.45780 60.00000,10.00000 C25.84740,112.45780 85.84740,92.45780 120.00000,-10.00000 C154.15260,-112.45780 214.15260,-92.45780 180.00000,10.00000 C145.84740,112.45780 205.84740,92.45780 240.00000,-10.00000 C274.15260,-112.45780 334.15260,-92.45780 300.00000,10.00000 C265.84740,112.45780 325.84740,92.45780 360.00000,-10.00000 C394.15260,-112.45780 454.15260,-92.45780 420.00000,10.00000 C385.84740,112.45780 445.84740,92.45780 480.00000,-10.00000 C514.15260,-112.45780 574.15260,-92.45780 540.00000,10.00000"/>
    <path style="stroke:black;fill:none" d="M-540.00000,10.00000 C-576.04997,118.14990 -516.04997,98.14990 -480.00000,-10.00000 C-443.95003,-118.14990 -383.95003,-98.14990 -420.00000,10.00000 C-456.04997,118.14990 -396.04997,98.14990 -360.00000,-10.00000 C-323.95003,-118.14990 -263.95003,-98.14990 -300.00000,10.00000 C-336.04997,118.14990 -276.04997,98.14990 -240.00000,-10.00000 C-203.95003,-118.14990 -143.95003,-98.14990 -180.00000,10.00000 C-216.04997,118.14990 -156.04997,98.14990 -120.00000,-10.00000 C-83.95003,-118.14990 -23.95003,-98.14990 -60.00000,10.00000 C-96.04997,118.14990 -36.04997,98.14990 0.00000,-10.00000 C36.04997,-118.14990 96.04997,-98.14990 60.00000,10.00000 C23.95003,118.14990 83.95003,98.14990 120.00000,-10.00000 C156.04997,-118.14990 216.04997,-98.14990 180.00000,10.00000 C143.95003,118.14990 203.95003,98.14990 240.00000,-10.00000 C276.04997,-118.14990 336.04997,-98.14990 300.00000,10.00000 C263.95003,118.14990 323.95003,98.14990 360.00000,-10.00000 C396.04997,-118.14990 456.04997,-98.14990 420.00000,10.00000 C383.95003,118.14990 443.95003,98.14990 480.00000,-10.00000 C516.04997,-118.14990 576.04997,-98.14990 540.00000,10.00000"/>
    <path style="stroke:black;fill:none" d="M-540.00000,10.00000 C-577.94733,123.84200 -517.94733,103.84200 -480.00000,-10.00000 C-442.05267,-123.84200 -382.05267,-103.84200 -420.00000,10.00000 C-457.94733,123.84200 -397.94733,103.84200 -360.00000,-10.00000 C-322.05267,-123.84200 -262.05267,-103.84200 -300.00000,10.00000 C-337.94733,123.84200 -277.94733,103.84200 -240.00000,-10.00000 C-202.05267,-123.84200 -142.05267,-103.84200 -180.00000,10.00000 C-217.94733,123.84200 -157.94733,103.84200 -120.00000,-10.00000 C-82.05267,-123.84200 -22.05267,-103.84200 -60.00000,10.00000 C-97.94733,123.84200 -37.94733,103.84200 0.00000,-10.00000 C37.94733,-123.84200 97.94733,-103.84200 60.00000,10.00000 C22.05267,123.84200 82.05267,103.84200 120.00000,-10.00000 C157.94733,-123.84200 217.94733,-103.84200 180.00000,10.00000 C142.05267,123.84200 202.05267,103.84200 240.00000,-10.00000 C277.94733,-123.84200 337.94733,-103.84200 300.00000,10.00000 C262.05267,123.84200 322.05267,103.84200 360.00000,-10.00000 C397.94733,-123.84200 457.94733,-103.84200 420.00000,10.00000 C382.05267,123.84200 442.05267,103.84200 480.00000,-10.00000 C517.94733,-123.84200 577.94733,-103.84200 540.00000,10.00000"/>
    <path style="stroke:black;fill:none" d="M-540.00000,10.00000 C-579.84470,129.53410 -519.84470,109.53410 -480.00000,-10.00000 C-440.15530,-129.53410 -380.15530,-109.53410 -420.00000,10.00000 C-459.84470,129.53410 -399.84470,109.53410 -360.00000,-10.00000 C-320.15530,-129.53410 -260.15530,-109.53410 -300.00000,10.00000 C-339.84470,129.53410 -279.84470,109.53410 -240.00000,-10.00000 C-200.15530,-129.53410 -140.15530,-109.53410 -180.00000,10.00000 C-219.84470,129.53410 -159.84470,109.53410 -120.00000,-10.00000 C-80.15530,-129.53410 -20.15530,-109.53410 -60.00000,10.00000 C-99.84470,129.53410 -39.84470,109.53410 0.00000,-10.00000 C39.84470,-129.53410 99.84470,-109.53410 60.00000,10.00000 C20.15530,129.53410 80.15530,109.53410 120.00000,-10.00000 C159.84470,-129.53410 219.84470,-109.53410 180.00000,10.00000 C140.15530,129.53410 200.15530,109.53410 240.00000,-10.00000 C279.84470,-129.53410 339.84470,-109.53410 300.00000,10.00000 C260.15530,129.53410 320.15530,109.53410 360.00000,-10.00000 C399.84470,-129.53410 459.84470,-109.53410 420.00000,10.00000 C380.15530,129.53410 440.15530,109.53410 480.00000,-10.00000 C519.84470,-129.53410 579.84470,-109.53410 540.00000,10.00000"/>
    <path style="stroke:black;fill:none" d="M-540.00000,10.00000 C-581.74207,135.22620 -521.74207,115.22620 -480.00000,-10.00000 C-438.25793,-135.22620 -378.25793,-115.22620 -420.00000,10.00000 C-461.74207,135.22620 -401.74207,115.22620 -360.00000,-10.00000 C-318.25793,-135.22620 -258.25793,-115.22620 -300.00000,10.00000 C-341.74207,135.22620 -281.74207,115.22620 -240.00000,-10.00000 C-198.25793,-135.22620 -138.25793,-115.22620 -180.00000,10.00000 C-221.74207,135.22620 -161.74207,115.22620 -120.00000,-10.00000 C-78.25793,-135.22620 -18.25793,-115.22620 -60.00000,10.00000 C-101.74207,135.22620 -41.74207,115.22620 0.00000,-10.00000 C41.74207,-135.22620 101.74207,-115.22620 60.00000,10.00000 C18.25793,135.22620 78.25793,115.22620 120.00000,-10.00000 C161.74207,-135.22620 221.74207,-115.22620 180.00000,10.00000 C138.25793,135.22620 198.25793,115.22620 240.00000,-10.00000 C281.74207,-135.22620 341.74207,-115.22620 300.00000,10.00000 C258.25793,135.22620 318.25793,115.22620 360.00000,-10.00000 C401.74207,-135.22620 461.74207,-115.22620 420.00000,10.00000 C378.25793,135.22620 438.25793,115.22620 480.00000,-10.00000 C521.74207,-135.22620 581.74207,-115.22620 540.00000,10.00000"/>
    <path style="stroke:black;fill:none" d="M-540.00000,10.00000 C-583.63943,140.91830 -523.63943,120.91830 -480.00000,-10.00000 C-436.36057,-140.91830 -376.36057,-120.91830 -420.00000,10.00000 C-463.63943,140.91830 -403.63943,120.91830 -360.00000,-10.00000 C-316.36057,-140.91830 -256.36057,-120.91830 -300.00000,10.00000 C-343.63943,140.91830 -283.63943,120.91830 -240.00000,-10.00000 C-196.36057,-140.91830 -136.36057,-120.91830 -180.00000,10.00000 C-223.63943,140.91830 -163.63943,120.91830 -120.00000,-10.00000 C-76.36057,-140.91830 -16.36057,-120.91830 -60.00000,10.00000 C-103.63943,140.91830 -43.63943,120.91830 0.00000,-10.00000 C43.63943,-140.91830 103.63943,-120.91830 60.00000,10.00000 C16.36057,140.91830 76.36057,120.91830 120.00000,-10.00000 C163.63943,-140.91830 223.63943,-120.91830 180.00000,10.00000 C136.36057,140.91830 196.36057,120.91830 240.00000,-10.00000 C283.63943,-140.91830 343.63943,-120.91830 300.00000,10.00000 C256.36057,140.91830 316.36057,120.91830 360.00000,-10.00000 C403.63943,-140.91830 463.63943,-120.91830 420.00000,10.00000 C376.36057,140.91830 436.36057,120.91830 480.00000,-10.00000 C523.63943,-140.91830 583.63943,-120.91830 540.00000,10.00000"/>
    <path style="stroke:black;fill:none" d="M-540.00000,10.00000 C-585.53680,146.61039 -525.53680,126.61039 -480.00000,-10.00000 C-434.46320,-146.61039 -374.46320,-126.61039 -420.00000,10.00000 C-465.53680,146.61039 -405.53680,126.61039 -360.00000,-10.00000 C-314.46320,-146.61039 -254.46320,-126.61039 -300.00000,10.00000 C-345.53680,146.61039 -285.53680,126.61039 -240.00000,-10.00000 C-194.46320,-146.61039 -134.46320,-126.61039 -180.00000,10.00000 C-225.53680,146.61039 -165.53680,126.61039 -120.00000,-10.00000 C-74.46320,-146.61039 -14.46320,-126.61039 -60.00000,10.00000 C-105.53680,146.61039 -45.53680,126.61039 0.00000,-10.00000 C45.53680,-146.61039 105.53680,-126.61039 60.00000,10.00000 C14.46320,146.61039 74.46320,126.61039 120.00000,-10.00000 C165.53680,-146.61039 225.53680,-126.61039 180.00000,10.00000 C134.46320,146.61039 194.46320,126.61039 240.00000,-10.00000 C285.53680,-146.61039 345.53680,-126.61039 300.00000,10.00000 C254.46320,146.61039 314.46320,126.61039 360.00000,-10.00000 C405.53680,-146.61039 465.53680,-126.61039 420.00000,10.00000 C374.46320,146.61039 434.46320,126.61039 480.00000,-10.00000 C525.53680,-146.61039 585.53680,-126.61039 540.00000,10.00000"/>
    <path style="stroke:black;fill:none" d="M-540.00000,10.00000 C-587.43416,152.30249 -527.43416,132.30249 -480.00000,-10.00000 C-432.56584,-152.30249 -372.56584,-132.30249 -420.00000,10.00000 C-467.43416,152.30249 -407.43416,132.30249 -360.00000,-10.00000 C-312.56584,-152.30249 -252.56584,-132.30249 -300.00000,10.00000 C-347.43416,152.30249 -287.43416,132.30249 -240.00000,-10.00000 C-192.56584,-152.30249 -132.56584,-132.30249 -180.00000,10.00000 C-227.43416,152.30249 -167.43416,132.30249 -120.00000,-10.00000 C-72.56584,-152.30249 -12.56584,-132.30249 -60.00000,10.00000 C-107.43416,152.30249 -47.43416,132.30249 0.00000,-10.00000 C47.43416,-152.30249 107.43416,-132.30249 60.00000,10.00000 C12.56584,152.30249 72.56584,132.30249 120.00000,-10.00000 C167.43416,-152.30249 227.43416,-132.30249 180.00000,10.00000 C132.56584,152.30249 192.56584,132.30249 240.00000,-10.00000 C287.43416,-152.30249 347.43416,-132.30249 300.00000,10.00000 C252.56584,152.30249 312.56584,132.30249 360.00000,-10.00000 C407.43416,-152.30249 467.43416,-132.30249 420.00000,10.00000 C372.56584,152.30249 432.56584,132.30249 480.00000,-10.00000 C527.43416,-152.30249 587.43416,-132.30249 540.00000,10.00000"/>
    <path style="stroke:black;fill:none" d="M-540.00000,10.00000 C-589.33153,157.99459 -529.33153,137.99459 -480.00000,-10.00000 C-430.66847,-157.99459 -370.66847,-137.99459 -420.00000,10.00000 C-469.33153,157.99459 -409.33153,137.99459 -360.00000,-10.00000 C-310.66847,-157.99459 -250.66847,-137.99459 -300.00000,10.00000 C-349.33153,157.99459 -289.33153,137.99459 -240.00000,-10.00000 C-190.66847,-157.99459 -130.66847,-137.99459 -180.00000,10.00000 C-229.33153,157.99459 -169.33153,137.99459 -120.00000,-10.00000 C-70.66847,-157.99459 -10.66847,-137.99459 -60.00000,10.00000 C-109.33153,157.99459 -49.33153,137.99459 0.00000,-10.00000 C49.33153,-157.99459 109.33153,-137.99459 60.00000,10.00000 C10.66847,157.99459 70.66847,137.99459 120.00000,-10.00000 C169.33153,-157.99459 229.33153,-137.99459 180.00000,10.00000 C130.66847,157.99459 190.66847,137.99459 240.00000,-10.00000 C289.33153,-157.99459 349.33153,-137.99459 300.00000,10.00000 C250.66847,157.99459 310.66847,137.99459 360.00000,-10.00000 C409.33153,-157.99459 469.33153,-137.99459 420.00000,10.00000 C370.66847,157.99459 430.66847,137.99459 480.00000,-10.00000 C529.33153,-157.99459 589.33153,-137.99459 540.00000,10.00000"/>
    <path style="stroke:black;fill:none" d="M-540.00000,10.00000 C-591.22890,163.68669 -531.22890,143.68669 -480.00000,-10.00000 C-428.77110,-163.68669 -368.77110,-143.68669 -420.00000,10.00000 C-471.22890,163.68669 -411.22890,143.68669 -360.00000,-10.00000 C-308.77110,-163.68669 -248.77110,-143.68669 -300.00000,10.00000 C-351.22890,163.68669 -291.22890,143.68669 -240.00000,-10.00000 C-188.77110,-163.68669 -128.77110,-143.68669 -180.00000,10.00000 C-231.22890,163.68669 -171.22890,143.68669 -120.00000,-10.00000 C-68.77110,-163.68669 -8.77110,-143.68669 -60.00000,10.00000 C-111.22890,163.68669 -51.22890,143.68669 0.00000,-10.00000 C51.22890,-163.68669 111.22890,-143.68669 60.00000,10.00000 C8.77110,163.68669 68.77110,143.68669 120.00000,-10.00000 C171.22890,-163.68669 231.22890,-143.68669 180.00000,10.00000 C128.77110,163.68669 188.77110,143.68669 240.00000,-10.00000 C291.22890,-163.68669 351.22890,-143.68669 300.00000,10.00000 C248.77110,163.68669 308.77110,143.68669 360.00000,-10.00000 C411.22890,-163.68669 471.22890,-143.68669 420.00000,10.00000 C368.77110,163.68669 428.77110,143.68669 480.00000,-10.00000 C531.22890,-163.68669 591.22890,-143.68669 540.00000,10.00000"/>
    <path style="stroke:black;fill:none" d="M-540.00000,10.00000 C-593.12626,169.37879 -533.12626,149.37879 -480.00000,-10.00000 C-426.87374,-169.37879 -366.87374,-149.37879 -420.00000,10.00000 C-473.12626,169.37879 -413.12626,149.37879 -360.00000,-10.00000 C-306.87374,-169.37879 -246.87374,-149.37879 -300.00000,10.00000 C-353.12626,169.37879 -293.12626,149.37879 -240.00000,-10.00000 C-186.87374,-169.37879 -126.87374,-149.37879 -180.00000,10.00000 C-233.12626,169.37879 -173.12626,149.37879 -120.00000,-10.00000 C-66.87374,-169.37879 -6.87374,-149.37879 -60.00000,10.00000 C-113.12626,169.37879 -53.12626,149.37879 0.00000,-10.00000 C53.12626,-169.37879 113.12626,-149.37879 60.00000,10.00000 C6.87374,169.37879 66.87374,149.37879 120.00000,-10.00000 C173.12626,-169.37879 233.12626,-149.37879 180.00000,10.00000 C126.87374,169.37879 186.87374,149.37879 240.00000,-10.00000 C293.12626,-169.37879 353.12626,-149.37879 300.00000,10.00000 C246.87374,169.37879 306.87374,149.37879 360.00000,-10.00000 C413.12626,-169.37879 473.12626,-149.37879 420.00000,10.00000 C366.87374,169.37879 426.87374,149.37879 480.00000,-10.00000 C533.12626,-169.37879 593.12626,-149.37879 540.00000,10.00000"/>
    <path style="stroke:black;fill:none" d="M-540.00000,10.00000 C-595.02363,175.07089 -535.02363,155.07089 -480.00000,-10.00000 C-424.97637,-175.07089 -364.97637,-155.07089 -420.00000,10.00000 C-475.02363,175.07089 -415.02363,155.07089 -360.00000,-10.00000 C-304.97637,-175.07089 -244.97637,-155.07089 -300.00000,10.00000 C-355.02363,175.07089 -295.02363,155.07089 -240.00000,-10.00000 C-184.97637,-175.07089 -124.97637,-155.07089 -180.00000,10.00000 C-235.02363,175.07089 -175.02363,155.07089 -120.00000,-10.00000 C-64.97637,-175.07089 -4.97637,-155.07089 -60.00000,10.00000 C-115.02363,175.07089 -55.02363,155.07089 0.00000,-10.00000 C55.02363,-175.07089 115.02363,-155.07089 60.00000,10.00000 C4.97637,175.07089 64.97637,155.07089 120.00000,-10.00000 C175.02363,-175.07089 235.02363,-155.07089 180.00000,10.00000 C124.97637,175.07089 184.97637,155.07089 240.00000,-10.00000 C295.02363,-175.07089 355.02363,-155.07089 300.00000,10.00000 C244.97637,175.07089 304.97637,155.07089 360.00000,-10.00000 C415.02363,-175.07089 475.02363,-155.07089 420.00000,10.00000 C364.97637,175.07089 424.97637,155.07089 480.00000,-10.00000 C535.02363,-175.07089 595.02363,-155.07089 540.00000,10.00000"/>
    <path style="stroke:black;fill:none" d="M-540.00000,10.00000 C-596.92100,180.76299 -536.92100,160.76299 -480.00000,-10.00000 C-423.07900,-180.76299 -363.07900,-160.76299 -420.00000,10.00000 C-476.92100,180.76299 -416.92100,160.76299 -360.00000,-10.00000 C-303.07900,-180.76299 -243.07900,-160.76299 -300.00000,10.00000 C-356.92100,180.76299 -296.92100,160.76299 -240.00000,-10.00000 C-183.07900,-180.76299 -123.07900,-160.76299 -180.00000,10.00000 C-236.92100,180.76299 -176.92100,160.76299 -120.00000,-10.00000 C-63.07900,-180.76299 -3.07900,-160.76299 -60.00000,10.00000 C-116.92100,180.76299 -56.92100,160.76299 0.00000,-10.00000 C56.92100,-180.76299 116.92100,-160.76299 60.00000,10.00000 C3.07900,180.76299 63.07900,160.76299 120.00000,-10.00000 C176.92100,-180.76299 236.92100,-160.76299 180.00000,10.00000 C123.07900,180.76299 183.07900,160.76299 240.00000,-10.00000 C296.92100,-180.76299 356.92100,-160.76299 300.00000,10.00000 C243.07900,180.76299 303.07900,160.76299 360.00000,-10.00000 C416.92100,-180.76299 476.92100,-160.76299 420.00000,10.00000 C363.07900,180.76299 423.07900,160.76299 480.00000,-10.00000 C536.92100,-180.76299 596.92100,-160.76299 540.00000,10.00000"/>
    <path style="stroke:black;fill:none" d="M-540.00000,10.00000 C-598.81836,186.45509 -538.81836,166.45509 -480.00000,-10.00000 C-421.18164,-186.45509 -361.18164,-166.45509 -420.00000,10.00000 C-478.81836,186.45509 -418.81836,166.45509 -360.00000,-10.00000 C-301.18164,-186.45509 -241.18164,-166.45509 -300.00000,10.00000 C-358.81836,186.45509 -298.81836,166.45509 -240.00000,-10.00000 C-181.18164,-186.45509 -121.18164,-166.45509 -180.00000,10.00000 C-238.81836,186.45509 -178.81836,166.45509 -120.00000,-10.00000 C-61.18164,-186.45509 -1.18164,-166.45509 -60.00000,10.00000 C-118.81836,186.45509 -58.81836,166.45509 0.00000,-10.00000 C58.81836,-186.45509 118.81836,-166.45509 60.00000,10.00000 C1.18164,186.45509 61.18164,166.45509 120.00000,-10.00000 C178.81836,-186.45509 238.81836,-166.45509 180.00000,10.00000 C121.18164,186.45509 181.18164,166.45509 240.00000,-10.00000 C298.81836,-186.45509 358.81836,-166.45509 300.00000,10.00000 C241.18164,186.45509 301.18164,166.45509 360.00000,-10.00000 C418.81836,-186.45509 478.81836,-166.45509 420.00000,10.00000 C361.18164,186.45509 421.18164,166.45509 480.00000,-10.00000 C538.81836,-186.45509 598.81836,-166.45509 540.00000,10.00000"/>
    <path style="stroke:black;fill:none" d="M-540.00000,10.00000 C-600.71573,192.14719 -540.71573,172.14719 -480.00000,-10.00000 C-419.28427,-192.14719 -359.28427,-172.14719 -420.00000,10.00000 C-480.71573,192.14719 -420.71573,172.14719 -360.00000,-10.00000 C-299.28427,-192.14719 -239.28427,-172.14719 -300.00000,10.00000 C-360.71573,192.14719 -300.71573,172.14719 -240.00000,-10.00000 C-179.28427,-192.14719 -119.28427,-172.14719 -180.00000,10.00000 C-240.71573,192.14719 -180.71573,172.14719 -120.00000,-10.00000 C-59.28427,-192.14719 0.71573,-172.14719 -60.00000,10.00000 C-120.71573,192.14719 -60.71573,172.14719 0.00000,-10.00000 C60.71573,-192.14719 120.71573,-172.14719 60.00000,10.00000 C-0.71573,192.14719 59.28427,172.14719 120.00000,-10.00000 C180.71573,-192.14719 240.71573,-172.14719 180.00000,10.00000 C119.28427,192.14719 179.28427,172.14719 240.00000,-10.00000 C300.71573,-192.14719 360.71573,-172.14719 300.00000,10.00000 C239.28427,192.14719 299.28427,172.14719 360.00000,-10.00000 C420.71573,-192.14719 480.71573,-172.14719 420.00000,10.00000 C359.28427,192.14719 419.28427,172.14719 480.00000,-10.00000 C540.71573,-192.14719 600.71573,-172.14719 540.00000,10.00000"/>
    <path style="stroke:black;fill:none" d="M-540.00000,10.00000 C-602.61310,197.83929 -542.61310,177.83929 -480.00000,-10.00000 C-417.38690,-197.83929 -357.38690,-177.83929 -420.00000,10.00000 C-482.61310,197.83929 -422.61310,177.83929 -360.00000,-10.00000 C-297.38690,-197.83929 -237.38690,-177.83929 -300.00000,10.00000 C-362.61310,197.83929 -302.61310,177.83929 -240.00000,-10.00000 C-177.38690,-197.83929 -117.38690,-177.83929 -180.00000,10.00000 C-242.61310,197.83929 -182.61310,177.83929 -120.00000,-10.00000 C-57.38690,-197.83929 2.61310,-177.83929 -60.00000,10.00000 C-122.61310,197.83929 -62.61310,177.83929 0.00000,-10.00000 C62.61310,-197.83929 122.61310,-177.83929 60.00000,10.00000 C-2.61310,197.83929 57.38690,177.83929 120.00000,-10.00000 C182.61310,-197.83929 242.61310,-177.83929 180.00000,10.00000 C117.38690,197.83929 177.38690,177.83929 240.00000,-10.00000 C302.61310,-197.83929 362.61310,-177.83929 300.00000,10.00000 C237.38690,197.83929 297.38690,177.83929 360.00000,-10.00000 C422.61310,-197.83929 482.61310,-177.83929 420.00000,10.00000 C357.38690,197.83929 417.38690,177.83929 480.00000,-10.00000 C542.61310,-197.83929 602.61310,-177.83929 540.00000,10.00000"/>
    <path style="stroke:black;fill:none" d="M-540.00000,10.00000 C-604.51046,203.53139 -544.51046,183.53139 -480.00000,-10.00000 C-415.48954,-203.53139 -355.48954,-183.53139 -420.00000,10.00000 C-484.51046,203.53139 -424.51046,183.53139 -360.00000,-10.00000 C-295.48954,-203.53139 -235.48954,-183.53139 -300.00000,10.00000 C-364.51046,203.53139 -304.51046,183.53139 -240.00000,-10.00000 C-175.48954,-203.53139 -115.48954,-183.53139 -180.00000,10.00000 C-244.51046,203.53139 -184.51046,183.53139 -120.00000,-10.00000 C-55.48954,-203.53139 4.51046,-183.53139 -60.00000,10.00000 C-124.51046,203.53139 -64.51046,183.53139 0.00000,-10.00000 C64.51046,-203.53139 124.51046,-183.53139 60.00000,10.00000 C-4.51046,203.53139 55.48954,183.53139 120.00000,-10.00000 C184.51046,-203.53139 244.51046,-183.53139 180.00000,10.00000 C115.48954,203.53139 175.48954,183.53139 240.00000,-10.00000 C304.51046,-203.53139 364.51046,-183.53139 300.00000,10.00000 C235.48954,203.53139 295.48954,183.53139 360.00000,-10.00000 C424.51046,-203.53139 484.51046,-183.53139 420.00000,10.00000 C355.48954,203.53139 415.48954,183.53139 480.00000,-10.00000 C544.51046,-203.53139 604.51046,-183.53139 540.00000,10.00000"/>
    <path style="stroke:black;fill:none" d="M-540.00000,10.00000 C-606.40783,209.22349 -546.40783,189.22349 -480.00000,-10.00000 C-413.59217,-209.22349 -353.59217,-189.22349 -420.00000,10.00000 C-486.40783,209.22349 -426.40783,189.22349 -360.00000,-10.00000 C-293.59217,-209.22349 -233.59217,-189.22349 -300.00000,10.00000 C-366.40783,209.22349 -306.40783,189.22349 -240.00000,-10.00000 C-173.59217,-209.22349 -113.59217,-189.22349 -180.00000,10.00000 C-246.40783,209.22349 -186.40783,189.22349 -120.00000,-10.00000 C-53.59217,-209.22349 6.40783,-189.22349 -60.00000,10.00000 C-126.40783,209.22349 -66.40783,189.22349 0.00000,-10.00000 C66.40783,-209.22349 126.40783,-189.22349 60.00000,10.00000 C-6.40783,209.22349 53.59217,189.22349 120.00000,-10.00000 C186.40783,-209.22349 246.40783,-189.22349 180.00000,10.00000 C113.59217,209.22349 173.59217,189.22349 240.00000,-10.00000 C306.40783,-209.22349 366.40783,-189.22349 300.00000,10.00000 C233.59217,209.22349 293.59217,189.22349 360.00000,-10.00000 C426.40783,-209.22349 486.40783,-189.22349 420.00000,10.00000 C353.59217,209.22349 413.59217,189.22349 480.00000,-10.00000 C546.40783,-209.22349 606.40783,-189.22349 540.00000,10.00000"/>
    <path style="stroke:black;fill:none" d="M-540.00000,10.00000 C-608.30520,214.91559 -548.30520,194.91559 -480.00000,-10.00000 C-411.69480,-214.91559 -351.69480,-194.91559 -420.00000,10.00000 C-488.30520,214.91559 -428.30520,194.91559 -360.00000,-10.00000 C-291.69480,-214.91559 -231.69480,-194.91559 -300.00000,10.00000 C-368.30520,214.91559 -308.30520,194.91559 -240.00000,-10.00000 C-171.69480,-214.91559 -111.69480,-194.91559 -180.00000,10.00000 C-248.30520,214.91559 -188.30520,194.91559 -120.00000,-10.00000 C-51.69480,-214.91559 8.30520,-194.91559 -60.00000,10.00000 C-128.30520,214.91559 -68.30520,194.91559 0.00000,-10.00000 C68.30520,-214.91559 128.30520,-194.91559 60.00000,10.00000 C-8.30520,214.91559 51.69480,194.91559 120.00000,-10.00000 C188.30520,-214.91559 248.30520,-194.91559 180.00000,10.00000 C111.69480,214.91559 171.69480,194.91559 240.00000,-10.00000 C308.30520,-214.91559 368.30520,-194.91559 300.00000,10.00000 C231.69480,214.91559 291.69480,194.91559 360.00000,-10.00000 C428.30520,-214.91559 488.30520,-194.91559 420.00000,10.00000 C351.69480,214.91559 411.69480,194.91559 480.00000,-10.00000 C548.30520,-214.91559 608.30520,-194.91559 540.00000,10.00000"/>
    <path style="stroke:black;fill:none" d="M-540.00000,10.00000 C-610.20256,220.60769 -550.20256,200.60769 -480.00000,-10.00000 C-409.79744,-220.60769 -349.79744,-200.60769 -420.00000,10.00000 C-490.20256,220.60769 -430.20256,200.60769 -360.00000,-10.00000 C-289.79744,-220.60769 -229.79744,-200.60769 -300.00000,10.00000 C-370.20256,220.60769 -310.20256,200.60769 -240.00000,-10.00000 C-169.79744,-220.60769 -109.79744,-200.60769 -180.00000,10.00000 C-250.20256,220.60769 -190.20256,200.60769 -120.00000,-10.00000 C-49.79744,-220.60769 10.20256,-200.60769 -60.00000,10.00000 C-130.20256,220.60769 -70.20256,200.60769 0.00000,-10.00000 C70.20256,-220.60769 130.20256,-200.60769 60.00000,10.00000 C-10.20256,220.60769 49.79744,200.60769 120.00000,-10.00000 C190.20256,-220.60769 250.20256,-200.60769 180.00000,10.00000 C109.79744,220.60769 169.79744,200.60769 240.00000,-10.00000 C310.20256,-220.60769 370.20256,-200.60769 300.00000,10.00000 C229.79744,220.60769 289.79744,200.60769 360.00000,-10.00000 C430.20256,-220.60769 490.20256,-200.60769 420.00000,10.00000 C349.79744,220.60769 409.79744,200.60769 480.00000,-10.00000 C550.20256,-220.60769 610.20256,-200.60769 540.00000,10.00000"/>
    <path style="stroke:black;fill:none" d="M-540.00000,10.00000 C-612.09993,226.29979 -552.09993,206.29979 -480.00000,-10.00000 C-407.90007,-226.29979 -347.90007,-206.29979 -420.00000,10.00000 C-492.09993,226.29979 -432.09993,206.29979 -360.00000,-10.00000 C-287.90007,-226.29979 -227.90007,-206.29979 -300.00000,10.00000 C-372.09993,226.29979 -312.09993,206.29979 -240.00000,-10.00000 C-167.90007,-226.29979 -107.90007,-206.29979 -180.00000,10.00000 C-252.09993,226.29979 -192.09993,206.29979 -120.00000,-10.00000 C-47.90007,-226.29979 12.09993,-206.29979 -60.00000,10.00000 C-132.09993,226.29979 -72.09993,206.29979 0.00000,-10.00000 C72.09993,-226.29979 132.09993,-206.29979 60.00000,10.00000 C-12.09993,226.29979 47.90007,206.29979 120.00000,-10.00000 C192.09993,-226.29979 252.09993,-206.29979 180.00000,10.00000 C107.90007,226.29979 167.90007,206.29979 240.00000,-10.00000 C312.09993,-226.29979 372.09993,-206.29979 300.00000,10.00000 C227.90007,226.29979 287.90007,206.29979 360.00000,-10.00000 C432.09993,-226.29979 492.09993,-206.29979 420.00000,10.00000 C347.90007,226.29979 407.90007,206.29979 480.00000,-10.00000 C552.09993,-226.29979 612.09993,-206.29979 540.00000,10.00000"/>
    <path style="stroke:black;fill:none" d="M-540.00000,10.00000 C-613.99730,231.99189 -553.99730,211.99189 -480.00000,-10.00000 C-406.00270,-231.99189 -346.00270,-211.99189 -420.00000,10.00000 C-493.99730,231.99189 -433.99730,211.99189 -360.00000,-10.00000 C-286.00270,-231.99189 -226.00270,-211.99189 -300.00000,10.00000 C-373.99730,231.99189 -313.99730,211.99189 -240.00000,-10.00000 C-166.00270,-231.99189 -106.00270,-211.99189 -180.00000,10.00000 C-253.99730,231.99189 -193.99730,211.99189 -120.00000,-10.00000 C-46.00270,-231.99189 13.99730,-211.99189 -60.00000,10.00000 C-133.99730,231.99189 -73.99730,211.99189 0.00000,-10.00000 C73.99730,-231.99189 133.99730,-211.99189 60.00000,10.00000 C-13.99730,231.99189 46.00270,211.99189 120.00000,-10.00000 C193.99730,-231.99189 253.99730,-211.99189 180.00000,10.00000 C106.00270,231.99189 166.00270,211.99189 240.00000,-10.00000 C313.99730,-231.99189 373.99730,-211.99189 300.00000,10.00000 C226.00270,231.99189 286.00270,211.99189 360.00000,-10.00000 C433.99730,-231.99189 493.99730,-211.99189 420.00000,10.00000 C346.00270,231.99189 406.00270,211.99189 480.00000,-10.00000 C553.99730,-231.99189 613.99730,-211.99189 540.00000,10.00000"/>
    <path style="stroke:black;fill:none" d="M-540.00000,10.00000 C-615.89466,237.68399 -555.89466,217.68399 -480.00000,-10.00000 C-404.10534,-237.68399 -344.10534,-217.68399 -420.00000,10.00000 C-495.89466,237.68399 -435.89466,217.68399 -360.00000,-10.00000 C-284.10534,-237.68399 -224.10534,-217.68399 -300.00000,10.00000 C-375.89466,237.68399 -315.89466,217.68399 -240.00000,-10.00000 C-164.10534,-237.68399 -104.10534,-217.68399 -180.00000,10.00000 C-255.89466,237.68399 -195.89466,217.68399 -120.00000,-10.00000 C-44.10534,-237.68399 15.89466,-217.68399 -60.00000,10.00000 C-135.89466,237.68399 -75.89466,217.68399 0.00000,-10.00000 C75.89466,-237.68399 135.89466,-217.68399 60.00000,10.00000 C-15.89466,237.68399 44.10534,217.68399 120.00000,-10.00000 C195.89466,-237.68399 255.89466,-217.68399 180.00000,10.00000 C104.10534,237.68399 164.10534,217.68399 240.00000,-10.00000 C315.89466,-237.68399 375.89466,-217.68399 300.00000,10.00000 C224.10534,237.68399 284.10534,217.68399 360.00000,-10.00000 C435.89466,-237.68399 495.89466,-217.68399 420.00000,10.00000 C344.10534,237.68399 404.10534,217.68399 480.00000,-10.00000 C555.89466,-237.68399 615.89466,-217.68399 540.00000,10.00000"/>
    <path style="stroke:black;fill:none" d="M-540.00000,10.00000 C-617.79203,243.37609 -557.79203,223.37609 -480.00000,-10.00000 C-402.20797,-243.37609 -342.20797,-223.37609 -420.00000,10.00000 C-497.79203,243.37609 -437.79203,223.37609 -360.00000,-10.00000 C-282.20797,-243.37609 -222.20797,-223.37609 -300.00000,10.00000 C-377.79203,243.37609 -317.79203,223.37609 -240.00000,-10.00000 C-162.20797,-243.37609 -102.20797,-223.37609 -180.00000,10.00000 C-257.79203,243.37609 -197.79203,223.37609 -120.00000,-10.00000 C-42.20797,-243.37609 17.79203,-223.37609 -60.00000,10.00000 C-137.79203,243.37609 -77.79203,223.37609 0.00000,-10.00000 C77.79203,-243.37609 137.79203,-223.37609 60.00000,10.00000 C-17.79203,243.37609 42.20797,223.37609 120.00000,-10.00000 C197.79203,-243.37609 257.79203,-223.37609 180.00000,10.00000 C102.20797,243.37609 162.20797,223.37609 240.00000,-10.00000 C317.79203,-243.37609 377.79203,-223.37609 300.00000,10.00000 C222.20797,243.37609 282.20797,223.37609 360.00000,-10.00000 C437.79203,-243.37609 497.79203,-223.37609 420.00000,10.00000 C342.20797,243.37609 402.20797,223.37609 480.00000,-10.00000 C557.79203,-243.37609 617.79203,-223.37609 540.00000,10.00000"/>
    <path style="stroke:black;fill:none" d="M-540.00000,10.00000 C-619.68940,249.06819 -559.68940,229.06819 -480.00000,-10.00000 C-400.31060,-249.06819 -340.31060,-229.06819 -420.00000,10.00000 C-499.68940,249.06819 -439.68940,229.06819 -360.00000,-10.00000 C-280.31060,-249.06819 -220.31060,-229.06819 -300.00000,10.00000 C-379.68940,249.06819 -319.68940,229.06819 -240.00000,-10.00000 C-160.31060,-249.06819 -100.31060,-229.06819 -180.00000,10.00000 C-259.68940,249.06819 -199.68940,229.06819 -120.00000,-10.00000 C-40.31060,-249.06819 19.68940,-229.06819 -60.00000,10.00000 C-139.68940,249.06819 -79.68940,229.06819 0.00000,-10.00000 C79.68940,-249.06819 139.68940,-229.06819 60.00000,10.00000 C-19.68940,249.06819 40.31060,229.06819 120.00000,-10.00000 C199.68940,-249.06819 259.68940,-229.06819 180.00000,10.00000 C100.31060,249.06819 160.31060,229.06819 240.00000,-10.00000 C319.68940,-249.06819 379.68940,-229.06819 300.00000,10.00000 C220.31060,249.06819 280.31060,229.06819 360.00000,-10.00000 C439.68940,-249.06819 499.68940,-229.06819 420.00000,10.00000 C340.31060,249.06819 400.31060,229.06819 480.00000,-10.00000 C559.68940,-249.06819 619.68940,-229.06819 540.00000,10.00000"/>
    <path style="stroke:black;fill:none" d="M-540.00000,10.00000 C-621.58676,254.76029 -561.58676,234.76029 -480.00000,-10.00000 C-398.41324,-254.76029 -338.41324,-234.76029 -420.00000,10.00000 C-501.58676,254.76029 -441.58676,234.76029 -360.00000,-10.00000 C-278.41324,-254.76029 -218.41324,-234.76029 -300.00000,10.00000 C-381.58676,254.76029 -321.58676,234.76029 -240.00000,-10.00000 C-158.41324,-254.76029 -98.41324,-234.76029 -180.00000,10.00000 C-261.58676,254.76029 -201.58676,234.76029 -120.00000,-10.00000 C-38.41324,-254.76029 21.58676,-234.76029 -60.00000,10.00000 C-141.58676,254.76029 -81.58676,234.76029 0.00000,-10.00000 C81.58676,-254.76029 141.58676,-234.76029 60.00000,10.00000 C-21.58676,254.76029 38.41324,234.76029 120.00000,-10.00000 C201.58676,-254.76029 261.58676,-234.76029 180.00000,10.00000 C98.41324,254.76029 158.41324,234.76029 240.00000,-10.00000 C321.58676,-254.76029 381.58676,-234.76029 300.00000,10.00000 C218.41324,254.76029 278.41324,234.76029 360.00000,-10.00000 C441.58676,-254.76029 501.58676,-234.76029 420.00000,10.00000 C338.41324,254.76029 398.41324,234.76029 480.00000,-10.00000 C561.58676,-254.76029 621.58676,-234.76029 540.00000,10.00000"/>
    <path style="stroke:black;fill:none" d="M-540.00000,10.00000 C-623.48413,260.45239 -563.48413,240.45239 -480.00000,-10.00000 C-396.51587,-260.45239 -336.51587,-240.45239 -420.00000,10.00000 C-503.48413,260.45239 -443.48413,240.45239 -360.00000,-10.00000 C-276.51587,-260.45239 -216.51587,-240.45239 -300.00000,10.00000 C-383.48413,260.45239 -323.48413,240.45239 -240.00000,-10.00000 C-156.51587,-260.45239 -96.51587,-240.45239 -180.00000,10.00000 C-263.48413,260.45239 -203.48413,240.45239 -120.00000,-10.00000 C-36.51587,-260.45239 23.48413,-240.45239 -60.00000,10.00000 C-143.48413,260.45239 -83.48413,240.45239 0.00000,-10.00000 C83.48413,-260.45239 143.48413,-240.45239 60.00000,10.00000 C-23.48413,260.45239 36.51587,240.45239 120.00000,-10.00000 C203.48413,-260.45239 263.48413,-240.45239 180.00000,10.00000 C96.51587,260.45239 156.51587,240.45239 240.00000,-10.00000 C323.48413,-260.45239 383.48413,-240.45239 300.00000,10.00000 C216.51587,260.45239 276.51587,240.45239 360.00000,-10.00000 C443.48413,-260.45239 503.48413,-240.45239 420.00000,10.00000 C336.51587,260.45239 396.51587,240.45239 480.00000,-10.00000 C563.48413,-260.45239 623.48413,-240.45239 540.00000,10.00000"/>
    <path style="stroke:black;fill:none" d="M-540.00000,10.00000 C-625.38150,266.14449 -565.38150,246.14449 -480.00000,-10.00000 C-394.61850,-266.14449 -334.61850,-246.14449 -420.00000,10.00000 C-505.38150,266.14449 -445.38150,246.14449 -360.00000,-10.00000 C-274.61850,-266.14449 -214.61850,-246.14449 -300.00000,10.00000 C-385.38150,266.14449 -325.38150,246.14449 -240.00000,-10.00000 C-154.61850,-266.14449 -94.61850,-246.14449 -180.00000,10.00000 C-265.38150,266.14449 -205.38150,246.14449 -120.00000,-10.00000 C-34.61850,-266.14449 25.38150,-246.14449 -60.00000,10.00000 C-145.38150,266.14449 -85.38150,246.14449 0.00000,-10.00000 C85.38150,-266.14449 145.38150,-246.14449 60.00000,10.00000 C-25.38150,266.14449 34.61850,246.14449 120.00000,-10.00000 C205.38150,-266.14449 265.38150,-246.14449 180.00000,10.00000 C94.61850,266.14449 154.61850,246.14449 240.00000,-10.00000 C325.38150,-266.14449 385.38150,-246.14449 300.00000,10.00000 C214.61850,266.14449 274.61850,246.14449 360.00000,-10.00000 C445.38150,-266.14449 505.38150,-246.14449 420.00000,10.00000 C334.61850,266.14449 394.61850,246.14449 480.00000,-10.00000 C565.38150,-266.14449 625.38150,-246.14449 540.00000,10.00000"/>
    <path style="stroke:black;fill:none" d="M-540.00000,10.00000 C-627.27886,271.83659 -567.27886,251.83659 -480.00000,-10.00000 C-392.72114,-271.83659 -332.72114,-251.83659 -420.00000,10.00000 C-507.27886,271.83659 -447.27886,251.83659 -360.00000,-10.00000 C-272.72114,-271.83659 -212.72114,-251.83659 -300.00000,10.00000 C-387.27886,271.83659 -327.27886,251.83659 -240.00000,-10.00000 C-152.72114,-271.83659 -92.72114,-251.83659 -180.00000,10.00000 C-267.27886,271.83659 -207.27886,251.83659 -120.00000,-10.00000 C-32.72114,-271.83659 27.27886,-251.83659 -60.00000,10.00000 C-147.27886,271.83659 -87.27886,251.83659 0.00000,-10.00000 C87.27886,-271.83659 147.27886,-251.83659 60.00000,10.00000 C-27.27886,271.83659 32.72114,251.83659 120.00000,-10.00000 C207.27886,-271.83659 267.27886,-251.83659 180.00000,10.00000 C92.72114,271.83659 152.72114,251.83659 240.00000,-10.00000 C327.27886,-271.83659 387.27886,-251.83659 300.00000,10.00000 C212.72114,271.83659 272.72114,251.83659 360.00000,-10.00000 C447.27886,-271.83659 507.27886,-251.83659 420.00000,10.00000 C332.72114,271.83659 392.72114,251.83659 480.00000,-10.00000 C567.27886,-271.83659 627.27886,-251.83659 540.00000,10.00000"/>
    <path style="stroke:black;fill:none" d="M-540.00000,10.00000 C-629.17623,277.52869 -569.17623,257.52869 -480.00000,-10.00000 C-390.82377,-277.52869 -330.82377,-257.52869 -420.00000,10.00000 C-509.17623,277.52869 -449.17623,257.52869 -360.00000,-10.00000 C-270.82377,-277.52869 -210.82377,-257.52869 -300.00000,10.00000 C-389.17623,277.52869 -329.17623,257.52869 -240.00000,-10.00000 C-150.82377,-277.52869 -90.82377,-257.52869 -180.00000,10.00000 C-269.17623,277.52869 -209.17623,257.52869 -120.00000,-10.00000 C-30.82377,-277.52869 29.17623,-257.52869 -60.00000,10.00000 C-149.17623,277.52869 -89.17623,257.52869 0.00000,-10.00000 C89.17623,-277.52869 149.17623,-257.52869 60.00000,10.00000 C-29.17623,277.52869 30.82377,257.52869 120.00000,-10.00000 C209.17623,-277.52869 269.17623,-257.52869 180.00000,10.00000 C90.82377,277.52869 150.82377,257.52869 240.00000,-10.00000 C329.17623,-277.52869 389.17623,-257.52869 300.00000,10.00000 C210.82377,277.52869 270.82377,257.52869 360.00000,-10.00000 C449.17623,-277.52869 509.17623,-257.52869 420.00000,10.00000 C330.82377,277.52869 390.82377,257.52869 480.00000,-10.00000 C569.17623,-277.52869 629.17623,-257.52869 540.00000,10.00000"/>
    <path style="stroke:black;fill:none" d="M-540.00000,10.00000 C-631.07360,283.22079 -571.07360,263.22079 -480.00000,-10.00000 C-388.92640,-283.22079 -328.92640,-263.22079 -420.00000,10.00000 C-511.07360,283.22079 -451.07360,263.22079 -360.00000,-10.00000 C-268.92640,-283.22079 -208.92640,-263.22079 -300.00000,10.00000 C-391.07360,283.22079 -331.07360,263.22079 -240.00000,-10.00000 C-148.92640,-283.22079 -88.92640,-263.22079 -180.00000,10.00000 C-271.07360,283.22079 -211.07360,263.22079 -120.00000,-10.00000 C-28.92640,-283.22079 31.07360,-263.22079 -60.00000,10.00000 C-151.07360,283.22079 -91.07360,263.22079 0.00000,-10.00000 C91.07360,-283.22079 151.07360,-263.22079 60.00000,10.00000 C-31.07360,283.22079 28.92640,263.22079 120.00000,-10.00000 C211.07360,-283.22079 271.07360,-263.22079 180.00000,10.00000 C88.92640,283.22079 148.92640,263.22079 240.00000,-10.00000 C331.07360,-283.22079 391.07360,-263.22079 300.00000,10.00000 C208.92640,283.22079 268.92640,263.22079 360.00000,-10.00000 C451.07360,-283.22079 511.07360,-263.22079 420.00000,10.00000 C328.92640,283.22079 388.92640,263.22079 480.00000,-10.00000 C571.07360,-283.22079 631.07360,-263.22079 540.00000,10.00000"/>
    <path style="stroke:black;fill:none" d="M-540.00000,10.00000 C-632.97096,288.91289 -572.97096,268.91289 -480.00000,-10.00000 C-387.02904,-288.91289 -327.02904,-268.91289 -420.00000,10.00000 C-512.97096,288.91289 -452.97096,268.91289 -360.00000,-10.00000 C-267.02904,-288.91289 -207.02904,-268.91289 -300.00000,10.00000 C-392.97096,288.91289 -332.97096,268.91289 -240.00000,-10.00000 C-147.02904,-288.91289 -87.02904,-268.91289 -180.00000,10.00000 C-272.97096,288.91289 -212.97096,268.91289 -120.00000,-10.00000 C-27.02904,-288.91289 32.97096,-268.91289 -60.00000,10.00000 C-152.97096,288.91289 -92.97096,268.91289 0.00000,-10.00000 C92.97096,-288.91289 152.97096,-268.91289 60.00000,10.00000 C-32.97096,288.91289 27.02904,268.91289 120.00000,-10.00000 C212.97096,-288.91289 272.97096,-268.91289 180.00000,10.00000 C87.02904,288.91289 147.02904,268.91289 240.00000,-10.00000 C332.97096,-288.91289 392.97096,-268.91289 300.00000,10.00000 C207.02904,288.91289 267.02904,268.91289 360.00000,-10.00000 C452.97096,-288.91289 512.97096,-268.91289 420.00000,10.00000 C327.02904,288.91289 387.02904,268.91289 480.00000,-10.00000 C572.97096,-288.91289 632.97096,-268.91289 540.00000,10.00000"/>
    <path style="stroke:black;fill:none" d="M-540.00000,10.00000 C-634.86833,294.60499 -574.86833,274.60499 -480.00000,-10.00000 C-385.13167,-294.60499 -325.13167,-274.60499 -420.00000,10.00000 C-514.86833,294.60499 -454.86833,274.60499 -360.00000,-10.00000 C-265.13167,-294.60499 -205.13167,-274.60499 -300.00000,10.00000 C-394.86833,294.60499 -334.86833,274.60499 -240.00000,-10.00000 C-145.13167,-294.60499 -85.13167,-274.60499 -180.00000,10.00000 C-274.86833,294.60499 -214.86833,274.60499 -120.00000,-10.00000 C-25.13167,-294.60499 34.86833,-274.60499 -60.00000,10.00000 C-154.86833,294.60499 -94.86833,274.60499 0.00000,-10.00000 C94.86833,-294.60499 154.86833,-274.60499 60.00000,10.00000 C-34.86833,294.60499 25.13167,274.60499 120.00000,-10.00000 C214.86833,-294.60499 274.86833,-274.60499 180.00000,10.00000 C85.13167,294.60499 145.13167,274.60499 240.00000,-10.00000 C334.86833,-294.60499 394.86833,-274.60499 300.00000,10.00000 C205.13167,294.60499 265.13167,274.60499 360.00000,-10.00000 C454.86833,-294.60499 514.86833,-274.60499 420.00000,10.00000 C325.13167,294.60499 385.13167,274.60499 480.00000,-10.00000 C574.86833,-294.60499 634.86833,-274.60499 540.00000,10.00000"/>
    <path style="stroke:black;fill:none" d="M-540.00000,10.00000 C-636.76570,300.29709 -576.76570,280.29709 -480.00000,-10.00000 C-383.23430,-300.29709 -323.23430,-280.29709 -420.00000,10.00000 C-516.76570,300.29709 -456.76570,280.29709 -360.00000,-10.00000 C-263.23430,-300.29709 -203.23430,-280.29709 -300.00000,10.00000 C-396.76570,300.29709 -336.76570,280.29709 -240.00000,-10.00000 C-143.23430,-300.29709 -83.23430,-280.29709 -180.00000,10.00000 C-276.76570,300.29709 -216.76570,280.29709 -120.00000,-10.00000 C-23.23430,-300.29709 36.76570,-280.29709 -60.00000,10.00000 C-156.76570,300.29709 -96.76570,280.29709 0.00000,-10.00000 C96.76570,-300.29709 156.76570,-280.29709 60.00000,10.00000 C-36.76570,300.29709 23.23430,280.29709 120.00000,-10.00000 C216.76570,-300.29709 276.76570,-280.29709 180.00000,10.00000 C83.23430,300.29709 143.23430,280.29709 240.00000,-10.00000 C336.76570,-300.29709 396.76570,-280.29709 300.00000,10.00000 C203.23430,300.29709 263.23430,280.29709 360.00000,-10.00000 C456.76570,-300.29709 516.76570,-280.29709 420.00000,10.00000 C323.23430,300.29709 383.23430,280.29709 480.00000,-10.00000 C576.76570,-300.29709 636.76570,-280.29709 540.00000,10.00000"/>
    <path style="stroke:black;fill:none" d="M-540.00000,10.00000 C-638.66306,305.98919 -578.66306,285.98919 -480.00000,-10.00000 C-381.33694,-305.98919 -321.33694,-285.98919 -420.00000,10.00000 C-518.66306,305.98919 -458.66306,285.98919 -360.00000,-10.00000 C-261.33694,-305.98919 -201.33694,-285.98919 -300.00000,10.00000 C-398.66306,305.98919 -338.66306,285.98919 -240.00000,-10.00000 C-141.33694,-305.98919 -81.33694,-285.98919 -180.00000,10.00000 C-278.66306,305.98919 -218.66306,285.98919 -120.00000,-10.00000 C-21.33694,-305.98919 38.66306,-285.98919 -60.00000,10.00000 C-158.66306,305.98919 -98.66306,285.98919 0.00000,-10.00000 C98.66306,-305.98919 158.66306,-285.98919 60.00000,10.00000 C-38.66306,305.98919 21.33694,285.98919 120.00000,-10.00000 C218.66306,-305.98919 278.66306,-285.98919 180.00000,10.00000 C81.33694,305.98919 141.33694,285.98919 240.00000,-10.00000 C338.66306,-305.98919 398.66306,-285.98919 300.00000,10.00000 C201.33694,305.98919 261.33694,285.98919 360.00000,-10.00000 C458.66306,-305.98919 518.66306,-285.98919 420.00000,10.00000 C321.33694,305.98919 381.33694,285.98919 480.00000,-10.00000 C578.66306,-305.98919 638.66306,-285.98919 540.00000,10.00000"/>
    <path style="stroke:black;fill:none" d="M-540.00000,10.00000 C-640.56043,311.68129 -580.56043,291.68129 -480.00000,-10.00000 C-379.43957,-311.68129 -319.43957,-291.68129 -420.00000,10.00000 C-520.56043,311.68129 -460.56043,291.68129 -360.00000,-10.00000 C-259.43957,-311.68129 -199.43957,-291.68129 -300.00000,10.00000 C-400.56043,311.68129 -340.56043,291.68129 -240.00000,-10.00000 C-139.43957,-311.68129 -79.43957,-291.68129 -180.00000,10.00000 C-280.56043,311.68129 -220.56043,291.68129 -120.00000,-10.00000 C-19.43957,-311.68129 40.56043,-291.68129 -60.00000,10.00000 C-160.56043,311.68129 -100.56043,291.68129 0.00000,-10.00000 C100.56043,-311.68129 160.56043,-291.68129 60.00000,10.00000 C-40.56043,311.68129 19.43957,291.68129 120.00000,-10.00000 C220.56043,-311.68129 280.56043,-291.68129 180.00000,10.00000 C79.43957,311.68129 139.43957,291.68129 240.00000,-10.00000 C340.56043,-311.68129 400.56043,-291.68129 300.00000,10.00000 C199.43957,311.68129 259.43957,291.68129 360.00000,-10.00000 C460.56043,-311.68129 520.56043,-291.68129 420.00000,10.00000 C319.43957,311.68129 379.43957,291.68129 480.00000,-10.00000 C580.56043,-311.68129 640.56043,-291.68129 540.00000,10.00000"/>
    <path style="stroke:black;fill:none" d="M-540.00000,10.00000 C-642.45780,317.37339 -582.45780,297.37339 -480.00000,-10.00000 C-377.54220,-317.37339 -317.54220,-297.37339 -420.00000,10.00000 C-522.45780,317.37339 -462.45780,297.37339 -360.00000,-10.00000 C-257.54220,-317.37339 -197.54220,-297.37339 -300.00000,10.00000 C-402.45780,317.37339 -342.45780,297.37339 -240.00000,-10.00000 C-137.54220,-317.37339 -77.54220,-297.37339 -180.00000,10.00000 C-282.45780,317.37339 -222.45780,297.37339 -120.00000,-10.00000 C-17.54220,-317.37339 42.45780,-297.37339 -60.00000,10.00000 C-162.45780,317.37339 -102.45780,297.37339 0.00000,-10.00000 C102.45780,-317.37339 162.45780,-297.37339 60.00000,10.00000 C-42.45780,317.37339 17.54220,297.37339 120.00000,-10.00000 C222.45780,-317.37339 282.45780,-297.37339 180.00000,10.00000 C77.54220,317.37339 137.54220,297.37339 240.00000,-10.00000 C342.45780,-317.37339 402.45780,-297.37339 300.00000,10.00000 C197.54220,317.37339 257.54220,297.37339 360.00000,-10.00000 C462.45780,-317.37339 522.45780,-297.37339 420.00000,10.00000 C317.54220,317.37339 377.54220,297.37339 480.00000,-10.00000 C582.45780,-317.37339 642.45780,-297.37339 540.00000,10.00000"/>
    <path style="stroke:black;fill:none" d="M-540.00000,10.00000 C-644.35516,323.06549 -584.35516,303.06549 -480.00000,-10.00000 C-375.64484,-323.06549 -315.64484,-303.06549 -420.00000,10.00000 C-524.35516,323.06549 -464.35516,303.06549 -360.00000,-10.00000 C-255.64484,-323.06549 -195.64484,-303.06549 -300.00000,10.00000 C-404.35516,323.06549 -344.35516,303.06549 -240.00000,-10.00000 C-135.64484,-323.06549 -75.64484,-303.06549 -180.00000,10.00000 C-284.35516,323.06549 -224.35516,303.06549 -120.00000,-10.00000 C-15.64484,-323.06549 44.35516,-303.06549 -60.00000,10.00000 C-164.35516,323.06549 -104.35516,303.06549 0.00000,-10.00000 C104.35516,-323.06549 164.35516,-303.06549 60.00000,10.00000 C-44.35516,323.06549 15.64484,303.06549 120.00000,-10.00000 C224.35516,-323.06549 284.35516,-303.06549 180.00000,10.00000 C75.64484,323.06549 135.64484,303.06549 240.00000,-10.00000 C344.35516,-323.06549 404.35516,-303.06549 300.00000,10.00000 C195.64484,323.06549 255.64484,303.06549 360.00000,-10.00000 C464.35516,-323.06549 524.35516,-303.06549 420.00000,10.00000 C315.64484,323.06549 375.64484,303.06549 480.00000,-10.00000 C584.35516,-323.06549 644.35516,-303.06549 540.00000,10.00000"/>
    <path style="stroke:black;fill:none" d="M-540.00000,10.00000 C-646.25253,328.75759 -586.25253,308.75759 -480.00000,-10.00000 C-373.74747,-328.75759 -313.74747,-308.75759 -420.00000,10.00000 C-526.25253,328.75759 -466.25253,308.75759 -360.00000,-10.00000 C-253.74747,-328.75759 -193.74747,-308.75759 -300.00000,10.00000 C-406.25253,328.75759 -346.25253,308.75759 -240.00000,-10.00000 C-133.74747,-328.75759 -73.74747,-308.75759 -180.00000,10.00000 C-286.25253,328.75759 -226.25253,308.75759 -120.00000,-10.00000 C-13.74747,-328.75759 46.25253,-308.75759 -60.00000,10.00000 C-166.25253,328.75759 -106.25253,308.75759 0.00000,-10.00000 C106.25253,-328.75759 166.25253,-308.75759 60.00000,10.00000 C-46.25253,328.75759 13.74747,308.75759 120.00000,-10.00000 C226.25253,-328.75759 286.25253,-308.75759 180.00000,10.00000 C73.74747,328.75759 133.74747,308.75759 240.00000,-10.00000 C346.25253,-328.75759 406.25253,-308.75759 300.00000,10.00000 C193.74747,328.75759 253.74747,308.75759 360.00000,-10.00000 C466.25253,-328.75759 526.25253,-308.75759 420.00000,10.00000 C313.74747,328.75759 373.74747,308.75759 480.00000,-10.00000 C586.25253,-328.75759 646.25253,-308.75759 540.00000,10.00000"/>
    <path style="stroke:black;fill:none" d="M-540.00000,10.00000 C-648.14990,334.44969 -588.14990,314.44969 -480.00000,-10.00000 C-371.85010,-334.44969 -311.85010,-314.44969 -420.00000,10.00000 C-528.14990,334.44969 -468.14990,314.44969 -360.00000,-10.00000 C-251.85010,-334.44969 -191.85010,-314.44969 -300.00000,10.00000 C-408.14990,334.44969 -348.14990,314.44969 -240.00000,-10.00000 C-131.85010,-334.44969 -71.85010,-314.44969 -180.00000,10.00000 C-288.14990,334.44969 -228.14990,314.44969 -120.00000,-10.00000 C-11.85010,-334.44969 48.14990,-314.44969 -60.00000,10.00000 C-168.14990,334.44969 -108.14990,314.44969 0.00000,-10.00000 C108.14990,-334.44969 168.14990,-314.44969 60.00000,10.00000 C-48.14990,334.44969 11.85010,314.44969 120.00000,-10.00000 C228.14990,-334.44969 288.14990,-314.44969 180.00000,10.00000 C71.85010,334.44969 131.85010,314.44969 240.00000,-10.00000 C348.14990,-334.44969 408.14990,-314.44969 300.00000,10.00000 C191.85010,334.44969 251.85010,314.44969 360.00000,-10.00000 C468.14990,-334.44969 528.14990,-314.44969 420.00000,10.00000 C311.85010,334.44969 371.85010,314.44969 480.00000,-10.00000 C588.14990,-334.44969 648.14990,-314.44969 540.00000,10.00000"/>
    <path style="stroke:black;fill:none" d="M-540.00000,10.00000 C-650.04726,340.14179 -590.04726,320.14179 -480.00000,-10.00000 C-369.95274,-340.14179 -309.95274,-320.14179 -420.00000,10.00000 C-530.04726,340.14179 -470.04726,320.14179 -360.00000,-10.00000 C-249.95274,-340.14179 -189.95274,-320.14179 -300.00000,10.00000 C-410.04726,340.14179 -350.04726,320.14179 -240.00000,-10.00000 C-129.95274,-340.14179 -69.95274,-320.14179 -180.00000,10.00000 C-290.04726,340.14179 -230.04726,320.14179 -120.00000,-10.00000 C-9.95274,-340.14179 50.04726,-320.14179 -60.00000,10.00000 C-170.04726,340.14179 -110.04726,320.14179 0.00000,-10.00000 C110.04726,-340.14179 170.04726,-320.14179 60.00000,10.00000 C-50.04726,340.14179 9.95274,320.14179 120.00000,-10.00000 C230.04726,-340.14179 290.04726,-320.14179 180.00000,10.00000 C69.95274,340.14179 129.95274,320.14179 240.00000,-10.00000 C350.04726,-340.14179 410.04726,-320.14179 300.00000,10.00000 C189.95274,340.14179 249.95274,320.14179 360.00000,-10.00000 C470.04726,-340.14179 530.04726,-320.14179 420.00000,10.00000 C309.95274,340.14179 369.95274,320.14179 480.00000,-10.00000 C590.04726,-340.14179 650.04726,-320.14179 540.00000,10.00000"/>
    <path style="stroke:black;fill:none" d="M-540.00000,10.00000 C-651.94463,345.83389 -591.94463,325.83389 -480.00000,-10.00000 C-368.05537,-345.83389 -308.05537,-325.83389 -420.00000,10.00000 C-531.94463,345.83389 -471.94463,325.83389 -360.00000,-10.00000 C-248.05537,-345.83389 -188.05537,-325.83389 -300.00000,10.00000 C-411.94463,345.83389 -351.94463,325.83389 -240.00000,-10.00000 C-128.05537,-345.83389 -68.05537,-325.83389 -180.00000,10.00000 C-291.94463,345.83389 -231.94463,325.83389 -120.00000,-10.00000 C-8.05537,-345.83389 51.94463,-325.83389 -60.00000,10.00000 C-171.94463,345.83389 -111.94463,325.83389 0.00000,-10.00000 C111.94463,-345.83389 171.94463,-325.83389 60.00000,10.00000 C-51.94463,345.83389 8.05537,325.83389 120.00000,-10.00000 C231.94463,-345.83389 291.94463,-325.83389 180.00000,10.00000 C68.05537,345.83389 128.05537,325.83389 240.00000,-10.00000 C351.94463,-345.83389 411.94463,-325.83389 300.00000,10.00000 C188.05537,345.83389 248.05537,325.83389 360.00000,-10.00000 C471.94463,-345.83389 531.94463,-325.83389 420.00000,10.00000 C308.05537,345.83389 368.05537,325.83389 480.00000,-10.00000 C591.94463,-345.83389 651.94463,-325.83389 540.00000,10.00000"/>
  </g>
</svg>
