<svg xmlns:ns0="http://www.w3.org/2000/svg" xlink="http://www.w3.org/1999/xlink" xmlns="http://www.w3.org/2000/svg" ns0:svg="http://www.w3.org/2000/svg" width="1280" height="1280">
  <defs/>
  <g id="canvas" transform="matrix(1,0,0,-1,0,1280) translate(640,640)">
    <path style="stroke:none;fill:black;" d="M0.00000,-640.00000 L150.00000,-380.19238 L135.00000,-380.19238 L0.00000,-614.01924 L-135.00000,-380.19238 L-150.00000,-380.19238 Z"/>
    <path style="stroke:none;fill:black;" d="M0.00000,-595.00000 L150.00000,-329.87590 L135.00000,-329.87590 L0.00000,-568.48759 L-135.00000,-329.87590 L-150.00000,-329.87590 Z"/>
    <path style="stroke:none;fill:black;" d="M0.00000,-550.00000 L150.00000,-279.39284 L135.00000,-279.39284 L0.00000,-522.93928 L-135.00000,-279.39284 L-150.00000,-279.39284 Z"/>
    <path style="stroke:none;fill:black;" d="M0.00000,-505.00000 L150.00000,-228.73437 L135.00000,-228.73437 L0.00000,-477.37344 L-135.00000,-228.73437 L-150.00000,-228.73437 Z"/>
    <path style="stroke:none;fill:black;" d="M0.00000,-460.00000 L150.00000,-177.89103 L135.00000,-177.89103 L0.00000,-431.78910 L-135.00000,-177.89103 L-150.00000,-177.89103 Z"/>
    <path style="stroke:none;fill:black;" d="M0.00000,-415.00000 L150.00000,-126.85268 L135.00000,-126.85268 L0.00000,-386.18527 L-135.00000,-126.85268 L-150.00000,-126.85268 Z"/>
    <path style="stroke:none;fill:black;" d="M0.00000,-370.00000 L150.00000,-75.60842 L135.00000,-75.60842 L0.00000,-340.56084 L-135.00000,-75.60842 L-150.00000,-75.60842 Z"/>
    <path style="stroke:none;fill:black;" d="M0.00000,-325.00000 L150.00000,-24.14654 L135.00000,-24.14654 L0.00000,-294.91465 L-135.00000,-24.14654 L-150.00000,-24.14654 Z"/>
    <path style="stroke:none;fill:black;" d="M0.00000,-280.00000 L150.00000,27.54558 L135.00000,27.54558 L0.00000,-249.24544 L-135.00000,27.54558 L-150.00000,27.54558 Z"/>
    <path style="stroke:none;fill:black;" d="M0.00000,-235.00000 L150.00000,79.48154 L135.00000,79.48154 L0.00000,-203.55185 L-135.00000,79.48154 L-150.00000,79.48154 Z"/>
    <path style="stroke:none;fill:black;" d="M0.00000,-190.00000 L150.00000,131.67604 L135.00000,131.67604 L0.00000,-157.83240 L-135.00000,131.67604 L-150.00000,131.67604 Z"/>
    <path style="stroke:none;fill:black;" d="M0.00000,-145.00000 L150.00000,184.14496 L135.00000,184.14496 L0.00000,-112.08550 L-135.00000,184.14496 L-150.00000,184.14496 Z"/>
    <path style="stroke:none;fill:black;" d="M0.00000,-100.00000 L150.00000,236.90552 L135.00000,236.90552 L0.00000,-66.30945 L-135.00000,236.90552 L-150.00000,236.90552 Z"/>
    <path style="stroke:none;fill:black;" d="M0.00000,-55.00000 L150.00000,289.97638 L135.00000,289.97638 L0.00000,-20.50236 L-135.00000,289.97638 L-150.00000,289.97638 Z"/>
    <path style="stroke:none;fill:black;" d="M0.00000,-10.00000 L150.00000,343.37785 L135.00000,343.37785 L0.00000,25.33779 L-135.00000,343.37785 L-150.00000,343.37785 Z"/>
    <path style="stroke:none;fill:black;" d="M0.00000,35.00000 L150.00000,397.13203 L135.00000,397.13203 L0.00000,71.21320 L-135.00000,397.13203 L-150.00000,397.13203 Z"/>
    <path style="stroke:none;fill:black;" d="M0.00000,80.00000 L150.00000,451.26303 L135.00000,451.26303 L0.00000,117.12630 L-135.00000,451.26303 L-150.00000,451.26303 Z"/>
    <path style="stroke:none;fill:black;" d="M0.00000,125.00000 L150.00000,505.79718 L135.00000,505.79718 L0.00000,163.07972 L-135.00000,505.79718 L-150.00000,505.79718 Z"/>
    <path style="stroke:none;fill:black;" d="M0.00000,170.00000 L150.00000,560.76336 L135.00000,560.76336 L0.00000,209.07634 L-135.00000,560.76336 L-150.00000,560.76336 Z"/>
    <path style="stroke:none;fill:black;" d="M0.00000,215.00000 L150.00000,616.19322 L135.00000,616.19322 L0.00000,255.11932 L-135.00000,616.19322 L-150.00000,616.19322 Z"/>
  </g>
</svg>
