<svg xmlns:ns0="http://www.w3.org/2000/svg" xlink="http://www.w3.org/1999/xlink" xmlns="http://www.w3.org/2000/svg" ns0:svg="http://www.w3.org/2000/svg" width="1280" height="1280">
  <defs/>
  <g id="canvas" transform="matrix(1,0,0,-1,0,1280) translate(640,640)">
    <path style="stroke:black;fill:none" d="M-150.00000,0.00000 C0.00000,0.00000 150.00000,150.00000 150.00000,300.00000 C150.00000,392.70510 57.29490,485.41020 -35.41020,485.41020 C-92.70510,485.41020 -150.00000,428.11529 -150.00000,370.82039 C-150.00000,335.41020 -114.58980,300.00000 -79.17961,300.00000 C-57.29490,300.00000 -35.41020,321.88471 -35.41020,343.76941 C-35.41020,357.29490 -48.93569,370.82039 -62.46118,370.82039 C-70.82039,370.82039 -79.17961,362.46118 -79.17961,354.10197 C-79.17961,348.93569 -74.01333,343.76941 -68.84705,343.76941 C-65.65412,343.76941 -62.46118,346.96235 -62.46118,350.15528 C-62.46118,352.12862 -64.43452,354.10197 -66.40786,354.10197"/>
  </g>
</svg>
