<svg xmlns:ns0="http://www.w3.org/2000/svg" xlink="http://www.w3.org/1999/xlink" xmlns="http://www.w3.org/2000/svg" ns0:svg="http://www.w3.org/2000/svg" width="1280" height="1280">
  <defs/>
  <g id="canvas" transform="matrix(1,0,0,-1,0,1280) translate(640,640)">
    <g>
      <path style="stroke:none;fill:black" d="M0.00000,300.00000 Q155.38476,579.90381 150.00000,259.80762 Q235.76952,879.90381 0.00000,300.00000 Z"/>
      <path style="stroke:none;fill:black" d="M150.00000,259.80762 Q424.51905,424.51905 259.80762,150.00000 Q644.13430,644.13430 150.00000,259.80762 Z"/>
      <path style="stroke:none;fill:black" d="M259.80762,150.00000 Q579.90381,155.38476 300.00000,0.00000 Q879.90381,235.76952 259.80762,150.00000 Z"/>
      <path style="stroke:none;fill:black" d="M300.00000,0.00000 Q579.90381,-155.38476 259.80762,-150.00000 Q879.90381,-235.76952 300.00000,0.00000 Z"/>
      <path style="stroke:none;fill:black" d="M259.80762,-150.00000 Q424.51905,-424.51905 150.00000,-259.80762 Q644.13430,-644.13430 259.80762,-150.00000 Z"/>
      <path style="stroke:none;fill:black" d="M150.00000,-259.80762 Q155.38476,-579.90381 0.00000,-300.00000 Q235.76952,-879.90381 150.00000,-259.80762 Z"/>
      <path style="stroke:none;fill:black" d="M0.00000,-300.00000 Q-155.38476,-579.90381 -150.00000,-259.80762 Q-235.76952,-879.90381 0.00000,-300.00000 Z"/>
      <path style="stroke:none;fill:black" d="M-150.00000,-259.80762 Q-424.51905,-424.51905 -259.80762,-150.00000 Q-644.13430,-644.13430 -150.00000,-259.80762 Z"/>
      <path style="stroke:none;fill:black" d="M-259.80762,-150.00000 Q-579.90381,-155.38476 -300.00000,-0.00000 Q-879.90381,-235.76952 -259.80762,-150.00000 Z"/>
      <path style="stroke:none;fill:black" d="M-300.00000,-0.00000 Q-579.90381,155.38476 -259.80762,150.00000 Q-879.90381,235.76952 -300.00000,-0.00000 Z"/>
      <path style="stroke:none;fill:black" d="M-259.80762,150.00000 Q-424.51905,424.51905 -150.00000,259.80762 Q-644.13430,644.13430 -259.80762,150.00000 Z"/>
      <path style="stroke:none;fill:black" d="M-150.00000,259.80762 Q-155.38476,579.90381 0.00000,300.00000 Q-235.76952,879.90381 -150.00000,259.80762 Z"/>
    </g>
    <g>
      <path style="stroke:none;fill:black" d="M0.00000,200.00000 Q103.58984,386.60254 100.00000,173.20508 Q157.17968,586.60254 0.00000,200.00000 Z"/>
      <path style="stroke:none;fill:black" d="M100.00000,173.20508 Q283.01270,283.01270 173.20508,100.00000 Q429.42286,429.42286 100.00000,173.20508 Z"/>
      <path style="stroke:none;fill:black" d="M173.20508,100.00000 Q386.60254,103.58984 200.00000,0.00000 Q586.60254,157.17968 173.20508,100.00000 Z"/>
      <path style="stroke:none;fill:black" d="M200.00000,0.00000 Q386.60254,-103.58984 173.20508,-100.00000 Q586.60254,-157.17968 200.00000,0.00000 Z"/>
      <path style="stroke:none;fill:black" d="M173.20508,-100.00000 Q283.01270,-283.01270 100.00000,-173.20508 Q429.42286,-429.42286 173.20508,-100.00000 Z"/>
      <path style="stroke:none;fill:black" d="M100.00000,-173.20508 Q103.58984,-386.60254 0.00000,-200.00000 Q157.17968,-586.60254 100.00000,-173.20508 Z"/>
      <path style="stroke:none;fill:black" d="M0.00000,-200.00000 Q-103.58984,-386.60254 -100.00000,-173.20508 Q-157.17968,-586.60254 0.00000,-200.00000 Z"/>
      <path style="stroke:none;fill:black" d="M-100.00000,-173.20508 Q-283.01270,-283.01270 -173.20508,-100.00000 Q-429.42286,-429.42286 -100.00000,-173.20508 Z"/>
      <path style="stroke:none;fill:black" d="M-173.20508,-100.00000 Q-386.60254,-103.58984 -200.00000,-0.00000 Q-586.60254,-157.17968 -173.20508,-100.00000 Z"/>
      <path style="stroke:none;fill:black" d="M-200.00000,-0.00000 Q-386.60254,103.58984 -173.20508,100.00000 Q-586.60254,157.17968 -200.00000,-0.00000 Z"/>
      <path style="stroke:none;fill:black" d="M-173.20508,100.00000 Q-283.01270,283.01270 -100.00000,173.20508 Q-429.42286,429.42286 -173.20508,100.00000 Z"/>
      <path style="stroke:none;fill:black" d="M-100.00000,173.20508 Q-103.58984,386.60254 0.00000,200.00000 Q-157.17968,586.60254 -100.00000,173.20508 Z"/>
    </g>
    <g>
      <path style="stroke:none;fill:black" d="M0.00000,100.00000 Q51.79492,193.30127 50.00000,86.60254 Q78.58984,293.30127 0.00000,100.00000 Z"/>
      <path style="stroke:none;fill:black" d="M50.00000,86.60254 Q141.50635,141.50635 86.60254,50.00000 Q214.71143,214.71143 50.00000,86.60254 Z"/>
      <path style="stroke:none;fill:black" d="M86.60254,50.00000 Q193.30127,51.79492 100.00000,0.00000 Q293.30127,78.58984 86.60254,50.00000 Z"/>
      <path style="stroke:none;fill:black" d="M100.00000,0.00000 Q193.30127,-51.79492 86.60254,-50.00000 Q293.30127,-78.58984 100.00000,0.00000 Z"/>
      <path style="stroke:none;fill:black" d="M86.60254,-50.00000 Q141.50635,-141.50635 50.00000,-86.60254 Q214.71143,-214.71143 86.60254,-50.00000 Z"/>
      <path style="stroke:none;fill:black" d="M50.00000,-86.60254 Q51.79492,-193.30127 0.00000,-100.00000 Q78.58984,-293.30127 50.00000,-86.60254 Z"/>
      <path style="stroke:none;fill:black" d="M0.00000,-100.00000 Q-51.79492,-193.30127 -50.00000,-86.60254 Q-78.58984,-293.30127 0.00000,-100.00000 Z"/>
      <path style="stroke:none;fill:black" d="M-50.00000,-86.60254 Q-141.50635,-141.50635 -86.60254,-50.00000 Q-214.71143,-214.71143 -50.00000,-86.60254 Z"/>
      <path style="stroke:none;fill:black" d="M-86.60254,-50.00000 Q-193.30127,-51.79492 -100.00000,-0.00000 Q-293.30127,-78.58984 -86.60254,-50.00000 Z"/>
      <path style="stroke:none;fill:black" d="M-100.00000,-0.00000 Q-193.30127,51.79492 -86.60254,50.00000 Q-293.30127,78.58984 -100.00000,-0.00000 Z"/>
      <path style="stroke:none;fill:black" d="M-86.60254,50.00000 Q-141.50635,141.50635 -50.00000,86.60254 Q-214.71143,214.71143 -86.60254,50.00000 Z"/>
      <path style="stroke:none;fill:black" d="M-50.00000,86.60254 Q-51.79492,193.30127 0.00000,100.00000 Q-78.58984,293.30127 -50.00000,86.60254 Z"/>
    </g>
  </g>
</svg>
