<svg xmlns:ns0="http://www.w3.org/2000/svg" xlink="http://www.w3.org/1999/xlink" xmlns="http://www.w3.org/2000/svg" ns0:svg="http://www.w3.org/2000/svg" width="1280" height="1280">
  <defs/>
  <g id="canvas" transform="matrix(1,0,0,-1,0,1280) translate(640,640)">
    <path style="stroke:none;fill:black" d="M0.00000,300.00000 L32.47595,581.25000 L32.47595,281.25000 L97.42786,543.75000 L64.95191,262.50000 L162.37976,506.25000 L97.42786,243.75000 L227.33167,468.75000 L129.90381,225.00000 L292.28357,431.25000 L162.37976,206.25000 L357.23548,393.75000 L194.85572,187.50000 L422.18738,356.25000 L227.33167,168.75000 L487.13929,318.75000 L259.80762,150.00000 L519.61524,262.50000 L259.80762,112.50000 L519.61524,187.50000 L259.80762,75.00000 L519.61524,112.50000 L259.80762,37.50000 L519.61524,37.50000 L259.80762,0.00000 L519.61524,-37.50000 L259.80762,-37.50000 L519.61524,-112.50000 L259.80762,-75.00000 L519.61524,-187.50000 L259.80762,-112.50000 L519.61524,-262.50000 L259.80762,-150.00000 L487.13929,-318.75000 L227.33167,-168.75000 L422.18738,-356.25000 L194.85572,-187.50000 L357.23548,-393.75000 L162.37976,-206.25000 L292.28357,-431.25000 L129.90381,-225.00000 L227.33167,-468.75000 L97.42786,-243.75000 L162.37976,-506.25000 L64.95191,-262.50000 L97.42786,-543.75000 L32.47595,-281.25000 L32.47595,-581.25000 L0.00000,-300.00000 L-32.47595,-581.25000 L-32.47595,-281.25000 L-97.42786,-543.75000 L-64.95191,-262.50000 L-162.37976,-506.25000 L-97.42786,-243.75000 L-227.33167,-468.75000 L-129.90381,-225.00000 L-292.28357,-431.25000 L-162.37976,-206.25000 L-357.23548,-393.75000 L-194.85572,-187.50000 L-422.18738,-356.25000 L-227.33167,-168.75000 L-487.13929,-318.75000 L-259.80762,-150.00000 L-519.61524,-262.50000 L-259.80762,-112.50000 L-519.61524,-187.50000 L-259.80762,-75.00000 L-519.61524,-112.50000 L-259.80762,-37.50000 L-519.61524,-37.50000 L-259.80762,-0.00000 L-519.61524,37.50000 L-259.80762,37.50000 L-519.61524,112.50000 L-259.80762,75.00000 L-519.61524,187.50000 L-259.80762,112.50000 L-519.61524,262.50000 L-259.80762,150.00000 L-487.13929,318.75000 L-227.33167,168.75000 L-422.18738,356.25000 L-194.85572,187.50000 L-357.23548,393.75000 L-162.37976,206.25000 L-292.28357,431.25000 L-129.90381,225.00000 L-227.33167,468.75000 L-97.42786,243.75000 L-162.37976,506.25000 L-64.95191,262.50000 L-97.42786,543.75000 L-32.47595,281.25000 L-32.47595,581.25000 L0.00000,300.00000 Z"/>
  </g>
</svg>
