<svg xmlns:ns0="http://www.w3.org/2000/svg" xlink="http://www.w3.org/1999/xlink" xmlns="http://www.w3.org/2000/svg" ns0:svg="http://www.w3.org/2000/svg" width="1280" height="1280">
  <defs>
    <linearGradient id="triFill">
      <stop style="stop-color:#00a6ff;stop-opacity:1.0" offset="0.00000%"/>
      <stop style="stop-color:#ff009e;stop-opacity:1.0" offset="100.00000%"/>
    </linearGradient>
    <radialGradient xmlns:ns0="http://www.w3.org/1999/xlink" ns0:href="#triFill" fx="0.00000" fy="0.00000" gradientUnits="userSpaceOnUse" cy="0.00000" cx="0.00000" r="640.00000" id="radFill"/>
    <linearGradient id="strokeFill">
      <stop style="stop-color:#ff009e;stop-opacity:1.0" offset="0.00000%"/>
      <stop style="stop-color:#00a6ff;stop-opacity:1.0" offset="100.00000%"/>
    </linearGradient>
    <radialGradient xmlns:ns0="http://www.w3.org/1999/xlink" ns0:href="#strokeFill" fx="0.00000" fy="0.00000" gradientUnits="userSpaceOnUse" cy="0.00000" cx="0.00000" r="640.00000" id="strokeRadFill"/>
  </defs>
  <g id="canvas" transform="matrix(1,0,0,-1,0,1280) translate(640,640)">
    <g>
      <path style="fill:url(#radFill)" d="M0.00000,640.00000 L554.25626,-320.00000 L-554.25626,-320.00000 Z"/>
      <path stroke="url(#strokeRadFill)" stroke-width="16" d="M0.00000,640.00000 L0.00000,640.00000 L554.25626,-320.00000 L495.91349,-320.00000 L29.17138,589.47368 L58.34276,538.94737 L437.57073,-320.00000 L379.22797,-320.00000 L87.51415,488.42105 L116.68553,437.89474 L320.88520,-320.00000 L262.54244,-320.00000 L145.85691,387.36842 L175.02829,336.84211 L204.19967,-320.00000 L145.85691,-320.00000 L204.19967,286.31579 L233.37106,235.78947 L87.51415,-320.00000 L29.17138,-320.00000 L262.54244,185.26316 L291.71382,134.73684 L-29.17138,-320.00000 L-87.51415,-320.00000 L320.88520,84.21053 L350.05658,33.68421 L-145.85691,-320.00000 L-204.19967,-320.00000 L379.22797,-16.84211 L408.39935,-67.36842 L-262.54244,-320.00000 L-320.88520,-320.00000 L437.57073,-117.89474 L466.74211,-168.42105 L-379.22797,-320.00000 L-437.57073,-320.00000 L495.91349,-218.94737 L525.08488,-269.47368 L-495.91349,-320.00000 L-554.25626,-320.00000 L554.25626,-320.00000" fill="none"/>
      <path stroke="url(#strokeRadFill)" stroke-width="16" d="M554.25626,-320.00000 L554.25626,-320.00000 L-554.25626,-320.00000 L-525.08488,-269.47368 L495.91349,-320.00000 L437.57073,-320.00000 L-495.91349,-218.94737 L-466.74211,-168.42105 L379.22797,-320.00000 L320.88520,-320.00000 L-437.57073,-117.89474 L-408.39935,-67.36842 L262.54244,-320.00000 L204.19967,-320.00000 L-379.22797,-16.84211 L-350.05658,33.68421 L145.85691,-320.00000 L87.51415,-320.00000 L-320.88520,84.21053 L-291.71382,134.73684 L29.17138,-320.00000 L-29.17138,-320.00000 L-262.54244,185.26316 L-233.37106,235.78947 L-87.51415,-320.00000 L-145.85691,-320.00000 L-204.19967,286.31579 L-175.02829,336.84211 L-204.19967,-320.00000 L-262.54244,-320.00000 L-145.85691,387.36842 L-116.68553,437.89474 L-320.88520,-320.00000 L-379.22797,-320.00000 L-87.51415,488.42105 L-58.34276,538.94737 L-437.57073,-320.00000 L-495.91349,-320.00000 L-29.17138,589.47368 L0.00000,640.00000 L-554.25626,-320.00000" fill="none"/>
      <path stroke="url(#strokeRadFill)" stroke-width="16" d="M-554.25626,-320.00000 L-554.25626,-320.00000 L0.00000,640.00000 L29.17138,589.47368 L-525.08488,-269.47368 L-495.91349,-218.94737 L58.34276,538.94737 L87.51415,488.42105 L-466.74211,-168.42105 L-437.57073,-117.89474 L116.68553,437.89474 L145.85691,387.36842 L-408.39935,-67.36842 L-379.22797,-16.84211 L175.02829,336.84211 L204.19967,286.31579 L-350.05658,33.68421 L-320.88520,84.21053 L233.37106,235.78947 L262.54244,185.26316 L-291.71382,134.73684 L-262.54244,185.26316 L291.71382,134.73684 L320.88520,84.21053 L-233.37106,235.78947 L-204.19967,286.31579 L350.05658,33.68421 L379.22797,-16.84211 L-175.02829,336.84211 L-145.85691,387.36842 L408.39935,-67.36842 L437.57073,-117.89474 L-116.68553,437.89474 L-87.51415,488.42105 L466.74211,-168.42105 L495.91349,-218.94737 L-58.34276,538.94737 L-29.17138,589.47368 L525.08488,-269.47368 L554.25626,-320.00000 L0.00000,640.00000" fill="none"/>
    </g>
  </g>
</svg>
