<svg xmlns:ns0="http://www.w3.org/2000/svg" xlink="http://www.w3.org/1999/xlink" xmlns="http://www.w3.org/2000/svg" ns0:svg="http://www.w3.org/2000/svg" width="1280" height="1280">
  <defs/>
  <g id="canvas" transform="matrix(1,0,0,-1,0,1280) translate(640,640)">
    <g>
      <path style="stroke:black;stroke-width:1;fill:#7cff00" d="M389.71143,-225.00000 L311.76915,-225.00000 L255.08385,-102.27273 L318.85481,-102.27273 Z"/>
      <path style="stroke:black;stroke-width:1;fill:#00b7ff" d="M318.85481,-102.27273 L255.08385,-102.27273 L207.84610,0.00000 L259.80762,0.00000 Z"/>
      <path style="stroke:black;stroke-width:1;fill:#7cff00" d="M259.80762,0.00000 L207.84610,0.00000 L167.87569,86.53846 L209.84462,86.53846 Z"/>
      <path style="stroke:black;stroke-width:1;fill:#00b7ff" d="M209.84462,86.53846 L167.87569,86.53846 L133.61535,160.71429 L167.01919,160.71429 Z"/>
      <path style="stroke:black;stroke-width:1;fill:#7cff00" d="M167.01919,160.71429 L133.61535,160.71429 L103.92305,225.00000 L129.90381,225.00000 Z"/>
      <path style="stroke:black;stroke-width:1;fill:#00b7ff" d="M129.90381,225.00000 L103.92305,225.00000 L77.94229,281.25000 L97.42786,281.25000 Z"/>
      <path style="stroke:black;stroke-width:1;fill:#7cff00" d="M97.42786,281.25000 L77.94229,281.25000 L55.01808,330.88235 L68.77261,330.88235 Z"/>
      <path style="stroke:black;stroke-width:1;fill:#00b7ff" d="M68.77261,330.88235 L55.01808,330.88235 L34.64102,375.00000 L43.30127,375.00000 Z"/>
      <path style="stroke:black;stroke-width:1;fill:#7cff00" d="M43.30127,375.00000 L34.64102,375.00000 L16.40890,414.47368 L20.51113,414.47368 Z"/>
      <path style="stroke:black;stroke-width:1;fill:#00b7ff" d="M311.76915,-225.00000 L233.82686,-225.00000 L191.31288,-102.27273 L255.08385,-102.27273 Z"/>
      <path style="stroke:black;stroke-width:1;fill:#7cff00" d="M255.08385,-102.27273 L191.31288,-102.27273 L155.88457,0.00000 L207.84610,0.00000 Z"/>
      <path style="stroke:black;stroke-width:1;fill:#00b7ff" d="M207.84610,0.00000 L155.88457,0.00000 L125.90677,86.53846 L167.87569,86.53846 Z"/>
      <path style="stroke:black;stroke-width:1;fill:#7cff00" d="M167.87569,86.53846 L125.90677,86.53846 L100.21151,160.71429 L133.61535,160.71429 Z"/>
      <path style="stroke:black;stroke-width:1;fill:#00b7ff" d="M133.61535,160.71429 L100.21151,160.71429 L77.94229,225.00000 L103.92305,225.00000 Z"/>
      <path style="stroke:black;stroke-width:1;fill:#7cff00" d="M103.92305,225.00000 L77.94229,225.00000 L58.45671,281.25000 L77.94229,281.25000 Z"/>
      <path style="stroke:black;stroke-width:1;fill:#00b7ff" d="M77.94229,281.25000 L58.45671,281.25000 L41.26356,330.88235 L55.01808,330.88235 Z"/>
      <path style="stroke:black;stroke-width:1;fill:#7cff00" d="M55.01808,330.88235 L41.26356,330.88235 L25.98076,375.00000 L34.64102,375.00000 Z"/>
      <path style="stroke:black;stroke-width:1;fill:#00b7ff" d="M34.64102,375.00000 L25.98076,375.00000 L12.30668,414.47368 L16.40890,414.47368 Z"/>
      <path style="stroke:black;stroke-width:1;fill:#7cff00" d="M233.82686,-225.00000 L155.88457,-225.00000 L127.54192,-102.27273 L191.31288,-102.27273 Z"/>
      <path style="stroke:black;stroke-width:1;fill:#00b7ff" d="M191.31288,-102.27273 L127.54192,-102.27273 L103.92305,0.00000 L155.88457,0.00000 Z"/>
      <path style="stroke:black;stroke-width:1;fill:#7cff00" d="M155.88457,0.00000 L103.92305,0.00000 L83.93785,86.53846 L125.90677,86.53846 Z"/>
      <path style="stroke:black;stroke-width:1;fill:#00b7ff" d="M125.90677,86.53846 L83.93785,86.53846 L66.80767,160.71429 L100.21151,160.71429 Z"/>
      <path style="stroke:black;stroke-width:1;fill:#7cff00" d="M100.21151,160.71429 L66.80767,160.71429 L51.96152,225.00000 L77.94229,225.00000 Z"/>
      <path style="stroke:black;stroke-width:1;fill:#00b7ff" d="M77.94229,225.00000 L51.96152,225.00000 L38.97114,281.25000 L58.45671,281.25000 Z"/>
      <path style="stroke:black;stroke-width:1;fill:#7cff00" d="M58.45671,281.25000 L38.97114,281.25000 L27.50904,330.88235 L41.26356,330.88235 Z"/>
      <path style="stroke:black;stroke-width:1;fill:#00b7ff" d="M41.26356,330.88235 L27.50904,330.88235 L17.32051,375.00000 L25.98076,375.00000 Z"/>
      <path style="stroke:black;stroke-width:1;fill:#7cff00" d="M25.98076,375.00000 L17.32051,375.00000 L8.20445,414.47368 L12.30668,414.47368 Z"/>
      <path style="stroke:black;stroke-width:1;fill:#00b7ff" d="M155.88457,-225.00000 L77.94229,-225.00000 L63.77096,-102.27273 L127.54192,-102.27273 Z"/>
      <path style="stroke:black;stroke-width:1;fill:#7cff00" d="M127.54192,-102.27273 L63.77096,-102.27273 L51.96152,0.00000 L103.92305,0.00000 Z"/>
      <path style="stroke:black;stroke-width:1;fill:#00b7ff" d="M103.92305,0.00000 L51.96152,0.00000 L41.96892,86.53846 L83.93785,86.53846 Z"/>
      <path style="stroke:black;stroke-width:1;fill:#7cff00" d="M83.93785,86.53846 L41.96892,86.53846 L33.40384,160.71429 L66.80767,160.71429 Z"/>
      <path style="stroke:black;stroke-width:1;fill:#00b7ff" d="M66.80767,160.71429 L33.40384,160.71429 L25.98076,225.00000 L51.96152,225.00000 Z"/>
      <path style="stroke:black;stroke-width:1;fill:#7cff00" d="M51.96152,225.00000 L25.98076,225.00000 L19.48557,281.25000 L38.97114,281.25000 Z"/>
      <path style="stroke:black;stroke-width:1;fill:#00b7ff" d="M38.97114,281.25000 L19.48557,281.25000 L13.75452,330.88235 L27.50904,330.88235 Z"/>
      <path style="stroke:black;stroke-width:1;fill:#7cff00" d="M27.50904,330.88235 L13.75452,330.88235 L8.66025,375.00000 L17.32051,375.00000 Z"/>
      <path style="stroke:black;stroke-width:1;fill:#00b7ff" d="M17.32051,375.00000 L8.66025,375.00000 L4.10223,414.47368 L8.20445,414.47368 Z"/>
      <path style="stroke:black;stroke-width:1;fill:#7cff00" d="M77.94229,-225.00000 L0.00000,-225.00000 L0.00000,-102.27273 L63.77096,-102.27273 Z"/>
      <path style="stroke:black;stroke-width:1;fill:#00b7ff" d="M63.77096,-102.27273 L0.00000,-102.27273 L0.00000,0.00000 L51.96152,0.00000 Z"/>
      <path style="stroke:black;stroke-width:1;fill:#7cff00" d="M51.96152,0.00000 L0.00000,0.00000 L0.00000,86.53846 L41.96892,86.53846 Z"/>
      <path style="stroke:black;stroke-width:1;fill:#00b7ff" d="M41.96892,86.53846 L0.00000,86.53846 L0.00000,160.71429 L33.40384,160.71429 Z"/>
      <path style="stroke:black;stroke-width:1;fill:#7cff00" d="M33.40384,160.71429 L0.00000,160.71429 L0.00000,225.00000 L25.98076,225.00000 Z"/>
      <path style="stroke:black;stroke-width:1;fill:#00b7ff" d="M25.98076,225.00000 L0.00000,225.00000 L0.00000,281.25000 L19.48557,281.25000 Z"/>
      <path style="stroke:black;stroke-width:1;fill:#7cff00" d="M19.48557,281.25000 L0.00000,281.25000 L0.00000,330.88235 L13.75452,330.88235 Z"/>
      <path style="stroke:black;stroke-width:1;fill:#00b7ff" d="M13.75452,330.88235 L0.00000,330.88235 L0.00000,375.00000 L8.66025,375.00000 Z"/>
      <path style="stroke:black;stroke-width:1;fill:#7cff00" d="M8.66025,375.00000 L0.00000,375.00000 L0.00000,414.47368 L4.10223,414.47368 Z"/>
      <path style="stroke:black;stroke-width:1;fill:#00b7ff" d="M0.00000,-225.00000 L-77.94229,-225.00000 L-63.77096,-102.27273 L0.00000,-102.27273 Z"/>
      <path style="stroke:black;stroke-width:1;fill:#7cff00" d="M0.00000,-102.27273 L-63.77096,-102.27273 L-51.96152,0.00000 L0.00000,0.00000 Z"/>
      <path style="stroke:black;stroke-width:1;fill:#00b7ff" d="M0.00000,0.00000 L-51.96152,0.00000 L-41.96892,86.53846 L0.00000,86.53846 Z"/>
      <path style="stroke:black;stroke-width:1;fill:#7cff00" d="M0.00000,86.53846 L-41.96892,86.53846 L-33.40384,160.71429 L0.00000,160.71429 Z"/>
      <path style="stroke:black;stroke-width:1;fill:#00b7ff" d="M0.00000,160.71429 L-33.40384,160.71429 L-25.98076,225.00000 L0.00000,225.00000 Z"/>
      <path style="stroke:black;stroke-width:1;fill:#7cff00" d="M0.00000,225.00000 L-25.98076,225.00000 L-19.48557,281.25000 L0.00000,281.25000 Z"/>
      <path style="stroke:black;stroke-width:1;fill:#00b7ff" d="M0.00000,281.25000 L-19.48557,281.25000 L-13.75452,330.88235 L0.00000,330.88235 Z"/>
      <path style="stroke:black;stroke-width:1;fill:#7cff00" d="M0.00000,330.88235 L-13.75452,330.88235 L-8.66025,375.00000 L0.00000,375.00000 Z"/>
      <path style="stroke:black;stroke-width:1;fill:#00b7ff" d="M0.00000,375.00000 L-8.66025,375.00000 L-4.10223,414.47368 L0.00000,414.47368 Z"/>
      <path style="stroke:black;stroke-width:1;fill:#7cff00" d="M-77.94229,-225.00000 L-155.88457,-225.00000 L-127.54192,-102.27273 L-63.77096,-102.27273 Z"/>
      <path style="stroke:black;stroke-width:1;fill:#00b7ff" d="M-63.77096,-102.27273 L-127.54192,-102.27273 L-103.92305,0.00000 L-51.96152,0.00000 Z"/>
      <path style="stroke:black;stroke-width:1;fill:#7cff00" d="M-51.96152,0.00000 L-103.92305,0.00000 L-83.93785,86.53846 L-41.96892,86.53846 Z"/>
      <path style="stroke:black;stroke-width:1;fill:#00b7ff" d="M-41.96892,86.53846 L-83.93785,86.53846 L-66.80767,160.71429 L-33.40384,160.71429 Z"/>
      <path style="stroke:black;stroke-width:1;fill:#7cff00" d="M-33.40384,160.71429 L-66.80767,160.71429 L-51.96152,225.00000 L-25.98076,225.00000 Z"/>
      <path style="stroke:black;stroke-width:1;fill:#00b7ff" d="M-25.98076,225.00000 L-51.96152,225.00000 L-38.97114,281.25000 L-19.48557,281.25000 Z"/>
      <path style="stroke:black;stroke-width:1;fill:#7cff00" d="M-19.48557,281.25000 L-38.97114,281.25000 L-27.50904,330.88235 L-13.75452,330.88235 Z"/>
      <path style="stroke:black;stroke-width:1;fill:#00b7ff" d="M-13.75452,330.88235 L-27.50904,330.88235 L-17.32051,375.00000 L-8.66025,375.00000 Z"/>
      <path style="stroke:black;stroke-width:1;fill:#7cff00" d="M-8.66025,375.00000 L-17.32051,375.00000 L-8.20445,414.47368 L-4.10223,414.47368 Z"/>
      <path style="stroke:black;stroke-width:1;fill:#00b7ff" d="M-155.88457,-225.00000 L-233.82686,-225.00000 L-191.31288,-102.27273 L-127.54192,-102.27273 Z"/>
      <path style="stroke:black;stroke-width:1;fill:#7cff00" d="M-127.54192,-102.27273 L-191.31288,-102.27273 L-155.88457,0.00000 L-103.92305,0.00000 Z"/>
      <path style="stroke:black;stroke-width:1;fill:#00b7ff" d="M-103.92305,0.00000 L-155.88457,0.00000 L-125.90677,86.53846 L-83.93785,86.53846 Z"/>
      <path style="stroke:black;stroke-width:1;fill:#7cff00" d="M-83.93785,86.53846 L-125.90677,86.53846 L-100.21151,160.71429 L-66.80767,160.71429 Z"/>
      <path style="stroke:black;stroke-width:1;fill:#00b7ff" d="M-66.80767,160.71429 L-100.21151,160.71429 L-77.94229,225.00000 L-51.96152,225.00000 Z"/>
      <path style="stroke:black;stroke-width:1;fill:#7cff00" d="M-51.96152,225.00000 L-77.94229,225.00000 L-58.45671,281.25000 L-38.97114,281.25000 Z"/>
      <path style="stroke:black;stroke-width:1;fill:#00b7ff" d="M-38.97114,281.25000 L-58.45671,281.25000 L-41.26356,330.88235 L-27.50904,330.88235 Z"/>
      <path style="stroke:black;stroke-width:1;fill:#7cff00" d="M-27.50904,330.88235 L-41.26356,330.88235 L-25.98076,375.00000 L-17.32051,375.00000 Z"/>
      <path style="stroke:black;stroke-width:1;fill:#00b7ff" d="M-17.32051,375.00000 L-25.98076,375.00000 L-12.30668,414.47368 L-8.20445,414.47368 Z"/>
      <path style="stroke:black;stroke-width:1;fill:#7cff00" d="M-233.82686,-225.00000 L-311.76915,-225.00000 L-255.08385,-102.27273 L-191.31288,-102.27273 Z"/>
      <path style="stroke:black;stroke-width:1;fill:#00b7ff" d="M-191.31288,-102.27273 L-255.08385,-102.27273 L-207.84610,0.00000 L-155.88457,0.00000 Z"/>
      <path style="stroke:black;stroke-width:1;fill:#7cff00" d="M-155.88457,0.00000 L-207.84610,0.00000 L-167.87569,86.53846 L-125.90677,86.53846 Z"/>
      <path style="stroke:black;stroke-width:1;fill:#00b7ff" d="M-125.90677,86.53846 L-167.87569,86.53846 L-133.61535,160.71429 L-100.21151,160.71429 Z"/>
      <path style="stroke:black;stroke-width:1;fill:#7cff00" d="M-100.21151,160.71429 L-133.61535,160.71429 L-103.92305,225.00000 L-77.94229,225.00000 Z"/>
      <path style="stroke:black;stroke-width:1;fill:#00b7ff" d="M-77.94229,225.00000 L-103.92305,225.00000 L-77.94229,281.25000 L-58.45671,281.25000 Z"/>
      <path style="stroke:black;stroke-width:1;fill:#7cff00" d="M-58.45671,281.25000 L-77.94229,281.25000 L-55.01808,330.88235 L-41.26356,330.88235 Z"/>
      <path style="stroke:black;stroke-width:1;fill:#00b7ff" d="M-41.26356,330.88235 L-55.01808,330.88235 L-34.64102,375.00000 L-25.98076,375.00000 Z"/>
      <path style="stroke:black;stroke-width:1;fill:#7cff00" d="M-25.98076,375.00000 L-34.64102,375.00000 L-16.40890,414.47368 L-12.30668,414.47368 Z"/>
      <path style="stroke:black;stroke-width:1;fill:#00b7ff" d="M-311.76915,-225.00000 L-389.71143,-225.00000 L-318.85481,-102.27273 L-255.08385,-102.27273 Z"/>
      <path style="stroke:black;stroke-width:1;fill:#7cff00" d="M-255.08385,-102.27273 L-318.85481,-102.27273 L-259.80762,-0.00000 L-207.84610,0.00000 Z"/>
      <path style="stroke:black;stroke-width:1;fill:#00b7ff" d="M-207.84610,0.00000 L-259.80762,-0.00000 L-209.84462,86.53846 L-167.87569,86.53846 Z"/>
      <path style="stroke:black;stroke-width:1;fill:#7cff00" d="M-167.87569,86.53846 L-209.84462,86.53846 L-167.01919,160.71429 L-133.61535,160.71429 Z"/>
      <path style="stroke:black;stroke-width:1;fill:#00b7ff" d="M-133.61535,160.71429 L-167.01919,160.71429 L-129.90381,225.00000 L-103.92305,225.00000 Z"/>
      <path style="stroke:black;stroke-width:1;fill:#7cff00" d="M-103.92305,225.00000 L-129.90381,225.00000 L-97.42786,281.25000 L-77.94229,281.25000 Z"/>
      <path style="stroke:black;stroke-width:1;fill:#00b7ff" d="M-77.94229,281.25000 L-97.42786,281.25000 L-68.77261,330.88235 L-55.01808,330.88235 Z"/>
      <path style="stroke:black;stroke-width:1;fill:#7cff00" d="M-55.01808,330.88235 L-68.77261,330.88235 L-43.30127,375.00000 L-34.64102,375.00000 Z"/>
      <path style="stroke:black;stroke-width:1;fill:#00b7ff" d="M-34.64102,375.00000 L-43.30127,375.00000 L-20.51113,414.47368 L-16.40890,414.47368 Z"/>
      <path style="stroke:black;stroke-width:1;fill:#00b7ff" d="M0.00000,450.00000 L20.51113,414.47368 L16.40890,414.47368 Z"/>
      <path style="stroke:black;stroke-width:1;fill:#7cff00" d="M0.00000,450.00000 L16.40890,414.47368 L12.30668,414.47368 Z"/>
      <path style="stroke:black;stroke-width:1;fill:#00b7ff" d="M0.00000,450.00000 L12.30668,414.47368 L8.20445,414.47368 Z"/>
      <path style="stroke:black;stroke-width:1;fill:#7cff00" d="M0.00000,450.00000 L8.20445,414.47368 L4.10223,414.47368 Z"/>
      <path style="stroke:black;stroke-width:1;fill:#00b7ff" d="M0.00000,450.00000 L4.10223,414.47368 L0.00000,414.47368 Z"/>
      <path style="stroke:black;stroke-width:1;fill:#7cff00" d="M0.00000,450.00000 L0.00000,414.47368 L-4.10223,414.47368 Z"/>
      <path style="stroke:black;stroke-width:1;fill:#00b7ff" d="M0.00000,450.00000 L-4.10223,414.47368 L-8.20445,414.47368 Z"/>
      <path style="stroke:black;stroke-width:1;fill:#7cff00" d="M0.00000,450.00000 L-8.20445,414.47368 L-12.30668,414.47368 Z"/>
      <path style="stroke:black;stroke-width:1;fill:#00b7ff" d="M0.00000,450.00000 L-12.30668,414.47368 L-16.40890,414.47368 Z"/>
      <path style="stroke:black;stroke-width:1;fill:#7cff00" d="M0.00000,450.00000 L-16.40890,414.47368 L-20.51113,414.47368 Z"/>
    </g>
  </g>
</svg>
