<?xml version="1.0" encoding="UTF-8" standalone="no"?>
<!-- Created with Inkscape (http://www.inkscape.org/) -->
<svg
   xmlns:dc="http://purl.org/dc/elements/1.1/"
   xmlns:cc="http://web.resource.org/cc/"
   xmlns:rdf="http://www.w3.org/1999/02/22-rdf-syntax-ns#"
   xmlns:svg="http://www.w3.org/2000/svg"
   xmlns="http://www.w3.org/2000/svg"
   xmlns:sodipodi="http://sodipodi.sourceforge.net/DTD/sodipodi-0.dtd"
   xmlns:inkscape="http://www.inkscape.org/namespaces/inkscape"
   width="744.09448819"
   height="1052.3622047"
   id="svg10400"
   sodipodi:version="0.32"
   inkscape:version="0.45"
   sodipodi:docname="platonicEarthPage.svg"
   sodipodi:docbase="/media/oldubu/home/tamarind/0_Code_0/play-svg/scripts/images"
   inkscape:output_extension="org.inkscape.output.svg.inkscape"
   sodipodi:modified="true">
  <defs
     id="defs10402" />
  <sodipodi:namedview
     id="base"
     pagecolor="#ffffff"
     bordercolor="#666666"
     borderopacity="1.0"
     gridtolerance="10000"
     guidetolerance="10"
     objecttolerance="10"
     inkscape:pageopacity="0.0"
     inkscape:pageshadow="2"
     inkscape:zoom="0.35"
     inkscape:cx="375"
     inkscape:cy="634.28571"
     inkscape:document-units="px"
     inkscape:current-layer="layer1"
     inkscape:window-width="874"
     inkscape:window-height="626"
     inkscape:window-x="55"
     inkscape:window-y="49" />
  <metadata
     id="metadata10405">
    <rdf:RDF>
      <cc:Work
         rdf:about="">
        <dc:format>image/svg+xml</dc:format>
        <dc:type
           rdf:resource="http://purl.org/dc/dcmitype/StillImage" />
      </cc:Work>
    </rdf:RDF>
  </metadata>
  <g
     inkscape:label="Layer 1"
     inkscape:groupmode="layer"
     id="layer1">
    <g
       id="canvas"
       transform="matrix(0.7830341,0,0,-0.7830341,365.71429,466.6479)">
      <path
         style="fill:#7cff00;stroke:#000000;stroke-width:3"
         d="M -150,-150 L -122.72727,-150 L -122.72727,-122.72727 L -150,-122.72727 L -150,-150 M -150,-95.45455 L -122.72727,-95.45455 L -122.72727,-68.18182 L -150,-68.18182 L -150,-95.45455 M -150,-40.90909 L -122.72727,-40.90909 L -122.72727,-13.63636 L -150,-13.63636 L -150,-40.90909 M -150,13.63636 L -122.72727,13.63636 L -122.72727,40.90909 L -150,40.90909 L -150,13.63636 M -150,68.18182 L -122.72727,68.18182 L -122.72727,95.45455 L -150,95.45455 L -150,68.18182 M -150,122.72727 L -122.72727,122.72727 L -122.72727,150 L -150,150 L -150,122.72727 M -122.72727,-122.72727 L -95.45455,-122.72727 L -95.45455,-95.45455 L -122.72727,-95.45455 L -122.72727,-122.72727 M -122.72727,-68.18182 L -95.45455,-68.18182 L -95.45455,-40.90909 L -122.72727,-40.90909 L -122.72727,-68.18182 M -122.72727,-13.63636 L -95.45455,-13.63636 L -95.45455,13.63636 L -122.72727,13.63636 L -122.72727,-13.63636 M -122.72727,40.90909 L -95.45455,40.90909 L -95.45455,68.18182 L -122.72727,68.18182 L -122.72727,40.90909 M -122.72727,95.45455 L -95.45455,95.45455 L -95.45455,122.72727 L -122.72727,122.72727 L -122.72727,95.45455 M -95.45455,-150 L -68.18182,-150 L -68.18182,-122.72727 L -95.45455,-122.72727 L -95.45455,-150 M -95.45455,-95.45455 L -68.18182,-95.45455 L -68.18182,-68.18182 L -95.45455,-68.18182 L -95.45455,-95.45455 M -95.45455,-40.90909 L -68.18182,-40.90909 L -68.18182,-13.63636 L -95.45455,-13.63636 L -95.45455,-40.90909 M -95.45455,13.63636 L -68.18182,13.63636 L -68.18182,40.90909 L -95.45455,40.90909 L -95.45455,13.63636 M -95.45455,68.18182 L -68.18182,68.18182 L -68.18182,95.45455 L -95.45455,95.45455 L -95.45455,68.18182 M -95.45455,122.72727 L -68.18182,122.72727 L -68.18182,150 L -95.45455,150 L -95.45455,122.72727 M -68.18182,-122.72727 L -40.90909,-122.72727 L -40.90909,-95.45455 L -68.18182,-95.45455 L -68.18182,-122.72727 M -68.18182,-68.18182 L -40.90909,-68.18182 L -40.90909,-40.90909 L -68.18182,-40.90909 L -68.18182,-68.18182 M -68.18182,-13.63636 L -40.90909,-13.63636 L -40.90909,13.63636 L -68.18182,13.63636 L -68.18182,-13.63636 M -68.18182,40.90909 L -40.90909,40.90909 L -40.90909,68.18182 L -68.18182,68.18182 L -68.18182,40.90909 M -68.18182,95.45455 L -40.90909,95.45455 L -40.90909,122.72727 L -68.18182,122.72727 L -68.18182,95.45455 M -40.90909,-150 L -13.63636,-150 L -13.63636,-122.72727 L -40.90909,-122.72727 L -40.90909,-150 M -40.90909,-95.45455 L -13.63636,-95.45455 L -13.63636,-68.18182 L -40.90909,-68.18182 L -40.90909,-95.45455 M -40.90909,-40.90909 L -13.63636,-40.90909 L -13.63636,-13.63636 L -40.90909,-13.63636 L -40.90909,-40.90909 M -40.90909,13.63636 L -13.63636,13.63636 L -13.63636,40.90909 L -40.90909,40.90909 L -40.90909,13.63636 M -40.90909,68.18182 L -13.63636,68.18182 L -13.63636,95.45455 L -40.90909,95.45455 L -40.90909,68.18182 M -40.90909,122.72727 L -13.63636,122.72727 L -13.63636,150 L -40.90909,150 L -40.90909,122.72727 M -13.63636,-122.72727 L 13.63636,-122.72727 L 13.63636,-95.45455 L -13.63636,-95.45455 L -13.63636,-122.72727 M -13.63636,-68.18182 L 13.63636,-68.18182 L 13.63636,-40.90909 L -13.63636,-40.90909 L -13.63636,-68.18182 M -13.63636,-13.63636 L 13.63636,-13.63636 L 13.63636,13.63636 L -13.63636,13.63636 L -13.63636,-13.63636 M -13.63636,40.90909 L 13.63636,40.90909 L 13.63636,68.18182 L -13.63636,68.18182 L -13.63636,40.90909 M -13.63636,95.45455 L 13.63636,95.45455 L 13.63636,122.72727 L -13.63636,122.72727 L -13.63636,95.45455 M 13.63636,-150 L 40.90909,-150 L 40.90909,-122.72727 L 13.63636,-122.72727 L 13.63636,-150 M 13.63636,-95.45455 L 40.90909,-95.45455 L 40.90909,-68.18182 L 13.63636,-68.18182 L 13.63636,-95.45455 M 13.63636,-40.90909 L 40.90909,-40.90909 L 40.90909,-13.63636 L 13.63636,-13.63636 L 13.63636,-40.90909 M 13.63636,13.63636 L 40.90909,13.63636 L 40.90909,40.90909 L 13.63636,40.90909 L 13.63636,13.63636 M 13.63636,68.18182 L 40.90909,68.18182 L 40.90909,95.45455 L 13.63636,95.45455 L 13.63636,68.18182 M 13.63636,122.72727 L 40.90909,122.72727 L 40.90909,150 L 13.63636,150 L 13.63636,122.72727 M 40.90909,-122.72727 L 68.18182,-122.72727 L 68.18182,-95.45455 L 40.90909,-95.45455 L 40.90909,-122.72727 M 40.90909,-68.18182 L 68.18182,-68.18182 L 68.18182,-40.90909 L 40.90909,-40.90909 L 40.90909,-68.18182 M 40.90909,-13.63636 L 68.18182,-13.63636 L 68.18182,13.63636 L 40.90909,13.63636 L 40.90909,-13.63636 M 40.90909,40.90909 L 68.18182,40.90909 L 68.18182,68.18182 L 40.90909,68.18182 L 40.90909,40.90909 M 40.90909,95.45455 L 68.18182,95.45455 L 68.18182,122.72727 L 40.90909,122.72727 L 40.90909,95.45455 M 68.18182,-150 L 95.45455,-150 L 95.45455,-122.72727 L 68.18182,-122.72727 L 68.18182,-150 M 68.18182,-95.45455 L 95.45455,-95.45455 L 95.45455,-68.18182 L 68.18182,-68.18182 L 68.18182,-95.45455 M 68.18182,-40.90909 L 95.45455,-40.90909 L 95.45455,-13.63636 L 68.18182,-13.63636 L 68.18182,-40.90909 M 68.18182,13.63636 L 95.45455,13.63636 L 95.45455,40.90909 L 68.18182,40.90909 L 68.18182,13.63636 M 68.18182,68.18182 L 95.45455,68.18182 L 95.45455,95.45455 L 68.18182,95.45455 L 68.18182,68.18182 M 68.18182,122.72727 L 95.45455,122.72727 L 95.45455,150 L 68.18182,150 L 68.18182,122.72727 M 95.45455,-122.72727 L 122.72727,-122.72727 L 122.72727,-95.45455 L 95.45455,-95.45455 L 95.45455,-122.72727 M 95.45455,-68.18182 L 122.72727,-68.18182 L 122.72727,-40.90909 L 95.45455,-40.90909 L 95.45455,-68.18182 M 95.45455,-13.63636 L 122.72727,-13.63636 L 122.72727,13.63636 L 95.45455,13.63636 L 95.45455,-13.63636 M 95.45455,40.90909 L 122.72727,40.90909 L 122.72727,68.18182 L 95.45455,68.18182 L 95.45455,40.90909 M 95.45455,95.45455 L 122.72727,95.45455 L 122.72727,122.72727 L 95.45455,122.72727 L 95.45455,95.45455 M 122.72727,-150 L 150,-150 L 150,-122.72727 L 122.72727,-122.72727 L 122.72727,-150 M 122.72727,-95.45455 L 150,-95.45455 L 150,-68.18182 L 122.72727,-68.18182 L 122.72727,-95.45455 M 122.72727,-40.90909 L 150,-40.90909 L 150,-13.63636 L 122.72727,-13.63636 L 122.72727,-40.90909 M 122.72727,13.63636 L 150,13.63636 L 150,40.90909 L 122.72727,40.90909 L 122.72727,13.63636 M 122.72727,68.18182 L 150,68.18182 L 150,95.45455 L 122.72727,95.45455 L 122.72727,68.18182 M 122.72727,122.72727 L 150,122.72727 L 150,150 L 122.72727,150 L 122.72727,122.72727 M 358.33333,358.33333 L 358.33333,293.18182 L 323.07692,264.33566 L 323.07692,323.07692 L 358.33333,358.33333 M 292.85714,292.85714 L 292.85714,239.61039 L 266.66667,218.18182 L 266.66667,266.66667 L 292.85714,292.85714 M 243.75,243.75 L 243.75,199.43182 L 223.52941,182.8877 L 223.52941,223.52941 L 243.75,243.75 M 205.55556,205.55556 L 205.55556,168.18182 L 189.47368,155.02392 L 189.47368,189.47368 L 205.55556,205.55556 M 175,175 L 175,143.18182 L 161.90476,132.46753 L 161.90476,161.90476 L 175,175 M 400,327.27273 L 400,254.54545 L 358.33333,228.0303 L 358.33333,293.18182 L 400,327.27273 M 323.07692,264.33566 L 323.07692,205.59441 L 292.85714,186.36364 L 292.85714,239.61039 L 323.07692,264.33566 M 266.66667,218.18182 L 266.66667,169.69697 L 243.75,155.11364 L 243.75,199.43182 L 266.66667,218.18182 M 223.52941,182.8877 L 223.52941,142.24599 L 205.55556,130.80808 L 205.55556,168.18182 L 223.52941,182.8877 M 189.47368,155.02392 L 189.47368,120.57416 L 175,111.36364 L 175,143.18182 L 189.47368,155.02392 M 161.90476,132.46753 L 161.90476,103.0303 L 150,95.45455 L 150,122.72727 L 161.90476,132.46753 M 358.33333,228.0303 L 358.33333,162.87879 L 323.07692,146.85315 L 323.07692,205.59441 L 358.33333,228.0303 M 292.85714,186.36364 L 292.85714,133.11688 L 266.66667,121.21212 L 266.66667,169.69697 L 292.85714,186.36364 M 243.75,155.11364 L 243.75,110.79545 L 223.52941,101.60428 L 223.52941,142.24599 L 243.75,155.11364 M 205.55556,130.80808 L 205.55556,93.43434 L 189.47368,86.1244 L 189.47368,120.57416 L 205.55556,130.80808 M 175,111.36364 L 175,79.54545 L 161.90476,73.59307 L 161.90476,103.0303 L 175,111.36364 M 400,181.81818 L 400,109.09091 L 358.33333,97.72727 L 358.33333,162.87879 L 400,181.81818 M 323.07692,146.85315 L 323.07692,88.11189 L 292.85714,79.87013 L 292.85714,133.11688 L 323.07692,146.85315 M 266.66667,121.21212 L 266.66667,72.72727 L 243.75,66.47727 L 243.75,110.79545 L 266.66667,121.21212 M 223.52941,101.60428 L 223.52941,60.96257 L 205.55556,56.06061 L 205.55556,93.43434 L 223.52941,101.60428 M 189.47368,86.1244 L 189.47368,51.67464 L 175,47.72727 L 175,79.54545 L 189.47368,86.1244 M 161.90476,73.59307 L 161.90476,44.15584 L 150,40.90909 L 150,68.18182 L 161.90476,73.59307 M 358.33333,97.72727 L 358.33333,32.57576 L 323.07692,29.37063 L 323.07692,88.11189 L 358.33333,97.72727 M 292.85714,79.87013 L 292.85714,26.62338 L 266.66667,24.24242 L 266.66667,72.72727 L 292.85714,79.87013 M 243.75,66.47727 L 243.75,22.15909 L 223.52941,20.32086 L 223.52941,60.96257 L 243.75,66.47727 M 205.55556,56.06061 L 205.55556,18.68687 L 189.47368,17.22488 L 189.47368,51.67464 L 205.55556,56.06061 M 175,47.72727 L 175,15.90909 L 161.90476,14.71861 L 161.90476,44.15584 L 175,47.72727 M 400,36.36364 L 400,-36.36364 L 358.33333,-32.57576 L 358.33333,32.57576 L 400,36.36364 M 323.07692,29.37063 L 323.07692,-29.37063 L 292.85714,-26.62338 L 292.85714,26.62338 L 323.07692,29.37063 M 266.66667,24.24242 L 266.66667,-24.24242 L 243.75,-22.15909 L 243.75,22.15909 L 266.66667,24.24242 M 223.52941,20.32086 L 223.52941,-20.32086 L 205.55556,-18.68687 L 205.55556,18.68687 L 223.52941,20.32086 M 189.47368,17.22488 L 189.47368,-17.22488 L 175,-15.90909 L 175,15.90909 L 189.47368,17.22488 M 161.90476,14.71861 L 161.90476,-14.71861 L 150,-13.63636 L 150,13.63636 L 161.90476,14.71861 M 358.33333,-32.57576 L 358.33333,-97.72727 L 323.07692,-88.11189 L 323.07692,-29.37063 L 358.33333,-32.57576 M 292.85714,-26.62338 L 292.85714,-79.87013 L 266.66667,-72.72727 L 266.66667,-24.24242 L 292.85714,-26.62338 M 243.75,-22.15909 L 243.75,-66.47727 L 223.52941,-60.96257 L 223.52941,-20.32086 L 243.75,-22.15909 M 205.55556,-18.68687 L 205.55556,-56.06061 L 189.47368,-51.67464 L 189.47368,-17.22488 L 205.55556,-18.68687 M 175,-15.90909 L 175,-47.72727 L 161.90476,-44.15584 L 161.90476,-14.71861 L 175,-15.90909 M 400,-109.09091 L 400,-181.81818 L 358.33333,-162.87879 L 358.33333,-97.72727 L 400,-109.09091 M 323.07692,-88.11189 L 323.07692,-146.85315 L 292.85714,-133.11688 L 292.85714,-79.87013 L 323.07692,-88.11189 M 266.66667,-72.72727 L 266.66667,-121.21212 L 243.75,-110.79545 L 243.75,-66.47727 L 266.66667,-72.72727 M 223.52941,-60.96257 L 223.52941,-101.60428 L 205.55556,-93.43434 L 205.55556,-56.06061 L 223.52941,-60.96257 M 189.47368,-51.67464 L 189.47368,-86.1244 L 175,-79.54545 L 175,-47.72727 L 189.47368,-51.67464 M 161.90476,-44.15584 L 161.90476,-73.59307 L 150,-68.18182 L 150,-40.90909 L 161.90476,-44.15584 M 358.33333,-162.87879 L 358.33333,-228.0303 L 323.07692,-205.59441 L 323.07692,-146.85315 L 358.33333,-162.87879 M 292.85714,-133.11688 L 292.85714,-186.36364 L 266.66667,-169.69697 L 266.66667,-121.21212 L 292.85714,-133.11688 M 243.75,-110.79545 L 243.75,-155.11364 L 223.52941,-142.24599 L 223.52941,-101.60428 L 243.75,-110.79545 M 205.55556,-93.43434 L 205.55556,-130.80808 L 189.47368,-120.57416 L 189.47368,-86.1244 L 205.55556,-93.43434 M 175,-79.54545 L 175,-111.36364 L 161.90476,-103.0303 L 161.90476,-73.59307 L 175,-79.54545 M 400,-254.54545 L 400,-327.27273 L 358.33333,-293.18182 L 358.33333,-228.0303 L 400,-254.54545 M 323.07692,-205.59441 L 323.07692,-264.33566 L 292.85714,-239.61039 L 292.85714,-186.36364 L 323.07692,-205.59441 M 266.66667,-169.69697 L 266.66667,-218.18182 L 243.75,-199.43182 L 243.75,-155.11364 L 266.66667,-169.69697 M 223.52941,-142.24599 L 223.52941,-182.8877 L 205.55556,-168.18182 L 205.55556,-130.80808 L 223.52941,-142.24599 M 189.47368,-120.57416 L 189.47368,-155.02392 L 175,-143.18182 L 175,-111.36364 L 189.47368,-120.57416 M 161.90476,-103.0303 L 161.90476,-132.46753 L 150,-122.72727 L 150,-95.45455 L 161.90476,-103.0303 M 358.33333,-293.18182 L 358.33333,-358.33333 L 323.07692,-323.07692 L 323.07692,-264.33566 L 358.33333,-293.18182 M 292.85714,-239.61039 L 292.85714,-292.85714 L 266.66667,-266.66667 L 266.66667,-218.18182 L 292.85714,-239.61039 M 243.75,-199.43182 L 243.75,-243.75 L 223.52941,-223.52941 L 223.52941,-182.8877 L 243.75,-199.43182 M 205.55556,-168.18182 L 205.55556,-205.55556 L 189.47368,-189.47368 L 189.47368,-155.02392 L 205.55556,-168.18182 M 175,-143.18182 L 175,-175 L 161.90476,-161.90476 L 161.90476,-132.46753 L 175,-143.18182 M 358.33333,-358.33333 L 293.18182,-358.33333 L 264.33566,-323.07692 L 323.07692,-323.07692 L 358.33333,-358.33333 M 292.85714,-292.85714 L 239.61039,-292.85714 L 218.18182,-266.66667 L 266.66667,-266.66667 L 292.85714,-292.85714 M 243.75,-243.75 L 199.43182,-243.75 L 182.8877,-223.52941 L 223.52941,-223.52941 L 243.75,-243.75 M 205.55556,-205.55556 L 168.18182,-205.55556 L 155.02392,-189.47368 L 189.47368,-189.47368 L 205.55556,-205.55556 M 175,-175 L 143.18182,-175 L 132.46753,-161.90476 L 161.90476,-161.90476 L 175,-175 M 327.27273,-400 L 254.54545,-400 L 228.0303,-358.33333 L 293.18182,-358.33333 L 327.27273,-400 M 264.33566,-323.07692 L 205.59441,-323.07692 L 186.36364,-292.85714 L 239.61039,-292.85714 L 264.33566,-323.07692 M 218.18182,-266.66667 L 169.69697,-266.66667 L 155.11364,-243.75 L 199.43182,-243.75 L 218.18182,-266.66667 M 182.8877,-223.52941 L 142.24599,-223.52941 L 130.80808,-205.55556 L 168.18182,-205.55556 L 182.8877,-223.52941 M 155.02392,-189.47368 L 120.57416,-189.47368 L 111.36364,-175 L 143.18182,-175 L 155.02392,-189.47368 M 132.46753,-161.90476 L 103.0303,-161.90476 L 95.45455,-150 L 122.72727,-150 L 132.46753,-161.90476 M 228.0303,-358.33333 L 162.87879,-358.33333 L 146.85315,-323.07692 L 205.59441,-323.07692 L 228.0303,-358.33333 M 186.36364,-292.85714 L 133.11688,-292.85714 L 121.21212,-266.66667 L 169.69697,-266.66667 L 186.36364,-292.85714 M 155.11364,-243.75 L 110.79545,-243.75 L 101.60428,-223.52941 L 142.24599,-223.52941 L 155.11364,-243.75 M 130.80808,-205.55556 L 93.43434,-205.55556 L 86.1244,-189.47368 L 120.57416,-189.47368 L 130.80808,-205.55556 M 111.36364,-175 L 79.54545,-175 L 73.59307,-161.90476 L 103.0303,-161.90476 L 111.36364,-175 M 181.81818,-400 L 109.09091,-400 L 97.72727,-358.33333 L 162.87879,-358.33333 L 181.81818,-400 M 146.85315,-323.07692 L 88.11189,-323.07692 L 79.87013,-292.85714 L 133.11688,-292.85714 L 146.85315,-323.07692 M 121.21212,-266.66667 L 72.72727,-266.66667 L 66.47727,-243.75 L 110.79545,-243.75 L 121.21212,-266.66667 M 101.60428,-223.52941 L 60.96257,-223.52941 L 56.06061,-205.55556 L 93.43434,-205.55556 L 101.60428,-223.52941 M 86.1244,-189.47368 L 51.67464,-189.47368 L 47.72727,-175 L 79.54545,-175 L 86.1244,-189.47368 M 73.59307,-161.90476 L 44.15584,-161.90476 L 40.90909,-150 L 68.18182,-150 L 73.59307,-161.90476 M 97.72727,-358.33333 L 32.57576,-358.33333 L 29.37063,-323.07692 L 88.11189,-323.07692 L 97.72727,-358.33333 M 79.87013,-292.85714 L 26.62338,-292.85714 L 24.24242,-266.66667 L 72.72727,-266.66667 L 79.87013,-292.85714 M 66.47727,-243.75 L 22.15909,-243.75 L 20.32086,-223.52941 L 60.96257,-223.52941 L 66.47727,-243.75 M 56.06061,-205.55556 L 18.68687,-205.55556 L 17.22488,-189.47368 L 51.67464,-189.47368 L 56.06061,-205.55556 M 47.72727,-175 L 15.90909,-175 L 14.71861,-161.90476 L 44.15584,-161.90476 L 47.72727,-175 M 36.36364,-400 L -36.36364,-400 L -32.57576,-358.33333 L 32.57576,-358.33333 L 36.36364,-400 M 29.37063,-323.07692 L -29.37063,-323.07692 L -26.62338,-292.85714 L 26.62338,-292.85714 L 29.37063,-323.07692 M 24.24242,-266.66667 L -24.24242,-266.66667 L -22.15909,-243.75 L 22.15909,-243.75 L 24.24242,-266.66667 M 20.32086,-223.52941 L -20.32086,-223.52941 L -18.68687,-205.55556 L 18.68687,-205.55556 L 20.32086,-223.52941 M 17.22488,-189.47368 L -17.22488,-189.47368 L -15.90909,-175 L 15.90909,-175 L 17.22488,-189.47368 M 14.71861,-161.90476 L -14.71861,-161.90476 L -13.63636,-150 L 13.63636,-150 L 14.71861,-161.90476 M -32.57576,-358.33333 L -97.72727,-358.33333 L -88.11189,-323.07692 L -29.37063,-323.07692 L -32.57576,-358.33333 M -26.62338,-292.85714 L -79.87013,-292.85714 L -72.72727,-266.66667 L -24.24242,-266.66667 L -26.62338,-292.85714 M -22.15909,-243.75 L -66.47727,-243.75 L -60.96257,-223.52941 L -20.32086,-223.52941 L -22.15909,-243.75 M -18.68687,-205.55556 L -56.06061,-205.55556 L -51.67464,-189.47368 L -17.22488,-189.47368 L -18.68687,-205.55556 M -15.90909,-175 L -47.72727,-175 L -44.15584,-161.90476 L -14.71861,-161.90476 L -15.90909,-175 M -109.09091,-400 L -181.81818,-400 L -162.87879,-358.33333 L -97.72727,-358.33333 L -109.09091,-400 M -88.11189,-323.07692 L -146.85315,-323.07692 L -133.11688,-292.85714 L -79.87013,-292.85714 L -88.11189,-323.07692 M -72.72727,-266.66667 L -121.21212,-266.66667 L -110.79545,-243.75 L -66.47727,-243.75 L -72.72727,-266.66667 M -60.96257,-223.52941 L -101.60428,-223.52941 L -93.43434,-205.55556 L -56.06061,-205.55556 L -60.96257,-223.52941 M -51.67464,-189.47368 L -86.1244,-189.47368 L -79.54545,-175 L -47.72727,-175 L -51.67464,-189.47368 M -44.15584,-161.90476 L -73.59307,-161.90476 L -68.18182,-150 L -40.90909,-150 L -44.15584,-161.90476 M -162.87879,-358.33333 L -228.0303,-358.33333 L -205.59441,-323.07692 L -146.85315,-323.07692 L -162.87879,-358.33333 M -133.11688,-292.85714 L -186.36364,-292.85714 L -169.69697,-266.66667 L -121.21212,-266.66667 L -133.11688,-292.85714 M -110.79545,-243.75 L -155.11364,-243.75 L -142.24599,-223.52941 L -101.60428,-223.52941 L -110.79545,-243.75 M -93.43434,-205.55556 L -130.80808,-205.55556 L -120.57416,-189.47368 L -86.1244,-189.47368 L -93.43434,-205.55556 M -79.54545,-175 L -111.36364,-175 L -103.0303,-161.90476 L -73.59307,-161.90476 L -79.54545,-175 M -254.54545,-400 L -327.27273,-400 L -293.18182,-358.33333 L -228.0303,-358.33333 L -254.54545,-400 M -205.59441,-323.07692 L -264.33566,-323.07692 L -239.61039,-292.85714 L -186.36364,-292.85714 L -205.59441,-323.07692 M -169.69697,-266.66667 L -218.18182,-266.66667 L -199.43182,-243.75 L -155.11364,-243.75 L -169.69697,-266.66667 M -142.24599,-223.52941 L -182.8877,-223.52941 L -168.18182,-205.55556 L -130.80808,-205.55556 L -142.24599,-223.52941 M -120.57416,-189.47368 L -155.02392,-189.47368 L -143.18182,-175 L -111.36364,-175 L -120.57416,-189.47368 M -103.0303,-161.90476 L -132.46753,-161.90476 L -122.72727,-150 L -95.45455,-150 L -103.0303,-161.90476 M -293.18182,-358.33333 L -358.33333,-358.33333 L -323.07692,-323.07692 L -264.33566,-323.07692 L -293.18182,-358.33333 M -239.61039,-292.85714 L -292.85714,-292.85714 L -266.66667,-266.66667 L -218.18182,-266.66667 L -239.61039,-292.85714 M -199.43182,-243.75 L -243.75,-243.75 L -223.52941,-223.52941 L -182.8877,-223.52941 L -199.43182,-243.75 M -168.18182,-205.55556 L -205.55556,-205.55556 L -189.47368,-189.47368 L -155.02392,-189.47368 L -168.18182,-205.55556 M -143.18182,-175 L -175,-175 L -161.90476,-161.90476 L -132.46753,-161.90476 L -143.18182,-175 M -358.33333,-358.33333 L -358.33333,-293.18182 L -323.07692,-264.33566 L -323.07692,-323.07692 L -358.33333,-358.33333 M -292.85714,-292.85714 L -292.85714,-239.61039 L -266.66667,-218.18182 L -266.66667,-266.66667 L -292.85714,-292.85714 M -243.75,-243.75 L -243.75,-199.43182 L -223.52941,-182.8877 L -223.52941,-223.52941 L -243.75,-243.75 M -205.55556,-205.55556 L -205.55556,-168.18182 L -189.47368,-155.02392 L -189.47368,-189.47368 L -205.55556,-205.55556 M -175,-175 L -175,-143.18182 L -161.90476,-132.46753 L -161.90476,-161.90476 L -175,-175 M -400,-327.27273 L -400,-254.54545 L -358.33333,-228.0303 L -358.33333,-293.18182 L -400,-327.27273 M -323.07692,-264.33566 L -323.07692,-205.59441 L -292.85714,-186.36364 L -292.85714,-239.61039 L -323.07692,-264.33566 M -266.66667,-218.18182 L -266.66667,-169.69697 L -243.75,-155.11364 L -243.75,-199.43182 L -266.66667,-218.18182 M -223.52941,-182.8877 L -223.52941,-142.24599 L -205.55556,-130.80808 L -205.55556,-168.18182 L -223.52941,-182.8877 M -189.47368,-155.02392 L -189.47368,-120.57416 L -175,-111.36364 L -175,-143.18182 L -189.47368,-155.02392 M -161.90476,-132.46753 L -161.90476,-103.0303 L -150,-95.45455 L -150,-122.72727 L -161.90476,-132.46753 M -358.33333,-228.0303 L -358.33333,-162.87879 L -323.07692,-146.85315 L -323.07692,-205.59441 L -358.33333,-228.0303 M -292.85714,-186.36364 L -292.85714,-133.11688 L -266.66667,-121.21212 L -266.66667,-169.69697 L -292.85714,-186.36364 M -243.75,-155.11364 L -243.75,-110.79545 L -223.52941,-101.60428 L -223.52941,-142.24599 L -243.75,-155.11364 M -205.55556,-130.80808 L -205.55556,-93.43434 L -189.47368,-86.1244 L -189.47368,-120.57416 L -205.55556,-130.80808 M -175,-111.36364 L -175,-79.54545 L -161.90476,-73.59307 L -161.90476,-103.0303 L -175,-111.36364 M -400,-181.81818 L -400,-109.09091 L -358.33333,-97.72727 L -358.33333,-162.87879 L -400,-181.81818 M -323.07692,-146.85315 L -323.07692,-88.11189 L -292.85714,-79.87013 L -292.85714,-133.11688 L -323.07692,-146.85315 M -266.66667,-121.21212 L -266.66667,-72.72727 L -243.75,-66.47727 L -243.75,-110.79545 L -266.66667,-121.21212 M -223.52941,-101.60428 L -223.52941,-60.96257 L -205.55556,-56.06061 L -205.55556,-93.43434 L -223.52941,-101.60428 M -189.47368,-86.1244 L -189.47368,-51.67464 L -175,-47.72727 L -175,-79.54545 L -189.47368,-86.1244 M -161.90476,-73.59307 L -161.90476,-44.15584 L -150,-40.90909 L -150,-68.18182 L -161.90476,-73.59307 M -358.33333,-97.72727 L -358.33333,-32.57576 L -323.07692,-29.37063 L -323.07692,-88.11189 L -358.33333,-97.72727 M -292.85714,-79.87013 L -292.85714,-26.62338 L -266.66667,-24.24242 L -266.66667,-72.72727 L -292.85714,-79.87013 M -243.75,-66.47727 L -243.75,-22.15909 L -223.52941,-20.32086 L -223.52941,-60.96257 L -243.75,-66.47727 M -205.55556,-56.06061 L -205.55556,-18.68687 L -189.47368,-17.22488 L -189.47368,-51.67464 L -205.55556,-56.06061 M -175,-47.72727 L -175,-15.90909 L -161.90476,-14.71861 L -161.90476,-44.15584 L -175,-47.72727 M -400,-36.36364 L -400,36.36364 L -358.33333,32.57576 L -358.33333,-32.57576 L -400,-36.36364 M -323.07692,-29.37063 L -323.07692,29.37063 L -292.85714,26.62338 L -292.85714,-26.62338 L -323.07692,-29.37063 M -266.66667,-24.24242 L -266.66667,24.24242 L -243.75,22.15909 L -243.75,-22.15909 L -266.66667,-24.24242 M -223.52941,-20.32086 L -223.52941,20.32086 L -205.55556,18.68687 L -205.55556,-18.68687 L -223.52941,-20.32086 M -189.47368,-17.22488 L -189.47368,17.22488 L -175,15.90909 L -175,-15.90909 L -189.47368,-17.22488 M -161.90476,-14.71861 L -161.90476,14.71861 L -150,13.63636 L -150,-13.63636 L -161.90476,-14.71861 M -358.33333,32.57576 L -358.33333,97.72727 L -323.07692,88.11189 L -323.07692,29.37063 L -358.33333,32.57576 M -292.85714,26.62338 L -292.85714,79.87013 L -266.66667,72.72727 L -266.66667,24.24242 L -292.85714,26.62338 M -243.75,22.15909 L -243.75,66.47727 L -223.52941,60.96257 L -223.52941,20.32086 L -243.75,22.15909 M -205.55556,18.68687 L -205.55556,56.06061 L -189.47368,51.67464 L -189.47368,17.22488 L -205.55556,18.68687 M -175,15.90909 L -175,47.72727 L -161.90476,44.15584 L -161.90476,14.71861 L -175,15.90909 M -400,109.09091 L -400,181.81818 L -358.33333,162.87879 L -358.33333,97.72727 L -400,109.09091 M -323.07692,88.11189 L -323.07692,146.85315 L -292.85714,133.11688 L -292.85714,79.87013 L -323.07692,88.11189 M -266.66667,72.72727 L -266.66667,121.21212 L -243.75,110.79545 L -243.75,66.47727 L -266.66667,72.72727 M -223.52941,60.96257 L -223.52941,101.60428 L -205.55556,93.43434 L -205.55556,56.06061 L -223.52941,60.96257 M -189.47368,51.67464 L -189.47368,86.1244 L -175,79.54545 L -175,47.72727 L -189.47368,51.67464 M -161.90476,44.15584 L -161.90476,73.59307 L -150,68.18182 L -150,40.90909 L -161.90476,44.15584 M -358.33333,162.87879 L -358.33333,228.0303 L -323.07692,205.59441 L -323.07692,146.85315 L -358.33333,162.87879 M -292.85714,133.11688 L -292.85714,186.36364 L -266.66667,169.69697 L -266.66667,121.21212 L -292.85714,133.11688 M -243.75,110.79545 L -243.75,155.11364 L -223.52941,142.24599 L -223.52941,101.60428 L -243.75,110.79545 M -205.55556,93.43434 L -205.55556,130.80808 L -189.47368,120.57416 L -189.47368,86.1244 L -205.55556,93.43434 M -175,79.54545 L -175,111.36364 L -161.90476,103.0303 L -161.90476,73.59307 L -175,79.54545 M -400,254.54545 L -400,327.27273 L -358.33333,293.18182 L -358.33333,228.0303 L -400,254.54545 M -323.07692,205.59441 L -323.07692,264.33566 L -292.85714,239.61039 L -292.85714,186.36364 L -323.07692,205.59441 M -266.66667,169.69697 L -266.66667,218.18182 L -243.75,199.43182 L -243.75,155.11364 L -266.66667,169.69697 M -223.52941,142.24599 L -223.52941,182.8877 L -205.55556,168.18182 L -205.55556,130.80808 L -223.52941,142.24599 M -189.47368,120.57416 L -189.47368,155.02392 L -175,143.18182 L -175,111.36364 L -189.47368,120.57416 M -161.90476,103.0303 L -161.90476,132.46753 L -150,122.72727 L -150,95.45455 L -161.90476,103.0303 M -358.33333,293.18182 L -358.33333,358.33333 L -323.07692,323.07692 L -323.07692,264.33566 L -358.33333,293.18182 M -292.85714,239.61039 L -292.85714,292.85714 L -266.66667,266.66667 L -266.66667,218.18182 L -292.85714,239.61039 M -243.75,199.43182 L -243.75,243.75 L -223.52941,223.52941 L -223.52941,182.8877 L -243.75,199.43182 M -205.55556,168.18182 L -205.55556,205.55556 L -189.47368,189.47368 L -189.47368,155.02392 L -205.55556,168.18182 M -175,143.18182 L -175,175 L -161.90476,161.90476 L -161.90476,132.46753 L -175,143.18182 M -358.33333,358.33333 L -293.18182,358.33333 L -264.33566,323.07692 L -323.07692,323.07692 L -358.33333,358.33333 M -292.85714,292.85714 L -239.61039,292.85714 L -218.18182,266.66667 L -266.66667,266.66667 L -292.85714,292.85714 M -243.75,243.75 L -199.43182,243.75 L -182.8877,223.52941 L -223.52941,223.52941 L -243.75,243.75 M -205.55556,205.55556 L -168.18182,205.55556 L -155.02392,189.47368 L -189.47368,189.47368 L -205.55556,205.55556 M -175,175 L -143.18182,175 L -132.46753,161.90476 L -161.90476,161.90476 L -175,175 M -327.27273,400 L -254.54545,400 L -228.0303,358.33333 L -293.18182,358.33333 L -327.27273,400 M -264.33566,323.07692 L -205.59441,323.07692 L -186.36364,292.85714 L -239.61039,292.85714 L -264.33566,323.07692 M -218.18182,266.66667 L -169.69697,266.66667 L -155.11364,243.75 L -199.43182,243.75 L -218.18182,266.66667 M -182.8877,223.52941 L -142.24599,223.52941 L -130.80808,205.55556 L -168.18182,205.55556 L -182.8877,223.52941 M -155.02392,189.47368 L -120.57416,189.47368 L -111.36364,175 L -143.18182,175 L -155.02392,189.47368 M -132.46753,161.90476 L -103.0303,161.90476 L -95.45455,150 L -122.72727,150 L -132.46753,161.90476 M -228.0303,358.33333 L -162.87879,358.33333 L -146.85315,323.07692 L -205.59441,323.07692 L -228.0303,358.33333 M -186.36364,292.85714 L -133.11688,292.85714 L -121.21212,266.66667 L -169.69697,266.66667 L -186.36364,292.85714 M -155.11364,243.75 L -110.79545,243.75 L -101.60428,223.52941 L -142.24599,223.52941 L -155.11364,243.75 M -130.80808,205.55556 L -93.43434,205.55556 L -86.1244,189.47368 L -120.57416,189.47368 L -130.80808,205.55556 M -111.36364,175 L -79.54545,175 L -73.59307,161.90476 L -103.0303,161.90476 L -111.36364,175 M -181.81818,400 L -109.09091,400 L -97.72727,358.33333 L -162.87879,358.33333 L -181.81818,400 M -146.85315,323.07692 L -88.11189,323.07692 L -79.87013,292.85714 L -133.11688,292.85714 L -146.85315,323.07692 M -121.21212,266.66667 L -72.72727,266.66667 L -66.47727,243.75 L -110.79545,243.75 L -121.21212,266.66667 M -101.60428,223.52941 L -60.96257,223.52941 L -56.06061,205.55556 L -93.43434,205.55556 L -101.60428,223.52941 M -86.1244,189.47368 L -51.67464,189.47368 L -47.72727,175 L -79.54545,175 L -86.1244,189.47368 M -73.59307,161.90476 L -44.15584,161.90476 L -40.90909,150 L -68.18182,150 L -73.59307,161.90476 M -97.72727,358.33333 L -32.57576,358.33333 L -29.37063,323.07692 L -88.11189,323.07692 L -97.72727,358.33333 M -79.87013,292.85714 L -26.62338,292.85714 L -24.24242,266.66667 L -72.72727,266.66667 L -79.87013,292.85714 M -66.47727,243.75 L -22.15909,243.75 L -20.32086,223.52941 L -60.96257,223.52941 L -66.47727,243.75 M -56.06061,205.55556 L -18.68687,205.55556 L -17.22488,189.47368 L -51.67464,189.47368 L -56.06061,205.55556 M -47.72727,175 L -15.90909,175 L -14.71861,161.90476 L -44.15584,161.90476 L -47.72727,175 M -36.36364,400 L 36.36364,400 L 32.57576,358.33333 L -32.57576,358.33333 L -36.36364,400 M -29.37063,323.07692 L 29.37063,323.07692 L 26.62338,292.85714 L -26.62338,292.85714 L -29.37063,323.07692 M -24.24242,266.66667 L 24.24242,266.66667 L 22.15909,243.75 L -22.15909,243.75 L -24.24242,266.66667 M -20.32086,223.52941 L 20.32086,223.52941 L 18.68687,205.55556 L -18.68687,205.55556 L -20.32086,223.52941 M -17.22488,189.47368 L 17.22488,189.47368 L 15.90909,175 L -15.90909,175 L -17.22488,189.47368 M -14.71861,161.90476 L 14.71861,161.90476 L 13.63636,150 L -13.63636,150 L -14.71861,161.90476 M 32.57576,358.33333 L 97.72727,358.33333 L 88.11189,323.07692 L 29.37063,323.07692 L 32.57576,358.33333 M 26.62338,292.85714 L 79.87013,292.85714 L 72.72727,266.66667 L 24.24242,266.66667 L 26.62338,292.85714 M 22.15909,243.75 L 66.47727,243.75 L 60.96257,223.52941 L 20.32086,223.52941 L 22.15909,243.75 M 18.68687,205.55556 L 56.06061,205.55556 L 51.67464,189.47368 L 17.22488,189.47368 L 18.68687,205.55556 M 15.90909,175 L 47.72727,175 L 44.15584,161.90476 L 14.71861,161.90476 L 15.90909,175 M 109.09091,400 L 181.81818,400 L 162.87879,358.33333 L 97.72727,358.33333 L 109.09091,400 M 88.11189,323.07692 L 146.85315,323.07692 L 133.11688,292.85714 L 79.87013,292.85714 L 88.11189,323.07692 M 72.72727,266.66667 L 121.21212,266.66667 L 110.79545,243.75 L 66.47727,243.75 L 72.72727,266.66667 M 60.96257,223.52941 L 101.60428,223.52941 L 93.43434,205.55556 L 56.06061,205.55556 L 60.96257,223.52941 M 51.67464,189.47368 L 86.1244,189.47368 L 79.54545,175 L 47.72727,175 L 51.67464,189.47368 M 44.15584,161.90476 L 73.59307,161.90476 L 68.18182,150 L 40.90909,150 L 44.15584,161.90476 M 162.87879,358.33333 L 228.0303,358.33333 L 205.59441,323.07692 L 146.85315,323.07692 L 162.87879,358.33333 M 133.11688,292.85714 L 186.36364,292.85714 L 169.69697,266.66667 L 121.21212,266.66667 L 133.11688,292.85714 M 110.79545,243.75 L 155.11364,243.75 L 142.24599,223.52941 L 101.60428,223.52941 L 110.79545,243.75 M 93.43434,205.55556 L 130.80808,205.55556 L 120.57416,189.47368 L 86.1244,189.47368 L 93.43434,205.55556 M 79.54545,175 L 111.36364,175 L 103.0303,161.90476 L 73.59307,161.90476 L 79.54545,175 M 254.54545,400 L 327.27273,400 L 293.18182,358.33333 L 228.0303,358.33333 L 254.54545,400 M 205.59441,323.07692 L 264.33566,323.07692 L 239.61039,292.85714 L 186.36364,292.85714 L 205.59441,323.07692 M 169.69697,266.66667 L 218.18182,266.66667 L 199.43182,243.75 L 155.11364,243.75 L 169.69697,266.66667 M 142.24599,223.52941 L 182.8877,223.52941 L 168.18182,205.55556 L 130.80808,205.55556 L 142.24599,223.52941 M 120.57416,189.47368 L 155.02392,189.47368 L 143.18182,175 L 111.36364,175 L 120.57416,189.47368 M 103.0303,161.90476 L 132.46753,161.90476 L 122.72727,150 L 95.45455,150 L 103.0303,161.90476 M 293.18182,358.33333 L 358.33333,358.33333 L 323.07692,323.07692 L 264.33566,323.07692 L 293.18182,358.33333 M 239.61039,292.85714 L 292.85714,292.85714 L 266.66667,266.66667 L 218.18182,266.66667 L 239.61039,292.85714 M 199.43182,243.75 L 243.75,243.75 L 223.52941,223.52941 L 182.8877,223.52941 L 199.43182,243.75 M 168.18182,205.55556 L 205.55556,205.55556 L 189.47368,189.47368 L 155.02392,189.47368 L 168.18182,205.55556 M 143.18182,175 L 175,175 L 161.90476,161.90476 L 132.46753,161.90476 L 143.18182,175"
         id="path42392" />
      <path
         style="fill:#faff00;stroke:#000000;stroke-width:3"
         d="M -150,-122.72727 L -122.72727,-122.72727 L -122.72727,-95.45455 L -150,-95.45455 L -150,-122.72727 M -150,-68.18182 L -122.72727,-68.18182 L -122.72727,-40.90909 L -150,-40.90909 L -150,-68.18182 M -150,-13.63636 L -122.72727,-13.63636 L -122.72727,13.63636 L -150,13.63636 L -150,-13.63636 M -150,40.90909 L -122.72727,40.90909 L -122.72727,68.18182 L -150,68.18182 L -150,40.90909 M -150,95.45455 L -122.72727,95.45455 L -122.72727,122.72727 L -150,122.72727 L -150,95.45455 M -122.72727,-150 L -95.45455,-150 L -95.45455,-122.72727 L -122.72727,-122.72727 L -122.72727,-150 M -122.72727,-95.45455 L -95.45455,-95.45455 L -95.45455,-68.18182 L -122.72727,-68.18182 L -122.72727,-95.45455 M -122.72727,-40.90909 L -95.45455,-40.90909 L -95.45455,-13.63636 L -122.72727,-13.63636 L -122.72727,-40.90909 M -122.72727,13.63636 L -95.45455,13.63636 L -95.45455,40.90909 L -122.72727,40.90909 L -122.72727,13.63636 M -122.72727,68.18182 L -95.45455,68.18182 L -95.45455,95.45455 L -122.72727,95.45455 L -122.72727,68.18182 M -122.72727,122.72727 L -95.45455,122.72727 L -95.45455,150 L -122.72727,150 L -122.72727,122.72727 M -95.45455,-122.72727 L -68.18182,-122.72727 L -68.18182,-95.45455 L -95.45455,-95.45455 L -95.45455,-122.72727 M -95.45455,-68.18182 L -68.18182,-68.18182 L -68.18182,-40.90909 L -95.45455,-40.90909 L -95.45455,-68.18182 M -95.45455,-13.63636 L -68.18182,-13.63636 L -68.18182,13.63636 L -95.45455,13.63636 L -95.45455,-13.63636 M -95.45455,40.90909 L -68.18182,40.90909 L -68.18182,68.18182 L -95.45455,68.18182 L -95.45455,40.90909 M -95.45455,95.45455 L -68.18182,95.45455 L -68.18182,122.72727 L -95.45455,122.72727 L -95.45455,95.45455 M -68.18182,-150 L -40.90909,-150 L -40.90909,-122.72727 L -68.18182,-122.72727 L -68.18182,-150 M -68.18182,-95.45455 L -40.90909,-95.45455 L -40.90909,-68.18182 L -68.18182,-68.18182 L -68.18182,-95.45455 M -68.18182,-40.90909 L -40.90909,-40.90909 L -40.90909,-13.63636 L -68.18182,-13.63636 L -68.18182,-40.90909 M -68.18182,13.63636 L -40.90909,13.63636 L -40.90909,40.90909 L -68.18182,40.90909 L -68.18182,13.63636 M -68.18182,68.18182 L -40.90909,68.18182 L -40.90909,95.45455 L -68.18182,95.45455 L -68.18182,68.18182 M -68.18182,122.72727 L -40.90909,122.72727 L -40.90909,150 L -68.18182,150 L -68.18182,122.72727 M -40.90909,-122.72727 L -13.63636,-122.72727 L -13.63636,-95.45455 L -40.90909,-95.45455 L -40.90909,-122.72727 M -40.90909,-68.18182 L -13.63636,-68.18182 L -13.63636,-40.90909 L -40.90909,-40.90909 L -40.90909,-68.18182 M -40.90909,-13.63636 L -13.63636,-13.63636 L -13.63636,13.63636 L -40.90909,13.63636 L -40.90909,-13.63636 M -40.90909,40.90909 L -13.63636,40.90909 L -13.63636,68.18182 L -40.90909,68.18182 L -40.90909,40.90909 M -40.90909,95.45455 L -13.63636,95.45455 L -13.63636,122.72727 L -40.90909,122.72727 L -40.90909,95.45455 M -13.63636,-150 L 13.63636,-150 L 13.63636,-122.72727 L -13.63636,-122.72727 L -13.63636,-150 M -13.63636,-95.45455 L 13.63636,-95.45455 L 13.63636,-68.18182 L -13.63636,-68.18182 L -13.63636,-95.45455 M -13.63636,-40.90909 L 13.63636,-40.90909 L 13.63636,-13.63636 L -13.63636,-13.63636 L -13.63636,-40.90909 M -13.63636,13.63636 L 13.63636,13.63636 L 13.63636,40.90909 L -13.63636,40.90909 L -13.63636,13.63636 M -13.63636,68.18182 L 13.63636,68.18182 L 13.63636,95.45455 L -13.63636,95.45455 L -13.63636,68.18182 M -13.63636,122.72727 L 13.63636,122.72727 L 13.63636,150 L -13.63636,150 L -13.63636,122.72727 M 13.63636,-122.72727 L 40.90909,-122.72727 L 40.90909,-95.45455 L 13.63636,-95.45455 L 13.63636,-122.72727 M 13.63636,-68.18182 L 40.90909,-68.18182 L 40.90909,-40.90909 L 13.63636,-40.90909 L 13.63636,-68.18182 M 13.63636,-13.63636 L 40.90909,-13.63636 L 40.90909,13.63636 L 13.63636,13.63636 L 13.63636,-13.63636 M 13.63636,40.90909 L 40.90909,40.90909 L 40.90909,68.18182 L 13.63636,68.18182 L 13.63636,40.90909 M 13.63636,95.45455 L 40.90909,95.45455 L 40.90909,122.72727 L 13.63636,122.72727 L 13.63636,95.45455 M 40.90909,-150 L 68.18182,-150 L 68.18182,-122.72727 L 40.90909,-122.72727 L 40.90909,-150 M 40.90909,-95.45455 L 68.18182,-95.45455 L 68.18182,-68.18182 L 40.90909,-68.18182 L 40.90909,-95.45455 M 40.90909,-40.90909 L 68.18182,-40.90909 L 68.18182,-13.63636 L 40.90909,-13.63636 L 40.90909,-40.90909 M 40.90909,13.63636 L 68.18182,13.63636 L 68.18182,40.90909 L 40.90909,40.90909 L 40.90909,13.63636 M 40.90909,68.18182 L 68.18182,68.18182 L 68.18182,95.45455 L 40.90909,95.45455 L 40.90909,68.18182 M 40.90909,122.72727 L 68.18182,122.72727 L 68.18182,150 L 40.90909,150 L 40.90909,122.72727 M 68.18182,-122.72727 L 95.45455,-122.72727 L 95.45455,-95.45455 L 68.18182,-95.45455 L 68.18182,-122.72727 M 68.18182,-68.18182 L 95.45455,-68.18182 L 95.45455,-40.90909 L 68.18182,-40.90909 L 68.18182,-68.18182 M 68.18182,-13.63636 L 95.45455,-13.63636 L 95.45455,13.63636 L 68.18182,13.63636 L 68.18182,-13.63636 M 68.18182,40.90909 L 95.45455,40.90909 L 95.45455,68.18182 L 68.18182,68.18182 L 68.18182,40.90909 M 68.18182,95.45455 L 95.45455,95.45455 L 95.45455,122.72727 L 68.18182,122.72727 L 68.18182,95.45455 M 95.45455,-150 L 122.72727,-150 L 122.72727,-122.72727 L 95.45455,-122.72727 L 95.45455,-150 M 95.45455,-95.45455 L 122.72727,-95.45455 L 122.72727,-68.18182 L 95.45455,-68.18182 L 95.45455,-95.45455 M 95.45455,-40.90909 L 122.72727,-40.90909 L 122.72727,-13.63636 L 95.45455,-13.63636 L 95.45455,-40.90909 M 95.45455,13.63636 L 122.72727,13.63636 L 122.72727,40.90909 L 95.45455,40.90909 L 95.45455,13.63636 M 95.45455,68.18182 L 122.72727,68.18182 L 122.72727,95.45455 L 95.45455,95.45455 L 95.45455,68.18182 M 95.45455,122.72727 L 122.72727,122.72727 L 122.72727,150 L 95.45455,150 L 95.45455,122.72727 M 122.72727,-122.72727 L 150,-122.72727 L 150,-95.45455 L 122.72727,-95.45455 L 122.72727,-122.72727 M 122.72727,-68.18182 L 150,-68.18182 L 150,-40.90909 L 122.72727,-40.90909 L 122.72727,-68.18182 M 122.72727,-13.63636 L 150,-13.63636 L 150,13.63636 L 122.72727,13.63636 L 122.72727,-13.63636 M 122.72727,40.90909 L 150,40.90909 L 150,68.18182 L 122.72727,68.18182 L 122.72727,40.90909 M 122.72727,95.45455 L 150,95.45455 L 150,122.72727 L 122.72727,122.72727 L 122.72727,95.45455 M 400,400 L 400,327.27273 L 358.33333,293.18182 L 358.33333,358.33333 L 400,400 M 323.07692,323.07692 L 323.07692,264.33566 L 292.85714,239.61039 L 292.85714,292.85714 L 323.07692,323.07692 M 266.66667,266.66667 L 266.66667,218.18182 L 243.75,199.43182 L 243.75,243.75 L 266.66667,266.66667 M 223.52941,223.52941 L 223.52941,182.8877 L 205.55556,168.18182 L 205.55556,205.55556 L 223.52941,223.52941 M 189.47368,189.47368 L 189.47368,155.02392 L 175,143.18182 L 175,175 L 189.47368,189.47368 M 161.90476,161.90476 L 161.90476,132.46753 L 150,122.72727 L 150,150 L 161.90476,161.90476 M 358.33333,293.18182 L 358.33333,228.0303 L 323.07692,205.59441 L 323.07692,264.33566 L 358.33333,293.18182 M 292.85714,239.61039 L 292.85714,186.36364 L 266.66667,169.69697 L 266.66667,218.18182 L 292.85714,239.61039 M 243.75,199.43182 L 243.75,155.11364 L 223.52941,142.24599 L 223.52941,182.8877 L 243.75,199.43182 M 205.55556,168.18182 L 205.55556,130.80808 L 189.47368,120.57416 L 189.47368,155.02392 L 205.55556,168.18182 M 175,143.18182 L 175,111.36364 L 161.90476,103.0303 L 161.90476,132.46753 L 175,143.18182 M 400,254.54545 L 400,181.81818 L 358.33333,162.87879 L 358.33333,228.0303 L 400,254.54545 M 323.07692,205.59441 L 323.07692,146.85315 L 292.85714,133.11688 L 292.85714,186.36364 L 323.07692,205.59441 M 266.66667,169.69697 L 266.66667,121.21212 L 243.75,110.79545 L 243.75,155.11364 L 266.66667,169.69697 M 223.52941,142.24599 L 223.52941,101.60428 L 205.55556,93.43434 L 205.55556,130.80808 L 223.52941,142.24599 M 189.47368,120.57416 L 189.47368,86.1244 L 175,79.54545 L 175,111.36364 L 189.47368,120.57416 M 161.90476,103.0303 L 161.90476,73.59307 L 150,68.18182 L 150,95.45455 L 161.90476,103.0303 M 358.33333,162.87879 L 358.33333,97.72727 L 323.07692,88.11189 L 323.07692,146.85315 L 358.33333,162.87879 M 292.85714,133.11688 L 292.85714,79.87013 L 266.66667,72.72727 L 266.66667,121.21212 L 292.85714,133.11688 M 243.75,110.79545 L 243.75,66.47727 L 223.52941,60.96257 L 223.52941,101.60428 L 243.75,110.79545 M 205.55556,93.43434 L 205.55556,56.06061 L 189.47368,51.67464 L 189.47368,86.1244 L 205.55556,93.43434 M 175,79.54545 L 175,47.72727 L 161.90476,44.15584 L 161.90476,73.59307 L 175,79.54545 M 400,109.09091 L 400,36.36364 L 358.33333,32.57576 L 358.33333,97.72727 L 400,109.09091 M 323.07692,88.11189 L 323.07692,29.37063 L 292.85714,26.62338 L 292.85714,79.87013 L 323.07692,88.11189 M 266.66667,72.72727 L 266.66667,24.24242 L 243.75,22.15909 L 243.75,66.47727 L 266.66667,72.72727 M 223.52941,60.96257 L 223.52941,20.32086 L 205.55556,18.68687 L 205.55556,56.06061 L 223.52941,60.96257 M 189.47368,51.67464 L 189.47368,17.22488 L 175,15.90909 L 175,47.72727 L 189.47368,51.67464 M 161.90476,44.15584 L 161.90476,14.71861 L 150,13.63636 L 150,40.90909 L 161.90476,44.15584 M 358.33333,32.57576 L 358.33333,-32.57576 L 323.07692,-29.37063 L 323.07692,29.37063 L 358.33333,32.57576 M 292.85714,26.62338 L 292.85714,-26.62338 L 266.66667,-24.24242 L 266.66667,24.24242 L 292.85714,26.62338 M 243.75,22.15909 L 243.75,-22.15909 L 223.52941,-20.32086 L 223.52941,20.32086 L 243.75,22.15909 M 205.55556,18.68687 L 205.55556,-18.68687 L 189.47368,-17.22488 L 189.47368,17.22488 L 205.55556,18.68687 M 175,15.90909 L 175,-15.90909 L 161.90476,-14.71861 L 161.90476,14.71861 L 175,15.90909 M 400,-36.36364 L 400,-109.09091 L 358.33333,-97.72727 L 358.33333,-32.57576 L 400,-36.36364 M 323.07692,-29.37063 L 323.07692,-88.11189 L 292.85714,-79.87013 L 292.85714,-26.62338 L 323.07692,-29.37063 M 266.66667,-24.24242 L 266.66667,-72.72727 L 243.75,-66.47727 L 243.75,-22.15909 L 266.66667,-24.24242 M 223.52941,-20.32086 L 223.52941,-60.96257 L 205.55556,-56.06061 L 205.55556,-18.68687 L 223.52941,-20.32086 M 189.47368,-17.22488 L 189.47368,-51.67464 L 175,-47.72727 L 175,-15.90909 L 189.47368,-17.22488 M 161.90476,-14.71861 L 161.90476,-44.15584 L 150,-40.90909 L 150,-13.63636 L 161.90476,-14.71861 M 358.33333,-97.72727 L 358.33333,-162.87879 L 323.07692,-146.85315 L 323.07692,-88.11189 L 358.33333,-97.72727 M 292.85714,-79.87013 L 292.85714,-133.11688 L 266.66667,-121.21212 L 266.66667,-72.72727 L 292.85714,-79.87013 M 243.75,-66.47727 L 243.75,-110.79545 L 223.52941,-101.60428 L 223.52941,-60.96257 L 243.75,-66.47727 M 205.55556,-56.06061 L 205.55556,-93.43434 L 189.47368,-86.1244 L 189.47368,-51.67464 L 205.55556,-56.06061 M 175,-47.72727 L 175,-79.54545 L 161.90476,-73.59307 L 161.90476,-44.15584 L 175,-47.72727 M 400,-181.81818 L 400,-254.54545 L 358.33333,-228.0303 L 358.33333,-162.87879 L 400,-181.81818 M 323.07692,-146.85315 L 323.07692,-205.59441 L 292.85714,-186.36364 L 292.85714,-133.11688 L 323.07692,-146.85315 M 266.66667,-121.21212 L 266.66667,-169.69697 L 243.75,-155.11364 L 243.75,-110.79545 L 266.66667,-121.21212 M 223.52941,-101.60428 L 223.52941,-142.24599 L 205.55556,-130.80808 L 205.55556,-93.43434 L 223.52941,-101.60428 M 189.47368,-86.1244 L 189.47368,-120.57416 L 175,-111.36364 L 175,-79.54545 L 189.47368,-86.1244 M 161.90476,-73.59307 L 161.90476,-103.0303 L 150,-95.45455 L 150,-68.18182 L 161.90476,-73.59307 M 358.33333,-228.0303 L 358.33333,-293.18182 L 323.07692,-264.33566 L 323.07692,-205.59441 L 358.33333,-228.0303 M 292.85714,-186.36364 L 292.85714,-239.61039 L 266.66667,-218.18182 L 266.66667,-169.69697 L 292.85714,-186.36364 M 243.75,-155.11364 L 243.75,-199.43182 L 223.52941,-182.8877 L 223.52941,-142.24599 L 243.75,-155.11364 M 205.55556,-130.80808 L 205.55556,-168.18182 L 189.47368,-155.02392 L 189.47368,-120.57416 L 205.55556,-130.80808 M 175,-111.36364 L 175,-143.18182 L 161.90476,-132.46753 L 161.90476,-103.0303 L 175,-111.36364 M 400,-327.27273 L 400,-400 L 358.33333,-358.33333 L 358.33333,-293.18182 L 400,-327.27273 M 323.07692,-264.33566 L 323.07692,-323.07692 L 292.85714,-292.85714 L 292.85714,-239.61039 L 323.07692,-264.33566 M 266.66667,-218.18182 L 266.66667,-266.66667 L 243.75,-243.75 L 243.75,-199.43182 L 266.66667,-218.18182 M 223.52941,-182.8877 L 223.52941,-223.52941 L 205.55556,-205.55556 L 205.55556,-168.18182 L 223.52941,-182.8877 M 189.47368,-155.02392 L 189.47368,-189.47368 L 175,-175 L 175,-143.18182 L 189.47368,-155.02392 M 161.90476,-132.46753 L 161.90476,-161.90476 L 150,-150 L 150,-122.72727 L 161.90476,-132.46753 M 400,-400 L 327.27273,-400 L 293.18182,-358.33333 L 358.33333,-358.33333 L 400,-400 M 323.07692,-323.07692 L 264.33566,-323.07692 L 239.61039,-292.85714 L 292.85714,-292.85714 L 323.07692,-323.07692 M 266.66667,-266.66667 L 218.18182,-266.66667 L 199.43182,-243.75 L 243.75,-243.75 L 266.66667,-266.66667 M 223.52941,-223.52941 L 182.8877,-223.52941 L 168.18182,-205.55556 L 205.55556,-205.55556 L 223.52941,-223.52941 M 189.47368,-189.47368 L 155.02392,-189.47368 L 143.18182,-175 L 175,-175 L 189.47368,-189.47368 M 161.90476,-161.90476 L 132.46753,-161.90476 L 122.72727,-150 L 150,-150 L 161.90476,-161.90476 M 293.18182,-358.33333 L 228.0303,-358.33333 L 205.59441,-323.07692 L 264.33566,-323.07692 L 293.18182,-358.33333 M 239.61039,-292.85714 L 186.36364,-292.85714 L 169.69697,-266.66667 L 218.18182,-266.66667 L 239.61039,-292.85714 M 199.43182,-243.75 L 155.11364,-243.75 L 142.24599,-223.52941 L 182.8877,-223.52941 L 199.43182,-243.75 M 168.18182,-205.55556 L 130.80808,-205.55556 L 120.57416,-189.47368 L 155.02392,-189.47368 L 168.18182,-205.55556 M 143.18182,-175 L 111.36364,-175 L 103.0303,-161.90476 L 132.46753,-161.90476 L 143.18182,-175 M 254.54545,-400 L 181.81818,-400 L 162.87879,-358.33333 L 228.0303,-358.33333 L 254.54545,-400 M 205.59441,-323.07692 L 146.85315,-323.07692 L 133.11688,-292.85714 L 186.36364,-292.85714 L 205.59441,-323.07692 M 169.69697,-266.66667 L 121.21212,-266.66667 L 110.79545,-243.75 L 155.11364,-243.75 L 169.69697,-266.66667 M 142.24599,-223.52941 L 101.60428,-223.52941 L 93.43434,-205.55556 L 130.80808,-205.55556 L 142.24599,-223.52941 M 120.57416,-189.47368 L 86.1244,-189.47368 L 79.54545,-175 L 111.36364,-175 L 120.57416,-189.47368 M 103.0303,-161.90476 L 73.59307,-161.90476 L 68.18182,-150 L 95.45455,-150 L 103.0303,-161.90476 M 162.87879,-358.33333 L 97.72727,-358.33333 L 88.11189,-323.07692 L 146.85315,-323.07692 L 162.87879,-358.33333 M 133.11688,-292.85714 L 79.87013,-292.85714 L 72.72727,-266.66667 L 121.21212,-266.66667 L 133.11688,-292.85714 M 110.79545,-243.75 L 66.47727,-243.75 L 60.96257,-223.52941 L 101.60428,-223.52941 L 110.79545,-243.75 M 93.43434,-205.55556 L 56.06061,-205.55556 L 51.67464,-189.47368 L 86.1244,-189.47368 L 93.43434,-205.55556 M 79.54545,-175 L 47.72727,-175 L 44.15584,-161.90476 L 73.59307,-161.90476 L 79.54545,-175 M 109.09091,-400 L 36.36364,-400 L 32.57576,-358.33333 L 97.72727,-358.33333 L 109.09091,-400 M 88.11189,-323.07692 L 29.37063,-323.07692 L 26.62338,-292.85714 L 79.87013,-292.85714 L 88.11189,-323.07692 M 72.72727,-266.66667 L 24.24242,-266.66667 L 22.15909,-243.75 L 66.47727,-243.75 L 72.72727,-266.66667 M 60.96257,-223.52941 L 20.32086,-223.52941 L 18.68687,-205.55556 L 56.06061,-205.55556 L 60.96257,-223.52941 M 51.67464,-189.47368 L 17.22488,-189.47368 L 15.90909,-175 L 47.72727,-175 L 51.67464,-189.47368 M 44.15584,-161.90476 L 14.71861,-161.90476 L 13.63636,-150 L 40.90909,-150 L 44.15584,-161.90476 M 32.57576,-358.33333 L -32.57576,-358.33333 L -29.37063,-323.07692 L 29.37063,-323.07692 L 32.57576,-358.33333 M 26.62338,-292.85714 L -26.62338,-292.85714 L -24.24242,-266.66667 L 24.24242,-266.66667 L 26.62338,-292.85714 M 22.15909,-243.75 L -22.15909,-243.75 L -20.32086,-223.52941 L 20.32086,-223.52941 L 22.15909,-243.75 M 18.68687,-205.55556 L -18.68687,-205.55556 L -17.22488,-189.47368 L 17.22488,-189.47368 L 18.68687,-205.55556 M 15.90909,-175 L -15.90909,-175 L -14.71861,-161.90476 L 14.71861,-161.90476 L 15.90909,-175 M -36.36364,-400 L -109.09091,-400 L -97.72727,-358.33333 L -32.57576,-358.33333 L -36.36364,-400 M -29.37063,-323.07692 L -88.11189,-323.07692 L -79.87013,-292.85714 L -26.62338,-292.85714 L -29.37063,-323.07692 M -24.24242,-266.66667 L -72.72727,-266.66667 L -66.47727,-243.75 L -22.15909,-243.75 L -24.24242,-266.66667 M -20.32086,-223.52941 L -60.96257,-223.52941 L -56.06061,-205.55556 L -18.68687,-205.55556 L -20.32086,-223.52941 M -17.22488,-189.47368 L -51.67464,-189.47368 L -47.72727,-175 L -15.90909,-175 L -17.22488,-189.47368 M -14.71861,-161.90476 L -44.15584,-161.90476 L -40.90909,-150 L -13.63636,-150 L -14.71861,-161.90476 M -97.72727,-358.33333 L -162.87879,-358.33333 L -146.85315,-323.07692 L -88.11189,-323.07692 L -97.72727,-358.33333 M -79.87013,-292.85714 L -133.11688,-292.85714 L -121.21212,-266.66667 L -72.72727,-266.66667 L -79.87013,-292.85714 M -66.47727,-243.75 L -110.79545,-243.75 L -101.60428,-223.52941 L -60.96257,-223.52941 L -66.47727,-243.75 M -56.06061,-205.55556 L -93.43434,-205.55556 L -86.1244,-189.47368 L -51.67464,-189.47368 L -56.06061,-205.55556 M -47.72727,-175 L -79.54545,-175 L -73.59307,-161.90476 L -44.15584,-161.90476 L -47.72727,-175 M -181.81818,-400 L -254.54545,-400 L -228.0303,-358.33333 L -162.87879,-358.33333 L -181.81818,-400 M -146.85315,-323.07692 L -205.59441,-323.07692 L -186.36364,-292.85714 L -133.11688,-292.85714 L -146.85315,-323.07692 M -121.21212,-266.66667 L -169.69697,-266.66667 L -155.11364,-243.75 L -110.79545,-243.75 L -121.21212,-266.66667 M -101.60428,-223.52941 L -142.24599,-223.52941 L -130.80808,-205.55556 L -93.43434,-205.55556 L -101.60428,-223.52941 M -86.1244,-189.47368 L -120.57416,-189.47368 L -111.36364,-175 L -79.54545,-175 L -86.1244,-189.47368 M -73.59307,-161.90476 L -103.0303,-161.90476 L -95.45455,-150 L -68.18182,-150 L -73.59307,-161.90476 M -228.0303,-358.33333 L -293.18182,-358.33333 L -264.33566,-323.07692 L -205.59441,-323.07692 L -228.0303,-358.33333 M -186.36364,-292.85714 L -239.61039,-292.85714 L -218.18182,-266.66667 L -169.69697,-266.66667 L -186.36364,-292.85714 M -155.11364,-243.75 L -199.43182,-243.75 L -182.8877,-223.52941 L -142.24599,-223.52941 L -155.11364,-243.75 M -130.80808,-205.55556 L -168.18182,-205.55556 L -155.02392,-189.47368 L -120.57416,-189.47368 L -130.80808,-205.55556 M -111.36364,-175 L -143.18182,-175 L -132.46753,-161.90476 L -103.0303,-161.90476 L -111.36364,-175 M -327.27273,-400 L -400,-400 L -358.33333,-358.33333 L -293.18182,-358.33333 L -327.27273,-400 M -264.33566,-323.07692 L -323.07692,-323.07692 L -292.85714,-292.85714 L -239.61039,-292.85714 L -264.33566,-323.07692 M -218.18182,-266.66667 L -266.66667,-266.66667 L -243.75,-243.75 L -199.43182,-243.75 L -218.18182,-266.66667 M -182.8877,-223.52941 L -223.52941,-223.52941 L -205.55556,-205.55556 L -168.18182,-205.55556 L -182.8877,-223.52941 M -155.02392,-189.47368 L -189.47368,-189.47368 L -175,-175 L -143.18182,-175 L -155.02392,-189.47368 M -132.46753,-161.90476 L -161.90476,-161.90476 L -150,-150 L -122.72727,-150 L -132.46753,-161.90476 M -400,-400 L -400,-327.27273 L -358.33333,-293.18182 L -358.33333,-358.33333 L -400,-400 M -323.07692,-323.07692 L -323.07692,-264.33566 L -292.85714,-239.61039 L -292.85714,-292.85714 L -323.07692,-323.07692 M -266.66667,-266.66667 L -266.66667,-218.18182 L -243.75,-199.43182 L -243.75,-243.75 L -266.66667,-266.66667 M -223.52941,-223.52941 L -223.52941,-182.8877 L -205.55556,-168.18182 L -205.55556,-205.55556 L -223.52941,-223.52941 M -189.47368,-189.47368 L -189.47368,-155.02392 L -175,-143.18182 L -175,-175 L -189.47368,-189.47368 M -161.90476,-161.90476 L -161.90476,-132.46753 L -150,-122.72727 L -150,-150 L -161.90476,-161.90476 M -358.33333,-293.18182 L -358.33333,-228.0303 L -323.07692,-205.59441 L -323.07692,-264.33566 L -358.33333,-293.18182 M -292.85714,-239.61039 L -292.85714,-186.36364 L -266.66667,-169.69697 L -266.66667,-218.18182 L -292.85714,-239.61039 M -243.75,-199.43182 L -243.75,-155.11364 L -223.52941,-142.24599 L -223.52941,-182.8877 L -243.75,-199.43182 M -205.55556,-168.18182 L -205.55556,-130.80808 L -189.47368,-120.57416 L -189.47368,-155.02392 L -205.55556,-168.18182 M -175,-143.18182 L -175,-111.36364 L -161.90476,-103.0303 L -161.90476,-132.46753 L -175,-143.18182 M -400,-254.54545 L -400,-181.81818 L -358.33333,-162.87879 L -358.33333,-228.0303 L -400,-254.54545 M -323.07692,-205.59441 L -323.07692,-146.85315 L -292.85714,-133.11688 L -292.85714,-186.36364 L -323.07692,-205.59441 M -266.66667,-169.69697 L -266.66667,-121.21212 L -243.75,-110.79545 L -243.75,-155.11364 L -266.66667,-169.69697 M -223.52941,-142.24599 L -223.52941,-101.60428 L -205.55556,-93.43434 L -205.55556,-130.80808 L -223.52941,-142.24599 M -189.47368,-120.57416 L -189.47368,-86.1244 L -175,-79.54545 L -175,-111.36364 L -189.47368,-120.57416 M -161.90476,-103.0303 L -161.90476,-73.59307 L -150,-68.18182 L -150,-95.45455 L -161.90476,-103.0303 M -358.33333,-162.87879 L -358.33333,-97.72727 L -323.07692,-88.11189 L -323.07692,-146.85315 L -358.33333,-162.87879 M -292.85714,-133.11688 L -292.85714,-79.87013 L -266.66667,-72.72727 L -266.66667,-121.21212 L -292.85714,-133.11688 M -243.75,-110.79545 L -243.75,-66.47727 L -223.52941,-60.96257 L -223.52941,-101.60428 L -243.75,-110.79545 M -205.55556,-93.43434 L -205.55556,-56.06061 L -189.47368,-51.67464 L -189.47368,-86.1244 L -205.55556,-93.43434 M -175,-79.54545 L -175,-47.72727 L -161.90476,-44.15584 L -161.90476,-73.59307 L -175,-79.54545 M -400,-109.09091 L -400,-36.36364 L -358.33333,-32.57576 L -358.33333,-97.72727 L -400,-109.09091 M -323.07692,-88.11189 L -323.07692,-29.37063 L -292.85714,-26.62338 L -292.85714,-79.87013 L -323.07692,-88.11189 M -266.66667,-72.72727 L -266.66667,-24.24242 L -243.75,-22.15909 L -243.75,-66.47727 L -266.66667,-72.72727 M -223.52941,-60.96257 L -223.52941,-20.32086 L -205.55556,-18.68687 L -205.55556,-56.06061 L -223.52941,-60.96257 M -189.47368,-51.67464 L -189.47368,-17.22488 L -175,-15.90909 L -175,-47.72727 L -189.47368,-51.67464 M -161.90476,-44.15584 L -161.90476,-14.71861 L -150,-13.63636 L -150,-40.90909 L -161.90476,-44.15584 M -358.33333,-32.57576 L -358.33333,32.57576 L -323.07692,29.37063 L -323.07692,-29.37063 L -358.33333,-32.57576 M -292.85714,-26.62338 L -292.85714,26.62338 L -266.66667,24.24242 L -266.66667,-24.24242 L -292.85714,-26.62338 M -243.75,-22.15909 L -243.75,22.15909 L -223.52941,20.32086 L -223.52941,-20.32086 L -243.75,-22.15909 M -205.55556,-18.68687 L -205.55556,18.68687 L -189.47368,17.22488 L -189.47368,-17.22488 L -205.55556,-18.68687 M -175,-15.90909 L -175,15.90909 L -161.90476,14.71861 L -161.90476,-14.71861 L -175,-15.90909 M -400,36.36364 L -400,109.09091 L -358.33333,97.72727 L -358.33333,32.57576 L -400,36.36364 M -323.07692,29.37063 L -323.07692,88.11189 L -292.85714,79.87013 L -292.85714,26.62338 L -323.07692,29.37063 M -266.66667,24.24242 L -266.66667,72.72727 L -243.75,66.47727 L -243.75,22.15909 L -266.66667,24.24242 M -223.52941,20.32086 L -223.52941,60.96257 L -205.55556,56.06061 L -205.55556,18.68687 L -223.52941,20.32086 M -189.47368,17.22488 L -189.47368,51.67464 L -175,47.72727 L -175,15.90909 L -189.47368,17.22488 M -161.90476,14.71861 L -161.90476,44.15584 L -150,40.90909 L -150,13.63636 L -161.90476,14.71861 M -358.33333,97.72727 L -358.33333,162.87879 L -323.07692,146.85315 L -323.07692,88.11189 L -358.33333,97.72727 M -292.85714,79.87013 L -292.85714,133.11688 L -266.66667,121.21212 L -266.66667,72.72727 L -292.85714,79.87013 M -243.75,66.47727 L -243.75,110.79545 L -223.52941,101.60428 L -223.52941,60.96257 L -243.75,66.47727 M -205.55556,56.06061 L -205.55556,93.43434 L -189.47368,86.1244 L -189.47368,51.67464 L -205.55556,56.06061 M -175,47.72727 L -175,79.54545 L -161.90476,73.59307 L -161.90476,44.15584 L -175,47.72727 M -400,181.81818 L -400,254.54545 L -358.33333,228.0303 L -358.33333,162.87879 L -400,181.81818 M -323.07692,146.85315 L -323.07692,205.59441 L -292.85714,186.36364 L -292.85714,133.11688 L -323.07692,146.85315 M -266.66667,121.21212 L -266.66667,169.69697 L -243.75,155.11364 L -243.75,110.79545 L -266.66667,121.21212 M -223.52941,101.60428 L -223.52941,142.24599 L -205.55556,130.80808 L -205.55556,93.43434 L -223.52941,101.60428 M -189.47368,86.1244 L -189.47368,120.57416 L -175,111.36364 L -175,79.54545 L -189.47368,86.1244 M -161.90476,73.59307 L -161.90476,103.0303 L -150,95.45455 L -150,68.18182 L -161.90476,73.59307 M -358.33333,228.0303 L -358.33333,293.18182 L -323.07692,264.33566 L -323.07692,205.59441 L -358.33333,228.0303 M -292.85714,186.36364 L -292.85714,239.61039 L -266.66667,218.18182 L -266.66667,169.69697 L -292.85714,186.36364 M -243.75,155.11364 L -243.75,199.43182 L -223.52941,182.8877 L -223.52941,142.24599 L -243.75,155.11364 M -205.55556,130.80808 L -205.55556,168.18182 L -189.47368,155.02392 L -189.47368,120.57416 L -205.55556,130.80808 M -175,111.36364 L -175,143.18182 L -161.90476,132.46753 L -161.90476,103.0303 L -175,111.36364 M -400,327.27273 L -400,400 L -358.33333,358.33333 L -358.33333,293.18182 L -400,327.27273 M -323.07692,264.33566 L -323.07692,323.07692 L -292.85714,292.85714 L -292.85714,239.61039 L -323.07692,264.33566 M -266.66667,218.18182 L -266.66667,266.66667 L -243.75,243.75 L -243.75,199.43182 L -266.66667,218.18182 M -223.52941,182.8877 L -223.52941,223.52941 L -205.55556,205.55556 L -205.55556,168.18182 L -223.52941,182.8877 M -189.47368,155.02392 L -189.47368,189.47368 L -175,175 L -175,143.18182 L -189.47368,155.02392 M -161.90476,132.46753 L -161.90476,161.90476 L -150,150 L -150,122.72727 L -161.90476,132.46753 M -400,400 L -327.27273,400 L -293.18182,358.33333 L -358.33333,358.33333 L -400,400 M -323.07692,323.07692 L -264.33566,323.07692 L -239.61039,292.85714 L -292.85714,292.85714 L -323.07692,323.07692 M -266.66667,266.66667 L -218.18182,266.66667 L -199.43182,243.75 L -243.75,243.75 L -266.66667,266.66667 M -223.52941,223.52941 L -182.8877,223.52941 L -168.18182,205.55556 L -205.55556,205.55556 L -223.52941,223.52941 M -189.47368,189.47368 L -155.02392,189.47368 L -143.18182,175 L -175,175 L -189.47368,189.47368 M -161.90476,161.90476 L -132.46753,161.90476 L -122.72727,150 L -150,150 L -161.90476,161.90476 M -293.18182,358.33333 L -228.0303,358.33333 L -205.59441,323.07692 L -264.33566,323.07692 L -293.18182,358.33333 M -239.61039,292.85714 L -186.36364,292.85714 L -169.69697,266.66667 L -218.18182,266.66667 L -239.61039,292.85714 M -199.43182,243.75 L -155.11364,243.75 L -142.24599,223.52941 L -182.8877,223.52941 L -199.43182,243.75 M -168.18182,205.55556 L -130.80808,205.55556 L -120.57416,189.47368 L -155.02392,189.47368 L -168.18182,205.55556 M -143.18182,175 L -111.36364,175 L -103.0303,161.90476 L -132.46753,161.90476 L -143.18182,175 M -254.54545,400 L -181.81818,400 L -162.87879,358.33333 L -228.0303,358.33333 L -254.54545,400 M -205.59441,323.07692 L -146.85315,323.07692 L -133.11688,292.85714 L -186.36364,292.85714 L -205.59441,323.07692 M -169.69697,266.66667 L -121.21212,266.66667 L -110.79545,243.75 L -155.11364,243.75 L -169.69697,266.66667 M -142.24599,223.52941 L -101.60428,223.52941 L -93.43434,205.55556 L -130.80808,205.55556 L -142.24599,223.52941 M -120.57416,189.47368 L -86.1244,189.47368 L -79.54545,175 L -111.36364,175 L -120.57416,189.47368 M -103.0303,161.90476 L -73.59307,161.90476 L -68.18182,150 L -95.45455,150 L -103.0303,161.90476 M -162.87879,358.33333 L -97.72727,358.33333 L -88.11189,323.07692 L -146.85315,323.07692 L -162.87879,358.33333 M -133.11688,292.85714 L -79.87013,292.85714 L -72.72727,266.66667 L -121.21212,266.66667 L -133.11688,292.85714 M -110.79545,243.75 L -66.47727,243.75 L -60.96257,223.52941 L -101.60428,223.52941 L -110.79545,243.75 M -93.43434,205.55556 L -56.06061,205.55556 L -51.67464,189.47368 L -86.1244,189.47368 L -93.43434,205.55556 M -79.54545,175 L -47.72727,175 L -44.15584,161.90476 L -73.59307,161.90476 L -79.54545,175 M -109.09091,400 L -36.36364,400 L -32.57576,358.33333 L -97.72727,358.33333 L -109.09091,400 M -88.11189,323.07692 L -29.37063,323.07692 L -26.62338,292.85714 L -79.87013,292.85714 L -88.11189,323.07692 M -72.72727,266.66667 L -24.24242,266.66667 L -22.15909,243.75 L -66.47727,243.75 L -72.72727,266.66667 M -60.96257,223.52941 L -20.32086,223.52941 L -18.68687,205.55556 L -56.06061,205.55556 L -60.96257,223.52941 M -51.67464,189.47368 L -17.22488,189.47368 L -15.90909,175 L -47.72727,175 L -51.67464,189.47368 M -44.15584,161.90476 L -14.71861,161.90476 L -13.63636,150 L -40.90909,150 L -44.15584,161.90476 M -32.57576,358.33333 L 32.57576,358.33333 L 29.37063,323.07692 L -29.37063,323.07692 L -32.57576,358.33333 M -26.62338,292.85714 L 26.62338,292.85714 L 24.24242,266.66667 L -24.24242,266.66667 L -26.62338,292.85714 M -22.15909,243.75 L 22.15909,243.75 L 20.32086,223.52941 L -20.32086,223.52941 L -22.15909,243.75 M -18.68687,205.55556 L 18.68687,205.55556 L 17.22488,189.47368 L -17.22488,189.47368 L -18.68687,205.55556 M -15.90909,175 L 15.90909,175 L 14.71861,161.90476 L -14.71861,161.90476 L -15.90909,175 M 36.36364,400 L 109.09091,400 L 97.72727,358.33333 L 32.57576,358.33333 L 36.36364,400 M 29.37063,323.07692 L 88.11189,323.07692 L 79.87013,292.85714 L 26.62338,292.85714 L 29.37063,323.07692 M 24.24242,266.66667 L 72.72727,266.66667 L 66.47727,243.75 L 22.15909,243.75 L 24.24242,266.66667 M 20.32086,223.52941 L 60.96257,223.52941 L 56.06061,205.55556 L 18.68687,205.55556 L 20.32086,223.52941 M 17.22488,189.47368 L 51.67464,189.47368 L 47.72727,175 L 15.90909,175 L 17.22488,189.47368 M 14.71861,161.90476 L 44.15584,161.90476 L 40.90909,150 L 13.63636,150 L 14.71861,161.90476 M 97.72727,358.33333 L 162.87879,358.33333 L 146.85315,323.07692 L 88.11189,323.07692 L 97.72727,358.33333 M 79.87013,292.85714 L 133.11688,292.85714 L 121.21212,266.66667 L 72.72727,266.66667 L 79.87013,292.85714 M 66.47727,243.75 L 110.79545,243.75 L 101.60428,223.52941 L 60.96257,223.52941 L 66.47727,243.75 M 56.06061,205.55556 L 93.43434,205.55556 L 86.1244,189.47368 L 51.67464,189.47368 L 56.06061,205.55556 M 47.72727,175 L 79.54545,175 L 73.59307,161.90476 L 44.15584,161.90476 L 47.72727,175 M 181.81818,400 L 254.54545,400 L 228.0303,358.33333 L 162.87879,358.33333 L 181.81818,400 M 146.85315,323.07692 L 205.59441,323.07692 L 186.36364,292.85714 L 133.11688,292.85714 L 146.85315,323.07692 M 121.21212,266.66667 L 169.69697,266.66667 L 155.11364,243.75 L 110.79545,243.75 L 121.21212,266.66667 M 101.60428,223.52941 L 142.24599,223.52941 L 130.80808,205.55556 L 93.43434,205.55556 L 101.60428,223.52941 M 86.1244,189.47368 L 120.57416,189.47368 L 111.36364,175 L 79.54545,175 L 86.1244,189.47368 M 73.59307,161.90476 L 103.0303,161.90476 L 95.45455,150 L 68.18182,150 L 73.59307,161.90476 M 228.0303,358.33333 L 293.18182,358.33333 L 264.33566,323.07692 L 205.59441,323.07692 L 228.0303,358.33333 M 186.36364,292.85714 L 239.61039,292.85714 L 218.18182,266.66667 L 169.69697,266.66667 L 186.36364,292.85714 M 155.11364,243.75 L 199.43182,243.75 L 182.8877,223.52941 L 142.24599,223.52941 L 155.11364,243.75 M 130.80808,205.55556 L 168.18182,205.55556 L 155.02392,189.47368 L 120.57416,189.47368 L 130.80808,205.55556 M 111.36364,175 L 143.18182,175 L 132.46753,161.90476 L 103.0303,161.90476 L 111.36364,175 M 327.27273,400 L 400,400 L 358.33333,358.33333 L 293.18182,358.33333 L 327.27273,400 M 264.33566,323.07692 L 323.07692,323.07692 L 292.85714,292.85714 L 239.61039,292.85714 L 264.33566,323.07692 M 218.18182,266.66667 L 266.66667,266.66667 L 243.75,243.75 L 199.43182,243.75 L 218.18182,266.66667 M 182.8877,223.52941 L 223.52941,223.52941 L 205.55556,205.55556 L 168.18182,205.55556 L 182.8877,223.52941 M 155.02392,189.47368 L 189.47368,189.47368 L 175,175 L 143.18182,175 L 155.02392,189.47368 M 132.46753,161.90476 L 161.90476,161.90476 L 150,150 L 122.72727,150 L 132.46753,161.90476"
         id="path42394" />
    </g>
  </g>
</svg>
