<svg xmlns:ns0="http://www.w3.org/2000/svg" xlink="http://www.w3.org/1999/xlink" xmlns="http://www.w3.org/2000/svg" ns0:svg="http://www.w3.org/2000/svg" width="1280" height="1280">
  <defs/>
  <g id="canvas" transform="matrix(1,0,0,-1,0,1280) translate(640,640)">
    <path style="fill:#7cff00; stroke:black; stroke-width:3" d="M-300.00000,-300.00000 L-245.45455,-300.00000 L-245.45455,-245.45455 L-300.00000,-245.45455 L-300.00000,-300.00000 M-300.00000,-190.90909 L-245.45455,-190.90909 L-245.45455,-136.36364 L-300.00000,-136.36364 L-300.00000,-190.90909 M-300.00000,-81.81818 L-245.45455,-81.81818 L-245.45455,-27.27273 L-300.00000,-27.27273 L-300.00000,-81.81818 M-300.00000,27.27273 L-245.45455,27.27273 L-245.45455,81.81818 L-300.00000,81.81818 L-300.00000,27.27273 M-300.00000,136.36364 L-245.45455,136.36364 L-245.45455,190.90909 L-300.00000,190.90909 L-300.00000,136.36364 M-300.00000,245.45455 L-245.45455,245.45455 L-245.45455,300.00000 L-300.00000,300.00000 L-300.00000,245.45455 M-245.45455,-245.45455 L-190.90909,-245.45455 L-190.90909,-190.90909 L-245.45455,-190.90909 L-245.45455,-245.45455 M-245.45455,-136.36364 L-190.90909,-136.36364 L-190.90909,-81.81818 L-245.45455,-81.81818 L-245.45455,-136.36364 M-245.45455,-27.27273 L-190.90909,-27.27273 L-190.90909,27.27273 L-245.45455,27.27273 L-245.45455,-27.27273 M-245.45455,81.81818 L-190.90909,81.81818 L-190.90909,136.36364 L-245.45455,136.36364 L-245.45455,81.81818 M-245.45455,190.90909 L-190.90909,190.90909 L-190.90909,245.45455 L-245.45455,245.45455 L-245.45455,190.90909 M-190.90909,-300.00000 L-136.36364,-300.00000 L-136.36364,-245.45455 L-190.90909,-245.45455 L-190.90909,-300.00000 M-190.90909,-190.90909 L-136.36364,-190.90909 L-136.36364,-136.36364 L-190.90909,-136.36364 L-190.90909,-190.90909 M-190.90909,-81.81818 L-136.36364,-81.81818 L-136.36364,-27.27273 L-190.90909,-27.27273 L-190.90909,-81.81818 M-190.90909,27.27273 L-136.36364,27.27273 L-136.36364,81.81818 L-190.90909,81.81818 L-190.90909,27.27273 M-190.90909,136.36364 L-136.36364,136.36364 L-136.36364,190.90909 L-190.90909,190.90909 L-190.90909,136.36364 M-190.90909,245.45455 L-136.36364,245.45455 L-136.36364,300.00000 L-190.90909,300.00000 L-190.90909,245.45455 M-136.36364,-245.45455 L-81.81818,-245.45455 L-81.81818,-190.90909 L-136.36364,-190.90909 L-136.36364,-245.45455 M-136.36364,-136.36364 L-81.81818,-136.36364 L-81.81818,-81.81818 L-136.36364,-81.81818 L-136.36364,-136.36364 M-136.36364,-27.27273 L-81.81818,-27.27273 L-81.81818,27.27273 L-136.36364,27.27273 L-136.36364,-27.27273 M-136.36364,81.81818 L-81.81818,81.81818 L-81.81818,136.36364 L-136.36364,136.36364 L-136.36364,81.81818 M-136.36364,190.90909 L-81.81818,190.90909 L-81.81818,245.45455 L-136.36364,245.45455 L-136.36364,190.90909 M-81.81818,-300.00000 L-27.27273,-300.00000 L-27.27273,-245.45455 L-81.81818,-245.45455 L-81.81818,-300.00000 M-81.81818,-190.90909 L-27.27273,-190.90909 L-27.27273,-136.36364 L-81.81818,-136.36364 L-81.81818,-190.90909 M-81.81818,-81.81818 L-27.27273,-81.81818 L-27.27273,-27.27273 L-81.81818,-27.27273 L-81.81818,-81.81818 M-81.81818,27.27273 L-27.27273,27.27273 L-27.27273,81.81818 L-81.81818,81.81818 L-81.81818,27.27273 M-81.81818,136.36364 L-27.27273,136.36364 L-27.27273,190.90909 L-81.81818,190.90909 L-81.81818,136.36364 M-81.81818,245.45455 L-27.27273,245.45455 L-27.27273,300.00000 L-81.81818,300.00000 L-81.81818,245.45455 M-27.27273,-245.45455 L27.27273,-245.45455 L27.27273,-190.90909 L-27.27273,-190.90909 L-27.27273,-245.45455 M-27.27273,-136.36364 L27.27273,-136.36364 L27.27273,-81.81818 L-27.27273,-81.81818 L-27.27273,-136.36364 M-27.27273,-27.27273 L27.27273,-27.27273 L27.27273,27.27273 L-27.27273,27.27273 L-27.27273,-27.27273 M-27.27273,81.81818 L27.27273,81.81818 L27.27273,136.36364 L-27.27273,136.36364 L-27.27273,81.81818 M-27.27273,190.90909 L27.27273,190.90909 L27.27273,245.45455 L-27.27273,245.45455 L-27.27273,190.90909 M27.27273,-300.00000 L81.81818,-300.00000 L81.81818,-245.45455 L27.27273,-245.45455 L27.27273,-300.00000 M27.27273,-190.90909 L81.81818,-190.90909 L81.81818,-136.36364 L27.27273,-136.36364 L27.27273,-190.90909 M27.27273,-81.81818 L81.81818,-81.81818 L81.81818,-27.27273 L27.27273,-27.27273 L27.27273,-81.81818 M27.27273,27.27273 L81.81818,27.27273 L81.81818,81.81818 L27.27273,81.81818 L27.27273,27.27273 M27.27273,136.36364 L81.81818,136.36364 L81.81818,190.90909 L27.27273,190.90909 L27.27273,136.36364 M27.27273,245.45455 L81.81818,245.45455 L81.81818,300.00000 L27.27273,300.00000 L27.27273,245.45455 M81.81818,-245.45455 L136.36364,-245.45455 L136.36364,-190.90909 L81.81818,-190.90909 L81.81818,-245.45455 M81.81818,-136.36364 L136.36364,-136.36364 L136.36364,-81.81818 L81.81818,-81.81818 L81.81818,-136.36364 M81.81818,-27.27273 L136.36364,-27.27273 L136.36364,27.27273 L81.81818,27.27273 L81.81818,-27.27273 M81.81818,81.81818 L136.36364,81.81818 L136.36364,136.36364 L81.81818,136.36364 L81.81818,81.81818 M81.81818,190.90909 L136.36364,190.90909 L136.36364,245.45455 L81.81818,245.45455 L81.81818,190.90909 M136.36364,-300.00000 L190.90909,-300.00000 L190.90909,-245.45455 L136.36364,-245.45455 L136.36364,-300.00000 M136.36364,-190.90909 L190.90909,-190.90909 L190.90909,-136.36364 L136.36364,-136.36364 L136.36364,-190.90909 M136.36364,-81.81818 L190.90909,-81.81818 L190.90909,-27.27273 L136.36364,-27.27273 L136.36364,-81.81818 M136.36364,27.27273 L190.90909,27.27273 L190.90909,81.81818 L136.36364,81.81818 L136.36364,27.27273 M136.36364,136.36364 L190.90909,136.36364 L190.90909,190.90909 L136.36364,190.90909 L136.36364,136.36364 M136.36364,245.45455 L190.90909,245.45455 L190.90909,300.00000 L136.36364,300.00000 L136.36364,245.45455 M190.90909,-245.45455 L245.45455,-245.45455 L245.45455,-190.90909 L190.90909,-190.90909 L190.90909,-245.45455 M190.90909,-136.36364 L245.45455,-136.36364 L245.45455,-81.81818 L190.90909,-81.81818 L190.90909,-136.36364 M190.90909,-27.27273 L245.45455,-27.27273 L245.45455,27.27273 L190.90909,27.27273 L190.90909,-27.27273 M190.90909,81.81818 L245.45455,81.81818 L245.45455,136.36364 L190.90909,136.36364 L190.90909,81.81818 M190.90909,190.90909 L245.45455,190.90909 L245.45455,245.45455 L190.90909,245.45455 L190.90909,190.90909 M245.45455,-300.00000 L300.00000,-300.00000 L300.00000,-245.45455 L245.45455,-245.45455 L245.45455,-300.00000 M245.45455,-190.90909 L300.00000,-190.90909 L300.00000,-136.36364 L245.45455,-136.36364 L245.45455,-190.90909 M245.45455,-81.81818 L300.00000,-81.81818 L300.00000,-27.27273 L245.45455,-27.27273 L245.45455,-81.81818 M245.45455,27.27273 L300.00000,27.27273 L300.00000,81.81818 L245.45455,81.81818 L245.45455,27.27273 M245.45455,136.36364 L300.00000,136.36364 L300.00000,190.90909 L245.45455,190.90909 L245.45455,136.36364 M245.45455,245.45455 L300.00000,245.45455 L300.00000,300.00000 L245.45455,300.00000 L245.45455,245.45455 M454.50850,454.50850 L454.50850,371.87059 L428.36091,350.47710 L428.36091,428.36091 L454.50850,454.50850 M405.94868,405.94868 L405.94868,332.13983 L386.52476,316.24753 L386.52476,386.52476 L405.94868,405.94868 M369.52882,369.52882 L369.52882,302.34176 L354.53241,290.07197 L354.53241,354.53241 L369.52882,369.52882 M341.20227,341.20227 L341.20227,279.16549 L329.27529,269.40706 L329.27529,329.27529 L341.20227,341.20227 M318.54102,318.54102 L318.54102,260.62447 L308.82906,252.67832 L308.82906,308.82906 L318.54102,318.54102 M485.41020,397.15380 L485.41020,308.89740 L454.50850,289.23268 L454.50850,371.87059 L485.41020,397.15380 M428.36091,350.47710 L428.36091,272.59330 L405.94868,258.33098 L405.94868,332.13983 L428.36091,350.47710 M386.52476,316.24753 L386.52476,245.97030 L369.52882,235.15471 L369.52882,302.34176 L386.52476,316.24753 M354.53241,290.07197 L354.53241,225.61153 L341.20227,217.12871 L341.20227,279.16549 L354.53241,290.07197 M329.27529,269.40706 L329.27529,209.53882 L318.54102,202.70792 L318.54102,260.62447 L329.27529,269.40706 M308.82906,252.67832 L308.82906,196.52758 L300.00000,190.90909 L300.00000,245.45455 L308.82906,252.67832 M454.50850,289.23268 L454.50850,206.59477 L428.36091,194.70950 L428.36091,272.59330 L454.50850,289.23268 M405.94868,258.33098 L405.94868,184.52213 L386.52476,175.69307 L386.52476,245.97030 L405.94868,258.33098 M369.52882,235.15471 L369.52882,167.96765 L354.53241,161.15110 L354.53241,225.61153 L369.52882,235.15471 M341.20227,217.12871 L341.20227,155.09194 L329.27529,149.67059 L329.27529,209.53882 L341.20227,217.12871 M318.54102,202.70792 L318.54102,144.79137 L308.82906,140.37684 L308.82906,196.52758 L318.54102,202.70792 M485.41020,220.64100 L485.41020,132.38460 L454.50850,123.95686 L454.50850,206.59477 L485.41020,220.64100 M428.36091,194.70950 L428.36091,116.82570 L405.94868,110.71328 L405.94868,184.52213 L428.36091,194.70950 M386.52476,175.69307 L386.52476,105.41584 L369.52882,100.78059 L369.52882,167.96765 L386.52476,175.69307 M354.53241,161.15110 L354.53241,96.69066 L341.20227,93.05516 L341.20227,155.09194 L354.53241,161.15110 M329.27529,149.67059 L329.27529,89.80235 L318.54102,86.87482 L318.54102,144.79137 L329.27529,149.67059 M308.82906,140.37684 L308.82906,84.22611 L300.00000,81.81818 L300.00000,136.36364 L308.82906,140.37684 M454.50850,123.95686 L454.50850,41.31895 L428.36091,38.94190 L428.36091,116.82570 L454.50850,123.95686 M405.94868,110.71328 L405.94868,36.90443 L386.52476,35.13861 L386.52476,105.41584 L405.94868,110.71328 M369.52882,100.78059 L369.52882,33.59353 L354.53241,32.23022 L354.53241,96.69066 L369.52882,100.78059 M341.20227,93.05516 L341.20227,31.01839 L329.27529,29.93412 L329.27529,89.80235 L341.20227,93.05516 M318.54102,86.87482 L318.54102,28.95827 L308.82906,28.07537 L308.82906,84.22611 L318.54102,86.87482 M485.41020,44.12820 L485.41020,-44.12820 L454.50850,-41.31895 L454.50850,41.31895 L485.41020,44.12820 M428.36091,38.94190 L428.36091,-38.94190 L405.94868,-36.90443 L405.94868,36.90443 L428.36091,38.94190 M386.52476,35.13861 L386.52476,-35.13861 L369.52882,-33.59353 L369.52882,33.59353 L386.52476,35.13861 M354.53241,32.23022 L354.53241,-32.23022 L341.20227,-31.01839 L341.20227,31.01839 L354.53241,32.23022 M329.27529,29.93412 L329.27529,-29.93412 L318.54102,-28.95827 L318.54102,28.95827 L329.27529,29.93412 M308.82906,28.07537 L308.82906,-28.07537 L300.00000,-27.27273 L300.00000,27.27273 L308.82906,28.07537 M454.50850,-41.31895 L454.50850,-123.95686 L428.36091,-116.82570 L428.36091,-38.94190 L454.50850,-41.31895 M405.94868,-36.90443 L405.94868,-110.71328 L386.52476,-105.41584 L386.52476,-35.13861 L405.94868,-36.90443 M369.52882,-33.59353 L369.52882,-100.78059 L354.53241,-96.69066 L354.53241,-32.23022 L369.52882,-33.59353 M341.20227,-31.01839 L341.20227,-93.05516 L329.27529,-89.80235 L329.27529,-29.93412 L341.20227,-31.01839 M318.54102,-28.95827 L318.54102,-86.87482 L308.82906,-84.22611 L308.82906,-28.07537 L318.54102,-28.95827 M485.41020,-132.38460 L485.41020,-220.64100 L454.50850,-206.59477 L454.50850,-123.95686 L485.41020,-132.38460 M428.36091,-116.82570 L428.36091,-194.70950 L405.94868,-184.52213 L405.94868,-110.71328 L428.36091,-116.82570 M386.52476,-105.41584 L386.52476,-175.69307 L369.52882,-167.96765 L369.52882,-100.78059 L386.52476,-105.41584 M354.53241,-96.69066 L354.53241,-161.15110 L341.20227,-155.09194 L341.20227,-93.05516 L354.53241,-96.69066 M329.27529,-89.80235 L329.27529,-149.67059 L318.54102,-144.79137 L318.54102,-86.87482 L329.27529,-89.80235 M308.82906,-84.22611 L308.82906,-140.37684 L300.00000,-136.36364 L300.00000,-81.81818 L308.82906,-84.22611 M454.50850,-206.59477 L454.50850,-289.23268 L428.36091,-272.59330 L428.36091,-194.70950 L454.50850,-206.59477 M405.94868,-184.52213 L405.94868,-258.33098 L386.52476,-245.97030 L386.52476,-175.69307 L405.94868,-184.52213 M369.52882,-167.96765 L369.52882,-235.15471 L354.53241,-225.61153 L354.53241,-161.15110 L369.52882,-167.96765 M341.20227,-155.09194 L341.20227,-217.12871 L329.27529,-209.53882 L329.27529,-149.67059 L341.20227,-155.09194 M318.54102,-144.79137 L318.54102,-202.70792 L308.82906,-196.52758 L308.82906,-140.37684 L318.54102,-144.79137 M485.41020,-308.89740 L485.41020,-397.15380 L454.50850,-371.87059 L454.50850,-289.23268 L485.41020,-308.89740 M428.36091,-272.59330 L428.36091,-350.47710 L405.94868,-332.13983 L405.94868,-258.33098 L428.36091,-272.59330 M386.52476,-245.97030 L386.52476,-316.24753 L369.52882,-302.34176 L369.52882,-235.15471 L386.52476,-245.97030 M354.53241,-225.61153 L354.53241,-290.07197 L341.20227,-279.16549 L341.20227,-217.12871 L354.53241,-225.61153 M329.27529,-209.53882 L329.27529,-269.40706 L318.54102,-260.62447 L318.54102,-202.70792 L329.27529,-209.53882 M308.82906,-196.52758 L308.82906,-252.67832 L300.00000,-245.45455 L300.00000,-190.90909 L308.82906,-196.52758 M454.50850,-371.87059 L454.50850,-454.50850 L428.36091,-428.36091 L428.36091,-350.47710 L454.50850,-371.87059 M405.94868,-332.13983 L405.94868,-405.94868 L386.52476,-386.52476 L386.52476,-316.24753 L405.94868,-332.13983 M369.52882,-302.34176 L369.52882,-369.52882 L354.53241,-354.53241 L354.53241,-290.07197 L369.52882,-302.34176 M341.20227,-279.16549 L341.20227,-341.20227 L329.27529,-329.27529 L329.27529,-269.40706 L341.20227,-279.16549 M318.54102,-260.62447 L318.54102,-318.54102 L308.82906,-308.82906 L308.82906,-252.67832 L318.54102,-260.62447 M454.50850,-454.50850 L371.87059,-454.50850 L350.47710,-428.36091 L428.36091,-428.36091 L454.50850,-454.50850 M405.94868,-405.94868 L332.13983,-405.94868 L316.24753,-386.52476 L386.52476,-386.52476 L405.94868,-405.94868 M369.52882,-369.52882 L302.34176,-369.52882 L290.07197,-354.53241 L354.53241,-354.53241 L369.52882,-369.52882 M341.20227,-341.20227 L279.16549,-341.20227 L269.40706,-329.27529 L329.27529,-329.27529 L341.20227,-341.20227 M318.54102,-318.54102 L260.62447,-318.54102 L252.67832,-308.82906 L308.82906,-308.82906 L318.54102,-318.54102 M397.15380,-485.41020 L308.89740,-485.41020 L289.23268,-454.50850 L371.87059,-454.50850 L397.15380,-485.41020 M350.47710,-428.36091 L272.59330,-428.36091 L258.33098,-405.94868 L332.13983,-405.94868 L350.47710,-428.36091 M316.24753,-386.52476 L245.97030,-386.52476 L235.15471,-369.52882 L302.34176,-369.52882 L316.24753,-386.52476 M290.07197,-354.53241 L225.61153,-354.53241 L217.12871,-341.20227 L279.16549,-341.20227 L290.07197,-354.53241 M269.40706,-329.27529 L209.53882,-329.27529 L202.70792,-318.54102 L260.62447,-318.54102 L269.40706,-329.27529 M252.67832,-308.82906 L196.52758,-308.82906 L190.90909,-300.00000 L245.45455,-300.00000 L252.67832,-308.82906 M289.23268,-454.50850 L206.59477,-454.50850 L194.70950,-428.36091 L272.59330,-428.36091 L289.23268,-454.50850 M258.33098,-405.94868 L184.52213,-405.94868 L175.69307,-386.52476 L245.97030,-386.52476 L258.33098,-405.94868 M235.15471,-369.52882 L167.96765,-369.52882 L161.15110,-354.53241 L225.61153,-354.53241 L235.15471,-369.52882 M217.12871,-341.20227 L155.09194,-341.20227 L149.67059,-329.27529 L209.53882,-329.27529 L217.12871,-341.20227 M202.70792,-318.54102 L144.79137,-318.54102 L140.37684,-308.82906 L196.52758,-308.82906 L202.70792,-318.54102 M220.64100,-485.41020 L132.38460,-485.41020 L123.95686,-454.50850 L206.59477,-454.50850 L220.64100,-485.41020 M194.70950,-428.36091 L116.82570,-428.36091 L110.71328,-405.94868 L184.52213,-405.94868 L194.70950,-428.36091 M175.69307,-386.52476 L105.41584,-386.52476 L100.78059,-369.52882 L167.96765,-369.52882 L175.69307,-386.52476 M161.15110,-354.53241 L96.69066,-354.53241 L93.05516,-341.20227 L155.09194,-341.20227 L161.15110,-354.53241 M149.67059,-329.27529 L89.80235,-329.27529 L86.87482,-318.54102 L144.79137,-318.54102 L149.67059,-329.27529 M140.37684,-308.82906 L84.22611,-308.82906 L81.81818,-300.00000 L136.36364,-300.00000 L140.37684,-308.82906 M123.95686,-454.50850 L41.31895,-454.50850 L38.94190,-428.36091 L116.82570,-428.36091 L123.95686,-454.50850 M110.71328,-405.94868 L36.90443,-405.94868 L35.13861,-386.52476 L105.41584,-386.52476 L110.71328,-405.94868 M100.78059,-369.52882 L33.59353,-369.52882 L32.23022,-354.53241 L96.69066,-354.53241 L100.78059,-369.52882 M93.05516,-341.20227 L31.01839,-341.20227 L29.93412,-329.27529 L89.80235,-329.27529 L93.05516,-341.20227 M86.87482,-318.54102 L28.95827,-318.54102 L28.07537,-308.82906 L84.22611,-308.82906 L86.87482,-318.54102 M44.12820,-485.41020 L-44.12820,-485.41020 L-41.31895,-454.50850 L41.31895,-454.50850 L44.12820,-485.41020 M38.94190,-428.36091 L-38.94190,-428.36091 L-36.90443,-405.94868 L36.90443,-405.94868 L38.94190,-428.36091 M35.13861,-386.52476 L-35.13861,-386.52476 L-33.59353,-369.52882 L33.59353,-369.52882 L35.13861,-386.52476 M32.23022,-354.53241 L-32.23022,-354.53241 L-31.01839,-341.20227 L31.01839,-341.20227 L32.23022,-354.53241 M29.93412,-329.27529 L-29.93412,-329.27529 L-28.95827,-318.54102 L28.95827,-318.54102 L29.93412,-329.27529 M28.07537,-308.82906 L-28.07537,-308.82906 L-27.27273,-300.00000 L27.27273,-300.00000 L28.07537,-308.82906 M-41.31895,-454.50850 L-123.95686,-454.50850 L-116.82570,-428.36091 L-38.94190,-428.36091 L-41.31895,-454.50850 M-36.90443,-405.94868 L-110.71328,-405.94868 L-105.41584,-386.52476 L-35.13861,-386.52476 L-36.90443,-405.94868 M-33.59353,-369.52882 L-100.78059,-369.52882 L-96.69066,-354.53241 L-32.23022,-354.53241 L-33.59353,-369.52882 M-31.01839,-341.20227 L-93.05516,-341.20227 L-89.80235,-329.27529 L-29.93412,-329.27529 L-31.01839,-341.20227 M-28.95827,-318.54102 L-86.87482,-318.54102 L-84.22611,-308.82906 L-28.07537,-308.82906 L-28.95827,-318.54102 M-132.38460,-485.41020 L-220.64100,-485.41020 L-206.59477,-454.50850 L-123.95686,-454.50850 L-132.38460,-485.41020 M-116.82570,-428.36091 L-194.70950,-428.36091 L-184.52213,-405.94868 L-110.71328,-405.94868 L-116.82570,-428.36091 M-105.41584,-386.52476 L-175.69307,-386.52476 L-167.96765,-369.52882 L-100.78059,-369.52882 L-105.41584,-386.52476 M-96.69066,-354.53241 L-161.15110,-354.53241 L-155.09194,-341.20227 L-93.05516,-341.20227 L-96.69066,-354.53241 M-89.80235,-329.27529 L-149.67059,-329.27529 L-144.79137,-318.54102 L-86.87482,-318.54102 L-89.80235,-329.27529 M-84.22611,-308.82906 L-140.37684,-308.82906 L-136.36364,-300.00000 L-81.81818,-300.00000 L-84.22611,-308.82906 M-206.59477,-454.50850 L-289.23268,-454.50850 L-272.59330,-428.36091 L-194.70950,-428.36091 L-206.59477,-454.50850 M-184.52213,-405.94868 L-258.33098,-405.94868 L-245.97030,-386.52476 L-175.69307,-386.52476 L-184.52213,-405.94868 M-167.96765,-369.52882 L-235.15471,-369.52882 L-225.61153,-354.53241 L-161.15110,-354.53241 L-167.96765,-369.52882 M-155.09194,-341.20227 L-217.12871,-341.20227 L-209.53882,-329.27529 L-149.67059,-329.27529 L-155.09194,-341.20227 M-144.79137,-318.54102 L-202.70792,-318.54102 L-196.52758,-308.82906 L-140.37684,-308.82906 L-144.79137,-318.54102 M-308.89740,-485.41020 L-397.15380,-485.41020 L-371.87059,-454.50850 L-289.23268,-454.50850 L-308.89740,-485.41020 M-272.59330,-428.36091 L-350.47710,-428.36091 L-332.13983,-405.94868 L-258.33098,-405.94868 L-272.59330,-428.36091 M-245.97030,-386.52476 L-316.24753,-386.52476 L-302.34176,-369.52882 L-235.15471,-369.52882 L-245.97030,-386.52476 M-225.61153,-354.53241 L-290.07197,-354.53241 L-279.16549,-341.20227 L-217.12871,-341.20227 L-225.61153,-354.53241 M-209.53882,-329.27529 L-269.40706,-329.27529 L-260.62447,-318.54102 L-202.70792,-318.54102 L-209.53882,-329.27529 M-196.52758,-308.82906 L-252.67832,-308.82906 L-245.45455,-300.00000 L-190.90909,-300.00000 L-196.52758,-308.82906 M-371.87059,-454.50850 L-454.50850,-454.50850 L-428.36091,-428.36091 L-350.47710,-428.36091 L-371.87059,-454.50850 M-332.13983,-405.94868 L-405.94868,-405.94868 L-386.52476,-386.52476 L-316.24753,-386.52476 L-332.13983,-405.94868 M-302.34176,-369.52882 L-369.52882,-369.52882 L-354.53241,-354.53241 L-290.07197,-354.53241 L-302.34176,-369.52882 M-279.16549,-341.20227 L-341.20227,-341.20227 L-329.27529,-329.27529 L-269.40706,-329.27529 L-279.16549,-341.20227 M-260.62447,-318.54102 L-318.54102,-318.54102 L-308.82906,-308.82906 L-252.67832,-308.82906 L-260.62447,-318.54102 M-454.50850,-454.50850 L-454.50850,-371.87059 L-428.36091,-350.47710 L-428.36091,-428.36091 L-454.50850,-454.50850 M-405.94868,-405.94868 L-405.94868,-332.13983 L-386.52476,-316.24753 L-386.52476,-386.52476 L-405.94868,-405.94868 M-369.52882,-369.52882 L-369.52882,-302.34176 L-354.53241,-290.07197 L-354.53241,-354.53241 L-369.52882,-369.52882 M-341.20227,-341.20227 L-341.20227,-279.16549 L-329.27529,-269.40706 L-329.27529,-329.27529 L-341.20227,-341.20227 M-318.54102,-318.54102 L-318.54102,-260.62447 L-308.82906,-252.67832 L-308.82906,-308.82906 L-318.54102,-318.54102 M-485.41020,-397.15380 L-485.41020,-308.89740 L-454.50850,-289.23268 L-454.50850,-371.87059 L-485.41020,-397.15380 M-428.36091,-350.47710 L-428.36091,-272.59330 L-405.94868,-258.33098 L-405.94868,-332.13983 L-428.36091,-350.47710 M-386.52476,-316.24753 L-386.52476,-245.97030 L-369.52882,-235.15471 L-369.52882,-302.34176 L-386.52476,-316.24753 M-354.53241,-290.07197 L-354.53241,-225.61153 L-341.20227,-217.12871 L-341.20227,-279.16549 L-354.53241,-290.07197 M-329.27529,-269.40706 L-329.27529,-209.53882 L-318.54102,-202.70792 L-318.54102,-260.62447 L-329.27529,-269.40706 M-308.82906,-252.67832 L-308.82906,-196.52758 L-300.00000,-190.90909 L-300.00000,-245.45455 L-308.82906,-252.67832 M-454.50850,-289.23268 L-454.50850,-206.59477 L-428.36091,-194.70950 L-428.36091,-272.59330 L-454.50850,-289.23268 M-405.94868,-258.33098 L-405.94868,-184.52213 L-386.52476,-175.69307 L-386.52476,-245.97030 L-405.94868,-258.33098 M-369.52882,-235.15471 L-369.52882,-167.96765 L-354.53241,-161.15110 L-354.53241,-225.61153 L-369.52882,-235.15471 M-341.20227,-217.12871 L-341.20227,-155.09194 L-329.27529,-149.67059 L-329.27529,-209.53882 L-341.20227,-217.12871 M-318.54102,-202.70792 L-318.54102,-144.79137 L-308.82906,-140.37684 L-308.82906,-196.52758 L-318.54102,-202.70792 M-485.41020,-220.64100 L-485.41020,-132.38460 L-454.50850,-123.95686 L-454.50850,-206.59477 L-485.41020,-220.64100 M-428.36091,-194.70950 L-428.36091,-116.82570 L-405.94868,-110.71328 L-405.94868,-184.52213 L-428.36091,-194.70950 M-386.52476,-175.69307 L-386.52476,-105.41584 L-369.52882,-100.78059 L-369.52882,-167.96765 L-386.52476,-175.69307 M-354.53241,-161.15110 L-354.53241,-96.69066 L-341.20227,-93.05516 L-341.20227,-155.09194 L-354.53241,-161.15110 M-329.27529,-149.67059 L-329.27529,-89.80235 L-318.54102,-86.87482 L-318.54102,-144.79137 L-329.27529,-149.67059 M-308.82906,-140.37684 L-308.82906,-84.22611 L-300.00000,-81.81818 L-300.00000,-136.36364 L-308.82906,-140.37684 M-454.50850,-123.95686 L-454.50850,-41.31895 L-428.36091,-38.94190 L-428.36091,-116.82570 L-454.50850,-123.95686 M-405.94868,-110.71328 L-405.94868,-36.90443 L-386.52476,-35.13861 L-386.52476,-105.41584 L-405.94868,-110.71328 M-369.52882,-100.78059 L-369.52882,-33.59353 L-354.53241,-32.23022 L-354.53241,-96.69066 L-369.52882,-100.78059 M-341.20227,-93.05516 L-341.20227,-31.01839 L-329.27529,-29.93412 L-329.27529,-89.80235 L-341.20227,-93.05516 M-318.54102,-86.87482 L-318.54102,-28.95827 L-308.82906,-28.07537 L-308.82906,-84.22611 L-318.54102,-86.87482 M-485.41020,-44.12820 L-485.41020,44.12820 L-454.50850,41.31895 L-454.50850,-41.31895 L-485.41020,-44.12820 M-428.36091,-38.94190 L-428.36091,38.94190 L-405.94868,36.90443 L-405.94868,-36.90443 L-428.36091,-38.94190 M-386.52476,-35.13861 L-386.52476,35.13861 L-369.52882,33.59353 L-369.52882,-33.59353 L-386.52476,-35.13861 M-354.53241,-32.23022 L-354.53241,32.23022 L-341.20227,31.01839 L-341.20227,-31.01839 L-354.53241,-32.23022 M-329.27529,-29.93412 L-329.27529,29.93412 L-318.54102,28.95827 L-318.54102,-28.95827 L-329.27529,-29.93412 M-308.82906,-28.07537 L-308.82906,28.07537 L-300.00000,27.27273 L-300.00000,-27.27273 L-308.82906,-28.07537 M-454.50850,41.31895 L-454.50850,123.95686 L-428.36091,116.82570 L-428.36091,38.94190 L-454.50850,41.31895 M-405.94868,36.90443 L-405.94868,110.71328 L-386.52476,105.41584 L-386.52476,35.13861 L-405.94868,36.90443 M-369.52882,33.59353 L-369.52882,100.78059 L-354.53241,96.69066 L-354.53241,32.23022 L-369.52882,33.59353 M-341.20227,31.01839 L-341.20227,93.05516 L-329.27529,89.80235 L-329.27529,29.93412 L-341.20227,31.01839 M-318.54102,28.95827 L-318.54102,86.87482 L-308.82906,84.22611 L-308.82906,28.07537 L-318.54102,28.95827 M-485.41020,132.38460 L-485.41020,220.64100 L-454.50850,206.59477 L-454.50850,123.95686 L-485.41020,132.38460 M-428.36091,116.82570 L-428.36091,194.70950 L-405.94868,184.52213 L-405.94868,110.71328 L-428.36091,116.82570 M-386.52476,105.41584 L-386.52476,175.69307 L-369.52882,167.96765 L-369.52882,100.78059 L-386.52476,105.41584 M-354.53241,96.69066 L-354.53241,161.15110 L-341.20227,155.09194 L-341.20227,93.05516 L-354.53241,96.69066 M-329.27529,89.80235 L-329.27529,149.67059 L-318.54102,144.79137 L-318.54102,86.87482 L-329.27529,89.80235 M-308.82906,84.22611 L-308.82906,140.37684 L-300.00000,136.36364 L-300.00000,81.81818 L-308.82906,84.22611 M-454.50850,206.59477 L-454.50850,289.23268 L-428.36091,272.59330 L-428.36091,194.70950 L-454.50850,206.59477 M-405.94868,184.52213 L-405.94868,258.33098 L-386.52476,245.97030 L-386.52476,175.69307 L-405.94868,184.52213 M-369.52882,167.96765 L-369.52882,235.15471 L-354.53241,225.61153 L-354.53241,161.15110 L-369.52882,167.96765 M-341.20227,155.09194 L-341.20227,217.12871 L-329.27529,209.53882 L-329.27529,149.67059 L-341.20227,155.09194 M-318.54102,144.79137 L-318.54102,202.70792 L-308.82906,196.52758 L-308.82906,140.37684 L-318.54102,144.79137 M-485.41020,308.89740 L-485.41020,397.15380 L-454.50850,371.87059 L-454.50850,289.23268 L-485.41020,308.89740 M-428.36091,272.59330 L-428.36091,350.47710 L-405.94868,332.13983 L-405.94868,258.33098 L-428.36091,272.59330 M-386.52476,245.97030 L-386.52476,316.24753 L-369.52882,302.34176 L-369.52882,235.15471 L-386.52476,245.97030 M-354.53241,225.61153 L-354.53241,290.07197 L-341.20227,279.16549 L-341.20227,217.12871 L-354.53241,225.61153 M-329.27529,209.53882 L-329.27529,269.40706 L-318.54102,260.62447 L-318.54102,202.70792 L-329.27529,209.53882 M-308.82906,196.52758 L-308.82906,252.67832 L-300.00000,245.45455 L-300.00000,190.90909 L-308.82906,196.52758 M-454.50850,371.87059 L-454.50850,454.50850 L-428.36091,428.36091 L-428.36091,350.47710 L-454.50850,371.87059 M-405.94868,332.13983 L-405.94868,405.94868 L-386.52476,386.52476 L-386.52476,316.24753 L-405.94868,332.13983 M-369.52882,302.34176 L-369.52882,369.52882 L-354.53241,354.53241 L-354.53241,290.07197 L-369.52882,302.34176 M-341.20227,279.16549 L-341.20227,341.20227 L-329.27529,329.27529 L-329.27529,269.40706 L-341.20227,279.16549 M-318.54102,260.62447 L-318.54102,318.54102 L-308.82906,308.82906 L-308.82906,252.67832 L-318.54102,260.62447 M-454.50850,454.50850 L-371.87059,454.50850 L-350.47710,428.36091 L-428.36091,428.36091 L-454.50850,454.50850 M-405.94868,405.94868 L-332.13983,405.94868 L-316.24753,386.52476 L-386.52476,386.52476 L-405.94868,405.94868 M-369.52882,369.52882 L-302.34176,369.52882 L-290.07197,354.53241 L-354.53241,354.53241 L-369.52882,369.52882 M-341.20227,341.20227 L-279.16549,341.20227 L-269.40706,329.27529 L-329.27529,329.27529 L-341.20227,341.20227 M-318.54102,318.54102 L-260.62447,318.54102 L-252.67832,308.82906 L-308.82906,308.82906 L-318.54102,318.54102 M-397.15380,485.41020 L-308.89740,485.41020 L-289.23268,454.50850 L-371.87059,454.50850 L-397.15380,485.41020 M-350.47710,428.36091 L-272.59330,428.36091 L-258.33098,405.94868 L-332.13983,405.94868 L-350.47710,428.36091 M-316.24753,386.52476 L-245.97030,386.52476 L-235.15471,369.52882 L-302.34176,369.52882 L-316.24753,386.52476 M-290.07197,354.53241 L-225.61153,354.53241 L-217.12871,341.20227 L-279.16549,341.20227 L-290.07197,354.53241 M-269.40706,329.27529 L-209.53882,329.27529 L-202.70792,318.54102 L-260.62447,318.54102 L-269.40706,329.27529 M-252.67832,308.82906 L-196.52758,308.82906 L-190.90909,300.00000 L-245.45455,300.00000 L-252.67832,308.82906 M-289.23268,454.50850 L-206.59477,454.50850 L-194.70950,428.36091 L-272.59330,428.36091 L-289.23268,454.50850 M-258.33098,405.94868 L-184.52213,405.94868 L-175.69307,386.52476 L-245.97030,386.52476 L-258.33098,405.94868 M-235.15471,369.52882 L-167.96765,369.52882 L-161.15110,354.53241 L-225.61153,354.53241 L-235.15471,369.52882 M-217.12871,341.20227 L-155.09194,341.20227 L-149.67059,329.27529 L-209.53882,329.27529 L-217.12871,341.20227 M-202.70792,318.54102 L-144.79137,318.54102 L-140.37684,308.82906 L-196.52758,308.82906 L-202.70792,318.54102 M-220.64100,485.41020 L-132.38460,485.41020 L-123.95686,454.50850 L-206.59477,454.50850 L-220.64100,485.41020 M-194.70950,428.36091 L-116.82570,428.36091 L-110.71328,405.94868 L-184.52213,405.94868 L-194.70950,428.36091 M-175.69307,386.52476 L-105.41584,386.52476 L-100.78059,369.52882 L-167.96765,369.52882 L-175.69307,386.52476 M-161.15110,354.53241 L-96.69066,354.53241 L-93.05516,341.20227 L-155.09194,341.20227 L-161.15110,354.53241 M-149.67059,329.27529 L-89.80235,329.27529 L-86.87482,318.54102 L-144.79137,318.54102 L-149.67059,329.27529 M-140.37684,308.82906 L-84.22611,308.82906 L-81.81818,300.00000 L-136.36364,300.00000 L-140.37684,308.82906 M-123.95686,454.50850 L-41.31895,454.50850 L-38.94190,428.36091 L-116.82570,428.36091 L-123.95686,454.50850 M-110.71328,405.94868 L-36.90443,405.94868 L-35.13861,386.52476 L-105.41584,386.52476 L-110.71328,405.94868 M-100.78059,369.52882 L-33.59353,369.52882 L-32.23022,354.53241 L-96.69066,354.53241 L-100.78059,369.52882 M-93.05516,341.20227 L-31.01839,341.20227 L-29.93412,329.27529 L-89.80235,329.27529 L-93.05516,341.20227 M-86.87482,318.54102 L-28.95827,318.54102 L-28.07537,308.82906 L-84.22611,308.82906 L-86.87482,318.54102 M-44.12820,485.41020 L44.12820,485.41020 L41.31895,454.50850 L-41.31895,454.50850 L-44.12820,485.41020 M-38.94190,428.36091 L38.94190,428.36091 L36.90443,405.94868 L-36.90443,405.94868 L-38.94190,428.36091 M-35.13861,386.52476 L35.13861,386.52476 L33.59353,369.52882 L-33.59353,369.52882 L-35.13861,386.52476 M-32.23022,354.53241 L32.23022,354.53241 L31.01839,341.20227 L-31.01839,341.20227 L-32.23022,354.53241 M-29.93412,329.27529 L29.93412,329.27529 L28.95827,318.54102 L-28.95827,318.54102 L-29.93412,329.27529 M-28.07537,308.82906 L28.07537,308.82906 L27.27273,300.00000 L-27.27273,300.00000 L-28.07537,308.82906 M41.31895,454.50850 L123.95686,454.50850 L116.82570,428.36091 L38.94190,428.36091 L41.31895,454.50850 M36.90443,405.94868 L110.71328,405.94868 L105.41584,386.52476 L35.13861,386.52476 L36.90443,405.94868 M33.59353,369.52882 L100.78059,369.52882 L96.69066,354.53241 L32.23022,354.53241 L33.59353,369.52882 M31.01839,341.20227 L93.05516,341.20227 L89.80235,329.27529 L29.93412,329.27529 L31.01839,341.20227 M28.95827,318.54102 L86.87482,318.54102 L84.22611,308.82906 L28.07537,308.82906 L28.95827,318.54102 M132.38460,485.41020 L220.64100,485.41020 L206.59477,454.50850 L123.95686,454.50850 L132.38460,485.41020 M116.82570,428.36091 L194.70950,428.36091 L184.52213,405.94868 L110.71328,405.94868 L116.82570,428.36091 M105.41584,386.52476 L175.69307,386.52476 L167.96765,369.52882 L100.78059,369.52882 L105.41584,386.52476 M96.69066,354.53241 L161.15110,354.53241 L155.09194,341.20227 L93.05516,341.20227 L96.69066,354.53241 M89.80235,329.27529 L149.67059,329.27529 L144.79137,318.54102 L86.87482,318.54102 L89.80235,329.27529 M84.22611,308.82906 L140.37684,308.82906 L136.36364,300.00000 L81.81818,300.00000 L84.22611,308.82906 M206.59477,454.50850 L289.23268,454.50850 L272.59330,428.36091 L194.70950,428.36091 L206.59477,454.50850 M184.52213,405.94868 L258.33098,405.94868 L245.97030,386.52476 L175.69307,386.52476 L184.52213,405.94868 M167.96765,369.52882 L235.15471,369.52882 L225.61153,354.53241 L161.15110,354.53241 L167.96765,369.52882 M155.09194,341.20227 L217.12871,341.20227 L209.53882,329.27529 L149.67059,329.27529 L155.09194,341.20227 M144.79137,318.54102 L202.70792,318.54102 L196.52758,308.82906 L140.37684,308.82906 L144.79137,318.54102 M308.89740,485.41020 L397.15380,485.41020 L371.87059,454.50850 L289.23268,454.50850 L308.89740,485.41020 M272.59330,428.36091 L350.47710,428.36091 L332.13983,405.94868 L258.33098,405.94868 L272.59330,428.36091 M245.97030,386.52476 L316.24753,386.52476 L302.34176,369.52882 L235.15471,369.52882 L245.97030,386.52476 M225.61153,354.53241 L290.07197,354.53241 L279.16549,341.20227 L217.12871,341.20227 L225.61153,354.53241 M209.53882,329.27529 L269.40706,329.27529 L260.62447,318.54102 L202.70792,318.54102 L209.53882,329.27529 M196.52758,308.82906 L252.67832,308.82906 L245.45455,300.00000 L190.90909,300.00000 L196.52758,308.82906 M371.87059,454.50850 L454.50850,454.50850 L428.36091,428.36091 L350.47710,428.36091 L371.87059,454.50850 M332.13983,405.94868 L405.94868,405.94868 L386.52476,386.52476 L316.24753,386.52476 L332.13983,405.94868 M302.34176,369.52882 L369.52882,369.52882 L354.53241,354.53241 L290.07197,354.53241 L302.34176,369.52882 M279.16549,341.20227 L341.20227,341.20227 L329.27529,329.27529 L269.40706,329.27529 L279.16549,341.20227 M260.62447,318.54102 L318.54102,318.54102 L308.82906,308.82906 L252.67832,308.82906 L260.62447,318.54102"/>
    <path style="stroke:black; stroke-width:3;fill:#faff00" d="M-300.00000,-245.45455 L-245.45455,-245.45455 L-245.45455,-190.90909 L-300.00000,-190.90909 L-300.00000,-245.45455 M-300.00000,-136.36364 L-245.45455,-136.36364 L-245.45455,-81.81818 L-300.00000,-81.81818 L-300.00000,-136.36364 M-300.00000,-27.27273 L-245.45455,-27.27273 L-245.45455,27.27273 L-300.00000,27.27273 L-300.00000,-27.27273 M-300.00000,81.81818 L-245.45455,81.81818 L-245.45455,136.36364 L-300.00000,136.36364 L-300.00000,81.81818 M-300.00000,190.90909 L-245.45455,190.90909 L-245.45455,245.45455 L-300.00000,245.45455 L-300.00000,190.90909 M-245.45455,-300.00000 L-190.90909,-300.00000 L-190.90909,-245.45455 L-245.45455,-245.45455 L-245.45455,-300.00000 M-245.45455,-190.90909 L-190.90909,-190.90909 L-190.90909,-136.36364 L-245.45455,-136.36364 L-245.45455,-190.90909 M-245.45455,-81.81818 L-190.90909,-81.81818 L-190.90909,-27.27273 L-245.45455,-27.27273 L-245.45455,-81.81818 M-245.45455,27.27273 L-190.90909,27.27273 L-190.90909,81.81818 L-245.45455,81.81818 L-245.45455,27.27273 M-245.45455,136.36364 L-190.90909,136.36364 L-190.90909,190.90909 L-245.45455,190.90909 L-245.45455,136.36364 M-245.45455,245.45455 L-190.90909,245.45455 L-190.90909,300.00000 L-245.45455,300.00000 L-245.45455,245.45455 M-190.90909,-245.45455 L-136.36364,-245.45455 L-136.36364,-190.90909 L-190.90909,-190.90909 L-190.90909,-245.45455 M-190.90909,-136.36364 L-136.36364,-136.36364 L-136.36364,-81.81818 L-190.90909,-81.81818 L-190.90909,-136.36364 M-190.90909,-27.27273 L-136.36364,-27.27273 L-136.36364,27.27273 L-190.90909,27.27273 L-190.90909,-27.27273 M-190.90909,81.81818 L-136.36364,81.81818 L-136.36364,136.36364 L-190.90909,136.36364 L-190.90909,81.81818 M-190.90909,190.90909 L-136.36364,190.90909 L-136.36364,245.45455 L-190.90909,245.45455 L-190.90909,190.90909 M-136.36364,-300.00000 L-81.81818,-300.00000 L-81.81818,-245.45455 L-136.36364,-245.45455 L-136.36364,-300.00000 M-136.36364,-190.90909 L-81.81818,-190.90909 L-81.81818,-136.36364 L-136.36364,-136.36364 L-136.36364,-190.90909 M-136.36364,-81.81818 L-81.81818,-81.81818 L-81.81818,-27.27273 L-136.36364,-27.27273 L-136.36364,-81.81818 M-136.36364,27.27273 L-81.81818,27.27273 L-81.81818,81.81818 L-136.36364,81.81818 L-136.36364,27.27273 M-136.36364,136.36364 L-81.81818,136.36364 L-81.81818,190.90909 L-136.36364,190.90909 L-136.36364,136.36364 M-136.36364,245.45455 L-81.81818,245.45455 L-81.81818,300.00000 L-136.36364,300.00000 L-136.36364,245.45455 M-81.81818,-245.45455 L-27.27273,-245.45455 L-27.27273,-190.90909 L-81.81818,-190.90909 L-81.81818,-245.45455 M-81.81818,-136.36364 L-27.27273,-136.36364 L-27.27273,-81.81818 L-81.81818,-81.81818 L-81.81818,-136.36364 M-81.81818,-27.27273 L-27.27273,-27.27273 L-27.27273,27.27273 L-81.81818,27.27273 L-81.81818,-27.27273 M-81.81818,81.81818 L-27.27273,81.81818 L-27.27273,136.36364 L-81.81818,136.36364 L-81.81818,81.81818 M-81.81818,190.90909 L-27.27273,190.90909 L-27.27273,245.45455 L-81.81818,245.45455 L-81.81818,190.90909 M-27.27273,-300.00000 L27.27273,-300.00000 L27.27273,-245.45455 L-27.27273,-245.45455 L-27.27273,-300.00000 M-27.27273,-190.90909 L27.27273,-190.90909 L27.27273,-136.36364 L-27.27273,-136.36364 L-27.27273,-190.90909 M-27.27273,-81.81818 L27.27273,-81.81818 L27.27273,-27.27273 L-27.27273,-27.27273 L-27.27273,-81.81818 M-27.27273,27.27273 L27.27273,27.27273 L27.27273,81.81818 L-27.27273,81.81818 L-27.27273,27.27273 M-27.27273,136.36364 L27.27273,136.36364 L27.27273,190.90909 L-27.27273,190.90909 L-27.27273,136.36364 M-27.27273,245.45455 L27.27273,245.45455 L27.27273,300.00000 L-27.27273,300.00000 L-27.27273,245.45455 M27.27273,-245.45455 L81.81818,-245.45455 L81.81818,-190.90909 L27.27273,-190.90909 L27.27273,-245.45455 M27.27273,-136.36364 L81.81818,-136.36364 L81.81818,-81.81818 L27.27273,-81.81818 L27.27273,-136.36364 M27.27273,-27.27273 L81.81818,-27.27273 L81.81818,27.27273 L27.27273,27.27273 L27.27273,-27.27273 M27.27273,81.81818 L81.81818,81.81818 L81.81818,136.36364 L27.27273,136.36364 L27.27273,81.81818 M27.27273,190.90909 L81.81818,190.90909 L81.81818,245.45455 L27.27273,245.45455 L27.27273,190.90909 M81.81818,-300.00000 L136.36364,-300.00000 L136.36364,-245.45455 L81.81818,-245.45455 L81.81818,-300.00000 M81.81818,-190.90909 L136.36364,-190.90909 L136.36364,-136.36364 L81.81818,-136.36364 L81.81818,-190.90909 M81.81818,-81.81818 L136.36364,-81.81818 L136.36364,-27.27273 L81.81818,-27.27273 L81.81818,-81.81818 M81.81818,27.27273 L136.36364,27.27273 L136.36364,81.81818 L81.81818,81.81818 L81.81818,27.27273 M81.81818,136.36364 L136.36364,136.36364 L136.36364,190.90909 L81.81818,190.90909 L81.81818,136.36364 M81.81818,245.45455 L136.36364,245.45455 L136.36364,300.00000 L81.81818,300.00000 L81.81818,245.45455 M136.36364,-245.45455 L190.90909,-245.45455 L190.90909,-190.90909 L136.36364,-190.90909 L136.36364,-245.45455 M136.36364,-136.36364 L190.90909,-136.36364 L190.90909,-81.81818 L136.36364,-81.81818 L136.36364,-136.36364 M136.36364,-27.27273 L190.90909,-27.27273 L190.90909,27.27273 L136.36364,27.27273 L136.36364,-27.27273 M136.36364,81.81818 L190.90909,81.81818 L190.90909,136.36364 L136.36364,136.36364 L136.36364,81.81818 M136.36364,190.90909 L190.90909,190.90909 L190.90909,245.45455 L136.36364,245.45455 L136.36364,190.90909 M190.90909,-300.00000 L245.45455,-300.00000 L245.45455,-245.45455 L190.90909,-245.45455 L190.90909,-300.00000 M190.90909,-190.90909 L245.45455,-190.90909 L245.45455,-136.36364 L190.90909,-136.36364 L190.90909,-190.90909 M190.90909,-81.81818 L245.45455,-81.81818 L245.45455,-27.27273 L190.90909,-27.27273 L190.90909,-81.81818 M190.90909,27.27273 L245.45455,27.27273 L245.45455,81.81818 L190.90909,81.81818 L190.90909,27.27273 M190.90909,136.36364 L245.45455,136.36364 L245.45455,190.90909 L190.90909,190.90909 L190.90909,136.36364 M190.90909,245.45455 L245.45455,245.45455 L245.45455,300.00000 L190.90909,300.00000 L190.90909,245.45455 M245.45455,-245.45455 L300.00000,-245.45455 L300.00000,-190.90909 L245.45455,-190.90909 L245.45455,-245.45455 M245.45455,-136.36364 L300.00000,-136.36364 L300.00000,-81.81818 L245.45455,-81.81818 L245.45455,-136.36364 M245.45455,-27.27273 L300.00000,-27.27273 L300.00000,27.27273 L245.45455,27.27273 L245.45455,-27.27273 M245.45455,81.81818 L300.00000,81.81818 L300.00000,136.36364 L245.45455,136.36364 L245.45455,81.81818 M245.45455,190.90909 L300.00000,190.90909 L300.00000,245.45455 L245.45455,245.45455 L245.45455,190.90909 M485.41020,485.41020 L485.41020,397.15380 L454.50850,371.87059 L454.50850,454.50850 L485.41020,485.41020 M428.36091,428.36091 L428.36091,350.47710 L405.94868,332.13983 L405.94868,405.94868 L428.36091,428.36091 M386.52476,386.52476 L386.52476,316.24753 L369.52882,302.34176 L369.52882,369.52882 L386.52476,386.52476 M354.53241,354.53241 L354.53241,290.07197 L341.20227,279.16549 L341.20227,341.20227 L354.53241,354.53241 M329.27529,329.27529 L329.27529,269.40706 L318.54102,260.62447 L318.54102,318.54102 L329.27529,329.27529 M308.82906,308.82906 L308.82906,252.67832 L300.00000,245.45455 L300.00000,300.00000 L308.82906,308.82906 M454.50850,371.87059 L454.50850,289.23268 L428.36091,272.59330 L428.36091,350.47710 L454.50850,371.87059 M405.94868,332.13983 L405.94868,258.33098 L386.52476,245.97030 L386.52476,316.24753 L405.94868,332.13983 M369.52882,302.34176 L369.52882,235.15471 L354.53241,225.61153 L354.53241,290.07197 L369.52882,302.34176 M341.20227,279.16549 L341.20227,217.12871 L329.27529,209.53882 L329.27529,269.40706 L341.20227,279.16549 M318.54102,260.62447 L318.54102,202.70792 L308.82906,196.52758 L308.82906,252.67832 L318.54102,260.62447 M485.41020,308.89740 L485.41020,220.64100 L454.50850,206.59477 L454.50850,289.23268 L485.41020,308.89740 M428.36091,272.59330 L428.36091,194.70950 L405.94868,184.52213 L405.94868,258.33098 L428.36091,272.59330 M386.52476,245.97030 L386.52476,175.69307 L369.52882,167.96765 L369.52882,235.15471 L386.52476,245.97030 M354.53241,225.61153 L354.53241,161.15110 L341.20227,155.09194 L341.20227,217.12871 L354.53241,225.61153 M329.27529,209.53882 L329.27529,149.67059 L318.54102,144.79137 L318.54102,202.70792 L329.27529,209.53882 M308.82906,196.52758 L308.82906,140.37684 L300.00000,136.36364 L300.00000,190.90909 L308.82906,196.52758 M454.50850,206.59477 L454.50850,123.95686 L428.36091,116.82570 L428.36091,194.70950 L454.50850,206.59477 M405.94868,184.52213 L405.94868,110.71328 L386.52476,105.41584 L386.52476,175.69307 L405.94868,184.52213 M369.52882,167.96765 L369.52882,100.78059 L354.53241,96.69066 L354.53241,161.15110 L369.52882,167.96765 M341.20227,155.09194 L341.20227,93.05516 L329.27529,89.80235 L329.27529,149.67059 L341.20227,155.09194 M318.54102,144.79137 L318.54102,86.87482 L308.82906,84.22611 L308.82906,140.37684 L318.54102,144.79137 M485.41020,132.38460 L485.41020,44.12820 L454.50850,41.31895 L454.50850,123.95686 L485.41020,132.38460 M428.36091,116.82570 L428.36091,38.94190 L405.94868,36.90443 L405.94868,110.71328 L428.36091,116.82570 M386.52476,105.41584 L386.52476,35.13861 L369.52882,33.59353 L369.52882,100.78059 L386.52476,105.41584 M354.53241,96.69066 L354.53241,32.23022 L341.20227,31.01839 L341.20227,93.05516 L354.53241,96.69066 M329.27529,89.80235 L329.27529,29.93412 L318.54102,28.95827 L318.54102,86.87482 L329.27529,89.80235 M308.82906,84.22611 L308.82906,28.07537 L300.00000,27.27273 L300.00000,81.81818 L308.82906,84.22611 M454.50850,41.31895 L454.50850,-41.31895 L428.36091,-38.94190 L428.36091,38.94190 L454.50850,41.31895 M405.94868,36.90443 L405.94868,-36.90443 L386.52476,-35.13861 L386.52476,35.13861 L405.94868,36.90443 M369.52882,33.59353 L369.52882,-33.59353 L354.53241,-32.23022 L354.53241,32.23022 L369.52882,33.59353 M341.20227,31.01839 L341.20227,-31.01839 L329.27529,-29.93412 L329.27529,29.93412 L341.20227,31.01839 M318.54102,28.95827 L318.54102,-28.95827 L308.82906,-28.07537 L308.82906,28.07537 L318.54102,28.95827 M485.41020,-44.12820 L485.41020,-132.38460 L454.50850,-123.95686 L454.50850,-41.31895 L485.41020,-44.12820 M428.36091,-38.94190 L428.36091,-116.82570 L405.94868,-110.71328 L405.94868,-36.90443 L428.36091,-38.94190 M386.52476,-35.13861 L386.52476,-105.41584 L369.52882,-100.78059 L369.52882,-33.59353 L386.52476,-35.13861 M354.53241,-32.23022 L354.53241,-96.69066 L341.20227,-93.05516 L341.20227,-31.01839 L354.53241,-32.23022 M329.27529,-29.93412 L329.27529,-89.80235 L318.54102,-86.87482 L318.54102,-28.95827 L329.27529,-29.93412 M308.82906,-28.07537 L308.82906,-84.22611 L300.00000,-81.81818 L300.00000,-27.27273 L308.82906,-28.07537 M454.50850,-123.95686 L454.50850,-206.59477 L428.36091,-194.70950 L428.36091,-116.82570 L454.50850,-123.95686 M405.94868,-110.71328 L405.94868,-184.52213 L386.52476,-175.69307 L386.52476,-105.41584 L405.94868,-110.71328 M369.52882,-100.78059 L369.52882,-167.96765 L354.53241,-161.15110 L354.53241,-96.69066 L369.52882,-100.78059 M341.20227,-93.05516 L341.20227,-155.09194 L329.27529,-149.67059 L329.27529,-89.80235 L341.20227,-93.05516 M318.54102,-86.87482 L318.54102,-144.79137 L308.82906,-140.37684 L308.82906,-84.22611 L318.54102,-86.87482 M485.41020,-220.64100 L485.41020,-308.89740 L454.50850,-289.23268 L454.50850,-206.59477 L485.41020,-220.64100 M428.36091,-194.70950 L428.36091,-272.59330 L405.94868,-258.33098 L405.94868,-184.52213 L428.36091,-194.70950 M386.52476,-175.69307 L386.52476,-245.97030 L369.52882,-235.15471 L369.52882,-167.96765 L386.52476,-175.69307 M354.53241,-161.15110 L354.53241,-225.61153 L341.20227,-217.12871 L341.20227,-155.09194 L354.53241,-161.15110 M329.27529,-149.67059 L329.27529,-209.53882 L318.54102,-202.70792 L318.54102,-144.79137 L329.27529,-149.67059 M308.82906,-140.37684 L308.82906,-196.52758 L300.00000,-190.90909 L300.00000,-136.36364 L308.82906,-140.37684 M454.50850,-289.23268 L454.50850,-371.87059 L428.36091,-350.47710 L428.36091,-272.59330 L454.50850,-289.23268 M405.94868,-258.33098 L405.94868,-332.13983 L386.52476,-316.24753 L386.52476,-245.97030 L405.94868,-258.33098 M369.52882,-235.15471 L369.52882,-302.34176 L354.53241,-290.07197 L354.53241,-225.61153 L369.52882,-235.15471 M341.20227,-217.12871 L341.20227,-279.16549 L329.27529,-269.40706 L329.27529,-209.53882 L341.20227,-217.12871 M318.54102,-202.70792 L318.54102,-260.62447 L308.82906,-252.67832 L308.82906,-196.52758 L318.54102,-202.70792 M485.41020,-397.15380 L485.41020,-485.41020 L454.50850,-454.50850 L454.50850,-371.87059 L485.41020,-397.15380 M428.36091,-350.47710 L428.36091,-428.36091 L405.94868,-405.94868 L405.94868,-332.13983 L428.36091,-350.47710 M386.52476,-316.24753 L386.52476,-386.52476 L369.52882,-369.52882 L369.52882,-302.34176 L386.52476,-316.24753 M354.53241,-290.07197 L354.53241,-354.53241 L341.20227,-341.20227 L341.20227,-279.16549 L354.53241,-290.07197 M329.27529,-269.40706 L329.27529,-329.27529 L318.54102,-318.54102 L318.54102,-260.62447 L329.27529,-269.40706 M308.82906,-252.67832 L308.82906,-308.82906 L300.00000,-300.00000 L300.00000,-245.45455 L308.82906,-252.67832 M485.41020,-485.41020 L397.15380,-485.41020 L371.87059,-454.50850 L454.50850,-454.50850 L485.41020,-485.41020 M428.36091,-428.36091 L350.47710,-428.36091 L332.13983,-405.94868 L405.94868,-405.94868 L428.36091,-428.36091 M386.52476,-386.52476 L316.24753,-386.52476 L302.34176,-369.52882 L369.52882,-369.52882 L386.52476,-386.52476 M354.53241,-354.53241 L290.07197,-354.53241 L279.16549,-341.20227 L341.20227,-341.20227 L354.53241,-354.53241 M329.27529,-329.27529 L269.40706,-329.27529 L260.62447,-318.54102 L318.54102,-318.54102 L329.27529,-329.27529 M308.82906,-308.82906 L252.67832,-308.82906 L245.45455,-300.00000 L300.00000,-300.00000 L308.82906,-308.82906 M371.87059,-454.50850 L289.23268,-454.50850 L272.59330,-428.36091 L350.47710,-428.36091 L371.87059,-454.50850 M332.13983,-405.94868 L258.33098,-405.94868 L245.97030,-386.52476 L316.24753,-386.52476 L332.13983,-405.94868 M302.34176,-369.52882 L235.15471,-369.52882 L225.61153,-354.53241 L290.07197,-354.53241 L302.34176,-369.52882 M279.16549,-341.20227 L217.12871,-341.20227 L209.53882,-329.27529 L269.40706,-329.27529 L279.16549,-341.20227 M260.62447,-318.54102 L202.70792,-318.54102 L196.52758,-308.82906 L252.67832,-308.82906 L260.62447,-318.54102 M308.89740,-485.41020 L220.64100,-485.41020 L206.59477,-454.50850 L289.23268,-454.50850 L308.89740,-485.41020 M272.59330,-428.36091 L194.70950,-428.36091 L184.52213,-405.94868 L258.33098,-405.94868 L272.59330,-428.36091 M245.97030,-386.52476 L175.69307,-386.52476 L167.96765,-369.52882 L235.15471,-369.52882 L245.97030,-386.52476 M225.61153,-354.53241 L161.15110,-354.53241 L155.09194,-341.20227 L217.12871,-341.20227 L225.61153,-354.53241 M209.53882,-329.27529 L149.67059,-329.27529 L144.79137,-318.54102 L202.70792,-318.54102 L209.53882,-329.27529 M196.52758,-308.82906 L140.37684,-308.82906 L136.36364,-300.00000 L190.90909,-300.00000 L196.52758,-308.82906 M206.59477,-454.50850 L123.95686,-454.50850 L116.82570,-428.36091 L194.70950,-428.36091 L206.59477,-454.50850 M184.52213,-405.94868 L110.71328,-405.94868 L105.41584,-386.52476 L175.69307,-386.52476 L184.52213,-405.94868 M167.96765,-369.52882 L100.78059,-369.52882 L96.69066,-354.53241 L161.15110,-354.53241 L167.96765,-369.52882 M155.09194,-341.20227 L93.05516,-341.20227 L89.80235,-329.27529 L149.67059,-329.27529 L155.09194,-341.20227 M144.79137,-318.54102 L86.87482,-318.54102 L84.22611,-308.82906 L140.37684,-308.82906 L144.79137,-318.54102 M132.38460,-485.41020 L44.12820,-485.41020 L41.31895,-454.50850 L123.95686,-454.50850 L132.38460,-485.41020 M116.82570,-428.36091 L38.94190,-428.36091 L36.90443,-405.94868 L110.71328,-405.94868 L116.82570,-428.36091 M105.41584,-386.52476 L35.13861,-386.52476 L33.59353,-369.52882 L100.78059,-369.52882 L105.41584,-386.52476 M96.69066,-354.53241 L32.23022,-354.53241 L31.01839,-341.20227 L93.05516,-341.20227 L96.69066,-354.53241 M89.80235,-329.27529 L29.93412,-329.27529 L28.95827,-318.54102 L86.87482,-318.54102 L89.80235,-329.27529 M84.22611,-308.82906 L28.07537,-308.82906 L27.27273,-300.00000 L81.81818,-300.00000 L84.22611,-308.82906 M41.31895,-454.50850 L-41.31895,-454.50850 L-38.94190,-428.36091 L38.94190,-428.36091 L41.31895,-454.50850 M36.90443,-405.94868 L-36.90443,-405.94868 L-35.13861,-386.52476 L35.13861,-386.52476 L36.90443,-405.94868 M33.59353,-369.52882 L-33.59353,-369.52882 L-32.23022,-354.53241 L32.23022,-354.53241 L33.59353,-369.52882 M31.01839,-341.20227 L-31.01839,-341.20227 L-29.93412,-329.27529 L29.93412,-329.27529 L31.01839,-341.20227 M28.95827,-318.54102 L-28.95827,-318.54102 L-28.07537,-308.82906 L28.07537,-308.82906 L28.95827,-318.54102 M-44.12820,-485.41020 L-132.38460,-485.41020 L-123.95686,-454.50850 L-41.31895,-454.50850 L-44.12820,-485.41020 M-38.94190,-428.36091 L-116.82570,-428.36091 L-110.71328,-405.94868 L-36.90443,-405.94868 L-38.94190,-428.36091 M-35.13861,-386.52476 L-105.41584,-386.52476 L-100.78059,-369.52882 L-33.59353,-369.52882 L-35.13861,-386.52476 M-32.23022,-354.53241 L-96.69066,-354.53241 L-93.05516,-341.20227 L-31.01839,-341.20227 L-32.23022,-354.53241 M-29.93412,-329.27529 L-89.80235,-329.27529 L-86.87482,-318.54102 L-28.95827,-318.54102 L-29.93412,-329.27529 M-28.07537,-308.82906 L-84.22611,-308.82906 L-81.81818,-300.00000 L-27.27273,-300.00000 L-28.07537,-308.82906 M-123.95686,-454.50850 L-206.59477,-454.50850 L-194.70950,-428.36091 L-116.82570,-428.36091 L-123.95686,-454.50850 M-110.71328,-405.94868 L-184.52213,-405.94868 L-175.69307,-386.52476 L-105.41584,-386.52476 L-110.71328,-405.94868 M-100.78059,-369.52882 L-167.96765,-369.52882 L-161.15110,-354.53241 L-96.69066,-354.53241 L-100.78059,-369.52882 M-93.05516,-341.20227 L-155.09194,-341.20227 L-149.67059,-329.27529 L-89.80235,-329.27529 L-93.05516,-341.20227 M-86.87482,-318.54102 L-144.79137,-318.54102 L-140.37684,-308.82906 L-84.22611,-308.82906 L-86.87482,-318.54102 M-220.64100,-485.41020 L-308.89740,-485.41020 L-289.23268,-454.50850 L-206.59477,-454.50850 L-220.64100,-485.41020 M-194.70950,-428.36091 L-272.59330,-428.36091 L-258.33098,-405.94868 L-184.52213,-405.94868 L-194.70950,-428.36091 M-175.69307,-386.52476 L-245.97030,-386.52476 L-235.15471,-369.52882 L-167.96765,-369.52882 L-175.69307,-386.52476 M-161.15110,-354.53241 L-225.61153,-354.53241 L-217.12871,-341.20227 L-155.09194,-341.20227 L-161.15110,-354.53241 M-149.67059,-329.27529 L-209.53882,-329.27529 L-202.70792,-318.54102 L-144.79137,-318.54102 L-149.67059,-329.27529 M-140.37684,-308.82906 L-196.52758,-308.82906 L-190.90909,-300.00000 L-136.36364,-300.00000 L-140.37684,-308.82906 M-289.23268,-454.50850 L-371.87059,-454.50850 L-350.47710,-428.36091 L-272.59330,-428.36091 L-289.23268,-454.50850 M-258.33098,-405.94868 L-332.13983,-405.94868 L-316.24753,-386.52476 L-245.97030,-386.52476 L-258.33098,-405.94868 M-235.15471,-369.52882 L-302.34176,-369.52882 L-290.07197,-354.53241 L-225.61153,-354.53241 L-235.15471,-369.52882 M-217.12871,-341.20227 L-279.16549,-341.20227 L-269.40706,-329.27529 L-209.53882,-329.27529 L-217.12871,-341.20227 M-202.70792,-318.54102 L-260.62447,-318.54102 L-252.67832,-308.82906 L-196.52758,-308.82906 L-202.70792,-318.54102 M-397.15380,-485.41020 L-485.41020,-485.41020 L-454.50850,-454.50850 L-371.87059,-454.50850 L-397.15380,-485.41020 M-350.47710,-428.36091 L-428.36091,-428.36091 L-405.94868,-405.94868 L-332.13983,-405.94868 L-350.47710,-428.36091 M-316.24753,-386.52476 L-386.52476,-386.52476 L-369.52882,-369.52882 L-302.34176,-369.52882 L-316.24753,-386.52476 M-290.07197,-354.53241 L-354.53241,-354.53241 L-341.20227,-341.20227 L-279.16549,-341.20227 L-290.07197,-354.53241 M-269.40706,-329.27529 L-329.27529,-329.27529 L-318.54102,-318.54102 L-260.62447,-318.54102 L-269.40706,-329.27529 M-252.67832,-308.82906 L-308.82906,-308.82906 L-300.00000,-300.00000 L-245.45455,-300.00000 L-252.67832,-308.82906 M-485.41020,-485.41020 L-485.41020,-397.15380 L-454.50850,-371.87059 L-454.50850,-454.50850 L-485.41020,-485.41020 M-428.36091,-428.36091 L-428.36091,-350.47710 L-405.94868,-332.13983 L-405.94868,-405.94868 L-428.36091,-428.36091 M-386.52476,-386.52476 L-386.52476,-316.24753 L-369.52882,-302.34176 L-369.52882,-369.52882 L-386.52476,-386.52476 M-354.53241,-354.53241 L-354.53241,-290.07197 L-341.20227,-279.16549 L-341.20227,-341.20227 L-354.53241,-354.53241 M-329.27529,-329.27529 L-329.27529,-269.40706 L-318.54102,-260.62447 L-318.54102,-318.54102 L-329.27529,-329.27529 M-308.82906,-308.82906 L-308.82906,-252.67832 L-300.00000,-245.45455 L-300.00000,-300.00000 L-308.82906,-308.82906 M-454.50850,-371.87059 L-454.50850,-289.23268 L-428.36091,-272.59330 L-428.36091,-350.47710 L-454.50850,-371.87059 M-405.94868,-332.13983 L-405.94868,-258.33098 L-386.52476,-245.97030 L-386.52476,-316.24753 L-405.94868,-332.13983 M-369.52882,-302.34176 L-369.52882,-235.15471 L-354.53241,-225.61153 L-354.53241,-290.07197 L-369.52882,-302.34176 M-341.20227,-279.16549 L-341.20227,-217.12871 L-329.27529,-209.53882 L-329.27529,-269.40706 L-341.20227,-279.16549 M-318.54102,-260.62447 L-318.54102,-202.70792 L-308.82906,-196.52758 L-308.82906,-252.67832 L-318.54102,-260.62447 M-485.41020,-308.89740 L-485.41020,-220.64100 L-454.50850,-206.59477 L-454.50850,-289.23268 L-485.41020,-308.89740 M-428.36091,-272.59330 L-428.36091,-194.70950 L-405.94868,-184.52213 L-405.94868,-258.33098 L-428.36091,-272.59330 M-386.52476,-245.97030 L-386.52476,-175.69307 L-369.52882,-167.96765 L-369.52882,-235.15471 L-386.52476,-245.97030 M-354.53241,-225.61153 L-354.53241,-161.15110 L-341.20227,-155.09194 L-341.20227,-217.12871 L-354.53241,-225.61153 M-329.27529,-209.53882 L-329.27529,-149.67059 L-318.54102,-144.79137 L-318.54102,-202.70792 L-329.27529,-209.53882 M-308.82906,-196.52758 L-308.82906,-140.37684 L-300.00000,-136.36364 L-300.00000,-190.90909 L-308.82906,-196.52758 M-454.50850,-206.59477 L-454.50850,-123.95686 L-428.36091,-116.82570 L-428.36091,-194.70950 L-454.50850,-206.59477 M-405.94868,-184.52213 L-405.94868,-110.71328 L-386.52476,-105.41584 L-386.52476,-175.69307 L-405.94868,-184.52213 M-369.52882,-167.96765 L-369.52882,-100.78059 L-354.53241,-96.69066 L-354.53241,-161.15110 L-369.52882,-167.96765 M-341.20227,-155.09194 L-341.20227,-93.05516 L-329.27529,-89.80235 L-329.27529,-149.67059 L-341.20227,-155.09194 M-318.54102,-144.79137 L-318.54102,-86.87482 L-308.82906,-84.22611 L-308.82906,-140.37684 L-318.54102,-144.79137 M-485.41020,-132.38460 L-485.41020,-44.12820 L-454.50850,-41.31895 L-454.50850,-123.95686 L-485.41020,-132.38460 M-428.36091,-116.82570 L-428.36091,-38.94190 L-405.94868,-36.90443 L-405.94868,-110.71328 L-428.36091,-116.82570 M-386.52476,-105.41584 L-386.52476,-35.13861 L-369.52882,-33.59353 L-369.52882,-100.78059 L-386.52476,-105.41584 M-354.53241,-96.69066 L-354.53241,-32.23022 L-341.20227,-31.01839 L-341.20227,-93.05516 L-354.53241,-96.69066 M-329.27529,-89.80235 L-329.27529,-29.93412 L-318.54102,-28.95827 L-318.54102,-86.87482 L-329.27529,-89.80235 M-308.82906,-84.22611 L-308.82906,-28.07537 L-300.00000,-27.27273 L-300.00000,-81.81818 L-308.82906,-84.22611 M-454.50850,-41.31895 L-454.50850,41.31895 L-428.36091,38.94190 L-428.36091,-38.94190 L-454.50850,-41.31895 M-405.94868,-36.90443 L-405.94868,36.90443 L-386.52476,35.13861 L-386.52476,-35.13861 L-405.94868,-36.90443 M-369.52882,-33.59353 L-369.52882,33.59353 L-354.53241,32.23022 L-354.53241,-32.23022 L-369.52882,-33.59353 M-341.20227,-31.01839 L-341.20227,31.01839 L-329.27529,29.93412 L-329.27529,-29.93412 L-341.20227,-31.01839 M-318.54102,-28.95827 L-318.54102,28.95827 L-308.82906,28.07537 L-308.82906,-28.07537 L-318.54102,-28.95827 M-485.41020,44.12820 L-485.41020,132.38460 L-454.50850,123.95686 L-454.50850,41.31895 L-485.41020,44.12820 M-428.36091,38.94190 L-428.36091,116.82570 L-405.94868,110.71328 L-405.94868,36.90443 L-428.36091,38.94190 M-386.52476,35.13861 L-386.52476,105.41584 L-369.52882,100.78059 L-369.52882,33.59353 L-386.52476,35.13861 M-354.53241,32.23022 L-354.53241,96.69066 L-341.20227,93.05516 L-341.20227,31.01839 L-354.53241,32.23022 M-329.27529,29.93412 L-329.27529,89.80235 L-318.54102,86.87482 L-318.54102,28.95827 L-329.27529,29.93412 M-308.82906,28.07537 L-308.82906,84.22611 L-300.00000,81.81818 L-300.00000,27.27273 L-308.82906,28.07537 M-454.50850,123.95686 L-454.50850,206.59477 L-428.36091,194.70950 L-428.36091,116.82570 L-454.50850,123.95686 M-405.94868,110.71328 L-405.94868,184.52213 L-386.52476,175.69307 L-386.52476,105.41584 L-405.94868,110.71328 M-369.52882,100.78059 L-369.52882,167.96765 L-354.53241,161.15110 L-354.53241,96.69066 L-369.52882,100.78059 M-341.20227,93.05516 L-341.20227,155.09194 L-329.27529,149.67059 L-329.27529,89.80235 L-341.20227,93.05516 M-318.54102,86.87482 L-318.54102,144.79137 L-308.82906,140.37684 L-308.82906,84.22611 L-318.54102,86.87482 M-485.41020,220.64100 L-485.41020,308.89740 L-454.50850,289.23268 L-454.50850,206.59477 L-485.41020,220.64100 M-428.36091,194.70950 L-428.36091,272.59330 L-405.94868,258.33098 L-405.94868,184.52213 L-428.36091,194.70950 M-386.52476,175.69307 L-386.52476,245.97030 L-369.52882,235.15471 L-369.52882,167.96765 L-386.52476,175.69307 M-354.53241,161.15110 L-354.53241,225.61153 L-341.20227,217.12871 L-341.20227,155.09194 L-354.53241,161.15110 M-329.27529,149.67059 L-329.27529,209.53882 L-318.54102,202.70792 L-318.54102,144.79137 L-329.27529,149.67059 M-308.82906,140.37684 L-308.82906,196.52758 L-300.00000,190.90909 L-300.00000,136.36364 L-308.82906,140.37684 M-454.50850,289.23268 L-454.50850,371.87059 L-428.36091,350.47710 L-428.36091,272.59330 L-454.50850,289.23268 M-405.94868,258.33098 L-405.94868,332.13983 L-386.52476,316.24753 L-386.52476,245.97030 L-405.94868,258.33098 M-369.52882,235.15471 L-369.52882,302.34176 L-354.53241,290.07197 L-354.53241,225.61153 L-369.52882,235.15471 M-341.20227,217.12871 L-341.20227,279.16549 L-329.27529,269.40706 L-329.27529,209.53882 L-341.20227,217.12871 M-318.54102,202.70792 L-318.54102,260.62447 L-308.82906,252.67832 L-308.82906,196.52758 L-318.54102,202.70792 M-485.41020,397.15380 L-485.41020,485.41020 L-454.50850,454.50850 L-454.50850,371.87059 L-485.41020,397.15380 M-428.36091,350.47710 L-428.36091,428.36091 L-405.94868,405.94868 L-405.94868,332.13983 L-428.36091,350.47710 M-386.52476,316.24753 L-386.52476,386.52476 L-369.52882,369.52882 L-369.52882,302.34176 L-386.52476,316.24753 M-354.53241,290.07197 L-354.53241,354.53241 L-341.20227,341.20227 L-341.20227,279.16549 L-354.53241,290.07197 M-329.27529,269.40706 L-329.27529,329.27529 L-318.54102,318.54102 L-318.54102,260.62447 L-329.27529,269.40706 M-308.82906,252.67832 L-308.82906,308.82906 L-300.00000,300.00000 L-300.00000,245.45455 L-308.82906,252.67832 M-485.41020,485.41020 L-397.15380,485.41020 L-371.87059,454.50850 L-454.50850,454.50850 L-485.41020,485.41020 M-428.36091,428.36091 L-350.47710,428.36091 L-332.13983,405.94868 L-405.94868,405.94868 L-428.36091,428.36091 M-386.52476,386.52476 L-316.24753,386.52476 L-302.34176,369.52882 L-369.52882,369.52882 L-386.52476,386.52476 M-354.53241,354.53241 L-290.07197,354.53241 L-279.16549,341.20227 L-341.20227,341.20227 L-354.53241,354.53241 M-329.27529,329.27529 L-269.40706,329.27529 L-260.62447,318.54102 L-318.54102,318.54102 L-329.27529,329.27529 M-308.82906,308.82906 L-252.67832,308.82906 L-245.45455,300.00000 L-300.00000,300.00000 L-308.82906,308.82906 M-371.87059,454.50850 L-289.23268,454.50850 L-272.59330,428.36091 L-350.47710,428.36091 L-371.87059,454.50850 M-332.13983,405.94868 L-258.33098,405.94868 L-245.97030,386.52476 L-316.24753,386.52476 L-332.13983,405.94868 M-302.34176,369.52882 L-235.15471,369.52882 L-225.61153,354.53241 L-290.07197,354.53241 L-302.34176,369.52882 M-279.16549,341.20227 L-217.12871,341.20227 L-209.53882,329.27529 L-269.40706,329.27529 L-279.16549,341.20227 M-260.62447,318.54102 L-202.70792,318.54102 L-196.52758,308.82906 L-252.67832,308.82906 L-260.62447,318.54102 M-308.89740,485.41020 L-220.64100,485.41020 L-206.59477,454.50850 L-289.23268,454.50850 L-308.89740,485.41020 M-272.59330,428.36091 L-194.70950,428.36091 L-184.52213,405.94868 L-258.33098,405.94868 L-272.59330,428.36091 M-245.97030,386.52476 L-175.69307,386.52476 L-167.96765,369.52882 L-235.15471,369.52882 L-245.97030,386.52476 M-225.61153,354.53241 L-161.15110,354.53241 L-155.09194,341.20227 L-217.12871,341.20227 L-225.61153,354.53241 M-209.53882,329.27529 L-149.67059,329.27529 L-144.79137,318.54102 L-202.70792,318.54102 L-209.53882,329.27529 M-196.52758,308.82906 L-140.37684,308.82906 L-136.36364,300.00000 L-190.90909,300.00000 L-196.52758,308.82906 M-206.59477,454.50850 L-123.95686,454.50850 L-116.82570,428.36091 L-194.70950,428.36091 L-206.59477,454.50850 M-184.52213,405.94868 L-110.71328,405.94868 L-105.41584,386.52476 L-175.69307,386.52476 L-184.52213,405.94868 M-167.96765,369.52882 L-100.78059,369.52882 L-96.69066,354.53241 L-161.15110,354.53241 L-167.96765,369.52882 M-155.09194,341.20227 L-93.05516,341.20227 L-89.80235,329.27529 L-149.67059,329.27529 L-155.09194,341.20227 M-144.79137,318.54102 L-86.87482,318.54102 L-84.22611,308.82906 L-140.37684,308.82906 L-144.79137,318.54102 M-132.38460,485.41020 L-44.12820,485.41020 L-41.31895,454.50850 L-123.95686,454.50850 L-132.38460,485.41020 M-116.82570,428.36091 L-38.94190,428.36091 L-36.90443,405.94868 L-110.71328,405.94868 L-116.82570,428.36091 M-105.41584,386.52476 L-35.13861,386.52476 L-33.59353,369.52882 L-100.78059,369.52882 L-105.41584,386.52476 M-96.69066,354.53241 L-32.23022,354.53241 L-31.01839,341.20227 L-93.05516,341.20227 L-96.69066,354.53241 M-89.80235,329.27529 L-29.93412,329.27529 L-28.95827,318.54102 L-86.87482,318.54102 L-89.80235,329.27529 M-84.22611,308.82906 L-28.07537,308.82906 L-27.27273,300.00000 L-81.81818,300.00000 L-84.22611,308.82906 M-41.31895,454.50850 L41.31895,454.50850 L38.94190,428.36091 L-38.94190,428.36091 L-41.31895,454.50850 M-36.90443,405.94868 L36.90443,405.94868 L35.13861,386.52476 L-35.13861,386.52476 L-36.90443,405.94868 M-33.59353,369.52882 L33.59353,369.52882 L32.23022,354.53241 L-32.23022,354.53241 L-33.59353,369.52882 M-31.01839,341.20227 L31.01839,341.20227 L29.93412,329.27529 L-29.93412,329.27529 L-31.01839,341.20227 M-28.95827,318.54102 L28.95827,318.54102 L28.07537,308.82906 L-28.07537,308.82906 L-28.95827,318.54102 M44.12820,485.41020 L132.38460,485.41020 L123.95686,454.50850 L41.31895,454.50850 L44.12820,485.41020 M38.94190,428.36091 L116.82570,428.36091 L110.71328,405.94868 L36.90443,405.94868 L38.94190,428.36091 M35.13861,386.52476 L105.41584,386.52476 L100.78059,369.52882 L33.59353,369.52882 L35.13861,386.52476 M32.23022,354.53241 L96.69066,354.53241 L93.05516,341.20227 L31.01839,341.20227 L32.23022,354.53241 M29.93412,329.27529 L89.80235,329.27529 L86.87482,318.54102 L28.95827,318.54102 L29.93412,329.27529 M28.07537,308.82906 L84.22611,308.82906 L81.81818,300.00000 L27.27273,300.00000 L28.07537,308.82906 M123.95686,454.50850 L206.59477,454.50850 L194.70950,428.36091 L116.82570,428.36091 L123.95686,454.50850 M110.71328,405.94868 L184.52213,405.94868 L175.69307,386.52476 L105.41584,386.52476 L110.71328,405.94868 M100.78059,369.52882 L167.96765,369.52882 L161.15110,354.53241 L96.69066,354.53241 L100.78059,369.52882 M93.05516,341.20227 L155.09194,341.20227 L149.67059,329.27529 L89.80235,329.27529 L93.05516,341.20227 M86.87482,318.54102 L144.79137,318.54102 L140.37684,308.82906 L84.22611,308.82906 L86.87482,318.54102 M220.64100,485.41020 L308.89740,485.41020 L289.23268,454.50850 L206.59477,454.50850 L220.64100,485.41020 M194.70950,428.36091 L272.59330,428.36091 L258.33098,405.94868 L184.52213,405.94868 L194.70950,428.36091 M175.69307,386.52476 L245.97030,386.52476 L235.15471,369.52882 L167.96765,369.52882 L175.69307,386.52476 M161.15110,354.53241 L225.61153,354.53241 L217.12871,341.20227 L155.09194,341.20227 L161.15110,354.53241 M149.67059,329.27529 L209.53882,329.27529 L202.70792,318.54102 L144.79137,318.54102 L149.67059,329.27529 M140.37684,308.82906 L196.52758,308.82906 L190.90909,300.00000 L136.36364,300.00000 L140.37684,308.82906 M289.23268,454.50850 L371.87059,454.50850 L350.47710,428.36091 L272.59330,428.36091 L289.23268,454.50850 M258.33098,405.94868 L332.13983,405.94868 L316.24753,386.52476 L245.97030,386.52476 L258.33098,405.94868 M235.15471,369.52882 L302.34176,369.52882 L290.07197,354.53241 L225.61153,354.53241 L235.15471,369.52882 M217.12871,341.20227 L279.16549,341.20227 L269.40706,329.27529 L209.53882,329.27529 L217.12871,341.20227 M202.70792,318.54102 L260.62447,318.54102 L252.67832,308.82906 L196.52758,308.82906 L202.70792,318.54102 M397.15380,485.41020 L485.41020,485.41020 L454.50850,454.50850 L371.87059,454.50850 L397.15380,485.41020 M350.47710,428.36091 L428.36091,428.36091 L405.94868,405.94868 L332.13983,405.94868 L350.47710,428.36091 M316.24753,386.52476 L386.52476,386.52476 L369.52882,369.52882 L302.34176,369.52882 L316.24753,386.52476 M290.07197,354.53241 L354.53241,354.53241 L341.20227,341.20227 L279.16549,341.20227 L290.07197,354.53241 M269.40706,329.27529 L329.27529,329.27529 L318.54102,318.54102 L260.62447,318.54102 L269.40706,329.27529 M252.67832,308.82906 L308.82906,308.82906 L300.00000,300.00000 L245.45455,300.00000 L252.67832,308.82906"/>
  </g>
</svg>
