<svg xmlns:ns0="http://www.w3.org/2000/svg" xlink="http://www.w3.org/1999/xlink" xmlns="http://www.w3.org/2000/svg" ns0:svg="http://www.w3.org/2000/svg" width="1280" height="1280">
  <defs/>
  <g id="canvas" transform="matrix(1,0,0,-1,0,1280) translate(640,640)">
    <g>
      <path style="stroke:black;stroke-width:1;fill:#9600d4" d="M0.00000,600.00000 L519.61524,300.00000 L519.61524,-300.00000 L0.00000,-600.00000 L-519.61524,-300.00000 L-519.61524,300.00000 Z"/>
      <path style="stroke:black;stroke-width:1;fill:#9600d4" d="M37.89218,578.12294 L519.61524,256.24588 L481.72306,-321.87706 L-37.89218,-578.12294 L-519.61524,-256.24588 L-481.72306,321.87706 Z"/>
      <path style="stroke:black;stroke-width:1;fill:#9800d4" d="M73.02113,554.65053 L516.85201,214.08711 L443.83088,-340.56341 L-73.02113,-554.65053 L-516.85201,-214.08711 L-443.83088,340.56341 Z"/>
      <path style="stroke:black;stroke-width:1;fill:#9a00d4" d="M105.38684,529.81544 L511.52705,173.64004 L406.14021,-356.17540 L-105.38684,-529.81544 L-511.52705,-173.64004 L-406.14021,356.17540 Z"/>
      <path style="stroke:black;stroke-width:1;fill:#9c00d4" d="M135.00402,503.84187 L503.84187,135.00402 L368.83785,-368.83785 L-135.00402,-503.84187 L-503.84187,-135.00402 L-368.83785,368.83785 Z"/>
      <path style="stroke:black;stroke-width:1;fill:#9e00d4" d="M161.90098,476.94491 L493.99690,98.26209 L332.09592,-378.68282 L-161.90098,-476.94491 L-493.99690,-98.26209 L-332.09592,378.68282 Z"/>
      <path style="stroke:black;stroke-width:1;fill:#a100d4" d="M186.11859,449.33002 L482.19051,63.48158 L296.07192,-385.84844 L-186.11859,-449.33002 L-482.19051,-63.48158 L-296.07192,385.84844 Z"/>
      <path style="stroke:black;stroke-width:1;fill:#a300d4" d="M207.70920,421.19259 L468.61808,30.71485 L260.90888,-390.47774 L-207.70920,-421.19259 L-468.61808,-30.71485 L-260.90888,390.47774 Z"/>
      <path style="stroke:black;stroke-width:1;fill:#a500d4" d="M226.73560,392.71757 L453.47120,0.00000 L226.73560,-392.71757 L-226.73560,-392.71757 L-453.47120,-0.00000 L-226.73560,392.71757 Z"/>
      <path style="stroke:black;stroke-width:1;fill:#a700d4" d="M243.26996,364.07922 L436.93683,-28.63835 L193.66688,-392.71757 L-243.26996,-364.07922 L-436.93683,28.63835 L-193.66688,392.71757 Z"/>
      <path style="stroke:black;stroke-width:1;fill:#aa00d4" d="M257.39283,335.44087 L419.19673,-55.18830 L161.80390,-390.62917 L-257.39283,-335.44087 L-419.19673,55.18830 L-161.80390,390.62917 Z"/>
      <path style="stroke:black;stroke-width:1;fill:#ac00d4" d="M269.19214,306.95481 L400.42673,-79.64983 L131.23459,-386.60464 L-269.19214,-306.95481 L-400.42673,79.64983 L-131.23459,386.60464 Z"/>
      <path style="stroke:black;stroke-width:1;fill:#ae00d4" d="M278.76223,278.76223 L380.79629,-102.03406 L102.03406,-380.79629 L-278.76223,-278.76223 L-380.79629,102.03406 L-102.03406,380.79629 Z"/>
      <path style="stroke:black;stroke-width:1;fill:#b000d4" d="M286.20292,250.99322 L360.46797,-122.36239 L74.26505,-373.35561 L-286.20292,-250.99322 L-360.46797,122.36239 L-74.26505,373.35561 Z"/>
      <path style="stroke:black;stroke-width:1;fill:#b300d4" d="M291.61859,223.76681 L339.59704,-140.66570 L47.97845,-364.43251 L-291.61859,-223.76681 L-339.59704,140.66570 L-47.97845,364.43251 Z"/>
      <path style="stroke:black;stroke-width:1;fill:#b500d4" d="M295.11735,197.19111 L318.33118,-156.98357 L23.21383,-354.17467 L-295.11735,-197.19111 L-318.33118,156.98357 L-23.21383,354.17467 Z"/>
      <path style="stroke:black;stroke-width:1;fill:#b700d4" d="M296.81018,171.36344 L296.81018,-171.36344 L0.00000,-342.72687 L-296.81018,-171.36344 L-296.81018,171.36344 L-0.00000,342.72687 Z"/>
      <path style="stroke:black;stroke-width:1;fill:#b900d4" d="M296.81018,146.37058 L275.16573,-183.85986 L-21.64445,-330.23045 L-296.81018,-146.37058 L-275.16573,183.85986 L21.64445,330.23045 Z"/>
      <path style="stroke:black;stroke-width:1;fill:#bb00d4" d="M295.23179,122.28901 L253.52129,-194.53372 L-41.71050,-316.82274 L-295.23179,-122.28901 L-253.52129,194.53372 L41.71050,316.82274 Z"/>
      <path style="stroke:black;stroke-width:1;fill:#be00d4" d="M292.19011,99.18518 L231.99194,-203.45147 L-60.19817,-302.63665 L-292.19011,-99.18518 L-231.99194,203.45147 L60.19817,302.63665 Z"/>
      <path style="stroke:black;stroke-width:1;fill:#c000d4" d="M287.80025,77.11584 L210.68441,-210.68441 L-77.11584,-287.80025 L-287.80025,-77.11584 L-210.68441,210.68441 L77.11584,287.80025 Z"/>
      <path style="stroke:black;stroke-width:1;fill:#c200d4" d="M282.17669,56.12843 L189.69699,-216.30797 L-92.47970,-272.43640 L-282.17669,-56.12843 L-189.69699,216.30797 L92.47970,272.43640 Z"/>
      <path style="stroke:black;stroke-width:1;fill:#c400d4" d="M275.43274,36.26141 L169.11967,-220.40105 L-106.31307,-256.66246 L-275.43274,-36.26141 L-169.11967,220.40105 L106.31307,256.66246 Z"/>
      <path style="stroke:black;stroke-width:1;fill:#c700d4" d="M267.68002,17.54468 L149.03414,-223.04536 L-118.64587,-240.59003 L-267.68002,-17.54468 L-149.03414,223.04536 L118.64587,240.59003 Z"/>
      <path style="stroke:black;stroke-width:1;fill:#c900d4" d="M259.02794,0.00000 L129.51397,-224.32478 L-129.51397,-224.32478 L-259.02794,-0.00000 L-129.51397,224.32478 L129.51397,224.32478 Z"/>
      <path style="stroke:black;stroke-width:1;fill:#cb00d4" d="M249.58333,-16.35856 L110.62474,-224.32478 L-138.95859,-207.96622 L-249.58333,16.35856 L-110.62474,224.32478 L138.95859,207.96622 Z"/>
      <path style="stroke:black;stroke-width:1;fill:#cd00d4" d="M239.44997,-31.52419 L92.42424,-223.13185 L-147.02573,-191.60767 L-239.44997,31.52419 L-92.42424,223.13185 L147.02573,191.60767 Z"/>
      <path style="stroke:black;stroke-width:1;fill:#d000d4" d="M228.72834,-45.49690 L74.96270,-220.83300 L-153.76564,-175.33610 L-228.72834,45.49690 L-74.96270,220.83300 L153.76564,175.33610 Z"/>
      <path style="stroke:black;stroke-width:1;fill:#d200d4" d="M217.51521,-58.28302 L58.28302,-217.51521 L-159.23218,-159.23218 L-217.51521,58.28302 L-58.28302,217.51521 L159.23218,159.23218 Z"/>
      <path style="stroke:black;stroke-width:1;fill:#d400d4" d="M205.90343,-69.89480 L42.42105,-213.26500 L-163.48239,-143.37020 L-205.90343,69.89480 L-42.42105,213.26500 L163.48239,143.37020 Z"/>
      <path style="stroke:black;stroke-width:1;fill:#d600d4" d="M193.98172,-80.34986 L27.40584,-208.16803 L-166.57588,-127.81817 L-193.98172,80.34986 L-27.40584,208.16803 L166.57588,127.81817 Z"/>
      <path style="stroke:black;stroke-width:1;fill:#d900d4" d="M181.83442,-89.67081 L13.26001,-202.30863 L-168.57441,-112.63782 L-181.83442,89.67081 L-13.26001,202.30863 L168.57441,112.63782 Z"/>
      <path style="stroke:black;stroke-width:1;fill:#db00d4" d="M169.54138,-97.88476 L0.00000,-195.76952 L-169.54138,-97.88476 L-169.54138,97.88476 L-0.00000,195.76952 L169.54138,97.88476 Z"/>
      <path style="stroke:black;stroke-width:1;fill:#dd00d4" d="M157.17782,-105.02286 L-12.36356,-188.63142 L-169.54138,-83.60855 L-157.17782,105.02286 L12.36356,188.63142 L169.54138,83.60855 Z"/>
      <path style="stroke:black;stroke-width:1;fill:#df00d4" d="M144.81426,-111.11989 L-23.82552,-180.97278 L-168.63978,-69.85288 L-144.81426,111.11989 L23.82552,180.97278 L168.63978,69.85288 Z"/>
      <path style="stroke:black;stroke-width:1;fill:#e100d4" d="M132.51645,-116.21381 L-34.38589,-172.86952 L-166.90234,-56.65571 L-132.51645,116.21381 L34.38589,172.86952 L166.90234,56.65571 Z"/>
      <path style="stroke:black;stroke-width:1;fill:#e400d4" d="M120.34535,-120.34535 L-44.04945,-164.39480 L-164.39480,-44.04945 L-120.34535,120.34535 L44.04945,164.39480 L164.39480,44.04945 Z"/>
      <path style="stroke:black;stroke-width:1;fill:#e600d4" d="M108.35710,-123.55759 L-52.82546,-155.61879 L-161.18256,-32.06120 L-108.35710,123.55759 L52.82546,155.61879 L161.18256,32.06120 Z"/>
      <path style="stroke:black;stroke-width:1;fill:#e800d4" d="M96.60309,-125.89560 L-60.72724,-146.60854 L-157.33034,-20.71293 L-96.60309,125.89560 L60.72724,146.60854 L157.33034,20.71293 Z"/>
      <path style="stroke:black;stroke-width:1;fill:#ea00d4" d="M85.13001,-127.40606 L-67.77188,-137.42778 L-152.90189,-10.02172 L-85.13001,127.40606 L67.77188,137.42778 L152.90189,10.02172 Z"/>
      <path style="stroke:black;stroke-width:1;fill:#ed00d4" d="M73.97986,-128.13688 L-73.97986,-128.13688 L-147.95973,-0.00000 L-73.97986,128.13688 L73.97986,128.13688 L147.95973,0.00000 Z"/>
      <path style="stroke:black;stroke-width:1;fill:#ef00d4" d="M63.19012,-128.13688 L-79.37474,-118.79269 L-142.56486,9.34419 L-63.19012,128.13688 L79.37474,118.79269 L142.56486,-9.34419 Z"/>
      <path style="stroke:black;stroke-width:1;fill:#f100d4" d="M52.79379,-127.45547 L-83.98278,-109.44850 L-136.77657,18.00698 L-52.79379,127.45547 L83.98278,109.44850 L136.77657,-18.00698 Z"/>
      <path style="stroke:black;stroke-width:1;fill:#f300d4" d="M42.81955,-126.14234 L-87.83269,-100.15399 L-130.65225,25.98835 L-42.81955,126.14234 L87.83269,100.15399 L130.65225,-25.98835 Z"/>
      <path style="stroke:black;stroke-width:1;fill:#f600d4" d="M33.29193,-124.24718 L-90.95525,-90.95525 L-124.24718,33.29193 L-33.29193,124.24718 L90.95525,90.95525 L124.24718,-33.29193 Z"/>
      <path style="stroke:black;stroke-width:1;fill:#f800d4" d="M24.23139,-121.81941 L-93.38301,-81.89470 L-117.61440,39.92471 L-24.23139,121.81941 L93.38301,81.89470 L117.61440,-39.92471 Z"/>
      <path style="stroke:black;stroke-width:1;fill:#fa00d4" d="M15.65453,-118.90796 L-95.15005,-73.01120 L-110.80458,45.89676 L-15.65453,118.90796 L95.15005,73.01120 L110.80458,-45.89676 Z"/>
      <path style="stroke:black;stroke-width:1;fill:#fc00d4" d="M7.57427,-115.56101 L-96.29163,-64.34001 L-103.86590,51.22099 L-7.57427,115.56101 L96.29163,64.34001 L103.86590,-51.22099 Z"/>
      <path style="stroke:black;stroke-width:1;fill:#ff00d4" d="M0.00000,-111.82579 L-96.84398,-55.91290 L-96.84398,55.91290 L-0.00000,111.82579 L96.84398,55.91290 L96.84398,-55.91290 Z"/>
    </g>
  </g>
</svg>
