<svg xmlns:ns0="http://www.w3.org/2000/svg" xlink="http://www.w3.org/1999/xlink" xmlns="http://www.w3.org/2000/svg" ns0:svg="http://www.w3.org/2000/svg" width="1280" height="1280">
  <defs/>
  <g id="canvas" transform="matrix(1,0,0,-1,0,1280) translate(640,640)">
    <g id="stargroup">
      <path style="stroke:black; fill:none" d="M0.00000,13.88889 L12.02813,-6.94444 L-12.02813,-6.94444 L0.00000,13.88889 M12.02813,6.94444 L0.00000,-13.88889 L-12.02813,6.94444 Z"/>
      <path style="stroke:black; fill:none" d="M0.00000,27.77778 L24.05626,-13.88889 L-24.05626,-13.88889 L0.00000,27.77778 M24.05626,13.88889 L0.00000,-27.77778 L-24.05626,13.88889 Z"/>
      <path style="stroke:black; fill:none" d="M0.00000,41.66667 L36.08439,-20.83333 L-36.08439,-20.83333 L0.00000,41.66667 M36.08439,20.83333 L0.00000,-41.66667 L-36.08439,20.83333 Z"/>
      <path style="stroke:black; fill:none" d="M0.00000,55.55556 L48.11252,-27.77778 L-48.11252,-27.77778 L0.00000,55.55556 M48.11252,27.77778 L0.00000,-55.55556 L-48.11252,27.77778 Z"/>
      <path style="stroke:black; fill:none" d="M0.00000,69.44444 L60.14065,-34.72222 L-60.14065,-34.72222 L0.00000,69.44444 M60.14065,34.72222 L0.00000,-69.44444 L-60.14065,34.72222 Z"/>
      <path style="stroke:black; fill:none" d="M0.00000,83.33333 L72.16878,-41.66667 L-72.16878,-41.66667 L0.00000,83.33333 M72.16878,41.66667 L0.00000,-83.33333 L-72.16878,41.66667 Z"/>
      <path style="stroke:black; fill:none" d="M0.00000,97.22222 L84.19691,-48.61111 L-84.19691,-48.61111 L0.00000,97.22222 M84.19691,48.61111 L0.00000,-97.22222 L-84.19691,48.61111 Z"/>
      <path style="stroke:black; fill:none" d="M0.00000,111.11111 L96.22504,-55.55556 L-96.22504,-55.55556 L0.00000,111.11111 M96.22504,55.55556 L0.00000,-111.11111 L-96.22504,55.55556 Z"/>
      <path style="stroke:black; fill:none" d="M0.00000,125.00000 L108.25318,-62.50000 L-108.25318,-62.50000 L0.00000,125.00000 M108.25318,62.50000 L0.00000,-125.00000 L-108.25318,62.50000 Z"/>
      <path style="stroke:black; fill:none" d="M0.00000,138.88889 L120.28131,-69.44444 L-120.28131,-69.44444 L0.00000,138.88889 M120.28131,69.44444 L0.00000,-138.88889 L-120.28131,69.44444 Z"/>
      <path style="stroke:black; fill:none" d="M0.00000,152.77778 L132.30944,-76.38889 L-132.30944,-76.38889 L0.00000,152.77778 M132.30944,76.38889 L0.00000,-152.77778 L-132.30944,76.38889 Z"/>
      <path style="stroke:black; fill:none" d="M0.00000,166.66667 L144.33757,-83.33333 L-144.33757,-83.33333 L0.00000,166.66667 M144.33757,83.33333 L0.00000,-166.66667 L-144.33757,83.33333 Z"/>
      <path style="stroke:black; fill:none" d="M0.00000,180.55556 L156.36570,-90.27778 L-156.36570,-90.27778 L0.00000,180.55556 M156.36570,90.27778 L0.00000,-180.55556 L-156.36570,90.27778 Z"/>
      <path style="stroke:black; fill:none" d="M0.00000,194.44444 L168.39383,-97.22222 L-168.39383,-97.22222 L0.00000,194.44444 M168.39383,97.22222 L0.00000,-194.44444 L-168.39383,97.22222 Z"/>
      <path style="stroke:black; fill:none" d="M0.00000,208.33333 L180.42196,-104.16667 L-180.42196,-104.16667 L0.00000,208.33333 M180.42196,104.16667 L0.00000,-208.33333 L-180.42196,104.16667 Z"/>
      <path style="stroke:black; fill:none" d="M0.00000,222.22222 L192.45009,-111.11111 L-192.45009,-111.11111 L0.00000,222.22222 M192.45009,111.11111 L0.00000,-222.22222 L-192.45009,111.11111 Z"/>
      <path style="stroke:black; fill:none" d="M0.00000,236.11111 L204.47822,-118.05556 L-204.47822,-118.05556 L0.00000,236.11111 M204.47822,118.05556 L0.00000,-236.11111 L-204.47822,118.05556 Z"/>
      <path style="stroke:black; fill:none" d="M0.00000,250.00000 L216.50635,-125.00000 L-216.50635,-125.00000 L0.00000,250.00000 M216.50635,125.00000 L0.00000,-250.00000 L-216.50635,125.00000 Z"/>
      <path style="stroke:black; fill:none" d="M0.00000,263.88889 L228.53448,-131.94444 L-228.53448,-131.94444 L0.00000,263.88889 M228.53448,131.94444 L0.00000,-263.88889 L-228.53448,131.94444 Z"/>
      <path style="stroke:black; fill:none" d="M0.00000,277.77778 L240.56261,-138.88889 L-240.56261,-138.88889 L0.00000,277.77778 M240.56261,138.88889 L0.00000,-277.77778 L-240.56261,138.88889 Z"/>
      <path style="stroke:black; fill:none" d="M0.00000,291.66667 L252.59074,-145.83333 L-252.59074,-145.83333 L0.00000,291.66667 M252.59074,145.83333 L0.00000,-291.66667 L-252.59074,145.83333 Z"/>
      <path style="stroke:black; fill:none" d="M0.00000,305.55556 L264.61887,-152.77778 L-264.61887,-152.77778 L0.00000,305.55556 M264.61887,152.77778 L0.00000,-305.55556 L-264.61887,152.77778 Z"/>
      <path style="stroke:black; fill:none" d="M0.00000,319.44444 L276.64700,-159.72222 L-276.64700,-159.72222 L0.00000,319.44444 M276.64700,159.72222 L0.00000,-319.44444 L-276.64700,159.72222 Z"/>
      <path style="stroke:black; fill:none" d="M0.00000,333.33333 L288.67513,-166.66667 L-288.67513,-166.66667 L0.00000,333.33333 M288.67513,166.66667 L0.00000,-333.33333 L-288.67513,166.66667 Z"/>
      <path style="stroke:black; fill:none" d="M0.00000,347.22222 L300.70327,-173.61111 L-300.70327,-173.61111 L0.00000,347.22222 M300.70327,173.61111 L0.00000,-347.22222 L-300.70327,173.61111 Z"/>
      <path style="stroke:black; fill:none" d="M0.00000,361.11111 L312.73140,-180.55556 L-312.73140,-180.55556 L0.00000,361.11111 M312.73140,180.55556 L0.00000,-361.11111 L-312.73140,180.55556 Z"/>
      <path style="stroke:black; fill:none" d="M0.00000,375.00000 L324.75953,-187.50000 L-324.75953,-187.50000 L0.00000,375.00000 M324.75953,187.50000 L0.00000,-375.00000 L-324.75953,187.50000 Z"/>
      <path style="stroke:black; fill:none" d="M0.00000,388.88889 L336.78766,-194.44444 L-336.78766,-194.44444 L0.00000,388.88889 M336.78766,194.44444 L0.00000,-388.88889 L-336.78766,194.44444 Z"/>
      <path style="stroke:black; fill:none" d="M0.00000,402.77778 L348.81579,-201.38889 L-348.81579,-201.38889 L0.00000,402.77778 M348.81579,201.38889 L0.00000,-402.77778 L-348.81579,201.38889 Z"/>
      <path style="stroke:black; fill:none" d="M0.00000,416.66667 L360.84392,-208.33333 L-360.84392,-208.33333 L0.00000,416.66667 M360.84392,208.33333 L0.00000,-416.66667 L-360.84392,208.33333 Z"/>
      <path style="stroke:black; fill:none" d="M0.00000,430.55556 L372.87205,-215.27778 L-372.87205,-215.27778 L0.00000,430.55556 M372.87205,215.27778 L0.00000,-430.55556 L-372.87205,215.27778 Z"/>
      <path style="stroke:black; fill:none" d="M0.00000,444.44444 L384.90018,-222.22222 L-384.90018,-222.22222 L0.00000,444.44444 M384.90018,222.22222 L0.00000,-444.44444 L-384.90018,222.22222 Z"/>
      <path style="stroke:black; fill:none" d="M0.00000,458.33333 L396.92831,-229.16667 L-396.92831,-229.16667 L0.00000,458.33333 M396.92831,229.16667 L0.00000,-458.33333 L-396.92831,229.16667 Z"/>
      <path style="stroke:black; fill:none" d="M0.00000,472.22222 L408.95644,-236.11111 L-408.95644,-236.11111 L0.00000,472.22222 M408.95644,236.11111 L0.00000,-472.22222 L-408.95644,236.11111 Z"/>
      <path style="stroke:black; fill:none" d="M0.00000,486.11111 L420.98457,-243.05556 L-420.98457,-243.05556 L0.00000,486.11111 M420.98457,243.05556 L0.00000,-486.11111 L-420.98457,243.05556 Z"/>
      <path style="stroke:black; fill:none" d="M0.00000,500.00000 L433.01270,-250.00000 L-433.01270,-250.00000 L0.00000,500.00000 M433.01270,250.00000 L0.00000,-500.00000 L-433.01270,250.00000 Z"/>
    </g>
  </g>
</svg>
