<svg xmlns:ns0="http://www.w3.org/2000/svg" xlink="http://www.w3.org/1999/xlink" xmlns="http://www.w3.org/2000/svg" ns0:svg="http://www.w3.org/2000/svg" width="1280" height="1280">
  <defs/>
  <g id="canvas" transform="matrix(1,0,0,-1,0,1280) translate(640,640)">
    <g>
      <path style="stroke:none;fill:black" d="M0.00000,0.00000 L0.00000,560.00000 L54.88960,557.30345 Z"/>
      <path style="stroke:none;fill:white" d="M0.00000,0.00000 L54.88960,557.30345 L109.25058,549.23976 Z"/>
      <path style="stroke:none;fill:black" d="M0.00000,0.00000 L109.25058,549.23976 L162.55942,535.88659 Z"/>
      <path style="stroke:none;fill:white" d="M0.00000,0.00000 L162.55942,535.88659 L214.30272,517.37254 Z"/>
      <path style="stroke:none;fill:black" d="M0.00000,0.00000 L214.30272,517.37254 L263.98217,493.87591 Z"/>
      <path style="stroke:none;fill:white" d="M0.00000,0.00000 L263.98217,493.87591 L311.11933,465.62298 Z"/>
      <path style="stroke:none;fill:black" d="M0.00000,0.00000 L311.11933,465.62298 L355.26024,432.88585 Z"/>
      <path style="stroke:none;fill:white" d="M0.00000,0.00000 L355.26024,432.88585 L395.97980,395.97980 Z"/>
      <path style="stroke:none;fill:black" d="M0.00000,0.00000 L395.97980,395.97980 L432.88585,355.26024 Z"/>
      <path style="stroke:none;fill:white" d="M0.00000,0.00000 L432.88585,355.26024 L465.62298,311.11933 Z"/>
      <path style="stroke:none;fill:black" d="M0.00000,0.00000 L465.62298,311.11933 L493.87591,263.98217 Z"/>
      <path style="stroke:none;fill:white" d="M0.00000,0.00000 L493.87591,263.98217 L517.37254,214.30272 Z"/>
      <path style="stroke:none;fill:black" d="M0.00000,0.00000 L517.37254,214.30272 L535.88659,162.55942 Z"/>
      <path style="stroke:none;fill:white" d="M0.00000,0.00000 L535.88659,162.55942 L549.23976,109.25058 Z"/>
      <path style="stroke:none;fill:black" d="M0.00000,0.00000 L549.23976,109.25058 L557.30345,54.88960 Z"/>
      <path style="stroke:none;fill:white" d="M0.00000,0.00000 L557.30345,54.88960 L560.00000,0.00000 Z"/>
      <path style="stroke:none;fill:black" d="M0.00000,0.00000 L560.00000,0.00000 L557.30345,-54.88960 Z"/>
      <path style="stroke:none;fill:white" d="M0.00000,0.00000 L557.30345,-54.88960 L549.23976,-109.25058 Z"/>
      <path style="stroke:none;fill:black" d="M0.00000,0.00000 L549.23976,-109.25058 L535.88659,-162.55942 Z"/>
      <path style="stroke:none;fill:white" d="M0.00000,0.00000 L535.88659,-162.55942 L517.37254,-214.30272 Z"/>
      <path style="stroke:none;fill:black" d="M0.00000,0.00000 L517.37254,-214.30272 L493.87591,-263.98217 Z"/>
      <path style="stroke:none;fill:white" d="M0.00000,0.00000 L493.87591,-263.98217 L465.62298,-311.11933 Z"/>
      <path style="stroke:none;fill:black" d="M0.00000,0.00000 L465.62298,-311.11933 L432.88585,-355.26024 Z"/>
      <path style="stroke:none;fill:white" d="M0.00000,0.00000 L432.88585,-355.26024 L395.97980,-395.97980 Z"/>
      <path style="stroke:none;fill:black" d="M0.00000,0.00000 L395.97980,-395.97980 L355.26024,-432.88585 Z"/>
      <path style="stroke:none;fill:white" d="M0.00000,0.00000 L355.26024,-432.88585 L311.11933,-465.62298 Z"/>
      <path style="stroke:none;fill:black" d="M0.00000,0.00000 L311.11933,-465.62298 L263.98217,-493.87591 Z"/>
      <path style="stroke:none;fill:white" d="M0.00000,0.00000 L263.98217,-493.87591 L214.30272,-517.37254 Z"/>
      <path style="stroke:none;fill:black" d="M0.00000,0.00000 L214.30272,-517.37254 L162.55942,-535.88659 Z"/>
      <path style="stroke:none;fill:white" d="M0.00000,0.00000 L162.55942,-535.88659 L109.25058,-549.23976 Z"/>
      <path style="stroke:none;fill:black" d="M0.00000,0.00000 L109.25058,-549.23976 L54.88960,-557.30345 Z"/>
      <path style="stroke:none;fill:white" d="M0.00000,0.00000 L54.88960,-557.30345 L0.00000,-560.00000 Z"/>
      <path style="stroke:none;fill:black" d="M0.00000,0.00000 L0.00000,-560.00000 L-54.88960,-557.30345 Z"/>
      <path style="stroke:none;fill:white" d="M0.00000,0.00000 L-54.88960,-557.30345 L-109.25058,-549.23976 Z"/>
      <path style="stroke:none;fill:black" d="M0.00000,0.00000 L-109.25058,-549.23976 L-162.55942,-535.88659 Z"/>
      <path style="stroke:none;fill:white" d="M0.00000,0.00000 L-162.55942,-535.88659 L-214.30272,-517.37254 Z"/>
      <path style="stroke:none;fill:black" d="M0.00000,0.00000 L-214.30272,-517.37254 L-263.98217,-493.87591 Z"/>
      <path style="stroke:none;fill:white" d="M0.00000,0.00000 L-263.98217,-493.87591 L-311.11933,-465.62298 Z"/>
      <path style="stroke:none;fill:black" d="M0.00000,0.00000 L-311.11933,-465.62298 L-355.26024,-432.88585 Z"/>
      <path style="stroke:none;fill:white" d="M0.00000,0.00000 L-355.26024,-432.88585 L-395.97980,-395.97980 Z"/>
      <path style="stroke:none;fill:black" d="M0.00000,0.00000 L-395.97980,-395.97980 L-432.88585,-355.26024 Z"/>
      <path style="stroke:none;fill:white" d="M0.00000,0.00000 L-432.88585,-355.26024 L-465.62298,-311.11933 Z"/>
      <path style="stroke:none;fill:black" d="M0.00000,0.00000 L-465.62298,-311.11933 L-493.87591,-263.98217 Z"/>
      <path style="stroke:none;fill:white" d="M0.00000,0.00000 L-493.87591,-263.98217 L-517.37254,-214.30272 Z"/>
      <path style="stroke:none;fill:black" d="M0.00000,0.00000 L-517.37254,-214.30272 L-535.88659,-162.55942 Z"/>
      <path style="stroke:none;fill:white" d="M0.00000,0.00000 L-535.88659,-162.55942 L-549.23976,-109.25058 Z"/>
      <path style="stroke:none;fill:black" d="M0.00000,0.00000 L-549.23976,-109.25058 L-557.30345,-54.88960 Z"/>
      <path style="stroke:none;fill:white" d="M0.00000,0.00000 L-557.30345,-54.88960 L-560.00000,-0.00000 Z"/>
      <path style="stroke:none;fill:black" d="M0.00000,0.00000 L-560.00000,-0.00000 L-557.30345,54.88960 Z"/>
      <path style="stroke:none;fill:white" d="M0.00000,0.00000 L-557.30345,54.88960 L-549.23976,109.25058 Z"/>
      <path style="stroke:none;fill:black" d="M0.00000,0.00000 L-549.23976,109.25058 L-535.88659,162.55942 Z"/>
      <path style="stroke:none;fill:white" d="M0.00000,0.00000 L-535.88659,162.55942 L-517.37254,214.30272 Z"/>
      <path style="stroke:none;fill:black" d="M0.00000,0.00000 L-517.37254,214.30272 L-493.87591,263.98217 Z"/>
      <path style="stroke:none;fill:white" d="M0.00000,0.00000 L-493.87591,263.98217 L-465.62298,311.11933 Z"/>
      <path style="stroke:none;fill:black" d="M0.00000,0.00000 L-465.62298,311.11933 L-432.88585,355.26024 Z"/>
      <path style="stroke:none;fill:white" d="M0.00000,0.00000 L-432.88585,355.26024 L-395.97980,395.97980 Z"/>
      <path style="stroke:none;fill:black" d="M0.00000,0.00000 L-395.97980,395.97980 L-355.26024,432.88585 Z"/>
      <path style="stroke:none;fill:white" d="M0.00000,0.00000 L-355.26024,432.88585 L-311.11933,465.62298 Z"/>
      <path style="stroke:none;fill:black" d="M0.00000,0.00000 L-311.11933,465.62298 L-263.98217,493.87591 Z"/>
      <path style="stroke:none;fill:white" d="M0.00000,0.00000 L-263.98217,493.87591 L-214.30272,517.37254 Z"/>
      <path style="stroke:none;fill:black" d="M0.00000,0.00000 L-214.30272,517.37254 L-162.55942,535.88659 Z"/>
      <path style="stroke:none;fill:white" d="M0.00000,0.00000 L-162.55942,535.88659 L-109.25058,549.23976 Z"/>
      <path style="stroke:none;fill:black" d="M0.00000,0.00000 L-109.25058,549.23976 L-54.88960,557.30345 Z"/>
      <path style="stroke:none;fill:white" d="M0.00000,0.00000 L-54.88960,557.30345 L0.00000,560.00000 Z"/>
    </g>
  </g>
</svg>
