<?xml version="1.0" encoding="UTF-8" standalone="no"?>
<svg
   xmlns:dc="http://purl.org/dc/elements/1.1/"
   xmlns:cc="http://web.resource.org/cc/"
   xmlns:rdf="http://www.w3.org/1999/02/22-rdf-syntax-ns#"
   xmlns:svg="http://www.w3.org/2000/svg"
   xmlns="http://www.w3.org/2000/svg"
   xmlns:xlink="http://www.w3.org/1999/xlink"
   xmlns:sodipodi="http://sodipodi.sourceforge.net/DTD/sodipodi-0.dtd"
   xmlns:inkscape="http://www.inkscape.org/namespaces/inkscape"
   width="590"
   xlink:xlink="xlink"
   height="590"
   id="svg3498"
   sodipodi:version="0.32"
   inkscape:version="0.45"
   sodipodi:docname="goby_stripes.svg"
   sodipodi:docbase="/media/oldubu/home/tamarind/0_Code_0/play-svg/scripts/images"
   inkscape:output_extension="org.inkscape.output.svg.inkscape">
  <metadata
     id="metadata3512">
    <rdf:RDF>
      <cc:Work
         rdf:about="">
        <dc:format>image/svg+xml</dc:format>
        <dc:type
           rdf:resource="http://purl.org/dc/dcmitype/StillImage" />
      </cc:Work>
    </rdf:RDF>
  </metadata>
  <sodipodi:namedview
     inkscape:window-height="626"
     inkscape:window-width="874"
     inkscape:pageshadow="2"
     inkscape:pageopacity="0.0"
     guidetolerance="10.0"
     gridtolerance="10.0"
     objecttolerance="10.0"
     borderopacity="1.0"
     bordercolor="#666666"
     pagecolor="#ffffff"
     id="base"
     inkscape:zoom="0.97556766"
     inkscape:cx="-70.199647"
     inkscape:cy="306.43475"
     inkscape:window-x="56"
     inkscape:window-y="61"
     inkscape:current-layer="svg3498" />
  <defs
     id="defs3500">
    <filter
       inkscape:collect="always"
       id="filter7852">
      <feGaussianBlur
         inkscape:collect="always"
         stdDeviation="3.2967033"
         id="feGaussianBlur7854" />
    </filter>
  </defs>
  <g
     id="g7856"
     inkscape:tile-w="200"
     inkscape:tile-h="200"
     inkscape:tile-cx="293.54257"
     inkscape:tile-cy="295.2867"
     transform="translate(-559.55774,11.597052)">
    <rect
       y="195.2867"
       x="193.54257"
       height="200"
       width="200"
       id="rect4695"
       style="opacity:1;color:#000000;fill:#00ff25;fill-opacity:1;fill-rule:nonzero;stroke:none;stroke-width:4;stroke-linecap:butt;stroke-linejoin:miter;marker:none;marker-start:none;marker-mid:none;marker-end:none;stroke-miterlimit:4;stroke-dasharray:none;stroke-dashoffset:0;stroke-opacity:1;visibility:visible;display:inline;overflow:visible;enable-background:accumulate" />
    <path
       id="path3505"
       d="M 193.54257,195.2867 L 193.54257,235.2867 L 193.54257,275.2867 L 213.54257,255.2867 L 253.54257,295.2867 L 213.54257,335.2867 L 193.54257,315.2867 L 193.54257,395.2867 L 273.54257,395.2867 L 253.54257,375.2867 L 293.54257,335.2867 L 333.54257,375.2867 L 313.54257,395.2867 L 393.54257,395.2867 L 393.54257,355.2867 L 393.54257,315.2867 L 373.54257,335.2867 L 333.54257,295.2867 L 373.54257,255.2867 L 393.54257,275.2867 L 393.54257,235.2867 L 393.54257,195.2867 L 313.54257,195.2867 L 333.54257,215.2867 L 293.54257,255.2867 L 253.54257,215.2867 L 273.54257,195.2867 L 233.54257,195.2867 L 193.54257,195.2867 z "
       style="fill:#782121;stroke:none" />
    <path
       id="path3647"
       d="M 193.54257,195.2867 L 193.54257,217.50545 L 193.54257,239.7242 L 204.66757,228.5992 L 226.88632,250.8492 L 204.66757,273.06795 L 193.54257,261.94295 L 193.54257,306.38045 L 193.54257,328.5992 L 204.66757,317.50545 L 226.88632,339.7242 L 204.66757,361.94295 L 193.54257,350.81795 L 193.54257,395.2867 L 237.98007,395.2867 L 226.88632,384.1617 L 249.10507,361.94295 L 271.32382,384.1617 L 260.19882,395.2867 L 304.66757,395.2867 L 326.88632,395.2867 L 315.76132,384.1617 L 337.98007,361.94295 L 360.19882,384.1617 L 349.10507,395.2867 L 393.54257,395.2867 L 393.54257,373.06795 L 393.54257,350.81795 L 382.41757,361.94295 L 360.19882,339.7242 L 382.44882,317.50545 L 393.54257,328.5992 L 393.54257,306.38045 L 393.54257,261.94295 L 382.41757,273.0367 L 360.23007,250.8492 L 382.41757,228.5992 L 393.54257,239.7242 L 393.54257,217.50545 L 393.54257,195.2867 L 349.10507,195.2867 L 360.23007,206.4117 L 337.98007,228.5992 L 315.76132,206.38045 L 326.88632,195.2867 L 304.66757,195.2867 L 260.19882,195.2867 L 271.32382,206.4117 L 249.10507,228.63045 L 226.85507,206.4117 L 237.98007,195.2867 L 215.76132,195.2867 L 193.54257,195.2867 z M 293.54257,228.63045 L 315.76132,250.8492 L 293.54257,273.06795 L 271.32382,250.8492 L 293.54257,228.63045 z M 249.10507,273.06795 L 271.32382,295.2867 L 249.10507,317.50545 L 226.88632,295.2867 L 249.10507,273.06795 z M 337.98007,273.06795 L 360.19882,295.2867 L 337.98007,317.50545 L 315.76132,295.2867 L 337.98007,273.06795 z M 293.54257,317.50545 L 315.76132,339.7242 L 293.54257,361.94295 L 271.32382,339.7242 L 293.54257,317.50545 z "
       style="fill:#ff0085;fill-opacity:0.53260869;stroke:none" />
    <path
       id="path6698"
       d="M 193.54257,195.2867 L 193.54257,207.06795 L 193.54257,218.81795 L 199.41757,212.94295 L 211.19882,224.69295 L 199.41757,236.4742 L 193.54257,230.5992 L 193.54257,254.13045 L 193.54257,265.88045 L 199.41757,260.00545 L 211.19882,271.75545 L 199.41757,283.5367 L 193.54257,277.6617 L 193.54257,301.1617 L 193.54257,312.94295 L 199.41757,307.0367 L 211.19882,318.81795 L 199.41757,330.5992 L 193.54257,324.69295 L 193.54257,348.2242 L 193.54257,360.00545 L 199.41757,354.0992 L 211.19882,365.88045 L 199.41757,377.6617 L 193.54257,371.75545 L 193.54257,395.2867 L 217.07382,395.2867 L 211.19882,389.4117 L 222.98007,377.6617 L 234.73007,389.4117 L 228.85507,395.2867 L 252.38632,395.2867 L 264.13632,395.2867 L 258.26132,389.4117 L 270.04257,377.6617 L 281.79257,389.4117 L 275.91757,395.2867 L 299.44882,395.2867 L 311.19882,395.2867 L 305.32382,389.4117 L 317.07382,377.6617 L 328.85507,389.4117 L 322.98007,395.2867 L 346.51132,395.2867 L 358.26132,395.2867 L 352.38632,389.4117 L 364.13632,377.6617 L 375.91757,389.4117 L 370.04257,395.2867 L 393.54257,395.2867 L 393.54257,383.5367 L 393.54257,371.75545 L 387.66757,377.6617 L 375.88632,365.88045 L 387.66757,354.13045 L 393.54257,360.00545 L 393.54257,348.2242 L 393.54257,324.69295 L 387.66757,330.5992 L 375.88632,318.81795 L 387.66757,307.06795 L 393.54257,312.94295 L 393.54257,301.1617 L 393.54257,277.6617 L 387.66757,283.5367 L 375.91757,271.75545 L 387.66757,260.00545 L 393.54257,265.88045 L 393.54257,254.13045 L 393.54257,230.5992 L 387.66757,236.4742 L 375.91757,224.69295 L 387.66757,212.94295 L 393.54257,218.81795 L 393.54257,207.06795 L 393.54257,195.2867 L 370.04257,195.2867 L 375.91757,201.1617 L 364.13632,212.94295 L 352.38632,201.1617 L 358.26132,195.2867 L 346.51132,195.2867 L 322.98007,195.2867 L 328.85507,201.1617 L 317.07382,212.94295 L 305.32382,201.1617 L 311.19882,195.2867 L 299.44882,195.2867 L 275.91757,195.2867 L 281.79257,201.1617 L 270.01132,212.94295 L 258.26132,201.1617 L 264.13632,195.2867 L 252.38632,195.2867 L 228.85507,195.2867 L 234.73007,201.1617 L 222.94882,212.94295 L 211.19882,201.1617 L 217.07382,195.2867 L 205.32382,195.2867 L 193.54257,195.2867 z M 246.48007,212.9117 L 258.26132,224.69295 L 246.48007,236.4742 L 234.73007,224.69295 L 246.48007,212.9117 z M 293.54257,212.9117 L 305.32382,224.69295 L 293.54257,236.4742 L 281.79257,224.69295 L 293.54257,212.9117 z M 340.60507,212.9117 L 352.38632,224.69295 L 340.60507,236.4742 L 328.85507,224.69295 L 340.60507,212.9117 z M 222.94882,236.4742 L 234.73007,248.2242 L 222.94882,260.00545 L 211.16757,248.2242 L 222.94882,236.4742 z M 270.04257,236.4742 L 281.79257,248.2242 L 270.01132,260.00545 L 258.26132,248.2242 L 270.04257,236.4742 z M 317.10507,236.4742 L 328.85507,248.2242 L 317.07382,260.00545 L 305.32382,248.2242 L 317.10507,236.4742 z M 364.16757,236.4742 L 375.91757,248.2242 L 364.13632,260.00545 L 352.38632,248.2242 L 364.16757,236.4742 z M 293.54257,259.9742 L 305.32382,271.75545 L 293.54257,283.5367 L 281.79257,271.75545 L 293.54257,259.9742 z M 340.60507,259.9742 L 352.38632,271.75545 L 340.60507,283.5367 L 328.85507,271.75545 L 340.60507,259.9742 z M 246.48007,260.00545 L 258.26132,271.75545 L 246.48007,283.5367 L 234.73007,271.7867 L 246.48007,260.00545 z M 222.94882,283.5367 L 234.73007,295.2867 L 222.94882,307.06795 L 211.16757,295.2867 L 222.94882,283.5367 z M 270.01132,283.5367 L 281.79257,295.2867 L 270.01132,307.06795 L 258.23007,295.2867 L 270.01132,283.5367 z M 317.10507,283.5367 L 328.85507,295.2867 L 317.07382,307.06795 L 305.32382,295.2867 L 317.10507,283.5367 z M 364.13632,283.5367 L 375.91757,295.2867 L 364.13632,307.06795 L 352.38632,295.2867 L 364.13632,283.5367 z M 246.48007,307.06795 L 258.26132,318.81795 L 246.48007,330.5992 L 234.73007,318.8492 L 246.48007,307.06795 z M 293.54257,307.06795 L 305.32382,318.81795 L 293.54257,330.5992 L 281.79257,318.8492 L 293.54257,307.06795 z M 340.60507,307.06795 L 352.35507,318.8492 L 340.60507,330.5992 L 328.85507,318.81795 L 340.60507,307.06795 z M 222.98007,330.5992 L 234.73007,342.3492 L 222.94882,354.13045 L 211.19882,342.3492 L 222.98007,330.5992 z M 270.01132,330.5992 L 281.79257,342.3492 L 270.01132,354.13045 L 258.23007,342.3492 L 270.01132,330.5992 z M 317.07382,330.5992 L 328.85507,342.3492 L 317.10507,354.0992 L 305.32382,342.3492 L 317.07382,330.5992 z M 364.13632,330.5992 L 375.88632,342.3492 L 364.13632,354.0992 L 352.38632,342.3492 L 364.13632,330.5992 z M 246.48007,354.0992 L 258.26132,365.88045 L 246.48007,377.6617 L 234.73007,365.88045 L 246.48007,354.0992 z M 293.54257,354.13045 L 305.32382,365.88045 L 293.54257,377.6617 L 281.79257,365.88045 L 293.54257,354.13045 z M 340.60507,354.13045 L 352.35507,365.88045 L 340.60507,377.63045 L 328.85507,365.88045 L 340.60507,354.13045 z "
       style="opacity:0.34615383;fill:#000000;stroke:none;filter:url(#filter7852)" />
  </g>
  <g
     id="g7912"
     transform="translate(-0.6432954,12.108887)">
    <use
       height="590"
       width="590"
       transform="matrix(0.6285319,0,0,0.6285319,274.28275,-98.554698)"
       id="use7862"
       xlink:href="#g7856"
       inkscape:tiled-clone-of="#g7856"
       y="0"
       x="0" />
    <use
       height="590"
       width="590"
       id="use7864"
       transform="matrix(0.6285319,0,0,0.6285319,274.28275,27.151686)"
       xlink:href="#g7856"
       inkscape:tiled-clone-of="#g7856"
       y="0"
       x="0" />
    <use
       height="590"
       width="590"
       id="use7866"
       transform="matrix(0.6285319,0,0,0.6285319,274.28275,152.85808)"
       xlink:href="#g7856"
       inkscape:tiled-clone-of="#g7856"
       y="0"
       x="0" />
    <use
       height="590"
       width="590"
       id="use7868"
       transform="matrix(0.6285319,0,0,0.6285319,274.28275,278.56447)"
       xlink:href="#g7856"
       inkscape:tiled-clone-of="#g7856"
       y="0"
       x="0" />
    <use
       height="590"
       width="590"
       id="use7870"
       transform="matrix(0.6285319,0,0,0.6285319,399.98913,-98.554698)"
       xlink:href="#g7856"
       inkscape:tiled-clone-of="#g7856"
       y="0"
       x="0" />
    <use
       height="590"
       width="590"
       id="use7872"
       transform="matrix(0.6285319,0,0,0.6285319,399.98913,27.151686)"
       xlink:href="#g7856"
       inkscape:tiled-clone-of="#g7856"
       y="0"
       x="0" />
    <use
       height="590"
       width="590"
       id="use7874"
       transform="matrix(0.6285319,0,0,0.6285319,399.98913,152.85808)"
       xlink:href="#g7856"
       inkscape:tiled-clone-of="#g7856"
       y="0"
       x="0" />
    <use
       height="590"
       width="590"
       id="use7876"
       transform="matrix(0.6285319,0,0,0.6285319,399.98913,278.56447)"
       xlink:href="#g7856"
       inkscape:tiled-clone-of="#g7856"
       y="0"
       x="0" />
    <use
       height="590"
       width="590"
       id="use7878"
       transform="matrix(0.6285319,0,0,0.6285319,525.69552,-98.554698)"
       xlink:href="#g7856"
       inkscape:tiled-clone-of="#g7856"
       y="0"
       x="0" />
    <use
       height="590"
       width="590"
       id="use7880"
       transform="matrix(0.6285319,0,0,0.6285319,525.69552,27.151686)"
       xlink:href="#g7856"
       inkscape:tiled-clone-of="#g7856"
       y="0"
       x="0" />
    <use
       height="590"
       width="590"
       id="use7882"
       transform="matrix(0.6285319,0,0,0.6285319,525.69552,152.85808)"
       xlink:href="#g7856"
       inkscape:tiled-clone-of="#g7856"
       y="0"
       x="0" />
    <use
       height="590"
       width="590"
       id="use7884"
       transform="matrix(0.6285319,0,0,0.6285319,525.69552,278.56447)"
       xlink:href="#g7856"
       inkscape:tiled-clone-of="#g7856"
       y="0"
       x="0" />
    <use
       height="590"
       width="590"
       id="use7886"
       transform="matrix(0.6285319,0,0,0.6285319,651.40188,-98.554698)"
       xlink:href="#g7856"
       inkscape:tiled-clone-of="#g7856"
       y="0"
       x="0" />
    <use
       height="590"
       width="590"
       id="use7888"
       transform="matrix(0.6285319,0,0,0.6285319,651.40188,27.151686)"
       xlink:href="#g7856"
       inkscape:tiled-clone-of="#g7856"
       y="0"
       x="0" />
    <use
       height="590"
       width="590"
       id="use7890"
       transform="matrix(0.6285319,0,0,0.6285319,651.40188,152.85808)"
       xlink:href="#g7856"
       inkscape:tiled-clone-of="#g7856"
       y="0"
       x="0" />
    <use
       height="590"
       width="590"
       id="use7892"
       transform="matrix(0.6285319,0,0,0.6285319,651.40188,278.56447)"
       xlink:href="#g7856"
       inkscape:tiled-clone-of="#g7856"
       y="0"
       x="0" />
  </g>
</svg>
