<svg svg="http://www.w3.org/2000/svg" xlink="http://www.w3.org/1999/xlink" width="1280" height="1280">
  <defs/>
  <g id="canvas" transform="matrix(1,0,0,-1,0,1280) translate(640,640)">
    <g id="stringart">
      <line y1="-5.26316" x2="89.47368" style="stroke:black;fill:none" x1="100.00000" y2="-100.00000"/>
      <line y1="-15.78947" x2="78.94737" style="stroke:black;fill:none" x1="100.00000" y2="-100.00000"/>
      <line y1="-26.31579" x2="68.42105" style="stroke:black;fill:none" x1="100.00000" y2="-100.00000"/>
      <line y1="-36.84211" x2="57.89474" style="stroke:black;fill:none" x1="100.00000" y2="-100.00000"/>
      <line y1="-47.36842" x2="47.36842" style="stroke:black;fill:none" x1="100.00000" y2="-100.00000"/>
      <line y1="-57.89474" x2="36.84211" style="stroke:black;fill:none" x1="100.00000" y2="-100.00000"/>
      <line y1="-68.42105" x2="26.31579" style="stroke:black;fill:none" x1="100.00000" y2="-100.00000"/>
      <line y1="-78.94737" x2="15.78947" style="stroke:black;fill:none" x1="100.00000" y2="-100.00000"/>
      <line y1="-89.47368" x2="5.26316" style="stroke:black;fill:none" x1="100.00000" y2="-100.00000"/>
      <line y1="-100.00000" x2="-5.26316" style="stroke:black;fill:none" x1="100.00000" y2="-100.00000"/>
      <line y1="-100.00000" x2="-100.00000" style="stroke:black;fill:none" x1="-5.26316" y2="-89.47368"/>
      <line y1="-100.00000" x2="-100.00000" style="stroke:black;fill:none" x1="-15.78947" y2="-78.94737"/>
      <line y1="-100.00000" x2="-100.00000" style="stroke:black;fill:none" x1="-26.31579" y2="-68.42105"/>
      <line y1="-100.00000" x2="-100.00000" style="stroke:black;fill:none" x1="-36.84211" y2="-57.89474"/>
      <line y1="-100.00000" x2="-100.00000" style="stroke:black;fill:none" x1="-47.36842" y2="-47.36842"/>
      <line y1="-100.00000" x2="-100.00000" style="stroke:black;fill:none" x1="-57.89474" y2="-36.84211"/>
      <line y1="-100.00000" x2="-100.00000" style="stroke:black;fill:none" x1="-68.42105" y2="-26.31579"/>
      <line y1="-100.00000" x2="-100.00000" style="stroke:black;fill:none" x1="-78.94737" y2="-15.78947"/>
      <line y1="-100.00000" x2="-100.00000" style="stroke:black;fill:none" x1="-89.47368" y2="-5.26316"/>
      <line y1="-100.00000" x2="-100.00000" style="stroke:black;fill:none" x1="-100.00000" y2="5.26316"/>
      <line y1="5.26316" x2="-89.47368" style="stroke:black;fill:none" x1="-100.00000" y2="100.00000"/>
      <line y1="15.78947" x2="-78.94737" style="stroke:black;fill:none" x1="-100.00000" y2="100.00000"/>
      <line y1="26.31579" x2="-68.42105" style="stroke:black;fill:none" x1="-100.00000" y2="100.00000"/>
      <line y1="36.84211" x2="-57.89474" style="stroke:black;fill:none" x1="-100.00000" y2="100.00000"/>
      <line y1="47.36842" x2="-47.36842" style="stroke:black;fill:none" x1="-100.00000" y2="100.00000"/>
      <line y1="57.89474" x2="-36.84211" style="stroke:black;fill:none" x1="-100.00000" y2="100.00000"/>
      <line y1="68.42105" x2="-26.31579" style="stroke:black;fill:none" x1="-100.00000" y2="100.00000"/>
      <line y1="78.94737" x2="-15.78947" style="stroke:black;fill:none" x1="-100.00000" y2="100.00000"/>
      <line y1="89.47368" x2="-5.26316" style="stroke:black;fill:none" x1="-100.00000" y2="100.00000"/>
      <line y1="100.00000" x2="5.26316" style="stroke:black;fill:none" x1="-100.00000" y2="100.00000"/>
      <line y1="100.00000" x2="100.00000" style="stroke:black;fill:none" x1="5.26316" y2="89.47368"/>
      <line y1="100.00000" x2="100.00000" style="stroke:black;fill:none" x1="15.78947" y2="78.94737"/>
      <line y1="100.00000" x2="100.00000" style="stroke:black;fill:none" x1="26.31579" y2="68.42105"/>
      <line y1="100.00000" x2="100.00000" style="stroke:black;fill:none" x1="36.84211" y2="57.89474"/>
      <line y1="100.00000" x2="100.00000" style="stroke:black;fill:none" x1="47.36842" y2="47.36842"/>
      <line y1="100.00000" x2="100.00000" style="stroke:black;fill:none" x1="57.89474" y2="36.84211"/>
      <line y1="100.00000" x2="100.00000" style="stroke:black;fill:none" x1="68.42105" y2="26.31579"/>
      <line y1="100.00000" x2="100.00000" style="stroke:black;fill:none" x1="78.94737" y2="15.78947"/>
      <line y1="100.00000" x2="100.00000" style="stroke:black;fill:none" x1="89.47368" y2="5.26316"/>
      <line y1="100.00000" x2="100.00000" style="stroke:black;fill:none" x1="100.00000" y2="-5.26316"/>
    </g>
  </g>
</svg>
