<?xml version="1.0" encoding="UTF-8" standalone="no"?>
<svg
   xmlns:dc="http://purl.org/dc/elements/1.1/"
   xmlns:cc="http://creativecommons.org/ns#"
   xmlns:rdf="http://www.w3.org/1999/02/22-rdf-syntax-ns#"
   xmlns:svg="http://www.w3.org/2000/svg"
   xmlns="http://www.w3.org/2000/svg"
   xmlns:xlink="http://www.w3.org/1999/xlink"
   xmlns:sodipodi="http://sodipodi.sourceforge.net/DTD/sodipodi-0.dtd"
   xmlns:inkscape="http://www.inkscape.org/namespaces/inkscape"
   svg="http://www.w3.org/2000/svg"
   xlink="http://www.w3.org/1999/xlink"
   width="590"
   height="590"
   id="svg2"
   version="1.1"
   inkscape:version="0.48+devel r"
   sodipodi:docname="triangle_all-mod01.svg">
  <metadata
     id="metadata153">
    <rdf:RDF>
      <cc:Work
         rdf:about="">
        <dc:format>image/svg+xml</dc:format>
        <dc:type
           rdf:resource="http://purl.org/dc/dcmitype/StillImage" />
        <dc:title></dc:title>
      </cc:Work>
    </rdf:RDF>
  </metadata>
  <sodipodi:namedview
     pagecolor="#ffffff"
     bordercolor="#666666"
     borderopacity="1"
     objecttolerance="10"
     gridtolerance="10"
     guidetolerance="10"
     inkscape:pageopacity="0"
     inkscape:pageshadow="2"
     inkscape:window-width="1920"
     inkscape:window-height="1147"
     id="namedview151"
     showgrid="false"
     inkscape:zoom="1.1313708"
     inkscape:cx="223.12009"
     inkscape:cy="190.53049"
     inkscape:window-x="0"
     inkscape:window-y="0"
     inkscape:window-maximized="1"
     inkscape:current-layer="svg2" />
  <defs
     id="defs4" />
  <g
     id="g491"
     transform="matrix(0.79335335,-0.60876144,0.60876144,0.79335335,-118.62385,240.54539)"
     style="stroke-width:6.9999999;stroke-miterlimit:4;stroke-dasharray:none">
    <g
       transform="matrix(1,0,0,-1,295,295)"
       id="triangle_132-29-17-group"
       style="stroke-width:6.9999999;stroke-miterlimit:4;stroke-dasharray:none">
      <path
         style="fill:none;stroke:#000000;stroke-width:6.9999999;stroke-miterlimit:4;stroke-dasharray:none"
         id="triangle_132-29-17"
         d="M 0,0 0,100 45.92888,141.35455 0,0"
         inkscape:connector-curvature="0" />
      <use
         xlink:href="#triangle_132-29-17"
         transform="matrix(0.8660254,0.5,-0.5,0.8660254,0,0)"
         id="use9"
         x="0"
         y="0"
         width="100%"
         height="100%"
         style="stroke-width:6.99999992;stroke-miterlimit:4;stroke-dasharray:none" />
      <use
         xlink:href="#triangle_132-29-17"
         transform="matrix(0.5,0.8660254,-0.8660254,0.5,0,0)"
         id="use11"
         x="0"
         y="0"
         width="100%"
         height="100%"
         style="stroke-width:6.99999992;stroke-miterlimit:4;stroke-dasharray:none" />
      <use
         xlink:href="#triangle_132-29-17"
         transform="matrix(0,1,-1,0,0,0)"
         id="use13"
         x="0"
         y="0"
         width="100%"
         height="100%"
         style="stroke-width:6.9999999;stroke-miterlimit:4;stroke-dasharray:none" />
      <use
         xlink:href="#triangle_132-29-17"
         transform="matrix(-0.5,0.8660254,-0.8660254,-0.5,0,0)"
         id="use15"
         x="0"
         y="0"
         width="100%"
         height="100%"
         style="stroke-width:6.99999992;stroke-miterlimit:4;stroke-dasharray:none" />
      <use
         xlink:href="#triangle_132-29-17"
         transform="matrix(-0.8660254,0.5,-0.5,-0.8660254,0,0)"
         id="use17"
         x="0"
         y="0"
         width="100%"
         height="100%"
         style="stroke-width:6.99999992;stroke-miterlimit:4;stroke-dasharray:none" />
      <use
         xlink:href="#triangle_132-29-17"
         transform="scale(-1,-1)"
         id="use19"
         x="0"
         y="0"
         width="100%"
         height="100%"
         style="stroke-width:6.9999999;stroke-miterlimit:4;stroke-dasharray:none" />
      <use
         xlink:href="#triangle_132-29-17"
         transform="matrix(-0.8660254,-0.5,0.5,-0.8660254,0,0)"
         id="use21"
         x="0"
         y="0"
         width="100%"
         height="100%"
         style="stroke-width:6.99999992;stroke-miterlimit:4;stroke-dasharray:none" />
      <use
         xlink:href="#triangle_132-29-17"
         transform="matrix(-0.5,-0.8660254,0.8660254,-0.5,0,0)"
         id="use23"
         x="0"
         y="0"
         width="100%"
         height="100%"
         style="stroke-width:6.99999992;stroke-miterlimit:4;stroke-dasharray:none" />
      <use
         xlink:href="#triangle_132-29-17"
         transform="matrix(0,-1,1,0,0,0)"
         id="use25"
         x="0"
         y="0"
         width="100%"
         height="100%"
         style="stroke-width:6.9999999;stroke-miterlimit:4;stroke-dasharray:none" />
      <use
         xlink:href="#triangle_132-29-17"
         transform="matrix(0.5,-0.8660254,0.8660254,0.5,0,0)"
         id="use27"
         x="0"
         y="0"
         width="100%"
         height="100%"
         style="stroke-width:6.99999992;stroke-miterlimit:4;stroke-dasharray:none" />
      <use
         xlink:href="#triangle_132-29-17"
         transform="matrix(0.8660254,-0.5,0.5,0.8660254,0,0)"
         id="use29"
         x="0"
         y="0"
         width="100%"
         height="100%"
         style="stroke-width:6.99999992;stroke-miterlimit:4;stroke-dasharray:none" />
    </g>
    <g
       id="g465"
       transform="matrix(-0.96592583,0.25881905,-0.25881905,-0.96592583,295,295)"
       style="stroke-width:6.99999987;stroke-miterlimit:4;stroke-dasharray:none">
      <path
         inkscape:connector-curvature="0"
         d="M 0,0 0,100 45.92888,141.35455 0,0"
         id="path467"
         style="fill:none;stroke:#000000;stroke-width:6.99999987;stroke-miterlimit:4;stroke-dasharray:none" />
      <use
         height="100%"
         width="100%"
         y="0"
         x="0"
         id="use469"
         transform="matrix(0.8660254,0.5,-0.5,0.8660254,0,0)"
         xlink:href="#triangle_132-29-17"
         style="stroke-width:6.99999989;stroke-miterlimit:4;stroke-dasharray:none" />
      <use
         height="100%"
         width="100%"
         y="0"
         x="0"
         id="use471"
         transform="matrix(0.5,0.8660254,-0.8660254,0.5,0,0)"
         xlink:href="#triangle_132-29-17"
         style="stroke-width:6.99999989;stroke-miterlimit:4;stroke-dasharray:none" />
      <use
         height="100%"
         width="100%"
         y="0"
         x="0"
         id="use473"
         transform="matrix(0,1,-1,0,0,0)"
         xlink:href="#triangle_132-29-17"
         style="stroke-width:6.99999987;stroke-miterlimit:4;stroke-dasharray:none" />
      <use
         height="100%"
         width="100%"
         y="0"
         x="0"
         id="use475"
         transform="matrix(-0.5,0.8660254,-0.8660254,-0.5,0,0)"
         xlink:href="#triangle_132-29-17"
         style="stroke-width:6.99999989;stroke-miterlimit:4;stroke-dasharray:none" />
      <use
         height="100%"
         width="100%"
         y="0"
         x="0"
         id="use477"
         transform="matrix(-0.8660254,0.5,-0.5,-0.8660254,0,0)"
         xlink:href="#triangle_132-29-17"
         style="stroke-width:6.99999989;stroke-miterlimit:4;stroke-dasharray:none" />
      <use
         height="100%"
         width="100%"
         y="0"
         x="0"
         id="use479"
         transform="scale(-1,-1)"
         xlink:href="#triangle_132-29-17"
         style="stroke-width:6.99999987;stroke-miterlimit:4;stroke-dasharray:none" />
      <use
         height="100%"
         width="100%"
         y="0"
         x="0"
         id="use481"
         transform="matrix(-0.8660254,-0.5,0.5,-0.8660254,0,0)"
         xlink:href="#triangle_132-29-17"
         style="stroke-width:6.99999989;stroke-miterlimit:4;stroke-dasharray:none" />
      <use
         height="100%"
         width="100%"
         y="0"
         x="0"
         id="use483"
         transform="matrix(-0.5,-0.8660254,0.8660254,-0.5,0,0)"
         xlink:href="#triangle_132-29-17"
         style="stroke-width:6.99999989;stroke-miterlimit:4;stroke-dasharray:none" />
      <use
         height="100%"
         width="100%"
         y="0"
         x="0"
         id="use485"
         transform="matrix(0,-1,1,0,0,0)"
         xlink:href="#triangle_132-29-17"
         style="stroke-width:6.99999987;stroke-miterlimit:4;stroke-dasharray:none" />
      <use
         height="100%"
         width="100%"
         y="0"
         x="0"
         id="use487"
         transform="matrix(0.5,-0.8660254,0.8660254,0.5,0,0)"
         xlink:href="#triangle_132-29-17"
         style="stroke-width:6.99999989;stroke-miterlimit:4;stroke-dasharray:none" />
      <use
         height="100%"
         width="100%"
         y="0"
         x="0"
         id="use489"
         transform="matrix(0.8660254,-0.5,0.5,0.8660254,0,0)"
         xlink:href="#triangle_132-29-17"
         style="stroke-width:6.99999989;stroke-miterlimit:4;stroke-dasharray:none" />
    </g>
  </g>
</svg>
