<svg xmlns:ns0="http://www.w3.org/2000/svg" xlink="http://www.w3.org/1999/xlink" xmlns="http://www.w3.org/2000/svg" ns0:svg="http://www.w3.org/2000/svg" width="1280" height="1280">
  <defs/>
  <g id="canvas" transform="">
    <g id="weavetile">
      <g id="filling">
        <path style="fill:red; stroke: none" d="M160.00000,0.00000 L480.00000,0.00000 L480.00000,160.00000 L160.00000,160.00000 Z"/>
        <path style="fill:red; stroke: none" d="M1280.00000,160.00000 L1280.00000,480.00000 L1120.00000,480.00000 L1120.00000,160.00000 Z"/>
        <path style="fill:red; stroke: none" d="M1120.00000,1280.00000 L800.00000,1280.00000 L800.00000,1120.00000 L1120.00000,1120.00000 Z"/>
        <path style="fill:red; stroke: none" d="M0.00000,1120.00000 L0.00000,800.00000 L160.00000,800.00000 L160.00000,1120.00000 Z"/>
        <path style="fill:red; stroke: none" d="M160.00000,480.00000 L480.00000,480.00000 L480.00000,1280.00000 L160.00000,1280.00000 Z"/>
        <path style="fill:red; stroke: none" d="M800.00000,160.00000 L800.00000,480.00000 L0.00000,480.00000 L0.00000,160.00000 Z"/>
        <path style="fill:red; stroke: none" d="M1120.00000,800.00000 L800.00000,800.00000 L800.00000,0.00000 L1120.00000,0.00000 Z"/>
        <path style="fill:red; stroke: none" d="M480.00000,1120.00000 L480.00000,800.00000 L1280.00000,800.00000 L1280.00000,1120.00000 Z"/>
      </g>
      <g id="lines">
        <line y1="0.00000" x2="160.00000" style="stroke: black;stroke-width:4;stroke-linecap:none" x1="160.00000" y2="160.00000"/>
        <line y1="0.00000" x2="480.00000" style="stroke: black;stroke-width:4;stroke-linecap:none" x1="480.00000" y2="160.00000"/>
        <line y1="160.00000" x2="1120.00000" style="stroke: black;stroke-width:4;stroke-linecap:none" x1="1280.00000" y2="160.00000"/>
        <line y1="480.00000" x2="1120.00000" style="stroke: black;stroke-width:4;stroke-linecap:none" x1="1280.00000" y2="480.00000"/>
        <line y1="1280.00000" x2="1120.00000" style="stroke: black;stroke-width:4;stroke-linecap:none" x1="1120.00000" y2="1120.00000"/>
        <line y1="1280.00000" x2="800.00000" style="stroke: black;stroke-width:4;stroke-linecap:none" x1="800.00000" y2="1120.00000"/>
        <line y1="1120.00000" x2="160.00000" style="stroke: black;stroke-width:4;stroke-linecap:none" x1="0.00000" y2="1120.00000"/>
        <line y1="800.00000" x2="160.00000" style="stroke: black;stroke-width:4;stroke-linecap:none" x1="0.00000" y2="800.00000"/>
        <line y1="480.00000" x2="160.00000" style="stroke: black;stroke-width:4;stroke-linecap:none" x1="160.00000" y2="1280.00000"/>
        <line y1="480.00000" x2="480.00000" style="stroke: black;stroke-width:4;stroke-linecap:none" x1="480.00000" y2="1280.00000"/>
        <line y1="160.00000" x2="0.00000" style="stroke: black;stroke-width:4;stroke-linecap:none" x1="800.00000" y2="160.00000"/>
        <line y1="480.00000" x2="0.00000" style="stroke: black;stroke-width:4;stroke-linecap:none" x1="800.00000" y2="480.00000"/>
        <line y1="800.00000" x2="1120.00000" style="stroke: black;stroke-width:4;stroke-linecap:none" x1="1120.00000" y2="0.00000"/>
        <line y1="800.00000" x2="800.00000" style="stroke: black;stroke-width:4;stroke-linecap:none" x1="800.00000" y2="0.00000"/>
        <line y1="1120.00000" x2="1280.00000" style="stroke: black;stroke-width:4;stroke-linecap:none" x1="480.00000" y2="1120.00000"/>
        <line y1="800.00000" x2="1280.00000" style="stroke: black;stroke-width:4;stroke-linecap:none" x1="480.00000" y2="800.00000"/>
      </g>
    </g>
    <g id="weavetile">
      <g id="filling">
        <path style="fill:red; stroke: none" d="M224.00000,0.00000 L416.00000,0.00000 L416.00000,224.00000 L224.00000,224.00000 Z"/>
        <path style="fill:red; stroke: none" d="M1280.00000,224.00000 L1280.00000,416.00000 L1056.00000,416.00000 L1056.00000,224.00000 Z"/>
        <path style="fill:red; stroke: none" d="M1056.00000,1280.00000 L864.00000,1280.00000 L864.00000,1056.00000 L1056.00000,1056.00000 Z"/>
        <path style="fill:red; stroke: none" d="M0.00000,1056.00000 L0.00000,864.00000 L224.00000,864.00000 L224.00000,1056.00000 Z"/>
        <path style="fill:red; stroke: none" d="M224.00000,416.00000 L416.00000,416.00000 L416.00000,1280.00000 L224.00000,1280.00000 Z"/>
        <path style="fill:red; stroke: none" d="M864.00000,224.00000 L864.00000,416.00000 L0.00000,416.00000 L0.00000,224.00000 Z"/>
        <path style="fill:red; stroke: none" d="M1056.00000,864.00000 L864.00000,864.00000 L864.00000,0.00000 L1056.00000,0.00000 Z"/>
        <path style="fill:red; stroke: none" d="M416.00000,1056.00000 L416.00000,864.00000 L1280.00000,864.00000 L1280.00000,1056.00000 Z"/>
      </g>
      <g id="lines">
        <line y1="0.00000" x2="224.00000" style="stroke: black;stroke-width:4;stroke-linecap:none" x1="224.00000" y2="224.00000"/>
        <line y1="0.00000" x2="416.00000" style="stroke: black;stroke-width:4;stroke-linecap:none" x1="416.00000" y2="224.00000"/>
        <line y1="224.00000" x2="1056.00000" style="stroke: black;stroke-width:4;stroke-linecap:none" x1="1280.00000" y2="224.00000"/>
        <line y1="416.00000" x2="1056.00000" style="stroke: black;stroke-width:4;stroke-linecap:none" x1="1280.00000" y2="416.00000"/>
        <line y1="1280.00000" x2="1056.00000" style="stroke: black;stroke-width:4;stroke-linecap:none" x1="1056.00000" y2="1056.00000"/>
        <line y1="1280.00000" x2="864.00000" style="stroke: black;stroke-width:4;stroke-linecap:none" x1="864.00000" y2="1056.00000"/>
        <line y1="1056.00000" x2="224.00000" style="stroke: black;stroke-width:4;stroke-linecap:none" x1="0.00000" y2="1056.00000"/>
        <line y1="864.00000" x2="224.00000" style="stroke: black;stroke-width:4;stroke-linecap:none" x1="0.00000" y2="864.00000"/>
        <line y1="416.00000" x2="224.00000" style="stroke: black;stroke-width:4;stroke-linecap:none" x1="224.00000" y2="1280.00000"/>
        <line y1="416.00000" x2="416.00000" style="stroke: black;stroke-width:4;stroke-linecap:none" x1="416.00000" y2="1280.00000"/>
        <line y1="224.00000" x2="0.00000" style="stroke: black;stroke-width:4;stroke-linecap:none" x1="864.00000" y2="224.00000"/>
        <line y1="416.00000" x2="0.00000" style="stroke: black;stroke-width:4;stroke-linecap:none" x1="864.00000" y2="416.00000"/>
        <line y1="864.00000" x2="1056.00000" style="stroke: black;stroke-width:4;stroke-linecap:none" x1="1056.00000" y2="0.00000"/>
        <line y1="864.00000" x2="864.00000" style="stroke: black;stroke-width:4;stroke-linecap:none" x1="864.00000" y2="0.00000"/>
        <line y1="1056.00000" x2="1280.00000" style="stroke: black;stroke-width:4;stroke-linecap:none" x1="416.00000" y2="1056.00000"/>
        <line y1="864.00000" x2="1280.00000" style="stroke: black;stroke-width:4;stroke-linecap:none" x1="416.00000" y2="864.00000"/>
      </g>
    </g>
    <g id="weavetile">
      <g id="filling">
        <path style="fill:red; stroke: none" d="M288.00000,0.00000 L352.00000,0.00000 L352.00000,288.00000 L288.00000,288.00000 Z"/>
        <path style="fill:red; stroke: none" d="M1280.00000,288.00000 L1280.00000,352.00000 L992.00000,352.00000 L992.00000,288.00000 Z"/>
        <path style="fill:red; stroke: none" d="M992.00000,1280.00000 L928.00000,1280.00000 L928.00000,992.00000 L992.00000,992.00000 Z"/>
        <path style="fill:red; stroke: none" d="M0.00000,992.00000 L0.00000,928.00000 L288.00000,928.00000 L288.00000,992.00000 Z"/>
        <path style="fill:red; stroke: none" d="M288.00000,352.00000 L352.00000,352.00000 L352.00000,1280.00000 L288.00000,1280.00000 Z"/>
        <path style="fill:red; stroke: none" d="M928.00000,288.00000 L928.00000,352.00000 L0.00000,352.00000 L0.00000,288.00000 Z"/>
        <path style="fill:red; stroke: none" d="M992.00000,928.00000 L928.00000,928.00000 L928.00000,0.00000 L992.00000,0.00000 Z"/>
        <path style="fill:red; stroke: none" d="M352.00000,992.00000 L352.00000,928.00000 L1280.00000,928.00000 L1280.00000,992.00000 Z"/>
      </g>
      <g id="lines">
        <line y1="0.00000" x2="288.00000" style="stroke: black;stroke-width:4;stroke-linecap:none" x1="288.00000" y2="288.00000"/>
        <line y1="0.00000" x2="352.00000" style="stroke: black;stroke-width:4;stroke-linecap:none" x1="352.00000" y2="288.00000"/>
        <line y1="288.00000" x2="992.00000" style="stroke: black;stroke-width:4;stroke-linecap:none" x1="1280.00000" y2="288.00000"/>
        <line y1="352.00000" x2="992.00000" style="stroke: black;stroke-width:4;stroke-linecap:none" x1="1280.00000" y2="352.00000"/>
        <line y1="1280.00000" x2="992.00000" style="stroke: black;stroke-width:4;stroke-linecap:none" x1="992.00000" y2="992.00000"/>
        <line y1="1280.00000" x2="928.00000" style="stroke: black;stroke-width:4;stroke-linecap:none" x1="928.00000" y2="992.00000"/>
        <line y1="992.00000" x2="288.00000" style="stroke: black;stroke-width:4;stroke-linecap:none" x1="0.00000" y2="992.00000"/>
        <line y1="928.00000" x2="288.00000" style="stroke: black;stroke-width:4;stroke-linecap:none" x1="0.00000" y2="928.00000"/>
        <line y1="352.00000" x2="288.00000" style="stroke: black;stroke-width:4;stroke-linecap:none" x1="288.00000" y2="1280.00000"/>
        <line y1="352.00000" x2="352.00000" style="stroke: black;stroke-width:4;stroke-linecap:none" x1="352.00000" y2="1280.00000"/>
        <line y1="288.00000" x2="0.00000" style="stroke: black;stroke-width:4;stroke-linecap:none" x1="928.00000" y2="288.00000"/>
        <line y1="352.00000" x2="0.00000" style="stroke: black;stroke-width:4;stroke-linecap:none" x1="928.00000" y2="352.00000"/>
        <line y1="928.00000" x2="992.00000" style="stroke: black;stroke-width:4;stroke-linecap:none" x1="992.00000" y2="0.00000"/>
        <line y1="928.00000" x2="928.00000" style="stroke: black;stroke-width:4;stroke-linecap:none" x1="928.00000" y2="0.00000"/>
        <line y1="992.00000" x2="1280.00000" style="stroke: black;stroke-width:4;stroke-linecap:none" x1="352.00000" y2="992.00000"/>
        <line y1="928.00000" x2="1280.00000" style="stroke: black;stroke-width:4;stroke-linecap:none" x1="352.00000" y2="928.00000"/>
      </g>
    </g>
  </g>
</svg>
