<?xml version="1.0" encoding="UTF-8" standalone="no"?>
<svg
   xmlns:dc="http://purl.org/dc/elements/1.1/"
   xmlns:cc="http://creativecommons.org/ns#"
   xmlns:rdf="http://www.w3.org/1999/02/22-rdf-syntax-ns#"
   xmlns:svg="http://www.w3.org/2000/svg"
   xmlns="http://www.w3.org/2000/svg"
   xmlns:sodipodi="http://sodipodi.sourceforge.net/DTD/sodipodi-0.dtd"
   xmlns:inkscape="http://www.inkscape.org/namespaces/inkscape"
   width="590"
   height="590"
   id="svg2"
   version="1.1"
   inkscape:version="0.48+devel r"
   sodipodi:docname="box_st.svg">
  <metadata
     id="metadata65">
    <rdf:RDF>
      <cc:Work
         rdf:about="">
        <dc:format>image/svg+xml</dc:format>
        <dc:type
           rdf:resource="http://purl.org/dc/dcmitype/StillImage" />
      </cc:Work>
    </rdf:RDF>
  </metadata>
  <sodipodi:namedview
     pagecolor="#ffffff"
     bordercolor="#666666"
     borderopacity="1"
     objecttolerance="10"
     gridtolerance="10"
     guidetolerance="10"
     inkscape:pageopacity="0"
     inkscape:pageshadow="2"
     inkscape:window-width="1920"
     inkscape:window-height="1023"
     id="namedview63"
     showgrid="false"
     inkscape:zoom="0.56568542"
     inkscape:cx="-25.329637"
     inkscape:cy="76.378246"
     inkscape:window-x="0"
     inkscape:window-y="0"
     inkscape:window-maximized="1"
     inkscape:current-layer="canvas" />
  <defs
     id="defs4" />
  <g
     id="canvas"
     transform="matrix(1,0,0,-1,0,590) translate(295,295)">
    <g
       id="g7"
       style="fill:#0000ff;stroke:#0000ff;fill-opacity:0">
      <path
         style="stroke:#0000ff;fill:#0000ff;fill-opacity:0"
         d="M0.00000,0.00000 L0.00000,353.18250"
         id="path9" />
      <path
         style="stroke:#0000ff;fill:#0000ff;fill-opacity:0"
         d="M350.37000,0.00000 L350.37000,353.18250"
         id="path11" />
      <path
         style="stroke:#0000ff;fill:#0000ff;fill-opacity:0"
         d="M0.00000,353.18250 L39.37500,353.18250 L39.37500,347.55750"
         id="path13" />
      <path
         style="stroke:#0000ff;fill:#0000ff;fill-opacity:0"
         d="M350.37000,353.18250 L310.99500,353.18250 L310.99500,347.55750"
         id="path15" />
      <path
         style="stroke:#0000ff;fill:#0000ff;fill-opacity:0"
         d="M2.81250,353.18250 L2.81250,389.74500 C2.81250,412.24500 25.31250,434.74500 47.81250,434.74500 L302.55750,434.74500 C325.05750,434.74500 347.55750,434.74500 347.55750,389.74500 L347.55750,353.18250"
         id="path17" />
      <path
         style="stroke:#0000ff;fill:#0000ff;fill-opacity:0"
         d="M350.37000,0.00000 C350.37000,-11.25000 361.62000,-11.25000 361.62000,0.00000 L361.62000,175.18500 L607.92750,175.18500 L675.42750,112.50000 L697.92750,90.00000 L697.92750,0.00000 L700.74000,0.00000"
         id="path19" />
      <path
         style="stroke:#0000ff;fill:#0000ff;fill-opacity:0"
         d="M700.74000,0.00000 L700.74000,-350.37000 L700.74000,-503.05500 L525.55500,-503.05500 L525.55500,-440.37000 L350.37000,-350.37000"
         id="path21" />
      <path
         style="stroke:#0000ff;fill:#0000ff;fill-opacity:0"
         d="M350.37000,-350.37000 L350.37000,-593.05500 L260.37000,-593.05500 L260.37000,-525.55500 L90.00000,-525.55500 L90.00000,-593.05500 L0.00000,-593.05500 L0.00000,-350.37000"
         id="path23" />
      <path
         style="stroke:#0000ff;fill:#0000ff;fill-opacity:0"
         d="M0.00000,-350.37000 L-175.18500,-440.37000 L-175.18500,-503.05500 L-350.37000,-503.05500 L-350.37000,-350.37000"
         id="path25" />
      <path
         style="stroke:#0000ff;fill:#0000ff;fill-opacity:0"
         d="M-350.37000,-350.37000 L-440.37000,-525.55500 L-440.37000,-593.05500 L-610.74000,-593.05500 L-610.74000,-525.55500 L-700.74000,-350.37000"
         id="path27" />
      <path
         style="stroke:#0000ff;fill:#0000ff;fill-opacity:0"
         d="M-700.74000,0.00000 L-350.37000,0.00000"
         id="path31" />
      <path
         style="stroke:#0000ff;fill:#0000ff;fill-opacity:0"
         d="M-350.37000,0.00000 L-347.55750,0.00000 L-347.55750,90.00000 L-325.05750,112.50000 L-257.55750,175.18500 L-11.25000,175.18500 L-11.25000,0.00000 C-11.25000,-11.25000 0.00000,-11.25000 0.00000,0.00000"
         id="path33" />
      <path
         inkscape:connector-curvature="0"
         style="fill:#0000ff;stroke:#0000ff;fill-opacity:0"
         d="m -700.74,-350.37 0,350.37"
         id="path55" />
    </g>
    <g
       id="g35">
      <path
         style=" stroke:red ;fill:none"
         d="M361.62000,0.00000 L697.92750,0.00000"
         id="path37" />
      <path
         style=" stroke:red ;fill:none"
         d="M350.37000,-350.37000 L700.74000,-350.37000"
         id="path39" />
      <path
         style=" stroke:red ;fill:none"
         d="M39.37500,350.37000 L310.99500,350.37000"
         id="path41" />
      <path
         style=" stroke:red ;fill:none"
         d="M0.00000,0.00000 L350.37000,0.00000"
         id="path43" />
      <path
         style=" stroke:red ;fill:none"
         d="M350.37000,-350.37000 L0.00000,-350.37000"
         id="path45" />
      <path
         style=" stroke:red ;fill:none"
         d="M350.37000,-350.37000 L0.00000,-350.37000"
         id="path47" />
      <path
         style=" stroke:red ;fill:none"
         d="M-347.55750,0.00000 L-11.25000,0.00000"
         id="path49" />
      <path
         style=" stroke:red ;fill:none"
         d="M0.00000,-350.37000 L-350.37000,-350.37000"
         id="path51" />
      <path
         style=" stroke:red ;fill:none"
         d="M-350.37000,-350.37000 L-700.74000,-350.37000"
         id="path53" />
      <path
         style=" stroke:red ;fill:none"
         d="M-350.37000,0.00000 L-350.37000,-350.37000"
         id="path57" />
      <path
         style=" stroke:red ;fill:none"
         d="M0.00000,-350.37000 L0.00000,0.00000"
         id="path59" />
      <path
         style=" stroke:red ;fill:none"
         d="M350.37000,0.00000 L350.37000,-350.37000"
         id="path61" />
    </g>
  </g>
</svg>
