<?xml version="1.0" encoding="UTF-8" standalone="no"?>
<svg
   xmlns:dc="http://purl.org/dc/elements/1.1/"
   xmlns:cc="http://web.resource.org/cc/"
   xmlns:rdf="http://www.w3.org/1999/02/22-rdf-syntax-ns#"
   xmlns:svg="http://www.w3.org/2000/svg"
   xmlns="http://www.w3.org/2000/svg"
   xmlns:xlink="http://www.w3.org/1999/xlink"
   xmlns:sodipodi="http://sodipodi.sourceforge.net/DTD/sodipodi-0.dtd"
   xmlns:inkscape="http://www.inkscape.org/namespaces/inkscape"
   width="590"
   xlink:xlink="xlink"
   height="590"
   id="svg4358"
   sodipodi:version="0.32"
   inkscape:version="0.45"
   sodipodi:docname="concentric_intersection.svg"
   sodipodi:docbase="/media/oldubu/home/tamarind/0_Code_0/play-svg/scripts/images"
   inkscape:output_extension="org.inkscape.output.svg.inkscape"
   inkscape:export-filename="/media/oldubu/home/tamarind/0_Code_0/play-svg/scripts/images/concentric_intersection.png"
   inkscape:export-xdpi="93"
   inkscape:export-ydpi="93"
   sodipodi:modified="true">
  <metadata
     id="metadata4388">
    <rdf:RDF>
      <cc:Work
         rdf:about="">
        <dc:format>image/svg+xml</dc:format>
        <dc:type
           rdf:resource="http://purl.org/dc/dcmitype/StillImage" />
      </cc:Work>
    </rdf:RDF>
  </metadata>
  <sodipodi:namedview
     inkscape:window-height="625"
     inkscape:window-width="874"
     inkscape:pageshadow="2"
     inkscape:pageopacity="0.0"
     guidetolerance="10.0"
     gridtolerance="10.0"
     objecttolerance="10.0"
     borderopacity="1.0"
     bordercolor="#666666"
     pagecolor="#ffffff"
     id="base"
     inkscape:zoom="0.34491525"
     inkscape:cx="114.44981"
     inkscape:cy="304.23811"
     inkscape:window-x="0"
     inkscape:window-y="47"
     inkscape:current-layer="svg4358" />
  <defs
     id="defs4360" />
  <rect
     style="opacity:1;fill:#ffffff;fill-opacity:1;fill-rule:nonzero;stroke:none;stroke-width:20;stroke-linejoin:round;stroke-miterlimit:4;stroke-dasharray:none;stroke-opacity:1"
     id="rect7502"
     width="598.69781"
     height="598.69781"
     x="0"
     y="0" />
  <g
     id="g6471"
     transform="translate(-625.51598,-60.159702)">
    <circle
       transform="matrix(-0.5,-0.8660254,-0.8660254,0.5,294.99999,295)"
       style="fill:#000000;fill-opacity:1;stroke:none;stroke-width:1"
       cx="0"
       r="40"
       cy="0"
       id="circle6473"
       sodipodi:cx="0"
       sodipodi:cy="0"
       sodipodi:rx="40"
       sodipodi:ry="40" />
    <g
       transform="matrix(-0.5,-0.8660254,0.8660254,-0.5,187.02251,697.97749)"
       style="stroke:#000000;stroke-width:20;stroke-miterlimit:4;stroke-dasharray:none;stroke-opacity:1"
       id="g6475">
      <path
         d="M 375,295 C 375,250.84 339.16,215 295,215 C 250.84,215 215,250.84 215,295 C 215,339.16 250.84,375 295,375 C 339.16,375 375,339.16 375,295 z M 415,295 C 415,228.76 361.24,175 295,175 C 228.76,175 175,228.76 175,295 C 175,361.24 228.76,415 295,415 C 361.24,415 415,361.24 415,295 z M 455,295 C 455,206.68 383.32,135 295,135 C 206.68,135 135,206.68 135,295 C 135,383.32 206.68,455 295,455 C 383.32,455 455,383.32 455,295 z M 495,295 C 495,184.6 405.4,95 295,95 C 184.6,95 95,184.6 95,295 C 95,405.4 184.6,495 295,495 C 405.4,495 495,405.4 495,295 z M 535,295 C 535,162.52 427.48,55 295,55 C 162.52,55 55,162.52 55,295 C 55,427.48 162.52,535 295,535 C 427.48,535 535,427.48 535,295 z "
         style="fill:none"
         id="path6477" />
    </g>
    <path
       sodipodi:nodetypes="cccccc"
       d="M 248.31547,321.95332 L 105.98516,404.12777 M 294.99999,236.74447 L 294.99999,78.1941 M 345.45076,324.12777 L 485.27024,404.85258"
       style="fill:none;stroke:#000000;stroke-width:20;stroke-miterlimit:4;stroke-dasharray:none"
       id="path6479" />
    <path
       d="M 225.71797,254.99999 L 87.153901,175.00001 M 364.28203,255.00001 L 502.84608,175.00001 M 294.99999,375 L 294.99999,535"
       style="fill:none;stroke:#000000;stroke-width:20;stroke-miterlimit:4;stroke-dasharray:none"
       id="path6481" />
  </g>
  <path
     id="circle4363"
     style="fill:#000000;fill-opacity:1;stroke:none;stroke-width:1"
     d="M 293.9375,245 C 277.05308,245.38085 260.7433,254.3149 251.6875,270 C 237.88819,293.90112 246.09889,324.51319 270,338.3125 C 293.9011,352.11179 324.51319,343.90111 338.3125,320 C 352.11181,296.0989 343.90111,265.48681 320,251.6875 C 311.78399,246.94399 302.78172,244.80051 293.9375,245 z M 295,265.28125 C 311.40403,265.28124 324.71875,278.59597 324.71875,295 C 324.71876,311.40403 311.40403,324.71875 295,324.71875 C 278.59597,324.71876 265.28125,311.40403 265.28125,295 C 265.28124,278.59597 278.59597,265.28125 295,265.28125 z M 511.11824,169.39317 C 489.92904,132.80585 459.17645,101.1195 419.99282,78.496823 C 300.57603,9.5515154 147.44046,50.588711 78.49515,170.0055 C 9.5498282,289.4223 50.587042,442.55785 170.00382,511.50317 C 289.42061,580.44849 442.55618,539.41128 511.5015,419.9945 C 557.82414,339.76134 554.50564,244.31005 511.11824,169.39317 z M 493.94142,179.45454 C 532.31369,245.63228 536.53909,329.19102 498.9639,401.21624 L 481.64739,391.22317 C 513.73947,329.07015 511.71934,257.42062 481.62009,198.80088 L 464.35371,208.76963 C 491.07504,261.35237 492.81067,325.35951 464.31527,381.20304 L 446.95607,371.19854 C 471.72345,321.89238 470.19659,265.43168 446.92495,218.83213 L 429.65856,228.80088 C 449.56623,269.35731 450.81431,318.19298 429.62394,361.17841 L 412.24913,351.14685 C 429.73,314.7122 428.67528,273.42905 412.20274,238.879 L 394.90929,248.86338 C 408.03773,277.3446 408.81543,311.03737 394.87431,341.11528 L 377.44118,331.04521 C 387.73099,307.53744 387.12467,281.41074 377.37228,258.98838 L 360.05177,268.98838 C 367.73653,288.20787 366.80953,310.62493 355.62171,330.00279 C 344.43846,349.37272 325.47755,361.36005 304.99729,364.31871 L 304.98185,384.35447 C 329.28962,381.59363 352.23042,369.0431 367.44811,348.36172 L 384.88124,358.43178 C 365.80014,385.5539 336.24173,401.7211 305.00603,404.58385 L 304.9864,424.54985 C 343.15302,421.54353 379.44083,401.82297 402.25606,368.46335 L 419.63088,378.49492 C 393.00055,418.34259 350.08846,441.67237 305.00639,444.70948 L 304.9982,464.63279 C 356.9868,461.48752 406.64417,434.60864 436.96301,388.51505 L 454.3222,398.51955 C 420.21104,451.12392 363.91381,481.64086 305.0182,484.79243 L 304.99438,504.68867 C 370.80928,501.44356 433.87169,467.39429 471.65433,408.53968 L 488.97083,418.53274 C 423.22754,521.94255 287.14122,556.04648 179.99689,494.18667 C 146.79584,475.01805 120.18185,448.82571 100.9478,418.58213 L 118.3495,408.53525 C 135.86296,435.88261 159.97451,459.54075 189.98995,476.87016 C 220.00827,494.20125 252.57248,503.2219 285.01694,504.71173 L 285.00951,484.76136 C 256.00378,483.24906 226.90623,475.06654 200.01008,459.53804 C 173.11404,444.00961 151.45614,422.91589 135.64294,398.55088 L 153.04464,388.504 C 167.12986,409.96573 186.29854,428.53568 210.00315,442.22153 C 233.71019,455.90881 259.3795,463.2316 285.00932,464.69854 L 285.00189,444.74817 C 262.80449,443.27198 240.58026,436.78923 219.99621,424.90503 C 199.40872,413.01885 182.71497,397.00778 170.33808,378.51963 L 187.76684,368.45713 C 198.40253,384.04106 212.5946,397.5457 229.98928,407.58852 C 247.39545,417.63799 266.19764,423.18542 285.02458,424.59997 L 285.01296,404.57984 C 269.62769,403.17495 254.28717,398.49966 240.0094,390.25639 C 225.73525,382.01522 213.99565,371.07578 205.08735,358.45713 L 222.57024,348.36338 C 229.70859,358.0944 238.91075,366.53608 250.00247,372.93989 C 261.08995,379.34125 273.00403,383.10315 284.99297,384.42021 L 284.9886,364.28764 C 276.43288,363.04339 267.9563,360.21953 259.99553,355.62339 C 229.38468,337.95022 217.19089,300.87105 229.9886,269.02485 L 212.53984,258.92772 C 202.24537,282.44103 202.83631,308.59606 212.5973,331.02724 L 195.08735,341.13662 C 181.94884,312.65301 181.19118,278.99524 195.13796,248.91178 L 177.74752,238.85315 C 160.28383,275.28168 161.35192,316.56022 177.82097,351.10537 L 160.33808,361.19912 C 140.42913,320.6444 139.18394,271.80588 160.3727,228.82158 L 143.04057,218.80145 C 118.28012,268.10329 119.83146,324.55014 143.09876,371.15224 L 125.64294,381.23037 C 98.91714,328.6428 97.219047,264.6556 125.72407,208.80839 L 108.34925,198.77682 C 76.25899,260.93277 78.294827,332.55943 108.40362,391.18349 L 90.9478,401.26162 C 55.933227,333.89926 55.020427,250.65104 95.811654,179.99856 C 136.60103,109.34928 209.15683,68.539668 284.9979,65.178754 L 284.98664,85.284259 C 219.16075,88.526869 156.09395,122.59749 118.31525,181.47594 L 135.71713,191.49189 C 169.83157,138.89219 226.09401,108.38153 284.99408,105.23463 L 284.99845,125.3672 C 233.00949,128.5155 183.3521,155.39736 153.03364,201.48495 L 170.39283,211.48945 C 197.02483,171.6585 239.93487,148.35402 285.00588,145.31758 L 285.01025,165.45015 C 246.85172,168.4519 210.5872,188.17929 187.76765,221.52102 L 205.14247,231.55259 C 224.22195,204.44855 253.76583,188.28113 284.99062,185.41615 L 284.99918,205.61847 C 260.69221,208.37679 237.74986,220.9411 222.53291,241.61122 L 240.00873,251.69272 C 261.1877,224.67722 299.38562,216.70074 330.00111,234.37661 C 337.96224,238.97297 344.66689,244.8941 350.02471,251.68349 L 367.42641,241.63662 C 360.28914,231.90326 351.08942,223.46594 339.99418,217.0601 C 328.90229,210.65619 317.00037,206.89622 305.00368,205.57978 L 305.01075,185.40453 C 320.39541,186.80921 335.71086,191.50113 349.98724,199.7436 C 364.26332,207.98589 375.99627,218.92656 384.90929,231.54287 L 402.25687,221.52724 C 391.62169,205.9448 377.40202,192.45428 360.00737,182.41147 C 342.61116,172.36775 323.81473,166.80261 304.99913,165.3844 L 305.01038,145.27889 C 327.19885,146.75779 349.42334,153.21478 370.00044,165.09497 C 390.58651,176.98034 407.30678,192.97739 419.68563,211.46474 L 436.95201,201.49599 C 422.86594,180.03132 403.70282,161.46705 379.9935,147.77846 C 356.28959,134.09299 330.63124,126.79611 305.00295,125.32852 L 305.0142,105.22301 C 334.01353,106.73844 363.098,114.93784 389.98656,130.46196 C 416.88366,145.99099 438.5377,167.08535 454.35371,191.44912 L 471.64715,181.46474 C 454.13566,154.12163 430.01973,130.45787 400.00669,113.12983 C 369.99439,95.802214 337.44364,86.767493 305.00677,85.272638 L 304.99096,65.182758 C 340.80071,66.71772 376.79778,76.644164 409.99976,95.813327 C 446.10838,116.66065 474.43525,145.81374 493.94142,179.45454 z " />
  <g
     id="g12561">
    <path
       sodipodi:end="1.2566371"
       sodipodi:start="0"
       d="M 400.09828,1223.4889 A 236.28993,236.28993 0 0 1 236.82595,1448.214 L 163.80835,1223.4889 z"
       sodipodi:ry="236.28993"
       sodipodi:rx="236.28993"
       sodipodi:cy="1223.4889"
       sodipodi:cx="163.80835"
       id="path12557"
       style="opacity:1;fill:#000000;fill-opacity:1;fill-rule:nonzero;stroke:none;stroke-width:20;stroke-linejoin:round;stroke-miterlimit:4;stroke-dasharray:none;stroke-opacity:1"
       sodipodi:type="arc" />
    <path
       transform="matrix(0.309017,-0.9510565,0.9510565,0.309017,-1053.176,990.41417)"
       sodipodi:end="1.2566371"
       sodipodi:start="0"
       d="M 400.09828,1223.4889 A 236.28993,236.28993 0 0 1 236.82595,1448.214 L 163.80835,1223.4889 z"
       sodipodi:ry="236.28993"
       sodipodi:rx="236.28993"
       sodipodi:cy="1223.4889"
       sodipodi:cx="163.80835"
       id="path12559"
       style="opacity:1;fill:#000000;fill-opacity:1;fill-rule:nonzero;stroke:none;stroke-width:20;stroke-linejoin:round;stroke-miterlimit:4;stroke-dasharray:none;stroke-opacity:1"
       sodipodi:type="arc" />
  </g>
</svg>
