<?xml version="1.0" encoding="UTF-8" standalone="no"?>
<svg
   xmlns:dc="http://purl.org/dc/elements/1.1/"
   xmlns:cc="http://web.resource.org/cc/"
   xmlns:rdf="http://www.w3.org/1999/02/22-rdf-syntax-ns#"
   xmlns:svg="http://www.w3.org/2000/svg"
   xmlns="http://www.w3.org/2000/svg"
   xmlns:xlink="http://www.w3.org/1999/xlink"
   xmlns:sodipodi="http://sodipodi.sourceforge.net/DTD/sodipodi-0.dtd"
   xmlns:inkscape="http://www.inkscape.org/namespaces/inkscape"
   width="590"
   xlink:xlink="xlink"
   height="590"
   id="svg2"
   sodipodi:version="0.32"
   inkscape:version="0.45"
   sodipodi:docname="cornerdbox_redux01.svg"
   sodipodi:docbase="/media/oldubu/home/tamarind/0_Code_0/play-svg/scripts/images"
   inkscape:output_extension="org.inkscape.output.svg.inkscape"
   sodipodi:modified="true">
  <sodipodi:namedview
     inkscape:window-height="693"
     inkscape:window-width="1024"
     inkscape:pageshadow="2"
     inkscape:pageopacity="0.0"
     guidetolerance="10.0"
     gridtolerance="10.0"
     objecttolerance="10.0"
     borderopacity="1.0"
     bordercolor="#666666"
     pagecolor="#ffffff"
     id="base"
     inkscape:zoom="0.68983051"
     inkscape:cx="295"
     inkscape:cy="294.27518"
     inkscape:window-x="0"
     inkscape:window-y="25"
     inkscape:current-layer="svg2"
     showguides="true"
     inkscape:guide-bbox="true">
    <sodipodi:guide
       orientation="horizontal"
       position="539.68579"
       id="guide11423" />
    <sodipodi:guide
       orientation="horizontal"
       position="458.19477"
       id="guide11425" />
    <sodipodi:guide
       orientation="vertical"
       position="-191.87357"
       id="guide16826" />
  </sodipodi:namedview>
  <metadata
     id="metadata16">
    <rdf:RDF>
      <cc:Work
         rdf:about="">
        <dc:format>image/svg+xml</dc:format>
        <dc:type
           rdf:resource="http://purl.org/dc/dcmitype/StillImage" />
      </cc:Work>
    </rdf:RDF>
  </metadata>
  <defs
     id="defs4" />
  <g
     id="g19571"
     transform="translate(14.082464,-742.84998)">
    <path
       style="fill:#000000;stroke:none"
       d="M 201.89634,539.39711 L 539.39711,539.39711 L 539.39711,201.89634 L 457.9314,201.89634 L 457.9314,457.9314 L 201.89634,457.9314 L 201.89634,539.39711 z "
       id="path9" />
    <path
       style="fill:#000000;stroke:none"
       d="M 50.602892,388.10366 L 50.602892,50.602892 L 388.10366,50.602892 L 388.10366,132.06859 L 132.06859,132.06859 L 132.06859,388.10366 L 50.602892,388.10366 z "
       id="path11" />
    <path
       style="fill:#000000;stroke:none"
       d="M 166.98247,423.01753 L 423.01753,423.01753 L 423.01753,166.98247 L 166.98247,166.98247 L 166.98247,423.01753 z "
       id="path13" />
    <path
       style="color:#000000;fill:#000000;fill-opacity:1;fill-rule:nonzero;stroke:none;stroke-width:1.46002471;stroke-linecap:butt;stroke-linejoin:miter;marker:none;marker-start:none;marker-mid:none;marker-end:none;stroke-miterlimit:4;stroke-dashoffset:0;stroke-opacity:1;visibility:visible;display:inline;overflow:visible;enable-background:accumulate"
       id="rect11429"
       d="M 421.96359,50.314209 L 538.66077,50.314209 L 538.66077,167.01139 L 421.96359,167.01139 L 421.96359,50.314209 z " />
    <path
       style="color:#000000;fill:#000000;fill-opacity:1;fill-rule:nonzero;stroke:none;stroke-width:1.46002471;stroke-linecap:butt;stroke-linejoin:miter;marker:none;marker-start:none;marker-mid:none;marker-end:none;stroke-miterlimit:4;stroke-dashoffset:0;stroke-opacity:1;visibility:visible;display:inline;overflow:visible;enable-background:accumulate"
       id="rect12402"
       d="M 50.602894,422.69995 L 167.30008,422.69995 L 167.30008,539.39713 L 50.602894,539.39713 L 50.602894,422.69995 z " />
  </g>
  <g
     id="g20568"
     transform="translate(1173.1933,-1235.5261)">
    <path
       style="fill:#000000;stroke:none"
       d="M 214.95024,539.39711 L 552.45101,539.39711 L 552.45101,201.89634 L 470.9853,201.89634 L 470.9853,457.9314 L 214.95024,457.9314 L 214.95024,539.39711 z "
       id="path19580" />
    <path
       style="fill:#000000;stroke:none"
       d="M 63.656794,388.10366 L 63.656794,50.602893 L 401.15756,50.602893 L 401.15756,132.06859 L 145.12249,132.06859 L 145.12249,388.10366 L 63.656794,388.10366 z "
       id="path19582" />
    <path
       id="path19584"
       d="M 180.03125,166.96875 L 180.03125,423.03125 L 436.0625,423.03125 L 436.0625,166.96875 L 180.03125,166.96875 z M 252.59375,239.5625 L 363.5,239.5625 L 363.5,350.4375 L 252.59375,350.4375 L 252.59375,239.5625 z "
       style="fill:#000000;stroke:none" />
    <path
       style="color:#000000;fill:#000000;fill-opacity:1;fill-rule:nonzero;stroke:none;stroke-width:1.46002471;stroke-linecap:butt;stroke-linejoin:miter;marker:none;marker-start:none;marker-mid:none;marker-end:none;stroke-miterlimit:4;stroke-dashoffset:0;stroke-opacity:1;visibility:visible;display:inline;overflow:visible;enable-background:accumulate"
       id="path19586"
       d="M 435.01749,50.31421 L 551.71467,50.31421 L 551.71467,167.01139 L 435.01749,167.01139 L 435.01749,50.31421 z " />
    <path
       style="color:#000000;fill:#000000;fill-opacity:1;fill-rule:nonzero;stroke:none;stroke-width:1.46002471;stroke-linecap:butt;stroke-linejoin:miter;marker:none;marker-start:none;marker-mid:none;marker-end:none;stroke-miterlimit:4;stroke-dashoffset:0;stroke-opacity:1;visibility:visible;display:inline;overflow:visible;enable-background:accumulate"
       id="path19588"
       d="M 63.656796,422.69995 L 180.35398,422.69995 L 180.35398,539.39713 L 63.656796,539.39713 L 63.656796,422.69995 z " />
  </g>
  <g
     id="g20755"
     transform="translate(896.12805,-341.38211)">
    <path
       id="path20718"
       d="M 425.96875,175.84375 L 425.96875,431.875 L 169.9375,431.875 L 169.9375,513.34375 L 225.3125,513.34375 L 225.3125,489.03125 L 483.125,489.03125 L 483.125,231.1875 L 507.4375,231.1875 L 507.4375,175.84375 L 425.96875,175.84375 z "
       style="fill:#000000;stroke:none" />
    <path
       id="path20720"
       d="M 300.78125,24.53125 L 300.78125,48.84375 L 42.9375,48.84375 L 42.9375,306.6875 L 18.65625,306.6875 L 18.65625,362.03125 L 100.125,362.03125 L 100.125,106 L 356.15625,106 L 356.15625,24.53125 L 300.78125,24.53125 z "
       style="fill:#000000;stroke:none" />
    <path
       id="path20722"
       d="M 135.02042,140.90536 L 135.02042,396.96786 L 391.05167,396.96786 L 391.05167,140.90536 L 135.02042,140.90536 z M 207.58292,213.49911 L 318.48917,213.49911 L 318.48917,324.37411 L 207.58292,324.37411 L 207.58292,213.49911 z "
       style="fill:#000000;stroke:none" />
    <path
       style="color:#000000;fill:#000000;fill-opacity:1;fill-rule:nonzero;stroke:none;stroke-width:1.46002471;stroke-linecap:butt;stroke-linejoin:miter;marker:none;marker-start:none;marker-mid:none;marker-end:none;stroke-miterlimit:4;stroke-dashoffset:0;stroke-opacity:1;visibility:visible;display:inline;overflow:visible;enable-background:accumulate"
       id="path20724"
       d="M 390.00666,24.250816 L 506.70384,24.250816 L 506.70384,140.948 L 390.00666,140.948 L 390.00666,24.250816 z " />
    <path
       style="color:#000000;fill:#000000;fill-opacity:1;fill-rule:nonzero;stroke:none;stroke-width:1.46002471;stroke-linecap:butt;stroke-linejoin:miter;marker:none;marker-start:none;marker-mid:none;marker-end:none;stroke-miterlimit:4;stroke-dashoffset:0;stroke-opacity:1;visibility:visible;display:inline;overflow:visible;enable-background:accumulate"
       id="path20726"
       d="M 18.64597,396.63656 L 135.34315,396.63656 L 135.34315,513.33374 L 18.64597,513.33374 L 18.64597,396.63656 z " />
  </g>
  <g
     id="g20919"
     transform="translate(473.20918,-133.46926)">
    <path
       id="path20892"
       d="M 1027.0505,870.43315 L 1027.0505,1126.4644 L 771.01924,1126.4644 L 771.01924,1207.9331 L 826.39424,1207.9331 L 826.39424,1183.6206 L 1084.2067,1183.6206 L 1084.2067,925.7769 L 1108.5192,925.7769 L 1108.5192,870.43315 L 1027.0505,870.43315 z "
       style="fill:#000000;stroke:none" />
    <path
       id="path20894"
       d="M 901.86299,719.12065 L 901.86299,743.43315 L 644.01924,743.43315 L 644.01924,1001.2769 L 619.73799,1001.2769 L 619.73799,1056.6206 L 701.20674,1056.6206 L 701.20674,800.5894 L 957.23799,800.5894 L 957.23799,719.12065 L 901.86299,719.12065 z "
       style="fill:#000000;stroke:none" />
    <path
       id="path20896"
       d="M 736.10216,835.49476 L 736.10216,1091.5573 L 992.13341,1091.5573 L 992.13341,835.49476 L 736.10216,835.49476 z M 808.66466,908.08851 L 919.57091,908.08851 L 919.57091,1018.9635 L 808.66466,1018.9635 L 808.66466,908.08851 z "
       style="fill:#000000;stroke:none" />
    <path
       sodipodi:nodetypes="cccc"
       style="color:#000000;fill:#000000;fill-opacity:1;fill-rule:nonzero;stroke:none;stroke-width:1.46002471;stroke-linecap:butt;stroke-linejoin:miter;marker:none;marker-start:none;marker-mid:none;marker-end:none;stroke-miterlimit:4;stroke-dashoffset:0;stroke-opacity:1;visibility:visible;display:inline;overflow:visible;enable-background:accumulate"
       id="path20898"
       d="M 991.0884,718.84022 L 1107.7856,835.5374 L 991.0884,835.5374 L 991.0884,718.84022 z " />
    <path
       sodipodi:nodetypes="cccc"
       style="color:#000000;fill:#000000;fill-opacity:1;fill-rule:nonzero;stroke:none;stroke-width:1.46002471;stroke-linecap:butt;stroke-linejoin:miter;marker:none;marker-start:none;marker-mid:none;marker-end:none;stroke-miterlimit:4;stroke-dashoffset:0;stroke-opacity:1;visibility:visible;display:inline;overflow:visible;enable-background:accumulate"
       id="path20900"
       d="M 619.72771,1091.226 L 736.42489,1091.226 L 736.42489,1207.9231 L 619.72771,1091.226 z " />
  </g>
  <path
     id="path21056"
     style="fill:#000000;stroke:none"
     d="M 1664.3439,369.84095 L 1845.3854,188.79955 L 2026.4269,369.84095 L 2108.4889,292.92955 L 2108.4889,219.45455 L 2027.6864,290.26945 L 1845.3854,107.96845 L 1663.0623,290.29145 L 1582.5805,215.18675 L 1582.5806,290.14695 L 1664.3439,369.84095 z M 1582.5806,624.35045 L 1663.0623,548.16445 L 1845.3855,730.48755 L 2027.7086,548.16445 L 2108.4889,624.31955 L 2108.4889,544.43185 L 2026.4047,468.59285 L 1845.3633,649.63425 L 1664.3218,468.59285 L 1582.5806,549.42815 L 1582.5806,624.35045 z M 1845.3704,600.27765 L 2026.434,419.21415 L 1845.3924,238.17265 L 1664.3289,419.23625 L 1845.3704,600.27765 z M 1845.3924,497.63675 L 1766.9698,419.21415 L 1845.3704,340.81365 L 1923.793,419.23625 L 1845.3924,497.63675 z M 1582.5806,502.46235 L 1582.5806,337.42765 L 1665.0979,419.94505 L 1582.5806,502.46235 z M 2108.4889,501.73765 L 2025.9715,419.22015 L 2108.4889,336.70285 L 2108.4889,501.73765 z "
     sodipodi:nodetypes="cccccccccccccccccccccccccccccccccccccccc" />
</svg>
