<?xml version="1.0" encoding="UTF-8" standalone="no"?>
<svg
   xmlns:dc="http://purl.org/dc/elements/1.1/"
   xmlns:cc="http://web.resource.org/cc/"
   xmlns:rdf="http://www.w3.org/1999/02/22-rdf-syntax-ns#"
   xmlns:svg="http://www.w3.org/2000/svg"
   xmlns="http://www.w3.org/2000/svg"
   xmlns:xlink="http://www.w3.org/1999/xlink"
   xmlns:sodipodi="http://sodipodi.sourceforge.net/DTD/sodipodi-0.dtd"
   xmlns:inkscape="http://www.inkscape.org/namespaces/inkscape"
   width="590"
   xlink:xlink="xlink"
   height="590"
   id="svg27481"
   sodipodi:version="0.32"
   inkscape:version="0.45"
   sodipodi:docname="cornered_flower.svg"
   sodipodi:docbase="/media/oldubu/home/tamarind/0_Code_0/play-svg/scripts/images"
   inkscape:output_extension="org.inkscape.output.svg.inkscape"
   sodipodi:modified="true">
  <metadata
     id="metadata27489">
    <rdf:RDF>
      <cc:Work
         rdf:about="">
        <dc:format>image/svg+xml</dc:format>
        <dc:type
           rdf:resource="http://purl.org/dc/dcmitype/StillImage" />
      </cc:Work>
    </rdf:RDF>
  </metadata>
  <sodipodi:namedview
     inkscape:window-height="626"
     inkscape:window-width="874"
     inkscape:pageshadow="2"
     inkscape:pageopacity="0.0"
     guidetolerance="10.0"
     gridtolerance="10.0"
     objecttolerance="10.0"
     borderopacity="1.0"
     bordercolor="#666666"
     pagecolor="#ffffff"
     id="base"
     inkscape:zoom="0.68983051"
     inkscape:cx="295"
     inkscape:cy="284.95068"
     inkscape:window-x="0"
     inkscape:window-y="49"
     inkscape:current-layer="svg27481" />
  <defs
     id="defs27483">
    <linearGradient
       id="linearGradient28682">
      <stop
         style="stop-color:#418bff;stop-opacity:1;"
         offset="0"
         id="stop28684" />
      <stop
         id="stop28690"
         offset="0.2857143"
         style="stop-color:#20c5ea;stop-opacity:1;" />
      <stop
         style="stop-color:#00ffd6;stop-opacity:1;"
         offset="1"
         id="stop28686" />
    </linearGradient>
    <radialGradient
       inkscape:collect="always"
       xlink:href="#linearGradient28682"
       id="radialGradient28688"
       cx="296.44962"
       cy="292.10074"
       fx="296.44962"
       fy="292.10074"
       r="295.73001"
       gradientTransform="matrix(1,0,0,0.9901963,0,2.863681)"
       gradientUnits="userSpaceOnUse" />
  </defs>
  <rect
     style="opacity:1;color:#000000;fill:url(#radialGradient28688);fill-opacity:1.0;fill-rule:nonzero;stroke:#000000;stroke-width:1.46002471;stroke-linecap:butt;stroke-linejoin:miter;marker:none;marker-start:none;marker-mid:none;marker-end:none;stroke-miterlimit:4;stroke-dasharray:none;stroke-dashoffset:0;stroke-opacity:1;visibility:visible;display:inline;overflow:visible;enable-background:accumulate"
     id="rect27711"
     width="590"
     height="584.20148"
     x="1.4496315"
     y="0" />
  <g
     id="tilegroup"
     transform="matrix(0.6893781,0,0,0.6893781,295,295)">
    <g
       id="g8831">
      <path
         style="fill:none;stroke:#000000;stroke-width:1.86207318"
         id="path22618"
         d="M 271.45029,-143.62417 C 271.45029,-143.62417 194.5138,-194.5138 194.5138,-194.5138 C 194.5138,-194.5138 143.62417,-271.45029 143.62417,-271.45029 C 143.62417,-271.45029 179.06395,-259.41181 179.06395,-259.41181 C 179.06395,-259.41181 162.71134,-290.53747 162.71134,-290.53747 C 162.71134,-290.53747 264.98956,-264.98956 264.98956,-264.98956 C 264.98956,-264.98956 290.53747,-162.71136 290.53747,-162.71136 C 290.53747,-162.71136 259.4118,-179.06396 259.4118,-179.06396 C 259.4118,-179.06396 271.45029,-143.62417 271.45029,-143.62417 C 271.45029,-143.62417 271.45029,-143.62417 271.45029,-143.62417" />
      <path
         style="fill:#000000;stroke:none"
         id="path22620"
         d="M 261.94185,-156.0288 C 261.94185,-156.0288 196.88216,-196.88215 196.88216,-196.88215 C 196.88216,-196.88215 156.0288,-261.94186 156.0288,-261.94186 C 156.0288,-261.94186 174.79499,-255.14283 174.79499,-255.14283 C 174.79499,-255.14283 203.4642,-203.4642 203.4642,-203.4642 C 203.4642,-203.4642 255.14282,-174.79499 255.14282,-174.79499 C 255.14282,-174.79499 261.94185,-156.0288 261.94185,-156.0288 C 261.94185,-156.0288 261.94185,-156.0288 261.94185,-156.0288" />
      <path
         style="fill:#000000;stroke:none"
         id="path22622"
         d="M 281.02905,-175.11598 C 281.02905,-175.11598 258.54844,-258.54844 258.54844,-258.54844 C 258.54844,-258.54844 175.11597,-281.02905 175.11597,-281.02905 C 175.11597,-281.02905 183.60445,-263.9523 183.60445,-263.9523 C 183.60445,-263.9523 244.57505,-244.57506 244.57505,-244.57506 C 244.57505,-244.57506 263.9523,-183.60446 263.9523,-183.60446 C 263.9523,-183.60446 281.02905,-175.11598 281.02905,-175.11598 C 281.02905,-175.11598 281.02905,-175.11598 281.02905,-175.11598" />
      <path
         style="fill:#000000;stroke:none"
         id="path22624"
         d="M 259.4118,-179.06396 C 259.4118,-179.06396 206.7376,-206.73761 206.7376,-206.73761 C 206.7376,-206.73761 179.06395,-259.41181 179.06395,-259.41181 C 179.06395,-259.41181 239.03899,-239.03899 239.03899,-239.03899 C 239.03899,-239.03899 259.4118,-179.06396 259.4118,-179.06396 C 259.4118,-179.06396 259.4118,-179.06396 259.4118,-179.06396" />
    </g>
    <g
       id="g7844">
      <path
         style="fill:none;stroke:#000000;stroke-width:1.86207318"
         id="path22627"
         d="M 90.38671,-293.50196 C 90.38671,-293.50196 0,-275.08406 0,-275.08406 C 0,-275.08406 -90.38671,-293.50196 -90.38671,-293.50196 C -90.38671,-293.50196 -56.81451,-310.04919 -56.81451,-310.04919 C -56.81451,-310.04919 -90.38672,-320.49531 -90.38672,-320.49531 C -90.38672,-320.49531 0,-374.75183 0,-374.75183 C 0,-374.75183 90.38671,-320.49532 90.38671,-320.49532 C 90.38671,-320.49532 56.8145,-310.04919 56.8145,-310.04919 C 56.8145,-310.04919 90.38671,-293.50196 90.38671,-293.50196 C 90.38671,-293.50196 90.38671,-293.50196 90.38671,-293.50196" />
      <path
         style="fill:#000000;stroke:none"
         id="path22629"
         d="M 74.89184,-295.54988 C 74.89184,-295.54988 1e-05,-278.43341 1e-05,-278.43341 C 1e-05,-278.43341 -74.89184,-295.54989 -74.89184,-295.54989 C -74.89184,-295.54989 -56.8145,-304.01195 -56.8145,-304.01195 C -56.8145,-304.01195 0,-287.74183 0,-287.74183 C 0,-287.74183 56.8145,-304.01195 56.8145,-304.01195 C 56.8145,-304.01195 74.89184,-295.54988 74.89184,-295.54988 C 74.89184,-295.54988 74.89184,-295.54988 74.89184,-295.54988" />
      <path
         style="fill:#000000;stroke:none"
         id="path22631"
         d="M 74.89185,-322.54324 C 74.89185,-322.54324 0,-365.64271 0,-365.64271 C 0,-365.64271 -74.89185,-322.54324 -74.89185,-322.54324 C -74.89185,-322.54324 -56.81451,-316.47042 -56.81451,-316.47042 C -56.81451,-316.47042 0,-345.88136 0,-345.88136 C 0,-345.88136 56.8145,-316.47042 56.8145,-316.47042 C 56.8145,-316.47042 74.89185,-322.54324 74.89185,-322.54324 C 74.89185,-322.54324 74.89185,-322.54324 74.89185,-322.54324" />
      <path
         style="fill:#000000;stroke:none"
         id="path22633"
         d="M 56.8145,-310.04919 C 56.8145,-310.04919 -1e-05,-292.37112 -1e-05,-292.37112 C -1e-05,-292.37112 -56.81451,-310.04919 -56.81451,-310.04919 C -56.81451,-310.04919 0,-338.05219 0,-338.05219 C 0,-338.05219 56.8145,-310.04919 56.8145,-310.04919 C 56.8145,-310.04919 56.8145,-310.04919 56.8145,-310.04919" />
    </g>
    <g
       id="g5200">
      <path
         style="fill:none;stroke:#000000;stroke-width:1.86207318"
         id="path22636"
         d="M -143.62417,-271.45029 C -143.62417,-271.45029 -194.5138,-194.5138 -194.5138,-194.5138 C -194.5138,-194.5138 -271.45029,-143.62417 -271.45029,-143.62417 C -271.45029,-143.62417 -259.41181,-179.06395 -259.41181,-179.06395 C -259.41181,-179.06395 -290.53747,-162.71134 -290.53747,-162.71134 C -290.53747,-162.71134 -264.98956,-264.98956 -264.98956,-264.98956 C -264.98956,-264.98956 -162.71136,-290.53747 -162.71136,-290.53747 C -162.71136,-290.53747 -179.06396,-259.4118 -179.06396,-259.4118 C -179.06396,-259.4118 -143.62417,-271.45029 -143.62417,-271.45029 C -143.62417,-271.45029 -143.62417,-271.45029 -143.62417,-271.45029" />
      <path
         style="fill:#000000;stroke:none"
         id="path22638"
         d="M -156.0288,-261.94185 C -156.0288,-261.94185 -196.88215,-196.88216 -196.88215,-196.88216 C -196.88215,-196.88216 -261.94186,-156.0288 -261.94186,-156.0288 C -261.94186,-156.0288 -255.14283,-174.79499 -255.14283,-174.79499 C -255.14283,-174.79499 -203.4642,-203.4642 -203.4642,-203.4642 C -203.4642,-203.4642 -174.79499,-255.14282 -174.79499,-255.14282 C -174.79499,-255.14282 -156.0288,-261.94185 -156.0288,-261.94185 C -156.0288,-261.94185 -156.0288,-261.94185 -156.0288,-261.94185" />
      <path
         style="fill:#000000;stroke:none"
         id="path22640"
         d="M -175.11598,-281.02905 C -175.11598,-281.02905 -258.54844,-258.54844 -258.54844,-258.54844 C -258.54844,-258.54844 -281.02905,-175.11597 -281.02905,-175.11597 C -281.02905,-175.11597 -263.9523,-183.60445 -263.9523,-183.60445 C -263.9523,-183.60445 -244.57506,-244.57505 -244.57506,-244.57505 C -244.57506,-244.57505 -183.60446,-263.9523 -183.60446,-263.9523 C -183.60446,-263.9523 -175.11598,-281.02905 -175.11598,-281.02905 C -175.11598,-281.02905 -175.11598,-281.02905 -175.11598,-281.02905" />
      <path
         style="fill:#000000;stroke:none"
         id="path22642"
         d="M -179.06396,-259.4118 C -179.06396,-259.4118 -206.73761,-206.7376 -206.73761,-206.7376 C -206.73761,-206.7376 -259.41181,-179.06395 -259.41181,-179.06395 C -259.41181,-179.06395 -239.03899,-239.03899 -239.03899,-239.03899 C -239.03899,-239.03899 -179.06396,-259.4118 -179.06396,-259.4118 C -179.06396,-259.4118 -179.06396,-259.4118 -179.06396,-259.4118" />
    </g>
    <g
       id="g4385">
      <path
         style="fill:none;stroke:#000000;stroke-width:1.86207318"
         id="path22645"
         d="M -293.50196,-90.38671 C -293.50196,-90.38671 -275.08406,0 -275.08406,0 C -275.08406,0 -293.50196,90.38671 -293.50196,90.38671 C -293.50196,90.38671 -310.04919,56.81451 -310.04919,56.81451 C -310.04919,56.81451 -320.49531,90.38672 -320.49531,90.38672 C -320.49531,90.38672 -374.75183,0 -374.75183,0 C -374.75183,0 -320.49532,-90.38671 -320.49532,-90.38671 C -320.49532,-90.38671 -310.04919,-56.8145 -310.04919,-56.8145 C -310.04919,-56.8145 -293.50196,-90.38671 -293.50196,-90.38671 C -293.50196,-90.38671 -293.50196,-90.38671 -293.50196,-90.38671" />
      <path
         style="fill:#000000;stroke:none"
         id="path22647"
         d="M -295.54988,-74.89184 C -295.54988,-74.89184 -278.43341,-1e-05 -278.43341,-1e-05 C -278.43341,-1e-05 -295.54989,74.89184 -295.54989,74.89184 C -295.54989,74.89184 -304.01195,56.8145 -304.01195,56.8145 C -304.01195,56.8145 -287.74183,0 -287.74183,0 C -287.74183,0 -304.01195,-56.8145 -304.01195,-56.8145 C -304.01195,-56.8145 -295.54988,-74.89184 -295.54988,-74.89184 C -295.54988,-74.89184 -295.54988,-74.89184 -295.54988,-74.89184" />
      <path
         style="fill:#000000;stroke:none"
         id="path22649"
         d="M -322.54324,-74.89185 C -322.54324,-74.89185 -365.64271,0 -365.64271,0 C -365.64271,0 -322.54324,74.89185 -322.54324,74.89185 C -322.54324,74.89185 -316.47042,56.81451 -316.47042,56.81451 C -316.47042,56.81451 -345.88136,0 -345.88136,0 C -345.88136,0 -316.47042,-56.8145 -316.47042,-56.8145 C -316.47042,-56.8145 -322.54324,-74.89185 -322.54324,-74.89185 C -322.54324,-74.89185 -322.54324,-74.89185 -322.54324,-74.89185" />
      <path
         style="fill:#000000;stroke:none"
         id="path22651"
         d="M -310.04919,-56.8145 C -310.04919,-56.8145 -292.37112,1e-05 -292.37112,1e-05 C -292.37112,1e-05 -310.04919,56.81451 -310.04919,56.81451 C -310.04919,56.81451 -338.05219,0 -338.05219,0 C -338.05219,0 -310.04919,-56.8145 -310.04919,-56.8145 C -310.04919,-56.8145 -310.04919,-56.8145 -310.04919,-56.8145" />
    </g>
    <g
       id="g0742">
      <path
         style="fill:none;stroke:#000000;stroke-width:1.86207318"
         id="path22654"
         d="M -271.45029,143.62417 C -271.45029,143.62417 -194.5138,194.5138 -194.5138,194.5138 C -194.5138,194.5138 -143.62417,271.45029 -143.62417,271.45029 C -143.62417,271.45029 -179.06395,259.41181 -179.06395,259.41181 C -179.06395,259.41181 -162.71134,290.53747 -162.71134,290.53747 C -162.71134,290.53747 -264.98956,264.98956 -264.98956,264.98956 C -264.98956,264.98956 -290.53747,162.71136 -290.53747,162.71136 C -290.53747,162.71136 -259.4118,179.06396 -259.4118,179.06396 C -259.4118,179.06396 -271.45029,143.62417 -271.45029,143.62417 C -271.45029,143.62417 -271.45029,143.62417 -271.45029,143.62417" />
      <path
         style="fill:#000000;stroke:none"
         id="path22656"
         d="M -261.94185,156.0288 C -261.94185,156.0288 -196.88216,196.88215 -196.88216,196.88215 C -196.88216,196.88215 -156.0288,261.94186 -156.0288,261.94186 C -156.0288,261.94186 -174.79499,255.14283 -174.79499,255.14283 C -174.79499,255.14283 -203.4642,203.4642 -203.4642,203.4642 C -203.4642,203.4642 -255.14282,174.79499 -255.14282,174.79499 C -255.14282,174.79499 -261.94185,156.0288 -261.94185,156.0288 C -261.94185,156.0288 -261.94185,156.0288 -261.94185,156.0288" />
      <path
         style="fill:#000000;stroke:none"
         id="path22658"
         d="M -281.02905,175.11598 C -281.02905,175.11598 -258.54844,258.54844 -258.54844,258.54844 C -258.54844,258.54844 -175.11597,281.02905 -175.11597,281.02905 C -175.11597,281.02905 -183.60445,263.9523 -183.60445,263.9523 C -183.60445,263.9523 -244.57505,244.57506 -244.57505,244.57506 C -244.57505,244.57506 -263.9523,183.60446 -263.9523,183.60446 C -263.9523,183.60446 -281.02905,175.11598 -281.02905,175.11598 C -281.02905,175.11598 -281.02905,175.11598 -281.02905,175.11598" />
      <path
         style="fill:#000000;stroke:none"
         id="path22660"
         d="M -259.4118,179.06396 C -259.4118,179.06396 -206.7376,206.73761 -206.7376,206.73761 C -206.7376,206.73761 -179.06395,259.41181 -179.06395,259.41181 C -179.06395,259.41181 -239.03899,239.03899 -239.03899,239.03899 C -239.03899,239.03899 -259.4118,179.06396 -259.4118,179.06396 C -259.4118,179.06396 -259.4118,179.06396 -259.4118,179.06396" />
    </g>
    <g
       id="g4080">
      <path
         style="fill:none;stroke:#000000;stroke-width:1.86207318"
         id="path22663"
         d="M -90.38671,293.50196 C -90.38671,293.50196 0,275.08406 0,275.08406 C 0,275.08406 90.38671,293.50196 90.38671,293.50196 C 90.38671,293.50196 56.81451,310.04919 56.81451,310.04919 C 56.81451,310.04919 90.38672,320.49531 90.38672,320.49531 C 90.38672,320.49531 0,374.75183 0,374.75183 C 0,374.75183 -90.38671,320.49532 -90.38671,320.49532 C -90.38671,320.49532 -56.8145,310.04919 -56.8145,310.04919 C -56.8145,310.04919 -90.38671,293.50196 -90.38671,293.50196 C -90.38671,293.50196 -90.38671,293.50196 -90.38671,293.50196" />
      <path
         style="fill:#000000;stroke:none"
         id="path22665"
         d="M -74.89184,295.54988 C -74.89184,295.54988 -1e-05,278.43341 -1e-05,278.43341 C -1e-05,278.43341 74.89184,295.54989 74.89184,295.54989 C 74.89184,295.54989 56.8145,304.01195 56.8145,304.01195 C 56.8145,304.01195 0,287.74183 0,287.74183 C 0,287.74183 -56.8145,304.01195 -56.8145,304.01195 C -56.8145,304.01195 -74.89184,295.54988 -74.89184,295.54988 C -74.89184,295.54988 -74.89184,295.54988 -74.89184,295.54988" />
      <path
         style="fill:#000000;stroke:none"
         id="path22667"
         d="M -74.89185,322.54324 C -74.89185,322.54324 0,365.64271 0,365.64271 C 0,365.64271 74.89185,322.54324 74.89185,322.54324 C 74.89185,322.54324 56.81451,316.47042 56.81451,316.47042 C 56.81451,316.47042 0,345.88136 0,345.88136 C 0,345.88136 -56.8145,316.47042 -56.8145,316.47042 C -56.8145,316.47042 -74.89185,322.54324 -74.89185,322.54324 C -74.89185,322.54324 -74.89185,322.54324 -74.89185,322.54324" />
      <path
         style="fill:#000000;stroke:none"
         id="path22669"
         d="M -56.8145,310.04919 C -56.8145,310.04919 1e-05,292.37112 1e-05,292.37112 C 1e-05,292.37112 56.81451,310.04919 56.81451,310.04919 C 56.81451,310.04919 0,338.05219 0,338.05219 C 0,338.05219 -56.8145,310.04919 -56.8145,310.04919 C -56.8145,310.04919 -56.8145,310.04919 -56.8145,310.04919" />
    </g>
    <g
       id="g8023">
      <path
         style="fill:none;stroke:#000000;stroke-width:1.86207318"
         id="path22672"
         d="M 143.62417,271.45029 C 143.62417,271.45029 194.5138,194.5138 194.5138,194.5138 C 194.5138,194.5138 271.45029,143.62417 271.45029,143.62417 C 271.45029,143.62417 259.41181,179.06395 259.41181,179.06395 C 259.41181,179.06395 290.53747,162.71134 290.53747,162.71134 C 290.53747,162.71134 264.98956,264.98956 264.98956,264.98956 C 264.98956,264.98956 162.71136,290.53747 162.71136,290.53747 C 162.71136,290.53747 179.06396,259.4118 179.06396,259.4118 C 179.06396,259.4118 143.62417,271.45029 143.62417,271.45029 C 143.62417,271.45029 143.62417,271.45029 143.62417,271.45029" />
      <path
         style="fill:#000000;stroke:none"
         id="path22674"
         d="M 156.0288,261.94185 C 156.0288,261.94185 196.88215,196.88216 196.88215,196.88216 C 196.88215,196.88216 261.94186,156.0288 261.94186,156.0288 C 261.94186,156.0288 255.14283,174.79499 255.14283,174.79499 C 255.14283,174.79499 203.4642,203.4642 203.4642,203.4642 C 203.4642,203.4642 174.79499,255.14282 174.79499,255.14282 C 174.79499,255.14282 156.0288,261.94185 156.0288,261.94185 C 156.0288,261.94185 156.0288,261.94185 156.0288,261.94185" />
      <path
         style="fill:#000000;stroke:none"
         id="path22676"
         d="M 175.11598,281.02905 C 175.11598,281.02905 258.54844,258.54844 258.54844,258.54844 C 258.54844,258.54844 281.02905,175.11597 281.02905,175.11597 C 281.02905,175.11597 263.9523,183.60445 263.9523,183.60445 C 263.9523,183.60445 244.57506,244.57505 244.57506,244.57505 C 244.57506,244.57505 183.60446,263.9523 183.60446,263.9523 C 183.60446,263.9523 175.11598,281.02905 175.11598,281.02905 C 175.11598,281.02905 175.11598,281.02905 175.11598,281.02905" />
      <path
         style="fill:#000000;stroke:none"
         id="path22678"
         d="M 179.06396,259.4118 C 179.06396,259.4118 206.73761,206.7376 206.73761,206.7376 C 206.73761,206.7376 259.41181,179.06395 259.41181,179.06395 C 259.41181,179.06395 239.03899,239.03899 239.03899,239.03899 C 239.03899,239.03899 179.06396,259.4118 179.06396,259.4118 C 179.06396,259.4118 179.06396,259.4118 179.06396,259.4118" />
    </g>
    <g
       id="g8241">
      <path
         style="fill:none;stroke:#000000;stroke-width:1.86207318"
         id="path22681"
         d="M 293.50196,90.38671 C 293.50196,90.38671 275.08406,0 275.08406,0 C 275.08406,0 293.50196,-90.38671 293.50196,-90.38671 C 293.50196,-90.38671 310.04919,-56.81451 310.04919,-56.81451 C 310.04919,-56.81451 320.49531,-90.38672 320.49531,-90.38672 C 320.49531,-90.38672 374.75183,0 374.75183,0 C 374.75183,0 320.49532,90.38671 320.49532,90.38671 C 320.49532,90.38671 310.04919,56.8145 310.04919,56.8145 C 310.04919,56.8145 293.50196,90.38671 293.50196,90.38671 C 293.50196,90.38671 293.50196,90.38671 293.50196,90.38671" />
      <path
         style="fill:#000000;stroke:none"
         id="path22683"
         d="M 295.54988,74.89184 C 295.54988,74.89184 278.43341,1e-05 278.43341,1e-05 C 278.43341,1e-05 295.54989,-74.89184 295.54989,-74.89184 C 295.54989,-74.89184 304.01195,-56.8145 304.01195,-56.8145 C 304.01195,-56.8145 287.74183,0 287.74183,0 C 287.74183,0 304.01195,56.8145 304.01195,56.8145 C 304.01195,56.8145 295.54988,74.89184 295.54988,74.89184 C 295.54988,74.89184 295.54988,74.89184 295.54988,74.89184" />
      <path
         style="fill:#000000;stroke:none"
         id="path22685"
         d="M 322.54324,74.89185 C 322.54324,74.89185 365.64271,0 365.64271,0 C 365.64271,0 322.54324,-74.89185 322.54324,-74.89185 C 322.54324,-74.89185 316.47042,-56.81451 316.47042,-56.81451 C 316.47042,-56.81451 345.88136,0 345.88136,0 C 345.88136,0 316.47042,56.8145 316.47042,56.8145 C 316.47042,56.8145 322.54324,74.89185 322.54324,74.89185 C 322.54324,74.89185 322.54324,74.89185 322.54324,74.89185" />
      <path
         style="fill:#000000;stroke:none"
         id="path22687"
         d="M 310.04919,56.8145 C 310.04919,56.8145 292.37112,-1e-05 292.37112,-1e-05 C 292.37112,-1e-05 310.04919,-56.81451 310.04919,-56.81451 C 310.04919,-56.81451 338.05219,0 338.05219,0 C 338.05219,0 310.04919,56.8145 310.04919,56.8145 C 310.04919,56.8145 310.04919,56.8145 310.04919,56.8145" />
    </g>
    <g
       id="g0992">
      <path
         style="fill:none;stroke:#000000;stroke-width:1.86207318"
         id="path22690"
         d="M 256.79315,-23.5847 C 256.79315,-23.5847 207.96222,-86.14077 207.96222,-86.14077 C 207.96222,-86.14077 198.25707,-164.90328 198.25707,-164.90328 C 198.25707,-164.90328 223.9821,-144.81115 223.9821,-144.81115 C 223.9821,-144.81115 223.19567,-175.23319 223.19567,-175.23319 C 223.19567,-175.23319 300.04323,-124.28198 300.04323,-124.28198 C 300.04323,-124.28198 281.73175,-33.91461 281.73175,-33.91461 C 281.73175,-33.91461 260.77621,-55.98233 260.77621,-55.98233 C 260.77621,-55.98233 256.79315,-23.5847 256.79315,-23.5847 C 256.79315,-23.5847 256.79315,-23.5847 256.79315,-23.5847" />
      <path
         style="fill:#000000;stroke:none"
         id="path22692"
         d="M 253.37671,-36.36086 C 253.37671,-36.36086 211.46595,-87.59206 211.46595,-87.59206 C 211.46595,-87.59206 204.87541,-153.45339 204.87541,-153.45339 C 204.87541,-153.45339 218.37714,-142.48949 218.37714,-142.48949 C 218.37714,-142.48949 220.80867,-91.46194 220.80867,-91.46194 C 220.80867,-91.46194 255.17123,-53.66068 255.17123,-53.66068 C 255.17123,-53.66068 253.37671,-36.36086 253.37671,-36.36086 C 253.37671,-36.36086 253.37671,-36.36086 253.37671,-36.36086" />
      <path
         style="fill:#000000;stroke:none"
         id="path22694"
         d="M 278.31533,-46.69076 C 278.31533,-46.69076 292.03684,-120.96562 292.03684,-120.96562 C 292.03684,-120.96562 229.81401,-163.7833 229.81401,-163.7833 C 229.81401,-163.7833 229.88726,-147.25714 229.88726,-147.25714 C 229.88726,-147.25714 274.52259,-113.71098 274.52259,-113.71098 C 274.52259,-113.71098 266.68137,-58.42832 266.68137,-58.42832 C 266.68137,-58.42832 278.31533,-46.69076 278.31533,-46.69076 C 278.31533,-46.69076 278.31533,-46.69076 278.31533,-46.69076" />
      <path
         style="fill:#000000;stroke:none"
         id="path22696"
         d="M 260.77621,-55.98233 C 260.77621,-55.98233 225.31298,-93.3277 225.31298,-93.3277 C 225.31298,-93.3277 223.9821,-144.81115 223.9821,-144.81115 C 223.9821,-144.81115 267.51679,-110.80908 267.51679,-110.80908 C 267.51679,-110.80908 260.77621,-55.98233 260.77621,-55.98233 C 260.77621,-55.98233 260.77621,-55.98233 260.77621,-55.98233" />
    </g>
    <g
       id="g9261">
      <path
         style="fill:none;stroke:#000000;stroke-width:1.86207318"
         id="path22699"
         d="M 164.90327,-198.25707 C 164.90327,-198.25707 86.14077,-207.96222 86.14077,-207.96222 C 86.14077,-207.96222 23.5847,-256.79315 23.5847,-256.79315 C 23.5847,-256.79315 55.98232,-260.77621 55.98232,-260.77621 C 55.98232,-260.77621 33.9146,-281.73175 33.9146,-281.73175 C 33.9146,-281.73175 124.28198,-300.04323 124.28198,-300.04323 C 124.28198,-300.04323 175.23319,-223.19568 175.23319,-223.19568 C 175.23319,-223.19568 144.81115,-223.98211 144.81115,-223.98211 C 144.81115,-223.98211 164.90327,-198.25707 164.90327,-198.25707 C 164.90327,-198.25707 164.90327,-198.25707 164.90327,-198.25707" />
      <path
         style="fill:#000000;stroke:none"
         id="path22701"
         d="M 153.45338,-204.8754 C 153.45338,-204.8754 87.59207,-211.46594 87.59207,-211.46594 C 87.59207,-211.46594 36.36086,-253.37672 36.36086,-253.37672 C 36.36086,-253.37672 53.66067,-255.17124 53.66067,-255.17124 C 53.66067,-255.17124 91.46195,-220.80867 91.46195,-220.80867 C 91.46195,-220.80867 142.48948,-218.37714 142.48948,-218.37714 C 142.48948,-218.37714 153.45338,-204.8754 153.45338,-204.8754 C 153.45338,-204.8754 153.45338,-204.8754 153.45338,-204.8754" />
      <path
         style="fill:#000000;stroke:none"
         id="path22703"
         d="M 163.7833,-229.81401 C 163.7833,-229.81401 120.96562,-292.03684 120.96562,-292.03684 C 120.96562,-292.03684 46.69076,-278.31533 46.69076,-278.31533 C 46.69076,-278.31533 58.42832,-266.68137 58.42832,-266.68137 C 58.42832,-266.68137 113.71098,-274.52259 113.71098,-274.52259 C 113.71098,-274.52259 147.25714,-229.88726 147.25714,-229.88726 C 147.25714,-229.88726 163.7833,-229.81401 163.7833,-229.81401 C 163.7833,-229.81401 163.7833,-229.81401 163.7833,-229.81401" />
      <path
         style="fill:#000000;stroke:none"
         id="path22705"
         d="M 144.81115,-223.98211 C 144.81115,-223.98211 93.32769,-225.31299 93.32769,-225.31299 C 93.32769,-225.31299 55.98232,-260.77621 55.98232,-260.77621 C 55.98232,-260.77621 110.80908,-267.51679 110.80908,-267.51679 C 110.80908,-267.51679 144.81115,-223.98211 144.81115,-223.98211 C 144.81115,-223.98211 144.81115,-223.98211 144.81115,-223.98211" />
    </g>
    <g
       id="g3078">
      <path
         style="fill:none;stroke:#000000;stroke-width:1.86207318"
         id="path22708"
         d="M -23.5847,-256.79315 C -23.5847,-256.79315 -86.14077,-207.96222 -86.14077,-207.96222 C -86.14077,-207.96222 -164.90328,-198.25707 -164.90328,-198.25707 C -164.90328,-198.25707 -144.81115,-223.9821 -144.81115,-223.9821 C -144.81115,-223.9821 -175.23319,-223.19567 -175.23319,-223.19567 C -175.23319,-223.19567 -124.28198,-300.04323 -124.28198,-300.04323 C -124.28198,-300.04323 -33.91461,-281.73175 -33.91461,-281.73175 C -33.91461,-281.73175 -55.98233,-260.77621 -55.98233,-260.77621 C -55.98233,-260.77621 -23.5847,-256.79315 -23.5847,-256.79315 C -23.5847,-256.79315 -23.5847,-256.79315 -23.5847,-256.79315" />
      <path
         style="fill:#000000;stroke:none"
         id="path22710"
         d="M -36.36086,-253.37671 C -36.36086,-253.37671 -87.59206,-211.46595 -87.59206,-211.46595 C -87.59206,-211.46595 -153.45339,-204.87541 -153.45339,-204.87541 C -153.45339,-204.87541 -142.48949,-218.37714 -142.48949,-218.37714 C -142.48949,-218.37714 -91.46194,-220.80867 -91.46194,-220.80867 C -91.46194,-220.80867 -53.66068,-255.17123 -53.66068,-255.17123 C -53.66068,-255.17123 -36.36086,-253.37671 -36.36086,-253.37671 C -36.36086,-253.37671 -36.36086,-253.37671 -36.36086,-253.37671" />
      <path
         style="fill:#000000;stroke:none"
         id="path22712"
         d="M -46.69076,-278.31533 C -46.69076,-278.31533 -120.96562,-292.03684 -120.96562,-292.03684 C -120.96562,-292.03684 -163.7833,-229.81401 -163.7833,-229.81401 C -163.7833,-229.81401 -147.25714,-229.88726 -147.25714,-229.88726 C -147.25714,-229.88726 -113.71098,-274.52259 -113.71098,-274.52259 C -113.71098,-274.52259 -58.42832,-266.68137 -58.42832,-266.68137 C -58.42832,-266.68137 -46.69076,-278.31533 -46.69076,-278.31533 C -46.69076,-278.31533 -46.69076,-278.31533 -46.69076,-278.31533" />
      <path
         style="fill:#000000;stroke:none"
         id="path22714"
         d="M -55.98233,-260.77621 C -55.98233,-260.77621 -93.3277,-225.31298 -93.3277,-225.31298 C -93.3277,-225.31298 -144.81115,-223.9821 -144.81115,-223.9821 C -144.81115,-223.9821 -110.80908,-267.51679 -110.80908,-267.51679 C -110.80908,-267.51679 -55.98233,-260.77621 -55.98233,-260.77621 C -55.98233,-260.77621 -55.98233,-260.77621 -55.98233,-260.77621" />
    </g>
    <g
       id="g1364">
      <path
         style="fill:none;stroke:#000000;stroke-width:1.86207318"
         id="path22717"
         d="M -198.25707,-164.90327 C -198.25707,-164.90327 -207.96222,-86.14077 -207.96222,-86.14077 C -207.96222,-86.14077 -256.79315,-23.5847 -256.79315,-23.5847 C -256.79315,-23.5847 -260.77621,-55.98232 -260.77621,-55.98232 C -260.77621,-55.98232 -281.73175,-33.9146 -281.73175,-33.9146 C -281.73175,-33.9146 -300.04323,-124.28198 -300.04323,-124.28198 C -300.04323,-124.28198 -223.19568,-175.23319 -223.19568,-175.23319 C -223.19568,-175.23319 -223.98211,-144.81115 -223.98211,-144.81115 C -223.98211,-144.81115 -198.25707,-164.90327 -198.25707,-164.90327 C -198.25707,-164.90327 -198.25707,-164.90327 -198.25707,-164.90327" />
      <path
         style="fill:#000000;stroke:none"
         id="path22719"
         d="M -204.8754,-153.45338 C -204.8754,-153.45338 -211.46594,-87.59207 -211.46594,-87.59207 C -211.46594,-87.59207 -253.37672,-36.36086 -253.37672,-36.36086 C -253.37672,-36.36086 -255.17124,-53.66067 -255.17124,-53.66067 C -255.17124,-53.66067 -220.80867,-91.46195 -220.80867,-91.46195 C -220.80867,-91.46195 -218.37714,-142.48948 -218.37714,-142.48948 C -218.37714,-142.48948 -204.8754,-153.45338 -204.8754,-153.45338 C -204.8754,-153.45338 -204.8754,-153.45338 -204.8754,-153.45338" />
      <path
         style="fill:#000000;stroke:none"
         id="path22721"
         d="M -229.81401,-163.7833 C -229.81401,-163.7833 -292.03684,-120.96562 -292.03684,-120.96562 C -292.03684,-120.96562 -278.31533,-46.69076 -278.31533,-46.69076 C -278.31533,-46.69076 -266.68137,-58.42832 -266.68137,-58.42832 C -266.68137,-58.42832 -274.52259,-113.71098 -274.52259,-113.71098 C -274.52259,-113.71098 -229.88726,-147.25714 -229.88726,-147.25714 C -229.88726,-147.25714 -229.81401,-163.7833 -229.81401,-163.7833 C -229.81401,-163.7833 -229.81401,-163.7833 -229.81401,-163.7833" />
      <path
         style="fill:#000000;stroke:none"
         id="path22723"
         d="M -223.98211,-144.81115 C -223.98211,-144.81115 -225.31299,-93.32769 -225.31299,-93.32769 C -225.31299,-93.32769 -260.77621,-55.98232 -260.77621,-55.98232 C -260.77621,-55.98232 -267.51679,-110.80908 -267.51679,-110.80908 C -267.51679,-110.80908 -223.98211,-144.81115 -223.98211,-144.81115 C -223.98211,-144.81115 -223.98211,-144.81115 -223.98211,-144.81115" />
    </g>
    <g
       id="g1174">
      <path
         style="fill:none;stroke:#000000;stroke-width:1.86207318"
         id="path22726"
         d="M -256.79315,23.5847 C -256.79315,23.5847 -207.96222,86.14077 -207.96222,86.14077 C -207.96222,86.14077 -198.25707,164.90328 -198.25707,164.90328 C -198.25707,164.90328 -223.9821,144.81115 -223.9821,144.81115 C -223.9821,144.81115 -223.19567,175.23319 -223.19567,175.23319 C -223.19567,175.23319 -300.04323,124.28198 -300.04323,124.28198 C -300.04323,124.28198 -281.73175,33.91461 -281.73175,33.91461 C -281.73175,33.91461 -260.77621,55.98233 -260.77621,55.98233 C -260.77621,55.98233 -256.79315,23.5847 -256.79315,23.5847 C -256.79315,23.5847 -256.79315,23.5847 -256.79315,23.5847" />
      <path
         style="fill:#000000;stroke:none"
         id="path22728"
         d="M -253.37671,36.36086 C -253.37671,36.36086 -211.46595,87.59206 -211.46595,87.59206 C -211.46595,87.59206 -204.87541,153.45339 -204.87541,153.45339 C -204.87541,153.45339 -218.37714,142.48949 -218.37714,142.48949 C -218.37714,142.48949 -220.80867,91.46194 -220.80867,91.46194 C -220.80867,91.46194 -255.17123,53.66068 -255.17123,53.66068 C -255.17123,53.66068 -253.37671,36.36086 -253.37671,36.36086 C -253.37671,36.36086 -253.37671,36.36086 -253.37671,36.36086" />
      <path
         style="fill:#000000;stroke:none"
         id="path22730"
         d="M -278.31533,46.69076 C -278.31533,46.69076 -292.03684,120.96562 -292.03684,120.96562 C -292.03684,120.96562 -229.81401,163.7833 -229.81401,163.7833 C -229.81401,163.7833 -229.88726,147.25714 -229.88726,147.25714 C -229.88726,147.25714 -274.52259,113.71098 -274.52259,113.71098 C -274.52259,113.71098 -266.68137,58.42832 -266.68137,58.42832 C -266.68137,58.42832 -278.31533,46.69076 -278.31533,46.69076 C -278.31533,46.69076 -278.31533,46.69076 -278.31533,46.69076" />
      <path
         style="fill:#000000;stroke:none"
         id="path22732"
         d="M -260.77621,55.98233 C -260.77621,55.98233 -225.31298,93.3277 -225.31298,93.3277 C -225.31298,93.3277 -223.9821,144.81115 -223.9821,144.81115 C -223.9821,144.81115 -267.51679,110.80908 -267.51679,110.80908 C -267.51679,110.80908 -260.77621,55.98233 -260.77621,55.98233 C -260.77621,55.98233 -260.77621,55.98233 -260.77621,55.98233" />
    </g>
    <g
       id="g2434">
      <path
         style="fill:none;stroke:#000000;stroke-width:1.86207318"
         id="path22735"
         d="M -164.90327,198.25707 C -164.90327,198.25707 -86.14077,207.96222 -86.14077,207.96222 C -86.14077,207.96222 -23.5847,256.79315 -23.5847,256.79315 C -23.5847,256.79315 -55.98232,260.77621 -55.98232,260.77621 C -55.98232,260.77621 -33.9146,281.73175 -33.9146,281.73175 C -33.9146,281.73175 -124.28198,300.04323 -124.28198,300.04323 C -124.28198,300.04323 -175.23319,223.19568 -175.23319,223.19568 C -175.23319,223.19568 -144.81115,223.98211 -144.81115,223.98211 C -144.81115,223.98211 -164.90327,198.25707 -164.90327,198.25707 C -164.90327,198.25707 -164.90327,198.25707 -164.90327,198.25707" />
      <path
         style="fill:#000000;stroke:none"
         id="path22737"
         d="M -153.45338,204.8754 C -153.45338,204.8754 -87.59207,211.46594 -87.59207,211.46594 C -87.59207,211.46594 -36.36086,253.37672 -36.36086,253.37672 C -36.36086,253.37672 -53.66067,255.17124 -53.66067,255.17124 C -53.66067,255.17124 -91.46195,220.80867 -91.46195,220.80867 C -91.46195,220.80867 -142.48948,218.37714 -142.48948,218.37714 C -142.48948,218.37714 -153.45338,204.8754 -153.45338,204.8754 C -153.45338,204.8754 -153.45338,204.8754 -153.45338,204.8754" />
      <path
         style="fill:#000000;stroke:none"
         id="path22739"
         d="M -163.7833,229.81401 C -163.7833,229.81401 -120.96562,292.03684 -120.96562,292.03684 C -120.96562,292.03684 -46.69076,278.31533 -46.69076,278.31533 C -46.69076,278.31533 -58.42832,266.68137 -58.42832,266.68137 C -58.42832,266.68137 -113.71098,274.52259 -113.71098,274.52259 C -113.71098,274.52259 -147.25714,229.88726 -147.25714,229.88726 C -147.25714,229.88726 -163.7833,229.81401 -163.7833,229.81401 C -163.7833,229.81401 -163.7833,229.81401 -163.7833,229.81401" />
      <path
         style="fill:#000000;stroke:none"
         id="path22741"
         d="M -144.81115,223.98211 C -144.81115,223.98211 -93.32769,225.31299 -93.32769,225.31299 C -93.32769,225.31299 -55.98232,260.77621 -55.98232,260.77621 C -55.98232,260.77621 -110.80908,267.51679 -110.80908,267.51679 C -110.80908,267.51679 -144.81115,223.98211 -144.81115,223.98211 C -144.81115,223.98211 -144.81115,223.98211 -144.81115,223.98211" />
    </g>
    <g
       id="g3052">
      <path
         style="fill:none;stroke:#000000;stroke-width:1.86207318"
         id="path22744"
         d="M 23.5847,256.79315 C 23.5847,256.79315 86.14077,207.96222 86.14077,207.96222 C 86.14077,207.96222 164.90328,198.25707 164.90328,198.25707 C 164.90328,198.25707 144.81115,223.9821 144.81115,223.9821 C 144.81115,223.9821 175.23319,223.19567 175.23319,223.19567 C 175.23319,223.19567 124.28198,300.04323 124.28198,300.04323 C 124.28198,300.04323 33.91461,281.73175 33.91461,281.73175 C 33.91461,281.73175 55.98233,260.77621 55.98233,260.77621 C 55.98233,260.77621 23.5847,256.79315 23.5847,256.79315 C 23.5847,256.79315 23.5847,256.79315 23.5847,256.79315" />
      <path
         style="fill:#000000;stroke:none"
         id="path22746"
         d="M 36.36086,253.37671 C 36.36086,253.37671 87.59206,211.46595 87.59206,211.46595 C 87.59206,211.46595 153.45339,204.87541 153.45339,204.87541 C 153.45339,204.87541 142.48949,218.37714 142.48949,218.37714 C 142.48949,218.37714 91.46194,220.80867 91.46194,220.80867 C 91.46194,220.80867 53.66068,255.17123 53.66068,255.17123 C 53.66068,255.17123 36.36086,253.37671 36.36086,253.37671 C 36.36086,253.37671 36.36086,253.37671 36.36086,253.37671" />
      <path
         style="fill:#000000;stroke:none"
         id="path22748"
         d="M 46.69076,278.31533 C 46.69076,278.31533 120.96562,292.03684 120.96562,292.03684 C 120.96562,292.03684 163.7833,229.81401 163.7833,229.81401 C 163.7833,229.81401 147.25714,229.88726 147.25714,229.88726 C 147.25714,229.88726 113.71098,274.52259 113.71098,274.52259 C 113.71098,274.52259 58.42832,266.68137 58.42832,266.68137 C 58.42832,266.68137 46.69076,278.31533 46.69076,278.31533 C 46.69076,278.31533 46.69076,278.31533 46.69076,278.31533" />
      <path
         style="fill:#000000;stroke:none"
         id="path22750"
         d="M 55.98233,260.77621 C 55.98233,260.77621 93.3277,225.31298 93.3277,225.31298 C 93.3277,225.31298 144.81115,223.9821 144.81115,223.9821 C 144.81115,223.9821 110.80908,267.51679 110.80908,267.51679 C 110.80908,267.51679 55.98233,260.77621 55.98233,260.77621 C 55.98233,260.77621 55.98233,260.77621 55.98233,260.77621" />
    </g>
    <g
       id="g9172">
      <path
         style="fill:none;stroke:#000000;stroke-width:1.86207318"
         id="path22753"
         d="M 198.25707,164.90327 C 198.25707,164.90327 207.96222,86.14077 207.96222,86.14077 C 207.96222,86.14077 256.79315,23.5847 256.79315,23.5847 C 256.79315,23.5847 260.77621,55.98232 260.77621,55.98232 C 260.77621,55.98232 281.73175,33.9146 281.73175,33.9146 C 281.73175,33.9146 300.04323,124.28198 300.04323,124.28198 C 300.04323,124.28198 223.19568,175.23319 223.19568,175.23319 C 223.19568,175.23319 223.98211,144.81115 223.98211,144.81115 C 223.98211,144.81115 198.25707,164.90327 198.25707,164.90327 C 198.25707,164.90327 198.25707,164.90327 198.25707,164.90327" />
      <path
         style="fill:#000000;stroke:none"
         id="path22755"
         d="M 204.8754,153.45338 C 204.8754,153.45338 211.46594,87.59207 211.46594,87.59207 C 211.46594,87.59207 253.37672,36.36086 253.37672,36.36086 C 253.37672,36.36086 255.17124,53.66067 255.17124,53.66067 C 255.17124,53.66067 220.80867,91.46195 220.80867,91.46195 C 220.80867,91.46195 218.37714,142.48948 218.37714,142.48948 C 218.37714,142.48948 204.8754,153.45338 204.8754,153.45338 C 204.8754,153.45338 204.8754,153.45338 204.8754,153.45338" />
      <path
         style="fill:#000000;stroke:none"
         id="path22757"
         d="M 229.81401,163.7833 C 229.81401,163.7833 292.03684,120.96562 292.03684,120.96562 C 292.03684,120.96562 278.31533,46.69076 278.31533,46.69076 C 278.31533,46.69076 266.68137,58.42832 266.68137,58.42832 C 266.68137,58.42832 274.52259,113.71098 274.52259,113.71098 C 274.52259,113.71098 229.88726,147.25714 229.88726,147.25714 C 229.88726,147.25714 229.81401,163.7833 229.81401,163.7833 C 229.81401,163.7833 229.81401,163.7833 229.81401,163.7833" />
      <path
         style="fill:#000000;stroke:none"
         id="path22759"
         d="M 223.98211,144.81115 C 223.98211,144.81115 225.31299,93.32769 225.31299,93.32769 C 225.31299,93.32769 260.77621,55.98232 260.77621,55.98232 C 260.77621,55.98232 267.51679,110.80908 267.51679,110.80908 C 267.51679,110.80908 223.98211,144.81115 223.98211,144.81115 C 223.98211,144.81115 223.98211,144.81115 223.98211,144.81115" />
    </g>
    <g
       id="g3118">
      <path
         style="fill:none;stroke:#000000;stroke-width:1.86207318"
         id="path22762"
         d="M 199.04084,62.57541 C 199.04084,62.57541 175.10931,0 175.10931,0 C 175.10931,0 199.04084,-62.57542 199.04084,-62.57542 C 199.04084,-62.57542 214.64943,-39.33313 214.64943,-39.33313 C 214.64943,-39.33313 226.03419,-62.57542 226.03419,-62.57542 C 226.03419,-62.57542 274.77708,0 274.77708,0 C 274.77708,0 226.0342,62.57542 226.0342,62.57542 C 226.0342,62.57542 214.64944,39.33312 214.64944,39.33312 C 214.64944,39.33312 199.04084,62.57541 199.04084,62.57541 C 199.04084,62.57541 199.04084,62.57541 199.04084,62.57541" />
      <path
         style="fill:#000000;stroke:none"
         id="path22764"
         d="M 200.45863,51.8482 C 200.45863,51.8482 179.34477,0 179.34477,0 C 179.34477,0 200.45864,-51.8482 200.45864,-51.8482 C 200.45864,-51.8482 208.55312,-39.33312 208.55312,-39.33312 C 208.55312,-39.33312 190.26134,0 190.26134,0 C 190.26134,0 208.55312,39.33311 208.55312,39.33311 C 208.55312,39.33311 200.45863,51.8482 200.45863,51.8482 C 200.45863,51.8482 200.45863,51.8482 200.45863,51.8482" />
      <path
         style="fill:#000000;stroke:none"
         id="path22766"
         d="M 227.45199,51.8482 C 227.45199,51.8482 266.55408,0 266.55408,0 C 266.55408,0 227.45199,-51.84821 227.45199,-51.84821 C 227.45199,-51.84821 221.01159,-39.33312 221.01159,-39.33312 C 221.01159,-39.33312 248.40087,0 248.40087,0 C 248.40087,0 221.01159,39.33312 221.01159,39.33312 C 221.01159,39.33312 227.45199,51.8482 227.45199,51.8482 C 227.45199,51.8482 227.45199,51.8482 227.45199,51.8482" />
      <path
         style="fill:#000000;stroke:none"
         id="path22768"
         d="M 214.64944,39.33312 C 214.64944,39.33312 195.38292,-1e-05 195.38292,-1e-05 C 195.38292,-1e-05 214.64943,-39.33313 214.64943,-39.33313 C 214.64943,-39.33313 241.06399,0 241.06399,0 C 241.06399,0 214.64944,39.33312 214.64944,39.33312 C 214.64944,39.33312 214.64944,39.33312 214.64944,39.33312" />
    </g>
    <g
       id="g1091">
      <path
         style="fill:none;stroke:#000000;stroke-width:1.86207318"
         id="path22771"
         d="M 184.99063,-96.49563 C 184.99063,-96.49563 123.82098,-123.82098 123.82098,-123.82098 C 123.82098,-123.82098 96.49563,-184.99063 96.49563,-184.99063 C 96.49563,-184.99063 123.96735,-179.59279 123.96735,-179.59279 C 123.96735,-179.59279 115.5828,-204.07782 115.5828,-204.07782 C 115.5828,-204.07782 194.29674,-194.29674 194.29674,-194.29674 C 194.29674,-194.29674 204.07782,-115.58281 204.07782,-115.58281 C 204.07782,-115.58281 179.59279,-123.96736 179.59279,-123.96736 C 179.59279,-123.96736 184.99063,-96.49563 184.99063,-96.49563 C 184.99063,-96.49563 184.99063,-96.49563 184.99063,-96.49563" />
      <path
         style="fill:#000000;stroke:none"
         id="path22773"
         d="M 178.40787,-105.08345 C 178.40787,-105.08345 126.81591,-126.8159 126.81591,-126.8159 C 126.81591,-126.8159 105.08345,-178.40787 105.08345,-178.40787 C 105.08345,-178.40787 119.65662,-175.28204 119.65662,-175.28204 C 119.65662,-175.28204 134.53508,-134.53508 134.53508,-134.53508 C 134.53508,-134.53508 175.28204,-119.65661 175.28204,-119.65661 C 175.28204,-119.65661 178.40787,-105.08345 178.40787,-105.08345 C 178.40787,-105.08345 178.40787,-105.08345 178.40787,-105.08345" />
      <path
         style="fill:#000000;stroke:none"
         id="path22775"
         d="M 197.49506,-124.17063 C 197.49506,-124.17063 188.48219,-188.4822 188.48219,-188.4822 C 188.48219,-188.4822 124.17063,-197.49506 124.17063,-197.49506 C 124.17063,-197.49506 128.46608,-184.09151 128.46608,-184.09151 C 128.46608,-184.09151 175.64594,-175.64594 175.64594,-175.64594 C 175.64594,-175.64594 184.09151,-128.46608 184.09151,-128.46608 C 184.09151,-128.46608 197.49506,-124.17063 197.49506,-124.17063 C 197.49506,-124.17063 197.49506,-124.17063 197.49506,-124.17063" />
      <path
         style="fill:#000000;stroke:none"
         id="path22777"
         d="M 179.59279,-123.96736 C 179.59279,-123.96736 138.15658,-138.15659 138.15658,-138.15659 C 138.15658,-138.15659 123.96735,-179.59279 123.96735,-179.59279 C 123.96735,-179.59279 170.45798,-170.45798 170.45798,-170.45798 C 170.45798,-170.45798 179.59279,-123.96736 179.59279,-123.96736 C 179.59279,-123.96736 179.59279,-123.96736 179.59279,-123.96736" />
    </g>
    <g
       id="g4140">
      <path
         style="fill:none;stroke:#000000;stroke-width:1.86207318"
         id="path22780"
         d="M 62.57541,-199.04084 C 62.57541,-199.04084 0,-175.10931 0,-175.10931 C 0,-175.10931 -62.57542,-199.04084 -62.57542,-199.04084 C -62.57542,-199.04084 -39.33313,-214.64943 -39.33313,-214.64943 C -39.33313,-214.64943 -62.57542,-226.03419 -62.57542,-226.03419 C -62.57542,-226.03419 0,-274.77708 0,-274.77708 C 0,-274.77708 62.57542,-226.0342 62.57542,-226.0342 C 62.57542,-226.0342 39.33312,-214.64944 39.33312,-214.64944 C 39.33312,-214.64944 62.57541,-199.04084 62.57541,-199.04084 C 62.57541,-199.04084 62.57541,-199.04084 62.57541,-199.04084" />
      <path
         style="fill:#000000;stroke:none"
         id="path22782"
         d="M 51.8482,-200.45863 C 51.8482,-200.45863 0,-179.34477 0,-179.34477 C 0,-179.34477 -51.8482,-200.45864 -51.8482,-200.45864 C -51.8482,-200.45864 -39.33312,-208.55312 -39.33312,-208.55312 C -39.33312,-208.55312 0,-190.26134 0,-190.26134 C 0,-190.26134 39.33311,-208.55312 39.33311,-208.55312 C 39.33311,-208.55312 51.8482,-200.45863 51.8482,-200.45863 C 51.8482,-200.45863 51.8482,-200.45863 51.8482,-200.45863" />
      <path
         style="fill:#000000;stroke:none"
         id="path22784"
         d="M 51.8482,-227.45199 C 51.8482,-227.45199 0,-266.55408 0,-266.55408 C 0,-266.55408 -51.84821,-227.45199 -51.84821,-227.45199 C -51.84821,-227.45199 -39.33312,-221.01159 -39.33312,-221.01159 C -39.33312,-221.01159 0,-248.40087 0,-248.40087 C 0,-248.40087 39.33312,-221.01159 39.33312,-221.01159 C 39.33312,-221.01159 51.8482,-227.45199 51.8482,-227.45199 C 51.8482,-227.45199 51.8482,-227.45199 51.8482,-227.45199" />
      <path
         style="fill:#000000;stroke:none"
         id="path22786"
         d="M 39.33312,-214.64944 C 39.33312,-214.64944 -1e-05,-195.38292 -1e-05,-195.38292 C -1e-05,-195.38292 -39.33313,-214.64943 -39.33313,-214.64943 C -39.33313,-214.64943 0,-241.06399 0,-241.06399 C 0,-241.06399 39.33312,-214.64944 39.33312,-214.64944 C 39.33312,-214.64944 39.33312,-214.64944 39.33312,-214.64944" />
    </g>
    <g
       id="g0317">
      <path
         style="fill:none;stroke:#000000;stroke-width:1.86207318"
         id="path22789"
         d="M -96.49563,-184.99063 C -96.49563,-184.99063 -123.82098,-123.82098 -123.82098,-123.82098 C -123.82098,-123.82098 -184.99063,-96.49563 -184.99063,-96.49563 C -184.99063,-96.49563 -179.59279,-123.96735 -179.59279,-123.96735 C -179.59279,-123.96735 -204.07782,-115.5828 -204.07782,-115.5828 C -204.07782,-115.5828 -194.29674,-194.29674 -194.29674,-194.29674 C -194.29674,-194.29674 -115.58281,-204.07782 -115.58281,-204.07782 C -115.58281,-204.07782 -123.96736,-179.59279 -123.96736,-179.59279 C -123.96736,-179.59279 -96.49563,-184.99063 -96.49563,-184.99063 C -96.49563,-184.99063 -96.49563,-184.99063 -96.49563,-184.99063" />
      <path
         style="fill:#000000;stroke:none"
         id="path22791"
         d="M -105.08345,-178.40787 C -105.08345,-178.40787 -126.8159,-126.81591 -126.8159,-126.81591 C -126.8159,-126.81591 -178.40787,-105.08345 -178.40787,-105.08345 C -178.40787,-105.08345 -175.28204,-119.65662 -175.28204,-119.65662 C -175.28204,-119.65662 -134.53508,-134.53508 -134.53508,-134.53508 C -134.53508,-134.53508 -119.65661,-175.28204 -119.65661,-175.28204 C -119.65661,-175.28204 -105.08345,-178.40787 -105.08345,-178.40787 C -105.08345,-178.40787 -105.08345,-178.40787 -105.08345,-178.40787" />
      <path
         style="fill:#000000;stroke:none"
         id="path22793"
         d="M -124.17063,-197.49506 C -124.17063,-197.49506 -188.4822,-188.48219 -188.4822,-188.48219 C -188.4822,-188.48219 -197.49506,-124.17063 -197.49506,-124.17063 C -197.49506,-124.17063 -184.09151,-128.46608 -184.09151,-128.46608 C -184.09151,-128.46608 -175.64594,-175.64594 -175.64594,-175.64594 C -175.64594,-175.64594 -128.46608,-184.09151 -128.46608,-184.09151 C -128.46608,-184.09151 -124.17063,-197.49506 -124.17063,-197.49506 C -124.17063,-197.49506 -124.17063,-197.49506 -124.17063,-197.49506" />
      <path
         style="fill:#000000;stroke:none"
         id="path22795"
         d="M -123.96736,-179.59279 C -123.96736,-179.59279 -138.15659,-138.15658 -138.15659,-138.15658 C -138.15659,-138.15658 -179.59279,-123.96735 -179.59279,-123.96735 C -179.59279,-123.96735 -170.45798,-170.45798 -170.45798,-170.45798 C -170.45798,-170.45798 -123.96736,-179.59279 -123.96736,-179.59279 C -123.96736,-179.59279 -123.96736,-179.59279 -123.96736,-179.59279" />
    </g>
    <g
       id="g8346">
      <path
         style="fill:none;stroke:#000000;stroke-width:1.86207318"
         id="path22798"
         d="M -199.04084,-62.57541 C -199.04084,-62.57541 -175.10931,0 -175.10931,0 C -175.10931,0 -199.04084,62.57542 -199.04084,62.57542 C -199.04084,62.57542 -214.64943,39.33313 -214.64943,39.33313 C -214.64943,39.33313 -226.03419,62.57542 -226.03419,62.57542 C -226.03419,62.57542 -274.77708,0 -274.77708,0 C -274.77708,0 -226.0342,-62.57542 -226.0342,-62.57542 C -226.0342,-62.57542 -214.64944,-39.33312 -214.64944,-39.33312 C -214.64944,-39.33312 -199.04084,-62.57541 -199.04084,-62.57541 C -199.04084,-62.57541 -199.04084,-62.57541 -199.04084,-62.57541" />
      <path
         style="fill:#000000;stroke:none"
         id="path22800"
         d="M -200.45863,-51.8482 C -200.45863,-51.8482 -179.34477,0 -179.34477,0 C -179.34477,0 -200.45864,51.8482 -200.45864,51.8482 C -200.45864,51.8482 -208.55312,39.33312 -208.55312,39.33312 C -208.55312,39.33312 -190.26134,0 -190.26134,0 C -190.26134,0 -208.55312,-39.33311 -208.55312,-39.33311 C -208.55312,-39.33311 -200.45863,-51.8482 -200.45863,-51.8482 C -200.45863,-51.8482 -200.45863,-51.8482 -200.45863,-51.8482" />
      <path
         style="fill:#000000;stroke:none"
         id="path22802"
         d="M -227.45199,-51.8482 C -227.45199,-51.8482 -266.55408,0 -266.55408,0 C -266.55408,0 -227.45199,51.84821 -227.45199,51.84821 C -227.45199,51.84821 -221.01159,39.33312 -221.01159,39.33312 C -221.01159,39.33312 -248.40087,0 -248.40087,0 C -248.40087,0 -221.01159,-39.33312 -221.01159,-39.33312 C -221.01159,-39.33312 -227.45199,-51.8482 -227.45199,-51.8482 C -227.45199,-51.8482 -227.45199,-51.8482 -227.45199,-51.8482" />
      <path
         style="fill:#000000;stroke:none"
         id="path22804"
         d="M -214.64944,-39.33312 C -214.64944,-39.33312 -195.38292,1e-05 -195.38292,1e-05 C -195.38292,1e-05 -214.64943,39.33313 -214.64943,39.33313 C -214.64943,39.33313 -241.06399,0 -241.06399,0 C -241.06399,0 -214.64944,-39.33312 -214.64944,-39.33312 C -214.64944,-39.33312 -214.64944,-39.33312 -214.64944,-39.33312" />
    </g>
    <g
       id="g7048">
      <path
         style="fill:none;stroke:#000000;stroke-width:1.86207318"
         id="path22807"
         d="M -184.99063,96.49563 C -184.99063,96.49563 -123.82098,123.82098 -123.82098,123.82098 C -123.82098,123.82098 -96.49563,184.99063 -96.49563,184.99063 C -96.49563,184.99063 -123.96735,179.59279 -123.96735,179.59279 C -123.96735,179.59279 -115.5828,204.07782 -115.5828,204.07782 C -115.5828,204.07782 -194.29674,194.29674 -194.29674,194.29674 C -194.29674,194.29674 -204.07782,115.58281 -204.07782,115.58281 C -204.07782,115.58281 -179.59279,123.96736 -179.59279,123.96736 C -179.59279,123.96736 -184.99063,96.49563 -184.99063,96.49563 C -184.99063,96.49563 -184.99063,96.49563 -184.99063,96.49563" />
      <path
         style="fill:#000000;stroke:none"
         id="path22809"
         d="M -178.40787,105.08345 C -178.40787,105.08345 -126.81591,126.8159 -126.81591,126.8159 C -126.81591,126.8159 -105.08345,178.40787 -105.08345,178.40787 C -105.08345,178.40787 -119.65662,175.28204 -119.65662,175.28204 C -119.65662,175.28204 -134.53508,134.53508 -134.53508,134.53508 C -134.53508,134.53508 -175.28204,119.65661 -175.28204,119.65661 C -175.28204,119.65661 -178.40787,105.08345 -178.40787,105.08345 C -178.40787,105.08345 -178.40787,105.08345 -178.40787,105.08345" />
      <path
         style="fill:#000000;stroke:none"
         id="path22811"
         d="M -197.49506,124.17063 C -197.49506,124.17063 -188.48219,188.4822 -188.48219,188.4822 C -188.48219,188.4822 -124.17063,197.49506 -124.17063,197.49506 C -124.17063,197.49506 -128.46608,184.09151 -128.46608,184.09151 C -128.46608,184.09151 -175.64594,175.64594 -175.64594,175.64594 C -175.64594,175.64594 -184.09151,128.46608 -184.09151,128.46608 C -184.09151,128.46608 -197.49506,124.17063 -197.49506,124.17063 C -197.49506,124.17063 -197.49506,124.17063 -197.49506,124.17063" />
      <path
         style="fill:#000000;stroke:none"
         id="path22813"
         d="M -179.59279,123.96736 C -179.59279,123.96736 -138.15658,138.15659 -138.15658,138.15659 C -138.15658,138.15659 -123.96735,179.59279 -123.96735,179.59279 C -123.96735,179.59279 -170.45798,170.45798 -170.45798,170.45798 C -170.45798,170.45798 -179.59279,123.96736 -179.59279,123.96736 C -179.59279,123.96736 -179.59279,123.96736 -179.59279,123.96736" />
    </g>
    <g
       id="g9214">
      <path
         style="fill:none;stroke:#000000;stroke-width:1.86207318"
         id="path22816"
         d="M -62.57541,199.04084 C -62.57541,199.04084 0,175.10931 0,175.10931 C 0,175.10931 62.57542,199.04084 62.57542,199.04084 C 62.57542,199.04084 39.33313,214.64943 39.33313,214.64943 C 39.33313,214.64943 62.57542,226.03419 62.57542,226.03419 C 62.57542,226.03419 0,274.77708 0,274.77708 C 0,274.77708 -62.57542,226.0342 -62.57542,226.0342 C -62.57542,226.0342 -39.33312,214.64944 -39.33312,214.64944 C -39.33312,214.64944 -62.57541,199.04084 -62.57541,199.04084 C -62.57541,199.04084 -62.57541,199.04084 -62.57541,199.04084" />
      <path
         style="fill:#000000;stroke:none"
         id="path22818"
         d="M -51.8482,200.45863 C -51.8482,200.45863 0,179.34477 0,179.34477 C 0,179.34477 51.8482,200.45864 51.8482,200.45864 C 51.8482,200.45864 39.33312,208.55312 39.33312,208.55312 C 39.33312,208.55312 0,190.26134 0,190.26134 C 0,190.26134 -39.33311,208.55312 -39.33311,208.55312 C -39.33311,208.55312 -51.8482,200.45863 -51.8482,200.45863 C -51.8482,200.45863 -51.8482,200.45863 -51.8482,200.45863" />
      <path
         style="fill:#000000;stroke:none"
         id="path22820"
         d="M -51.8482,227.45199 C -51.8482,227.45199 0,266.55408 0,266.55408 C 0,266.55408 51.84821,227.45199 51.84821,227.45199 C 51.84821,227.45199 39.33312,221.01159 39.33312,221.01159 C 39.33312,221.01159 0,248.40087 0,248.40087 C 0,248.40087 -39.33312,221.01159 -39.33312,221.01159 C -39.33312,221.01159 -51.8482,227.45199 -51.8482,227.45199 C -51.8482,227.45199 -51.8482,227.45199 -51.8482,227.45199" />
      <path
         style="fill:#000000;stroke:none"
         id="path22822"
         d="M -39.33312,214.64944 C -39.33312,214.64944 1e-05,195.38292 1e-05,195.38292 C 1e-05,195.38292 39.33313,214.64943 39.33313,214.64943 C 39.33313,214.64943 0,241.06399 0,241.06399 C 0,241.06399 -39.33312,214.64944 -39.33312,214.64944 C -39.33312,214.64944 -39.33312,214.64944 -39.33312,214.64944" />
    </g>
    <g
       id="g0787">
      <path
         style="fill:none;stroke:#000000;stroke-width:1.86207318"
         id="path22825"
         d="M 96.49563,184.99063 C 96.49563,184.99063 123.82098,123.82098 123.82098,123.82098 C 123.82098,123.82098 184.99063,96.49563 184.99063,96.49563 C 184.99063,96.49563 179.59279,123.96735 179.59279,123.96735 C 179.59279,123.96735 204.07782,115.5828 204.07782,115.5828 C 204.07782,115.5828 194.29674,194.29674 194.29674,194.29674 C 194.29674,194.29674 115.58281,204.07782 115.58281,204.07782 C 115.58281,204.07782 123.96736,179.59279 123.96736,179.59279 C 123.96736,179.59279 96.49563,184.99063 96.49563,184.99063 C 96.49563,184.99063 96.49563,184.99063 96.49563,184.99063" />
      <path
         style="fill:#000000;stroke:none"
         id="path22827"
         d="M 105.08345,178.40787 C 105.08345,178.40787 126.8159,126.81591 126.8159,126.81591 C 126.8159,126.81591 178.40787,105.08345 178.40787,105.08345 C 178.40787,105.08345 175.28204,119.65662 175.28204,119.65662 C 175.28204,119.65662 134.53508,134.53508 134.53508,134.53508 C 134.53508,134.53508 119.65661,175.28204 119.65661,175.28204 C 119.65661,175.28204 105.08345,178.40787 105.08345,178.40787 C 105.08345,178.40787 105.08345,178.40787 105.08345,178.40787" />
      <path
         style="fill:#000000;stroke:none"
         id="path22829"
         d="M 124.17063,197.49506 C 124.17063,197.49506 188.4822,188.48219 188.4822,188.48219 C 188.4822,188.48219 197.49506,124.17063 197.49506,124.17063 C 197.49506,124.17063 184.09151,128.46608 184.09151,128.46608 C 184.09151,128.46608 175.64594,175.64594 175.64594,175.64594 C 175.64594,175.64594 128.46608,184.09151 128.46608,184.09151 C 128.46608,184.09151 124.17063,197.49506 124.17063,197.49506 C 124.17063,197.49506 124.17063,197.49506 124.17063,197.49506" />
      <path
         style="fill:#000000;stroke:none"
         id="path22831"
         d="M 123.96736,179.59279 C 123.96736,179.59279 138.15659,138.15658 138.15659,138.15658 C 138.15659,138.15658 179.59279,123.96735 179.59279,123.96735 C 179.59279,123.96735 170.45798,170.45798 170.45798,170.45798 C 170.45798,170.45798 123.96736,179.59279 123.96736,179.59279 C 123.96736,179.59279 123.96736,179.59279 123.96736,179.59279" />
    </g>
    <g
       id="g4935">
      <path
         style="fill:none;stroke:#000000;stroke-width:1.86207318"
         id="path22834"
         d="M 121.6293,103.06028 C 121.6293,103.06028 115.59759,47.88209 115.59759,47.88209 C 115.59759,47.88209 158.87953,13.13028 158.87953,13.13028 C 158.87953,13.13028 165.9485,35.62511 165.9485,35.62511 C 165.9485,35.62511 183.81813,23.46018 183.81813,23.46018 C 183.81813,23.46018 207.67861,86.0233 207.67861,86.0233 C 207.67861,86.0233 146.56791,113.39019 146.56791,113.39019 C 146.56791,113.39019 142.53407,92.15255 142.53407,92.15255 C 142.53407,92.15255 121.6293,103.06028 121.6293,103.06028 C 121.6293,103.06028 121.6293,103.06028 121.6293,103.06028" />
      <path
         style="fill:#000000;stroke:none"
         id="path22836"
         d="M 125.84096,95.77399 C 125.84096,95.77399 119.91999,49.67249 119.91999,49.67249 C 119.91999,49.67249 156.70544,21.26056 156.70544,21.26056 C 156.70544,21.26056 160.28895,33.28086 160.28895,33.28086 C 160.28895,33.28086 130.74844,54.15778 130.74844,54.15778 C 130.74844,54.15778 136.87452,89.80828 136.87452,89.80828 C 136.87452,89.80828 125.84096,95.77399 125.84096,95.77399 C 125.84096,95.77399 125.84096,95.77399 125.84096,95.77399" />
      <path
         style="fill:#000000;stroke:none"
         id="path22838"
         d="M 150.77957,106.1039 C 150.77957,106.1039 200.49088,83.04604 200.49088,83.04604 C 200.49088,83.04604 181.64405,31.59047 181.64405,31.59047 C 181.64405,31.59047 171.79907,38.0485 171.79907,38.0485 C 171.79907,38.0485 184.46236,76.40681 184.46236,76.40681 C 184.46236,76.40681 148.38465,94.57593 148.38465,94.57593 C 148.38465,94.57593 150.77957,106.1039 150.77957,106.1039 C 150.77957,106.1039 150.77957,106.1039 150.77957,106.1039" />
      <path
         style="fill:#000000;stroke:none"
         id="path22840"
         d="M 142.53407,92.15255 C 142.53407,92.15255 135.70758,56.21191 135.70758,56.21191 C 135.70758,56.21191 165.9485,35.62511 165.9485,35.62511 C 165.9485,35.62511 177.91137,73.6933 177.91137,73.6933 C 177.91137,73.6933 142.53407,92.15255 142.53407,92.15255 C 142.53407,92.15255 142.53407,92.15255 142.53407,92.15255" />
    </g>
    <g
       id="g9697">
      <path
         style="fill:none;stroke:#000000;stroke-width:1.86207318"
         id="path22843"
         d="M 158.87953,-13.13028 C 158.87953,-13.13028 115.59759,-47.88209 115.59759,-47.88209 C 115.59759,-47.88209 121.6293,-103.06028 121.6293,-103.06028 C 121.6293,-103.06028 142.53406,-92.15255 142.53406,-92.15255 C 142.53406,-92.15255 146.5679,-113.3902 146.5679,-113.3902 C 146.5679,-113.3902 207.67861,-86.0233 207.67861,-86.0233 C 207.67861,-86.0233 183.81814,-23.46019 183.81814,-23.46019 C 183.81814,-23.46019 165.9485,-35.62512 165.9485,-35.62512 C 165.9485,-35.62512 158.87953,-13.13028 158.87953,-13.13028 C 158.87953,-13.13028 158.87953,-13.13028 158.87953,-13.13028" />
      <path
         style="fill:#000000;stroke:none"
         id="path22845"
         d="M 156.70543,-21.26056 C 156.70543,-21.26056 119.91999,-49.67248 119.91999,-49.67248 C 119.91999,-49.67248 125.84097,-95.77399 125.84097,-95.77399 C 125.84097,-95.77399 136.87452,-89.80828 136.87452,-89.80828 C 136.87452,-89.80828 130.74844,-54.15778 130.74844,-54.15778 C 130.74844,-54.15778 160.28894,-33.28086 160.28894,-33.28086 C 160.28894,-33.28086 156.70543,-21.26056 156.70543,-21.26056 C 156.70543,-21.26056 156.70543,-21.26056 156.70543,-21.26056" />
      <path
         style="fill:#000000;stroke:none"
         id="path22847"
         d="M 181.64405,-31.59047 C 181.64405,-31.59047 200.49088,-83.04604 200.49088,-83.04604 C 200.49088,-83.04604 150.77957,-106.1039 150.77957,-106.1039 C 150.77957,-106.1039 148.38464,-94.57594 148.38464,-94.57594 C 148.38464,-94.57594 184.46236,-76.40681 184.46236,-76.40681 C 184.46236,-76.40681 171.79907,-38.0485 171.79907,-38.0485 C 171.79907,-38.0485 181.64405,-31.59047 181.64405,-31.59047 C 181.64405,-31.59047 181.64405,-31.59047 181.64405,-31.59047" />
      <path
         style="fill:#000000;stroke:none"
         id="path22849"
         d="M 165.9485,-35.62512 C 165.9485,-35.62512 135.70757,-56.21192 135.70757,-56.21192 C 135.70757,-56.21192 142.53406,-92.15255 142.53406,-92.15255 C 142.53406,-92.15255 177.91137,-73.6933 177.91137,-73.6933 C 177.91137,-73.6933 165.9485,-35.62512 165.9485,-35.62512 C 165.9485,-35.62512 165.9485,-35.62512 165.9485,-35.62512" />
    </g>
    <g
       id="g9329">
      <path
         style="fill:none;stroke:#000000;stroke-width:1.86207318"
         id="path22852"
         d="M 103.06028,-121.6293 C 103.06028,-121.6293 47.88209,-115.59759 47.88209,-115.59759 C 47.88209,-115.59759 13.13028,-158.87953 13.13028,-158.87953 C 13.13028,-158.87953 35.62511,-165.9485 35.62511,-165.9485 C 35.62511,-165.9485 23.46018,-183.81813 23.46018,-183.81813 C 23.46018,-183.81813 86.0233,-207.67861 86.0233,-207.67861 C 86.0233,-207.67861 113.39019,-146.56791 113.39019,-146.56791 C 113.39019,-146.56791 92.15255,-142.53407 92.15255,-142.53407 C 92.15255,-142.53407 103.06028,-121.6293 103.06028,-121.6293 C 103.06028,-121.6293 103.06028,-121.6293 103.06028,-121.6293" />
      <path
         style="fill:#000000;stroke:none"
         id="path22854"
         d="M 95.77399,-125.84096 C 95.77399,-125.84096 49.67249,-119.91999 49.67249,-119.91999 C 49.67249,-119.91999 21.26056,-156.70544 21.26056,-156.70544 C 21.26056,-156.70544 33.28086,-160.28895 33.28086,-160.28895 C 33.28086,-160.28895 54.15778,-130.74844 54.15778,-130.74844 C 54.15778,-130.74844 89.80828,-136.87452 89.80828,-136.87452 C 89.80828,-136.87452 95.77399,-125.84096 95.77399,-125.84096 C 95.77399,-125.84096 95.77399,-125.84096 95.77399,-125.84096" />
      <path
         style="fill:#000000;stroke:none"
         id="path22856"
         d="M 106.1039,-150.77957 C 106.1039,-150.77957 83.04604,-200.49088 83.04604,-200.49088 C 83.04604,-200.49088 31.59047,-181.64405 31.59047,-181.64405 C 31.59047,-181.64405 38.0485,-171.79907 38.0485,-171.79907 C 38.0485,-171.79907 76.40681,-184.46236 76.40681,-184.46236 C 76.40681,-184.46236 94.57593,-148.38465 94.57593,-148.38465 C 94.57593,-148.38465 106.1039,-150.77957 106.1039,-150.77957 C 106.1039,-150.77957 106.1039,-150.77957 106.1039,-150.77957" />
      <path
         style="fill:#000000;stroke:none"
         id="path22858"
         d="M 92.15255,-142.53407 C 92.15255,-142.53407 56.21191,-135.70758 56.21191,-135.70758 C 56.21191,-135.70758 35.62511,-165.9485 35.62511,-165.9485 C 35.62511,-165.9485 73.6933,-177.91137 73.6933,-177.91137 C 73.6933,-177.91137 92.15255,-142.53407 92.15255,-142.53407 C 92.15255,-142.53407 92.15255,-142.53407 92.15255,-142.53407" />
    </g>
    <g
       id="g1454">
      <path
         style="fill:none;stroke:#000000;stroke-width:1.86207318"
         id="path22861"
         d="M -13.13028,-158.87953 C -13.13028,-158.87953 -47.88209,-115.59759 -47.88209,-115.59759 C -47.88209,-115.59759 -103.06028,-121.6293 -103.06028,-121.6293 C -103.06028,-121.6293 -92.15255,-142.53406 -92.15255,-142.53406 C -92.15255,-142.53406 -113.3902,-146.5679 -113.3902,-146.5679 C -113.3902,-146.5679 -86.0233,-207.67861 -86.0233,-207.67861 C -86.0233,-207.67861 -23.46019,-183.81814 -23.46019,-183.81814 C -23.46019,-183.81814 -35.62512,-165.9485 -35.62512,-165.9485 C -35.62512,-165.9485 -13.13028,-158.87953 -13.13028,-158.87953 C -13.13028,-158.87953 -13.13028,-158.87953 -13.13028,-158.87953" />
      <path
         style="fill:#000000;stroke:none"
         id="path22863"
         d="M -21.26056,-156.70543 C -21.26056,-156.70543 -49.67248,-119.91999 -49.67248,-119.91999 C -49.67248,-119.91999 -95.77399,-125.84097 -95.77399,-125.84097 C -95.77399,-125.84097 -89.80828,-136.87452 -89.80828,-136.87452 C -89.80828,-136.87452 -54.15778,-130.74844 -54.15778,-130.74844 C -54.15778,-130.74844 -33.28086,-160.28894 -33.28086,-160.28894 C -33.28086,-160.28894 -21.26056,-156.70543 -21.26056,-156.70543 C -21.26056,-156.70543 -21.26056,-156.70543 -21.26056,-156.70543" />
      <path
         style="fill:#000000;stroke:none"
         id="path22865"
         d="M -31.59047,-181.64405 C -31.59047,-181.64405 -83.04604,-200.49088 -83.04604,-200.49088 C -83.04604,-200.49088 -106.1039,-150.77957 -106.1039,-150.77957 C -106.1039,-150.77957 -94.57594,-148.38464 -94.57594,-148.38464 C -94.57594,-148.38464 -76.40681,-184.46236 -76.40681,-184.46236 C -76.40681,-184.46236 -38.0485,-171.79907 -38.0485,-171.79907 C -38.0485,-171.79907 -31.59047,-181.64405 -31.59047,-181.64405 C -31.59047,-181.64405 -31.59047,-181.64405 -31.59047,-181.64405" />
      <path
         style="fill:#000000;stroke:none"
         id="path22867"
         d="M -35.62512,-165.9485 C -35.62512,-165.9485 -56.21192,-135.70757 -56.21192,-135.70757 C -56.21192,-135.70757 -92.15255,-142.53406 -92.15255,-142.53406 C -92.15255,-142.53406 -73.6933,-177.91137 -73.6933,-177.91137 C -73.6933,-177.91137 -35.62512,-165.9485 -35.62512,-165.9485 C -35.62512,-165.9485 -35.62512,-165.9485 -35.62512,-165.9485" />
    </g>
    <g
       id="g0478">
      <path
         style="fill:none;stroke:#000000;stroke-width:1.86207318"
         id="path22870"
         d="M -121.6293,-103.06028 C -121.6293,-103.06028 -115.59759,-47.88209 -115.59759,-47.88209 C -115.59759,-47.88209 -158.87953,-13.13028 -158.87953,-13.13028 C -158.87953,-13.13028 -165.9485,-35.62511 -165.9485,-35.62511 C -165.9485,-35.62511 -183.81813,-23.46018 -183.81813,-23.46018 C -183.81813,-23.46018 -207.67861,-86.0233 -207.67861,-86.0233 C -207.67861,-86.0233 -146.56791,-113.39019 -146.56791,-113.39019 C -146.56791,-113.39019 -142.53407,-92.15255 -142.53407,-92.15255 C -142.53407,-92.15255 -121.6293,-103.06028 -121.6293,-103.06028 C -121.6293,-103.06028 -121.6293,-103.06028 -121.6293,-103.06028" />
      <path
         style="fill:#000000;stroke:none"
         id="path22872"
         d="M -125.84096,-95.77399 C -125.84096,-95.77399 -119.91999,-49.67249 -119.91999,-49.67249 C -119.91999,-49.67249 -156.70544,-21.26056 -156.70544,-21.26056 C -156.70544,-21.26056 -160.28895,-33.28086 -160.28895,-33.28086 C -160.28895,-33.28086 -130.74844,-54.15778 -130.74844,-54.15778 C -130.74844,-54.15778 -136.87452,-89.80828 -136.87452,-89.80828 C -136.87452,-89.80828 -125.84096,-95.77399 -125.84096,-95.77399 C -125.84096,-95.77399 -125.84096,-95.77399 -125.84096,-95.77399" />
      <path
         style="fill:#000000;stroke:none"
         id="path22874"
         d="M -150.77957,-106.1039 C -150.77957,-106.1039 -200.49088,-83.04604 -200.49088,-83.04604 C -200.49088,-83.04604 -181.64405,-31.59047 -181.64405,-31.59047 C -181.64405,-31.59047 -171.79907,-38.0485 -171.79907,-38.0485 C -171.79907,-38.0485 -184.46236,-76.40681 -184.46236,-76.40681 C -184.46236,-76.40681 -148.38465,-94.57593 -148.38465,-94.57593 C -148.38465,-94.57593 -150.77957,-106.1039 -150.77957,-106.1039 C -150.77957,-106.1039 -150.77957,-106.1039 -150.77957,-106.1039" />
      <path
         style="fill:#000000;stroke:none"
         id="path22876"
         d="M -142.53407,-92.15255 C -142.53407,-92.15255 -135.70758,-56.21191 -135.70758,-56.21191 C -135.70758,-56.21191 -165.9485,-35.62511 -165.9485,-35.62511 C -165.9485,-35.62511 -177.91137,-73.6933 -177.91137,-73.6933 C -177.91137,-73.6933 -142.53407,-92.15255 -142.53407,-92.15255 C -142.53407,-92.15255 -142.53407,-92.15255 -142.53407,-92.15255" />
    </g>
    <g
       id="g1395">
      <path
         style="fill:none;stroke:#000000;stroke-width:1.86207318"
         id="path22879"
         d="M -158.87953,13.13028 C -158.87953,13.13028 -115.59759,47.88209 -115.59759,47.88209 C -115.59759,47.88209 -121.6293,103.06028 -121.6293,103.06028 C -121.6293,103.06028 -142.53406,92.15255 -142.53406,92.15255 C -142.53406,92.15255 -146.5679,113.3902 -146.5679,113.3902 C -146.5679,113.3902 -207.67861,86.0233 -207.67861,86.0233 C -207.67861,86.0233 -183.81814,23.46019 -183.81814,23.46019 C -183.81814,23.46019 -165.9485,35.62512 -165.9485,35.62512 C -165.9485,35.62512 -158.87953,13.13028 -158.87953,13.13028 C -158.87953,13.13028 -158.87953,13.13028 -158.87953,13.13028" />
      <path
         style="fill:#000000;stroke:none"
         id="path22881"
         d="M -156.70543,21.26056 C -156.70543,21.26056 -119.91999,49.67248 -119.91999,49.67248 C -119.91999,49.67248 -125.84097,95.77399 -125.84097,95.77399 C -125.84097,95.77399 -136.87452,89.80828 -136.87452,89.80828 C -136.87452,89.80828 -130.74844,54.15778 -130.74844,54.15778 C -130.74844,54.15778 -160.28894,33.28086 -160.28894,33.28086 C -160.28894,33.28086 -156.70543,21.26056 -156.70543,21.26056 C -156.70543,21.26056 -156.70543,21.26056 -156.70543,21.26056" />
      <path
         style="fill:#000000;stroke:none"
         id="path22883"
         d="M -181.64405,31.59047 C -181.64405,31.59047 -200.49088,83.04604 -200.49088,83.04604 C -200.49088,83.04604 -150.77957,106.1039 -150.77957,106.1039 C -150.77957,106.1039 -148.38464,94.57594 -148.38464,94.57594 C -148.38464,94.57594 -184.46236,76.40681 -184.46236,76.40681 C -184.46236,76.40681 -171.79907,38.0485 -171.79907,38.0485 C -171.79907,38.0485 -181.64405,31.59047 -181.64405,31.59047 C -181.64405,31.59047 -181.64405,31.59047 -181.64405,31.59047" />
      <path
         style="fill:#000000;stroke:none"
         id="path22885"
         d="M -165.9485,35.62512 C -165.9485,35.62512 -135.70757,56.21192 -135.70757,56.21192 C -135.70757,56.21192 -142.53406,92.15255 -142.53406,92.15255 C -142.53406,92.15255 -177.91137,73.6933 -177.91137,73.6933 C -177.91137,73.6933 -165.9485,35.62512 -165.9485,35.62512 C -165.9485,35.62512 -165.9485,35.62512 -165.9485,35.62512" />
    </g>
    <g
       id="g8323">
      <path
         style="fill:none;stroke:#000000;stroke-width:1.86207318"
         id="path22888"
         d="M -103.06028,121.6293 C -103.06028,121.6293 -47.88209,115.59759 -47.88209,115.59759 C -47.88209,115.59759 -13.13028,158.87953 -13.13028,158.87953 C -13.13028,158.87953 -35.62511,165.9485 -35.62511,165.9485 C -35.62511,165.9485 -23.46018,183.81813 -23.46018,183.81813 C -23.46018,183.81813 -86.0233,207.67861 -86.0233,207.67861 C -86.0233,207.67861 -113.39019,146.56791 -113.39019,146.56791 C -113.39019,146.56791 -92.15255,142.53407 -92.15255,142.53407 C -92.15255,142.53407 -103.06028,121.6293 -103.06028,121.6293 C -103.06028,121.6293 -103.06028,121.6293 -103.06028,121.6293" />
      <path
         style="fill:#000000;stroke:none"
         id="path22890"
         d="M -95.77399,125.84096 C -95.77399,125.84096 -49.67249,119.91999 -49.67249,119.91999 C -49.67249,119.91999 -21.26056,156.70544 -21.26056,156.70544 C -21.26056,156.70544 -33.28086,160.28895 -33.28086,160.28895 C -33.28086,160.28895 -54.15778,130.74844 -54.15778,130.74844 C -54.15778,130.74844 -89.80828,136.87452 -89.80828,136.87452 C -89.80828,136.87452 -95.77399,125.84096 -95.77399,125.84096 C -95.77399,125.84096 -95.77399,125.84096 -95.77399,125.84096" />
      <path
         style="fill:#000000;stroke:none"
         id="path22892"
         d="M -106.1039,150.77957 C -106.1039,150.77957 -83.04604,200.49088 -83.04604,200.49088 C -83.04604,200.49088 -31.59047,181.64405 -31.59047,181.64405 C -31.59047,181.64405 -38.0485,171.79907 -38.0485,171.79907 C -38.0485,171.79907 -76.40681,184.46236 -76.40681,184.46236 C -76.40681,184.46236 -94.57593,148.38465 -94.57593,148.38465 C -94.57593,148.38465 -106.1039,150.77957 -106.1039,150.77957 C -106.1039,150.77957 -106.1039,150.77957 -106.1039,150.77957" />
      <path
         style="fill:#000000;stroke:none"
         id="path22894"
         d="M -92.15255,142.53407 C -92.15255,142.53407 -56.21191,135.70758 -56.21191,135.70758 C -56.21191,135.70758 -35.62511,165.9485 -35.62511,165.9485 C -35.62511,165.9485 -73.6933,177.91137 -73.6933,177.91137 C -73.6933,177.91137 -92.15255,142.53407 -92.15255,142.53407 C -92.15255,142.53407 -92.15255,142.53407 -92.15255,142.53407" />
    </g>
    <g
       id="g3920">
      <path
         style="fill:none;stroke:#000000;stroke-width:1.86207318"
         id="path22897"
         d="M 13.13028,158.87953 C 13.13028,158.87953 47.88209,115.59759 47.88209,115.59759 C 47.88209,115.59759 103.06028,121.6293 103.06028,121.6293 C 103.06028,121.6293 92.15255,142.53406 92.15255,142.53406 C 92.15255,142.53406 113.3902,146.5679 113.3902,146.5679 C 113.3902,146.5679 86.0233,207.67861 86.0233,207.67861 C 86.0233,207.67861 23.46019,183.81814 23.46019,183.81814 C 23.46019,183.81814 35.62512,165.9485 35.62512,165.9485 C 35.62512,165.9485 13.13028,158.87953 13.13028,158.87953 C 13.13028,158.87953 13.13028,158.87953 13.13028,158.87953" />
      <path
         style="fill:#000000;stroke:none"
         id="path22899"
         d="M 21.26056,156.70543 C 21.26056,156.70543 49.67248,119.91999 49.67248,119.91999 C 49.67248,119.91999 95.77399,125.84097 95.77399,125.84097 C 95.77399,125.84097 89.80828,136.87452 89.80828,136.87452 C 89.80828,136.87452 54.15778,130.74844 54.15778,130.74844 C 54.15778,130.74844 33.28086,160.28894 33.28086,160.28894 C 33.28086,160.28894 21.26056,156.70543 21.26056,156.70543 C 21.26056,156.70543 21.26056,156.70543 21.26056,156.70543" />
      <path
         style="fill:#000000;stroke:none"
         id="path22901"
         d="M 31.59047,181.64405 C 31.59047,181.64405 83.04604,200.49088 83.04604,200.49088 C 83.04604,200.49088 106.1039,150.77957 106.1039,150.77957 C 106.1039,150.77957 94.57594,148.38464 94.57594,148.38464 C 94.57594,148.38464 76.40681,184.46236 76.40681,184.46236 C 76.40681,184.46236 38.0485,171.79907 38.0485,171.79907 C 38.0485,171.79907 31.59047,181.64405 31.59047,181.64405 C 31.59047,181.64405 31.59047,181.64405 31.59047,181.64405" />
      <path
         style="fill:#000000;stroke:none"
         id="path22903"
         d="M 35.62512,165.9485 C 35.62512,165.9485 56.21192,135.70757 56.21192,135.70757 C 56.21192,135.70757 92.15255,142.53406 92.15255,142.53406 C 92.15255,142.53406 73.6933,177.91137 73.6933,177.91137 C 73.6933,177.91137 35.62512,165.9485 35.62512,165.9485 C 35.62512,165.9485 35.62512,165.9485 35.62512,165.9485" />
    </g>
    <g
       id="g7801">
      <path
         style="fill:none;stroke:#000000;stroke-width:1.86207318"
         id="path22906"
         d="M 49.36709,98.53098 C 49.36709,98.53098 53.12815,53.12815 53.12815,53.12815 C 53.12815,53.12815 98.53098,49.36709 98.53098,49.36709 C 98.53098,49.36709 99.77377,68.87075 99.77377,68.87075 C 99.77377,68.87075 117.61816,68.45426 117.61816,68.45426 C 117.61816,68.45426 123.60391,123.60391 123.60391,123.60391 C 123.60391,123.60391 68.45427,117.61816 68.45427,117.61816 C 68.45427,117.61816 68.87076,99.77377 68.87076,99.77377 C 68.87076,99.77377 49.36709,98.53098 49.36709,98.53098 C 49.36709,98.53098 49.36709,98.53098 49.36709,98.53098" />
      <path
         style="fill:#000000;stroke:none"
         id="path22908"
         d="M 54.13809,94.87389 C 54.13809,94.87389 56.74966,56.74966 56.74966,56.74966 C 56.74966,56.74966 94.87389,54.1381 94.87389,54.1381 C 94.87389,54.1381 95.42125,64.51824 95.42125,64.51824 C 95.42125,64.51824 65.60597,65.60597 65.60597,65.60597 C 65.60597,65.60597 64.51824,95.42125 64.51824,95.42125 C 64.51824,95.42125 54.13809,94.87389 54.13809,94.87389 C 54.13809,94.87389 54.13809,94.87389 54.13809,94.87389" />
      <path
         style="fill:#000000;stroke:none"
         id="path22910"
         d="M 73.22528,113.96107 C 73.22528,113.96107 118.41595,118.41595 118.41595,118.41595 C 118.41595,118.41595 113.96107,73.22528 113.96107,73.22528 C 113.96107,73.22528 104.23072,73.3277 104.23072,73.3277 C 104.23072,73.3277 106.71682,106.71682 106.71682,106.71682 C 106.71682,106.71682 73.32771,104.23072 73.32771,104.23072 C 73.32771,104.23072 73.22528,113.96107 73.22528,113.96107 C 73.22528,113.96107 73.22528,113.96107 73.22528,113.96107" />
      <path
         style="fill:#000000;stroke:none"
         id="path22912"
         d="M 68.87076,99.77377 C 68.87076,99.77377 69.57557,69.57557 69.57557,69.57557 C 69.57557,69.57557 99.77377,68.87075 99.77377,68.87075 C 99.77377,68.87075 101.87696,101.87696 101.87696,101.87696 C 101.87696,101.87696 68.87076,99.77377 68.87076,99.77377 C 68.87076,99.77377 68.87076,99.77377 68.87076,99.77377" />
    </g>
    <g
       id="g8006">
      <path
         style="fill:none;stroke:#000000;stroke-width:1.86207318"
         id="path22915"
         d="M 104.57972,34.76412 C 104.57972,34.76412 75.13455,0 75.13455,0 C 75.13455,0 104.57972,-34.76412 104.57972,-34.76412 C 104.57972,-34.76412 119.24968,-21.85174 119.24968,-21.85174 C 119.24968,-21.85174 131.57307,-34.76412 131.57307,-34.76412 C 131.57307,-34.76412 174.80233,0 174.80233,0 C 174.80233,0 131.57308,34.76412 131.57308,34.76412 C 131.57308,34.76412 119.24969,21.85173 119.24969,21.85173 C 119.24969,21.85173 104.57972,34.76412 104.57972,34.76412 C 104.57972,34.76412 104.57972,34.76412 104.57972,34.76412" />
      <path
         style="fill:#000000;stroke:none"
         id="path22917"
         d="M 105.36738,28.80455 C 105.36738,28.80455 80.25614,0 80.25614,0 C 80.25614,0 105.36739,-28.80455 105.36739,-28.80455 C 105.36739,-28.80455 113.0943,-21.85173 113.0943,-21.85173 C 113.0943,-21.85173 92.78085,0 92.78085,0 C 92.78085,0 113.09429,21.85173 113.09429,21.85173 C 113.09429,21.85173 105.36738,28.80455 105.36738,28.80455 C 105.36738,28.80455 105.36738,28.80455 105.36738,28.80455" />
      <path
         style="fill:#000000;stroke:none"
         id="path22919"
         d="M 132.36074,28.80456 C 132.36074,28.80456 167.46544,0 167.46544,0 C 167.46544,0 132.36074,-28.80456 132.36074,-28.80456 C 132.36074,-28.80456 125.55277,-21.85173 125.55277,-21.85173 C 125.55277,-21.85173 150.92038,0 150.92038,0 C 150.92038,0 125.55277,21.85173 125.55277,21.85173 C 125.55277,21.85173 132.36074,28.80456 132.36074,28.80456 C 132.36074,28.80456 132.36074,28.80456 132.36074,28.80456" />
      <path
         style="fill:#000000;stroke:none"
         id="path22921"
         d="M 119.24969,21.85173 C 119.24969,21.85173 98.39472,0 98.39472,0 C 98.39472,0 119.24968,-21.85174 119.24968,-21.85174 C 119.24968,-21.85174 144.07578,0 144.07578,0 C 144.07578,0 119.24969,21.85173 119.24969,21.85173 C 119.24969,21.85173 119.24969,21.85173 119.24969,21.85173" />
    </g>
    <g
       id="g0103">
      <path
         style="fill:none;stroke:#000000;stroke-width:1.86207318"
         id="path22924"
         d="M 98.53098,-49.36709 C 98.53098,-49.36709 53.12815,-53.12815 53.12815,-53.12815 C 53.12815,-53.12815 49.36709,-98.53098 49.36709,-98.53098 C 49.36709,-98.53098 68.87075,-99.77377 68.87075,-99.77377 C 68.87075,-99.77377 68.45426,-117.61816 68.45426,-117.61816 C 68.45426,-117.61816 123.60391,-123.60391 123.60391,-123.60391 C 123.60391,-123.60391 117.61816,-68.45427 117.61816,-68.45427 C 117.61816,-68.45427 99.77377,-68.87076 99.77377,-68.87076 C 99.77377,-68.87076 98.53098,-49.36709 98.53098,-49.36709 C 98.53098,-49.36709 98.53098,-49.36709 98.53098,-49.36709" />
      <path
         style="fill:#000000;stroke:none"
         id="path22926"
         d="M 94.87389,-54.13809 C 94.87389,-54.13809 56.74966,-56.74966 56.74966,-56.74966 C 56.74966,-56.74966 54.1381,-94.87389 54.1381,-94.87389 C 54.1381,-94.87389 64.51824,-95.42125 64.51824,-95.42125 C 64.51824,-95.42125 65.60597,-65.60597 65.60597,-65.60597 C 65.60597,-65.60597 95.42125,-64.51824 95.42125,-64.51824 C 95.42125,-64.51824 94.87389,-54.13809 94.87389,-54.13809 C 94.87389,-54.13809 94.87389,-54.13809 94.87389,-54.13809" />
      <path
         style="fill:#000000;stroke:none"
         id="path22928"
         d="M 113.96107,-73.22528 C 113.96107,-73.22528 118.41595,-118.41595 118.41595,-118.41595 C 118.41595,-118.41595 73.22528,-113.96107 73.22528,-113.96107 C 73.22528,-113.96107 73.3277,-104.23072 73.3277,-104.23072 C 73.3277,-104.23072 106.71682,-106.71682 106.71682,-106.71682 C 106.71682,-106.71682 104.23072,-73.32771 104.23072,-73.32771 C 104.23072,-73.32771 113.96107,-73.22528 113.96107,-73.22528 C 113.96107,-73.22528 113.96107,-73.22528 113.96107,-73.22528" />
      <path
         style="fill:#000000;stroke:none"
         id="path22930"
         d="M 99.77377,-68.87076 C 99.77377,-68.87076 69.57557,-69.57557 69.57557,-69.57557 C 69.57557,-69.57557 68.87075,-99.77377 68.87075,-99.77377 C 68.87075,-99.77377 101.87696,-101.87696 101.87696,-101.87696 C 101.87696,-101.87696 99.77377,-68.87076 99.77377,-68.87076 C 99.77377,-68.87076 99.77377,-68.87076 99.77377,-68.87076" />
    </g>
    <g
       id="g1513">
      <path
         style="fill:none;stroke:#000000;stroke-width:1.86207318"
         id="path22933"
         d="M 34.76412,-104.57972 C 34.76412,-104.57972 0,-75.13455 0,-75.13455 C 0,-75.13455 -34.76412,-104.57972 -34.76412,-104.57972 C -34.76412,-104.57972 -21.85174,-119.24968 -21.85174,-119.24968 C -21.85174,-119.24968 -34.76412,-131.57307 -34.76412,-131.57307 C -34.76412,-131.57307 0,-174.80233 0,-174.80233 C 0,-174.80233 34.76412,-131.57308 34.76412,-131.57308 C 34.76412,-131.57308 21.85173,-119.24969 21.85173,-119.24969 C 21.85173,-119.24969 34.76412,-104.57972 34.76412,-104.57972 C 34.76412,-104.57972 34.76412,-104.57972 34.76412,-104.57972" />
      <path
         style="fill:#000000;stroke:none"
         id="path22935"
         d="M 28.80455,-105.36738 C 28.80455,-105.36738 0,-80.25614 0,-80.25614 C 0,-80.25614 -28.80455,-105.36739 -28.80455,-105.36739 C -28.80455,-105.36739 -21.85173,-113.0943 -21.85173,-113.0943 C -21.85173,-113.0943 0,-92.78085 0,-92.78085 C 0,-92.78085 21.85173,-113.09429 21.85173,-113.09429 C 21.85173,-113.09429 28.80455,-105.36738 28.80455,-105.36738 C 28.80455,-105.36738 28.80455,-105.36738 28.80455,-105.36738" />
      <path
         style="fill:#000000;stroke:none"
         id="path22937"
         d="M 28.80456,-132.36074 C 28.80456,-132.36074 0,-167.46544 0,-167.46544 C 0,-167.46544 -28.80456,-132.36074 -28.80456,-132.36074 C -28.80456,-132.36074 -21.85173,-125.55277 -21.85173,-125.55277 C -21.85173,-125.55277 0,-150.92038 0,-150.92038 C 0,-150.92038 21.85173,-125.55277 21.85173,-125.55277 C 21.85173,-125.55277 28.80456,-132.36074 28.80456,-132.36074 C 28.80456,-132.36074 28.80456,-132.36074 28.80456,-132.36074" />
      <path
         style="fill:#000000;stroke:none"
         id="path22939"
         d="M 21.85173,-119.24969 C 21.85173,-119.24969 0,-98.39472 0,-98.39472 C 0,-98.39472 -21.85174,-119.24968 -21.85174,-119.24968 C -21.85174,-119.24968 0,-144.07578 0,-144.07578 C 0,-144.07578 21.85173,-119.24969 21.85173,-119.24969 C 21.85173,-119.24969 21.85173,-119.24969 21.85173,-119.24969" />
    </g>
    <g
       id="g2593">
      <path
         style="fill:none;stroke:#000000;stroke-width:1.86207318"
         id="path22942"
         d="M -49.36709,-98.53098 C -49.36709,-98.53098 -53.12815,-53.12815 -53.12815,-53.12815 C -53.12815,-53.12815 -98.53098,-49.36709 -98.53098,-49.36709 C -98.53098,-49.36709 -99.77377,-68.87075 -99.77377,-68.87075 C -99.77377,-68.87075 -117.61816,-68.45426 -117.61816,-68.45426 C -117.61816,-68.45426 -123.60391,-123.60391 -123.60391,-123.60391 C -123.60391,-123.60391 -68.45427,-117.61816 -68.45427,-117.61816 C -68.45427,-117.61816 -68.87076,-99.77377 -68.87076,-99.77377 C -68.87076,-99.77377 -49.36709,-98.53098 -49.36709,-98.53098 C -49.36709,-98.53098 -49.36709,-98.53098 -49.36709,-98.53098" />
      <path
         style="fill:#000000;stroke:none"
         id="path22944"
         d="M -54.13809,-94.87389 C -54.13809,-94.87389 -56.74966,-56.74966 -56.74966,-56.74966 C -56.74966,-56.74966 -94.87389,-54.1381 -94.87389,-54.1381 C -94.87389,-54.1381 -95.42125,-64.51824 -95.42125,-64.51824 C -95.42125,-64.51824 -65.60597,-65.60597 -65.60597,-65.60597 C -65.60597,-65.60597 -64.51824,-95.42125 -64.51824,-95.42125 C -64.51824,-95.42125 -54.13809,-94.87389 -54.13809,-94.87389 C -54.13809,-94.87389 -54.13809,-94.87389 -54.13809,-94.87389" />
      <path
         style="fill:#000000;stroke:none"
         id="path22946"
         d="M -73.22528,-113.96107 C -73.22528,-113.96107 -118.41595,-118.41595 -118.41595,-118.41595 C -118.41595,-118.41595 -113.96107,-73.22528 -113.96107,-73.22528 C -113.96107,-73.22528 -104.23072,-73.3277 -104.23072,-73.3277 C -104.23072,-73.3277 -106.71682,-106.71682 -106.71682,-106.71682 C -106.71682,-106.71682 -73.32771,-104.23072 -73.32771,-104.23072 C -73.32771,-104.23072 -73.22528,-113.96107 -73.22528,-113.96107 C -73.22528,-113.96107 -73.22528,-113.96107 -73.22528,-113.96107" />
      <path
         style="fill:#000000;stroke:none"
         id="path22948"
         d="M -68.87076,-99.77377 C -68.87076,-99.77377 -69.57557,-69.57557 -69.57557,-69.57557 C -69.57557,-69.57557 -99.77377,-68.87075 -99.77377,-68.87075 C -99.77377,-68.87075 -101.87696,-101.87696 -101.87696,-101.87696 C -101.87696,-101.87696 -68.87076,-99.77377 -68.87076,-99.77377 C -68.87076,-99.77377 -68.87076,-99.77377 -68.87076,-99.77377" />
    </g>
    <g
       id="g0104">
      <path
         style="fill:none;stroke:#000000;stroke-width:1.86207318"
         id="path22951"
         d="M -104.57972,-34.76412 C -104.57972,-34.76412 -75.13455,0 -75.13455,0 C -75.13455,0 -104.57972,34.76412 -104.57972,34.76412 C -104.57972,34.76412 -119.24968,21.85174 -119.24968,21.85174 C -119.24968,21.85174 -131.57307,34.76412 -131.57307,34.76412 C -131.57307,34.76412 -174.80233,0 -174.80233,0 C -174.80233,0 -131.57308,-34.76412 -131.57308,-34.76412 C -131.57308,-34.76412 -119.24969,-21.85173 -119.24969,-21.85173 C -119.24969,-21.85173 -104.57972,-34.76412 -104.57972,-34.76412 C -104.57972,-34.76412 -104.57972,-34.76412 -104.57972,-34.76412" />
      <path
         style="fill:#000000;stroke:none"
         id="path22953"
         d="M -105.36738,-28.80455 C -105.36738,-28.80455 -80.25614,0 -80.25614,0 C -80.25614,0 -105.36739,28.80455 -105.36739,28.80455 C -105.36739,28.80455 -113.0943,21.85173 -113.0943,21.85173 C -113.0943,21.85173 -92.78085,0 -92.78085,0 C -92.78085,0 -113.09429,-21.85173 -113.09429,-21.85173 C -113.09429,-21.85173 -105.36738,-28.80455 -105.36738,-28.80455 C -105.36738,-28.80455 -105.36738,-28.80455 -105.36738,-28.80455" />
      <path
         style="fill:#000000;stroke:none"
         id="path22955"
         d="M -132.36074,-28.80456 C -132.36074,-28.80456 -167.46544,0 -167.46544,0 C -167.46544,0 -132.36074,28.80456 -132.36074,28.80456 C -132.36074,28.80456 -125.55277,21.85173 -125.55277,21.85173 C -125.55277,21.85173 -150.92038,0 -150.92038,0 C -150.92038,0 -125.55277,-21.85173 -125.55277,-21.85173 C -125.55277,-21.85173 -132.36074,-28.80456 -132.36074,-28.80456 C -132.36074,-28.80456 -132.36074,-28.80456 -132.36074,-28.80456" />
      <path
         style="fill:#000000;stroke:none"
         id="path22957"
         d="M -119.24969,-21.85173 C -119.24969,-21.85173 -98.39472,0 -98.39472,0 C -98.39472,0 -119.24968,21.85174 -119.24968,21.85174 C -119.24968,21.85174 -144.07578,0 -144.07578,0 C -144.07578,0 -119.24969,-21.85173 -119.24969,-21.85173 C -119.24969,-21.85173 -119.24969,-21.85173 -119.24969,-21.85173" />
    </g>
    <g
       id="g8757">
      <path
         style="fill:none;stroke:#000000;stroke-width:1.86207318"
         id="path22960"
         d="M -98.53098,49.36709 C -98.53098,49.36709 -53.12815,53.12815 -53.12815,53.12815 C -53.12815,53.12815 -49.36709,98.53098 -49.36709,98.53098 C -49.36709,98.53098 -68.87075,99.77377 -68.87075,99.77377 C -68.87075,99.77377 -68.45426,117.61816 -68.45426,117.61816 C -68.45426,117.61816 -123.60391,123.60391 -123.60391,123.60391 C -123.60391,123.60391 -117.61816,68.45427 -117.61816,68.45427 C -117.61816,68.45427 -99.77377,68.87076 -99.77377,68.87076 C -99.77377,68.87076 -98.53098,49.36709 -98.53098,49.36709 C -98.53098,49.36709 -98.53098,49.36709 -98.53098,49.36709" />
      <path
         style="fill:#000000;stroke:none"
         id="path22962"
         d="M -94.87389,54.13809 C -94.87389,54.13809 -56.74966,56.74966 -56.74966,56.74966 C -56.74966,56.74966 -54.1381,94.87389 -54.1381,94.87389 C -54.1381,94.87389 -64.51824,95.42125 -64.51824,95.42125 C -64.51824,95.42125 -65.60597,65.60597 -65.60597,65.60597 C -65.60597,65.60597 -95.42125,64.51824 -95.42125,64.51824 C -95.42125,64.51824 -94.87389,54.13809 -94.87389,54.13809 C -94.87389,54.13809 -94.87389,54.13809 -94.87389,54.13809" />
      <path
         style="fill:#000000;stroke:none"
         id="path22964"
         d="M -113.96107,73.22528 C -113.96107,73.22528 -118.41595,118.41595 -118.41595,118.41595 C -118.41595,118.41595 -73.22528,113.96107 -73.22528,113.96107 C -73.22528,113.96107 -73.3277,104.23072 -73.3277,104.23072 C -73.3277,104.23072 -106.71682,106.71682 -106.71682,106.71682 C -106.71682,106.71682 -104.23072,73.32771 -104.23072,73.32771 C -104.23072,73.32771 -113.96107,73.22528 -113.96107,73.22528 C -113.96107,73.22528 -113.96107,73.22528 -113.96107,73.22528" />
      <path
         style="fill:#000000;stroke:none"
         id="path22966"
         d="M -99.77377,68.87076 C -99.77377,68.87076 -69.57557,69.57557 -69.57557,69.57557 C -69.57557,69.57557 -68.87075,99.77377 -68.87075,99.77377 C -68.87075,99.77377 -101.87696,101.87696 -101.87696,101.87696 C -101.87696,101.87696 -99.77377,68.87076 -99.77377,68.87076 C -99.77377,68.87076 -99.77377,68.87076 -99.77377,68.87076" />
    </g>
    <g
       id="g9618">
      <path
         style="fill:none;stroke:#000000;stroke-width:1.86207318"
         id="path22969"
         d="M -34.76412,104.57972 C -34.76412,104.57972 0,75.13455 0,75.13455 C 0,75.13455 34.76412,104.57972 34.76412,104.57972 C 34.76412,104.57972 21.85174,119.24968 21.85174,119.24968 C 21.85174,119.24968 34.76412,131.57307 34.76412,131.57307 C 34.76412,131.57307 0,174.80233 0,174.80233 C 0,174.80233 -34.76412,131.57308 -34.76412,131.57308 C -34.76412,131.57308 -21.85173,119.24969 -21.85173,119.24969 C -21.85173,119.24969 -34.76412,104.57972 -34.76412,104.57972 C -34.76412,104.57972 -34.76412,104.57972 -34.76412,104.57972" />
      <path
         style="fill:#000000;stroke:none"
         id="path22971"
         d="M -28.80455,105.36738 C -28.80455,105.36738 0,80.25614 0,80.25614 C 0,80.25614 28.80455,105.36739 28.80455,105.36739 C 28.80455,105.36739 21.85173,113.0943 21.85173,113.0943 C 21.85173,113.0943 0,92.78085 0,92.78085 C 0,92.78085 -21.85173,113.09429 -21.85173,113.09429 C -21.85173,113.09429 -28.80455,105.36738 -28.80455,105.36738 C -28.80455,105.36738 -28.80455,105.36738 -28.80455,105.36738" />
      <path
         style="fill:#000000;stroke:none"
         id="path22973"
         d="M -28.80456,132.36074 C -28.80456,132.36074 0,167.46544 0,167.46544 C 0,167.46544 28.80456,132.36074 28.80456,132.36074 C 28.80456,132.36074 21.85173,125.55277 21.85173,125.55277 C 21.85173,125.55277 0,150.92038 0,150.92038 C 0,150.92038 -21.85173,125.55277 -21.85173,125.55277 C -21.85173,125.55277 -28.80456,132.36074 -28.80456,132.36074 C -28.80456,132.36074 -28.80456,132.36074 -28.80456,132.36074" />
      <path
         style="fill:#000000;stroke:none"
         id="path22975"
         d="M -21.85173,119.24969 C -21.85173,119.24969 0,98.39472 0,98.39472 C 0,98.39472 21.85174,119.24968 21.85174,119.24968 C 21.85174,119.24968 0,144.07578 0,144.07578 C 0,144.07578 -21.85173,119.24969 -21.85173,119.24969 C -21.85173,119.24969 -21.85173,119.24969 -21.85173,119.24969" />
    </g>
  </g>
</svg>
