<?xml version="1.0" encoding="UTF-8" standalone="no"?>
<!-- Created with Inkscape (http://www.inkscape.org/) -->
<svg
   xmlns:dc="http://purl.org/dc/elements/1.1/"
   xmlns:cc="http://web.resource.org/cc/"
   xmlns:rdf="http://www.w3.org/1999/02/22-rdf-syntax-ns#"
   xmlns:svg="http://www.w3.org/2000/svg"
   xmlns="http://www.w3.org/2000/svg"
   xmlns:sodipodi="http://sodipodi.sourceforge.net/DTD/sodipodi-0.dtd"
   xmlns:inkscape="http://www.inkscape.org/namespaces/inkscape"
   width="765"
   height="1260"
   id="svg9745"
   sodipodi:version="0.32"
   inkscape:version="0.45"
   sodipodi:docbase="/media/oldubu/home/tamarind/0_Code_0/play-svg/scripts/images"
   sodipodi:docname="down_shifting_box.svg"
   inkscape:output_extension="org.inkscape.output.svg.inkscape"
   version="1.0"
   inkscape:export-filename="/media/oldubu/home/tamarind/0_Code_0/play-svg/scripts/images/down_shifting_box.png"
   inkscape:export-xdpi="25"
   inkscape:export-ydpi="25"
   sodipodi:modified="true">
  <sodipodi:namedview
     id="base"
     pagecolor="#ffffff"
     bordercolor="#666666"
     borderopacity="1.0"
     gridtolerance="10000"
     guidetolerance="10"
     objecttolerance="10"
     inkscape:pageopacity="0.0"
     inkscape:pageshadow="2"
     inkscape:zoom="0.34568288"
     inkscape:cx="165.38112"
     inkscape:cy="889.06572"
     inkscape:document-units="px"
     inkscape:current-layer="layer1"
     inkscape:window-width="874"
     inkscape:window-height="626"
     inkscape:window-x="100"
     inkscape:window-y="25"
     width="765px"
     height="1260px" />
  <defs
     id="defs9747" />
  <metadata
     id="metadata9750">
    <rdf:RDF>
      <cc:Work
         rdf:about="">
        <dc:format>image/svg+xml</dc:format>
        <dc:type
           rdf:resource="http://purl.org/dc/dcmitype/StillImage" />
      </cc:Work>
    </rdf:RDF>
  </metadata>
  <g
     inkscape:label="Layer 1"
     id="layer1"
     inkscape:groupmode="layer">
    <path
       style="fill:#000000;fill-opacity:1;stroke:#000000"
       d="M -208.28384,83.292737 L -308.28384,25.557707 L -308.28384,85.557707 L -208.28384,143.29274 L -108.28384,85.557707 L -108.28384,25.557707 L -208.28384,83.292737 z "
       id="path11608" />
    <path
       style="fill:#000000;fill-opacity:1;stroke:#000000"
       d="M -208.28384,939.61822 L -308.28384,766.41316 L -308.28384,826.41316 L -208.28384,999.61822 L -108.28384,826.41316 L -108.28384,766.41316 L -208.28384,939.61822 z "
       id="path13480" />
    <g
       id="g2197"
       transform="translate(8.6784741,-57.85649)">
      <g
         inkscape:export-ydpi="30"
         inkscape:export-xdpi="30"
         transform="matrix(1.1042253,0,0,1.1042253,443.40153,112.26614)"
         id="g14929">
        <path
           style="fill:#000000;fill-opacity:1;stroke:#000000"
           d="M -208.28384,939.61822 C -208.28384,939.61822 -275.22508,823.6726 -299.56809,781.50927 C -304.97785,772.1393 -308.28384,766.41316 -308.28384,766.41316 C -308.28384,766.41316 -308.28384,826.41316 -308.28384,826.41316 C -308.28384,826.41316 -304.97785,832.1393 -299.56809,841.50927 C -275.22508,883.6726 -208.28384,999.61822 -208.28384,999.61822 C -208.28384,999.61822 -141.3426,883.6726 -116.99959,841.50927 C -111.58983,832.1393 -108.28384,826.41316 -108.28384,826.41316 C -108.28384,826.41316 -108.28384,766.41316 -108.28384,766.41316 C -108.28384,766.41316 -111.58983,772.1393 -116.99959,781.50927 C -141.3426,823.6726 -208.28384,939.61822 -208.28384,939.61822 C -208.28384,939.61822 -208.28384,939.61822 -208.28384,939.61822"
           id="path14931" />
        <path
           style="fill:#000000;fill-opacity:1;stroke:#000000"
           d="M -208.28384,832.57753 C -208.28384,832.57753 -279.35743,723.90824 -300.65756,687.01533 C -305.3911,678.8166 -308.28384,674.36818 -308.28384,675.18444 C -308.28384,676.53393 -308.28384,731.07853 -308.28384,732.42803 C -308.28384,733.24428 -305.3911,738.8166 -300.65756,747.01533 C -279.35743,783.90824 -208.28384,892.57754 -208.28384,892.57754 C -208.28384,892.57754 -137.21025,783.90824 -115.91012,747.01533 C -111.17658,738.8166 -108.28384,733.24428 -108.28384,732.42802 C -108.28384,731.07852 -108.28384,676.53392 -108.28384,675.18443 C -108.28384,674.36817 -111.17658,678.8166 -115.91012,687.01533 C -137.21025,723.90824 -208.28384,832.57753 -208.28384,832.57753 C -208.28384,832.57753 -208.28384,832.57753 -208.28384,832.57753"
           id="path14933" />
        <path
           style="fill:#000000;fill-opacity:1;stroke:#000000"
           d="M -208.28384,725.53685 C -208.28384,725.53685 -283.48977,624.14388 -301.74703,592.52138 C -305.80435,585.4939 -308.28384,582.3232 -308.28384,583.95571 C -308.28384,586.65471 -308.28384,635.74391 -308.28384,638.4429 C -308.28384,640.0754 -305.80435,645.4939 -301.74703,652.52138 C -283.48977,684.14388 -208.28384,785.53685 -208.28384,785.53685 C -208.28384,785.53685 -133.07791,684.14388 -114.82065,652.52138 C -110.76333,645.4939 -108.28384,640.0754 -108.28384,638.44288 C -108.28384,635.74388 -108.28384,586.65468 -108.28384,583.9557 C -108.28384,582.32319 -110.76333,585.4939 -114.82065,592.52138 C -133.07791,624.14388 -208.28384,725.53685 -208.28384,725.53685 C -208.28384,725.53685 -208.28384,725.53685 -208.28384,725.53685"
           id="path14935" />
        <path
           style="fill:#000000;fill-opacity:1;stroke:#000000"
           d="M -208.28384,618.49616 C -208.28384,618.49616 -287.62212,524.37952 -302.8365,498.02744 C -306.2176,492.1712 -308.28384,490.27822 -308.28384,492.72699 C -308.28384,496.77548 -308.28384,540.40928 -308.28384,544.45777 C -308.28384,546.90653 -306.2176,552.1712 -302.8365,558.02744 C -287.62212,584.37952 -208.28384,678.49617 -208.28384,678.49617 C -208.28384,678.49617 -128.94556,584.37952 -113.73118,558.02744 C -110.35008,552.1712 -108.28384,546.90651 -108.28384,544.45774 C -108.28384,540.40925 -108.28384,496.77545 -108.28384,492.72696 C -108.28384,490.2782 -110.35008,492.1712 -113.73118,498.02744 C -128.94556,524.37952 -208.28384,618.49616 -208.28384,618.49616 C -208.28384,618.49616 -208.28384,618.49616 -208.28384,618.49616"
           id="path14937" />
        <path
           style="fill:#000000;fill-opacity:1;stroke:#000000"
           d="M -208.28384,511.45548 C -208.28384,511.45548 -291.75446,424.61516 -303.92597,403.53349 C -306.63085,398.8485 -308.28384,398.23323 -308.28384,401.49827 C -308.28384,406.89626 -308.28384,445.07466 -308.28384,450.47264 C -308.28384,453.73765 -306.63085,458.8485 -303.92597,463.53349 C -291.75446,484.61516 -208.28384,571.45548 -208.28384,571.45548 C -208.28384,571.45548 -124.81322,484.61516 -112.64171,463.53349 C -109.93683,458.8485 -108.28384,453.73763 -108.28384,450.4726 C -108.28384,445.07461 -108.28384,406.89621 -108.28384,401.49823 C -108.28384,398.23322 -109.93683,398.8485 -112.64171,403.53349 C -124.81322,424.61516 -208.28384,511.45548 -208.28384,511.45548 C -208.28384,511.45548 -208.28384,511.45548 -208.28384,511.45548"
           id="path14939" />
        <path
           style="fill:#000000;fill-opacity:1;stroke:#000000"
           d="M -208.28384,404.41479 C -208.28384,404.41479 -295.88681,324.85079 -305.01543,309.03954 C -307.04409,305.5258 -308.28384,306.18825 -308.28384,310.26954 C -308.28384,317.01703 -308.28384,349.74003 -308.28384,356.48751 C -308.28384,360.56877 -307.04409,365.5258 -305.01543,369.03954 C -295.88681,384.85079 -208.28384,464.4148 -208.28384,464.4148 C -208.28384,464.4148 -120.68087,384.85079 -111.55225,369.03954 C -109.52359,365.5258 -108.28384,360.56875 -108.28384,356.48746 C -108.28384,349.73997 -108.28384,317.01697 -108.28384,310.2695 C -108.28384,306.18823 -109.52359,305.5258 -111.55225,309.03954 C -120.68087,324.85079 -208.28384,404.41479 -208.28384,404.41479 C -208.28384,404.41479 -208.28384,404.41479 -208.28384,404.41479"
           id="path14941" />
        <path
           style="fill:#000000;fill-opacity:1;stroke:#000000"
           d="M -208.28384,297.37411 C -208.28384,297.37411 -300.01915,225.08643 -306.1049,214.5456 C -307.45734,212.2031 -308.28384,214.14327 -308.28384,219.04082 C -308.28384,227.13781 -308.28384,254.40541 -308.28384,262.50238 C -308.28384,267.39989 -307.45734,272.2031 -306.1049,274.5456 C -300.01915,285.08643 -208.28384,357.37411 -208.28384,357.37411 C -208.28384,357.37411 -116.54853,285.08643 -110.46278,274.5456 C -109.11034,272.2031 -108.28384,267.39987 -108.28384,262.50232 C -108.28384,254.40533 -108.28384,227.13773 -108.28384,219.04077 C -108.28384,214.14325 -109.11034,212.2031 -110.46278,214.5456 C -116.54853,225.08643 -208.28384,297.37411 -208.28384,297.37411 C -208.28384,297.37411 -208.28384,297.37411 -208.28384,297.37411"
           id="path14943" />
        <path
           style="fill:#000000;fill-opacity:1;stroke:#000000"
           d="M -208.28384,190.33342 C -208.28384,190.33342 -304.1515,125.32207 -307.19437,120.05165 C -307.87059,118.88041 -308.28384,122.09829 -308.28384,127.8121 C -308.28384,137.25858 -308.28384,159.07078 -308.28384,168.51724 C -308.28384,174.23102 -307.87059,178.88041 -307.19437,180.05165 C -304.1515,185.32207 -208.28384,250.33343 -208.28384,250.33343 C -208.28384,250.33343 -112.41618,185.32207 -109.37331,180.05165 C -108.69709,178.88041 -108.28384,174.23099 -108.28384,168.51718 C -108.28384,159.0707 -108.28384,137.25849 -108.28384,127.81203 C -108.28384,122.09826 -108.69709,118.88041 -109.37331,120.05165 C -112.41618,125.32207 -208.28384,190.33342 -208.28384,190.33342 C -208.28384,190.33342 -208.28384,190.33342 -208.28384,190.33342"
           id="path14945" />
        <path
           style="fill:#000000;fill-opacity:1;stroke:#000000"
           d="M -208.28384,83.292737 C -208.28384,83.292737 -308.28384,25.557707 -308.28384,25.557707 C -308.28384,25.557707 -308.28384,30.053309 -308.28384,36.583374 C -308.28384,47.379355 -308.28384,63.736158 -308.28384,74.532114 C -308.28384,81.062139 -308.28384,85.557707 -308.28384,85.557707 C -308.28384,85.557707 -208.28384,143.29274 -208.28384,143.29274 C -208.28384,143.29274 -108.28384,85.557707 -108.28384,85.557707 C -108.28384,85.557707 -108.28384,81.062105 -108.28384,74.53204 C -108.28384,63.736059 -108.28384,47.379256 -108.28384,36.5833 C -108.28384,30.053275 -108.28384,25.557707 -108.28384,25.557707 C -108.28384,25.557707 -208.28384,83.292737 -208.28384,83.292737 C -208.28384,83.292737 -208.28384,83.292737 -208.28384,83.292737"
           id="path14947" />
      </g>
      <g
         inkscape:export-ydpi="30"
         inkscape:export-xdpi="30"
         transform="matrix(1.1042253,0,0,1.1042253,758.56372,112.26614)"
         id="g2177">
        <path
           style="fill:#000000;fill-opacity:1;stroke:#000000"
           d="M -208.28384,939.61822 C -208.28384,939.61822 -275.22508,823.6726 -299.56809,781.50927 C -304.97785,772.1393 -308.28384,766.41316 -308.28384,766.41316 C -308.28384,766.41316 -308.28384,826.41316 -308.28384,826.41316 C -308.28384,826.41316 -304.97785,832.1393 -299.56809,841.50927 C -275.22508,883.6726 -208.28384,999.61822 -208.28384,999.61822 C -208.28384,999.61822 -141.3426,883.6726 -116.99959,841.50927 C -111.58983,832.1393 -108.28384,826.41316 -108.28384,826.41316 C -108.28384,826.41316 -108.28384,766.41316 -108.28384,766.41316 C -108.28384,766.41316 -111.58983,772.1393 -116.99959,781.50927 C -141.3426,823.6726 -208.28384,939.61822 -208.28384,939.61822 C -208.28384,939.61822 -208.28384,939.61822 -208.28384,939.61822"
           id="path2179" />
        <path
           style="fill:#000000;fill-opacity:1;stroke:#000000"
           d="M -208.28384,832.57753 C -208.28384,832.57753 -279.35743,723.90824 -300.65756,687.01533 C -305.3911,678.8166 -308.28384,674.36818 -308.28384,675.18444 C -308.28384,676.53393 -308.28384,731.07853 -308.28384,732.42803 C -308.28384,733.24428 -305.3911,738.8166 -300.65756,747.01533 C -279.35743,783.90824 -208.28384,892.57754 -208.28384,892.57754 C -208.28384,892.57754 -137.21025,783.90824 -115.91012,747.01533 C -111.17658,738.8166 -108.28384,733.24428 -108.28384,732.42802 C -108.28384,731.07852 -108.28384,676.53392 -108.28384,675.18443 C -108.28384,674.36817 -111.17658,678.8166 -115.91012,687.01533 C -137.21025,723.90824 -208.28384,832.57753 -208.28384,832.57753 C -208.28384,832.57753 -208.28384,832.57753 -208.28384,832.57753"
           id="path2181" />
        <path
           style="fill:#000000;fill-opacity:1;stroke:#000000"
           d="M -208.28384,725.53685 C -208.28384,725.53685 -283.48977,624.14388 -301.74703,592.52138 C -305.80435,585.4939 -308.28384,582.3232 -308.28384,583.95571 C -308.28384,586.65471 -308.28384,635.74391 -308.28384,638.4429 C -308.28384,640.0754 -305.80435,645.4939 -301.74703,652.52138 C -283.48977,684.14388 -208.28384,785.53685 -208.28384,785.53685 C -208.28384,785.53685 -133.07791,684.14388 -114.82065,652.52138 C -110.76333,645.4939 -108.28384,640.0754 -108.28384,638.44288 C -108.28384,635.74388 -108.28384,586.65468 -108.28384,583.9557 C -108.28384,582.32319 -110.76333,585.4939 -114.82065,592.52138 C -133.07791,624.14388 -208.28384,725.53685 -208.28384,725.53685 C -208.28384,725.53685 -208.28384,725.53685 -208.28384,725.53685"
           id="path2183" />
        <path
           style="fill:#000000;fill-opacity:1;stroke:#000000"
           d="M -208.28384,618.49616 C -208.28384,618.49616 -287.62212,524.37952 -302.8365,498.02744 C -306.2176,492.1712 -308.28384,490.27822 -308.28384,492.72699 C -308.28384,496.77548 -308.28384,540.40928 -308.28384,544.45777 C -308.28384,546.90653 -306.2176,552.1712 -302.8365,558.02744 C -287.62212,584.37952 -208.28384,678.49617 -208.28384,678.49617 C -208.28384,678.49617 -128.94556,584.37952 -113.73118,558.02744 C -110.35008,552.1712 -108.28384,546.90651 -108.28384,544.45774 C -108.28384,540.40925 -108.28384,496.77545 -108.28384,492.72696 C -108.28384,490.2782 -110.35008,492.1712 -113.73118,498.02744 C -128.94556,524.37952 -208.28384,618.49616 -208.28384,618.49616 C -208.28384,618.49616 -208.28384,618.49616 -208.28384,618.49616"
           id="path2185" />
        <path
           style="fill:#000000;fill-opacity:1;stroke:#000000"
           d="M -208.28384,511.45548 C -208.28384,511.45548 -291.75446,424.61516 -303.92597,403.53349 C -306.63085,398.8485 -308.28384,398.23323 -308.28384,401.49827 C -308.28384,406.89626 -308.28384,445.07466 -308.28384,450.47264 C -308.28384,453.73765 -306.63085,458.8485 -303.92597,463.53349 C -291.75446,484.61516 -208.28384,571.45548 -208.28384,571.45548 C -208.28384,571.45548 -124.81322,484.61516 -112.64171,463.53349 C -109.93683,458.8485 -108.28384,453.73763 -108.28384,450.4726 C -108.28384,445.07461 -108.28384,406.89621 -108.28384,401.49823 C -108.28384,398.23322 -109.93683,398.8485 -112.64171,403.53349 C -124.81322,424.61516 -208.28384,511.45548 -208.28384,511.45548 C -208.28384,511.45548 -208.28384,511.45548 -208.28384,511.45548"
           id="path2187" />
        <path
           style="fill:#000000;fill-opacity:1;stroke:#000000"
           d="M -208.28384,404.41479 C -208.28384,404.41479 -295.88681,324.85079 -305.01543,309.03954 C -307.04409,305.5258 -308.28384,306.18825 -308.28384,310.26954 C -308.28384,317.01703 -308.28384,349.74003 -308.28384,356.48751 C -308.28384,360.56877 -307.04409,365.5258 -305.01543,369.03954 C -295.88681,384.85079 -208.28384,464.4148 -208.28384,464.4148 C -208.28384,464.4148 -120.68087,384.85079 -111.55225,369.03954 C -109.52359,365.5258 -108.28384,360.56875 -108.28384,356.48746 C -108.28384,349.73997 -108.28384,317.01697 -108.28384,310.2695 C -108.28384,306.18823 -109.52359,305.5258 -111.55225,309.03954 C -120.68087,324.85079 -208.28384,404.41479 -208.28384,404.41479 C -208.28384,404.41479 -208.28384,404.41479 -208.28384,404.41479"
           id="path2189" />
        <path
           style="fill:#000000;fill-opacity:1;stroke:#000000"
           d="M -208.28384,297.37411 C -208.28384,297.37411 -300.01915,225.08643 -306.1049,214.5456 C -307.45734,212.2031 -308.28384,214.14327 -308.28384,219.04082 C -308.28384,227.13781 -308.28384,254.40541 -308.28384,262.50238 C -308.28384,267.39989 -307.45734,272.2031 -306.1049,274.5456 C -300.01915,285.08643 -208.28384,357.37411 -208.28384,357.37411 C -208.28384,357.37411 -116.54853,285.08643 -110.46278,274.5456 C -109.11034,272.2031 -108.28384,267.39987 -108.28384,262.50232 C -108.28384,254.40533 -108.28384,227.13773 -108.28384,219.04077 C -108.28384,214.14325 -109.11034,212.2031 -110.46278,214.5456 C -116.54853,225.08643 -208.28384,297.37411 -208.28384,297.37411 C -208.28384,297.37411 -208.28384,297.37411 -208.28384,297.37411"
           id="path2191" />
        <path
           style="fill:#000000;fill-opacity:1;stroke:#000000"
           d="M -208.28384,190.33342 C -208.28384,190.33342 -304.1515,125.32207 -307.19437,120.05165 C -307.87059,118.88041 -308.28384,122.09829 -308.28384,127.8121 C -308.28384,137.25858 -308.28384,159.07078 -308.28384,168.51724 C -308.28384,174.23102 -307.87059,178.88041 -307.19437,180.05165 C -304.1515,185.32207 -208.28384,250.33343 -208.28384,250.33343 C -208.28384,250.33343 -112.41618,185.32207 -109.37331,180.05165 C -108.69709,178.88041 -108.28384,174.23099 -108.28384,168.51718 C -108.28384,159.0707 -108.28384,137.25849 -108.28384,127.81203 C -108.28384,122.09826 -108.69709,118.88041 -109.37331,120.05165 C -112.41618,125.32207 -208.28384,190.33342 -208.28384,190.33342 C -208.28384,190.33342 -208.28384,190.33342 -208.28384,190.33342"
           id="path2193" />
        <path
           style="fill:#000000;fill-opacity:1;stroke:#000000"
           d="M -208.28384,83.292737 C -208.28384,83.292737 -308.28384,25.557707 -308.28384,25.557707 C -308.28384,25.557707 -308.28384,30.053309 -308.28384,36.583374 C -308.28384,47.379355 -308.28384,63.736158 -308.28384,74.532114 C -308.28384,81.062139 -308.28384,85.557707 -308.28384,85.557707 C -308.28384,85.557707 -208.28384,143.29274 -208.28384,143.29274 C -208.28384,143.29274 -108.28384,85.557707 -108.28384,85.557707 C -108.28384,85.557707 -108.28384,81.062105 -108.28384,74.53204 C -108.28384,63.736059 -108.28384,47.379256 -108.28384,36.5833 C -108.28384,30.053275 -108.28384,25.557707 -108.28384,25.557707 C -108.28384,25.557707 -208.28384,83.292737 -208.28384,83.292737 C -208.28384,83.292737 -208.28384,83.292737 -208.28384,83.292737"
           id="path2195" />
      </g>
    </g>
  </g>
</svg>
