<?xml version="1.0" encoding="UTF-8" standalone="no"?>
<!-- Created with Inkscape (http://www.inkscape.org/) -->
<svg
   xmlns:dc="http://purl.org/dc/elements/1.1/"
   xmlns:cc="http://web.resource.org/cc/"
   xmlns:rdf="http://www.w3.org/1999/02/22-rdf-syntax-ns#"
   xmlns:svg="http://www.w3.org/2000/svg"
   xmlns="http://www.w3.org/2000/svg"
   xmlns:sodipodi="http://sodipodi.sourceforge.net/DTD/sodipodi-0.dtd"
   xmlns:inkscape="http://www.inkscape.org/namespaces/inkscape"
   width="744.09448819"
   height="1052.3622047"
   id="svg4512"
   sodipodi:version="0.32"
   inkscape:version="0.45"
   sodipodi:modified="true">
  <defs
     id="defs4514" />
  <sodipodi:namedview
     id="base"
     pagecolor="#ffffff"
     bordercolor="#666666"
     borderopacity="1.0"
     gridtolerance="10000"
     guidetolerance="10"
     objecttolerance="10"
     inkscape:pageopacity="0.0"
     inkscape:pageshadow="2"
     inkscape:zoom="0.35061391"
     inkscape:cx="317.6287"
     inkscape:cy="399.19066"
     inkscape:document-units="px"
     inkscape:current-layer="layer1"
     showgrid="false"
     inkscape:window-width="1024"
     inkscape:window-height="693"
     inkscape:window-x="0"
     inkscape:window-y="25" />
  <metadata
     id="metadata4517">
    <rdf:RDF>
      <cc:Work
         rdf:about="">
        <dc:format>image/svg+xml</dc:format>
        <dc:type
           rdf:resource="http://purl.org/dc/dcmitype/StillImage" />
      </cc:Work>
    </rdf:RDF>
  </metadata>
  <g
     inkscape:label="Layer 1"
     inkscape:groupmode="layer"
     id="layer1">
    <g
       id="g6485"
       transform="matrix(0.7176221,0,0,0.7176221,103.14383,10.189535)">
      <g
         transform="translate(1.653037,0)"
         id="g6481">
        <path
           sodipodi:type="arc"
           style="fill:#ffffff;fill-opacity:1;stroke:#000000;stroke-width:0.1;stroke-miterlimit:4;stroke-dasharray:none;stroke-opacity:1"
           id="path4531"
           sodipodi:cx="370.76895"
           sodipodi:cy="386.31018"
           sodipodi:rx="333.026"
           sodipodi:ry="333.026"
           d="M 703.79495 386.31018 A 333.026 333.026 0 1 1  37.74295,386.31018 A 333.026 333.026 0 1 1  703.79495 386.31018 z"
           transform="translate(-37.68045,-7.036499)" />
        <path
           id="path93845"
           style="fill:#000000;fill-rule:evenodd;stroke:#000000;stroke-width:1px;stroke-linecap:butt;stroke-linejoin:miter;stroke-opacity:1"
           d="M 332.97113,379.03254 C 333.68091,378.36956 334.34382,380.56132 334.33584,380.97509 C 334.28209,383.76302 330.63431,384.39708 328.57755,383.66054 C 323.49195,381.83933 322.79845,375.25405 325.04531,371.02877 C 329.18083,363.25183 339.67937,362.50399 346.54365,366.87901 C 357.41976,373.81102 358.18491,389.05502 351.15414,398.98056 C 340.98119,413.34206 320.25348,414.08765 306.87703,403.93026 C 288.66659,390.10216 287.97386,363.21547 301.68885,346.02361 C 319.56145,323.62016 353.23627,323.01038 374.58791,340.68382 C 401.5119,362.9697 402.01131,404.02583 380.00225,429.86499 C 352.95166,461.62303 303.95028,461.98669 273.30988,435.28419 C 236.41643,403.13232 236.21223,345.64619 267.94976,309.90295 C 305.52666,267.58334 372.01611,267.56088 413.15321,304.66126 C 461.18039,347.97561 460.99996,423.96875 418.22091,470.78143 C 368.86673,524.78921 282.88553,524.38572 230.12393,475.62273 C 169.87005,419.93525 170.51589,323.49597 225.55873,264.51963 C 287.86487,197.76095 395.21942,198.6677 460.66951,260.2779 C 534.18544,329.48071 532.99988,448.19605 464.54243,520.37269 C 388.17163,600.8926 257.66062,599.41092 178.51037,523.83322 C 90.745003,440.02927 92.539583,297.2975 175.50419,210.93184 C 267.00075,115.68447 422.3694,117.80825 516.48984,208.72593 C 527.72712,220.51365 545.11352,220.35262 556.59589,209.41783 C 568.07826,198.48303 568.52268,180.28938 557.50396,168.83265 C 442.46422,57.83036 252.08987,55.22807 139.97846,171.93538 C 38.321303,277.75986 36.122393,452.65016 143.66194,555.33576 C 240.64533,647.94167 400.56144,649.75718 494.13914,551.09554 C 578.02055,462.65697 579.47323,317.19418 489.39363,232.39947 C 409.19715,156.90804 277.65482,155.79699 201.31065,237.59689 C 133.86626,309.86104 133.0749,428.0288 206.90443,496.26309 C 271.5536,556.01274 376.907,556.50713 437.38104,490.331 C 489.79853,432.97109 490.01962,339.85612 431.17156,286.78274 C 380.76596,241.32336 299.29595,241.35088 253.25269,293.20541 C 214.36446,337.00187 214.61467,407.44004 259.82049,446.83598 C 297.3644,479.55474 357.40615,479.10915 390.55144,440.19579 C 417.5193,408.53487 416.90738,358.22849 383.9172,330.92144 C 357.75489,309.26605 316.49288,310.01322 294.59345,337.46433 C 277.78838,358.52963 278.63718,391.4741 300.95057,408.41777 C 317.34083,420.8637 342.73864,419.95012 355.20364,402.35287 C 363.81849,390.19102 362.88095,371.51244 349.55436,363.0186 C 341.14351,357.65785 328.27958,358.57418 323.2123,368.10333 C 320.4592,373.2806 321.30895,381.34959 327.54038,383.58113 C 330.06054,384.48362 334.78237,384.05977 334.84823,380.64369 C 334.85801,380.1367 333.84082,378.22019 332.97113,379.03254 z "
           sodipodi:nodetypes="cssssssssssssssssssscscsssssssssssssssssssc" />
      </g>
      <g
         transform="translate(32.572645,-8.5564204)"
         id="g6477">
        <path
           sodipodi:type="arc"
           style="fill:#000000;fill-opacity:1;stroke:#000000;stroke-width:0.1;stroke-miterlimit:4;stroke-dasharray:none;stroke-opacity:1"
           id="path6473"
           sodipodi:cx="370.76895"
           sodipodi:cy="386.31018"
           sodipodi:rx="333.026"
           sodipodi:ry="333.026"
           d="M 703.79495 386.31018 A 333.026 333.026 0 1 1  37.74295,386.31018 A 333.026 333.026 0 1 1  703.79495 386.31018 z"
           transform="translate(-68.600058,678.70093)" />
        <path
           id="path6475"
           style="fill:#ffffff;fill-rule:evenodd;stroke:#000000;stroke-width:1px;stroke-linecap:butt;stroke-linejoin:miter;stroke-opacity:1"
           d="M 302.05152,1064.77 C 302.7613,1064.107 303.42421,1066.2988 303.41623,1066.7125 C 303.36248,1069.5005 299.7147,1070.1345 297.65794,1069.398 C 292.57234,1067.5768 291.87884,1060.9915 294.1257,1056.7662 C 298.26122,1048.9893 308.75976,1048.2414 315.62404,1052.6164 C 326.50015,1059.5485 327.2653,1074.7925 320.23453,1084.718 C 310.06158,1099.0795 289.33387,1099.8251 275.95742,1089.6677 C 257.74698,1075.8396 257.05425,1048.9529 270.76924,1031.761 C 288.64184,1009.3576 322.31666,1008.7478 343.6683,1026.4213 C 370.59229,1048.7071 371.0917,1089.7633 349.08264,1115.6024 C 322.03205,1147.3605 273.03067,1147.7241 242.39027,1121.0216 C 205.49682,1088.8698 205.29262,1031.3836 237.03015,995.64038 C 274.60705,953.32077 341.0965,953.29831 382.2336,990.39869 C 430.26078,1033.713 430.08035,1109.7062 387.3013,1156.5189 C 337.94712,1210.5266 251.96592,1210.1232 199.20432,1161.3602 C 138.95044,1105.6727 139.59628,1009.2334 194.63912,950.25706 C 256.94526,883.49838 364.29981,884.40513 429.7499,946.01533 C 503.26583,1015.2181 502.08027,1133.9335 433.62282,1206.1101 C 357.25202,1286.63 226.74101,1285.1484 147.59076,1209.5707 C 59.825395,1125.7667 61.619975,983.03493 144.58458,896.66927 C 236.08114,801.4219 391.44979,803.54568 485.57023,894.46336 C 496.80751,906.25108 514.19391,906.09005 525.67628,895.15526 C 537.15865,884.22046 537.60307,866.02681 526.58435,854.57008 C 411.54461,743.56779 221.17026,740.9655 109.05885,857.67281 C 7.4016949,963.49729 5.2027849,1138.3876 112.74233,1241.0732 C 209.72572,1333.6791 369.64183,1335.4946 463.21953,1236.833 C 547.10094,1148.3944 548.55362,1002.9316 458.47402,918.1369 C 378.27754,842.64547 246.73521,841.53442 170.39104,923.33432 C 102.94665,995.59847 102.15529,1113.7662 175.98482,1182.0005 C 240.63399,1241.7502 345.98739,1242.2446 406.46143,1176.0684 C 458.87892,1118.7085 459.10001,1025.5936 400.25195,972.52017 C 349.84635,927.06079 268.37634,927.08831 222.33308,978.94284 C 183.44485,1022.7393 183.69506,1093.1775 228.90088,1132.5734 C 266.44479,1165.2922 326.48654,1164.8466 359.63183,1125.9332 C 386.59969,1094.2723 385.98777,1043.9659 352.99759,1016.6589 C 326.83528,995.00348 285.57327,995.75065 263.67384,1023.2018 C 246.86877,1044.2671 247.71757,1077.2115 270.03096,1094.1552 C 286.42122,1106.6011 311.81903,1105.6876 324.28403,1088.0903 C 332.89888,1075.9285 331.96134,1057.2499 318.63475,1048.756 C 310.2239,1043.3953 297.35997,1044.3116 292.29269,1053.8408 C 289.53959,1059.018 290.38934,1067.087 296.62077,1069.3186 C 299.14093,1070.2211 303.86276,1069.7972 303.92862,1066.3811 C 303.9384,1065.8741 302.92121,1063.9576 302.05152,1064.77 z "
           sodipodi:nodetypes="cssssssssssssssssssscscsssssssssssssssssssc" />
      </g>
    </g>
  </g>
</svg>
