<?xml version="1.0" encoding="UTF-8" standalone="no"?>
<!-- Created with Inkscape (http://www.inkscape.org/) -->
<svg
   xmlns:dc="http://purl.org/dc/elements/1.1/"
   xmlns:cc="http://web.resource.org/cc/"
   xmlns:rdf="http://www.w3.org/1999/02/22-rdf-syntax-ns#"
   xmlns:svg="http://www.w3.org/2000/svg"
   xmlns="http://www.w3.org/2000/svg"
   xmlns:xlink="http://www.w3.org/1999/xlink"
   xmlns:sodipodi="http://sodipodi.sourceforge.net/DTD/sodipodi-0.dtd"
   xmlns:inkscape="http://www.inkscape.org/namespaces/inkscape"
   width="612pt"
   height="792pt"
   id="svg4348"
   sodipodi:version="0.32"
   inkscape:version="0.45"
   sodipodi:docname="imagen_cair.svg"
   sodipodi:docbase="/media/oldubu/home/tamarind/0_Code_0/play-svg/scripts/images"
   inkscape:output_extension="org.inkscape.output.svg.inkscape"
   sodipodi:modified="true">
  <defs
     id="defs4350">
    <clipPath
       clipPathUnits="userSpaceOnUse"
       id="clipPath4309">
      <path
         style="fill:none;stroke:#000000;stroke-width:1.0109241"
         d="M 294.92967,92.772995 L 470.02688,396.05023 L 119.8325,396.05023 L 294.92967,92.772995 z "
         id="path4311" />
    </clipPath>
  </defs>
  <sodipodi:namedview
     inkscape:document-units="in"
     pagecolor="#ffffff"
     bordercolor="#666666"
     borderopacity="1.0"
     inkscape:pageopacity="0.0"
     inkscape:pageshadow="2"
     inkscape:zoom="1.0182338"
     inkscape:cx="304.08001"
     inkscape:cy="873.59523"
     inkscape:current-layer="layer1"
     id="namedview4352"
     inkscape:window-width="874"
     inkscape:window-height="626"
     inkscape:window-x="0"
     inkscape:window-y="49" />
  <metadata
     id="metadata4354">
    <rdf:RDF>
      <cc:Work
         rdf:about="">
        <dc:format>image/svg+xml</dc:format>
        <dc:type
           rdf:resource="http://purl.org/dc/dcmitype/StillImage" />
      </cc:Work>
    </rdf:RDF>
  </metadata>
  <g
     inkscape:label="Layer 1"
     inkscape:groupmode="layer"
     id="layer1">
    <g
       id="g2531"
       clip-path="url(#clipPath4309)"
       style="stroke:#000000;stroke-width:1.5;stroke-miterlimit:4;stroke-dasharray:none;stroke-opacity:1"
       transform="matrix(0,1,-1,0,1504.0751,-257.30462)"
       inkscape:tile-w="304.28816"
       inkscape:tile-h="351.2053"
       inkscape:tile-cx="976.33019"
       inkscape:tile-cy="168.18063">
      <path
         id="path2399"
         d="M 323.86751,278.33333 L 295,328.33333 L 266.13249,278.33333 L 323.86751,278.33333 z "
         style="fill:none;stroke:#000000;stroke-width:1.5;stroke-miterlimit:4;stroke-dasharray:none;stroke-opacity:1" />
      <path
         id="path2401"
         d="M 295,261.66667 L 323.86751,278.33333 L 323.86751,311.66667 L 295,328.33333 L 266.13249,311.66667 L 266.13249,278.33333 L 295,261.66667 z "
         style="fill:none;stroke:#000000;stroke-width:1.5;stroke-miterlimit:4;stroke-dasharray:none;stroke-opacity:1" />
      <path
         id="path2403"
         d="M 352.73503,261.66667 L 295,361.66667 L 237.26497,261.66667 L 352.73503,261.66667 z "
         style="fill:none;stroke:#000000;stroke-width:1.5;stroke-miterlimit:4;stroke-dasharray:none;stroke-opacity:1" />
      <path
         id="path2405"
         d="M 295,228.33333 L 352.73503,261.66667 L 352.73503,328.33333 L 295,361.66667 L 237.26497,328.33333 L 237.26497,261.66667 L 295,228.33333 z "
         style="fill:none;stroke:#000000;stroke-width:1.5;stroke-miterlimit:4;stroke-dasharray:none;stroke-opacity:1" />
      <path
         id="path2407"
         d="M 381.60254,245 L 295,395 L 208.39746,245 L 381.60254,245 z "
         style="fill:none;stroke:#000000;stroke-width:1.5;stroke-miterlimit:4;stroke-dasharray:none;stroke-opacity:1" />
      <path
         id="path2409"
         d="M 295,195 L 381.60254,245 L 381.60254,345 L 295,395 L 208.39746,345 L 208.39746,245 L 295,195 z "
         style="fill:none;stroke:#000000;stroke-width:1.5;stroke-miterlimit:4;stroke-dasharray:none;stroke-opacity:1" />
      <path
         id="path2411"
         d="M 410.47005,228.33333 L 295,428.33333 L 179.52995,228.33333 L 410.47005,228.33333 z "
         style="fill:none;stroke:#000000;stroke-width:1.5;stroke-miterlimit:4;stroke-dasharray:none;stroke-opacity:1" />
      <path
         id="path2413"
         d="M 295,161.66667 L 410.47005,228.33333 L 410.47005,361.66667 L 295,428.33333 L 179.52995,361.66667 L 179.52995,228.33333 L 295,161.66667 z "
         style="fill:none;stroke:#000000;stroke-width:1.5;stroke-miterlimit:4;stroke-dasharray:none;stroke-opacity:1" />
      <path
         id="path2415"
         d="M 439.33757,211.66667 L 295,461.66667 L 150.66243,211.66667 L 439.33757,211.66667 z "
         style="fill:none;stroke:#000000;stroke-width:1.5;stroke-miterlimit:4;stroke-dasharray:none;stroke-opacity:1" />
      <path
         id="path2417"
         d="M 295,128.33333 L 439.33757,211.66667 L 439.33757,378.33333 L 295,461.66667 L 150.66243,378.33333 L 150.66243,211.66667 L 295,128.33333 z "
         style="fill:none;stroke:#000000;stroke-width:1.5;stroke-miterlimit:4;stroke-dasharray:none;stroke-opacity:1" />
      <path
         id="path2419"
         d="M 468.20508,195 L 295,495 L 121.79492,195 L 468.20508,195 z "
         style="fill:none;stroke:#000000;stroke-width:1.5;stroke-miterlimit:4;stroke-dasharray:none;stroke-opacity:1" />
      <path
         id="path2421"
         d="M 295,95 L 468.20508,195 L 468.20508,395 L 295,495 L 121.79492,395 L 121.79492,195 L 295,95 z "
         style="fill:none;stroke:#000000;stroke-width:1.5;stroke-miterlimit:4;stroke-dasharray:none;stroke-opacity:1" />
      <path
         id="path2423"
         d="M 497.07259,178.33333 L 295,528.33333 L 92.92741,178.33333 L 497.07259,178.33333 z "
         style="fill:none;stroke:#000000;stroke-width:1.5;stroke-miterlimit:4;stroke-dasharray:none;stroke-opacity:1" />
      <path
         id="path2425"
         d="M 295,61.66667 L 497.07259,178.33333 L 497.07259,411.66667 L 295,528.33333 L 92.92741,411.66667 L 92.92741,178.33333 L 295,61.66667 z "
         style="fill:none;stroke:#000000;stroke-width:1.5;stroke-miterlimit:4;stroke-dasharray:none;stroke-opacity:1" />
      <path
         id="path2427"
         d="M 525.94011,161.66667 L 295,561.66667 L 64.05989,161.66667 L 525.94011,161.66667 z "
         style="fill:none;stroke:#000000;stroke-width:1.5;stroke-miterlimit:4;stroke-dasharray:none;stroke-opacity:1" />
      <path
         id="path2429"
         d="M 295,28.33333 L 525.94011,161.66667 L 525.94011,428.33333 L 295,561.66667 L 64.05989,428.33333 L 64.05989,161.66667 L 295,28.33333 z "
         style="fill:none;stroke:#000000;stroke-width:1.5;stroke-miterlimit:4;stroke-dasharray:none;stroke-opacity:1" />
      <path
         id="path2431"
         d="M 554.80762,145 L 295,595 L 35.19238,145 L 554.80762,145 z "
         style="fill:none;stroke:#000000;stroke-width:1.5;stroke-miterlimit:4;stroke-dasharray:none;stroke-opacity:1" />
      <path
         id="path2433"
         d="M 295,-5 L 554.80762,145 L 554.80762,445 L 295,595 L 35.19238,445 L 35.19238,145 L 295,-5 z "
         style="fill:none;stroke:#000000;stroke-width:1.5;stroke-miterlimit:4;stroke-dasharray:none;stroke-opacity:1" />
      <path
         id="path2435"
         d="M 583.67513,128.33333 L 295,628.33333 L 6.32487,128.33333 L 583.67513,128.33333 z "
         style="fill:none;stroke:#000000;stroke-width:1.5;stroke-miterlimit:4;stroke-dasharray:none;stroke-opacity:1" />
      <path
         id="path2437"
         d="M 295,-38.33333 L 583.67513,128.33333 L 583.67513,461.66667 L 295,628.33333 L 6.32487,461.66667 L 6.32487,128.33333 L 295,-38.33333 z "
         style="fill:none;stroke:#000000;stroke-width:1.5;stroke-miterlimit:4;stroke-dasharray:none;stroke-opacity:1" />
      <path
         id="path2439"
         d="M 612.54265,111.66667 L 295,661.66667 L -22.54265,111.66667 L 612.54265,111.66667 z "
         style="fill:none;stroke:#000000;stroke-width:1.5;stroke-miterlimit:4;stroke-dasharray:none;stroke-opacity:1" />
      <path
         id="path2441"
         d="M 295,-71.66667 L 612.54265,111.66667 L 612.54265,478.33333 L 295,661.66667 L -22.54265,478.33333 L -22.54265,111.66667 L 295,-71.66667 z "
         style="fill:none;stroke:#000000;stroke-width:1.5;stroke-miterlimit:4;stroke-dasharray:none;stroke-opacity:1" />
      <path
         id="path2443"
         d="M 641.41016,95 L 295,695 L -51.41016,95 L 641.41016,95 z "
         style="fill:none;stroke:#000000;stroke-width:1.5;stroke-miterlimit:4;stroke-dasharray:none;stroke-opacity:1" />
      <path
         id="path2445"
         d="M 295,-105 L 641.41016,95 L 641.41016,495 L 295,695 L -51.41016,495 L -51.41016,95 L 295,-105 z "
         style="fill:none;stroke:#000000;stroke-width:1.5;stroke-miterlimit:4;stroke-dasharray:none;stroke-opacity:1" />
      <path
         id="path2447"
         d="M 670.27767,78.33333 L 295,728.33333 L -80.27767,78.33333 L 670.27767,78.33333 z "
         style="fill:none;stroke:#000000;stroke-width:1.5;stroke-miterlimit:4;stroke-dasharray:none;stroke-opacity:1" />
      <path
         id="path2449"
         d="M 295,-138.33333 L 670.27767,78.33333 L 670.27767,511.66667 L 295,728.33333 L -80.27767,511.66667 L -80.27767,78.33333 L 295,-138.33333 z "
         style="fill:none;stroke:#000000;stroke-width:1.5;stroke-miterlimit:4;stroke-dasharray:none;stroke-opacity:1" />
      <path
         id="path2451"
         d="M 295,261.66667 L 323.86751,311.66667 L 266.13249,311.66667 L 295,261.66667 z "
         style="fill:none;stroke:#000000;stroke-width:1.5;stroke-miterlimit:4;stroke-dasharray:none;stroke-opacity:1" />
      <path
         id="path2453"
         d="M 295,228.33333 L 352.73503,328.33333 L 237.26497,328.33333 L 295,228.33333 z "
         style="fill:none;stroke:#000000;stroke-width:1.5;stroke-miterlimit:4;stroke-dasharray:none;stroke-opacity:1" />
      <path
         id="path2455"
         d="M 295,195 L 381.60254,345 L 208.39746,345 L 295,195 z "
         style="fill:none;stroke:#000000;stroke-width:1.5;stroke-miterlimit:4;stroke-dasharray:none;stroke-opacity:1" />
      <path
         id="path2457"
         d="M 295,161.66667 L 410.47005,361.66667 L 179.52995,361.66667 L 295,161.66667 z "
         style="fill:none;stroke:#000000;stroke-width:1.5;stroke-miterlimit:4;stroke-dasharray:none;stroke-opacity:1" />
      <path
         id="path2459"
         d="M 295,128.33333 L 439.33757,378.33333 L 150.66243,378.33333 L 295,128.33333 z "
         style="fill:none;stroke:#000000;stroke-width:1.5;stroke-miterlimit:4;stroke-dasharray:none;stroke-opacity:1" />
      <path
         id="path2461"
         d="M 295,95 L 468.20508,395 L 121.79492,395 L 295,95 z "
         style="fill:none;stroke:#000000;stroke-width:1.5;stroke-miterlimit:4;stroke-dasharray:none;stroke-opacity:1" />
    </g>
    <g
       id="g2236"
       transform="translate(477.62298,642.74451)">
      <use
         height="990"
         width="765"
         id="use4398"
         transform="matrix(0.6348491,0,0,0.6348491,-287.25491,573.31988)"
         xlink:href="#g2531"
         inkscape:tiled-clone-of="#g2531"
         y="0"
         x="0" />
      <use
         height="990"
         width="765"
         id="use4414"
         transform="matrix(-0.6348491,0,0,0.6348491,1119.1456,573.66657)"
         xlink:href="#g2531"
         inkscape:tiled-clone-of="#g2531"
         y="0"
         x="0" />
      <path
         sodipodi:nodetypes="ccccc"
         id="path17891"
         d="M 229.63904,578.63656 L 396.28638,482.42267 L 413.95392,486.58085 L 224.40637,596.01617 L 229.63904,578.63656 z "
         style="fill:#ffffff;fill-opacity:1;fill-rule:evenodd;stroke:#000000;stroke-width:0.70891255;stroke-linejoin:round;stroke-miterlimit:4;stroke-opacity:1" />
    </g>
    <g
       id="g2241"
       transform="translate(388.27661,287.09704)">
      <use
         height="990"
         width="765"
         id="use4400"
         transform="matrix(0.6348491,0,0,0.6348491,-287.25491,796.28227)"
         xlink:href="#g2531"
         inkscape:tiled-clone-of="#g2531"
         y="0"
         x="0" />
      <use
         height="990"
         width="765"
         id="use4416"
         transform="matrix(-0.6348491,0,0,0.6348491,1119.1456,796.62897)"
         xlink:href="#g2531"
         inkscape:tiled-clone-of="#g2531"
         y="0"
         x="0" />
      <path
         sodipodi:nodetypes="ccccc"
         id="path17893"
         d="M 229.63904,801.57162 L 396.28638,705.35773 L 413.95392,709.51591 L 224.40637,818.95123 L 229.63904,801.57162 z "
         style="fill:#ffffff;fill-opacity:1;fill-rule:evenodd;stroke:#000000;stroke-width:0.70891255;stroke-linejoin:round;stroke-miterlimit:4;stroke-opacity:1" />
    </g>
    <g
       id="g4242"
       transform="translate(-39.524141,21.28223)">
      <g
         transform="translate(-88.169238,39.524141)"
         id="g2258"
         style="fill:none">
        <use
           x="0"
           y="0"
           inkscape:tiled-clone-of="#g2531"
           xlink:href="#g2531"
           id="use4394"
           transform="matrix(0.6348491,0,0,0.6348491,-287.25491,127.39514)"
           width="765"
           height="990"
           style="fill:none" />
        <use
           x="0"
           y="0"
           inkscape:tiled-clone-of="#g2531"
           xlink:href="#g2531"
           id="use4410"
           transform="matrix(-0.6348491,0,0,0.6348491,1119.1456,127.74183)"
           width="765"
           height="990"
           style="fill:none" />
        <use
           x="0"
           y="0"
           inkscape:tiled-clone-of="#g2531"
           xlink:href="#g2531"
           transform="matrix(0.3174246,-0.5497954,0.5497954,0.3174246,140.12321,915.10066)"
           id="use4396"
           width="765"
           height="990"
           style="fill:none" />
        <use
           x="0"
           y="0"
           inkscape:tiled-clone-of="#g2531"
           xlink:href="#g2531"
           transform="matrix(-0.3174246,0.5497954,0.5497954,0.3174246,843.62371,-302.70456)"
           id="use4412"
           width="765"
           height="990"
           style="fill:none" />
      </g>
      <path
         sodipodi:nodetypes="ccccc"
         id="rect25222"
         d="M 309.50389,308.04066 L 142.85654,211.82677 L 137.62386,194.44714 L 327.17141,303.88249 L 309.50389,308.04066 z "
         style="fill:#ffffff;fill-opacity:1;fill-rule:evenodd;stroke:#000000;stroke-width:0.70891255;stroke-linejoin:round;stroke-miterlimit:4;stroke-opacity:1" />
      <g
         transform="matrix(-1,0,0,-1,936.19536,902.62631)"
         id="g2264"
         style="fill:none">
        <use
           x="0"
           y="0"
           inkscape:tiled-clone-of="#g2531"
           xlink:href="#g2531"
           id="use2266"
           transform="matrix(0.6348491,0,0,0.6348491,-287.25491,127.39514)"
           width="765"
           height="990"
           style="fill:none" />
        <use
           x="0"
           y="0"
           inkscape:tiled-clone-of="#g2531"
           xlink:href="#g2531"
           id="use2268"
           transform="matrix(-0.6348491,0,0,0.6348491,1119.1456,127.74183)"
           width="765"
           height="990"
           style="fill:none" />
        <use
           x="0"
           y="0"
           inkscape:tiled-clone-of="#g2531"
           xlink:href="#g2531"
           transform="matrix(0.3174246,-0.5497954,0.5497954,0.3174246,140.12321,915.10066)"
           id="use2270"
           width="765"
           height="990"
           style="fill:none" />
        <use
           x="0"
           y="0"
           inkscape:tiled-clone-of="#g2531"
           xlink:href="#g2531"
           transform="matrix(-0.3174246,0.5497954,0.5497954,0.3174246,843.62371,-302.70456)"
           id="use2272"
           width="765"
           height="990"
           style="fill:none" />
      </g>
      <path
         sodipodi:nodetypes="ccccc"
         id="path4234"
         d="M 534.44001,204.89313 L 534.44002,397.32092 L 522.00516,410.54237 L 522.00518,191.6717 L 534.44001,204.89313 z "
         style="fill:#ffffff;fill-opacity:1;fill-rule:evenodd;stroke:#000000;stroke-width:0.70891255;stroke-linejoin:round;stroke-miterlimit:4;stroke-opacity:1" />
      <path
         sodipodi:nodetypes="ccccc"
         id="path4236"
         d="M 349.83323,76.237634 L 516.4806,172.45152 L 521.71327,189.83115 L 332.16572,80.395797 L 349.83323,76.237634 z "
         style="fill:#ffffff;fill-opacity:1;fill-rule:evenodd;stroke:#000000;stroke-width:0.70891255;stroke-linejoin:round;stroke-miterlimit:4;stroke-opacity:1" />
      <path
         sodipodi:nodetypes="ccccc"
         id="path4238"
         d="M 141.0566,171.89453 L 307.70394,75.680633 L 325.37148,79.838813 L 135.82392,189.27414 L 141.0566,171.89453 z "
         style="fill:#ffffff;fill-opacity:1;fill-rule:evenodd;stroke:#000000;stroke-width:0.70891255;stroke-linejoin:round;stroke-miterlimit:4;stroke-opacity:1" />
      <path
         sodipodi:nodetypes="ccccc"
         id="path4240"
         d="M 540.48283,635.28739 L 707.13019,731.50128 L 712.36287,748.88091 L 522.81531,639.44557 L 540.48283,635.28739 z "
         style="fill:#ffffff;fill-opacity:1;fill-rule:evenodd;stroke:#000000;stroke-width:0.70891255;stroke-linejoin:round;stroke-miterlimit:4;stroke-opacity:1" />
    </g>
  </g>
</svg>
