<?xml version="1.0" encoding="UTF-8" standalone="no"?>
<svg
   xmlns:dc="http://purl.org/dc/elements/1.1/"
   xmlns:cc="http://web.resource.org/cc/"
   xmlns:rdf="http://www.w3.org/1999/02/22-rdf-syntax-ns#"
   xmlns:svg="http://www.w3.org/2000/svg"
   xmlns="http://www.w3.org/2000/svg"
   xmlns:xlink="http://www.w3.org/1999/xlink"
   xmlns:sodipodi="http://sodipodi.sourceforge.net/DTD/sodipodi-0.dtd"
   xmlns:inkscape="http://www.inkscape.org/namespaces/inkscape"
   width="590"
   xlink:xlink="xlink"
   height="590"
   id="svg5130"
   sodipodi:version="0.32"
   inkscape:version="0.45"
   sodipodi:docname="kolam_tile.svg"
   sodipodi:docbase="/media/oldubu/home/tamarind/0_Code_0/play-svg/scripts/images"
   inkscape:output_extension="org.inkscape.output.svg.inkscape"
   sodipodi:modified="true">
  <sodipodi:namedview
     inkscape:window-height="693"
     inkscape:window-width="1024"
     inkscape:pageshadow="2"
     inkscape:pageopacity="0.0"
     guidetolerance="10.0"
     gridtolerance="10.0"
     objecttolerance="10.0"
     borderopacity="1.0"
     bordercolor="#666666"
     pagecolor="#ffffff"
     id="base"
     showguides="true"
     inkscape:guide-bbox="true"
     inkscape:zoom="15.609083"
     inkscape:cx="762.07452"
     inkscape:cy="222.76279"
     inkscape:window-x="0"
     inkscape:window-y="25"
     inkscape:current-layer="svg5130" />
  <metadata
     id="metadata5166">
    <rdf:RDF>
      <cc:Work
         rdf:about="">
        <dc:format>image/svg+xml</dc:format>
        <dc:type
           rdf:resource="http://purl.org/dc/dcmitype/StillImage" />
      </cc:Work>
    </rdf:RDF>
  </metadata>
  <defs
     id="defs5132" />
  <g
     id="g5135"
     transform="matrix(0.7071068,-0.7071068,-0.7071068,-0.7071068,784.63395,275.64442)">
    <path
       style="fill:none;stroke:none"
       id="path5137"
       d="M -25,25 L 25,25 L 25,-25 L -25,-25 L -25,25 z " />
    <path
       style="fill:none;stroke:#000000"
       id="path5139"
       d="M -25,25 L 25,25 L 25,-25 L -25,-25 L -25,25 z " />
  </g>
  <g
     id="g5141"
     transform="matrix(0.7071068,-0.7071068,-0.7071068,-0.7071068,787.99021,188.60877)">
    <path
       style="fill:none;stroke:none"
       id="path5143"
       d="M -25,25 L 25,25 L 25,-25 L -25,-25 L -25,25 z " />
    <path
       style="fill:none;stroke:#000000"
       id="path5145"
       d="M -25,25 C 75,25 -25,-75 -25,25 z " />
  </g>
  <g
     id="g5147"
     transform="matrix(0.7071068,-0.7071068,-0.7071068,-0.7071068,702.9844,279.1894)">
    <path
       style="fill:none;stroke:none"
       id="path5149"
       d="M -25,25 L 25,25 L 25,-25 L -25,-25 L -25,25 z " />
    <path
       style="fill:none;stroke:#000000"
       id="path5151"
       d="M -25,25 L 25,25 C 25,-12.5 -25,-12.5 -25,25 z " />
  </g>
  <g
     id="g5153"
     transform="matrix(0.7071068,-0.7071068,-0.7071068,-0.7071068,780.29247,379.11094)">
    <path
       style="fill:none;stroke:none"
       id="path5155"
       d="M -25,25 L 25,25 L 25,-25 L -25,-25 L -25,25 z " />
    <path
       style="fill:none;stroke:#000000"
       id="path5157"
       d="M -25,25 C 12.5,25 25,12.5 25,-25 C -12.5,-25 -25,-12.5 -25,25 z " />
  </g>
  <g
     id="g5159"
     transform="matrix(0.7071068,-0.7071068,-0.7071068,-0.7071068,870.9813,275.58665)">
    <path
       style="fill:none;stroke:none"
       id="path5161"
       d="M -25,25 L 25,25 L 25,-25 L -25,-25 L -25,25 z " />
    <path
       style="fill:none;stroke:#000000"
       id="path5163"
       d="M -25,25 L 25,25 L 25,-25 C -12.5,-25 -25,-12.5 -25,25 z " />
  </g>
</svg>
