<?xml version="1.0" encoding="UTF-8" standalone="no"?>
<!-- Created with Inkscape (http://www.inkscape.org/) -->
<svg
   xmlns:dc="http://purl.org/dc/elements/1.1/"
   xmlns:cc="http://web.resource.org/cc/"
   xmlns:rdf="http://www.w3.org/1999/02/22-rdf-syntax-ns#"
   xmlns:svg="http://www.w3.org/2000/svg"
   xmlns="http://www.w3.org/2000/svg"
   xmlns:sodipodi="http://sodipodi.sourceforge.net/DTD/sodipodi-0.dtd"
   xmlns:inkscape="http://www.inkscape.org/namespaces/inkscape"
   width="744.09448819"
   height="1052.3622047"
   id="svg18250"
   sodipodi:version="0.32"
   inkscape:version="0.45"
   sodipodi:modified="true">
  <defs
     id="defs18252" />
  <sodipodi:namedview
     id="base"
     pagecolor="#ffffff"
     bordercolor="#666666"
     borderopacity="1.0"
     gridtolerance="10000"
     guidetolerance="10"
     objecttolerance="10"
     inkscape:pageopacity="0.0"
     inkscape:pageshadow="2"
     inkscape:zoom="0.35"
     inkscape:cx="375"
     inkscape:cy="520"
     inkscape:document-units="px"
     inkscape:current-layer="layer1"
     inkscape:window-width="874"
     inkscape:window-height="626"
     inkscape:window-x="50"
     inkscape:window-y="25" />
  <metadata
     id="metadata18255">
    <rdf:RDF>
      <cc:Work
         rdf:about="">
        <dc:format>image/svg+xml</dc:format>
        <dc:type
           rdf:resource="http://purl.org/dc/dcmitype/StillImage" />
      </cc:Work>
    </rdf:RDF>
  </metadata>
  <g
     inkscape:label="Layer 1"
     inkscape:groupmode="layer"
     id="layer1">
    <g
       id="g9868"
       transform="matrix(0.7622694,0,0,0.7622694,456.9799,-290.35931)">
      <path
         style="fill:#ffffff;fill-opacity:1;stroke:#000000;stroke-width:0.30000001;stroke-miterlimit:4;stroke-dasharray:none"
         id="path7775"
         d="M 110.8968,609.61917 C 110.8968,609.61917 158.44962,644.16832 206.00245,678.71747 C 253.55528,713.26662 301.1081,747.81577 301.1081,747.81577 C 301.1081,747.81577 301.10803,747.81598 301.10789,747.81641 C 301.03715,748.03414 282.90903,803.82676 264.78092,859.61933 C 246.61738,915.52098 228.45385,971.42257 228.45385,971.42257 C 228.45385,971.42257 228.45363,971.42257 228.45318,971.42257 C 228.22425,971.42257 169.56041,971.42257 110.89663,971.42257 C 52.11816,971.42257 -6.66025,971.42257 -6.66025,971.42257 C -6.66025,971.42257 -6.66025,971.42257 -6.66025,971.42257 C -6.66025,971.42257 -24.82381,915.52087 -42.98737,859.61917 C -61.15094,803.71747 -79.3145,747.81577 -79.3145,747.81577 C -79.3145,747.81577 -79.3145,747.81577 -79.3145,747.81577 C -79.3145,747.81577 -31.76168,713.26662 15.79115,678.71747 C 63.34397,644.16832 110.8968,609.61917 110.8968,609.61917 C 110.8968,609.61917 110.8968,609.61917 110.8968,609.61917" />
      <path
         style="fill:#000000;fill-opacity:1;stroke:none"
         id="path7777"
         d="M 110.8968,634.61917 C 110.8968,634.61917 152.3951,669.16832 192.02246,697.95928 C 231.64981,726.75024 277.33169,755.54119 277.33169,755.54119 C 277.33169,755.54119 277.33163,755.54137 277.33152,755.54173 C 277.27256,755.72317 257.26758,805.77578 242.16083,852.26959 C 227.02454,898.85429 213.75922,951.19714 213.75922,951.19714 C 213.75922,951.19714 213.75903,951.19714 213.75866,951.19714 C 213.56788,951.19714 159.78314,947.63839 110.89666,947.63839 C 61.9146,947.63839 8.03438,951.19714 8.03438,951.19714 C 8.03438,951.19714 8.03439,951.19712 8.0344,951.19708 C 8.04168,951.17467 -5.23097,898.8542 -20.36727,852.26945 C -35.50357,805.6847 -55.53809,755.54119 -55.53809,755.54119 C -55.53809,755.54119 -55.53807,755.54119 -55.53802,755.54119 C -55.51446,755.54119 -9.85621,726.75024 29.77114,697.95928 C 69.3985,669.16832 110.8968,634.61917 110.8968,634.61917 C 110.8968,634.61917 110.8968,634.61917 110.8968,634.61917" />
      <path
         style="fill:#ffffff;fill-opacity:1;stroke:none"
         id="path7779"
         d="M 110.8968,659.61917 C 110.8968,659.61917 146.34058,694.16832 178.04247,717.20109 C 209.74435,740.23385 253.55528,763.26662 253.55528,763.26662 C 253.55528,763.26662 253.55523,763.26676 253.55514,763.26705 C 253.50798,763.4122 231.62614,807.7248 219.54074,844.91984 C 207.43171,882.18761 199.06459,930.97172 199.06459,930.97172 C 199.06459,930.97172 199.06444,930.97172 199.06414,930.97172 C 198.91152,930.97172 150.00587,923.8542 110.89669,923.8542 C 71.71104,923.8542 22.72901,930.97172 22.72901,930.97172 C 22.72901,930.97172 22.72903,930.97168 22.72906,930.97159 C 22.74362,930.92678 14.36187,882.18754 2.25283,844.91974 C -9.85621,807.65194 -31.76168,763.26662 -31.76168,763.26662 C -31.76168,763.26662 -31.76163,763.26662 -31.76154,763.26662 C -31.71442,763.26662 12.04925,740.23385 43.75113,717.20109 C 75.45302,694.16832 110.8968,659.61917 110.8968,659.61917 C 110.8968,659.61917 110.8968,659.61917 110.8968,659.61917" />
      <path
         style="fill:#000000;fill-opacity:1;stroke:none"
         id="path7781"
         d="M 110.8968,684.61917 C 110.8968,684.61917 140.28606,719.16832 164.06248,736.44289 C 187.83889,753.71747 229.77887,770.99205 229.77887,770.99205 C 229.77887,770.99205 229.77883,770.99215 229.77876,770.99236 C 229.74339,771.10123 205.98469,809.67381 196.92064,837.5701 C 187.83887,865.52092 184.36996,910.74629 184.36996,910.74629 C 184.36996,910.74629 184.36984,910.74629 184.36962,910.74629 C 184.25515,910.74629 140.22861,900.07002 110.89672,900.07002 C 81.50748,900.07002 37.42365,910.74629 37.42365,910.74629 C 37.42365,910.74629 37.42367,910.74623 37.42371,910.7461 C 37.44555,910.67888 33.95471,865.52087 24.87293,837.57002 C 15.79115,809.61917 -7.98527,770.99205 -7.98527,770.99205 C -7.98527,770.99205 -7.9852,770.99205 -7.98506,770.99205 C -7.91438,770.99205 33.95471,753.71747 57.73113,736.44289 C 81.50754,719.16832 110.8968,684.61917 110.8968,684.61917 C 110.8968,684.61917 110.8968,684.61917 110.8968,684.61917" />
      <path
         style="fill:#ffffff;fill-opacity:1;stroke:none"
         id="path7783"
         d="M 110.8968,709.61917 C 110.8968,709.61917 134.23154,744.16832 150.08248,755.6847 C 165.93343,767.20109 206.00245,778.71747 206.00245,778.71747 C 206.00245,778.71747 206.00243,778.71754 206.00238,778.71768 C 205.9788,778.79026 180.34325,811.62283 174.30055,830.22036 C 168.24603,848.85424 169.67532,890.52087 169.67532,890.52087 C 169.67532,890.52087 169.67525,890.52087 169.6751,890.52087 C 169.59879,890.52087 130.45134,876.28584 110.89674,876.28584 C 91.30392,876.28584 52.11828,890.52087 52.11828,890.52087 C 52.11828,890.52087 52.11831,890.52078 52.11836,890.52061 C 52.14748,890.43099 53.54756,848.8542 47.49304,830.2203 C 41.43851,811.5864 15.79115,778.71747 15.79115,778.71747 C 15.79115,778.71747 15.79124,778.71747 15.79142,778.71747 C 15.88566,778.71747 55.86018,767.20109 71.71112,755.6847 C 87.56206,744.16832 110.8968,709.61917 110.8968,709.61917 C 110.8968,709.61917 110.8968,709.61917 110.8968,709.61917" />
      <path
         style="fill:#000000;fill-opacity:1;stroke:none"
         id="path7785"
         d="M 110.8968,734.61917 C 110.8968,734.61917 128.17702,769.16832 136.10249,774.92651 C 144.02796,780.6847 182.22604,786.4429 182.22604,786.4429 C 182.22604,786.4429 182.22603,786.44293 182.22601,786.443 C 182.21422,786.47929 154.7018,813.57185 151.68045,822.87061 C 148.6532,832.18755 154.98069,870.29544 154.98069,870.29544 C 154.98069,870.29544 154.98065,870.29544 154.98058,870.29544 C 154.94242,870.29544 120.67407,852.50165 110.89677,852.50165 C 101.10036,852.50165 66.81291,870.29544 66.81291,870.29544 C 66.81291,870.29544 66.81294,870.29534 66.81302,870.29512 C 66.84941,870.18309 73.1404,832.18754 70.11314,822.87059 C 67.08588,813.55364 39.56756,786.4429 39.56756,786.4429 C 39.56756,786.4429 39.56767,786.4429 39.5679,786.4429 C 39.6857,786.4429 77.76564,780.6847 85.69111,774.92651 C 93.61658,769.16832 110.8968,734.61917 110.8968,734.61917 C 110.8968,734.61917 110.8968,734.61917 110.8968,734.61917" />
      <path
         style="fill:#ffffff;fill-opacity:1;stroke:none"
         id="path7787"
         d="M 110.8968,759.61917 C 110.8968,759.61917 122.1225,794.16832 122.1225,794.16832 C 122.1225,794.16832 158.44963,794.16832 158.44963,794.16832 C 158.44963,794.16832 158.44963,794.16832 158.44963,794.16832 C 158.44963,794.16832 129.06036,815.52087 129.06036,815.52087 C 129.06036,815.52087 140.28606,850.07002 140.28606,850.07002 C 140.28606,850.07002 140.28606,850.07002 140.28606,850.07002 C 140.28606,850.07002 110.8968,828.71747 110.8968,828.71747 C 110.8968,828.71747 81.50754,850.07002 81.50754,850.07002 C 81.50754,850.07002 81.50758,850.06989 81.50767,850.06963 C 81.55135,849.93519 92.73324,815.52087 92.73324,815.52087 C 92.73324,815.52087 63.34397,794.16832 63.34397,794.16832 C 63.34397,794.16832 63.34411,794.16832 63.34439,794.16832 C 63.48573,794.16832 99.6711,794.16832 99.6711,794.16832 C 99.6711,794.16832 110.8968,759.61917 110.8968,759.61917 C 110.8968,759.61917 110.8968,759.61917 110.8968,759.61917" />
    </g>
    <g
       id="g8883"
       transform="matrix(0.7622694,0,0,0.7622694,-242.79499,-303.08148)">
      <path
         style="fill:#000000;fill-opacity:1;stroke:none;stroke-opacity:1"
         id="path7893"
         d="M 590,627.99265 C 590,627.99265 637.55282,662.5418 685.10565,697.09095 C 732.65848,731.6401 780.2113,766.18925 780.2113,766.18925 C 780.2113,766.18925 780.21123,766.18946 780.21109,766.18989 C 780.14035,766.40762 762.01223,822.20024 743.88412,877.99281 C 725.72058,933.89446 707.55705,989.79605 707.55705,989.79605 C 707.55705,989.79605 707.55683,989.79605 707.55638,989.79605 C 707.32745,989.79605 648.66361,989.79605 589.99983,989.79605 C 531.22136,989.79605 472.44295,989.79605 472.44295,989.79605 C 472.44295,989.79605 472.44295,989.79605 472.44295,989.79605 C 472.44295,989.79605 454.27939,933.89435 436.11583,877.99265 C 417.95226,822.09095 399.7887,766.18925 399.7887,766.18925 C 399.7887,766.18925 399.7887,766.18925 399.7887,766.18925 C 399.7887,766.18925 447.34152,731.6401 494.89435,697.09095 C 542.44717,662.5418 590,627.99265 590,627.99265 C 590,627.99265 590,627.99265 590,627.99265" />
      <path
         style="fill:#fffcfc;fill-opacity:1;stroke:none"
         id="path7895"
         d="M 590,652.99265 C 590,652.99265 631.4983,687.5418 671.12566,716.33276 C 710.75301,745.12372 756.43489,773.91467 756.43489,773.91467 C 756.43489,773.91467 756.43483,773.91485 756.43472,773.91521 C 756.37576,774.09665 736.37078,824.14926 721.26403,870.64307 C 706.12774,917.22777 692.86242,969.57062 692.86242,969.57062 C 692.86242,969.57062 692.86223,969.57062 692.86186,969.57062 C 692.67108,969.57062 638.88634,966.01187 589.99986,966.01187 C 541.0178,966.01187 487.13758,969.57062 487.13758,969.57062 C 487.13758,969.57062 487.13759,969.5706 487.1376,969.57056 C 487.14488,969.54815 473.87223,917.22768 458.73593,870.64293 C 443.59963,824.05818 423.56511,773.91467 423.56511,773.91467 C 423.56511,773.91467 423.56513,773.91467 423.56518,773.91467 C 423.58874,773.91467 469.24699,745.12372 508.87434,716.33276 C 548.5017,687.5418 590,652.99265 590,652.99265 C 590,652.99265 590,652.99265 590,652.99265" />
      <path
         style="fill:#000000;fill-opacity:1;stroke:none"
         id="path7897"
         d="M 590,677.99265 C 590,677.99265 625.44378,712.5418 657.14567,735.57457 C 688.84755,758.60733 732.65848,781.6401 732.65848,781.6401 C 732.65848,781.6401 732.65843,781.64024 732.65834,781.64053 C 732.61118,781.78568 710.72934,826.09828 698.64394,863.29332 C 686.53491,900.56109 678.16779,949.3452 678.16779,949.3452 C 678.16779,949.3452 678.16764,949.3452 678.16734,949.3452 C 678.01472,949.3452 629.10907,942.22768 589.99989,942.22768 C 550.81424,942.22768 501.83221,949.3452 501.83221,949.3452 C 501.83221,949.3452 501.83223,949.34516 501.83226,949.34507 C 501.84682,949.30026 493.46507,900.56102 481.35603,863.29322 C 469.24699,826.02542 447.34152,781.6401 447.34152,781.6401 C 447.34152,781.6401 447.34157,781.6401 447.34166,781.6401 C 447.38878,781.6401 491.15245,758.60733 522.85433,735.57457 C 554.55622,712.5418 590,677.99265 590,677.99265 C 590,677.99265 590,677.99265 590,677.99265" />
      <path
         style="fill:#ffffff;fill-opacity:1;stroke:none"
         id="path7899"
         d="M 590,702.99265 C 590,702.99265 619.38926,737.5418 643.16568,754.81637 C 666.94209,772.09095 708.88207,789.36553 708.88207,789.36553 C 708.88207,789.36553 708.88203,789.36563 708.88196,789.36584 C 708.84659,789.47471 685.08789,828.04729 676.02384,855.94358 C 666.94207,883.8944 663.47316,929.11977 663.47316,929.11977 C 663.47316,929.11977 663.47304,929.11977 663.47282,929.11977 C 663.35835,929.11977 619.33181,918.4435 589.99992,918.4435 C 560.61068,918.4435 516.52685,929.11977 516.52685,929.11977 C 516.52685,929.11977 516.52687,929.11971 516.52691,929.11958 C 516.54875,929.05236 513.05791,883.89435 503.97613,855.9435 C 494.89435,827.99265 471.11793,789.36553 471.11793,789.36553 C 471.11793,789.36553 471.118,789.36553 471.11814,789.36553 C 471.18882,789.36553 513.05791,772.09095 536.83433,754.81637 C 560.61074,737.5418 590,702.99265 590,702.99265 C 590,702.99265 590,702.99265 590,702.99265" />
      <path
         style="fill:#000000;fill-opacity:1;stroke:none"
         id="path7901"
         d="M 590,727.99265 C 590,727.99265 613.33474,762.5418 629.18568,774.05818 C 645.03663,785.57457 685.10565,797.09095 685.10565,797.09095 C 685.10565,797.09095 685.10563,797.09102 685.10558,797.09116 C 685.082,797.16374 659.44645,829.99631 653.40375,848.59384 C 647.34923,867.22772 648.77852,908.89435 648.77852,908.89435 C 648.77852,908.89435 648.77845,908.89435 648.7783,908.89435 C 648.70199,908.89435 609.55454,894.65932 589.99994,894.65932 C 570.40712,894.65932 531.22148,908.89435 531.22148,908.89435 C 531.22148,908.89435 531.22151,908.89426 531.22156,908.89409 C 531.25068,908.80447 532.65076,867.22768 526.59624,848.59378 C 520.54171,829.95988 494.89435,797.09095 494.89435,797.09095 C 494.89435,797.09095 494.89444,797.09095 494.89462,797.09095 C 494.98886,797.09095 534.96338,785.57457 550.81432,774.05818 C 566.66526,762.5418 590,727.99265 590,727.99265 C 590,727.99265 590,727.99265 590,727.99265" />
      <path
         style="fill:#ffffff;fill-opacity:1;stroke:none"
         id="path7903"
         d="M 590,752.99265 C 590,752.99265 607.28022,787.5418 615.20569,793.29999 C 623.13116,799.05818 661.32924,804.81638 661.32924,804.81638 C 661.32924,804.81638 661.32923,804.81641 661.32921,804.81648 C 661.31742,804.85277 633.805,831.94533 630.78365,841.24409 C 627.7564,850.56103 634.08389,888.66892 634.08389,888.66892 C 634.08389,888.66892 634.08385,888.66892 634.08378,888.66892 C 634.04562,888.66892 599.77727,870.87513 589.99997,870.87513 C 580.20356,870.87513 545.91611,888.66892 545.91611,888.66892 C 545.91611,888.66892 545.91614,888.66882 545.91622,888.6686 C 545.95261,888.55657 552.2436,850.56102 549.21634,841.24407 C 546.18908,831.92712 518.67076,804.81638 518.67076,804.81638 C 518.67076,804.81638 518.67087,804.81638 518.6711,804.81638 C 518.7889,804.81638 556.86884,799.05818 564.79431,793.29999 C 572.71978,787.5418 590,752.99265 590,752.99265 C 590,752.99265 590,752.99265 590,752.99265" />
      <path
         style="fill:#000000;stroke:none"
         id="path7905"
         d="M 590,777.99265 C 590,777.99265 601.2257,812.5418 601.2257,812.5418 C 601.2257,812.5418 637.55283,812.5418 637.55283,812.5418 C 637.55283,812.5418 637.55283,812.5418 637.55283,812.5418 C 637.55283,812.5418 608.16356,833.89435 608.16356,833.89435 C 608.16356,833.89435 619.38926,868.4435 619.38926,868.4435 C 619.38926,868.4435 619.38926,868.4435 619.38926,868.4435 C 619.38926,868.4435 590,847.09095 590,847.09095 C 590,847.09095 560.61074,868.4435 560.61074,868.4435 C 560.61074,868.4435 560.61078,868.44337 560.61087,868.44311 C 560.65455,868.30867 571.83644,833.89435 571.83644,833.89435 C 571.83644,833.89435 542.44717,812.5418 542.44717,812.5418 C 542.44717,812.5418 542.44731,812.5418 542.44759,812.5418 C 542.58893,812.5418 578.7743,812.5418 578.7743,812.5418 C 578.7743,812.5418 590,777.99265 590,777.99265 C 590,777.99265 590,777.99265 590,777.99265" />
    </g>
    <g
       id="g12529"
       transform="translate(431.64824,-277.30522)">
      <g
         id="g12551"
         transform="matrix(0.7430347,0,0,0.7430347,-94.061527,263.37714)">
        <path
           style="fill:#ffffff;fill-opacity:1;stroke:#000000;stroke-width:0.30000001;stroke-miterlimit:4;stroke-dasharray:none;stroke-opacity:1"
           d="M -170.91195,644.6082 C -170.91195,644.6082 -131.82037,663.43371 -92.7288,682.25922 C -53.63723,701.08473 -14.54565,719.91024 -14.54565,719.91024 C -14.54565,719.91024 -14.54565,719.91024 -14.54565,719.91024 C -14.54565,719.91024 -4.89083,762.21078 4.76399,804.51131 C 14.41881,846.81185 24.07363,889.11239 24.07363,889.11239 C 24.07363,889.11239 24.07363,889.11239 24.07363,889.11239 C 24.07363,889.11239 -2.97858,923.03478 -30.03079,956.95718 C -57.08299,990.87957 -84.1352,1024.802 -84.1352,1024.802 C -84.1352,1024.802 -84.13537,1024.802 -84.1357,1024.802 C -84.30469,1024.802 -127.6084,1024.802 -170.91207,1024.802 C -214.30041,1024.802 -257.6887,1024.802 -257.6887,1024.802 C -257.6887,1024.802 -257.6887,1024.802 -257.6887,1024.802 C -257.6887,1024.802 -284.74091,990.87957 -311.79312,956.95718 C -338.84532,923.03478 -365.89753,889.11239 -365.89753,889.11239 C -365.89753,889.11239 -365.89749,889.11223 -365.89742,889.11191 C -365.85982,888.94715 -356.22384,846.72915 -346.58786,804.51119 C -336.93305,762.2107 -327.27825,719.91024 -327.27825,719.91024 C -327.27825,719.91024 -327.2781,719.91017 -327.2778,719.91002 C -327.12555,719.8367 -288.11025,701.04793 -249.09499,682.25917 C -210.00345,663.43367 -170.91195,644.6082 -170.91195,644.6082 C -170.91195,644.6082 -170.91195,644.6082 -170.91195,644.6082"
           id="path10493" />
        <path
           style="fill:#120000;fill-opacity:1;stroke:none"
           d="M -170.91195,663.3582 C -170.91195,663.3582 -136.03707,684.68976 -101.83194,701.16209 C -67.62681,717.63441 -29.20499,731.60067 -29.20499,731.60067 C -29.20499,731.60067 -29.205,731.60069 -29.20503,731.60071 C -29.21819,731.61454 -24.13855,772.16697 -15.69058,809.17994 C -7.24261,846.19291 5.79373,884.94012 5.79373,884.94012 C 5.79373,884.94012 5.79371,884.94012 5.79368,884.94012 C 5.77466,884.93845 -22.7634,914.19389 -46.43408,943.87599 C -70.10476,973.55809 -92.27052,1007.9088 -92.27052,1007.9088 C -92.27052,1007.9088 -92.27066,1007.9088 -92.27095,1007.9088 C -92.41882,1007.9088 -133.02134,1003.8214 -170.91206,1003.8214 C -208.87685,1003.8214 -249.55338,1007.9088 -249.55338,1007.9088 C -249.55338,1007.9088 -249.55337,1007.9088 -249.55336,1007.9087 C -249.54751,1007.8906 -271.71914,973.55809 -295.38982,943.87599 C -319.0605,914.19389 -347.61763,884.94012 -347.61763,884.94012 C -347.61763,884.94012 -347.6176,884.93998 -347.61754,884.9397 C -347.58463,884.79554 -334.56477,846.12055 -326.13329,809.17983 C -317.68534,772.1669 -312.61891,731.60067 -312.61891,731.60067 C -312.61891,731.60067 -312.61878,731.60061 -312.61852,731.60049 C -312.48529,731.53633 -274.13021,717.6022 -239.99186,701.16204 C -205.78677,684.68973 -170.91195,663.3582 -170.91195,663.3582 C -170.91195,663.3582 -170.91195,663.3582 -170.91195,663.3582"
           id="path10495" />
        <path
           style="fill:#fff9f9;fill-opacity:1;stroke:none"
           d="M -170.91195,682.1082 C -170.91195,682.1082 -140.25376,705.94582 -110.93508,720.06495 C -81.6164,734.18409 -43.86433,743.29111 -43.86433,743.29111 C -43.86433,743.29111 -43.86436,743.29113 -43.86441,743.29119 C -43.89072,743.31884 -43.38627,782.12316 -36.14515,813.84856 C -28.90404,845.57396 -12.48616,880.76785 -12.48616,880.76785 C -12.48616,880.76785 -12.4862,880.76785 -12.48628,880.76785 C -12.5243,880.76451 -42.54822,905.353 -62.83737,930.7948 C -83.12653,956.2366 -100.40584,991.01564 -100.40584,991.01564 C -100.40584,991.01564 -100.40596,991.01564 -100.40621,991.01564 C -100.53295,991.01564 -138.43429,982.84077 -170.91204,982.84077 C -203.45329,982.84077 -241.41806,991.01564 -241.41806,991.01564 C -241.41806,991.01564 -241.41805,991.0156 -241.41803,991.01553 C -241.40631,990.9792 -258.69737,956.2366 -278.98653,930.7948 C -299.27568,905.353 -329.33773,880.76785 -329.33773,880.76785 C -329.33773,880.76785 -329.33771,880.76773 -329.33765,880.76749 C -329.30945,880.64393 -312.90571,845.51194 -305.67873,813.84847 C -298.43762,782.1231 -297.95957,743.29111 -297.95957,743.29111 C -297.95957,743.29111 -297.95946,743.29105 -297.95923,743.29095 C -297.84504,743.23595 -260.15018,734.15648 -230.88873,720.06491 C -201.57008,705.94579 -170.91195,682.1082 -170.91195,682.1082 C -170.91195,682.1082 -170.91195,682.1082 -170.91195,682.1082"
           id="path10497" />
        <path
           style="fill:#000000;fill-opacity:1;stroke:none"
           d="M -170.91195,700.8582 C -170.91195,700.8582 -144.47046,727.20188 -120.03822,738.96782 C -95.60599,750.73376 -58.52367,754.98154 -58.52367,754.98154 C -58.52367,754.98154 -58.52371,754.98158 -58.52379,754.98166 C -58.56326,755.02314 -62.63399,792.07934 -56.59972,818.51718 C -50.56546,844.95502 -30.76606,876.59559 -30.76606,876.59559 C -30.76606,876.59559 -30.76612,876.59558 -30.76623,876.59557 C -30.82327,876.59057 -62.33303,896.51211 -79.24066,917.71361 C -96.14829,938.91511 -108.54116,974.12247 -108.54116,974.12247 C -108.54116,974.12247 -108.54126,974.12247 -108.54147,974.12247 C -108.64709,974.12247 -143.84723,961.86017 -170.91203,961.86017 C -198.02974,961.86017 -233.28274,974.12247 -233.28274,974.12247 C -233.28274,974.12247 -233.28272,974.12242 -233.28269,974.12231 C -233.26512,974.06781 -245.67561,938.91511 -262.58324,917.71361 C -279.49087,896.51211 -311.05784,876.59559 -311.05784,876.59559 C -311.05784,876.59559 -311.05781,876.59549 -311.05777,876.59529 C -311.03427,876.49231 -291.24664,844.90333 -285.22416,818.5171 C -279.1899,792.07929 -283.30023,754.98154 -283.30023,754.98154 C -283.30023,754.98154 -283.30013,754.9815 -283.29995,754.98141 C -283.20479,754.93558 -246.17014,750.71076 -221.78561,738.96779 C -197.3534,727.20185 -170.91195,700.8582 -170.91195,700.8582 C -170.91195,700.8582 -170.91195,700.8582 -170.91195,700.8582"
           id="path10499" />
        <path
           style="fill:#ffffff;fill-opacity:1;stroke:none"
           d="M -170.91195,719.6082 C -170.91195,719.6082 -148.68715,748.45793 -129.14137,757.87069 C -109.59558,767.28344 -73.18301,766.67198 -73.18301,766.67198 C -73.18301,766.67198 -73.18307,766.67203 -73.18317,766.67214 C -73.2358,766.72744 -81.8817,802.03553 -77.05429,823.1858 C -72.22689,844.33607 -49.04596,872.42332 -49.04596,872.42332 C -49.04596,872.42332 -49.04603,872.42331 -49.04618,872.4233 C -49.12224,872.41663 -82.11785,887.67122 -95.64396,904.63242 C -109.17006,921.59362 -116.67648,957.2293 -116.67648,957.2293 C -116.67648,957.2293 -116.67656,957.2293 -116.67673,957.2293 C -116.76122,957.2293 -149.26018,940.87957 -170.91201,940.87957 C -192.60618,940.87957 -225.14742,957.2293 -225.14742,957.2293 C -225.14742,957.2293 -225.1474,957.22923 -225.14735,957.22909 C -225.12393,957.15643 -232.65384,921.59362 -246.17994,904.63242 C -259.70605,887.67122 -292.77794,872.42332 -292.77794,872.42332 C -292.77794,872.42332 -292.77792,872.42324 -292.77788,872.42308 C -292.75908,872.3407 -269.58758,844.29472 -264.76959,823.18574 C -259.94219,802.03549 -268.64088,766.67198 -268.64088,766.67198 C -268.64088,766.67198 -268.64081,766.67194 -268.64066,766.67187 C -268.56453,766.63521 -232.19011,767.26504 -212.68248,757.87066 C -193.13671,748.45791 -170.91195,719.6082 -170.91195,719.6082 C -170.91195,719.6082 -170.91195,719.6082 -170.91195,719.6082"
           id="path10501" />
        <path
           style="fill:#000000;fill-opacity:1;stroke:none"
           d="M -170.91195,738.3582 C -170.91195,738.3582 -152.90385,769.71399 -138.24451,776.77355 C -123.58517,783.83312 -87.84236,778.36241 -87.84236,778.36241 C -87.84236,778.36241 -87.84242,778.36248 -87.84255,778.36261 C -87.90834,778.43174 -101.12942,811.99172 -97.50887,827.85442 C -93.88831,843.71713 -67.32586,868.25105 -67.32586,868.25105 C -67.32586,868.25105 -67.32595,868.25104 -67.32614,868.25103 C -67.4212,868.24269 -101.90267,878.83033 -112.04725,891.55123 C -122.19183,904.27213 -124.8118,940.33614 -124.8118,940.33614 C -124.8118,940.33614 -124.81186,940.33614 -124.81199,940.33614 C -124.87536,940.33614 -154.67312,919.89898 -170.912,919.89898 C -187.18262,919.89898 -217.0121,940.33614 -217.0121,940.33614 C -217.0121,940.33614 -217.01207,940.33605 -217.01201,940.33587 C -216.98274,940.24504 -219.63207,904.27213 -229.77665,891.55123 C -239.92123,878.83033 -274.49804,868.25105 -274.49804,868.25105 C -274.49804,868.25105 -274.49803,868.25099 -274.498,868.25087 C -274.4839,868.18909 -247.92851,843.68611 -244.31502,827.85438 C -240.69447,811.99169 -253.98154,778.36241 -253.98154,778.36241 C -253.98154,778.36241 -253.98149,778.36238 -253.98138,778.36233 C -253.92428,778.33483 -218.21007,783.81932 -203.57935,776.77353 C -188.92003,769.71397 -170.91195,738.3582 -170.91195,738.3582 C -170.91195,738.3582 -170.91195,738.3582 -170.91195,738.3582"
           id="path10503" />
        <path
           style="fill:#ffffff;fill-opacity:1;stroke:none;stroke-opacity:1"
           d="M -170.91195,757.1082 C -170.91195,757.1082 -157.12054,790.97004 -147.34765,795.67642 C -137.57475,800.3828 -102.5017,790.05284 -102.5017,790.05284 C -102.5017,790.05284 -102.50177,790.05292 -102.50193,790.05309 C -102.58087,790.13604 -120.37714,821.94791 -117.96344,832.52305 C -115.54973,843.09818 -85.60576,864.07878 -85.60576,864.07878 C -85.60576,864.07878 -85.60587,864.07878 -85.60609,864.07876 C -85.72017,864.06876 -121.68749,869.98944 -128.45054,878.47004 C -135.2136,886.95064 -132.94712,923.44297 -132.94712,923.44297 C -132.94712,923.44297 -132.94716,923.44297 -132.94724,923.44297 C -132.98949,923.44297 -160.08606,898.91838 -170.91198,898.91838 C -181.75906,898.91838 -208.87678,923.44297 -208.87678,923.44297 C -208.87678,923.44297 -208.87675,923.44287 -208.87668,923.44265 C -208.84154,923.33366 -206.6103,886.95064 -213.37336,878.47004 C -220.13641,869.98944 -256.21815,864.07878 -256.21815,864.07878 C -256.21815,864.07878 -256.21814,864.07874 -256.21812,864.07866 C -256.20872,864.03748 -226.26945,843.07751 -223.86046,832.52302 C -221.44675,821.94789 -239.3222,790.05284 -239.3222,790.05284 C -239.3222,790.05284 -239.32217,790.05282 -239.32209,790.05279 C -239.28403,790.03446 -204.23004,800.37359 -194.47622,795.6764 C -184.70334,790.97003 -170.91195,757.1082 -170.91195,757.1082 C -170.91195,757.1082 -170.91195,757.1082 -170.91195,757.1082"
           id="path10505" />
        <path
           style="fill:#000000;fill-opacity:1;stroke:none"
           d="M -170.91195,775.8582 C -170.91195,775.8582 -161.33724,812.2261 -156.45079,814.57928 C -151.56434,816.93247 -117.16104,801.74328 -117.16104,801.74328 C -117.16104,801.74328 -117.16113,801.74337 -117.16131,801.74356 C -117.25341,801.84034 -139.62486,831.9041 -138.41801,837.19167 C -137.21116,842.47924 -103.88565,859.90652 -103.88565,859.90652 C -103.88565,859.90652 -103.88578,859.90651 -103.88604,859.90648 C -104.01914,859.89482 -141.47231,861.14855 -144.85384,865.38885 C -148.23536,869.62915 -141.08244,906.54981 -141.08244,906.54981 C -141.08244,906.54981 -141.08246,906.54981 -141.0825,906.54981 C -141.10363,906.54981 -165.49901,877.93778 -170.91197,877.93778 C -176.33551,877.93778 -200.74146,906.54981 -200.74146,906.54981 C -200.74146,906.54981 -200.74142,906.54968 -200.74134,906.54943 C -200.70035,906.42227 -193.58854,869.62915 -196.97006,865.38885 C -200.35159,861.14855 -237.93825,859.90652 -237.93825,859.90652 C -237.93825,859.90652 -237.93824,859.9065 -237.93823,859.90646 C -237.93353,859.88586 -204.61038,842.4689 -203.40589,837.19165 C -202.19904,831.90409 -224.66286,801.74328 -224.66286,801.74328 C -224.66286,801.74328 -224.66284,801.74327 -224.66281,801.74325 C -224.64377,801.73408 -190.25,816.92787 -185.3731,814.57928 C -180.48666,812.22609 -170.91195,775.8582 -170.91195,775.8582 C -170.91195,775.8582 -170.91195,775.8582 -170.91195,775.8582"
           id="path10507" />
        <path
           style="fill:#ffffff;fill-opacity:1;stroke:none"
           d="M -170.91195,794.6082 C -170.91195,794.6082 -165.55393,833.48215 -165.55393,833.48215 C -165.55393,833.48215 -131.82038,813.43371 -131.82038,813.43371 C -131.82038,813.43371 -131.82048,813.43382 -131.82069,813.43403 C -131.92595,813.54464 -158.87258,841.86029 -158.87258,841.86029 C -158.87258,841.86029 -122.16555,855.73425 -122.16555,855.73425 C -122.16555,855.73425 -122.1657,855.73424 -122.166,855.73421 C -122.3181,855.72088 -161.25713,852.30766 -161.25713,852.30766 C -161.25713,852.30766 -149.21776,889.65664 -149.21776,889.65664 C -149.21776,889.65664 -149.21776,889.65664 -149.21776,889.65664 C -149.21776,889.65664 -170.91195,856.95718 -170.91195,856.95718 C -170.91195,856.95718 -192.60614,889.65664 -192.60614,889.65664 C -192.60614,889.65664 -192.60609,889.6565 -192.606,889.65621 C -192.55916,889.51089 -180.56677,852.30766 -180.56677,852.30766 C -180.56677,852.30766 -219.65835,855.73425 -219.65835,855.73425 C -219.65835,855.73425 -219.65835,855.73425 -219.65835,855.73425 C -219.65835,855.73425 -182.95132,841.86029 -182.95132,841.86029 C -182.95132,841.86029 -210.00352,813.43371 -210.00352,813.43371 C -210.00352,813.43371 -210.00352,813.43371 -210.00352,813.43371 C -210.00352,813.43371 -176.26997,833.48215 -176.26997,833.48215 C -176.26997,833.48215 -170.91195,794.6082 -170.91195,794.6082 C -170.91195,794.6082 -170.91195,794.6082 -170.91195,794.6082"
           id="path10509" />
      </g>
    </g>
    <g
       id="g12540"
       transform="matrix(0.7436063,0,0,0.7436063,638.76061,-387.09934)">
      <path
         style="fill:#000000;fill-opacity:1;stroke:none"
         id="path10555"
         d="M -134.3923,1131.0499 C -134.3923,1131.0499 -95.30072,1149.8754 -56.20915,1168.7009 C -17.11758,1187.5264 21.974,1206.3519 21.974,1206.3519 C 21.974,1206.3519 21.974,1206.3519 21.974,1206.3519 C 21.974,1206.3519 31.62882,1248.6525 41.28364,1290.953 C 50.93846,1333.2535 60.59328,1375.5541 60.59328,1375.5541 C 60.59328,1375.5541 60.59328,1375.5541 60.59328,1375.5541 C 60.59328,1375.5541 33.54107,1409.4765 6.48886,1443.3989 C -20.56334,1477.3213 -47.61555,1511.2437 -47.61555,1511.2437 C -47.61555,1511.2437 -47.61572,1511.2437 -47.61605,1511.2437 C -47.78504,1511.2437 -91.08875,1511.2437 -134.39242,1511.2437 C -177.78076,1511.2437 -221.16905,1511.2437 -221.16905,1511.2437 C -221.16905,1511.2437 -221.16905,1511.2437 -221.16905,1511.2437 C -221.16905,1511.2437 -248.22126,1477.3213 -275.27347,1443.3989 C -302.32567,1409.4765 -329.37788,1375.5541 -329.37788,1375.5541 C -329.37788,1375.5541 -329.37784,1375.5539 -329.37777,1375.5536 C -329.34017,1375.3889 -319.70419,1333.1708 -310.06821,1290.9529 C -300.4134,1248.6524 -290.7586,1206.3519 -290.7586,1206.3519 C -290.7586,1206.3519 -290.75845,1206.3519 -290.75815,1206.3517 C -290.6059,1206.2784 -251.5906,1187.4896 -212.57534,1168.7009 C -173.4838,1149.8754 -134.3923,1131.0499 -134.3923,1131.0499 C -134.3923,1131.0499 -134.3923,1131.0499 -134.3923,1131.0499" />
      <path
         style="fill:#ffffff;fill-opacity:1;stroke:none"
         id="path10557"
         d="M -134.3923,1149.7999 C -134.3923,1149.7999 -99.51742,1171.1315 -65.31229,1187.6038 C -31.10716,1204.0761 7.31466,1218.0424 7.31466,1218.0424 C 7.31466,1218.0424 7.31465,1218.0424 7.31462,1218.0424 C 7.30146,1218.0562 12.3811,1258.6087 20.82907,1295.6216 C 29.27704,1332.6346 42.31338,1371.3818 42.31338,1371.3818 C 42.31338,1371.3818 42.31336,1371.3818 42.31333,1371.3818 C 42.29431,1371.3801 13.75625,1400.6356 -9.91443,1430.3177 C -33.58511,1459.9998 -55.75087,1494.3505 -55.75087,1494.3505 C -55.75087,1494.3505 -55.75101,1494.3505 -55.7513,1494.3505 C -55.89917,1494.3505 -96.50169,1490.2631 -134.39241,1490.2631 C -172.3572,1490.2631 -213.03373,1494.3505 -213.03373,1494.3505 C -213.03373,1494.3505 -213.03372,1494.3505 -213.03371,1494.3504 C -213.02786,1494.3323 -235.19949,1459.9998 -258.87017,1430.3177 C -282.54085,1400.6356 -311.09798,1371.3818 -311.09798,1371.3818 C -311.09798,1371.3818 -311.09795,1371.3817 -311.09789,1371.3814 C -311.06498,1371.2372 -298.04512,1332.5622 -289.61365,1295.6215 C -281.16569,1258.6086 -276.09926,1218.0424 -276.09926,1218.0424 C -276.09926,1218.0424 -276.09913,1218.0423 -276.09887,1218.0422 C -275.96564,1217.978 -237.61056,1204.0439 -203.47221,1187.6037 C -169.26712,1171.1314 -134.3923,1149.7999 -134.3923,1149.7999 C -134.3923,1149.7999 -134.3923,1149.7999 -134.3923,1149.7999" />
      <path
         style="fill:#000000;fill-opacity:1;stroke:none;stroke-opacity:1"
         id="path10559"
         d="M -134.3923,1168.5499 C -134.3923,1168.5499 -103.73411,1192.3875 -74.41543,1206.5067 C -45.09675,1220.6258 -7.34468,1229.7328 -7.34468,1229.7328 C -7.34468,1229.7328 -7.34471,1229.7328 -7.34476,1229.7329 C -7.37107,1229.7605 -6.86662,1268.5649 0.3745,1300.2903 C 7.61561,1332.0157 24.03349,1367.2096 24.03349,1367.2096 C 24.03349,1367.2096 24.03345,1367.2096 24.03337,1367.2096 C 23.99535,1367.2062 -6.02857,1391.7947 -26.31772,1417.2365 C -46.60688,1442.6783 -63.88619,1477.4573 -63.88619,1477.4573 C -63.88619,1477.4573 -63.88631,1477.4573 -63.88656,1477.4573 C -64.0133,1477.4573 -101.91464,1469.2825 -134.39239,1469.2825 C -166.93364,1469.2825 -204.89841,1477.4573 -204.89841,1477.4573 C -204.89841,1477.4573 -204.8984,1477.4573 -204.89838,1477.4572 C -204.88666,1477.4209 -222.17772,1442.6783 -242.46688,1417.2365 C -262.75603,1391.7947 -292.81808,1367.2096 -292.81808,1367.2096 C -292.81808,1367.2096 -292.81806,1367.2094 -292.818,1367.2092 C -292.7898,1367.0856 -276.38606,1331.9536 -269.15908,1300.2902 C -261.91797,1268.5648 -261.43992,1229.7328 -261.43992,1229.7328 C -261.43992,1229.7328 -261.43981,1229.7328 -261.43958,1229.7326 C -261.32539,1229.6777 -223.63053,1220.5982 -194.36908,1206.5066 C -165.05043,1192.3875 -134.3923,1168.5499 -134.3923,1168.5499 C -134.3923,1168.5499 -134.3923,1168.5499 -134.3923,1168.5499" />
      <path
         style="fill:#ffffff;fill-opacity:1;stroke:none"
         id="path10561"
         d="M -134.3923,1187.2999 C -134.3923,1187.2999 -107.95081,1213.6436 -83.51857,1225.4095 C -59.08634,1237.1755 -22.00402,1241.4232 -22.00402,1241.4232 C -22.00402,1241.4232 -22.00406,1241.4233 -22.00414,1241.4234 C -22.04361,1241.4648 -26.11434,1278.521 -20.08007,1304.9589 C -14.04581,1331.3967 5.75359,1363.0373 5.75359,1363.0373 C 5.75359,1363.0373 5.75353,1363.0373 5.75342,1363.0373 C 5.69638,1363.0323 -25.81338,1382.9538 -42.72101,1404.1553 C -59.62864,1425.3568 -72.02151,1460.5642 -72.02151,1460.5642 C -72.02151,1460.5642 -72.02161,1460.5642 -72.02182,1460.5642 C -72.12744,1460.5642 -107.32758,1448.3019 -134.39238,1448.3019 C -161.51009,1448.3019 -196.76309,1460.5642 -196.76309,1460.5642 C -196.76309,1460.5642 -196.76307,1460.5641 -196.76304,1460.564 C -196.74547,1460.5095 -209.15596,1425.3568 -226.06359,1404.1553 C -242.97122,1382.9538 -274.53819,1363.0373 -274.53819,1363.0373 C -274.53819,1363.0373 -274.53816,1363.0372 -274.53812,1363.037 C -274.51462,1362.934 -254.72699,1331.345 -248.70451,1304.9588 C -242.67025,1278.521 -246.78058,1241.4232 -246.78058,1241.4232 C -246.78058,1241.4232 -246.78048,1241.4232 -246.7803,1241.4231 C -246.68514,1241.3773 -209.65049,1237.1525 -185.26596,1225.4095 C -160.83375,1213.6436 -134.3923,1187.2999 -134.3923,1187.2999 C -134.3923,1187.2999 -134.3923,1187.2999 -134.3923,1187.2999" />
      <path
         style="fill:#000000;fill-opacity:1;stroke:none;stroke-opacity:1"
         id="path10563"
         d="M -134.3923,1206.0499 C -134.3923,1206.0499 -112.1675,1234.8996 -92.62172,1244.3124 C -73.07593,1253.7251 -36.66336,1253.1137 -36.66336,1253.1137 C -36.66336,1253.1137 -36.66342,1253.1137 -36.66352,1253.1138 C -36.71615,1253.1691 -45.36205,1288.4772 -40.53464,1309.6275 C -35.70724,1330.7778 -12.52631,1358.865 -12.52631,1358.865 C -12.52631,1358.865 -12.52638,1358.865 -12.52653,1358.865 C -12.60259,1358.8583 -45.5982,1374.1129 -59.12431,1391.0741 C -72.65041,1408.0353 -80.15683,1443.671 -80.15683,1443.671 C -80.15683,1443.671 -80.15691,1443.671 -80.15708,1443.671 C -80.24157,1443.671 -112.74053,1427.3213 -134.39236,1427.3213 C -156.08653,1427.3213 -188.62777,1443.671 -188.62777,1443.671 C -188.62777,1443.671 -188.62775,1443.6709 -188.6277,1443.6708 C -188.60428,1443.5981 -196.13419,1408.0353 -209.66029,1391.0741 C -223.1864,1374.1129 -256.25829,1358.865 -256.25829,1358.865 C -256.25829,1358.865 -256.25827,1358.8649 -256.25823,1358.8648 C -256.23943,1358.7824 -233.06793,1330.7364 -228.24994,1309.6274 C -223.42254,1288.4772 -232.12123,1253.1137 -232.12123,1253.1137 C -232.12123,1253.1137 -232.12116,1253.1136 -232.12101,1253.1136 C -232.04488,1253.0769 -195.67046,1253.7067 -176.16283,1244.3124 C -156.61706,1234.8996 -134.3923,1206.0499 -134.3923,1206.0499 C -134.3923,1206.0499 -134.3923,1206.0499 -134.3923,1206.0499" />
      <path
         style="fill:#ffffff;fill-opacity:1;stroke:none"
         id="path10565"
         d="M -134.3923,1224.7999 C -134.3923,1224.7999 -116.3842,1256.1557 -101.72486,1263.2153 C -87.06552,1270.2748 -51.32271,1264.8041 -51.32271,1264.8041 C -51.32271,1264.8041 -51.32277,1264.8042 -51.3229,1264.8043 C -51.38869,1264.8734 -64.60977,1298.4334 -60.98922,1314.2961 C -57.36866,1330.1588 -30.80621,1354.6928 -30.80621,1354.6928 C -30.80621,1354.6928 -30.8063,1354.6927 -30.80649,1354.6927 C -30.90155,1354.6844 -65.38302,1365.272 -75.5276,1377.9929 C -85.67218,1390.7138 -88.29215,1426.7778 -88.29215,1426.7778 C -88.29215,1426.7778 -88.29221,1426.7778 -88.29234,1426.7778 C -88.35571,1426.7778 -118.15347,1406.3407 -134.39235,1406.3407 C -150.66297,1406.3407 -180.49245,1426.7778 -180.49245,1426.7778 C -180.49245,1426.7778 -180.49242,1426.7778 -180.49236,1426.7776 C -180.46309,1426.6867 -183.11242,1390.7138 -193.257,1377.9929 C -203.40158,1365.272 -237.97839,1354.6928 -237.97839,1354.6928 C -237.97839,1354.6928 -237.97838,1354.6927 -237.97835,1354.6926 C -237.96425,1354.6308 -211.40886,1330.1278 -207.79537,1314.2961 C -204.17482,1298.4334 -217.46189,1264.8041 -217.46189,1264.8041 C -217.46189,1264.8041 -217.46184,1264.8041 -217.46173,1264.804 C -217.40463,1264.7765 -181.69042,1270.261 -167.0597,1263.2152 C -152.40038,1256.1557 -134.3923,1224.7999 -134.3923,1224.7999 C -134.3923,1224.7999 -134.3923,1224.7999 -134.3923,1224.7999" />
      <path
         style="fill:#000000;fill-opacity:1;stroke:none"
         id="path10567"
         d="M -134.3923,1243.5499 C -134.3923,1243.5499 -120.60089,1277.4117 -110.828,1282.1181 C -101.0551,1286.8245 -65.98205,1276.4945 -65.98205,1276.4945 C -65.98205,1276.4945 -65.98212,1276.4946 -65.98228,1276.4948 C -66.06122,1276.5777 -83.85749,1308.3896 -81.44379,1318.9648 C -79.03008,1329.5399 -49.08611,1350.5205 -49.08611,1350.5205 C -49.08611,1350.5205 -49.08622,1350.5205 -49.08644,1350.5205 C -49.20052,1350.5105 -85.16784,1356.4311 -91.93089,1364.9117 C -98.69395,1373.3923 -96.42747,1409.8847 -96.42747,1409.8847 C -96.42747,1409.8847 -96.42751,1409.8847 -96.42759,1409.8847 C -96.46984,1409.8847 -123.56641,1385.3601 -134.39233,1385.3601 C -145.23941,1385.3601 -172.35713,1409.8847 -172.35713,1409.8847 C -172.35713,1409.8847 -172.3571,1409.8846 -172.35703,1409.8844 C -172.32189,1409.7754 -170.09065,1373.3923 -176.85371,1364.9117 C -183.61676,1356.4311 -219.6985,1350.5205 -219.6985,1350.5205 C -219.6985,1350.5205 -219.69849,1350.5204 -219.69847,1350.5204 C -219.68907,1350.4792 -189.7498,1329.5192 -187.34081,1318.9647 C -184.9271,1308.3896 -202.80255,1276.4945 -202.80255,1276.4945 C -202.80255,1276.4945 -202.80252,1276.4945 -202.80244,1276.4945 C -202.76438,1276.4762 -167.71039,1286.8153 -157.95657,1282.1181 C -148.18369,1277.4117 -134.3923,1243.5499 -134.3923,1243.5499 C -134.3923,1243.5499 -134.3923,1243.5499 -134.3923,1243.5499" />
      <path
         style="fill:#ffffff;fill-opacity:1;stroke:none"
         id="path10569"
         d="M -134.3923,1262.2999 C -134.3923,1262.2999 -124.81759,1298.6678 -119.93114,1301.021 C -115.04469,1303.3742 -80.64139,1288.185 -80.64139,1288.185 C -80.64139,1288.185 -80.64148,1288.1851 -80.64166,1288.1853 C -80.73376,1288.282 -103.10521,1318.3458 -101.89836,1323.6334 C -100.69151,1328.9209 -67.366,1346.3482 -67.366,1346.3482 C -67.366,1346.3482 -67.36613,1346.3482 -67.36639,1346.3482 C -67.49949,1346.3365 -104.95266,1347.5903 -108.33419,1351.8306 C -111.71571,1356.0709 -104.56279,1392.9915 -104.56279,1392.9915 C -104.56279,1392.9915 -104.56281,1392.9915 -104.56285,1392.9915 C -104.58398,1392.9915 -128.97936,1364.3795 -134.39232,1364.3795 C -139.81586,1364.3795 -164.22181,1392.9915 -164.22181,1392.9915 C -164.22181,1392.9915 -164.22177,1392.9914 -164.22169,1392.9911 C -164.1807,1392.864 -157.06889,1356.0709 -160.45041,1351.8306 C -163.83194,1347.5903 -201.4186,1346.3482 -201.4186,1346.3482 C -201.4186,1346.3482 -201.41859,1346.3482 -201.41858,1346.3482 C -201.41388,1346.3276 -168.09073,1328.9106 -166.88624,1323.6334 C -165.67939,1318.3458 -188.14321,1288.185 -188.14321,1288.185 C -188.14321,1288.185 -188.14319,1288.185 -188.14316,1288.185 C -188.12412,1288.1758 -153.73035,1303.3696 -148.85345,1301.021 C -143.96701,1298.6678 -134.3923,1262.2999 -134.3923,1262.2999 C -134.3923,1262.2999 -134.3923,1262.2999 -134.3923,1262.2999" />
      <path
         style="fill:#000000;fill-opacity:1;stroke:none"
         id="path10571"
         d="M -134.3923,1281.0499 C -134.3923,1281.0499 -129.03428,1319.9239 -129.03428,1319.9239 C -129.03428,1319.9239 -95.30073,1299.8754 -95.30073,1299.8754 C -95.30073,1299.8754 -95.30083,1299.8755 -95.30104,1299.8757 C -95.4063,1299.9863 -122.35293,1328.302 -122.35293,1328.302 C -122.35293,1328.302 -85.6459,1342.176 -85.6459,1342.176 C -85.6459,1342.176 -85.64605,1342.1759 -85.64635,1342.1759 C -85.79845,1342.1626 -124.73748,1338.7494 -124.73748,1338.7494 C -124.73748,1338.7494 -112.69811,1376.0983 -112.69811,1376.0983 C -112.69811,1376.0983 -112.69811,1376.0983 -112.69811,1376.0983 C -112.69811,1376.0983 -134.3923,1343.3989 -134.3923,1343.3989 C -134.3923,1343.3989 -156.08649,1376.0983 -156.08649,1376.0983 C -156.08649,1376.0983 -156.08644,1376.0982 -156.08635,1376.0979 C -156.03951,1375.9526 -144.04712,1338.7494 -144.04712,1338.7494 C -144.04712,1338.7494 -183.1387,1342.176 -183.1387,1342.176 C -183.1387,1342.176 -183.1387,1342.176 -183.1387,1342.176 C -183.1387,1342.176 -146.43167,1328.302 -146.43167,1328.302 C -146.43167,1328.302 -173.48387,1299.8754 -173.48387,1299.8754 C -173.48387,1299.8754 -173.48387,1299.8754 -173.48387,1299.8754 C -173.48387,1299.8754 -139.75032,1319.9239 -139.75032,1319.9239 C -139.75032,1319.9239 -134.3923,1281.0499 -134.3923,1281.0499 C -134.3923,1281.0499 -134.3923,1281.0499 -134.3923,1281.0499" />
    </g>
  </g>
</svg>
