<?xml version="1.0" encoding="UTF-8" standalone="no"?>
<svg
   xmlns:dc="http://purl.org/dc/elements/1.1/"
   xmlns:cc="http://web.resource.org/cc/"
   xmlns:rdf="http://www.w3.org/1999/02/22-rdf-syntax-ns#"
   xmlns:svg="http://www.w3.org/2000/svg"
   xmlns="http://www.w3.org/2000/svg"
   xmlns:xlink="http://www.w3.org/1999/xlink"
   xmlns:sodipodi="http://sodipodi.sourceforge.net/DTD/sodipodi-0.dtd"
   xmlns:inkscape="http://www.inkscape.org/namespaces/inkscape"
   width="590"
   xlink:xlink="xlink"
   height="590"
   id="svg3328"
   sodipodi:version="0.32"
   inkscape:version="0.45"
   sodipodi:docname="mom_kolam01.svg"
   sodipodi:docbase="/media/oldubu/home/tamarind/0_Code_0/play-svg/scripts/images"
   inkscape:output_extension="org.inkscape.output.svg.inkscape"
   inkscape:export-filename="/media/oldubu/home/tamarind/0_Code_0/play-svg/scripts/images/mom_kolam01.png"
   inkscape:export-xdpi="90"
   inkscape:export-ydpi="90"
   sodipodi:modified="true">
  <metadata
     id="metadata3336">
    <rdf:RDF>
      <cc:Work
         rdf:about="">
        <dc:format>image/svg+xml</dc:format>
        <dc:type
           rdf:resource="http://purl.org/dc/dcmitype/StillImage" />
      </cc:Work>
    </rdf:RDF>
  </metadata>
  <sodipodi:namedview
     inkscape:window-height="693"
     inkscape:window-width="1024"
     inkscape:pageshadow="2"
     inkscape:pageopacity="0.0"
     guidetolerance="10.0"
     gridtolerance="10.0"
     objecttolerance="10.0"
     borderopacity="1.0"
     bordercolor="#666666"
     pagecolor="#ffffff"
     id="base"
     inkscape:zoom="0.84883451"
     inkscape:cx="300.66106"
     inkscape:cy="337.91331"
     inkscape:window-x="0"
     inkscape:window-y="25"
     inkscape:current-layer="g3221" />
  <defs
     id="defs3330">
    <linearGradient
       id="linearGradient3213">
      <stop
         style="stop-color:#65be2b;stop-opacity:1;"
         offset="0"
         id="stop3215" />
      <stop
         style="stop-color:#4b8526;stop-opacity:1;"
         offset="1"
         id="stop3217" />
    </linearGradient>
    <filter
       inkscape:collect="always"
       id="filter8921">
      <feGaussianBlur
         inkscape:collect="always"
         stdDeviation="2.3660137"
         id="feGaussianBlur8923" />
    </filter>
    <clipPath
       clipPathUnits="userSpaceOnUse"
       id="clipPath2237">
      <path
         sodipodi:type="arc"
         style="opacity:1;color:#000000;fill:none;fill-opacity:1;fill-rule:nonzero;stroke:#65be2b;stroke-width:4;stroke-linecap:butt;stroke-linejoin:miter;marker:none;marker-start:none;marker-mid:none;marker-end:none;stroke-miterlimit:4;stroke-dasharray:none;stroke-dashoffset:0;stroke-opacity:1;visibility:visible;display:inline;overflow:visible;enable-background:accumulate"
         id="path2239"
         sodipodi:cx="375.29092"
         sodipodi:cy="553.26392"
         sodipodi:rx="321.12521"
         sodipodi:ry="321.12521"
         d="M 696.41614 553.26392 A 321.12521 321.12521 0 1 1  54.16571,553.26392 A 321.12521 321.12521 0 1 1  696.41614 553.26392 z" />
    </clipPath>
    <linearGradient
       id="linearGradient4306">
      <stop
         style="stop-color:#ba0000;stop-opacity:1;"
         offset="0"
         id="stop4308" />
      <stop
         style="stop-color:#8b08b9;stop-opacity:1;"
         offset="1"
         id="stop4310" />
    </linearGradient>
    <radialGradient
       inkscape:collect="always"
       xlink:href="#linearGradient4306"
       id="radialGradient5456"
       cx="379.07516"
       cy="563.07996"
       fx="379.07516"
       fy="563.07996"
       r="323.12521"
       gradientUnits="userSpaceOnUse"
       gradientTransform="matrix(1.2066148,0,0,1.2066148,-78.322524,-116.34063)" />
  </defs>
  <g
     id="g3221"
     transform="matrix(0.8122384,0,0,0.8122384,-2.0378965,-124.64975)">
    <rect
       transform="translate(-3.2436829,-36.299057)"
       clip-path="url(#clipPath2237)"
       y="188.89056"
       x="18.148443"
       height="705.93103"
       width="715.53558"
       id="rect3327"
       style="color:#000000;fill:url(#radialGradient5456);fill-opacity:1.0;fill-rule:nonzero;stroke:none;stroke-width:12;stroke-linecap:butt;stroke-linejoin:miter;marker:none;marker-start:none;marker-mid:none;marker-end:none;stroke-miterlimit:4;stroke-dasharray:none;stroke-dashoffset:0;stroke-opacity:1;visibility:visible;display:inline;overflow:visible;enable-background:accumulate" />
    <g
       transform="translate(6.3329468,39.533157)"
       id="g10865">
      <g
         id="g5862"
         style="fill:none;stroke:#425d33;stroke-width:14;stroke-miterlimit:4;stroke-dasharray:none;stroke-opacity:1">
        <path
           id="path5139"
           d="M 340.4579,486.84391 L 368.01941,459.28239 L 395.58093,486.84391 L 368.01941,514.40543 L 340.4579,486.84391 z "
           style="fill:none;stroke:#425d33;stroke-width:14;stroke-miterlimit:4;stroke-dasharray:none;stroke-opacity:1" />
        <path
           id="path5145"
           d="M 367.53712,679.6163 C 422.66015,734.73933 312.41408,734.73933 367.53712,679.6163 z "
           style="fill:none;stroke:#425d33;stroke-width:14;stroke-miterlimit:4;stroke-dasharray:none;stroke-opacity:1" />
        <path
           id="path5157"
           d="M 368.02519,569.47143 C 347.35406,548.8003 347.35406,535.01953 368.02519,514.3484 C 388.69632,535.01953 388.69632,548.8003 368.02519,569.47143 z "
           style="fill:none;stroke:#425d33;stroke-width:14;stroke-miterlimit:4;stroke-dasharray:none;stroke-opacity:1" />
        <path
           id="path19633"
           d="M 368.12012,459.26432 C 347.44898,438.59318 347.44898,424.81242 368.12012,404.14129 C 388.79126,424.81242 388.79126,438.59318 368.12012,459.26432 z "
           style="fill:none;stroke:#425d33;stroke-width:14;stroke-miterlimit:4;stroke-dasharray:none;stroke-opacity:1" />
        <path
           id="path19639"
           d="M 340.49005,376.72887 L 368.05157,349.16735 L 395.61309,376.72887 L 368.05157,404.29039 L 340.49005,376.72887 z "
           style="fill:none;stroke:#425d33;stroke-width:14;stroke-miterlimit:4;stroke-dasharray:none;stroke-opacity:1" />
        <path
           id="path19645"
           d="M 340.13589,597.07288 L 367.6974,569.51136 L 395.25892,597.07288 L 367.6974,624.63439 L 340.13589,597.07288 z "
           style="fill:none;stroke:#425d33;stroke-width:14;stroke-miterlimit:4;stroke-dasharray:none;stroke-opacity:1" />
        <path
           id="path19663"
           d="M 367.69739,679.58084 C 347.02626,658.90971 347.02626,645.12894 367.69739,624.45781 C 388.36854,645.12894 388.36854,658.90971 367.69739,679.58084 z "
           style="fill:none;stroke:#425d33;stroke-width:14;stroke-miterlimit:4;stroke-dasharray:none;stroke-opacity:1" />
        <path
           id="path19687"
           d="M 395.25002,597.14117 C 415.92116,576.47004 429.70192,576.47004 450.37306,597.14117 C 429.70192,617.81231 415.92116,617.81231 395.25002,597.14117 z "
           style="fill:none;stroke:#425d33;stroke-width:14;stroke-miterlimit:4;stroke-dasharray:none;stroke-opacity:1" />
        <path
           id="path19693"
           d="M 340.19113,597.14117 C 319.51999,617.81231 305.73923,617.81231 285.0681,597.14117 C 305.73923,576.47004 319.51999,576.47004 340.19113,597.14117 z "
           style="fill:none;stroke:#425d33;stroke-width:14;stroke-miterlimit:4;stroke-dasharray:none;stroke-opacity:1" />
        <path
           id="path19711"
           d="M 340.75617,376.63609 C 320.08503,397.30722 306.30428,397.30722 285.63314,376.63609 C 306.30428,355.96495 320.08503,355.96495 340.75617,376.63609 z "
           style="fill:none;stroke:#425d33;stroke-width:14;stroke-miterlimit:4;stroke-dasharray:none;stroke-opacity:1" />
        <path
           id="path19717"
           d="M 450.93808,376.9186 C 430.26695,397.58974 416.48619,397.58974 395.81505,376.9186 C 416.48619,356.24746 430.26695,356.24746 450.93808,376.9186 z "
           style="fill:none;stroke:#425d33;stroke-width:14;stroke-miterlimit:4;stroke-dasharray:none;stroke-opacity:1" />
        <path
           id="path19723"
           d="M 367.86183,348.96539 C 347.1907,328.29425 347.1907,314.51349 367.86183,293.84235 C 388.53298,314.51349 388.53298,328.29425 367.86183,348.96539 z "
           style="fill:none;stroke:#425d33;stroke-width:14;stroke-miterlimit:4;stroke-dasharray:none;stroke-opacity:1" />
        <path
           id="path19747"
           d="M 367.72058,293.67954 C 312.59754,238.5565 422.84361,238.5565 367.72058,293.67954 z "
           style="fill:none;stroke:#425d33;stroke-width:14;stroke-miterlimit:4;stroke-dasharray:none;stroke-opacity:1" />
        <path
           id="path2442"
           d="M 393.67934,488.05224 C 414.35048,467.3811 428.13124,467.3811 448.80237,488.05224 C 428.13124,508.72338 414.35048,508.72338 393.67934,488.05224 z "
           style="fill:none;stroke:#425d33;stroke-width:14;stroke-miterlimit:4;stroke-dasharray:none;stroke-opacity:1" />
        <path
           id="path2444"
           d="M 476.21479,460.42217 L 503.77631,487.98369 L 476.21479,515.54521 L 448.65327,487.98369 L 476.21479,460.42217 z "
           style="fill:none;stroke:#425d33;stroke-width:14;stroke-miterlimit:4;stroke-dasharray:none;stroke-opacity:1" />
        <path
           id="path2446"
           d="M 476.30757,460.68829 C 455.63644,440.01715 455.63644,426.2364 476.30757,405.56526 C 496.97871,426.2364 496.97871,440.01715 476.30757,460.68829 z "
           style="fill:none;stroke:#425d33;stroke-width:14;stroke-miterlimit:4;stroke-dasharray:none;stroke-opacity:1" />
        <path
           id="path2448"
           d="M 476.02506,570.8702 C 455.35392,550.19907 455.35392,536.41831 476.02506,515.74717 C 496.6962,536.41831 496.6962,550.19907 476.02506,570.8702 z "
           style="fill:none;stroke:#425d33;stroke-width:14;stroke-miterlimit:4;stroke-dasharray:none;stroke-opacity:1" />
        <path
           id="path2450"
           d="M 503.97827,487.79395 C 524.64941,467.12282 538.43017,467.12282 559.10131,487.79395 C 538.43017,508.4651 524.64941,508.4651 503.97827,487.79395 z "
           style="fill:none;stroke:#425d33;stroke-width:14;stroke-miterlimit:4;stroke-dasharray:none;stroke-opacity:1" />
        <path
           id="path2454"
           d="M 559.26412,487.6527 C 614.38716,432.52966 614.38716,542.77573 559.26412,487.6527 z "
           style="fill:none;stroke:#425d33;stroke-width:14;stroke-miterlimit:4;stroke-dasharray:none;stroke-opacity:1" />
        <path
           id="path2476"
           d="M 337.74926,485.24353 C 317.07812,505.91467 303.29736,505.91467 282.62623,485.24353 C 303.29736,464.57239 317.07812,464.57239 337.74926,485.24353 z "
           style="fill:none;stroke:#425d33;stroke-width:14;stroke-miterlimit:4;stroke-dasharray:none;stroke-opacity:1" />
        <path
           id="path2478"
           d="M 255.21381,512.8736 L 227.65229,485.31208 L 255.21381,457.75056 L 282.77533,485.31208 L 255.21381,512.8736 z "
           style="fill:none;stroke:#425d33;stroke-width:14;stroke-miterlimit:4;stroke-dasharray:none;stroke-opacity:1" />
        <path
           id="path2480"
           d="M 255.12103,512.60748 C 275.79216,533.27862 275.79216,547.05937 255.12103,567.73051 C 234.44989,547.05937 234.44989,533.27862 255.12103,512.60748 z "
           style="fill:none;stroke:#425d33;stroke-width:14;stroke-miterlimit:4;stroke-dasharray:none;stroke-opacity:1" />
        <path
           id="path2482"
           d="M 255.40354,402.42557 C 276.07468,423.0967 276.07468,436.87746 255.40354,457.5486 C 234.7324,436.87746 234.7324,423.0967 255.40354,402.42557 z "
           style="fill:none;stroke:#425d33;stroke-width:14;stroke-miterlimit:4;stroke-dasharray:none;stroke-opacity:1" />
        <path
           id="path2484"
           d="M 227.45033,485.50182 C 206.77919,506.17295 192.99843,506.17295 172.32729,485.50182 C 192.99843,464.83067 206.77919,464.83067 227.45033,485.50182 z "
           style="fill:none;stroke:#425d33;stroke-width:14;stroke-miterlimit:4;stroke-dasharray:none;stroke-opacity:1" />
        <path
           id="path2488"
           d="M 172.16448,485.64307 C 117.04144,540.76611 117.04144,430.52004 172.16448,485.64307 z "
           style="fill:none;stroke:#425d33;stroke-width:14;stroke-miterlimit:4;stroke-dasharray:none;stroke-opacity:1" />
      </g>
      <g
         id="g7888"
         style="fill:none;stroke:#65be2b;stroke-width:4;stroke-miterlimit:4;stroke-dasharray:none;stroke-opacity:1;filter:url(#filter8921)">
        <path
           id="path7890"
           d="M 340.4579,486.84391 L 368.01941,459.28239 L 395.58093,486.84391 L 368.01941,514.40543 L 340.4579,486.84391 z "
           style="fill:none;stroke:#65be2b;stroke-width:4;stroke-miterlimit:4;stroke-dasharray:none;stroke-opacity:1" />
        <path
           id="path7892"
           d="M 367.53712,679.6163 C 422.66015,734.73933 312.41408,734.73933 367.53712,679.6163 z "
           style="fill:none;stroke:#65be2b;stroke-width:4;stroke-miterlimit:4;stroke-dasharray:none;stroke-opacity:1" />
        <path
           id="path7894"
           d="M 368.02519,569.47143 C 347.35406,548.8003 347.35406,535.01953 368.02519,514.3484 C 388.69632,535.01953 388.69632,548.8003 368.02519,569.47143 z "
           style="fill:none;stroke:#65be2b;stroke-width:4;stroke-miterlimit:4;stroke-dasharray:none;stroke-opacity:1" />
        <path
           id="path7896"
           d="M 368.12012,459.26432 C 347.44898,438.59318 347.44898,424.81242 368.12012,404.14129 C 388.79126,424.81242 388.79126,438.59318 368.12012,459.26432 z "
           style="fill:none;stroke:#65be2b;stroke-width:4;stroke-miterlimit:4;stroke-dasharray:none;stroke-opacity:1" />
        <path
           id="path7898"
           d="M 340.49005,376.72887 L 368.05157,349.16735 L 395.61309,376.72887 L 368.05157,404.29039 L 340.49005,376.72887 z "
           style="fill:none;stroke:#65be2b;stroke-width:4;stroke-miterlimit:4;stroke-dasharray:none;stroke-opacity:1" />
        <path
           id="path7900"
           d="M 340.13589,597.07288 L 367.6974,569.51136 L 395.25892,597.07288 L 367.6974,624.63439 L 340.13589,597.07288 z "
           style="fill:none;stroke:#65be2b;stroke-width:4;stroke-miterlimit:4;stroke-dasharray:none;stroke-opacity:1" />
        <path
           id="path7902"
           d="M 367.69739,679.58084 C 347.02626,658.90971 347.02626,645.12894 367.69739,624.45781 C 388.36854,645.12894 388.36854,658.90971 367.69739,679.58084 z "
           style="fill:none;stroke:#65be2b;stroke-width:4;stroke-miterlimit:4;stroke-dasharray:none;stroke-opacity:1" />
        <path
           id="path7904"
           d="M 395.25002,597.14117 C 415.92116,576.47004 429.70192,576.47004 450.37306,597.14117 C 429.70192,617.81231 415.92116,617.81231 395.25002,597.14117 z "
           style="fill:none;stroke:#65be2b;stroke-width:4;stroke-miterlimit:4;stroke-dasharray:none;stroke-opacity:1" />
        <path
           id="path7906"
           d="M 340.19113,597.14117 C 319.51999,617.81231 305.73923,617.81231 285.0681,597.14117 C 305.73923,576.47004 319.51999,576.47004 340.19113,597.14117 z "
           style="fill:none;stroke:#65be2b;stroke-width:4;stroke-miterlimit:4;stroke-dasharray:none;stroke-opacity:1" />
        <path
           id="path7908"
           d="M 340.75617,376.63609 C 320.08503,397.30722 306.30428,397.30722 285.63314,376.63609 C 306.30428,355.96495 320.08503,355.96495 340.75617,376.63609 z "
           style="fill:none;stroke:#65be2b;stroke-width:4;stroke-miterlimit:4;stroke-dasharray:none;stroke-opacity:1" />
        <path
           id="path7910"
           d="M 450.93808,376.9186 C 430.26695,397.58974 416.48619,397.58974 395.81505,376.9186 C 416.48619,356.24746 430.26695,356.24746 450.93808,376.9186 z "
           style="fill:none;stroke:#65be2b;stroke-width:4;stroke-miterlimit:4;stroke-dasharray:none;stroke-opacity:1" />
        <path
           id="path7912"
           d="M 367.86183,348.96539 C 347.1907,328.29425 347.1907,314.51349 367.86183,293.84235 C 388.53298,314.51349 388.53298,328.29425 367.86183,348.96539 z "
           style="fill:none;stroke:#65be2b;stroke-width:4;stroke-miterlimit:4;stroke-dasharray:none;stroke-opacity:1" />
        <path
           id="path7914"
           d="M 367.72058,293.67954 C 312.59754,238.5565 422.84361,238.5565 367.72058,293.67954 z "
           style="fill:none;stroke:#65be2b;stroke-width:4;stroke-miterlimit:4;stroke-dasharray:none;stroke-opacity:1" />
        <path
           id="path7916"
           d="M 393.67934,488.05224 C 414.35048,467.3811 428.13124,467.3811 448.80237,488.05224 C 428.13124,508.72338 414.35048,508.72338 393.67934,488.05224 z "
           style="fill:none;stroke:#65be2b;stroke-width:4;stroke-miterlimit:4;stroke-dasharray:none;stroke-opacity:1" />
        <path
           id="path7918"
           d="M 476.21479,460.42217 L 503.77631,487.98369 L 476.21479,515.54521 L 448.65327,487.98369 L 476.21479,460.42217 z "
           style="fill:none;stroke:#65be2b;stroke-width:4;stroke-miterlimit:4;stroke-dasharray:none;stroke-opacity:1" />
        <path
           id="path7920"
           d="M 476.30757,460.68829 C 455.63644,440.01715 455.63644,426.2364 476.30757,405.56526 C 496.97871,426.2364 496.97871,440.01715 476.30757,460.68829 z "
           style="fill:none;stroke:#65be2b;stroke-width:4;stroke-miterlimit:4;stroke-dasharray:none;stroke-opacity:1" />
        <path
           id="path7922"
           d="M 476.02506,570.8702 C 455.35392,550.19907 455.35392,536.41831 476.02506,515.74717 C 496.6962,536.41831 496.6962,550.19907 476.02506,570.8702 z "
           style="fill:none;stroke:#65be2b;stroke-width:4;stroke-miterlimit:4;stroke-dasharray:none;stroke-opacity:1" />
        <path
           id="path7924"
           d="M 503.97827,487.79395 C 524.64941,467.12282 538.43017,467.12282 559.10131,487.79395 C 538.43017,508.4651 524.64941,508.4651 503.97827,487.79395 z "
           style="fill:none;stroke:#65be2b;stroke-width:4;stroke-miterlimit:4;stroke-dasharray:none;stroke-opacity:1" />
        <path
           id="path7926"
           d="M 559.26412,487.6527 C 614.38716,432.52966 614.38716,542.77573 559.26412,487.6527 z "
           style="fill:none;stroke:#65be2b;stroke-width:4;stroke-miterlimit:4;stroke-dasharray:none;stroke-opacity:1" />
        <path
           id="path7928"
           d="M 337.74926,485.24353 C 317.07812,505.91467 303.29736,505.91467 282.62623,485.24353 C 303.29736,464.57239 317.07812,464.57239 337.74926,485.24353 z "
           style="fill:none;stroke:#65be2b;stroke-width:4;stroke-miterlimit:4;stroke-dasharray:none;stroke-opacity:1" />
        <path
           id="path7930"
           d="M 255.21381,512.8736 L 227.65229,485.31208 L 255.21381,457.75056 L 282.77533,485.31208 L 255.21381,512.8736 z "
           style="fill:none;stroke:#65be2b;stroke-width:4;stroke-miterlimit:4;stroke-dasharray:none;stroke-opacity:1" />
        <path
           id="path7932"
           d="M 255.12103,512.60748 C 275.79216,533.27862 275.79216,547.05937 255.12103,567.73051 C 234.44989,547.05937 234.44989,533.27862 255.12103,512.60748 z "
           style="fill:none;stroke:#65be2b;stroke-width:4;stroke-miterlimit:4;stroke-dasharray:none;stroke-opacity:1" />
        <path
           id="path7934"
           d="M 255.40354,402.42557 C 276.07468,423.0967 276.07468,436.87746 255.40354,457.5486 C 234.7324,436.87746 234.7324,423.0967 255.40354,402.42557 z "
           style="fill:none;stroke:#65be2b;stroke-width:4;stroke-miterlimit:4;stroke-dasharray:none;stroke-opacity:1" />
        <path
           id="path7936"
           d="M 227.45033,485.50182 C 206.77919,506.17295 192.99843,506.17295 172.32729,485.50182 C 192.99843,464.83067 206.77919,464.83067 227.45033,485.50182 z "
           style="fill:none;stroke:#65be2b;stroke-width:4;stroke-miterlimit:4;stroke-dasharray:none;stroke-opacity:1" />
        <path
           id="path7938"
           d="M 172.16448,485.64307 C 117.04144,540.76611 117.04144,430.52004 172.16448,485.64307 z "
           style="fill:none;stroke:#65be2b;stroke-width:4;stroke-miterlimit:4;stroke-dasharray:none;stroke-opacity:1" />
      </g>
    </g>
    <path
       transform="translate(-0.6643638,-34.820782)"
       d="M 696.41614 553.26392 A 321.12521 321.12521 0 1 1  54.16571,553.26392 A 321.12521 321.12521 0 1 1  696.41614 553.26392 z"
       sodipodi:ry="321.12521"
       sodipodi:rx="321.12521"
       sodipodi:cy="553.26392"
       sodipodi:cx="375.29092"
       id="path2228"
       style="opacity:1;color:#000000;fill:none;fill-opacity:1;fill-rule:nonzero;stroke:#425d33;stroke-width:14;stroke-linecap:butt;stroke-linejoin:miter;marker:none;marker-start:none;marker-mid:none;marker-end:none;stroke-miterlimit:4;stroke-dasharray:none;stroke-dashoffset:0;stroke-opacity:1;visibility:visible;display:inline;overflow:visible;enable-background:accumulate;"
       sodipodi:type="arc" />
    <path
       transform="translate(-0.6643638,-34.820787)"
       d="M 696.41614 553.26392 A 321.12521 321.12521 0 1 1  54.16571,553.26392 A 321.12521 321.12521 0 1 1  696.41614 553.26392 z"
       sodipodi:ry="321.12521"
       sodipodi:rx="321.12521"
       sodipodi:cy="553.26392"
       sodipodi:cx="375.29092"
       id="path5371"
       style="opacity:1;color:#000000;fill:none;fill-opacity:1;fill-rule:nonzero;stroke:#65be2b;stroke-width:4;stroke-linecap:butt;stroke-linejoin:miter;marker:none;marker-start:none;marker-mid:none;marker-end:none;stroke-miterlimit:4;stroke-dasharray:none;stroke-dashoffset:0;stroke-opacity:1;visibility:visible;display:inline;overflow:visible;enable-background:accumulate;filter:url(#filter8921)"
       sodipodi:type="arc" />
  </g>
</svg>
