<?xml version="1.0" encoding="UTF-8" standalone="no"?>
<svg
   xmlns:dc="http://purl.org/dc/elements/1.1/"
   xmlns:cc="http://web.resource.org/cc/"
   xmlns:rdf="http://www.w3.org/1999/02/22-rdf-syntax-ns#"
   xmlns:svg="http://www.w3.org/2000/svg"
   xmlns="http://www.w3.org/2000/svg"
   xmlns:xlink="http://www.w3.org/1999/xlink"
   xmlns:sodipodi="http://sodipodi.sourceforge.net/DTD/sodipodi-0.dtd"
   xmlns:inkscape="http://www.inkscape.org/namespaces/inkscape"
   width="590"
   xlink:xlink="xlink"
   height="590"
   id="svg3999"
   sodipodi:version="0.32"
   inkscape:version="0.45"
   sodipodi:docname="paradoxBox.svg"
   sodipodi:docbase="/media/oldubu/home/tamarind/0_Code_0/play-svg/scripts/images/present"
   inkscape:output_extension="org.inkscape.output.svg.inkscape"
   sodipodi:modified="true">
  <metadata
     id="metadata4009">
    <rdf:RDF>
      <cc:Work
         rdf:about="">
        <dc:format>image/svg+xml</dc:format>
        <dc:type
           rdf:resource="http://purl.org/dc/dcmitype/StillImage" />
      </cc:Work>
    </rdf:RDF>
  </metadata>
  <sodipodi:namedview
     inkscape:window-height="626"
     inkscape:window-width="874"
     inkscape:pageshadow="2"
     inkscape:pageopacity="0.0"
     guidetolerance="10.0"
     gridtolerance="10.0"
     objecttolerance="10.0"
     borderopacity="1.0"
     bordercolor="#666666"
     pagecolor="#ffffff"
     id="base"
     inkscape:zoom="0.50684932"
     inkscape:cx="295"
     inkscape:cy="216.08108"
     inkscape:window-x="0"
     inkscape:window-y="49"
     inkscape:current-layer="svg3999" />
  <defs
     id="defs4001" />
  <g
     id="g5969">
    <path
       style="fill:#000000;stroke:#000000;stroke-width:1.99017215;fill-opacity:1"
       d="M 195.4914,394.5086 L 213.58387,394.5086 L 213.58387,376.41613 L 195.4914,376.41613 L 195.4914,394.5086 M 195.4914,358.32366 L 213.58387,358.32366 L 213.58387,340.23119 L 195.4914,340.23119 L 195.4914,358.32366 M 195.4914,322.13871 L 213.58387,322.13871 L 213.58387,304.04623 L 195.4914,304.04623 L 195.4914,322.13871 M 195.4914,285.95377 L 213.58387,285.95377 L 213.58387,267.86129 L 195.4914,267.86129 L 195.4914,285.95377 M 195.4914,249.76881 L 213.58387,249.76881 L 213.58387,231.67634 L 195.4914,231.67634 L 195.4914,249.76881 M 195.4914,213.58387 L 213.58387,213.58387 L 213.58387,195.4914 L 195.4914,195.4914 L 195.4914,213.58387 M 213.58387,376.41613 L 231.67634,376.41613 L 231.67634,358.32366 L 213.58387,358.32366 L 213.58387,376.41613 M 213.58387,340.23119 L 231.67634,340.23119 L 231.67634,322.13871 L 213.58387,322.13871 L 213.58387,340.23119 M 213.58387,304.04623 L 231.67634,304.04623 L 231.67634,285.95377 L 213.58387,285.95377 L 213.58387,304.04623 M 213.58387,267.86129 L 231.67634,267.86129 L 231.67634,249.76881 L 213.58387,249.76881 L 213.58387,267.86129 M 213.58387,231.67634 L 231.67634,231.67634 L 231.67634,213.58387 L 213.58387,213.58387 L 213.58387,231.67634 M 231.67634,394.5086 L 249.76881,394.5086 L 249.76881,376.41613 L 231.67634,376.41613 L 231.67634,394.5086 M 231.67634,358.32366 L 249.76881,358.32366 L 249.76881,340.23119 L 231.67634,340.23119 L 231.67634,358.32366 M 231.67634,322.13871 L 249.76881,322.13871 L 249.76881,304.04623 L 231.67634,304.04623 L 231.67634,322.13871 M 231.67634,285.95377 L 249.76881,285.95377 L 249.76881,267.86129 L 231.67634,267.86129 L 231.67634,285.95377 M 231.67634,249.76881 L 249.76881,249.76881 L 249.76881,231.67634 L 231.67634,231.67634 L 231.67634,249.76881 M 231.67634,213.58387 L 249.76881,213.58387 L 249.76881,195.4914 L 231.67634,195.4914 L 231.67634,213.58387 M 249.76881,376.41613 L 267.86129,376.41613 L 267.86129,358.32366 L 249.76881,358.32366 L 249.76881,376.41613 M 249.76881,340.23119 L 267.86129,340.23119 L 267.86129,322.13871 L 249.76881,322.13871 L 249.76881,340.23119 M 249.76881,304.04623 L 267.86129,304.04623 L 267.86129,285.95377 L 249.76881,285.95377 L 249.76881,304.04623 M 249.76881,267.86129 L 267.86129,267.86129 L 267.86129,249.76881 L 249.76881,249.76881 L 249.76881,267.86129 M 249.76881,231.67634 L 267.86129,231.67634 L 267.86129,213.58387 L 249.76881,213.58387 L 249.76881,231.67634 M 267.86129,394.5086 L 285.95377,394.5086 L 285.95377,376.41613 L 267.86129,376.41613 L 267.86129,394.5086 M 267.86129,358.32366 L 285.95377,358.32366 L 285.95377,340.23119 L 267.86129,340.23119 L 267.86129,358.32366 M 267.86129,322.13871 L 285.95377,322.13871 L 285.95377,304.04623 L 267.86129,304.04623 L 267.86129,322.13871 M 267.86129,285.95377 L 285.95377,285.95377 L 285.95377,267.86129 L 267.86129,267.86129 L 267.86129,285.95377 M 267.86129,249.76881 L 285.95377,249.76881 L 285.95377,231.67634 L 267.86129,231.67634 L 267.86129,249.76881 M 267.86129,213.58387 L 285.95377,213.58387 L 285.95377,195.4914 L 267.86129,195.4914 L 267.86129,213.58387 M 285.95377,376.41613 L 304.04623,376.41613 L 304.04623,358.32366 L 285.95377,358.32366 L 285.95377,376.41613 M 285.95377,340.23119 L 304.04623,340.23119 L 304.04623,322.13871 L 285.95377,322.13871 L 285.95377,340.23119 M 285.95377,304.04623 L 304.04623,304.04623 L 304.04623,285.95377 L 285.95377,285.95377 L 285.95377,304.04623 M 285.95377,267.86129 L 304.04623,267.86129 L 304.04623,249.76881 L 285.95377,249.76881 L 285.95377,267.86129 M 285.95377,231.67634 L 304.04623,231.67634 L 304.04623,213.58387 L 285.95377,213.58387 L 285.95377,231.67634 M 304.04623,394.5086 L 322.13871,394.5086 L 322.13871,376.41613 L 304.04623,376.41613 L 304.04623,394.5086 M 304.04623,358.32366 L 322.13871,358.32366 L 322.13871,340.23119 L 304.04623,340.23119 L 304.04623,358.32366 M 304.04623,322.13871 L 322.13871,322.13871 L 322.13871,304.04623 L 304.04623,304.04623 L 304.04623,322.13871 M 304.04623,285.95377 L 322.13871,285.95377 L 322.13871,267.86129 L 304.04623,267.86129 L 304.04623,285.95377 M 304.04623,249.76881 L 322.13871,249.76881 L 322.13871,231.67634 L 304.04623,231.67634 L 304.04623,249.76881 M 304.04623,213.58387 L 322.13871,213.58387 L 322.13871,195.4914 L 304.04623,195.4914 L 304.04623,213.58387 M 322.13871,376.41613 L 340.23119,376.41613 L 340.23119,358.32366 L 322.13871,358.32366 L 322.13871,376.41613 M 322.13871,340.23119 L 340.23119,340.23119 L 340.23119,322.13871 L 322.13871,322.13871 L 322.13871,340.23119 M 322.13871,304.04623 L 340.23119,304.04623 L 340.23119,285.95377 L 322.13871,285.95377 L 322.13871,304.04623 M 322.13871,267.86129 L 340.23119,267.86129 L 340.23119,249.76881 L 322.13871,249.76881 L 322.13871,267.86129 M 322.13871,231.67634 L 340.23119,231.67634 L 340.23119,213.58387 L 322.13871,213.58387 L 322.13871,231.67634 M 340.23119,394.5086 L 358.32366,394.5086 L 358.32366,376.41613 L 340.23119,376.41613 L 340.23119,394.5086 M 340.23119,358.32366 L 358.32366,358.32366 L 358.32366,340.23119 L 340.23119,340.23119 L 340.23119,358.32366 M 340.23119,322.13871 L 358.32366,322.13871 L 358.32366,304.04623 L 340.23119,304.04623 L 340.23119,322.13871 M 340.23119,285.95377 L 358.32366,285.95377 L 358.32366,267.86129 L 340.23119,267.86129 L 340.23119,285.95377 M 340.23119,249.76881 L 358.32366,249.76881 L 358.32366,231.67634 L 340.23119,231.67634 L 340.23119,249.76881 M 340.23119,213.58387 L 358.32366,213.58387 L 358.32366,195.4914 L 340.23119,195.4914 L 340.23119,213.58387 M 358.32366,376.41613 L 376.41613,376.41613 L 376.41613,358.32366 L 358.32366,358.32366 L 358.32366,376.41613 M 358.32366,340.23119 L 376.41613,340.23119 L 376.41613,322.13871 L 358.32366,322.13871 L 358.32366,340.23119 M 358.32366,304.04623 L 376.41613,304.04623 L 376.41613,285.95377 L 358.32366,285.95377 L 358.32366,304.04623 M 358.32366,267.86129 L 376.41613,267.86129 L 376.41613,249.76881 L 358.32366,249.76881 L 358.32366,267.86129 M 358.32366,231.67634 L 376.41613,231.67634 L 376.41613,213.58387 L 358.32366,213.58387 L 358.32366,231.67634 M 376.41613,394.5086 L 394.5086,394.5086 L 394.5086,376.41613 L 376.41613,376.41613 L 376.41613,394.5086 M 376.41613,358.32366 L 394.5086,358.32366 L 394.5086,340.23119 L 376.41613,340.23119 L 376.41613,358.32366 M 376.41613,322.13871 L 394.5086,322.13871 L 394.5086,304.04623 L 376.41613,304.04623 L 376.41613,322.13871 M 376.41613,285.95377 L 394.5086,285.95377 L 394.5086,267.86129 L 376.41613,267.86129 L 376.41613,285.95377 M 376.41613,249.76881 L 394.5086,249.76881 L 394.5086,231.67634 L 376.41613,231.67634 L 376.41613,249.76881 M 376.41613,213.58387 L 394.5086,213.58387 L 394.5086,195.4914 L 376.41613,195.4914 L 376.41613,213.58387 M 532.715,57.285001 L 532.715,100.50591 L 509.32622,119.64218 L 509.32622,80.673776 L 532.715,57.285001 M 489.2787,100.7213 L 489.2787,136.0447 L 471.90419,150.26021 L 471.90419,118.09581 L 489.2787,100.7213 M 456.70148,133.29852 L 456.70148,162.69879 L 443.28733,173.674 L 443.28733,146.71267 L 456.70148,133.29852 M 431.36365,158.63635 L 431.36365,183.42974 L 420.69508,192.15857 L 420.69508,169.30492 L 431.36365,158.63635 M 411.09337,178.90663 L 411.09337,200.01451 L 402.40611,207.12227 L 402.40611,187.59389 L 411.09337,178.90663 M 560.35628,77.890315 L 560.35628,126.13692 L 532.715,143.72682 L 532.715,100.50591 L 560.35628,77.890315 M 509.32622,119.64218 L 509.32622,158.61058 L 489.2787,171.36809 L 489.2787,136.0447 L 509.32622,119.64218 M 471.90419,150.26021 L 471.90419,182.42461 L 456.70148,192.09905 L 456.70148,162.69879 L 471.90419,150.26021 M 443.28733,173.674 L 443.28733,200.63533 L 431.36365,208.22314 L 431.36365,183.42974 L 443.28733,173.674 M 420.69508,192.15857 L 420.69508,215.01222 L 411.09337,221.1224 L 411.09337,200.01451 L 420.69508,192.15857 M 402.40611,207.12227 L 402.40611,226.65066 L 394.5086,231.67634 L 394.5086,213.58387 L 402.40611,207.12227 M 532.715,143.72682 L 532.715,186.94773 L 509.32622,197.57899 L 509.32622,158.61058 L 532.715,143.72682 M 489.2787,171.36809 L 489.2787,206.6915 L 471.90419,214.58901 L 471.90419,182.42461 L 489.2787,171.36809 M 456.70148,192.09905 L 456.70148,221.49933 L 443.28733,227.59667 L 443.28733,200.63533 L 456.70148,192.09905 M 431.36365,208.22314 L 431.36365,233.01653 L 420.69508,237.86587 L 420.69508,215.01222 L 431.36365,208.22314 M 411.09337,221.1224 L 411.09337,242.23029 L 402.40611,246.17904 L 402.40611,226.65066 L 411.09337,221.1224 M 560.35628,174.38351 L 560.35628,222.6301 L 532.715,230.16864 L 532.715,186.94773 L 560.35628,174.38351 M 509.32622,197.57899 L 509.32622,236.54739 L 489.2787,242.0149 L 489.2787,206.6915 L 509.32622,197.57899 M 471.90419,214.58901 L 471.90419,246.75341 L 456.70148,250.8996 L 456.70148,221.49933 L 471.90419,214.58901 M 443.28733,227.59667 L 443.28733,254.558 L 431.36365,257.80991 L 431.36365,233.01653 L 443.28733,227.59667 M 420.69508,237.86587 L 420.69508,260.71952 L 411.09337,263.33817 L 411.09337,242.23029 L 420.69508,237.86587 M 402.40611,246.17904 L 402.40611,265.70743 L 394.5086,267.86129 L 394.5086,249.76881 L 402.40611,246.17904 M 532.715,230.16864 L 532.715,273.38954 L 509.32622,275.5158 L 509.32622,236.54739 L 532.715,230.16864 M 489.2787,242.0149 L 489.2787,277.3383 L 471.90419,278.9178 L 471.90419,246.75341 L 489.2787,242.0149 M 456.70148,250.8996 L 456.70148,280.29987 L 443.28733,281.51933 L 443.28733,254.558 L 456.70148,250.8996 M 431.36365,257.80991 L 431.36365,282.6033 L 420.69508,283.57317 L 420.69508,260.71952 L 431.36365,257.80991 M 411.09337,263.33817 L 411.09337,284.44606 L 402.40611,285.23581 L 402.40611,265.70743 L 411.09337,263.33817 M 560.35628,270.8767 L 560.35628,319.1233 L 532.715,316.61046 L 532.715,273.38954 L 560.35628,270.8767 M 509.32622,275.5158 L 509.32622,314.4842 L 489.2787,312.6617 L 489.2787,277.3383 L 509.32622,275.5158 M 471.90419,278.9178 L 471.90419,311.0822 L 456.70148,309.70013 L 456.70148,280.29987 L 471.90419,278.9178 M 443.28733,281.51933 L 443.28733,308.48067 L 431.36365,307.3967 L 431.36365,282.6033 L 443.28733,281.51933 M 420.69508,283.57317 L 420.69508,306.42683 L 411.09337,305.55394 L 411.09337,284.44606 L 420.69508,283.57317 M 402.40611,285.23581 L 402.40611,304.76419 L 394.5086,304.04623 L 394.5086,285.95377 L 402.40611,285.23581 M 532.715,316.61046 L 532.715,359.83136 L 509.32622,353.45261 L 509.32622,314.4842 L 532.715,316.61046 M 489.2787,312.6617 L 489.2787,347.9851 L 471.90419,343.24659 L 471.90419,311.0822 L 489.2787,312.6617 M 456.70148,309.70013 L 456.70148,339.1004 L 443.28733,335.442 L 443.28733,308.48067 L 456.70148,309.70013 M 431.36365,307.3967 L 431.36365,332.19009 L 420.69508,329.28048 L 420.69508,306.42683 L 431.36365,307.3967 M 411.09337,305.55394 L 411.09337,326.66183 L 402.40611,324.29257 L 402.40611,304.76419 L 411.09337,305.55394 M 560.35628,367.3699 L 560.35628,415.61649 L 532.715,403.05227 L 532.715,359.83136 L 560.35628,367.3699 M 509.32622,353.45261 L 509.32622,392.42101 L 489.2787,383.3085 L 489.2787,347.9851 L 509.32622,353.45261 M 471.90419,343.24659 L 471.90419,375.41099 L 456.70148,368.50067 L 456.70148,339.1004 L 471.90419,343.24659 M 443.28733,335.442 L 443.28733,362.40333 L 431.36365,356.98347 L 431.36365,332.19009 L 443.28733,335.442 M 420.69508,329.28048 L 420.69508,352.13413 L 411.09337,347.76971 L 411.09337,326.66183 L 420.69508,329.28048 M 402.40611,324.29257 L 402.40611,343.82096 L 394.5086,340.23119 L 394.5086,322.13871 L 402.40611,324.29257 M 532.715,403.05227 L 532.715,446.27318 L 509.32622,431.38942 L 509.32622,392.42101 L 532.715,403.05227 M 489.2787,383.3085 L 489.2787,418.63191 L 471.90419,407.57539 L 471.90419,375.41099 L 489.2787,383.3085 M 456.70148,368.50067 L 456.70148,397.90095 L 443.28733,389.36467 L 443.28733,362.40333 L 456.70148,368.50067 M 431.36365,356.98347 L 431.36365,381.77686 L 420.69508,374.98778 L 420.69508,352.13413 L 431.36365,356.98347 M 411.09337,347.76971 L 411.09337,368.8776 L 402.40611,363.34934 L 402.40611,343.82096 L 411.09337,347.76971 M 560.35628,463.86308 L 560.35628,512.10969 L 532.715,489.49409 L 532.715,446.27318 L 560.35628,463.86308 M 509.32622,431.38942 L 509.32622,470.35782 L 489.2787,453.9553 L 489.2787,418.63191 L 509.32622,431.38942 M 471.90419,407.57539 L 471.90419,439.73979 L 456.70148,427.30121 L 456.70148,397.90095 L 471.90419,407.57539 M 443.28733,389.36467 L 443.28733,416.326 L 431.36365,406.57026 L 431.36365,381.77686 L 443.28733,389.36467 M 420.69508,374.98778 L 420.69508,397.84143 L 411.09337,389.98549 L 411.09337,368.8776 L 420.69508,374.98778 M 402.40611,363.34934 L 402.40611,382.87773 L 394.5086,376.41613 L 394.5086,358.32366 L 402.40611,363.34934 M 532.715,489.49409 L 532.715,532.715 L 509.32622,509.32622 L 509.32622,470.35782 L 532.715,489.49409 M 489.2787,453.9553 L 489.2787,489.2787 L 471.90419,471.90419 L 471.90419,439.73979 L 489.2787,453.9553 M 456.70148,427.30121 L 456.70148,456.70148 L 443.28733,443.28733 L 443.28733,416.326 L 456.70148,427.30121 M 431.36365,406.57026 L 431.36365,431.36365 L 420.69508,420.69508 L 420.69508,397.84143 L 431.36365,406.57026 M 411.09337,389.98549 L 411.09337,411.09337 L 402.40611,402.40611 L 402.40611,382.87773 L 411.09337,389.98549 M 532.715,532.715 L 489.49409,532.715 L 470.35782,509.32622 L 509.32622,509.32622 L 532.715,532.715 M 489.2787,489.2787 L 453.9553,489.2787 L 439.73979,471.90419 L 471.90419,471.90419 L 489.2787,489.2787 M 456.70148,456.70148 L 427.30121,456.70148 L 416.326,443.28733 L 443.28733,443.28733 L 456.70148,456.70148 M 431.36365,431.36365 L 406.57026,431.36365 L 397.84143,420.69508 L 420.69508,420.69508 L 431.36365,431.36365 M 411.09337,411.09337 L 389.98549,411.09337 L 382.87773,402.40611 L 402.40611,402.40611 L 411.09337,411.09337 M 512.10969,560.35628 L 463.86308,560.35628 L 446.27318,532.715 L 489.49409,532.715 L 512.10969,560.35628 M 470.35782,509.32622 L 431.38942,509.32622 L 418.63191,489.2787 L 453.9553,489.2787 L 470.35782,509.32622 M 439.73979,471.90419 L 407.57539,471.90419 L 397.90095,456.70148 L 427.30121,456.70148 L 439.73979,471.90419 M 416.326,443.28733 L 389.36467,443.28733 L 381.77686,431.36365 L 406.57026,431.36365 L 416.326,443.28733 M 397.84143,420.69508 L 374.98778,420.69508 L 368.8776,411.09337 L 389.98549,411.09337 L 397.84143,420.69508 M 382.87773,402.40611 L 363.34934,402.40611 L 358.32366,394.5086 L 376.41613,394.5086 L 382.87773,402.40611 M 446.27318,532.715 L 403.05227,532.715 L 392.42101,509.32622 L 431.38942,509.32622 L 446.27318,532.715 M 418.63191,489.2787 L 383.3085,489.2787 L 375.41099,471.90419 L 407.57539,471.90419 L 418.63191,489.2787 M 397.90095,456.70148 L 368.50067,456.70148 L 362.40333,443.28733 L 389.36467,443.28733 L 397.90095,456.70148 M 381.77686,431.36365 L 356.98347,431.36365 L 352.13413,420.69508 L 374.98778,420.69508 L 381.77686,431.36365 M 368.8776,411.09337 L 347.76971,411.09337 L 343.82096,402.40611 L 363.34934,402.40611 L 368.8776,411.09337 M 415.61649,560.35628 L 367.3699,560.35628 L 359.83136,532.715 L 403.05227,532.715 L 415.61649,560.35628 M 392.42101,509.32622 L 353.45261,509.32622 L 347.9851,489.2787 L 383.3085,489.2787 L 392.42101,509.32622 M 375.41099,471.90419 L 343.24659,471.90419 L 339.1004,456.70148 L 368.50067,456.70148 L 375.41099,471.90419 M 362.40333,443.28733 L 335.442,443.28733 L 332.19009,431.36365 L 356.98347,431.36365 L 362.40333,443.28733 M 352.13413,420.69508 L 329.28048,420.69508 L 326.66183,411.09337 L 347.76971,411.09337 L 352.13413,420.69508 M 343.82096,402.40611 L 324.29257,402.40611 L 322.13871,394.5086 L 340.23119,394.5086 L 343.82096,402.40611 M 359.83136,532.715 L 316.61046,532.715 L 314.4842,509.32622 L 353.45261,509.32622 L 359.83136,532.715 M 347.9851,489.2787 L 312.6617,489.2787 L 311.0822,471.90419 L 343.24659,471.90419 L 347.9851,489.2787 M 339.1004,456.70148 L 309.70013,456.70148 L 308.48067,443.28733 L 335.442,443.28733 L 339.1004,456.70148 M 332.19009,431.36365 L 307.3967,431.36365 L 306.42683,420.69508 L 329.28048,420.69508 L 332.19009,431.36365 M 326.66183,411.09337 L 305.55394,411.09337 L 304.76419,402.40611 L 324.29257,402.40611 L 326.66183,411.09337 M 319.1233,560.35628 L 270.8767,560.35628 L 273.38954,532.715 L 316.61046,532.715 L 319.1233,560.35628 M 314.4842,509.32622 L 275.5158,509.32622 L 277.3383,489.2787 L 312.6617,489.2787 L 314.4842,509.32622 M 311.0822,471.90419 L 278.9178,471.90419 L 280.29987,456.70148 L 309.70013,456.70148 L 311.0822,471.90419 M 308.48067,443.28733 L 281.51933,443.28733 L 282.6033,431.36365 L 307.3967,431.36365 L 308.48067,443.28733 M 306.42683,420.69508 L 283.57317,420.69508 L 284.44606,411.09337 L 305.55394,411.09337 L 306.42683,420.69508 M 304.76419,402.40611 L 285.23581,402.40611 L 285.95377,394.5086 L 304.04623,394.5086 L 304.76419,402.40611 M 273.38954,532.715 L 230.16864,532.715 L 236.54739,509.32622 L 275.5158,509.32622 L 273.38954,532.715 M 277.3383,489.2787 L 242.0149,489.2787 L 246.75341,471.90419 L 278.9178,471.90419 L 277.3383,489.2787 M 280.29987,456.70148 L 250.8996,456.70148 L 254.558,443.28733 L 281.51933,443.28733 L 280.29987,456.70148 M 282.6033,431.36365 L 257.80991,431.36365 L 260.71952,420.69508 L 283.57317,420.69508 L 282.6033,431.36365 M 284.44606,411.09337 L 263.33817,411.09337 L 265.70743,402.40611 L 285.23581,402.40611 L 284.44606,411.09337 M 222.6301,560.35628 L 174.38351,560.35628 L 186.94773,532.715 L 230.16864,532.715 L 222.6301,560.35628 M 236.54739,509.32622 L 197.57899,509.32622 L 206.6915,489.2787 L 242.0149,489.2787 L 236.54739,509.32622 M 246.75341,471.90419 L 214.58901,471.90419 L 221.49933,456.70148 L 250.8996,456.70148 L 246.75341,471.90419 M 254.558,443.28733 L 227.59667,443.28733 L 233.01653,431.36365 L 257.80991,431.36365 L 254.558,443.28733 M 260.71952,420.69508 L 237.86587,420.69508 L 242.23029,411.09337 L 263.33817,411.09337 L 260.71952,420.69508 M 265.70743,402.40611 L 246.17904,402.40611 L 249.76881,394.5086 L 267.86129,394.5086 L 265.70743,402.40611 M 186.94773,532.715 L 143.72682,532.715 L 158.61058,509.32622 L 197.57899,509.32622 L 186.94773,532.715 M 206.6915,489.2787 L 171.36809,489.2787 L 182.42461,471.90419 L 214.58901,471.90419 L 206.6915,489.2787 M 221.49933,456.70148 L 192.09905,456.70148 L 200.63533,443.28733 L 227.59667,443.28733 L 221.49933,456.70148 M 233.01653,431.36365 L 208.22314,431.36365 L 215.01222,420.69508 L 237.86587,420.69508 L 233.01653,431.36365 M 242.23029,411.09337 L 221.1224,411.09337 L 226.65066,402.40611 L 246.17904,402.40611 L 242.23029,411.09337 M 126.13692,560.35628 L 77.890315,560.35628 L 100.50591,532.715 L 143.72682,532.715 L 126.13692,560.35628 M 158.61058,509.32622 L 119.64218,509.32622 L 136.0447,489.2787 L 171.36809,489.2787 L 158.61058,509.32622 M 182.42461,471.90419 L 150.26021,471.90419 L 162.69879,456.70148 L 192.09905,456.70148 L 182.42461,471.90419 M 200.63533,443.28733 L 173.674,443.28733 L 183.42974,431.36365 L 208.22314,431.36365 L 200.63533,443.28733 M 215.01222,420.69508 L 192.15857,420.69508 L 200.01451,411.09337 L 221.1224,411.09337 L 215.01222,420.69508 M 226.65066,402.40611 L 207.12227,402.40611 L 213.58387,394.5086 L 231.67634,394.5086 L 226.65066,402.40611 M 100.50591,532.715 L 57.285001,532.715 L 80.673776,509.32622 L 119.64218,509.32622 L 100.50591,532.715 M 136.0447,489.2787 L 100.7213,489.2787 L 118.09581,471.90419 L 150.26021,471.90419 L 136.0447,489.2787 M 162.69879,456.70148 L 133.29852,456.70148 L 146.71267,443.28733 L 173.674,443.28733 L 162.69879,456.70148 M 183.42974,431.36365 L 158.63635,431.36365 L 169.30492,420.69508 L 192.15857,420.69508 L 183.42974,431.36365 M 200.01451,411.09337 L 178.90663,411.09337 L 187.59389,402.40611 L 207.12227,402.40611 L 200.01451,411.09337 M 57.285001,532.715 L 57.285001,489.49409 L 80.673776,470.35782 L 80.673776,509.32622 L 57.285001,532.715 M 100.7213,489.2787 L 100.7213,453.9553 L 118.09581,439.73979 L 118.09581,471.90419 L 100.7213,489.2787 M 133.29852,456.70148 L 133.29852,427.30121 L 146.71267,416.326 L 146.71267,443.28733 L 133.29852,456.70148 M 158.63635,431.36365 L 158.63635,406.57026 L 169.30492,397.84143 L 169.30492,420.69508 L 158.63635,431.36365 M 178.90663,411.09337 L 178.90663,389.98549 L 187.59389,382.87773 L 187.59389,402.40611 L 178.90663,411.09337 M 29.64372,512.10969 L 29.64372,463.86308 L 57.285001,446.27318 L 57.285001,489.49409 L 29.64372,512.10969 M 80.673776,470.35782 L 80.673776,431.38942 L 100.7213,418.63191 L 100.7213,453.9553 L 80.673776,470.35782 M 118.09581,439.73979 L 118.09581,407.57539 L 133.29852,397.90095 L 133.29852,427.30121 L 118.09581,439.73979 M 146.71267,416.326 L 146.71267,389.36467 L 158.63635,381.77686 L 158.63635,406.57026 L 146.71267,416.326 M 169.30492,397.84143 L 169.30492,374.98778 L 178.90663,368.8776 L 178.90663,389.98549 L 169.30492,397.84143 M 187.59389,382.87773 L 187.59389,363.34934 L 195.4914,358.32366 L 195.4914,376.41613 L 187.59389,382.87773 M 57.285001,446.27318 L 57.285001,403.05227 L 80.673776,392.42101 L 80.673776,431.38942 L 57.285001,446.27318 M 100.7213,418.63191 L 100.7213,383.3085 L 118.09581,375.41099 L 118.09581,407.57539 L 100.7213,418.63191 M 133.29852,397.90095 L 133.29852,368.50067 L 146.71267,362.40333 L 146.71267,389.36467 L 133.29852,397.90095 M 158.63635,381.77686 L 158.63635,356.98347 L 169.30492,352.13413 L 169.30492,374.98778 L 158.63635,381.77686 M 178.90663,368.8776 L 178.90663,347.76971 L 187.59389,343.82096 L 187.59389,363.34934 L 178.90663,368.8776 M 29.64372,415.61649 L 29.64372,367.3699 L 57.285001,359.83136 L 57.285001,403.05227 L 29.64372,415.61649 M 80.673776,392.42101 L 80.673776,353.45261 L 100.7213,347.9851 L 100.7213,383.3085 L 80.673776,392.42101 M 118.09581,375.41099 L 118.09581,343.24659 L 133.29852,339.1004 L 133.29852,368.50067 L 118.09581,375.41099 M 146.71267,362.40333 L 146.71267,335.442 L 158.63635,332.19009 L 158.63635,356.98347 L 146.71267,362.40333 M 169.30492,352.13413 L 169.30492,329.28048 L 178.90663,326.66183 L 178.90663,347.76971 L 169.30492,352.13413 M 187.59389,343.82096 L 187.59389,324.29257 L 195.4914,322.13871 L 195.4914,340.23119 L 187.59389,343.82096 M 57.285001,359.83136 L 57.285001,316.61046 L 80.673776,314.4842 L 80.673776,353.45261 L 57.285001,359.83136 M 100.7213,347.9851 L 100.7213,312.6617 L 118.09581,311.0822 L 118.09581,343.24659 L 100.7213,347.9851 M 133.29852,339.1004 L 133.29852,309.70013 L 146.71267,308.48067 L 146.71267,335.442 L 133.29852,339.1004 M 158.63635,332.19009 L 158.63635,307.3967 L 169.30492,306.42683 L 169.30492,329.28048 L 158.63635,332.19009 M 178.90663,326.66183 L 178.90663,305.55394 L 187.59389,304.76419 L 187.59389,324.29257 L 178.90663,326.66183 M 29.64372,319.1233 L 29.64372,270.8767 L 57.285001,273.38954 L 57.285001,316.61046 L 29.64372,319.1233 M 80.673776,314.4842 L 80.673776,275.5158 L 100.7213,277.3383 L 100.7213,312.6617 L 80.673776,314.4842 M 118.09581,311.0822 L 118.09581,278.9178 L 133.29852,280.29987 L 133.29852,309.70013 L 118.09581,311.0822 M 146.71267,308.48067 L 146.71267,281.51933 L 158.63635,282.6033 L 158.63635,307.3967 L 146.71267,308.48067 M 169.30492,306.42683 L 169.30492,283.57317 L 178.90663,284.44606 L 178.90663,305.55394 L 169.30492,306.42683 M 187.59389,304.76419 L 187.59389,285.23581 L 195.4914,285.95377 L 195.4914,304.04623 L 187.59389,304.76419 M 57.285001,273.38954 L 57.285001,230.16864 L 80.673776,236.54739 L 80.673776,275.5158 L 57.285001,273.38954 M 100.7213,277.3383 L 100.7213,242.0149 L 118.09581,246.75341 L 118.09581,278.9178 L 100.7213,277.3383 M 133.29852,280.29987 L 133.29852,250.8996 L 146.71267,254.558 L 146.71267,281.51933 L 133.29852,280.29987 M 158.63635,282.6033 L 158.63635,257.80991 L 169.30492,260.71952 L 169.30492,283.57317 L 158.63635,282.6033 M 178.90663,284.44606 L 178.90663,263.33817 L 187.59389,265.70743 L 187.59389,285.23581 L 178.90663,284.44606 M 29.64372,222.6301 L 29.64372,174.38351 L 57.285001,186.94773 L 57.285001,230.16864 L 29.64372,222.6301 M 80.673776,236.54739 L 80.673776,197.57899 L 100.7213,206.6915 L 100.7213,242.0149 L 80.673776,236.54739 M 118.09581,246.75341 L 118.09581,214.58901 L 133.29852,221.49933 L 133.29852,250.8996 L 118.09581,246.75341 M 146.71267,254.558 L 146.71267,227.59667 L 158.63635,233.01653 L 158.63635,257.80991 L 146.71267,254.558 M 169.30492,260.71952 L 169.30492,237.86587 L 178.90663,242.23029 L 178.90663,263.33817 L 169.30492,260.71952 M 187.59389,265.70743 L 187.59389,246.17904 L 195.4914,249.76881 L 195.4914,267.86129 L 187.59389,265.70743 M 57.285001,186.94773 L 57.285001,143.72682 L 80.673776,158.61058 L 80.673776,197.57899 L 57.285001,186.94773 M 100.7213,206.6915 L 100.7213,171.36809 L 118.09581,182.42461 L 118.09581,214.58901 L 100.7213,206.6915 M 133.29852,221.49933 L 133.29852,192.09905 L 146.71267,200.63533 L 146.71267,227.59667 L 133.29852,221.49933 M 158.63635,233.01653 L 158.63635,208.22314 L 169.30492,215.01222 L 169.30492,237.86587 L 158.63635,233.01653 M 178.90663,242.23029 L 178.90663,221.1224 L 187.59389,226.65066 L 187.59389,246.17904 L 178.90663,242.23029 M 29.64372,126.13692 L 29.64372,77.890315 L 57.285001,100.50591 L 57.285001,143.72682 L 29.64372,126.13692 M 80.673776,158.61058 L 80.673776,119.64218 L 100.7213,136.0447 L 100.7213,171.36809 L 80.673776,158.61058 M 118.09581,182.42461 L 118.09581,150.26021 L 133.29852,162.69879 L 133.29852,192.09905 L 118.09581,182.42461 M 146.71267,200.63533 L 146.71267,173.674 L 158.63635,183.42974 L 158.63635,208.22314 L 146.71267,200.63533 M 169.30492,215.01222 L 169.30492,192.15857 L 178.90663,200.01451 L 178.90663,221.1224 L 169.30492,215.01222 M 187.59389,226.65066 L 187.59389,207.12227 L 195.4914,213.58387 L 195.4914,231.67634 L 187.59389,226.65066 M 57.285001,100.50591 L 57.285001,57.285001 L 80.673776,80.673776 L 80.673776,119.64218 L 57.285001,100.50591 M 100.7213,136.0447 L 100.7213,100.7213 L 118.09581,118.09581 L 118.09581,150.26021 L 100.7213,136.0447 M 133.29852,162.69879 L 133.29852,133.29852 L 146.71267,146.71267 L 146.71267,173.674 L 133.29852,162.69879 M 158.63635,183.42974 L 158.63635,158.63635 L 169.30492,169.30492 L 169.30492,192.15857 L 158.63635,183.42974 M 178.90663,200.01451 L 178.90663,178.90663 L 187.59389,187.59389 L 187.59389,207.12227 L 178.90663,200.01451 M 57.285001,57.285001 L 100.50591,57.285001 L 119.64218,80.673776 L 80.673776,80.673776 L 57.285001,57.285001 M 100.7213,100.7213 L 136.0447,100.7213 L 150.26021,118.09581 L 118.09581,118.09581 L 100.7213,100.7213 M 133.29852,133.29852 L 162.69879,133.29852 L 173.674,146.71267 L 146.71267,146.71267 L 133.29852,133.29852 M 158.63635,158.63635 L 183.42974,158.63635 L 192.15857,169.30492 L 169.30492,169.30492 L 158.63635,158.63635 M 178.90663,178.90663 L 200.01451,178.90663 L 207.12227,187.59389 L 187.59389,187.59389 L 178.90663,178.90663 M 77.890315,29.64372 L 126.13692,29.64372 L 143.72682,57.285001 L 100.50591,57.285001 L 77.890315,29.64372 M 119.64218,80.673776 L 158.61058,80.673776 L 171.36809,100.7213 L 136.0447,100.7213 L 119.64218,80.673776 M 150.26021,118.09581 L 182.42461,118.09581 L 192.09905,133.29852 L 162.69879,133.29852 L 150.26021,118.09581 M 173.674,146.71267 L 200.63533,146.71267 L 208.22314,158.63635 L 183.42974,158.63635 L 173.674,146.71267 M 192.15857,169.30492 L 215.01222,169.30492 L 221.1224,178.90663 L 200.01451,178.90663 L 192.15857,169.30492 M 207.12227,187.59389 L 226.65066,187.59389 L 231.67634,195.4914 L 213.58387,195.4914 L 207.12227,187.59389 M 143.72682,57.285001 L 186.94773,57.285001 L 197.57899,80.673776 L 158.61058,80.673776 L 143.72682,57.285001 M 171.36809,100.7213 L 206.6915,100.7213 L 214.58901,118.09581 L 182.42461,118.09581 L 171.36809,100.7213 M 192.09905,133.29852 L 221.49933,133.29852 L 227.59667,146.71267 L 200.63533,146.71267 L 192.09905,133.29852 M 208.22314,158.63635 L 233.01653,158.63635 L 237.86587,169.30492 L 215.01222,169.30492 L 208.22314,158.63635 M 221.1224,178.90663 L 242.23029,178.90663 L 246.17904,187.59389 L 226.65066,187.59389 L 221.1224,178.90663 M 174.38351,29.64372 L 222.6301,29.64372 L 230.16864,57.285001 L 186.94773,57.285001 L 174.38351,29.64372 M 197.57899,80.673776 L 236.54739,80.673776 L 242.0149,100.7213 L 206.6915,100.7213 L 197.57899,80.673776 M 214.58901,118.09581 L 246.75341,118.09581 L 250.8996,133.29852 L 221.49933,133.29852 L 214.58901,118.09581 M 227.59667,146.71267 L 254.558,146.71267 L 257.80991,158.63635 L 233.01653,158.63635 L 227.59667,146.71267 M 237.86587,169.30492 L 260.71952,169.30492 L 263.33817,178.90663 L 242.23029,178.90663 L 237.86587,169.30492 M 246.17904,187.59389 L 265.70743,187.59389 L 267.86129,195.4914 L 249.76881,195.4914 L 246.17904,187.59389 M 230.16864,57.285001 L 273.38954,57.285001 L 275.5158,80.673776 L 236.54739,80.673776 L 230.16864,57.285001 M 242.0149,100.7213 L 277.3383,100.7213 L 278.9178,118.09581 L 246.75341,118.09581 L 242.0149,100.7213 M 250.8996,133.29852 L 280.29987,133.29852 L 281.51933,146.71267 L 254.558,146.71267 L 250.8996,133.29852 M 257.80991,158.63635 L 282.6033,158.63635 L 283.57317,169.30492 L 260.71952,169.30492 L 257.80991,158.63635 M 263.33817,178.90663 L 284.44606,178.90663 L 285.23581,187.59389 L 265.70743,187.59389 L 263.33817,178.90663 M 270.8767,29.64372 L 319.1233,29.64372 L 316.61046,57.285001 L 273.38954,57.285001 L 270.8767,29.64372 M 275.5158,80.673776 L 314.4842,80.673776 L 312.6617,100.7213 L 277.3383,100.7213 L 275.5158,80.673776 M 278.9178,118.09581 L 311.0822,118.09581 L 309.70013,133.29852 L 280.29987,133.29852 L 278.9178,118.09581 M 281.51933,146.71267 L 308.48067,146.71267 L 307.3967,158.63635 L 282.6033,158.63635 L 281.51933,146.71267 M 283.57317,169.30492 L 306.42683,169.30492 L 305.55394,178.90663 L 284.44606,178.90663 L 283.57317,169.30492 M 285.23581,187.59389 L 304.76419,187.59389 L 304.04623,195.4914 L 285.95377,195.4914 L 285.23581,187.59389 M 316.61046,57.285001 L 359.83136,57.285001 L 353.45261,80.673776 L 314.4842,80.673776 L 316.61046,57.285001 M 312.6617,100.7213 L 347.9851,100.7213 L 343.24659,118.09581 L 311.0822,118.09581 L 312.6617,100.7213 M 309.70013,133.29852 L 339.1004,133.29852 L 335.442,146.71267 L 308.48067,146.71267 L 309.70013,133.29852 M 307.3967,158.63635 L 332.19009,158.63635 L 329.28048,169.30492 L 306.42683,169.30492 L 307.3967,158.63635 M 305.55394,178.90663 L 326.66183,178.90663 L 324.29257,187.59389 L 304.76419,187.59389 L 305.55394,178.90663 M 367.3699,29.64372 L 415.61649,29.64372 L 403.05227,57.285001 L 359.83136,57.285001 L 367.3699,29.64372 M 353.45261,80.673776 L 392.42101,80.673776 L 383.3085,100.7213 L 347.9851,100.7213 L 353.45261,80.673776 M 343.24659,118.09581 L 375.41099,118.09581 L 368.50067,133.29852 L 339.1004,133.29852 L 343.24659,118.09581 M 335.442,146.71267 L 362.40333,146.71267 L 356.98347,158.63635 L 332.19009,158.63635 L 335.442,146.71267 M 329.28048,169.30492 L 352.13413,169.30492 L 347.76971,178.90663 L 326.66183,178.90663 L 329.28048,169.30492 M 324.29257,187.59389 L 343.82096,187.59389 L 340.23119,195.4914 L 322.13871,195.4914 L 324.29257,187.59389 M 403.05227,57.285001 L 446.27318,57.285001 L 431.38942,80.673776 L 392.42101,80.673776 L 403.05227,57.285001 M 383.3085,100.7213 L 418.63191,100.7213 L 407.57539,118.09581 L 375.41099,118.09581 L 383.3085,100.7213 M 368.50067,133.29852 L 397.90095,133.29852 L 389.36467,146.71267 L 362.40333,146.71267 L 368.50067,133.29852 M 356.98347,158.63635 L 381.77686,158.63635 L 374.98778,169.30492 L 352.13413,169.30492 L 356.98347,158.63635 M 347.76971,178.90663 L 368.8776,178.90663 L 363.34934,187.59389 L 343.82096,187.59389 L 347.76971,178.90663 M 463.86308,29.64372 L 512.10969,29.64372 L 489.49409,57.285001 L 446.27318,57.285001 L 463.86308,29.64372 M 431.38942,80.673776 L 470.35782,80.673776 L 453.9553,100.7213 L 418.63191,100.7213 L 431.38942,80.673776 M 407.57539,118.09581 L 439.73979,118.09581 L 427.30121,133.29852 L 397.90095,133.29852 L 407.57539,118.09581 M 389.36467,146.71267 L 416.326,146.71267 L 406.57026,158.63635 L 381.77686,158.63635 L 389.36467,146.71267 M 374.98778,169.30492 L 397.84143,169.30492 L 389.98549,178.90663 L 368.8776,178.90663 L 374.98778,169.30492 M 363.34934,187.59389 L 382.87773,187.59389 L 376.41613,195.4914 L 358.32366,195.4914 L 363.34934,187.59389 M 489.49409,57.285001 L 532.715,57.285001 L 509.32622,80.673776 L 470.35782,80.673776 L 489.49409,57.285001 M 453.9553,100.7213 L 489.2787,100.7213 L 471.90419,118.09581 L 439.73979,118.09581 L 453.9553,100.7213 M 427.30121,133.29852 L 456.70148,133.29852 L 443.28733,146.71267 L 416.326,146.71267 L 427.30121,133.29852 M 406.57026,158.63635 L 431.36365,158.63635 L 420.69508,169.30492 L 397.84143,169.30492 L 406.57026,158.63635 M 389.98549,178.90663 L 411.09337,178.90663 L 402.40611,187.59389 L 382.87773,187.59389 L 389.98549,178.90663"
       id="path4004" />
    <path
       style="fill:#ffffff;stroke:none;stroke-width:1.99017215"
       d="M 195.4914,376.41613 L 213.58387,376.41613 L 213.58387,358.32366 L 195.4914,358.32366 L 195.4914,376.41613 M 195.4914,340.23119 L 213.58387,340.23119 L 213.58387,322.13871 L 195.4914,322.13871 L 195.4914,340.23119 M 195.4914,304.04623 L 213.58387,304.04623 L 213.58387,285.95377 L 195.4914,285.95377 L 195.4914,304.04623 M 195.4914,267.86129 L 213.58387,267.86129 L 213.58387,249.76881 L 195.4914,249.76881 L 195.4914,267.86129 M 195.4914,231.67634 L 213.58387,231.67634 L 213.58387,213.58387 L 195.4914,213.58387 L 195.4914,231.67634 M 213.58387,394.5086 L 231.67634,394.5086 L 231.67634,376.41613 L 213.58387,376.41613 L 213.58387,394.5086 M 213.58387,358.32366 L 231.67634,358.32366 L 231.67634,340.23119 L 213.58387,340.23119 L 213.58387,358.32366 M 213.58387,322.13871 L 231.67634,322.13871 L 231.67634,304.04623 L 213.58387,304.04623 L 213.58387,322.13871 M 213.58387,285.95377 L 231.67634,285.95377 L 231.67634,267.86129 L 213.58387,267.86129 L 213.58387,285.95377 M 213.58387,249.76881 L 231.67634,249.76881 L 231.67634,231.67634 L 213.58387,231.67634 L 213.58387,249.76881 M 213.58387,213.58387 L 231.67634,213.58387 L 231.67634,195.4914 L 213.58387,195.4914 L 213.58387,213.58387 M 231.67634,376.41613 L 249.76881,376.41613 L 249.76881,358.32366 L 231.67634,358.32366 L 231.67634,376.41613 M 231.67634,340.23119 L 249.76881,340.23119 L 249.76881,322.13871 L 231.67634,322.13871 L 231.67634,340.23119 M 231.67634,304.04623 L 249.76881,304.04623 L 249.76881,285.95377 L 231.67634,285.95377 L 231.67634,304.04623 M 231.67634,267.86129 L 249.76881,267.86129 L 249.76881,249.76881 L 231.67634,249.76881 L 231.67634,267.86129 M 231.67634,231.67634 L 249.76881,231.67634 L 249.76881,213.58387 L 231.67634,213.58387 L 231.67634,231.67634 M 249.76881,394.5086 L 267.86129,394.5086 L 267.86129,376.41613 L 249.76881,376.41613 L 249.76881,394.5086 M 249.76881,358.32366 L 267.86129,358.32366 L 267.86129,340.23119 L 249.76881,340.23119 L 249.76881,358.32366 M 249.76881,322.13871 L 267.86129,322.13871 L 267.86129,304.04623 L 249.76881,304.04623 L 249.76881,322.13871 M 249.76881,285.95377 L 267.86129,285.95377 L 267.86129,267.86129 L 249.76881,267.86129 L 249.76881,285.95377 M 249.76881,249.76881 L 267.86129,249.76881 L 267.86129,231.67634 L 249.76881,231.67634 L 249.76881,249.76881 M 249.76881,213.58387 L 267.86129,213.58387 L 267.86129,195.4914 L 249.76881,195.4914 L 249.76881,213.58387 M 267.86129,376.41613 L 285.95377,376.41613 L 285.95377,358.32366 L 267.86129,358.32366 L 267.86129,376.41613 M 267.86129,340.23119 L 285.95377,340.23119 L 285.95377,322.13871 L 267.86129,322.13871 L 267.86129,340.23119 M 267.86129,304.04623 L 285.95377,304.04623 L 285.95377,285.95377 L 267.86129,285.95377 L 267.86129,304.04623 M 267.86129,267.86129 L 285.95377,267.86129 L 285.95377,249.76881 L 267.86129,249.76881 L 267.86129,267.86129 M 267.86129,231.67634 L 285.95377,231.67634 L 285.95377,213.58387 L 267.86129,213.58387 L 267.86129,231.67634 M 285.95377,394.5086 L 304.04623,394.5086 L 304.04623,376.41613 L 285.95377,376.41613 L 285.95377,394.5086 M 285.95377,358.32366 L 304.04623,358.32366 L 304.04623,340.23119 L 285.95377,340.23119 L 285.95377,358.32366 M 285.95377,322.13871 L 304.04623,322.13871 L 304.04623,304.04623 L 285.95377,304.04623 L 285.95377,322.13871 M 285.95377,285.95377 L 304.04623,285.95377 L 304.04623,267.86129 L 285.95377,267.86129 L 285.95377,285.95377 M 285.95377,249.76881 L 304.04623,249.76881 L 304.04623,231.67634 L 285.95377,231.67634 L 285.95377,249.76881 M 285.95377,213.58387 L 304.04623,213.58387 L 304.04623,195.4914 L 285.95377,195.4914 L 285.95377,213.58387 M 304.04623,376.41613 L 322.13871,376.41613 L 322.13871,358.32366 L 304.04623,358.32366 L 304.04623,376.41613 M 304.04623,340.23119 L 322.13871,340.23119 L 322.13871,322.13871 L 304.04623,322.13871 L 304.04623,340.23119 M 304.04623,304.04623 L 322.13871,304.04623 L 322.13871,285.95377 L 304.04623,285.95377 L 304.04623,304.04623 M 304.04623,267.86129 L 322.13871,267.86129 L 322.13871,249.76881 L 304.04623,249.76881 L 304.04623,267.86129 M 304.04623,231.67634 L 322.13871,231.67634 L 322.13871,213.58387 L 304.04623,213.58387 L 304.04623,231.67634 M 322.13871,394.5086 L 340.23119,394.5086 L 340.23119,376.41613 L 322.13871,376.41613 L 322.13871,394.5086 M 322.13871,358.32366 L 340.23119,358.32366 L 340.23119,340.23119 L 322.13871,340.23119 L 322.13871,358.32366 M 322.13871,322.13871 L 340.23119,322.13871 L 340.23119,304.04623 L 322.13871,304.04623 L 322.13871,322.13871 M 322.13871,285.95377 L 340.23119,285.95377 L 340.23119,267.86129 L 322.13871,267.86129 L 322.13871,285.95377 M 322.13871,249.76881 L 340.23119,249.76881 L 340.23119,231.67634 L 322.13871,231.67634 L 322.13871,249.76881 M 322.13871,213.58387 L 340.23119,213.58387 L 340.23119,195.4914 L 322.13871,195.4914 L 322.13871,213.58387 M 340.23119,376.41613 L 358.32366,376.41613 L 358.32366,358.32366 L 340.23119,358.32366 L 340.23119,376.41613 M 340.23119,340.23119 L 358.32366,340.23119 L 358.32366,322.13871 L 340.23119,322.13871 L 340.23119,340.23119 M 340.23119,304.04623 L 358.32366,304.04623 L 358.32366,285.95377 L 340.23119,285.95377 L 340.23119,304.04623 M 340.23119,267.86129 L 358.32366,267.86129 L 358.32366,249.76881 L 340.23119,249.76881 L 340.23119,267.86129 M 340.23119,231.67634 L 358.32366,231.67634 L 358.32366,213.58387 L 340.23119,213.58387 L 340.23119,231.67634 M 358.32366,394.5086 L 376.41613,394.5086 L 376.41613,376.41613 L 358.32366,376.41613 L 358.32366,394.5086 M 358.32366,358.32366 L 376.41613,358.32366 L 376.41613,340.23119 L 358.32366,340.23119 L 358.32366,358.32366 M 358.32366,322.13871 L 376.41613,322.13871 L 376.41613,304.04623 L 358.32366,304.04623 L 358.32366,322.13871 M 358.32366,285.95377 L 376.41613,285.95377 L 376.41613,267.86129 L 358.32366,267.86129 L 358.32366,285.95377 M 358.32366,249.76881 L 376.41613,249.76881 L 376.41613,231.67634 L 358.32366,231.67634 L 358.32366,249.76881 M 358.32366,213.58387 L 376.41613,213.58387 L 376.41613,195.4914 L 358.32366,195.4914 L 358.32366,213.58387 M 376.41613,376.41613 L 394.5086,376.41613 L 394.5086,358.32366 L 376.41613,358.32366 L 376.41613,376.41613 M 376.41613,340.23119 L 394.5086,340.23119 L 394.5086,322.13871 L 376.41613,322.13871 L 376.41613,340.23119 M 376.41613,304.04623 L 394.5086,304.04623 L 394.5086,285.95377 L 376.41613,285.95377 L 376.41613,304.04623 M 376.41613,267.86129 L 394.5086,267.86129 L 394.5086,249.76881 L 376.41613,249.76881 L 376.41613,267.86129 M 376.41613,231.67634 L 394.5086,231.67634 L 394.5086,213.58387 L 376.41613,213.58387 L 376.41613,231.67634 M 560.35628,29.64372 L 560.35628,77.890315 L 532.715,100.50591 L 532.715,57.285001 L 560.35628,29.64372 M 509.32622,80.673776 L 509.32622,119.64218 L 489.2787,136.0447 L 489.2787,100.7213 L 509.32622,80.673776 M 471.90419,118.09581 L 471.90419,150.26021 L 456.70148,162.69879 L 456.70148,133.29852 L 471.90419,118.09581 M 443.28733,146.71267 L 443.28733,173.674 L 431.36365,183.42974 L 431.36365,158.63635 L 443.28733,146.71267 M 420.69508,169.30492 L 420.69508,192.15857 L 411.09337,200.01451 L 411.09337,178.90663 L 420.69508,169.30492 M 402.40611,187.59389 L 402.40611,207.12227 L 394.5086,213.58387 L 394.5086,195.4914 L 402.40611,187.59389 M 532.715,100.50591 L 532.715,143.72682 L 509.32622,158.61058 L 509.32622,119.64218 L 532.715,100.50591 M 489.2787,136.0447 L 489.2787,171.36809 L 471.90419,182.42461 L 471.90419,150.26021 L 489.2787,136.0447 M 456.70148,162.69879 L 456.70148,192.09905 L 443.28733,200.63533 L 443.28733,173.674 L 456.70148,162.69879 M 431.36365,183.42974 L 431.36365,208.22314 L 420.69508,215.01222 L 420.69508,192.15857 L 431.36365,183.42974 M 411.09337,200.01451 L 411.09337,221.1224 L 402.40611,226.65066 L 402.40611,207.12227 L 411.09337,200.01451 M 560.35628,126.13692 L 560.35628,174.38351 L 532.715,186.94773 L 532.715,143.72682 L 560.35628,126.13692 M 509.32622,158.61058 L 509.32622,197.57899 L 489.2787,206.6915 L 489.2787,171.36809 L 509.32622,158.61058 M 471.90419,182.42461 L 471.90419,214.58901 L 456.70148,221.49933 L 456.70148,192.09905 L 471.90419,182.42461 M 443.28733,200.63533 L 443.28733,227.59667 L 431.36365,233.01653 L 431.36365,208.22314 L 443.28733,200.63533 M 420.69508,215.01222 L 420.69508,237.86587 L 411.09337,242.23029 L 411.09337,221.1224 L 420.69508,215.01222 M 402.40611,226.65066 L 402.40611,246.17904 L 394.5086,249.76881 L 394.5086,231.67634 L 402.40611,226.65066 M 532.715,186.94773 L 532.715,230.16864 L 509.32622,236.54739 L 509.32622,197.57899 L 532.715,186.94773 M 489.2787,206.6915 L 489.2787,242.0149 L 471.90419,246.75341 L 471.90419,214.58901 L 489.2787,206.6915 M 456.70148,221.49933 L 456.70148,250.8996 L 443.28733,254.558 L 443.28733,227.59667 L 456.70148,221.49933 M 431.36365,233.01653 L 431.36365,257.80991 L 420.69508,260.71952 L 420.69508,237.86587 L 431.36365,233.01653 M 411.09337,242.23029 L 411.09337,263.33817 L 402.40611,265.70743 L 402.40611,246.17904 L 411.09337,242.23029 M 560.35628,222.6301 L 560.35628,270.8767 L 532.715,273.38954 L 532.715,230.16864 L 560.35628,222.6301 M 509.32622,236.54739 L 509.32622,275.5158 L 489.2787,277.3383 L 489.2787,242.0149 L 509.32622,236.54739 M 471.90419,246.75341 L 471.90419,278.9178 L 456.70148,280.29987 L 456.70148,250.8996 L 471.90419,246.75341 M 443.28733,254.558 L 443.28733,281.51933 L 431.36365,282.6033 L 431.36365,257.80991 L 443.28733,254.558 M 420.69508,260.71952 L 420.69508,283.57317 L 411.09337,284.44606 L 411.09337,263.33817 L 420.69508,260.71952 M 402.40611,265.70743 L 402.40611,285.23581 L 394.5086,285.95377 L 394.5086,267.86129 L 402.40611,265.70743 M 532.715,273.38954 L 532.715,316.61046 L 509.32622,314.4842 L 509.32622,275.5158 L 532.715,273.38954 M 489.2787,277.3383 L 489.2787,312.6617 L 471.90419,311.0822 L 471.90419,278.9178 L 489.2787,277.3383 M 456.70148,280.29987 L 456.70148,309.70013 L 443.28733,308.48067 L 443.28733,281.51933 L 456.70148,280.29987 M 431.36365,282.6033 L 431.36365,307.3967 L 420.69508,306.42683 L 420.69508,283.57317 L 431.36365,282.6033 M 411.09337,284.44606 L 411.09337,305.55394 L 402.40611,304.76419 L 402.40611,285.23581 L 411.09337,284.44606 M 560.35628,319.1233 L 560.35628,367.3699 L 532.715,359.83136 L 532.715,316.61046 L 560.35628,319.1233 M 509.32622,314.4842 L 509.32622,353.45261 L 489.2787,347.9851 L 489.2787,312.6617 L 509.32622,314.4842 M 471.90419,311.0822 L 471.90419,343.24659 L 456.70148,339.1004 L 456.70148,309.70013 L 471.90419,311.0822 M 443.28733,308.48067 L 443.28733,335.442 L 431.36365,332.19009 L 431.36365,307.3967 L 443.28733,308.48067 M 420.69508,306.42683 L 420.69508,329.28048 L 411.09337,326.66183 L 411.09337,305.55394 L 420.69508,306.42683 M 402.40611,304.76419 L 402.40611,324.29257 L 394.5086,322.13871 L 394.5086,304.04623 L 402.40611,304.76419 M 532.715,359.83136 L 532.715,403.05227 L 509.32622,392.42101 L 509.32622,353.45261 L 532.715,359.83136 M 489.2787,347.9851 L 489.2787,383.3085 L 471.90419,375.41099 L 471.90419,343.24659 L 489.2787,347.9851 M 456.70148,339.1004 L 456.70148,368.50067 L 443.28733,362.40333 L 443.28733,335.442 L 456.70148,339.1004 M 431.36365,332.19009 L 431.36365,356.98347 L 420.69508,352.13413 L 420.69508,329.28048 L 431.36365,332.19009 M 411.09337,326.66183 L 411.09337,347.76971 L 402.40611,343.82096 L 402.40611,324.29257 L 411.09337,326.66183 M 560.35628,415.61649 L 560.35628,463.86308 L 532.715,446.27318 L 532.715,403.05227 L 560.35628,415.61649 M 509.32622,392.42101 L 509.32622,431.38942 L 489.2787,418.63191 L 489.2787,383.3085 L 509.32622,392.42101 M 471.90419,375.41099 L 471.90419,407.57539 L 456.70148,397.90095 L 456.70148,368.50067 L 471.90419,375.41099 M 443.28733,362.40333 L 443.28733,389.36467 L 431.36365,381.77686 L 431.36365,356.98347 L 443.28733,362.40333 M 420.69508,352.13413 L 420.69508,374.98778 L 411.09337,368.8776 L 411.09337,347.76971 L 420.69508,352.13413 M 402.40611,343.82096 L 402.40611,363.34934 L 394.5086,358.32366 L 394.5086,340.23119 L 402.40611,343.82096 M 532.715,446.27318 L 532.715,489.49409 L 509.32622,470.35782 L 509.32622,431.38942 L 532.715,446.27318 M 489.2787,418.63191 L 489.2787,453.9553 L 471.90419,439.73979 L 471.90419,407.57539 L 489.2787,418.63191 M 456.70148,397.90095 L 456.70148,427.30121 L 443.28733,416.326 L 443.28733,389.36467 L 456.70148,397.90095 M 431.36365,381.77686 L 431.36365,406.57026 L 420.69508,397.84143 L 420.69508,374.98778 L 431.36365,381.77686 M 411.09337,368.8776 L 411.09337,389.98549 L 402.40611,382.87773 L 402.40611,363.34934 L 411.09337,368.8776 M 560.35628,512.10969 L 560.35628,560.35628 L 532.715,532.715 L 532.715,489.49409 L 560.35628,512.10969 M 509.32622,470.35782 L 509.32622,509.32622 L 489.2787,489.2787 L 489.2787,453.9553 L 509.32622,470.35782 M 471.90419,439.73979 L 471.90419,471.90419 L 456.70148,456.70148 L 456.70148,427.30121 L 471.90419,439.73979 M 443.28733,416.326 L 443.28733,443.28733 L 431.36365,431.36365 L 431.36365,406.57026 L 443.28733,416.326 M 420.69508,397.84143 L 420.69508,420.69508 L 411.09337,411.09337 L 411.09337,389.98549 L 420.69508,397.84143 M 402.40611,382.87773 L 402.40611,402.40611 L 394.5086,394.5086 L 394.5086,376.41613 L 402.40611,382.87773 M 560.35628,560.35628 L 512.10969,560.35628 L 489.49409,532.715 L 532.715,532.715 L 560.35628,560.35628 M 509.32622,509.32622 L 470.35782,509.32622 L 453.9553,489.2787 L 489.2787,489.2787 L 509.32622,509.32622 M 471.90419,471.90419 L 439.73979,471.90419 L 427.30121,456.70148 L 456.70148,456.70148 L 471.90419,471.90419 M 443.28733,443.28733 L 416.326,443.28733 L 406.57026,431.36365 L 431.36365,431.36365 L 443.28733,443.28733 M 420.69508,420.69508 L 397.84143,420.69508 L 389.98549,411.09337 L 411.09337,411.09337 L 420.69508,420.69508 M 402.40611,402.40611 L 382.87773,402.40611 L 376.41613,394.5086 L 394.5086,394.5086 L 402.40611,402.40611 M 489.49409,532.715 L 446.27318,532.715 L 431.38942,509.32622 L 470.35782,509.32622 L 489.49409,532.715 M 453.9553,489.2787 L 418.63191,489.2787 L 407.57539,471.90419 L 439.73979,471.90419 L 453.9553,489.2787 M 427.30121,456.70148 L 397.90095,456.70148 L 389.36467,443.28733 L 416.326,443.28733 L 427.30121,456.70148 M 406.57026,431.36365 L 381.77686,431.36365 L 374.98778,420.69508 L 397.84143,420.69508 L 406.57026,431.36365 M 389.98549,411.09337 L 368.8776,411.09337 L 363.34934,402.40611 L 382.87773,402.40611 L 389.98549,411.09337 M 463.86308,560.35628 L 415.61649,560.35628 L 403.05227,532.715 L 446.27318,532.715 L 463.86308,560.35628 M 431.38942,509.32622 L 392.42101,509.32622 L 383.3085,489.2787 L 418.63191,489.2787 L 431.38942,509.32622 M 407.57539,471.90419 L 375.41099,471.90419 L 368.50067,456.70148 L 397.90095,456.70148 L 407.57539,471.90419 M 389.36467,443.28733 L 362.40333,443.28733 L 356.98347,431.36365 L 381.77686,431.36365 L 389.36467,443.28733 M 374.98778,420.69508 L 352.13413,420.69508 L 347.76971,411.09337 L 368.8776,411.09337 L 374.98778,420.69508 M 363.34934,402.40611 L 343.82096,402.40611 L 340.23119,394.5086 L 358.32366,394.5086 L 363.34934,402.40611 M 403.05227,532.715 L 359.83136,532.715 L 353.45261,509.32622 L 392.42101,509.32622 L 403.05227,532.715 M 383.3085,489.2787 L 347.9851,489.2787 L 343.24659,471.90419 L 375.41099,471.90419 L 383.3085,489.2787 M 368.50067,456.70148 L 339.1004,456.70148 L 335.442,443.28733 L 362.40333,443.28733 L 368.50067,456.70148 M 356.98347,431.36365 L 332.19009,431.36365 L 329.28048,420.69508 L 352.13413,420.69508 L 356.98347,431.36365 M 347.76971,411.09337 L 326.66183,411.09337 L 324.29257,402.40611 L 343.82096,402.40611 L 347.76971,411.09337 M 367.3699,560.35628 L 319.1233,560.35628 L 316.61046,532.715 L 359.83136,532.715 L 367.3699,560.35628 M 353.45261,509.32622 L 314.4842,509.32622 L 312.6617,489.2787 L 347.9851,489.2787 L 353.45261,509.32622 M 343.24659,471.90419 L 311.0822,471.90419 L 309.70013,456.70148 L 339.1004,456.70148 L 343.24659,471.90419 M 335.442,443.28733 L 308.48067,443.28733 L 307.3967,431.36365 L 332.19009,431.36365 L 335.442,443.28733 M 329.28048,420.69508 L 306.42683,420.69508 L 305.55394,411.09337 L 326.66183,411.09337 L 329.28048,420.69508 M 324.29257,402.40611 L 304.76419,402.40611 L 304.04623,394.5086 L 322.13871,394.5086 L 324.29257,402.40611 M 316.61046,532.715 L 273.38954,532.715 L 275.5158,509.32622 L 314.4842,509.32622 L 316.61046,532.715 M 312.6617,489.2787 L 277.3383,489.2787 L 278.9178,471.90419 L 311.0822,471.90419 L 312.6617,489.2787 M 309.70013,456.70148 L 280.29987,456.70148 L 281.51933,443.28733 L 308.48067,443.28733 L 309.70013,456.70148 M 307.3967,431.36365 L 282.6033,431.36365 L 283.57317,420.69508 L 306.42683,420.69508 L 307.3967,431.36365 M 305.55394,411.09337 L 284.44606,411.09337 L 285.23581,402.40611 L 304.76419,402.40611 L 305.55394,411.09337 M 270.8767,560.35628 L 222.6301,560.35628 L 230.16864,532.715 L 273.38954,532.715 L 270.8767,560.35628 M 275.5158,509.32622 L 236.54739,509.32622 L 242.0149,489.2787 L 277.3383,489.2787 L 275.5158,509.32622 M 278.9178,471.90419 L 246.75341,471.90419 L 250.8996,456.70148 L 280.29987,456.70148 L 278.9178,471.90419 M 281.51933,443.28733 L 254.558,443.28733 L 257.80991,431.36365 L 282.6033,431.36365 L 281.51933,443.28733 M 283.57317,420.69508 L 260.71952,420.69508 L 263.33817,411.09337 L 284.44606,411.09337 L 283.57317,420.69508 M 285.23581,402.40611 L 265.70743,402.40611 L 267.86129,394.5086 L 285.95377,394.5086 L 285.23581,402.40611 M 230.16864,532.715 L 186.94773,532.715 L 197.57899,509.32622 L 236.54739,509.32622 L 230.16864,532.715 M 242.0149,489.2787 L 206.6915,489.2787 L 214.58901,471.90419 L 246.75341,471.90419 L 242.0149,489.2787 M 250.8996,456.70148 L 221.49933,456.70148 L 227.59667,443.28733 L 254.558,443.28733 L 250.8996,456.70148 M 257.80991,431.36365 L 233.01653,431.36365 L 237.86587,420.69508 L 260.71952,420.69508 L 257.80991,431.36365 M 263.33817,411.09337 L 242.23029,411.09337 L 246.17904,402.40611 L 265.70743,402.40611 L 263.33817,411.09337 M 174.38351,560.35628 L 126.13692,560.35628 L 143.72682,532.715 L 186.94773,532.715 L 174.38351,560.35628 M 197.57899,509.32622 L 158.61058,509.32622 L 171.36809,489.2787 L 206.6915,489.2787 L 197.57899,509.32622 M 214.58901,471.90419 L 182.42461,471.90419 L 192.09905,456.70148 L 221.49933,456.70148 L 214.58901,471.90419 M 227.59667,443.28733 L 200.63533,443.28733 L 208.22314,431.36365 L 233.01653,431.36365 L 227.59667,443.28733 M 237.86587,420.69508 L 215.01222,420.69508 L 221.1224,411.09337 L 242.23029,411.09337 L 237.86587,420.69508 M 246.17904,402.40611 L 226.65066,402.40611 L 231.67634,394.5086 L 249.76881,394.5086 L 246.17904,402.40611 M 143.72682,532.715 L 100.50591,532.715 L 119.64218,509.32622 L 158.61058,509.32622 L 143.72682,532.715 M 171.36809,489.2787 L 136.0447,489.2787 L 150.26021,471.90419 L 182.42461,471.90419 L 171.36809,489.2787 M 192.09905,456.70148 L 162.69879,456.70148 L 173.674,443.28733 L 200.63533,443.28733 L 192.09905,456.70148 M 208.22314,431.36365 L 183.42974,431.36365 L 192.15857,420.69508 L 215.01222,420.69508 L 208.22314,431.36365 M 221.1224,411.09337 L 200.01451,411.09337 L 207.12227,402.40611 L 226.65066,402.40611 L 221.1224,411.09337 M 77.890315,560.35628 L 29.64372,560.35628 L 57.285001,532.715 L 100.50591,532.715 L 77.890315,560.35628 M 119.64218,509.32622 L 80.673776,509.32622 L 100.7213,489.2787 L 136.0447,489.2787 L 119.64218,509.32622 M 150.26021,471.90419 L 118.09581,471.90419 L 133.29852,456.70148 L 162.69879,456.70148 L 150.26021,471.90419 M 173.674,443.28733 L 146.71267,443.28733 L 158.63635,431.36365 L 183.42974,431.36365 L 173.674,443.28733 M 192.15857,420.69508 L 169.30492,420.69508 L 178.90663,411.09337 L 200.01451,411.09337 L 192.15857,420.69508 M 207.12227,402.40611 L 187.59389,402.40611 L 195.4914,394.5086 L 213.58387,394.5086 L 207.12227,402.40611 M 29.64372,560.35628 L 29.64372,512.10969 L 57.285001,489.49409 L 57.285001,532.715 L 29.64372,560.35628 M 80.673776,509.32622 L 80.673776,470.35782 L 100.7213,453.9553 L 100.7213,489.2787 L 80.673776,509.32622 M 118.09581,471.90419 L 118.09581,439.73979 L 133.29852,427.30121 L 133.29852,456.70148 L 118.09581,471.90419 M 146.71267,443.28733 L 146.71267,416.326 L 158.63635,406.57026 L 158.63635,431.36365 L 146.71267,443.28733 M 169.30492,420.69508 L 169.30492,397.84143 L 178.90663,389.98549 L 178.90663,411.09337 L 169.30492,420.69508 M 187.59389,402.40611 L 187.59389,382.87773 L 195.4914,376.41613 L 195.4914,394.5086 L 187.59389,402.40611 M 57.285001,489.49409 L 57.285001,446.27318 L 80.673776,431.38942 L 80.673776,470.35782 L 57.285001,489.49409 M 100.7213,453.9553 L 100.7213,418.63191 L 118.09581,407.57539 L 118.09581,439.73979 L 100.7213,453.9553 M 133.29852,427.30121 L 133.29852,397.90095 L 146.71267,389.36467 L 146.71267,416.326 L 133.29852,427.30121 M 158.63635,406.57026 L 158.63635,381.77686 L 169.30492,374.98778 L 169.30492,397.84143 L 158.63635,406.57026 M 178.90663,389.98549 L 178.90663,368.8776 L 187.59389,363.34934 L 187.59389,382.87773 L 178.90663,389.98549 M 29.64372,463.86308 L 29.64372,415.61649 L 57.285001,403.05227 L 57.285001,446.27318 L 29.64372,463.86308 M 80.673776,431.38942 L 80.673776,392.42101 L 100.7213,383.3085 L 100.7213,418.63191 L 80.673776,431.38942 M 118.09581,407.57539 L 118.09581,375.41099 L 133.29852,368.50067 L 133.29852,397.90095 L 118.09581,407.57539 M 146.71267,389.36467 L 146.71267,362.40333 L 158.63635,356.98347 L 158.63635,381.77686 L 146.71267,389.36467 M 169.30492,374.98778 L 169.30492,352.13413 L 178.90663,347.76971 L 178.90663,368.8776 L 169.30492,374.98778 M 187.59389,363.34934 L 187.59389,343.82096 L 195.4914,340.23119 L 195.4914,358.32366 L 187.59389,363.34934 M 57.285001,403.05227 L 57.285001,359.83136 L 80.673776,353.45261 L 80.673776,392.42101 L 57.285001,403.05227 M 100.7213,383.3085 L 100.7213,347.9851 L 118.09581,343.24659 L 118.09581,375.41099 L 100.7213,383.3085 M 133.29852,368.50067 L 133.29852,339.1004 L 146.71267,335.442 L 146.71267,362.40333 L 133.29852,368.50067 M 158.63635,356.98347 L 158.63635,332.19009 L 169.30492,329.28048 L 169.30492,352.13413 L 158.63635,356.98347 M 178.90663,347.76971 L 178.90663,326.66183 L 187.59389,324.29257 L 187.59389,343.82096 L 178.90663,347.76971 M 29.64372,367.3699 L 29.64372,319.1233 L 57.285001,316.61046 L 57.285001,359.83136 L 29.64372,367.3699 M 80.673776,353.45261 L 80.673776,314.4842 L 100.7213,312.6617 L 100.7213,347.9851 L 80.673776,353.45261 M 118.09581,343.24659 L 118.09581,311.0822 L 133.29852,309.70013 L 133.29852,339.1004 L 118.09581,343.24659 M 146.71267,335.442 L 146.71267,308.48067 L 158.63635,307.3967 L 158.63635,332.19009 L 146.71267,335.442 M 169.30492,329.28048 L 169.30492,306.42683 L 178.90663,305.55394 L 178.90663,326.66183 L 169.30492,329.28048 M 187.59389,324.29257 L 187.59389,304.76419 L 195.4914,304.04623 L 195.4914,322.13871 L 187.59389,324.29257 M 57.285001,316.61046 L 57.285001,273.38954 L 80.673776,275.5158 L 80.673776,314.4842 L 57.285001,316.61046 M 100.7213,312.6617 L 100.7213,277.3383 L 118.09581,278.9178 L 118.09581,311.0822 L 100.7213,312.6617 M 133.29852,309.70013 L 133.29852,280.29987 L 146.71267,281.51933 L 146.71267,308.48067 L 133.29852,309.70013 M 158.63635,307.3967 L 158.63635,282.6033 L 169.30492,283.57317 L 169.30492,306.42683 L 158.63635,307.3967 M 178.90663,305.55394 L 178.90663,284.44606 L 187.59389,285.23581 L 187.59389,304.76419 L 178.90663,305.55394 M 29.64372,270.8767 L 29.64372,222.6301 L 57.285001,230.16864 L 57.285001,273.38954 L 29.64372,270.8767 M 80.673776,275.5158 L 80.673776,236.54739 L 100.7213,242.0149 L 100.7213,277.3383 L 80.673776,275.5158 M 118.09581,278.9178 L 118.09581,246.75341 L 133.29852,250.8996 L 133.29852,280.29987 L 118.09581,278.9178 M 146.71267,281.51933 L 146.71267,254.558 L 158.63635,257.80991 L 158.63635,282.6033 L 146.71267,281.51933 M 169.30492,283.57317 L 169.30492,260.71952 L 178.90663,263.33817 L 178.90663,284.44606 L 169.30492,283.57317 M 187.59389,285.23581 L 187.59389,265.70743 L 195.4914,267.86129 L 195.4914,285.95377 L 187.59389,285.23581 M 57.285001,230.16864 L 57.285001,186.94773 L 80.673776,197.57899 L 80.673776,236.54739 L 57.285001,230.16864 M 100.7213,242.0149 L 100.7213,206.6915 L 118.09581,214.58901 L 118.09581,246.75341 L 100.7213,242.0149 M 133.29852,250.8996 L 133.29852,221.49933 L 146.71267,227.59667 L 146.71267,254.558 L 133.29852,250.8996 M 158.63635,257.80991 L 158.63635,233.01653 L 169.30492,237.86587 L 169.30492,260.71952 L 158.63635,257.80991 M 178.90663,263.33817 L 178.90663,242.23029 L 187.59389,246.17904 L 187.59389,265.70743 L 178.90663,263.33817 M 29.64372,174.38351 L 29.64372,126.13692 L 57.285001,143.72682 L 57.285001,186.94773 L 29.64372,174.38351 M 80.673776,197.57899 L 80.673776,158.61058 L 100.7213,171.36809 L 100.7213,206.6915 L 80.673776,197.57899 M 118.09581,214.58901 L 118.09581,182.42461 L 133.29852,192.09905 L 133.29852,221.49933 L 118.09581,214.58901 M 146.71267,227.59667 L 146.71267,200.63533 L 158.63635,208.22314 L 158.63635,233.01653 L 146.71267,227.59667 M 169.30492,237.86587 L 169.30492,215.01222 L 178.90663,221.1224 L 178.90663,242.23029 L 169.30492,237.86587 M 187.59389,246.17904 L 187.59389,226.65066 L 195.4914,231.67634 L 195.4914,249.76881 L 187.59389,246.17904 M 57.285001,143.72682 L 57.285001,100.50591 L 80.673776,119.64218 L 80.673776,158.61058 L 57.285001,143.72682 M 100.7213,171.36809 L 100.7213,136.0447 L 118.09581,150.26021 L 118.09581,182.42461 L 100.7213,171.36809 M 133.29852,192.09905 L 133.29852,162.69879 L 146.71267,173.674 L 146.71267,200.63533 L 133.29852,192.09905 M 158.63635,208.22314 L 158.63635,183.42974 L 169.30492,192.15857 L 169.30492,215.01222 L 158.63635,208.22314 M 178.90663,221.1224 L 178.90663,200.01451 L 187.59389,207.12227 L 187.59389,226.65066 L 178.90663,221.1224 M 29.64372,77.890315 L 29.64372,29.64372 L 57.285001,57.285001 L 57.285001,100.50591 L 29.64372,77.890315 M 80.673776,119.64218 L 80.673776,80.673776 L 100.7213,100.7213 L 100.7213,136.0447 L 80.673776,119.64218 M 118.09581,150.26021 L 118.09581,118.09581 L 133.29852,133.29852 L 133.29852,162.69879 L 118.09581,150.26021 M 146.71267,173.674 L 146.71267,146.71267 L 158.63635,158.63635 L 158.63635,183.42974 L 146.71267,173.674 M 169.30492,192.15857 L 169.30492,169.30492 L 178.90663,178.90663 L 178.90663,200.01451 L 169.30492,192.15857 M 187.59389,207.12227 L 187.59389,187.59389 L 195.4914,195.4914 L 195.4914,213.58387 L 187.59389,207.12227 M 29.64372,29.64372 L 77.890315,29.64372 L 100.50591,57.285001 L 57.285001,57.285001 L 29.64372,29.64372 M 80.673776,80.673776 L 119.64218,80.673776 L 136.0447,100.7213 L 100.7213,100.7213 L 80.673776,80.673776 M 118.09581,118.09581 L 150.26021,118.09581 L 162.69879,133.29852 L 133.29852,133.29852 L 118.09581,118.09581 M 146.71267,146.71267 L 173.674,146.71267 L 183.42974,158.63635 L 158.63635,158.63635 L 146.71267,146.71267 M 169.30492,169.30492 L 192.15857,169.30492 L 200.01451,178.90663 L 178.90663,178.90663 L 169.30492,169.30492 M 187.59389,187.59389 L 207.12227,187.59389 L 213.58387,195.4914 L 195.4914,195.4914 L 187.59389,187.59389 M 100.50591,57.285001 L 143.72682,57.285001 L 158.61058,80.673776 L 119.64218,80.673776 L 100.50591,57.285001 M 136.0447,100.7213 L 171.36809,100.7213 L 182.42461,118.09581 L 150.26021,118.09581 L 136.0447,100.7213 M 162.69879,133.29852 L 192.09905,133.29852 L 200.63533,146.71267 L 173.674,146.71267 L 162.69879,133.29852 M 183.42974,158.63635 L 208.22314,158.63635 L 215.01222,169.30492 L 192.15857,169.30492 L 183.42974,158.63635 M 200.01451,178.90663 L 221.1224,178.90663 L 226.65066,187.59389 L 207.12227,187.59389 L 200.01451,178.90663 M 126.13692,29.64372 L 174.38351,29.64372 L 186.94773,57.285001 L 143.72682,57.285001 L 126.13692,29.64372 M 158.61058,80.673776 L 197.57899,80.673776 L 206.6915,100.7213 L 171.36809,100.7213 L 158.61058,80.673776 M 182.42461,118.09581 L 214.58901,118.09581 L 221.49933,133.29852 L 192.09905,133.29852 L 182.42461,118.09581 M 200.63533,146.71267 L 227.59667,146.71267 L 233.01653,158.63635 L 208.22314,158.63635 L 200.63533,146.71267 M 215.01222,169.30492 L 237.86587,169.30492 L 242.23029,178.90663 L 221.1224,178.90663 L 215.01222,169.30492 M 226.65066,187.59389 L 246.17904,187.59389 L 249.76881,195.4914 L 231.67634,195.4914 L 226.65066,187.59389 M 186.94773,57.285001 L 230.16864,57.285001 L 236.54739,80.673776 L 197.57899,80.673776 L 186.94773,57.285001 M 206.6915,100.7213 L 242.0149,100.7213 L 246.75341,118.09581 L 214.58901,118.09581 L 206.6915,100.7213 M 221.49933,133.29852 L 250.8996,133.29852 L 254.558,146.71267 L 227.59667,146.71267 L 221.49933,133.29852 M 233.01653,158.63635 L 257.80991,158.63635 L 260.71952,169.30492 L 237.86587,169.30492 L 233.01653,158.63635 M 242.23029,178.90663 L 263.33817,178.90663 L 265.70743,187.59389 L 246.17904,187.59389 L 242.23029,178.90663 M 222.6301,29.64372 L 270.8767,29.64372 L 273.38954,57.285001 L 230.16864,57.285001 L 222.6301,29.64372 M 236.54739,80.673776 L 275.5158,80.673776 L 277.3383,100.7213 L 242.0149,100.7213 L 236.54739,80.673776 M 246.75341,118.09581 L 278.9178,118.09581 L 280.29987,133.29852 L 250.8996,133.29852 L 246.75341,118.09581 M 254.558,146.71267 L 281.51933,146.71267 L 282.6033,158.63635 L 257.80991,158.63635 L 254.558,146.71267 M 260.71952,169.30492 L 283.57317,169.30492 L 284.44606,178.90663 L 263.33817,178.90663 L 260.71952,169.30492 M 265.70743,187.59389 L 285.23581,187.59389 L 285.95377,195.4914 L 267.86129,195.4914 L 265.70743,187.59389 M 273.38954,57.285001 L 316.61046,57.285001 L 314.4842,80.673776 L 275.5158,80.673776 L 273.38954,57.285001 M 277.3383,100.7213 L 312.6617,100.7213 L 311.0822,118.09581 L 278.9178,118.09581 L 277.3383,100.7213 M 280.29987,133.29852 L 309.70013,133.29852 L 308.48067,146.71267 L 281.51933,146.71267 L 280.29987,133.29852 M 282.6033,158.63635 L 307.3967,158.63635 L 306.42683,169.30492 L 283.57317,169.30492 L 282.6033,158.63635 M 284.44606,178.90663 L 305.55394,178.90663 L 304.76419,187.59389 L 285.23581,187.59389 L 284.44606,178.90663 M 319.1233,29.64372 L 367.3699,29.64372 L 359.83136,57.285001 L 316.61046,57.285001 L 319.1233,29.64372 M 314.4842,80.673776 L 353.45261,80.673776 L 347.9851,100.7213 L 312.6617,100.7213 L 314.4842,80.673776 M 311.0822,118.09581 L 343.24659,118.09581 L 339.1004,133.29852 L 309.70013,133.29852 L 311.0822,118.09581 M 308.48067,146.71267 L 335.442,146.71267 L 332.19009,158.63635 L 307.3967,158.63635 L 308.48067,146.71267 M 306.42683,169.30492 L 329.28048,169.30492 L 326.66183,178.90663 L 305.55394,178.90663 L 306.42683,169.30492 M 304.76419,187.59389 L 324.29257,187.59389 L 322.13871,195.4914 L 304.04623,195.4914 L 304.76419,187.59389 M 359.83136,57.285001 L 403.05227,57.285001 L 392.42101,80.673776 L 353.45261,80.673776 L 359.83136,57.285001 M 347.9851,100.7213 L 383.3085,100.7213 L 375.41099,118.09581 L 343.24659,118.09581 L 347.9851,100.7213 M 339.1004,133.29852 L 368.50067,133.29852 L 362.40333,146.71267 L 335.442,146.71267 L 339.1004,133.29852 M 332.19009,158.63635 L 356.98347,158.63635 L 352.13413,169.30492 L 329.28048,169.30492 L 332.19009,158.63635 M 326.66183,178.90663 L 347.76971,178.90663 L 343.82096,187.59389 L 324.29257,187.59389 L 326.66183,178.90663 M 415.61649,29.64372 L 463.86308,29.64372 L 446.27318,57.285001 L 403.05227,57.285001 L 415.61649,29.64372 M 392.42101,80.673776 L 431.38942,80.673776 L 418.63191,100.7213 L 383.3085,100.7213 L 392.42101,80.673776 M 375.41099,118.09581 L 407.57539,118.09581 L 397.90095,133.29852 L 368.50067,133.29852 L 375.41099,118.09581 M 362.40333,146.71267 L 389.36467,146.71267 L 381.77686,158.63635 L 356.98347,158.63635 L 362.40333,146.71267 M 352.13413,169.30492 L 374.98778,169.30492 L 368.8776,178.90663 L 347.76971,178.90663 L 352.13413,169.30492 M 343.82096,187.59389 L 363.34934,187.59389 L 358.32366,195.4914 L 340.23119,195.4914 L 343.82096,187.59389 M 446.27318,57.285001 L 489.49409,57.285001 L 470.35782,80.673776 L 431.38942,80.673776 L 446.27318,57.285001 M 418.63191,100.7213 L 453.9553,100.7213 L 439.73979,118.09581 L 407.57539,118.09581 L 418.63191,100.7213 M 397.90095,133.29852 L 427.30121,133.29852 L 416.326,146.71267 L 389.36467,146.71267 L 397.90095,133.29852 M 381.77686,158.63635 L 406.57026,158.63635 L 397.84143,169.30492 L 374.98778,169.30492 L 381.77686,158.63635 M 368.8776,178.90663 L 389.98549,178.90663 L 382.87773,187.59389 L 363.34934,187.59389 L 368.8776,178.90663 M 512.10969,29.64372 L 560.35628,29.64372 L 532.715,57.285001 L 489.49409,57.285001 L 512.10969,29.64372 M 470.35782,80.673776 L 509.32622,80.673776 L 489.2787,100.7213 L 453.9553,100.7213 L 470.35782,80.673776 M 439.73979,118.09581 L 471.90419,118.09581 L 456.70148,133.29852 L 427.30121,133.29852 L 439.73979,118.09581 M 416.326,146.71267 L 443.28733,146.71267 L 431.36365,158.63635 L 406.57026,158.63635 L 416.326,146.71267 M 397.84143,169.30492 L 420.69508,169.30492 L 411.09337,178.90663 L 389.98549,178.90663 L 397.84143,169.30492 M 382.87773,187.59389 L 402.40611,187.59389 L 394.5086,195.4914 L 376.41613,195.4914 L 382.87773,187.59389"
       id="path4006" />
  </g>
</svg>
