<?xml version="1.0" encoding="UTF-8" standalone="no"?>
<svg
   xmlns:dc="http://purl.org/dc/elements/1.1/"
   xmlns:cc="http://web.resource.org/cc/"
   xmlns:rdf="http://www.w3.org/1999/02/22-rdf-syntax-ns#"
   xmlns:svg="http://www.w3.org/2000/svg"
   xmlns="http://www.w3.org/2000/svg"
   xmlns:xlink="http://www.w3.org/1999/xlink"
   xmlns:sodipodi="http://sodipodi.sourceforge.net/DTD/sodipodi-0.dtd"
   xmlns:inkscape="http://www.inkscape.org/namespaces/inkscape"
   width="590"
   xlink:xlink="xlink"
   height="590"
   id="svg2"
   sodipodi:version="0.32"
   inkscape:version="0.45"
   sodipodi:docname="cornerdbox.svg"
   sodipodi:docbase="/media/oldubu/home/tamarind/0_Code_0/play-svg/scripts/images"
   inkscape:output_extension="org.inkscape.output.svg.inkscape"
   sodipodi:modified="true">
  <metadata
     id="metadata16">
    <rdf:RDF>
      <cc:Work
         rdf:about="">
        <dc:format>image/svg+xml</dc:format>
        <dc:type
           rdf:resource="http://purl.org/dc/dcmitype/StillImage" />
      </cc:Work>
    </rdf:RDF>
  </metadata>
  <sodipodi:namedview
     inkscape:window-height="693"
     inkscape:window-width="1024"
     inkscape:pageshadow="2"
     inkscape:pageopacity="0.0"
     guidetolerance="10.0"
     gridtolerance="10.0"
     objecttolerance="10.0"
     borderopacity="1.0"
     bordercolor="#666666"
     pagecolor="#ffffff"
     id="base"
     inkscape:zoom="0.68983051"
     inkscape:cx="295"
     inkscape:cy="294.27518"
     inkscape:window-x="0"
     inkscape:window-y="25"
     inkscape:current-layer="svg2" />
  <defs
     id="defs4" />
  <g
     id="canvas"
     transform="matrix(1.8620732,0,0,-1.8620732,15.68902,574.31098)">
    <path
       style="fill:none;stroke:#000000"
       d="M 81.25,0 L 300,0 L 300,218.75 L 218.75,218.75 L 218.75,300 L 0,300 L 0,81.25 L 81.25,81.25 L 81.25,0 z "
       id="path7" />
    <path
       style="fill:#000000;stroke:none"
       d="M 100,18.75 L 281.25,18.75 L 281.25,200 L 237.5,200 L 237.5,62.5 L 100,62.5 L 100,18.75 z "
       id="path9" />
    <path
       style="fill:#000000;stroke:none"
       d="M 18.75,100 L 18.75,281.25 L 200,281.25 L 200,237.5 L 62.5,237.5 L 62.5,100 L 18.75,100 z "
       id="path11" />
    <path
       style="fill:#000000;stroke:none"
       d="M 81.25,81.25 L 218.75,81.25 L 218.75,218.75 L 81.25,218.75 L 81.25,81.25 z "
       id="path13" />
  </g>
</svg>
