<?xml version="1.0" encoding="UTF-8" standalone="no"?>
<svg
   xmlns:dc="http://purl.org/dc/elements/1.1/"
   xmlns:cc="http://web.resource.org/cc/"
   xmlns:rdf="http://www.w3.org/1999/02/22-rdf-syntax-ns#"
   xmlns:svg="http://www.w3.org/2000/svg"
   xmlns="http://www.w3.org/2000/svg"
   xmlns:xlink="http://www.w3.org/1999/xlink"
   xmlns:sodipodi="http://sodipodi.sourceforge.net/DTD/sodipodi-0.dtd"
   xmlns:inkscape="http://www.inkscape.org/namespaces/inkscape"
   width="590"
   xlink:xlink="xlink"
   height="590"
   id="svg2170"
   sodipodi:version="0.32"
   inkscape:version="0.45"
   sodipodi:docname="cube_burst.svg"
   sodipodi:docbase="/media/oldubu/home/tamarind/0_Code_0/play-svg/scripts/images/present"
   inkscape:output_extension="org.inkscape.output.svg.inkscape"
   sodipodi:modified="true">
  <sodipodi:namedview
     inkscape:window-height="693"
     inkscape:window-width="1024"
     inkscape:pageshadow="2"
     inkscape:pageopacity="0.0"
     guidetolerance="10.0"
     gridtolerance="10.0"
     objecttolerance="10.0"
     borderopacity="1.0"
     bordercolor="#666666"
     pagecolor="#ffffff"
     id="base"
     showguides="true"
     inkscape:guide-bbox="true"
     inkscape:zoom="0.97556766"
     inkscape:cx="347.67049"
     inkscape:cy="412.43431"
     inkscape:window-x="0"
     inkscape:window-y="25"
     inkscape:current-layer="svg2170" />
  <metadata
     id="metadata2178">
    <rdf:RDF>
      <cc:Work
         rdf:about="">
        <dc:format>image/svg+xml</dc:format>
        <dc:type
           rdf:resource="http://purl.org/dc/dcmitype/StillImage" />
      </cc:Work>
    </rdf:RDF>
  </metadata>
  <defs
     id="defs2172">
    <linearGradient
       id="linearGradient65550">
      <stop
         offset="0"
         id="stop65552"
         style="stop-color:#ffffff;stop-opacity:1;" />
      <stop
         offset="1"
         id="stop65554"
         style="stop-color:#000000;stop-opacity:1;" />
    </linearGradient>
    <linearGradient
       id="linearGradient64561">
      <stop
         offset="0"
         id="stop64563"
         style="stop-color:#000000;stop-opacity:0;" />
      <stop
         offset="1"
         id="stop64565"
         style="stop-color:#000000;stop-opacity:1;" />
    </linearGradient>
    <linearGradient
       id="linearGradient3159">
      <stop
         offset="0"
         id="stop3161"
         style="stop-color:#000000;stop-opacity:1;" />
      <stop
         offset="0.39285713"
         id="stop62621"
         style="stop-color:#000000;stop-opacity:0.81632656;" />
      <stop
         offset="1"
         id="stop3163"
         style="stop-color:#ffffff;stop-opacity:0;" />
    </linearGradient>
    <radialGradient
       inkscape:collect="always"
       id="radialGradient64567"
       r="259.80762"
       gradientTransform="scale(1,1.1134612)"
       cx="0"
       cy="0"
       gradientUnits="userSpaceOnUse"
       xlink:href="#linearGradient64561"
       fy="0"
       fx="0" />
    <radialGradient
       inkscape:collect="always"
       id="radialGradient64569"
       r="259.80762"
       gradientTransform="scale(1,1.1134612)"
       cx="0"
       cy="0"
       gradientUnits="userSpaceOnUse"
       xlink:href="#linearGradient64561"
       fy="0"
       fx="0" />
    <radialGradient
       inkscape:collect="always"
       id="radialGradient65548"
       r="47.888206"
       cx="340.66339"
       cy="294.27518"
       gradientUnits="userSpaceOnUse"
       xlink:href="#linearGradient65550"
       fy="294.27518"
       fx="340.66339" />
    <radialGradient
       inkscape:collect="always"
       id="radialGradient64567-150"
       r="259.80762"
       gradientTransform="scale(1,1.1134612)"
       cx="0"
       cy="0"
       gradientUnits="userSpaceOnUse"
       xlink:href="#linearGradient64561-726"
       fy="0"
       fx="0" />
    <linearGradient
       id="linearGradient64561-726">
      <stop
         offset="0"
         id="stop65593"
         style="stop-color:#000000;stop-opacity:0;" />
      <stop
         offset="1"
         id="stop65595"
         style="stop-color:#000000;stop-opacity:1;" />
    </linearGradient>
    <radialGradient
       inkscape:collect="always"
       id="radialGradient64569-902"
       r="259.80762"
       gradientTransform="scale(1,1.1134612)"
       cx="0"
       cy="0"
       gradientUnits="userSpaceOnUse"
       xlink:href="#linearGradient64561-247"
       fy="0"
       fx="0" />
    <linearGradient
       id="linearGradient64561-247">
      <stop
         offset="0"
         id="stop65599"
         style="stop-color:#000000;stop-opacity:0;" />
      <stop
         offset="1"
         id="stop65601"
         style="stop-color:#000000;stop-opacity:1;" />
    </linearGradient>
  </defs>
  <g
     transform="matrix(1,0,0,-1,295,295)"
     id="canvas"
     style="fill:url(#radialGradient64567-150);fill-opacity:1">
    <path
       id="path2175"
       d="M 0,200 L 18.55769,289.28571 L 24.74358,185.71429 L 55.67306,267.85714 L 49.48717,171.42857 L 92.78844,246.42857 L 74.23075,157.14286 L 129.90381,225 L 98.97433,142.85714 L 167.01919,203.57143 L 123.71791,128.57143 L 204.13456,182.14286 L 148.4615,114.28571 L 241.24993,160.71429 L 173.20508,100 L 259.80762,128.57143 L 173.20508,71.42857 L 259.80762,85.71429 L 173.20508,42.85714 L 259.80762,42.85714 L 173.20508,14.28571 L 259.80762,0 L 173.20508,-14.28571 L 259.80762,-42.85714 L 173.20508,-42.85714 L 259.80762,-85.71429 L 173.20508,-71.42857 L 259.80762,-128.57143 L 173.20508,-100 L 241.24993,-160.71429 L 148.4615,-114.28571 L 204.13456,-182.14286 L 123.71791,-128.57143 L 167.01919,-203.57143 L 98.97433,-142.85714 L 129.90381,-225 L 74.23075,-157.14286 L 92.78844,-246.42857 L 49.48717,-171.42857 L 55.67306,-267.85714 L 24.74358,-185.71429 L 18.55769,-289.28571 L 0,-200 L -18.55769,-289.28571 L -24.74358,-185.71429 L -55.67306,-267.85714 L -49.48717,-171.42857 L -92.78844,-246.42857 L -74.23075,-157.14286 L -129.90381,-225 L -98.97433,-142.85714 L -167.01919,-203.57143 L -123.71791,-128.57143 L -204.13456,-182.14286 L -148.4615,-114.28571 L -241.24993,-160.71429 L -173.20508,-100 L -259.80762,-128.57143 L -173.20508,-71.42857 L -259.80762,-85.71429 L -173.20508,-42.85714 L -259.80762,-42.85714 L -173.20508,-14.28571 L -259.80762,0 L -173.20508,14.28571 L -259.80762,42.85714 L -173.20508,42.85714 L -259.80762,85.71429 L -173.20508,71.42857 L -259.80762,128.57143 L -173.20508,100 L -241.24993,160.71429 L -148.4615,114.28571 L -204.13456,182.14286 L -123.71791,128.57143 L -167.01919,203.57143 L -98.97433,142.85714 L -129.90381,225 L -74.23075,157.14286 L -92.78844,246.42857 L -49.48717,171.42857 L -55.67306,267.85714 L -24.74358,185.71429 L -18.55769,289.28571 L 0,200 z "
       style="fill:url(#radialGradient64569-902);fill-opacity:1;stroke:none" />
  </g>
  <g
     id="g3233"
     transform="matrix(0.720319,0,0,-0.720319,295,295)"
     style="stroke:#000000;stroke-width:3.33323932;stroke-linecap:round;stroke-linejoin:round;stroke-miterlimit:4;stroke-dasharray:none;stroke-opacity:1">
    <g
       id="hexbox"
       style="stroke:#000000;stroke-width:3.33323932;stroke-linecap:round;stroke-linejoin:round;stroke-miterlimit:4;stroke-dasharray:none;stroke-opacity:1">
      <path
         d="M -173.20508,100 L 0,200 L 173.20508,100 L 0,0 L -173.20508,100 z "
         id="path3224"
         style="fill:#e8e8e8;fill-opacity:1;stroke:#000000;stroke-width:3.33323932;stroke-linecap:round;stroke-linejoin:round;stroke-miterlimit:4;stroke-dasharray:none;stroke-opacity:1" />
      <path
         d="M 173.20508,100 L 173.20508,-100 L 0,-200 L 0,0 L 173.20508,100 z "
         id="path3226"
         style="fill:#676767;fill-opacity:1;stroke:#000000;stroke-width:3.33323932;stroke-linecap:round;stroke-linejoin:round;stroke-miterlimit:4;stroke-dasharray:none;stroke-opacity:1" />
      <path
         d="M 0,-200 L -173.20508,-100 L -173.20508,100 L 0,0 L 0,-200 z "
         id="path3228"
         style="fill:#a0a0a0;fill-opacity:1;stroke:#000000;stroke-width:3.33323932;stroke-linecap:round;stroke-linejoin:round;stroke-miterlimit:4;stroke-dasharray:none;stroke-opacity:1" />
    </g>
  </g>
</svg>
