<?xml version="1.0" encoding="UTF-8" standalone="no"?>
<!-- Created with Inkscape (http://www.inkscape.org/) -->
<svg
   xmlns:dc="http://purl.org/dc/elements/1.1/"
   xmlns:cc="http://web.resource.org/cc/"
   xmlns:rdf="http://www.w3.org/1999/02/22-rdf-syntax-ns#"
   xmlns:svg="http://www.w3.org/2000/svg"
   xmlns="http://www.w3.org/2000/svg"
   xmlns:xlink="http://www.w3.org/1999/xlink"
   xmlns:sodipodi="http://sodipodi.sourceforge.net/DTD/sodipodi-0.dtd"
   xmlns:inkscape="http://www.inkscape.org/namespaces/inkscape"
   width="590"
   height="590"
   id="svg2"
   sodipodi:version="0.32"
   inkscape:version="0.45"
   sodipodi:docname="ray_block_demo.svg"
   sodipodi:docbase="/media/oldubu/home/tamarind/0_Code_0/play-svg/scripts/images"
   inkscape:output_extension="org.inkscape.output.svg.inkscape"
   version="1.0"
   sodipodi:modified="true">
  <sodipodi:namedview
     id="base"
     pagecolor="#ffffff"
     bordercolor="#666666"
     borderopacity="1.0"
     gridtolerance="10000"
     guidetolerance="10"
     objecttolerance="10"
     inkscape:pageopacity="0.0"
     inkscape:pageshadow="2"
     inkscape:zoom="0.35"
     inkscape:cx="375"
     inkscape:cy="404.28571"
     inkscape:document-units="px"
     inkscape:current-layer="svg2"
     width="590px"
     height="590px"
     inkscape:window-width="874"
     inkscape:window-height="626"
     inkscape:window-x="50"
     inkscape:window-y="25" />
  <defs
     id="defs4">
    <linearGradient
       id="linearGradient15019">
      <stop
         id="stop15021"
         offset="0"
         style="stop-color:#ff0016;stop-opacity:1;" />
      <stop
         style="stop-color:#ff7f0b;stop-opacity:1;"
         offset="0.2857143"
         id="stop15025" />
      <stop
         id="stop15023"
         offset="1"
         style="stop-color:#ffff00;stop-opacity:1;" />
    </linearGradient>
    <linearGradient
       id="linearGradient3278">
      <stop
         style="stop-color:#ffffff;stop-opacity:0;"
         offset="0"
         id="stop3280" />
      <stop
         style="stop-color:#ffffff;stop-opacity:0.5714286;"
         offset="1"
         id="stop3282" />
    </linearGradient>
    <radialGradient
       inkscape:collect="always"
       xlink:href="#linearGradient3278"
       id="radialGradient3284"
       cx="0"
       cy="0"
       fx="0"
       fy="0"
       r="296.79236"
       gradientUnits="userSpaceOnUse" />
  </defs>
  <metadata
     id="metadata7">
    <rdf:RDF>
      <cc:Work
         rdf:about="">
        <dc:format>image/svg+xml</dc:format>
        <dc:type
           rdf:resource="http://purl.org/dc/dcmitype/StillImage" />
      </cc:Work>
    </rdf:RDF>
  </metadata>
  <g
     inkscape:label="Layer 1"
     id="layer1"
     inkscape:groupmode="layer" />
  <g
     id="g3290"
     transform="matrix(0.7740547,0,0,0.7740547,294.28572,299.99999)">
    <path
       d="M -13.70123,99.05693 C -11.0731,80.0561 11.0731,80.0561 13.70123,99.05693 L 41.1037,297.1708 C 48.9881,354.17329 -48.9881,354.17329 -41.1037,297.1708 L -13.70123,99.05693 z M 25.24916,96.75991 C 20.40593,78.19969 40.86636,69.7247 50.56574,86.27344 L 151.69721,258.82032 C 180.79536,308.46652 90.27715,345.96039 75.74747,290.27973 L 25.24916,96.75991 z M 60.35559,79.73207 C 48.77835,64.43808 64.43808,48.77835 79.73207,60.35559 L 239.1962,181.06678 C 285.07816,215.79852 215.79852,285.07816 181.06678,239.1962 L 60.35559,79.73207 z M 86.27344,50.56574 C 69.7247,40.86636 78.19969,20.40593 96.75991,25.24916 L 290.27973,75.74747 C 345.96039,90.27715 308.46652,180.79536 258.82032,151.69721 L 86.27344,50.56574 z M 99.05693,13.70123 C 80.0561,11.0731 80.0561,-11.0731 99.05693,-13.70123 L 297.1708,-41.1037 C 354.17329,-48.9881 354.17329,48.9881 297.1708,41.1037 L 99.05693,13.70123 z M 96.75991,-25.24916 C 78.19969,-20.40593 69.7247,-40.86636 86.27344,-50.56574 L 258.82032,-151.69721 C 308.46652,-180.79536 345.96039,-90.27715 290.27973,-75.74747 L 96.75991,-25.24916 z M 79.73207,-60.35559 C 64.43808,-48.77835 48.77835,-64.43808 60.35559,-79.73207 L 181.06678,-239.1962 C 215.79852,-285.07816 285.07816,-215.79852 239.1962,-181.06678 L 79.73207,-60.35559 z M 50.56574,-86.27344 C 40.86636,-69.7247 20.40593,-78.19969 25.24916,-96.75991 L 75.74747,-290.27973 C 90.27715,-345.96039 180.79536,-308.46652 151.69721,-258.82032 L 50.56574,-86.27344 z M 13.70123,-99.05693 C 11.0731,-80.0561 -11.0731,-80.0561 -13.70123,-99.05693 L -41.1037,-297.1708 C -48.9881,-354.17329 48.9881,-354.17329 41.1037,-297.1708 L 13.70123,-99.05693 z M -25.24916,-96.75991 C -20.40593,-78.19969 -40.86636,-69.7247 -50.56574,-86.27344 L -151.69721,-258.82032 C -180.79536,-308.46652 -90.27715,-345.96039 -75.74747,-290.27973 L -25.24916,-96.75991 z M -60.35559,-79.73207 C -48.77835,-64.43808 -64.43808,-48.77835 -79.73207,-60.35559 L -239.1962,-181.06678 C -285.07816,-215.79852 -215.79852,-285.07816 -181.06678,-239.1962 L -60.35559,-79.73207 z M -86.27344,-50.56574 C -69.7247,-40.86636 -78.19969,-20.40593 -96.75991,-25.24916 L -290.27973,-75.74747 C -345.96039,-90.27715 -308.46652,-180.79536 -258.82032,-151.69721 L -86.27344,-50.56574 z M -99.05693,-13.70123 C -80.0561,-11.0731 -80.0561,11.0731 -99.05693,13.70123 L -297.1708,41.1037 C -354.17329,48.9881 -354.17329,-48.9881 -297.1708,-41.1037 L -99.05693,-13.70123 z M -96.75991,25.24916 C -78.19969,20.40593 -69.7247,40.86636 -86.27344,50.56574 L -258.82032,151.69721 C -308.46652,180.79536 -345.96039,90.27715 -290.27973,75.74747 L -96.75991,25.24916 z M -79.73207,60.35559 C -64.43808,48.77835 -48.77835,64.43808 -60.35559,79.73207 L -181.06678,239.1962 C -215.79852,285.07816 -285.07816,215.79852 -239.1962,181.06678 L -79.73207,60.35559 z M -50.56574,86.27344 C -40.86636,69.7247 -20.40593,78.19969 -25.24916,96.75991 L -75.74747,290.27973 C -90.27715,345.96039 -180.79536,308.46652 -151.69721,258.82032 L -50.56574,86.27344 z "
       id="path2210"
       style="fill:#ff9191;fill-opacity:1;stroke:#6e0000;stroke-width:3;stroke-miterlimit:4;stroke-dasharray:none;stroke-opacity:1" />
    <path
       d="M -9.41509,119.63008 C -7.94148,106.53158 7.94148,106.53158 9.41509,119.63008 L 28.42497,288.60357 C 32.32556,328.20691 -32.32556,328.20691 -28.42497,288.60357 L -9.41509,119.63008 z M 37.08204,114.12678 C 33.4309,101.46142 48.10485,95.38328 54.47886,106.92078 L 136.70505,255.75717 C 155.46427,290.85319 95.73442,315.5941 84.18256,277.5127 L 37.08204,114.12678 z M 77.93377,91.24872 C 69.71373,80.94468 80.94468,69.71373 91.24872,77.93377 L 224.17303,183.97405 C 254.93495,209.21971 209.21971,254.93495 183.97405,224.17303 L 77.93377,91.24872 z M 106.92078,54.47886 C 95.38328,48.10485 101.46142,33.4309 114.12678,37.08204 L 277.5127,84.18256 C 315.5941,95.73442 290.85319,155.46427 255.75717,136.70505 L 106.92078,54.47886 z M 119.63008,9.41509 C 106.53158,7.94148 106.53158,-7.94148 119.63008,-9.41509 L 288.60357,-28.42497 C 328.20691,-32.32556 328.20691,32.32556 288.60357,28.42497 L 119.63008,9.41509 z M 114.12678,-37.08204 C 101.46142,-33.4309 95.38328,-48.10485 106.92078,-54.47886 L 255.75717,-136.70505 C 290.85319,-155.46427 315.5941,-95.73442 277.5127,-84.18256 L 114.12678,-37.08204 z M 91.24872,-77.93377 C 80.94468,-69.71373 69.71373,-80.94468 77.93377,-91.24872 L 183.97405,-224.17303 C 209.21971,-254.93495 254.93495,-209.21971 224.17303,-183.97405 L 91.24872,-77.93377 z M 54.47886,-106.92078 C 48.10485,-95.38328 33.4309,-101.46142 37.08204,-114.12678 L 84.18256,-277.5127 C 95.73442,-315.5941 155.46427,-290.85319 136.70505,-255.75717 L 54.47886,-106.92078 z M 9.41509,-119.63008 C 7.94148,-106.53158 -7.94148,-106.53158 -9.41509,-119.63008 L -28.42497,-288.60357 C -32.32556,-328.20691 32.32556,-328.20691 28.42497,-288.60357 L 9.41509,-119.63008 z M -37.08204,-114.12678 C -33.4309,-101.46142 -48.10485,-95.38328 -54.47886,-106.92078 L -136.70505,-255.75717 C -155.46427,-290.85319 -95.73442,-315.5941 -84.18256,-277.5127 L -37.08204,-114.12678 z M -77.93377,-91.24872 C -69.71373,-80.94468 -80.94468,-69.71373 -91.24872,-77.93377 L -224.17303,-183.97405 C -254.93495,-209.21971 -209.21971,-254.93495 -183.97405,-224.17303 L -77.93377,-91.24872 z M -106.92078,-54.47886 C -95.38328,-48.10485 -101.46142,-33.4309 -114.12678,-37.08204 L -277.5127,-84.18256 C -315.5941,-95.73442 -290.85319,-155.46427 -255.75717,-136.70505 L -106.92078,-54.47886 z M -119.63008,-9.41509 C -106.53158,-7.94148 -106.53158,7.94148 -119.63008,9.41509 L -288.60357,28.42497 C -328.20691,32.32556 -328.20691,-32.32556 -288.60357,-28.42497 L -119.63008,-9.41509 z M -114.12678,37.08204 C -101.46142,33.4309 -95.38328,48.10485 -106.92078,54.47886 L -255.75717,136.70505 C -290.85319,155.46427 -315.5941,95.73442 -277.5127,84.18256 L -114.12678,37.08204 z M -91.24872,77.93377 C -80.94468,69.71373 -69.71373,80.94468 -77.93377,91.24872 L -183.97405,224.17303 C -209.21971,254.93495 -254.93495,209.21971 -224.17303,183.97405 L -91.24872,77.93377 z M -54.47886,106.92078 C -48.10485,95.38328 -33.4309,101.46142 -37.08204,114.12678 L -84.18256,277.5127 C -95.73442,315.5941 -155.46427,290.85319 -136.70505,255.75717 L -54.47886,106.92078 z "
       id="path2239"
       style="fill:#ffc700;fill-opacity:1;stroke:none" />
    <path
       style="fill:url(#radialGradient3284);fill-opacity:1;stroke:none"
       d="M -2.94505,149.97109 C -2.51648,145.87035 2.51648,145.87035 2.94505,149.97109 L 16.48383,279.51437 C 17.84241,302.5517 -17.84241,302.5517 -16.48383,279.51437 L -2.94505,149.97109 z M 54.67057,139.68224 C 53.49724,135.72964 58.14709,133.80361 60.11233,137.42819 L 122.19459,251.92952 C 132.26576,272.69333 99.29729,286.34932 91.73645,264.54569 L 54.67057,139.68224 z M 103.9631,108.12804 C 101.36649,104.92533 104.92533,101.36649 108.12804,103.9631 L 209.30233,185.99068 C 226.55285,201.31987 201.31987,226.55285 185.99068,209.30233 L 103.9631,108.12804 z M 137.42819,60.11233 C 133.80361,58.14709 135.72964,53.49724 139.68224,54.67057 L 264.54569,91.73645 C 286.34932,99.29729 272.69333,132.26576 251.92952,122.19459 L 137.42819,60.11233 z M 149.97109,2.94505 C 145.87035,2.51648 145.87035,-2.51648 149.97109,-2.94505 L 279.51437,-16.48383 C 302.5517,-17.84241 302.5517,17.84241 279.51437,16.48383 L 149.97109,2.94505 z M 139.68224,-54.67057 C 135.72964,-53.49724 133.80361,-58.14709 137.42819,-60.11233 L 251.92952,-122.19459 C 272.69333,-132.26576 286.34932,-99.29729 264.54569,-91.73645 L 139.68224,-54.67057 z M 108.12804,-103.9631 C 104.92533,-101.36649 101.36649,-104.92533 103.9631,-108.12804 L 185.99068,-209.30233 C 201.31987,-226.55285 226.55285,-201.31987 209.30233,-185.99068 L 108.12804,-103.9631 z M 60.11233,-137.42819 C 58.14709,-133.80361 53.49724,-135.72964 54.67057,-139.68224 L 91.73645,-264.54569 C 99.29729,-286.34932 132.26576,-272.69333 122.19459,-251.92952 L 60.11233,-137.42819 z M 2.94505,-149.97109 C 2.51648,-145.87035 -2.51648,-145.87035 -2.94505,-149.97109 L -16.48383,-279.51437 C -17.84241,-302.5517 17.84241,-302.5517 16.48383,-279.51437 L 2.94505,-149.97109 z M -54.67057,-139.68224 C -53.49724,-135.72964 -58.14709,-133.80361 -60.11233,-137.42819 L -122.19459,-251.92952 C -132.26576,-272.69333 -99.29729,-286.34932 -91.73645,-264.54569 L -54.67057,-139.68224 z M -103.9631,-108.12804 C -101.36649,-104.92533 -104.92533,-101.36649 -108.12804,-103.9631 L -209.30233,-185.99068 C -226.55285,-201.31987 -201.31987,-226.55285 -185.99068,-209.30233 L -103.9631,-108.12804 z M -137.42819,-60.11233 C -133.80361,-58.14709 -135.72964,-53.49724 -139.68224,-54.67057 L -264.54569,-91.73645 C -286.34932,-99.29729 -272.69333,-132.26576 -251.92952,-122.19459 L -137.42819,-60.11233 z M -149.97109,-2.94505 C -145.87035,-2.51648 -145.87035,2.51648 -149.97109,2.94505 L -279.51437,16.48383 C -302.5517,17.84241 -302.5517,-17.84241 -279.51437,-16.48383 L -149.97109,-2.94505 z M -139.68224,54.67057 C -135.72964,53.49724 -133.80361,58.14709 -137.42819,60.11233 L -251.92952,122.19459 C -272.69333,132.26576 -286.34932,99.29729 -264.54569,91.73645 L -139.68224,54.67057 z M -108.12804,103.9631 C -104.92533,101.36649 -101.36649,104.92533 -103.9631,108.12804 L -185.99068,209.30233 C -201.31987,226.55285 -226.55285,201.31987 -209.30233,185.99068 L -108.12804,103.9631 z M -60.11233,137.42819 C -58.14709,133.80361 -53.49724,135.72964 -54.67057,139.68224 L -91.73645,264.54569 C -99.29729,286.34932 -132.26576,272.69333 -122.19459,251.92952 L -60.11233,137.42819 z "
       id="path2293" />
  </g>
</svg>
