<?xml version="1.0" encoding="UTF-8" standalone="no"?>
<svg
   xmlns:dc="http://purl.org/dc/elements/1.1/"
   xmlns:cc="http://web.resource.org/cc/"
   xmlns:rdf="http://www.w3.org/1999/02/22-rdf-syntax-ns#"
   xmlns:svg="http://www.w3.org/2000/svg"
   xmlns="http://www.w3.org/2000/svg"
   xmlns:xlink="http://www.w3.org/1999/xlink"
   xmlns:sodipodi="http://sodipodi.sourceforge.net/DTD/sodipodi-0.dtd"
   xmlns:inkscape="http://www.inkscape.org/namespaces/inkscape"
   width="590"
   xlink:xlink="xlink"
   height="590"
   id="svg2526"
   sodipodi:version="0.32"
   inkscape:version="0.45"
   sodipodi:docname="angled_stripes21.svg"
   sodipodi:docbase="/media/oldubu/home/tamarind/0_Code_0/play-svg/scripts/images/stripes"
   inkscape:output_extension="org.inkscape.output.svg.inkscape"
   sodipodi:modified="true">
  <metadata
     id="metadata2576">
    <rdf:RDF>
      <cc:Work
         rdf:about="">
        <dc:format>image/svg+xml</dc:format>
        <dc:type
           rdf:resource="http://purl.org/dc/dcmitype/StillImage" />
      </cc:Work>
    </rdf:RDF>
  </metadata>
  <sodipodi:namedview
     inkscape:window-height="693"
     inkscape:window-width="1024"
     inkscape:pageshadow="2"
     inkscape:pageopacity="0.0"
     guidetolerance="10.0"
     gridtolerance="10.0"
     objecttolerance="10.0"
     borderopacity="1.0"
     bordercolor="#666666"
     pagecolor="#ffffff"
     id="base"
     inkscape:zoom="0.68983051"
     inkscape:cx="346.51158"
     inkscape:cy="370.08729"
     inkscape:window-x="0"
     inkscape:window-y="25"
     inkscape:current-layer="svg2526" />
  <defs
     id="defs2528" />
  <rect
     style="opacity:1;color:#000000;fill:#008080;fill-opacity:1;fill-rule:nonzero;stroke:none;stroke-width:4;stroke-linecap:butt;stroke-linejoin:miter;marker:none;marker-start:none;marker-mid:none;marker-end:none;stroke-miterlimit:4;stroke-dasharray:none;stroke-dashoffset:0;stroke-opacity:1;visibility:visible;display:inline;overflow:visible;enable-background:accumulate"
     id="rect3111"
     width="200"
     height="200"
     x="224.69287"
     y="-52.186695" />
  <g
     id="canvas"
     transform="matrix(1,0,0,-1,0,590) translate(295,295)">
    <g
       id="g2531">
      <path
         style="fill:black;stroke:none"
         d="M-100.00000,100.00000 L-90.24390,100.00000 L-100.00000,90.24390 Z"
         id="path2533" />
      <path
         style="fill:black;stroke:none"
         d="M100.00000,-100.00000 L90.24390,-100.00000 L100.00000,-90.24390 Z"
         id="path2535" />
      <path
         style="fill:black;stroke:none"
         d="M95.12195,100.00000 L100.00000,100.00000 L100.00000,95.12195 L-95.12195,-100.00000 L-100.00000,-100.00000 L-100.00000,-95.12195 Z"
         id="path2537" />
      <path
         style="fill:black;stroke:none"
         d="M-80.48780,100.00000 L-70.73171,100.00000 L-100.00000,70.73171 L-100.00000,80.48780 Z"
         id="path2539" />
      <path
         style="fill:black;stroke:none"
         d="M100.00000,-80.48780 L100.00000,-70.73171 L70.73171,-100.00000 L80.48780,-100.00000 Z"
         id="path2541" />
      <path
         style="fill:black;stroke:none"
         d="M-60.97561,100.00000 L-51.21951,100.00000 L-100.00000,51.21951 L-100.00000,60.97561 Z"
         id="path2543" />
      <path
         style="fill:black;stroke:none"
         d="M100.00000,-60.97561 L100.00000,-51.21951 L51.21951,-100.00000 L60.97561,-100.00000 Z"
         id="path2545" />
      <path
         style="fill:black;stroke:none"
         d="M-41.46341,100.00000 L-31.70732,100.00000 L-100.00000,31.70732 L-100.00000,41.46341 Z"
         id="path2547" />
      <path
         style="fill:black;stroke:none"
         d="M100.00000,-41.46341 L100.00000,-31.70732 L31.70732,-100.00000 L41.46341,-100.00000 Z"
         id="path2549" />
      <path
         style="fill:black;stroke:none"
         d="M-21.95122,100.00000 L-12.19512,100.00000 L-100.00000,12.19512 L-100.00000,21.95122 Z"
         id="path2551" />
      <path
         style="fill:black;stroke:none"
         d="M100.00000,-21.95122 L100.00000,-12.19512 L12.19512,-100.00000 L21.95122,-100.00000 Z"
         id="path2553" />
      <path
         style="fill:black;stroke:none"
         d="M-2.43902,100.00000 L7.31707,100.00000 L-100.00000,-7.31707 L-100.00000,2.43902 Z"
         id="path2555" />
      <path
         style="fill:black;stroke:none"
         d="M100.00000,-2.43902 L100.00000,7.31707 L-7.31707,-100.00000 L2.43902,-100.00000 Z"
         id="path2557" />
      <path
         style="fill:black;stroke:none"
         d="M17.07317,100.00000 L26.82927,100.00000 L-100.00000,-26.82927 L-100.00000,-17.07317 Z"
         id="path2559" />
      <path
         style="fill:black;stroke:none"
         d="M100.00000,17.07317 L100.00000,26.82927 L-26.82927,-100.00000 L-17.07317,-100.00000 Z"
         id="path2561" />
      <path
         style="fill:black;stroke:none"
         d="M36.58537,100.00000 L46.34146,100.00000 L-100.00000,-46.34146 L-100.00000,-36.58537 Z"
         id="path2563" />
      <path
         style="fill:black;stroke:none"
         d="M100.00000,36.58537 L100.00000,46.34146 L-46.34146,-100.00000 L-36.58537,-100.00000 Z"
         id="path2565" />
      <path
         style="fill:black;stroke:none"
         d="M56.09756,100.00000 L65.85366,100.00000 L-100.00000,-65.85366 L-100.00000,-56.09756 Z"
         id="path2567" />
      <path
         style="fill:black;stroke:none"
         d="M100.00000,56.09756 L100.00000,65.85366 L-65.85366,-100.00000 L-56.09756,-100.00000 Z"
         id="path2569" />
      <path
         style="fill:black;stroke:none"
         d="M75.60976,100.00000 L85.36585,100.00000 L-100.00000,-85.36585 L-100.00000,-75.60976 Z"
         id="path2571" />
      <path
         style="fill:black;stroke:none"
         d="M100.00000,75.60976 L100.00000,85.36585 L-85.36585,-100.00000 L-75.60976,-100.00000 Z"
         id="path2573" />
    </g>
  </g>
  <g
     id="g2578"
     transform="matrix(0.1452214,0.9893992,0.9893992,-0.1452214,415.31942,322.54299)">
    <g
       id="g2580">
      <path
         style="fill:#000000;stroke:none"
         d="M -100,100 L -90.2439,100 L -100,90.2439 L -100,100 z "
         id="path2582" />
      <path
         style="fill:#000000;stroke:none"
         d="M 100,-100 L 90.2439,-100 L 100,-90.2439 L 100,-100 z "
         id="path2584" />
      <path
         style="fill:#000000;stroke:none"
         d="M 95.12195,100 L 100,100 L 100,95.12195 L -95.12195,-100 L -100,-100 L -100,-95.12195 L 95.12195,100 z "
         id="path2586" />
      <path
         style="fill:#000000;stroke:none"
         d="M -80.4878,100 L -70.73171,100 L -100,70.73171 L -100,80.4878 L -80.4878,100 z "
         id="path2588" />
      <path
         style="fill:#000000;stroke:none"
         d="M 100,-80.4878 L 100,-70.73171 L 70.73171,-100 L 80.4878,-100 L 100,-80.4878 z "
         id="path2590" />
      <path
         style="fill:#000000;stroke:none"
         d="M -60.97561,100 L -51.21951,100 L -100,51.21951 L -100,60.97561 L -60.97561,100 z "
         id="path2592" />
      <path
         style="fill:#000000;stroke:none"
         d="M 100,-60.97561 L 100,-51.21951 L 51.21951,-100 L 60.97561,-100 L 100,-60.97561 z "
         id="path2594" />
      <path
         style="fill:#000000;stroke:none"
         d="M -41.46341,100 L -31.70732,100 L -100,31.70732 L -100,41.46341 L -41.46341,100 z "
         id="path2596" />
      <path
         style="fill:#000000;stroke:none"
         d="M 100,-41.46341 L 100,-31.70732 L 31.70732,-100 L 41.46341,-100 L 100,-41.46341 z "
         id="path2598" />
      <path
         style="fill:#000000;stroke:none"
         d="M -21.95122,100 L -12.19512,100 L -100,12.19512 L -100,21.95122 L -21.95122,100 z "
         id="path2600" />
      <path
         style="fill:#000000;stroke:none"
         d="M 100,-21.95122 L 100,-12.19512 L 12.19512,-100 L 21.95122,-100 L 100,-21.95122 z "
         id="path2602" />
      <path
         style="fill:#000000;stroke:none"
         d="M -2.43902,100 L 7.31707,100 L -100,-7.31707 L -100,2.43902 L -2.43902,100 z "
         id="path2604" />
      <path
         style="fill:#000000;stroke:none"
         d="M 100,-2.43902 L 100,7.31707 L -7.31707,-100 L 2.43902,-100 L 100,-2.43902 z "
         id="path2606" />
      <path
         style="fill:#000000;stroke:none"
         d="M 17.07317,100 L 26.82927,100 L -100,-26.82927 L -100,-17.07317 L 17.07317,100 z "
         id="path2608" />
      <path
         style="fill:#000000;stroke:none"
         d="M 100,17.07317 L 100,26.82927 L -26.82927,-100 L -17.07317,-100 L 100,17.07317 z "
         id="path2610" />
      <path
         style="fill:#000000;stroke:none"
         d="M 36.58537,100 L 46.34146,100 L -100,-46.34146 L -100,-36.58537 L 36.58537,100 z "
         id="path2612" />
      <path
         style="fill:#000000;stroke:none"
         d="M 100,36.58537 L 100,46.34146 L -46.34146,-100 L -36.58537,-100 L 100,36.58537 z "
         id="path2614" />
      <path
         style="fill:#000000;stroke:none"
         d="M 56.09756,100 L 65.85366,100 L -100,-65.85366 L -100,-56.09756 L 56.09756,100 z "
         id="path2616" />
      <path
         style="fill:#000000;stroke:none"
         d="M 100,56.09756 L 100,65.85366 L -65.85366,-100 L -56.09756,-100 L 100,56.09756 z "
         id="path2618" />
      <path
         style="fill:#000000;stroke:none"
         d="M 75.60976,100 L 85.36585,100 L -100,-85.36585 L -100,-75.60976 L 75.60976,100 z "
         id="path2620" />
      <path
         style="fill:#000000;stroke:none"
         d="M 100,75.60976 L 100,85.36585 L -85.36585,-100 L -75.60976,-100 L 100,75.60976 z "
         id="path2622" />
    </g>
  </g>
  <path
     style="fill:#fcff00;fill-opacity:0.61956518;stroke:none"
     d="M 224.002,-52.889591 L 224.002,-48.014591 L 224.002,-43.139591 L 226.4395,-45.577091 L 231.3145,-40.702091 L 226.4395,-35.827091 L 224.002,-38.264591 L 224.002,-33.389591 L 224.002,-28.514591 L 224.002,-23.608341 L 226.4395,-26.077091 L 231.3145,-21.202091 L 226.4395,-16.295841 L 224.002,-18.733341 L 224.002,-13.858341 L 224.002,-8.9833408 L 224.002,-4.1083408 L 226.4395,-6.5458408 L 231.3145,-1.6708408 L 226.4395,3.2041592 L 224.002,0.76665919 L 224.002,5.6416592 L 224.002,10.516659 L 224.002,15.391659 L 226.4395,12.954159 L 231.3145,17.860409 L 226.4395,22.735409 L 224.002,20.266659 L 224.002,25.172909 L 224.002,30.047909 L 224.002,34.922909 L 226.4395,32.485409 L 231.3145,37.360409 L 226.4395,42.235409 L 224.002,39.797909 L 224.002,44.672909 L 224.002,49.547909 L 224.002,54.422909 L 226.4395,51.985409 L 231.3145,56.860409 L 226.4395,61.735409 L 224.002,59.297909 L 224.002,64.172909 L 224.002,69.047909 L 224.002,73.954159 L 226.4395,71.485409 L 231.3145,76.360409 L 226.4395,81.266659 L 224.002,78.829159 L 224.002,83.704159 L 224.002,88.579159 L 224.002,93.454159 L 226.4395,91.016659 L 231.3145,95.891659 L 226.4395,100.76666 L 224.002,98.329159 L 224.002,103.20416 L 224.002,108.07916 L 224.002,112.95416 L 226.4395,110.51666 L 231.3145,115.42291 L 226.4395,120.29791 L 224.002,117.82916 L 224.002,122.73541 L 224.002,127.61041 L 224.002,132.48541 L 226.4395,130.04791 L 231.3145,134.92291 L 226.4395,139.79791 L 224.002,137.36041 L 224.002,142.23541 L 224.002,147.11041 L 228.877,147.11041 L 233.752,147.11041 L 231.3145,144.67291 L 236.1895,139.79791 L 241.0645,144.67291 L 238.627,147.11041 L 243.502,147.11041 L 248.377,147.11041 L 253.28325,147.11041 L 250.8145,144.67291 L 255.6895,139.79791 L 260.59575,144.67291 L 258.15825,147.11041 L 263.03325,147.11041 L 267.90825,147.11041 L 272.78325,147.11041 L 270.34575,144.67291 L 275.22075,139.79791 L 280.09575,144.67291 L 277.65825,147.11041 L 282.53325,147.11041 L 287.40825,147.11041 L 292.28325,147.11041 L 289.84575,144.67291 L 294.752,139.79791 L 299.627,144.67291 L 297.15825,147.11041 L 302.0645,147.11041 L 306.9395,147.11041 L 311.8145,147.11041 L 309.377,144.67291 L 314.252,139.79791 L 319.127,144.67291 L 316.6895,147.11041 L 321.5645,147.11041 L 326.4395,147.11041 L 331.3145,147.11041 L 328.877,144.67291 L 333.752,139.79791 L 338.627,144.67291 L 336.1895,147.11041 L 341.0645,147.11041 L 345.9395,147.11041 L 350.84575,147.11041 L 348.377,144.67291 L 353.252,139.79791 L 358.15825,144.67291 L 355.72075,147.11041 L 360.59575,147.11041 L 365.47075,147.11041 L 370.34575,147.11041 L 367.90825,144.67291 L 372.78325,139.79791 L 377.65825,144.67291 L 375.22075,147.11041 L 380.09575,147.11041 L 384.97075,147.11041 L 389.84575,147.11041 L 387.40825,144.67291 L 392.3145,139.79791 L 397.1895,144.67291 L 394.72075,147.11041 L 399.627,147.11041 L 404.502,147.11041 L 409.377,147.11041 L 406.9395,144.67291 L 411.8145,139.79791 L 416.6895,144.67291 L 414.252,147.11041 L 419.127,147.11041 L 424.002,147.11041 L 424.002,142.23541 L 424.002,137.36041 L 421.5645,139.79791 L 416.6895,134.92291 L 421.5645,130.04791 L 424.002,132.48541 L 424.002,127.61041 L 424.002,122.73541 L 424.002,117.82916 L 421.5645,120.29791 L 416.6895,115.42291 L 421.5645,110.51666 L 424.002,112.95416 L 424.002,108.07916 L 424.002,103.20416 L 424.002,98.329159 L 421.5645,100.76666 L 416.6895,95.891659 L 421.5645,91.016659 L 424.002,93.454159 L 424.002,88.579159 L 424.002,83.704159 L 424.002,78.829159 L 421.5645,81.266659 L 416.6895,76.360409 L 421.5645,71.485409 L 424.002,73.954159 L 424.002,69.047909 L 424.002,64.172909 L 424.002,59.297909 L 421.5645,61.735409 L 416.6895,56.860409 L 421.5645,51.985409 L 424.002,54.422909 L 424.002,49.547909 L 424.002,44.672909 L 424.002,39.797909 L 421.5645,42.235409 L 416.6895,37.360409 L 421.5645,32.485409 L 424.002,34.922909 L 424.002,30.047909 L 424.002,25.172909 L 424.002,20.266659 L 421.5645,22.735409 L 416.6895,17.860409 L 421.5645,12.954159 L 424.002,15.391659 L 424.002,10.516659 L 424.002,5.6416592 L 424.002,0.76665919 L 421.5645,3.2041592 L 416.6895,-1.6708408 L 421.5645,-6.5458408 L 424.002,-4.1083408 L 424.002,-8.9833408 L 424.002,-13.858341 L 424.002,-18.733341 L 421.5645,-16.295841 L 416.6895,-21.202091 L 421.5645,-26.077091 L 424.002,-23.608341 L 424.002,-28.514591 L 424.002,-33.389591 L 424.002,-38.264591 L 421.5645,-35.827091 L 416.6895,-40.702091 L 421.5645,-45.577091 L 424.002,-43.139591 L 424.002,-48.014591 L 424.002,-52.889591 L 419.127,-52.889591 L 414.252,-52.889591 L 416.6895,-50.452091 L 411.8145,-45.577091 L 406.9395,-50.452091 L 409.377,-52.889591 L 404.502,-52.889591 L 399.627,-52.889591 L 394.72075,-52.889591 L 397.1895,-50.452091 L 392.3145,-45.577091 L 387.40825,-50.452091 L 389.84575,-52.889591 L 384.97075,-52.889591 L 380.09575,-52.889591 L 375.22075,-52.889591 L 377.65825,-50.452091 L 372.78325,-45.577091 L 367.90825,-50.452091 L 370.34575,-52.889591 L 365.47075,-52.889591 L 360.59575,-52.889591 L 355.72075,-52.889591 L 358.15825,-50.452091 L 353.252,-45.577091 L 348.377,-50.452091 L 350.84575,-52.889591 L 345.9395,-52.889591 L 341.0645,-52.889591 L 336.1895,-52.889591 L 338.627,-50.452091 L 333.752,-45.577091 L 328.877,-50.452091 L 331.3145,-52.889591 L 326.4395,-52.889591 L 321.5645,-52.889591 L 316.6895,-52.889591 L 319.127,-50.452091 L 314.252,-45.577091 L 309.377,-50.452091 L 311.8145,-52.889591 L 306.9395,-52.889591 L 302.0645,-52.889591 L 297.15825,-52.889591 L 299.627,-50.452091 L 294.752,-45.577091 L 289.84575,-50.452091 L 292.28325,-52.889591 L 287.40825,-52.889591 L 282.53325,-52.889591 L 277.65825,-52.889591 L 280.09575,-50.452091 L 275.22075,-45.577091 L 270.34575,-50.452091 L 272.78325,-52.889591 L 267.90825,-52.889591 L 263.03325,-52.889591 L 258.15825,-52.889591 L 260.59575,-50.452091 L 255.6895,-45.577091 L 250.8145,-50.452091 L 253.28325,-52.889591 L 248.377,-52.889591 L 243.502,-52.889591 L 238.627,-52.889591 L 241.0645,-50.452091 L 236.1895,-45.577091 L 231.3145,-50.452091 L 233.752,-52.889591 L 228.877,-52.889591 L 224.002,-52.889591 z M 245.9395,-45.577091 L 250.8145,-40.702091 L 245.9395,-35.827091 L 241.0645,-40.702091 L 245.9395,-45.577091 z M 265.47075,-45.577091 L 270.34575,-40.702091 L 265.4395,-35.827091 L 260.5645,-40.702091 L 265.47075,-45.577091 z M 284.97075,-45.577091 L 289.877,-40.702091 L 285.002,-35.827091 L 280.09575,-40.702091 L 284.97075,-45.577091 z M 304.502,-45.577091 L 309.377,-40.702091 L 304.502,-35.827091 L 299.627,-40.702091 L 304.502,-45.577091 z M 324.002,-45.577091 L 328.877,-40.702091 L 324.002,-35.827091 L 319.127,-40.702091 L 324.002,-45.577091 z M 343.502,-45.577091 L 348.377,-40.702091 L 343.502,-35.827091 L 338.627,-40.702091 L 343.502,-45.577091 z M 363.03325,-45.577091 L 367.90825,-40.702091 L 363.002,-35.827091 L 358.127,-40.702091 L 363.03325,-45.577091 z M 382.53325,-45.577091 L 387.4395,-40.702091 L 382.5645,-35.827091 L 377.65825,-40.702091 L 382.53325,-45.577091 z M 402.0645,-45.577091 L 406.9395,-40.702091 L 402.0645,-35.827091 L 397.1895,-40.702091 L 402.0645,-45.577091 z M 236.1895,-35.827091 L 241.0645,-30.952091 L 236.1895,-26.077091 L 231.3145,-30.952091 L 236.1895,-35.827091 z M 255.6895,-35.827091 L 260.5645,-30.952091 L 255.6895,-26.077091 L 250.8145,-30.952091 L 255.6895,-35.827091 z M 275.22075,-35.827091 L 280.127,-30.952091 L 275.22075,-26.045841 L 270.3145,-30.952091 L 275.22075,-35.827091 z M 294.752,-35.827091 L 299.627,-30.952091 L 294.752,-26.077091 L 289.877,-30.952091 L 294.752,-35.827091 z M 314.252,-35.827091 L 319.127,-30.952091 L 314.252,-26.077091 L 309.377,-30.952091 L 314.252,-35.827091 z M 333.752,-35.827091 L 338.627,-30.952091 L 333.752,-26.077091 L 328.877,-30.952091 L 333.752,-35.827091 z M 353.252,-35.827091 L 358.127,-30.952091 L 353.252,-26.077091 L 348.377,-30.952091 L 353.252,-35.827091 z M 372.78325,-35.827091 L 377.6895,-30.952091 L 372.78325,-26.045841 L 367.877,-30.952091 L 372.78325,-35.827091 z M 392.3145,-35.827091 L 397.1895,-30.952091 L 392.3145,-26.077091 L 387.4395,-30.952091 L 392.3145,-35.827091 z M 411.8145,-35.827091 L 416.6895,-30.952091 L 411.8145,-26.077091 L 406.9395,-30.952091 L 411.8145,-35.827091 z M 245.9395,-26.077091 L 250.8145,-21.202091 L 245.9395,-16.327091 L 241.0645,-21.202091 L 245.9395,-26.077091 z M 265.4395,-26.077091 L 270.34575,-21.170841 L 265.47075,-16.295841 L 260.5645,-21.202091 L 265.4395,-26.077091 z M 285.002,-26.077091 L 289.877,-21.202091 L 284.97075,-16.295841 L 280.09575,-21.170841 L 285.002,-26.077091 z M 304.502,-26.077091 L 309.377,-21.202091 L 304.502,-16.327091 L 299.627,-21.202091 L 304.502,-26.077091 z M 343.502,-26.077091 L 348.377,-21.202091 L 343.502,-16.327091 L 338.627,-21.202091 L 343.502,-26.077091 z M 363.002,-26.077091 L 367.90825,-21.170841 L 363.03325,-16.295841 L 358.127,-21.202091 L 363.002,-26.077091 z M 382.5645,-26.077091 L 387.4395,-21.202091 L 382.53325,-16.295841 L 377.65825,-21.170841 L 382.5645,-26.077091 z M 402.0645,-26.077091 L 406.9395,-21.202091 L 402.0645,-16.327091 L 397.1895,-21.202091 L 402.0645,-26.077091 z M 324.002,-26.045841 L 328.877,-21.170841 L 324.002,-16.295841 L 319.127,-21.170841 L 324.002,-26.045841 z M 236.1895,-16.327091 L 241.0645,-11.452091 L 236.1895,-6.5458408 L 231.3145,-11.420841 L 236.1895,-16.327091 z M 255.6895,-16.327091 L 260.59575,-11.420841 L 255.72075,-6.5458408 L 250.8145,-11.452091 L 255.6895,-16.327091 z M 294.752,-16.327091 L 299.627,-11.452091 L 294.72075,-6.5458408 L 289.84575,-11.420841 L 294.752,-16.327091 z M 353.252,-16.327091 L 358.15825,-11.420841 L 353.28325,-6.5458408 L 348.377,-11.452091 L 353.252,-16.327091 z M 392.3145,-16.327091 L 397.1895,-11.452091 L 392.28325,-6.5458408 L 387.40825,-11.420841 L 392.3145,-16.327091 z M 411.8145,-16.327091 L 416.6895,-11.420841 L 411.8145,-6.5458408 L 406.9395,-11.452091 L 411.8145,-16.327091 z M 275.22075,-16.295841 L 280.09575,-11.420841 L 275.22075,-6.5458408 L 270.34575,-11.420841 L 275.22075,-16.295841 z M 314.252,-16.295841 L 319.127,-11.420841 L 314.252,-6.5458408 L 309.377,-11.420841 L 314.252,-16.295841 z M 333.752,-16.295841 L 338.627,-11.420841 L 333.752,-6.5458408 L 328.877,-11.420841 L 333.752,-16.295841 z M 372.78325,-16.295841 L 377.65825,-11.420841 L 372.78325,-6.5458408 L 367.90825,-11.420841 L 372.78325,-16.295841 z M 245.9395,-6.5770908 L 250.84575,-1.6708408 L 245.9395,3.2354092 L 241.0645,-1.6708408 L 245.9395,-6.5770908 z M 402.0645,-6.5770908 L 406.9395,-1.6708408 L 402.0645,3.2354092 L 397.15825,-1.6708408 L 402.0645,-6.5770908 z M 265.47075,-6.5458408 L 270.34575,-1.6708408 L 265.47075,3.2041592 L 260.59575,-1.6708408 L 265.47075,-6.5458408 z M 284.97075,-6.5458408 L 289.84575,-1.6708408 L 284.97075,3.2041592 L 280.09575,-1.6708408 L 284.97075,-6.5458408 z M 304.502,-6.5458408 L 309.377,-1.6708408 L 304.502,3.2354092 L 299.627,-1.6395908 L 304.502,-6.5458408 z M 324.002,-6.5458408 L 328.877,-1.6708408 L 324.002,3.2041592 L 319.127,-1.6708408 L 324.002,-6.5458408 z M 343.502,-6.5458408 L 348.377,-1.6395908 L 343.502,3.2354092 L 338.627,-1.6708408 L 343.502,-6.5458408 z M 363.03325,-6.5458408 L 367.90825,-1.6708408 L 363.03325,3.2041592 L 358.15825,-1.6708408 L 363.03325,-6.5458408 z M 382.53325,-6.5458408 L 387.40825,-1.6708408 L 382.53325,3.2041592 L 377.65825,-1.6708408 L 382.53325,-6.5458408 z M 236.1895,3.2041592 L 241.0645,8.1104092 L 236.1895,12.985409 L 231.3145,8.0791592 L 236.1895,3.2041592 z M 255.72075,3.2041592 L 260.59575,8.0791592 L 255.6895,12.985409 L 250.8145,8.1104092 L 255.72075,3.2041592 z M 275.22075,3.2041592 L 280.09575,8.0791592 L 275.22075,12.954159 L 270.34575,8.0791592 L 275.22075,3.2041592 z M 314.252,3.2041592 L 319.127,8.0791592 L 314.252,12.985409 L 309.377,8.1104092 L 314.252,3.2041592 z M 333.752,3.2041592 L 338.627,8.1104092 L 333.752,12.985409 L 328.877,8.0791592 L 333.752,3.2041592 z M 372.78325,3.2041592 L 377.65825,8.0791592 L 372.78325,12.954159 L 367.90825,8.0791592 L 372.78325,3.2041592 z M 392.28325,3.2041592 L 397.1895,8.1104092 L 392.3145,12.985409 L 387.40825,8.0791592 L 392.28325,3.2041592 z M 411.8145,3.2041592 L 416.6895,8.0791592 L 411.8145,12.985409 L 406.9395,8.1104092 L 411.8145,3.2041592 z M 294.752,3.2354092 L 299.627,8.1104092 L 294.752,12.985409 L 289.877,8.1104092 L 294.752,3.2354092 z M 353.252,3.2354092 L 358.127,8.1104092 L 353.252,12.985409 L 348.377,8.1104092 L 353.252,3.2354092 z M 265.47075,12.954159 L 270.34575,17.829159 L 265.4395,22.735409 L 260.5645,17.860409 L 265.47075,12.954159 z M 324.002,12.954159 L 328.877,17.860409 L 324.002,22.735409 L 319.127,17.860409 L 324.002,12.954159 z M 382.53325,12.954159 L 387.4395,17.860409 L 382.5645,22.735409 L 377.65825,17.829159 L 382.53325,12.954159 z M 245.9395,12.985409 L 250.8145,17.860409 L 245.9395,22.735409 L 241.0645,17.860409 L 245.9395,12.985409 z M 285.002,12.985409 L 289.877,17.860409 L 285.002,22.735409 L 280.127,17.860409 L 285.002,12.985409 z M 304.502,12.985409 L 309.377,17.860409 L 304.502,22.735409 L 299.627,17.860409 L 304.502,12.985409 z M 343.502,12.985409 L 348.377,17.860409 L 343.502,22.735409 L 338.627,17.860409 L 343.502,12.985409 z M 363.002,12.985409 L 367.877,17.860409 L 363.002,22.735409 L 358.127,17.860409 L 363.002,12.985409 z M 402.0645,12.985409 L 406.9395,17.860409 L 402.0645,22.735409 L 397.1895,17.860409 L 402.0645,12.985409 z M 236.1895,22.735409 L 241.0645,27.610409 L 236.1895,32.485409 L 231.3145,27.610409 L 236.1895,22.735409 z M 255.6895,22.735409 L 260.5645,27.610409 L 255.6895,32.485409 L 250.8145,27.610409 L 255.6895,22.735409 z M 275.252,22.735409 L 280.127,27.610409 L 275.22075,32.485409 L 270.34575,27.610409 L 275.252,22.735409 z M 294.752,22.735409 L 299.627,27.610409 L 294.752,32.485409 L 289.877,27.610409 L 294.752,22.735409 z M 314.252,22.735409 L 319.127,27.610409 L 314.252,32.485409 L 309.377,27.610409 L 314.252,22.735409 z M 333.752,22.735409 L 338.627,27.610409 L 333.752,32.485409 L 328.877,27.610409 L 333.752,22.735409 z M 353.252,22.735409 L 358.127,27.610409 L 353.252,32.485409 L 348.377,27.610409 L 353.252,22.735409 z M 372.752,22.735409 L 377.65825,27.610409 L 372.78325,32.485409 L 367.877,27.610409 L 372.752,22.735409 z M 392.3145,22.735409 L 397.1895,27.610409 L 392.3145,32.485409 L 387.4395,27.610409 L 392.3145,22.735409 z M 411.8145,22.735409 L 416.6895,27.610409 L 411.8145,32.485409 L 406.9395,27.610409 L 411.8145,22.735409 z M 245.9395,32.485409 L 250.8145,37.360409 L 245.9395,42.235409 L 241.0645,37.360409 L 245.9395,32.485409 z M 265.47075,32.485409 L 270.34575,37.360409 L 265.47075,42.235409 L 260.59575,37.360409 L 265.47075,32.485409 z M 285.002,32.485409 L 289.877,37.360409 L 284.97075,42.235409 L 280.09575,37.360409 L 285.002,32.485409 z M 304.502,32.485409 L 309.377,37.360409 L 304.502,42.235409 L 299.627,37.360409 L 304.502,32.485409 z M 324.002,32.485409 L 328.877,37.360409 L 324.002,42.235409 L 319.127,37.360409 L 324.002,32.485409 z M 343.502,32.485409 L 348.377,37.360409 L 343.502,42.235409 L 338.627,37.360409 L 343.502,32.485409 z M 363.002,32.485409 L 367.90825,37.360409 L 363.03325,42.235409 L 358.127,37.360409 L 363.002,32.485409 z M 382.53325,32.485409 L 387.40825,37.360409 L 382.53325,42.235409 L 377.65825,37.360409 L 382.53325,32.485409 z M 402.0645,32.485409 L 406.9395,37.360409 L 402.0645,42.235409 L 397.1895,37.360409 L 402.0645,32.485409 z M 236.1895,42.235409 L 241.0645,47.110409 L 236.1895,51.985409 L 231.3145,47.110409 L 236.1895,42.235409 z M 255.72075,42.235409 L 260.59575,47.110409 L 255.72075,51.985409 L 250.84575,47.110409 L 255.72075,42.235409 z M 275.22075,42.235409 L 280.09575,47.110409 L 275.22075,51.985409 L 270.34575,47.110409 L 275.22075,42.235409 z M 294.752,42.235409 L 299.627,47.110409 L 294.752,51.985409 L 289.84575,47.110409 L 294.752,42.235409 z M 314.252,42.235409 L 319.127,47.110409 L 314.252,51.985409 L 309.377,47.110409 L 314.252,42.235409 z M 333.752,42.235409 L 338.627,47.110409 L 333.752,51.985409 L 328.877,47.110409 L 333.752,42.235409 z M 353.252,42.235409 L 358.15825,47.110409 L 353.252,51.985409 L 348.377,47.110409 L 353.252,42.235409 z M 372.78325,42.235409 L 377.65825,47.110409 L 372.78325,51.985409 L 367.90825,47.110409 L 372.78325,42.235409 z M 392.28325,42.235409 L 397.15825,47.110409 L 392.28325,51.985409 L 387.40825,47.110409 L 392.28325,42.235409 z M 411.8145,42.235409 L 416.6895,47.110409 L 411.8145,51.985409 L 406.9395,47.110409 L 411.8145,42.235409 z M 245.9395,51.985409 L 250.8145,56.860409 L 245.9395,61.735409 L 241.0645,56.860409 L 245.9395,51.985409 z M 265.47075,51.985409 L 270.34575,56.860409 L 265.47075,61.735409 L 260.59575,56.860409 L 265.47075,51.985409 z M 284.97075,51.985409 L 289.877,56.860409 L 285.002,61.735409 L 280.09575,56.860409 L 284.97075,51.985409 z M 304.502,51.985409 L 309.377,56.860409 L 304.502,61.735409 L 299.627,56.860409 L 304.502,51.985409 z M 324.002,51.985409 L 328.877,56.860409 L 324.002,61.735409 L 319.127,56.860409 L 324.002,51.985409 z M 343.502,51.985409 L 348.377,56.860409 L 343.502,61.735409 L 338.627,56.860409 L 343.502,51.985409 z M 363.03325,51.985409 L 367.90825,56.860409 L 363.002,61.735409 L 358.127,56.860409 L 363.03325,51.985409 z M 382.53325,51.985409 L 387.40825,56.860409 L 382.53325,61.735409 L 377.65825,56.860409 L 382.53325,51.985409 z M 402.0645,51.985409 L 406.9395,56.860409 L 402.0645,61.735409 L 397.1895,56.860409 L 402.0645,51.985409 z M 236.1895,61.735409 L 241.0645,66.610409 L 236.1895,71.485409 L 231.3145,66.610409 L 236.1895,61.735409 z M 255.6895,61.735409 L 260.5645,66.610409 L 255.6895,71.485409 L 250.8145,66.610409 L 255.6895,61.735409 z M 275.22075,61.735409 L 280.127,66.610409 L 275.252,71.485409 L 270.34575,66.610409 L 275.22075,61.735409 z M 294.752,61.735409 L 299.627,66.610409 L 294.752,71.485409 L 289.877,66.610409 L 294.752,61.735409 z M 314.252,61.735409 L 319.127,66.610409 L 314.252,71.485409 L 309.377,66.610409 L 314.252,61.735409 z M 333.752,61.735409 L 338.627,66.610409 L 333.752,71.485409 L 328.877,66.610409 L 333.752,61.735409 z M 353.252,61.735409 L 358.127,66.610409 L 353.252,71.485409 L 348.377,66.610409 L 353.252,61.735409 z M 372.78325,61.735409 L 377.65825,66.610409 L 372.752,71.485409 L 367.877,66.610409 L 372.78325,61.735409 z M 392.3145,61.735409 L 397.1895,66.610409 L 392.3145,71.485409 L 387.4395,66.610409 L 392.3145,61.735409 z M 411.8145,61.735409 L 416.6895,66.610409 L 411.8145,71.485409 L 406.9395,66.610409 L 411.8145,61.735409 z M 245.9395,71.485409 L 250.8145,76.360409 L 245.9395,81.235409 L 241.0645,76.360409 L 245.9395,71.485409 z M 265.4395,71.485409 L 270.34575,76.391659 L 265.47075,81.266659 L 260.5645,76.360409 L 265.4395,71.485409 z M 285.002,71.485409 L 289.877,76.360409 L 285.002,81.235409 L 280.127,76.360409 L 285.002,71.485409 z M 304.502,71.485409 L 309.377,76.360409 L 304.502,81.235409 L 299.627,76.360409 L 304.502,71.485409 z M 324.002,71.485409 L 328.877,76.360409 L 324.002,81.266659 L 319.127,76.360409 L 324.002,71.485409 z M 343.502,71.485409 L 348.377,76.360409 L 343.502,81.235409 L 338.627,76.360409 L 343.502,71.485409 z M 363.002,71.485409 L 367.877,76.360409 L 363.002,81.235409 L 358.127,76.360409 L 363.002,71.485409 z M 382.5645,71.485409 L 387.4395,76.360409 L 382.53325,81.266659 L 377.65825,76.391659 L 382.5645,71.485409 z M 402.0645,71.485409 L 406.9395,76.360409 L 402.0645,81.235409 L 397.1895,76.360409 L 402.0645,71.485409 z M 236.1895,81.235409 L 241.0645,86.110409 L 236.1895,91.016659 L 231.3145,86.141659 L 236.1895,81.235409 z M 255.6895,81.235409 L 260.59575,86.141659 L 255.72075,91.016659 L 250.8145,86.110409 L 255.6895,81.235409 z M 294.752,81.235409 L 299.627,86.110409 L 294.752,90.985409 L 289.877,86.110409 L 294.752,81.235409 z M 314.252,81.235409 L 319.127,86.141659 L 314.252,91.016659 L 309.377,86.110409 L 314.252,81.235409 z M 333.752,81.235409 L 338.627,86.110409 L 333.752,91.016659 L 328.877,86.141659 L 333.752,81.235409 z M 353.252,81.235409 L 358.127,86.110409 L 353.252,90.985409 L 348.377,86.110409 L 353.252,81.235409 z M 392.3145,81.235409 L 397.1895,86.110409 L 392.28325,91.016659 L 387.40825,86.141659 L 392.3145,81.235409 z M 411.8145,81.235409 L 416.6895,86.141659 L 411.8145,91.016659 L 406.9395,86.110409 L 411.8145,81.235409 z M 275.22075,81.266659 L 280.09575,86.141659 L 275.22075,91.016659 L 270.34575,86.141659 L 275.22075,81.266659 z M 372.78325,81.266659 L 377.65825,86.141659 L 372.78325,91.016659 L 367.90825,86.141659 L 372.78325,81.266659 z M 245.9395,90.985409 L 250.84575,95.891659 L 245.9395,100.79791 L 241.0645,95.891659 L 245.9395,90.985409 z M 304.502,90.985409 L 309.377,95.891659 L 304.502,100.76666 L 299.627,95.860409 L 304.502,90.985409 z M 343.502,90.985409 L 348.377,95.860409 L 343.502,100.76666 L 338.627,95.891659 L 343.502,90.985409 z M 402.0645,90.985409 L 406.9395,95.891659 L 402.0645,100.79791 L 397.15825,95.891659 L 402.0645,90.985409 z M 265.47075,91.016659 L 270.34575,95.891659 L 265.47075,100.76666 L 260.59575,95.891659 L 265.47075,91.016659 z M 284.97075,91.016659 L 289.84575,95.891659 L 284.97075,100.76666 L 280.09575,95.891659 L 284.97075,91.016659 z M 324.002,91.016659 L 328.877,95.891659 L 324.002,100.76666 L 319.127,95.891659 L 324.002,91.016659 z M 363.03325,91.016659 L 367.90825,95.891659 L 363.03325,100.76666 L 358.15825,95.891659 L 363.03325,91.016659 z M 382.53325,91.016659 L 387.40825,95.891659 L 382.53325,100.76666 L 377.65825,95.891659 L 382.53325,91.016659 z M 236.1895,100.76666 L 241.0645,105.67291 L 236.1895,110.54791 L 231.3145,105.64166 L 236.1895,100.76666 z M 255.72075,100.76666 L 260.59575,105.64166 L 255.6895,110.54791 L 250.8145,105.67291 L 255.72075,100.76666 z M 275.22075,100.76666 L 280.09575,105.64166 L 275.22075,110.51666 L 270.34575,105.64166 L 275.22075,100.76666 z M 294.72075,100.76666 L 299.627,105.67291 L 294.752,110.54791 L 289.84575,105.64166 L 294.72075,100.76666 z M 314.252,100.76666 L 319.127,105.64166 L 314.252,110.51666 L 309.377,105.64166 L 314.252,100.76666 z M 333.752,100.76666 L 338.627,105.64166 L 333.752,110.51666 L 328.877,105.64166 L 333.752,100.76666 z M 353.28325,100.76666 L 358.15825,105.64166 L 353.252,110.54791 L 348.377,105.67291 L 353.28325,100.76666 z M 372.78325,100.76666 L 377.65825,105.64166 L 372.78325,110.51666 L 367.90825,105.64166 L 372.78325,100.76666 z M 392.28325,100.76666 L 397.1895,105.67291 L 392.3145,110.54791 L 387.40825,105.64166 L 392.28325,100.76666 z M 411.8145,100.76666 L 416.6895,105.64166 L 411.8145,110.54791 L 406.9395,105.67291 L 411.8145,100.76666 z M 265.47075,110.51666 L 270.34575,115.39166 L 265.4395,120.29791 L 260.5645,115.42291 L 265.47075,110.51666 z M 284.97075,110.51666 L 289.877,115.42291 L 285.002,120.29791 L 280.09575,115.39166 L 284.97075,110.51666 z M 324.002,110.51666 L 328.877,115.39166 L 324.002,120.26666 L 319.127,115.39166 L 324.002,110.51666 z M 363.03325,110.51666 L 367.90825,115.39166 L 363.002,120.29791 L 358.127,115.42291 L 363.03325,110.51666 z M 382.53325,110.51666 L 387.4395,115.42291 L 382.5645,120.29791 L 377.65825,115.39166 L 382.53325,110.51666 z M 245.9395,110.54791 L 250.8145,115.42291 L 245.9395,120.29791 L 241.0645,115.42291 L 245.9395,110.54791 z M 304.502,110.54791 L 309.377,115.42291 L 304.502,120.29791 L 299.627,115.42291 L 304.502,110.54791 z M 343.502,110.54791 L 348.377,115.42291 L 343.502,120.29791 L 338.627,115.42291 L 343.502,110.54791 z M 402.0645,110.54791 L 406.9395,115.42291 L 402.0645,120.29791 L 397.1895,115.42291 L 402.0645,110.54791 z M 275.22075,120.26666 L 280.127,125.17291 L 275.22075,130.04791 L 270.3145,125.17291 L 275.22075,120.26666 z M 372.78325,120.26666 L 377.6895,125.17291 L 372.78325,130.04791 L 367.877,125.17291 L 372.78325,120.26666 z M 236.1895,120.29791 L 241.0645,125.17291 L 236.1895,130.04791 L 231.3145,125.17291 L 236.1895,120.29791 z M 255.6895,120.29791 L 260.5645,125.17291 L 255.6895,130.04791 L 250.8145,125.17291 L 255.6895,120.29791 z M 294.752,120.29791 L 299.627,125.17291 L 294.752,130.04791 L 289.877,125.17291 L 294.752,120.29791 z M 314.252,120.29791 L 319.127,125.17291 L 314.252,130.04791 L 309.377,125.17291 L 314.252,120.29791 z M 333.752,120.29791 L 338.627,125.17291 L 333.752,130.04791 L 328.877,125.17291 L 333.752,120.29791 z M 353.252,120.29791 L 358.127,125.17291 L 353.252,130.04791 L 348.377,125.17291 L 353.252,120.29791 z M 392.3145,120.29791 L 397.1895,125.17291 L 392.3145,130.04791 L 387.4395,125.17291 L 392.3145,120.29791 z M 411.8145,120.29791 L 416.6895,125.17291 L 411.8145,130.04791 L 406.9395,125.17291 L 411.8145,120.29791 z M 245.9395,130.04791 L 250.8145,134.92291 L 245.9395,139.79791 L 241.0645,134.92291 L 245.9395,130.04791 z M 265.4395,130.04791 L 270.34575,134.92291 L 265.47075,139.79791 L 260.5645,134.92291 L 265.4395,130.04791 z M 285.002,130.04791 L 289.877,134.92291 L 284.97075,139.79791 L 280.09575,134.92291 L 285.002,130.04791 z M 304.502,130.04791 L 309.377,134.92291 L 304.502,139.79791 L 299.627,134.92291 L 304.502,130.04791 z M 324.002,130.04791 L 328.877,134.92291 L 324.002,139.79791 L 319.127,134.92291 L 324.002,130.04791 z M 343.502,130.04791 L 348.377,134.92291 L 343.502,139.79791 L 338.627,134.92291 L 343.502,130.04791 z M 363.002,130.04791 L 367.90825,134.92291 L 363.03325,139.79791 L 358.127,134.92291 L 363.002,130.04791 z M 382.5645,130.04791 L 387.4395,134.92291 L 382.53325,139.79791 L 377.65825,134.92291 L 382.5645,130.04791 z M 402.0645,130.04791 L 406.9395,134.92291 L 402.0645,139.79791 L 397.1895,134.92291 L 402.0645,130.04791 z "
     id="path3022" />
  <g
     id="g3113"
     transform="matrix(0.8171767,-0.5763872,-0.5763872,-0.8171767,171.05651,311.67075)">
    <g
       id="g3115">
      <path
         style="fill:#000000;stroke:none"
         d="M -100,100 L -90.2439,100 L -100,90.2439 L -100,100 z "
         id="path3117" />
      <path
         style="fill:#000000;stroke:none"
         d="M 100,-100 L 90.2439,-100 L 100,-90.2439 L 100,-100 z "
         id="path3119" />
      <path
         style="fill:#000000;stroke:none"
         d="M 95.12195,100 L 100,100 L 100,95.12195 L -95.12195,-100 L -100,-100 L -100,-95.12195 L 95.12195,100 z "
         id="path3121" />
      <path
         style="fill:#000000;stroke:none"
         d="M -80.4878,100 L -70.73171,100 L -100,70.73171 L -100,80.4878 L -80.4878,100 z "
         id="path3123" />
      <path
         style="fill:#000000;stroke:none"
         d="M 100,-80.4878 L 100,-70.73171 L 70.73171,-100 L 80.4878,-100 L 100,-80.4878 z "
         id="path3125" />
      <path
         style="fill:#000000;stroke:none"
         d="M -60.97561,100 L -51.21951,100 L -100,51.21951 L -100,60.97561 L -60.97561,100 z "
         id="path3127" />
      <path
         style="fill:#000000;stroke:none"
         d="M 100,-60.97561 L 100,-51.21951 L 51.21951,-100 L 60.97561,-100 L 100,-60.97561 z "
         id="path3129" />
      <path
         style="fill:#000000;stroke:none"
         d="M -41.46341,100 L -31.70732,100 L -100,31.70732 L -100,41.46341 L -41.46341,100 z "
         id="path3131" />
      <path
         style="fill:#000000;stroke:none"
         d="M 100,-41.46341 L 100,-31.70732 L 31.70732,-100 L 41.46341,-100 L 100,-41.46341 z "
         id="path3133" />
      <path
         style="fill:#000000;stroke:none"
         d="M -21.95122,100 L -12.19512,100 L -100,12.19512 L -100,21.95122 L -21.95122,100 z "
         id="path3135" />
      <path
         style="fill:#000000;stroke:none"
         d="M 100,-21.95122 L 100,-12.19512 L 12.19512,-100 L 21.95122,-100 L 100,-21.95122 z "
         id="path3137" />
      <path
         style="fill:#000000;stroke:none"
         d="M -2.43902,100 L 7.31707,100 L -100,-7.31707 L -100,2.43902 L -2.43902,100 z "
         id="path3139" />
      <path
         style="fill:#000000;stroke:none"
         d="M 100,-2.43902 L 100,7.31707 L -7.31707,-100 L 2.43902,-100 L 100,-2.43902 z "
         id="path3141" />
      <path
         style="fill:#000000;stroke:none"
         d="M 17.07317,100 L 26.82927,100 L -100,-26.82927 L -100,-17.07317 L 17.07317,100 z "
         id="path3143" />
      <path
         style="fill:#000000;stroke:none"
         d="M 100,17.07317 L 100,26.82927 L -26.82927,-100 L -17.07317,-100 L 100,17.07317 z "
         id="path3145" />
      <path
         style="fill:#000000;stroke:none"
         d="M 36.58537,100 L 46.34146,100 L -100,-46.34146 L -100,-36.58537 L 36.58537,100 z "
         id="path3147" />
      <path
         style="fill:#000000;stroke:none"
         d="M 100,36.58537 L 100,46.34146 L -46.34146,-100 L -36.58537,-100 L 100,36.58537 z "
         id="path3149" />
      <path
         style="fill:#000000;stroke:none"
         d="M 56.09756,100 L 65.85366,100 L -100,-65.85366 L -100,-56.09756 L 56.09756,100 z "
         id="path3151" />
      <path
         style="fill:#000000;stroke:none"
         d="M 100,56.09756 L 100,65.85366 L -65.85366,-100 L -56.09756,-100 L 100,56.09756 z "
         id="path3153" />
      <path
         style="fill:#000000;stroke:none"
         d="M 75.60976,100 L 85.36585,100 L -100,-85.36585 L -100,-75.60976 L 75.60976,100 z "
         id="path3155" />
      <path
         style="fill:#000000;stroke:none"
         d="M 100,75.60976 L 100,85.36585 L -85.36585,-100 L -75.60976,-100 L 100,75.60976 z "
         id="path3157" />
    </g>
  </g>
  <path
     style="fill:#fcff00;fill-opacity:0.61960856;stroke:none"
     d="M 226.16992,-52.156711 L 226.16992,-36.781711 L 226.16992,-21.406711 L 233.85742,-29.094211 L 249.26367,-13.687961 L 233.85742,1.6870392 L 226.16992,-6.0004608 L 226.16992,9.3745392 L 226.16992,24.780789 L 226.16992,40.155789 L 233.85742,32.468289 L 249.23242,47.843289 L 233.85742,63.218289 L 226.16992,55.530789 L 226.16992,70.905789 L 226.16992,86.312039 L 226.16992,101.68704 L 233.85742,93.999539 L 249.26367,109.37454 L 233.85742,124.78082 L 226.16992,117.06202 L 226.16992,132.46832 L 226.16992,147.84332 L 241.54492,147.84332 L 256.91992,147.84332 L 249.23242,140.15582 L 264.63867,124.74952 L 280.01367,140.15582 L 272.32617,147.84332 L 287.70117,147.84332 L 303.07617,147.84332 L 318.48242,147.84332 L 310.76367,140.12452 L 326.13867,124.74952 L 341.54492,140.15582 L 333.85742,147.84332 L 349.23242,147.84332 L 364.63867,147.84332 L 380.01367,147.84332 L 372.32617,140.15582 L 387.70117,124.74952 L 403.07617,140.12452 L 395.38867,147.84332 L 410.79492,147.84332 L 426.16992,147.84332 L 426.16992,132.46832 L 426.16992,117.06202 L 418.45117,124.74952 L 403.07617,109.37454 L 418.48242,93.999539 L 426.16992,101.68704 L 426.16992,86.312039 L 426.16992,70.937039 L 426.16992,55.530789 L 418.45117,63.249539 L 403.07617,47.843289 L 418.45117,32.437039 L 426.16992,40.155789 L 426.16992,24.749539 L 426.16992,9.3745392 L 426.16992,-6.0004608 L 418.48242,1.6870392 L 403.07617,-13.687961 L 418.45117,-29.062961 L 426.16992,-21.375461 L 426.16992,-36.781711 L 426.16992,-52.156711 L 410.79492,-52.156711 L 395.38867,-52.156711 L 403.07617,-44.437961 L 387.70117,-29.062961 L 372.32617,-44.469211 L 380.01367,-52.156711 L 364.63867,-52.156711 L 349.23242,-52.156711 L 333.85742,-52.156711 L 341.54492,-44.469211 L 326.13867,-29.062961 L 310.76367,-44.437961 L 318.48242,-52.156711 L 303.07617,-52.156711 L 287.70117,-52.156711 L 272.32617,-52.156711 L 280.01367,-44.469211 L 264.63867,-29.062961 L 249.23242,-44.469211 L 256.95117,-52.156711 L 241.54492,-52.156711 L 226.16992,-52.156711 z M 295.38867,-29.062961 L 310.76367,-13.687961 L 295.38867,1.6870392 L 280.01367,-13.687961 L 295.38867,-29.062961 z M 356.95117,-29.062961 L 372.32617,-13.687961 L 356.95117,1.6870392 L 341.54492,-13.687961 L 356.95117,-29.062961 z M 264.63867,1.6870392 L 280.01367,17.062039 L 264.63867,32.437039 L 249.26367,17.062039 L 264.63867,1.6870392 z M 326.16992,1.6870392 L 341.57617,17.062039 L 326.16992,32.468289 L 310.76367,17.062039 L 326.16992,1.6870392 z M 387.70117,1.6870392 L 403.07617,17.062039 L 387.70117,32.468289 L 372.32617,17.062039 L 387.70117,1.6870392 z M 295.38867,32.437039 L 310.79492,47.843289 L 295.38867,63.249539 L 280.01367,47.843289 L 295.38867,32.437039 z M 356.95117,32.437039 L 372.32617,47.843289 L 356.95117,63.249539 L 341.54492,47.843289 L 356.95117,32.437039 z M 326.16992,63.218289 L 341.57617,78.624539 L 326.16992,93.999539 L 310.76367,78.624539 L 326.16992,63.218289 z M 387.70117,63.218289 L 403.07617,78.624539 L 387.70117,93.999539 L 372.32617,78.624539 L 387.70117,63.218289 z M 264.63867,63.249539 L 280.01367,78.624539 L 264.63867,93.999539 L 249.26367,78.624539 L 264.63867,63.249539 z M 295.38867,93.999539 L 310.76367,109.37454 L 295.38867,124.74952 L 280.01367,109.37454 L 295.38867,93.999539 z M 356.95117,93.999539 L 372.32617,109.37454 L 356.95117,124.74952 L 341.54492,109.37454 L 356.95117,93.999539 z "
     id="path4205" />
</svg>
