<svg xmlns:ns0="http://www.w3.org/2000/svg" xlink="http://www.w3.org/1999/xlink" xmlns="http://www.w3.org/2000/svg" ns0:svg="http://www.w3.org/2000/svg" width="1280" height="1280">
  <defs/>
  <g id="canvas" transform="matrix(1,0,0,-1,0,1280) translate(640,640)">
    <path style="fill:none;stroke:black" d="M0.00000,100.00000 L99.51847,-9.80171 L-19.50903,-98.07853 L-95.69403,29.02847 L38.26834,92.38795 L88.19213,-47.13967 L-55.55702,-83.14696 L-77.30105,63.43933 L70.71068,70.71068 L63.43933,-77.30105 L-83.14696,-55.55702 L-47.13967,88.19213 L92.38795,38.26834 L29.02847,-95.69403 L-98.07853,-19.50903 L-9.80171,99.51847 L100.00000,0.00000 L-9.80171,-99.51847 L-98.07853,19.50903 L29.02847,95.69403 L92.38795,-38.26834 L-47.13967,-88.19213 L-83.14696,55.55702 L63.43933,77.30105 L70.71068,-70.71068 L-77.30105,-63.43933 L-55.55702,83.14696 L88.19213,47.13967 L38.26834,-92.38795 L-95.69403,-29.02847 L-19.50903,98.07853 L99.51847,9.80171 L0.00000,-100.00000 L-99.51847,9.80171 L19.50903,98.07853 L95.69403,-29.02847 L-38.26834,-92.38795 L-88.19213,47.13967 L55.55702,83.14696 L77.30105,-63.43933 L-70.71068,-70.71068 L-63.43933,77.30105 L83.14696,55.55702 L47.13967,-88.19213 L-92.38795,-38.26834 L-29.02847,95.69403 L98.07853,19.50903 L9.80171,-99.51847 L-100.00000,-0.00000 L9.80171,99.51847 L98.07853,-19.50903 L-29.02847,-95.69403 L-92.38795,38.26834 L47.13967,88.19213 L83.14696,-55.55702 L-63.43933,-77.30105 L-70.71068,70.71068 L77.30105,63.43933 L55.55702,-83.14696 L-88.19213,-47.13967 L-38.26834,92.38795 L95.69403,29.02847 L19.50903,-98.07853 L-99.51847,-9.80171 L0.00000,100.00000 Z"/>
  </g>
</svg>
