<svg xmlns:ns0="http://www.w3.org/2000/svg" xlink="http://www.w3.org/1999/xlink" xmlns="http://www.w3.org/2000/svg" ns0:svg="http://www.w3.org/2000/svg" width="1280" height="1280">
  <defs/>
  <g id="canvas" transform="matrix(1,0,0,-1,0,1280) translate(640,640)">
    <path style="fill:none;stroke:black" d="M0.00000,100.00000 L98.29731,-18.37495 L-36.12417,-93.24722 L-85.02171,52.64322 L67.36956,73.90089 L60.26346,-79.80172 L-89.51633,-44.57384 L-27.36630,96.18256 L99.57342,9.22684 L-9.22684,-99.57342 L-96.18256,27.36630 L44.57384,89.51633 L79.80172,-60.26346 L-73.90089,-67.36956 L-52.64322,85.02171 L93.24722,36.12417 L18.37495,-98.29731 L-100.00000,-0.00000 L18.37495,98.29731 L93.24722,-36.12417 L-52.64322,-85.02171 L-73.90089,67.36956 L79.80172,60.26346 L44.57384,-89.51633 L-96.18256,-27.36630 L-9.22684,99.57342 L99.57342,-9.22684 L-27.36630,-96.18256 L-89.51633,44.57384 L60.26346,79.80172 L67.36956,-73.90089 L-85.02171,-52.64322 L-36.12417,93.24722 L98.29731,18.37495 L0.00000,-100.00000 L-98.29731,18.37495 L36.12417,93.24722 L85.02171,-52.64322 L-67.36956,-73.90089 L-60.26346,79.80172 L89.51633,44.57384 L27.36630,-96.18256 L-99.57342,-9.22684 L9.22684,99.57342 L96.18256,-27.36630 L-44.57384,-89.51633 L-79.80172,60.26346 L73.90089,67.36956 L52.64322,-85.02171 L-93.24722,-36.12417 L-18.37495,98.29731 L100.00000,0.00000 L-18.37495,-98.29731 L-93.24722,36.12417 L52.64322,85.02171 L73.90089,-67.36956 L-79.80172,-60.26346 L-44.57384,89.51633 L96.18256,27.36630 L9.22684,-99.57342 L-99.57342,9.22684 L27.36630,96.18256 L89.51633,-44.57384 L-60.26346,-79.80172 L-67.36956,73.90089 L85.02171,52.64322 L36.12417,-93.24722 L-98.29731,-18.37495 L0.00000,100.00000 Z"/>
  </g>
</svg>
