<svg xmlns:ns0="http://www.w3.org/2000/svg" xlink="http://www.w3.org/1999/xlink" xmlns="http://www.w3.org/2000/svg" ns0:svg="http://www.w3.org/2000/svg" width="1280" height="1280">
  <defs/>
  <g id="canvas" transform="matrix(1,0,0,-1,0,1280) translate(640,640)">
    <path style="fill:none;stroke:black" d="M0.00000,100.00000 L39.84011,91.72113 L73.08360,68.25531 L94.22609,33.48796 L99.76688,-6.82424 L88.78852,-46.00650 L63.10879,-77.57113 L26.97968,-96.29173 L-13.61666,-99.06859 L-51.95840,-85.44194 L-81.69699,-57.66803 L-97.90841,-20.34560 L-97.90841,20.34560 L-81.69699,57.66803 L-51.95840,85.44194 L-13.61666,99.06859 L26.97968,96.29173 L63.10879,77.57113 L88.78852,46.00650 L99.76688,6.82424 L94.22609,-33.48796 L73.08360,-68.25531 L39.84011,-91.72113 L0.00000,-100.00000 L-39.84011,-91.72113 L-73.08360,-68.25531 L-94.22609,-33.48796 L-99.76688,6.82424 L-88.78852,46.00650 L-63.10879,77.57113 L-26.97968,96.29173 L13.61666,99.06859 L51.95840,85.44194 L81.69699,57.66803 L97.90841,20.34560 L97.90841,-20.34560 L81.69699,-57.66803 L51.95840,-85.44194 L13.61666,-99.06859 L-26.97968,-96.29173 L-63.10879,-77.57113 L-88.78852,-46.00650 L-99.76688,-6.82424 L-94.22609,33.48796 L-73.08360,68.25531 L-39.84011,91.72113 L0.00000,100.00000 Z"/>
  </g>
</svg>
