<svg xmlns:ns0="http://www.w3.org/2000/svg" xlink="http://www.w3.org/1999/xlink" xmlns="http://www.w3.org/2000/svg" ns0:svg="http://www.w3.org/2000/svg" width="1280" height="1280">
  <defs/>
  <g id="canvas" transform="matrix(1,0,0,-1,0,1280) translate(640,640)">
    <path style="fill:none;stroke:black" d="M0.00000,100.00000 L57.35764,81.91520 L93.96926,34.20201 L96.59258,-25.88190 L64.27876,-76.60444 L8.71557,-99.61947 L-50.00000,-86.60254 L-90.63078,-42.26183 L-98.48078,17.36482 L-70.71068,70.71068 L-17.36482,98.48078 L42.26183,90.63078 L86.60254,50.00000 L99.61947,-8.71557 L76.60444,-64.27876 L25.88190,-96.59258 L-34.20201,-93.96926 L-81.91520,-57.35764 L-100.00000,-0.00000 L-81.91520,57.35764 L-34.20201,93.96926 L25.88190,96.59258 L76.60444,64.27876 L99.61947,8.71557 L86.60254,-50.00000 L42.26183,-90.63078 L-17.36482,-98.48078 L-70.71068,-70.71068 L-98.48078,-17.36482 L-90.63078,42.26183 L-50.00000,86.60254 L8.71557,99.61947 L64.27876,76.60444 L96.59258,25.88190 L93.96926,-34.20201 L57.35764,-81.91520 L0.00000,-100.00000 L-57.35764,-81.91520 L-93.96926,-34.20201 L-96.59258,25.88190 L-64.27876,76.60444 L-8.71557,99.61947 L50.00000,86.60254 L90.63078,42.26183 L98.48078,-17.36482 L70.71068,-70.71068 L17.36482,-98.48078 L-42.26183,-90.63078 L-86.60254,-50.00000 L-99.61947,8.71557 L-76.60444,64.27876 L-25.88190,96.59258 L34.20201,93.96926 L81.91520,57.35764 L100.00000,0.00000 L81.91520,-57.35764 L34.20201,-93.96926 L-25.88190,-96.59258 L-76.60444,-64.27876 L-99.61947,-8.71557 L-86.60254,50.00000 L-42.26183,90.63078 L17.36482,98.48078 L70.71068,70.71068 L98.48078,17.36482 L90.63078,-42.26183 L50.00000,-86.60254 L-8.71557,-99.61947 L-64.27876,-76.60444 L-96.59258,-25.88190 L-93.96926,34.20201 L-57.35764,81.91520 L0.00000,100.00000 Z"/>
  </g>
</svg>
