<svg xmlns:ns0="http://www.w3.org/2000/svg" xlink="http://www.w3.org/1999/xlink" xmlns="http://www.w3.org/2000/svg" ns0:svg="http://www.w3.org/2000/svg" width="1280" height="1280">
  <defs/>
  <g id="canvas" transform="matrix(1,0,0,-1,0,1280) translate(640,640)">
    <path style="fill:none;stroke:black" d="M0.00000,100.00000 L65.13725,-75.87581 L-98.84683,15.14278 L84.86443,52.89640 L-29.93631,-95.41393 L-39.43559,91.89578 L89.78045,-44.03942 L-96.80771,-25.06525 L57.12682,82.07634 L10.11683,-99.48693 L-72.47928,68.89669 L99.87165,-5.06492 L-79.07757,-61.21060 L20.12985,97.95299 L48.53020,-87.43466 L-93.77521,34.73053 L93.77521,34.73053 L-48.53020,-87.43466 L-20.12985,97.95299 L79.07757,-61.21060 L-99.87165,-5.06492 L72.47928,68.89669 L-10.11683,-99.48693 L-57.12682,82.07634 L96.80771,-25.06525 L-89.78045,-44.03942 L39.43559,91.89578 L29.93631,-95.41393 L-84.86443,52.89640 L98.84683,15.14278 L-65.13725,-75.87581 L0.00000,100.00000 Z"/>
  </g>
</svg>
