<svg xmlns:ns0="http://www.w3.org/2000/svg" xlink="http://www.w3.org/1999/xlink" xmlns="http://www.w3.org/2000/svg" ns0:svg="http://www.w3.org/2000/svg" width="1280" height="1280">
  <defs/>
  <g id="canvas" transform="matrix(1,0,0,-1,0,1280) translate(640,640)">
    <path style="fill:none;stroke:black" d="M0.00000,100.00000 L14.23148,-98.98214 L-28.17326,95.94930 L41.54150,-90.96320 L-54.06408,84.12535 L65.48607,-75.57496 L-75.57496,65.48607 L84.12535,-54.06408 L-90.96320,41.54150 L95.94930,-28.17326 L-98.98214,14.23148 L100.00000,0.00000 L-98.98214,-14.23148 L95.94930,28.17326 L-90.96320,-41.54150 L84.12535,54.06408 L-75.57496,-65.48607 L65.48607,75.57496 L-54.06408,-84.12535 L41.54150,90.96320 L-28.17326,-95.94930 L14.23148,98.98214 L0.00000,-100.00000 L-14.23148,98.98214 L28.17326,-95.94930 L-41.54150,90.96320 L54.06408,-84.12535 L-65.48607,75.57496 L75.57496,-65.48607 L-84.12535,54.06408 L90.96320,-41.54150 L-95.94930,28.17326 L98.98214,-14.23148 L-100.00000,-0.00000 L98.98214,14.23148 L-95.94930,-28.17326 L90.96320,41.54150 L-84.12535,-54.06408 L75.57496,65.48607 L-65.48607,-75.57496 L54.06408,84.12535 L-41.54150,-90.96320 L28.17326,95.94930 L-14.23148,-98.98214 L0.00000,100.00000 Z"/>
  </g>
</svg>
