<svg xmlns:ns0="http://www.w3.org/2000/svg" xlink="http://www.w3.org/1999/xlink" xmlns="http://www.w3.org/2000/svg" ns0:svg="http://www.w3.org/2000/svg" width="1280" height="1280">
  <defs/>
  <g id="canvas" transform="matrix(1,0,0,-1,0,1280) translate(640,640)">
    <path style="fill:none;stroke:black" d="M0.00000,100.00000 L62.34898,-78.18315 L-97.49279,22.25209 L90.09689,43.38837 L-43.38837,-90.09689 L-22.25209,97.49279 L78.18315,-62.34898 L-100.00000,-0.00000 L78.18315,62.34898 L-22.25209,-97.49279 L-43.38837,90.09689 L90.09689,-43.38837 L-97.49279,-22.25209 L62.34898,78.18315 L0.00000,-100.00000 L-62.34898,78.18315 L97.49279,-22.25209 L-90.09689,-43.38837 L43.38837,90.09689 L22.25209,-97.49279 L-78.18315,62.34898 L100.00000,0.00000 L-78.18315,-62.34898 L22.25209,97.49279 L43.38837,-90.09689 L-90.09689,43.38837 L97.49279,22.25209 L-62.34898,-78.18315 L0.00000,100.00000 Z"/>
  </g>
</svg>
