<svg xmlns:ns0="http://www.w3.org/2000/svg" xlink="http://www.w3.org/1999/xlink" xmlns="http://www.w3.org/2000/svg" ns0:svg="http://www.w3.org/2000/svg" width="1280" height="1280">
  <defs/>
  <g id="canvas" transform="matrix(1,0,0,-1,0,1280) translate(640,640)">
    <path style="fill:none;stroke:black" d="M0.00000,100.00000 L92.71839,-37.46066 L-69.46584,-71.93398 L-40.67366,91.35455 L99.93908,3.48995 L-34.20201,-93.96926 L-74.31448,66.91306 L89.87940,43.83711 L6.97565,-99.75641 L-95.10565,30.90170 L64.27876,76.60444 L46.94716,-88.29476 L-99.45219,-10.45285 L27.56374,96.12617 L78.80108,-61.56615 L-86.60254,-50.00000 L-13.91731,99.02681 L97.02957,-24.19219 L-58.77853,-80.90170 L-52.99193,84.80481 L98.48078,17.36482 L-20.79117,-97.81476 L-82.90376,55.91929 L82.90376,55.91929 L20.79117,-97.81476 L-98.48078,17.36482 L52.99193,84.80481 L58.77853,-80.90170 L-97.02957,-24.19219 L13.91731,99.02681 L86.60254,-50.00000 L-78.80108,-61.56615 L-27.56374,96.12617 L99.45219,-10.45285 L-46.94716,-88.29476 L-64.27876,76.60444 L95.10565,30.90170 L-6.97565,-99.75641 L-89.87940,43.83711 L74.31448,66.91306 L34.20201,-93.96926 L-99.93908,3.48995 L40.67366,91.35455 L69.46584,-71.93398 L-92.71839,-37.46066 L0.00000,100.00000 Z"/>
  </g>
</svg>
