<svg xmlns:ns0="http://www.w3.org/2000/svg" xlink="http://www.w3.org/1999/xlink" xmlns="http://www.w3.org/2000/svg" ns0:svg="http://www.w3.org/2000/svg" width="1280" height="1280">
  <defs/>
  <g id="canvas" transform="matrix(1,0,0,-1,0,1280) translate(640,640)">
    <path style="fill:none;stroke:black" d="M0.00000,100.00000 L97.81476,20.79117 L40.67366,-91.35455 L-80.90170,-58.77853 L-74.31448,66.91306 L50.00000,86.60254 L95.10565,-30.90170 L-10.45285,-99.45219 L-99.45219,-10.45285 L-30.90170,95.10565 L86.60254,50.00000 L66.91306,-74.31448 L-58.77853,-80.90170 L-91.35455,40.67366 L20.79117,97.81476 L100.00000,0.00000 L20.79117,-97.81476 L-91.35455,-40.67366 L-58.77853,80.90170 L66.91306,74.31448 L86.60254,-50.00000 L-30.90170,-95.10565 L-99.45219,10.45285 L-10.45285,99.45219 L95.10565,30.90170 L50.00000,-86.60254 L-74.31448,-66.91306 L-80.90170,58.77853 L40.67366,91.35455 L97.81476,-20.79117 L0.00000,-100.00000 L-97.81476,-20.79117 L-40.67366,91.35455 L80.90170,58.77853 L74.31448,-66.91306 L-50.00000,-86.60254 L-95.10565,30.90170 L10.45285,99.45219 L99.45219,10.45285 L30.90170,-95.10565 L-86.60254,-50.00000 L-66.91306,74.31448 L58.77853,80.90170 L91.35455,-40.67366 L-20.79117,-97.81476 L-100.00000,-0.00000 L-20.79117,97.81476 L91.35455,40.67366 L58.77853,-80.90170 L-66.91306,-74.31448 L-86.60254,50.00000 L30.90170,95.10565 L99.45219,-10.45285 L10.45285,-99.45219 L-95.10565,-30.90170 L-50.00000,86.60254 L74.31448,66.91306 L80.90170,-58.77853 L-40.67366,-91.35455 L-97.81476,20.79117 L0.00000,100.00000 Z"/>
  </g>
</svg>
