<svg xmlns:ns0="http://www.w3.org/2000/svg" xlink="http://www.w3.org/1999/xlink" xmlns="http://www.w3.org/2000/svg" ns0:svg="http://www.w3.org/2000/svg" width="1280" height="1280">
  <defs/>
  <g id="canvas" transform="matrix(1,0,0,-1,0,1280) translate(640,640)">
    <path style="fill:none;stroke:black" d="M0.00000,100.00000 L87.47631,48.45509 L84.77344,-53.04209 L-5.32222,-99.85827 L-89.93121,-43.73073 L-81.83028,57.47874 L10.62935,99.43348 L92.13120,38.88242 L78.65516,-61.75246 L-15.90635,-98.72684 L-94.07003,-33.92389 L-75.25708,65.85114 L21.13826,97.74034 L95.74220,28.86919 L71.64567,-69.76315 L-26.31026,-96.47679 L-97.14299,-23.73267 L-67.83118,73.47742 L31.40767,94.93976 L98.26841,18.52887 L63.82442,-76.98340 L-36.41606,-93.13362 L-99.11528,-13.27255 L-59.63674,80.27116 L41.32122,91.06348 L99.68120,7.97861 L55.28001,-83.33139 L-46.10925,-88.73521 L-99.96456,-2.66205 L-50.76658,86.15541 L50.76658,86.15541 L99.96456,-2.66205 L46.10925,-88.73521 L-55.28001,-83.33139 L-99.68120,7.97861 L-41.32122,91.06348 L59.63674,80.27116 L99.11528,-13.27255 L36.41606,-93.13362 L-63.82442,-76.98340 L-98.26841,18.52887 L-31.40767,94.93976 L67.83118,73.47742 L97.14299,-23.73267 L26.31026,-96.47679 L-71.64567,-69.76315 L-95.74220,28.86919 L-21.13826,97.74034 L75.25708,65.85114 L94.07003,-33.92389 L15.90635,-98.72684 L-78.65516,-61.75246 L-92.13120,38.88242 L-10.62935,99.43348 L81.83028,57.47874 L89.93121,-43.73073 L5.32222,-99.85827 L-84.77344,-53.04209 L-87.47631,48.45509 L0.00000,100.00000 Z"/>
  </g>
</svg>
