<svg xmlns:ns0="http://www.w3.org/2000/svg" xlink="http://www.w3.org/1999/xlink" xmlns="http://www.w3.org/2000/svg" ns0:svg="http://www.w3.org/2000/svg" width="1280" height="1280">
  <defs/>
  <g id="canvas" transform="matrix(1,0,0,-1,0,1280) translate(640,640)">
    <path style="fill:none;stroke:black" d="M0.00000,100.00000 L76.21621,-64.73863 L-98.68265,-16.17820 L51.55539,85.68572 L31.93015,-94.76532 L-92.89767,37.01382 L88.35120,46.84084 L-21.49704,-97.66206 L-60.51742,79.60931 L99.85334,-5.41389 L-68.76995,-72.59955 L-10.81190,99.41380 L82.76890,-56.11871 L-96.35500,-26.75283 L41.98891,90.75754 L41.98891,-90.75754 L-96.35500,26.75283 L82.76890,56.11871 L-10.81190,-99.41380 L-68.76995,72.59955 L99.85334,5.41389 L-60.51742,-79.60931 L-21.49704,97.66206 L88.35120,-46.84084 L-92.89767,-37.01382 L31.93015,94.76532 L51.55539,-85.68572 L-98.68265,16.17820 L76.21621,64.73863 L0.00000,-100.00000 L-76.21621,64.73863 L98.68265,16.17820 L-51.55539,-85.68572 L-31.93015,94.76532 L92.89767,-37.01382 L-88.35120,-46.84084 L21.49704,97.66206 L60.51742,-79.60931 L-99.85334,5.41389 L68.76995,72.59955 L10.81190,-99.41380 L-82.76890,56.11871 L96.35500,26.75283 L-41.98891,-90.75754 L-41.98891,90.75754 L96.35500,-26.75283 L-82.76890,-56.11871 L10.81190,99.41380 L68.76995,-72.59955 L-99.85334,-5.41389 L60.51742,79.60931 L21.49704,-97.66206 L-88.35120,46.84084 L92.89767,37.01382 L-31.93015,-94.76532 L-51.55539,85.68572 L98.68265,-16.17820 L-76.21621,-64.73863 L0.00000,100.00000 Z"/>
  </g>
</svg>
