<svg xmlns:ns0="http://www.w3.org/2000/svg" xlink="http://www.w3.org/1999/xlink" xmlns="http://www.w3.org/2000/svg" ns0:svg="http://www.w3.org/2000/svg" width="1280" height="1280">
  <defs/>
  <g id="canvas" transform="matrix(1,0,0,-1,0,1280) translate(640,640)">
    <path style="fill:none;stroke:black" d="M0.00000,100.00000 L73.30519,-68.01727 L-99.72038,-7.47301 L62.34898,78.18315 L14.90423,-98.88308 L-82.62388,56.33201 L97.49279,22.25209 L-50.00000,-86.60254 L-29.47552,95.55728 L90.09689,-43.38837 L-93.08737,-36.53410 L36.53410,93.08737 L43.38837,-90.09689 L-95.55728,29.47552 L86.60254,50.00000 L-22.25209,-97.49279 L-56.33201,82.62388 L98.88308,-14.90423 L-78.18315,-62.34898 L7.47301,99.72038 L68.01727,-73.30519 L-100.00000,-0.00000 L68.01727,73.30519 L7.47301,-99.72038 L-78.18315,62.34898 L98.88308,14.90423 L-56.33201,-82.62388 L-22.25209,97.49279 L86.60254,-50.00000 L-95.55728,-29.47552 L43.38837,90.09689 L36.53410,-93.08737 L-93.08737,36.53410 L90.09689,43.38837 L-29.47552,-95.55728 L-50.00000,86.60254 L97.49279,-22.25209 L-82.62388,-56.33201 L14.90423,98.88308 L62.34898,-78.18315 L-99.72038,7.47301 L73.30519,68.01727 L0.00000,-100.00000 L-73.30519,68.01727 L99.72038,7.47301 L-62.34898,-78.18315 L-14.90423,98.88308 L82.62388,-56.33201 L-97.49279,-22.25209 L50.00000,86.60254 L29.47552,-95.55728 L-90.09689,43.38837 L93.08737,36.53410 L-36.53410,-93.08737 L-43.38837,90.09689 L95.55728,-29.47552 L-86.60254,-50.00000 L22.25209,97.49279 L56.33201,-82.62388 L-98.88308,14.90423 L78.18315,62.34898 L-7.47301,-99.72038 L-68.01727,73.30519 L100.00000,0.00000 L-68.01727,-73.30519 L-7.47301,99.72038 L78.18315,-62.34898 L-98.88308,-14.90423 L56.33201,82.62388 L22.25209,-97.49279 L-86.60254,50.00000 L95.55728,29.47552 L-43.38837,-90.09689 L-36.53410,93.08737 L93.08737,-36.53410 L-90.09689,-43.38837 L29.47552,95.55728 L50.00000,-86.60254 L-97.49279,22.25209 L82.62388,56.33201 L-14.90423,-98.88308 L-62.34898,78.18315 L99.72038,-7.47301 L-73.30519,-68.01727 L0.00000,100.00000 Z"/>
  </g>
</svg>
