<svg xmlns:ns0="http://www.w3.org/2000/svg" xlink="http://www.w3.org/1999/xlink" xmlns="http://www.w3.org/2000/svg" ns0:svg="http://www.w3.org/2000/svg" width="1280" height="1280">
  <defs/>
  <g id="canvas" transform="matrix(1,0,0,-1,0,1280) translate(640,640)">
    <path style="fill:none;stroke:black" d="M0.00000,100.00000 L67.36956,-73.90089 L-99.57342,9.22684 L79.80172,60.26346 L-18.37495,-98.29731 L-52.64322,85.02171 L96.18256,-27.36630 L-89.51633,-44.57384 L36.12417,93.24722 L36.12417,-93.24722 L-89.51633,44.57384 L96.18256,27.36630 L-52.64322,-85.02171 L-18.37495,98.29731 L79.80172,-60.26346 L-99.57342,-9.22684 L67.36956,73.90089 L0.00000,-100.00000 L-67.36956,73.90089 L99.57342,-9.22684 L-79.80172,-60.26346 L18.37495,98.29731 L52.64322,-85.02171 L-96.18256,27.36630 L89.51633,44.57384 L-36.12417,-93.24722 L-36.12417,93.24722 L89.51633,-44.57384 L-96.18256,-27.36630 L52.64322,85.02171 L18.37495,-98.29731 L-79.80172,60.26346 L99.57342,9.22684 L-67.36956,-73.90089 L0.00000,100.00000 Z"/>
  </g>
</svg>
