<svg xmlns:ns0="http://www.w3.org/2000/svg" xlink="http://www.w3.org/1999/xlink" xmlns="http://www.w3.org/2000/svg" ns0:svg="http://www.w3.org/2000/svg" width="1280" height="1280">
  <defs/>
  <g id="canvas" transform="matrix(1,0,0,-1,0,1280) translate(640,640)">
    <path style="fill:none;stroke:black" d="M0.00000,100.00000 L58.06029,81.41869 L94.54385,32.58006 L95.89244,-28.36618 L61.60488,-78.77080 L4.42333,-99.90212 L-54.40204,-83.90720 L-93.01019,-36.73016 L-97.05331,24.09677 L-65.02888,75.96871 L-8.83801,99.60868 L50.63730,86.23146 L91.29446,40.80836 L98.02420,-19.78019 L68.32558,-73.01791 L13.23539,-99.12025 L-46.77343,-88.38691 L-89.40001,-44.80668 L-98.80320,15.42489 L-71.48853,69.92417 L-17.60685,98.43779 L42.81800,90.36935 L87.33056,48.71728 L99.38879,-11.03940 L74.51154,-66.69355 L21.94385,-97.56263 L-38.77875,-92.17488 L-85.09015,-52.53252 L-99.77982,6.63230 L-77.38869,63.33238 L-26.23790,96.49649 L34.66359,93.79998 L82.68318,56.24493 L99.97553,-2.21221 L80.11435,-59.84723 L30.48058,-95.24145 L-30.48058,-95.24145 L-80.11435,-59.84723 L-99.97553,-2.21221 L-82.68318,56.24493 L-34.66359,93.79998 L26.23790,96.49649 L77.38869,63.33238 L99.77982,6.63230 L85.09015,-52.53252 L38.77875,-92.17488 L-21.94385,-97.56263 L-74.51154,-66.69355 L-99.38879,-11.03940 L-87.33056,48.71728 L-42.81800,90.36935 L17.60685,98.43779 L71.48853,69.92417 L98.80320,15.42489 L89.40001,-44.80668 L46.77343,-88.38691 L-13.23539,-99.12025 L-68.32558,-73.01791 L-98.02420,-19.78019 L-91.29446,40.80836 L-50.63730,86.23146 L8.83801,99.60868 L65.02888,75.96871 L97.05331,24.09677 L93.01019,-36.73016 L54.40204,-83.90720 L-4.42333,-99.90212 L-61.60488,-78.77080 L-95.89244,-28.36618 L-94.54385,32.58006 L-58.06029,81.41869 L0.00000,100.00000 Z"/>
  </g>
</svg>
