<svg xmlns:ns0="http://www.w3.org/2000/svg" xlink="http://www.w3.org/1999/xlink" xmlns="http://www.w3.org/2000/svg" ns0:svg="http://www.w3.org/2000/svg" width="1280" height="1280">
  <defs/>
  <g id="canvas" transform="matrix(1,0,0,-1,0,1280) translate(640,640)">
    <path style="fill:none;stroke:black" d="M0.00000,100.00000 L44.46352,-89.57118 L-79.65299,60.45991 L98.22873,-18.73813 L-96.31626,-26.89198 L74.31448,66.91306 L-36.81246,-92.97765 L-8.36778,99.64929 L51.80270,-85.53643 L-84.43279,53.58268 L99.45219,-10.45285 L-93.72820,-34.85720 L68.45471,72.89686 L-28.90318,-95.73195 L-16.67687,98.59960 L58.77853,-80.90170 L-88.62036,46.32960 L99.97807,-2.09424 L-90.48271,-42.57793 L62.11478,78.36935 L-20.79117,-97.81476 L-24.86899,96.85832 L65.34206,-75.69951 L-92.18632,38.75156 L99.80267,6.27905 L-86.60254,-50.00000 L55.33915,83.29212 L-12.53332,-99.21147 L-32.88666,94.43764 L71.44727,-69.96633 L-95.10565,30.90170 L98.92723,14.60830 L-82.11492,-57.07136 L48.17537,87.63067 L-4.18757,-99.91228 L-40.67366,91.35455 L77.05132,-63.74240 L-97.35789,22.83509 L97.35789,22.83509 L-77.05132,-63.74240 L40.67366,91.35455 L4.18757,-99.91228 L-48.17537,87.63067 L82.11492,-57.07136 L-98.92723,14.60830 L95.10565,30.90170 L-71.44727,-69.96633 L32.88666,94.43764 L12.53332,-99.21147 L-55.33915,83.29212 L86.60254,-50.00000 L-99.80267,6.27905 L92.18632,38.75156 L-65.34206,-75.69951 L24.86899,96.85832 L20.79117,-97.81476 L-62.11478,78.36935 L90.48271,-42.57793 L-99.97807,-2.09424 L88.62036,46.32960 L-58.77853,-80.90170 L16.67687,98.59960 L28.90318,-95.73195 L-68.45471,72.89686 L93.72820,-34.85720 L-99.45219,-10.45285 L84.43279,53.58268 L-51.80270,-85.53643 L8.36778,99.64929 L36.81246,-92.97765 L-74.31448,66.91306 L96.31626,-26.89198 L-98.22873,-18.73813 L79.65299,60.45991 L-44.46352,-89.57118 L0.00000,100.00000 Z"/>
  </g>
</svg>
