<svg xmlns:ns0="http://www.w3.org/2000/svg" xlink="http://www.w3.org/1999/xlink" xmlns="http://www.w3.org/2000/svg" ns0:svg="http://www.w3.org/2000/svg" width="1280" height="1280">
  <defs/>
  <g id="canvas" transform="matrix(1,0,0,-1,0,1280) translate(640,640)">
    <path style="fill:none;stroke:black" d="M0.00000,100.00000 L81.19380,-58.37437 L-94.79273,-31.84867 L29.47552,95.55728 L60.38044,-79.71325 L-99.96892,-2.49307 L56.33201,82.62388 L34.20201,-93.96926 L-96.26242,27.08405 L78.18315,62.34898 L4.98459,-99.87569 L-84.00259,54.25463 L93.08737,36.53410 L-24.67574,-96.90773 L-64.27876,76.60444 L99.72038,7.47301 L-52.14352,-85.32909 L-38.84348,92.14762 L97.49279,-22.25209 L-74.97812,-66.16858 L-9.95678,99.50308 L86.60254,-50.00000 L-91.15059,-41.12871 L19.81461,98.01725 L68.01727,-73.30519 L-99.22392,-12.43437 L47.82540,87.82216 L43.38837,-90.09689 L-98.48078,17.36482 L71.58668,69.82368 L14.90423,-98.88308 L-88.98718,45.62107 L88.98718,45.62107 L-14.90423,-98.88308 L-71.58668,69.82368 L98.48078,17.36482 L-43.38837,-90.09689 L-47.82540,87.82216 L99.22392,-12.43437 L-68.01727,-73.30519 L-19.81461,98.01725 L91.15059,-41.12871 L-86.60254,-50.00000 L9.95678,99.50308 L74.97812,-66.16858 L-97.49279,-22.25209 L38.84348,92.14762 L52.14352,-85.32909 L-99.72038,7.47301 L64.27876,76.60444 L24.67574,-96.90773 L-93.08737,36.53410 L84.00259,54.25463 L-4.98459,-99.87569 L-78.18315,62.34898 L96.26242,27.08405 L-34.20201,-93.96926 L-56.33201,82.62388 L99.96892,-2.49307 L-60.38044,-79.71325 L-29.47552,95.55728 L94.79273,-31.84867 L-81.19380,-58.37437 L0.00000,100.00000 Z"/>
  </g>
</svg>
