<svg xmlns:ns0="http://www.w3.org/2000/svg" xlink="http://www.w3.org/1999/xlink" xmlns="http://www.w3.org/2000/svg" ns0:svg="http://www.w3.org/2000/svg" width="1280" height="1280">
  <defs/>
  <g id="canvas" transform="matrix(1,0,0,-1,0,1280) translate(640,640)">
    <path style="fill:none;stroke:black" d="M0.00000,100.00000 L96.05181,-27.82175 L-53.44658,-84.51901 L-66.31227,74.85107 L90.34504,42.86926 L16.04113,-98.70503 L-99.27089,12.05367 L39.19666,91.99794 L77.46050,-63.24454 L-82.29839,-56.80647 L-31.66680,94.85364 L99.91890,4.02659 L-23.93157,-97.09418 L-86.60254,50.00000 L72.12024,69.27244 L46.47232,-88.54560 L-97.97907,-20.00257 L8.04666,99.67573 L93.50162,-35.46049 L-60.07423,-79.94428 L-60.07423,79.94428 L93.50162,35.46049 L8.04666,-99.67573 L-97.97907,20.00257 L46.47232,88.54560 L72.12024,-69.27244 L-86.60254,-50.00000 L-23.93157,97.09418 L99.91890,-4.02659 L-31.66680,-94.85364 L-82.29839,56.80647 L77.46050,63.24454 L39.19666,-91.99794 L-99.27089,-12.05367 L16.04113,98.70503 L90.34504,-42.86926 L-66.31227,-74.85107 L-53.44658,84.51901 L96.05181,27.82175 L0.00000,-100.00000 L-96.05181,27.82175 L53.44658,84.51901 L66.31227,-74.85107 L-90.34504,-42.86926 L-16.04113,98.70503 L99.27089,-12.05367 L-39.19666,-91.99794 L-77.46050,63.24454 L82.29839,56.80647 L31.66680,-94.85364 L-99.91890,-4.02659 L23.93157,97.09418 L86.60254,-50.00000 L-72.12024,-69.27244 L-46.47232,88.54560 L97.97907,20.00257 L-8.04666,-99.67573 L-93.50162,35.46049 L60.07423,79.94428 L60.07423,-79.94428 L-93.50162,-35.46049 L-8.04666,99.67573 L97.97907,-20.00257 L-46.47232,-88.54560 L-72.12024,69.27244 L86.60254,50.00000 L23.93157,-97.09418 L-99.91890,4.02659 L31.66680,94.85364 L82.29839,-56.80647 L-77.46050,-63.24454 L-39.19666,91.99794 L99.27089,12.05367 L-16.04113,-98.70503 L-90.34504,42.86926 L66.31227,74.85107 L53.44658,-84.51901 L-96.05181,-27.82175 L0.00000,100.00000 Z"/>
  </g>
</svg>
