<svg xmlns:ns0="http://www.w3.org/2000/svg" xlink="http://www.w3.org/1999/xlink" xmlns="http://www.w3.org/2000/svg" ns0:svg="http://www.w3.org/2000/svg" width="1280" height="1280">
  <defs/>
  <g id="canvas" transform="matrix(1,0,0,-1,0,1280) translate(640,640)">
    <path style="fill:none;stroke:black" d="M0.00000,100.00000 L91.95278,39.30250 L72.27949,-69.10626 L-35.13748,-93.62349 L-99.89931,-4.48648 L-43.38837,90.09689 L65.79387,75.30715 L95.10565,-30.90170 L8.96393,-99.59743 L-88.05955,-47.38687 L-78.18315,62.34898 L26.60368,96.39629 L99.09498,13.42333 L51.28993,-85.84488 L-58.77853,-80.90170 L-97.49279,22.25209 L-17.85569,98.39296 L83.45733,55.08970 L83.45733,-55.08970 L-17.85569,-98.39296 L-97.49279,-22.25209 L-58.77853,80.90170 L51.28993,85.84488 L99.09498,-13.42333 L26.60368,-96.39629 L-78.18315,-62.34898 L-88.05955,47.38687 L8.96393,99.59743 L95.10565,30.90170 L65.79387,-75.30715 L-43.38837,-90.09689 L-99.89931,4.48648 L-35.13748,93.62349 L72.27949,69.10626 L91.95278,-39.30250 L0.00000,-100.00000 L-91.95278,-39.30250 L-72.27949,69.10626 L35.13748,93.62349 L99.89931,4.48648 L43.38837,-90.09689 L-65.79387,-75.30715 L-95.10565,30.90170 L-8.96393,99.59743 L88.05955,47.38687 L78.18315,-62.34898 L-26.60368,-96.39629 L-99.09498,-13.42333 L-51.28993,85.84488 L58.77853,80.90170 L97.49279,-22.25209 L17.85569,-98.39296 L-83.45733,-55.08970 L-83.45733,55.08970 L17.85569,98.39296 L97.49279,22.25209 L58.77853,-80.90170 L-51.28993,-85.84488 L-99.09498,13.42333 L-26.60368,96.39629 L78.18315,62.34898 L88.05955,-47.38687 L-8.96393,-99.59743 L-95.10565,-30.90170 L-65.79387,75.30715 L43.38837,90.09689 L99.89931,-4.48648 L35.13748,-93.62349 L-72.27949,-69.10626 L-91.95278,39.30250 L0.00000,100.00000 Z"/>
  </g>
</svg>
