<svg xmlns:ns0="http://www.w3.org/2000/svg" xlink="http://www.w3.org/1999/xlink" xmlns="http://www.w3.org/2000/svg" ns0:svg="http://www.w3.org/2000/svg" width="1280" height="1280">
  <defs/>
  <g id="canvas" transform="matrix(1,0,0,-1,0,1280) translate(640,640)">
    <path style="fill:none;stroke:black" d="M0.00000,100.00000 L98.07853,19.50903 L38.26834,-92.38795 L-83.14696,-55.55702 L-70.71068,70.71068 L55.55702,83.14696 L92.38795,-38.26834 L-19.50903,-98.07853 L-100.00000,-0.00000 L-19.50903,98.07853 L92.38795,38.26834 L55.55702,-83.14696 L-70.71068,-70.71068 L-83.14696,55.55702 L38.26834,92.38795 L98.07853,-19.50903 L0.00000,-100.00000 L-98.07853,-19.50903 L-38.26834,92.38795 L83.14696,55.55702 L70.71068,-70.71068 L-55.55702,-83.14696 L-92.38795,38.26834 L19.50903,98.07853 L100.00000,0.00000 L19.50903,-98.07853 L-92.38795,-38.26834 L-55.55702,83.14696 L70.71068,70.71068 L83.14696,-55.55702 L-38.26834,-92.38795 L-98.07853,19.50903 L0.00000,100.00000 Z"/>
  </g>
</svg>
