<svg xmlns:ns0="http://www.w3.org/2000/svg" xlink="http://www.w3.org/1999/xlink" xmlns="http://www.w3.org/2000/svg" ns0:svg="http://www.w3.org/2000/svg" width="1280" height="1280">
  <defs/>
  <g id="canvas" transform="matrix(1,0,0,-1,0,1280) translate(640,640)">
    <path style="fill:none;stroke:black" d="M0.00000,100.00000 L23.34454,97.23699 L45.39905,89.10065 L64.94480,76.04060 L80.90170,58.77853 L92.38795,38.26834 L98.76883,15.64345 L99.69173,-7.84591 L95.10565,-30.90170 L85.26402,-52.24986 L70.71068,-70.71068 L52.24986,-85.26402 L30.90170,-95.10565 L7.84591,-99.69173 L-15.64345,-98.76883 L-38.26834,-92.38795 L-58.77853,-80.90170 L-76.04060,-64.94480 L-89.10065,-45.39905 L-97.23699,-23.34454 L-100.00000,-0.00000 L-97.23699,23.34454 L-89.10065,45.39905 L-76.04060,64.94480 L-58.77853,80.90170 L-38.26834,92.38795 L-15.64345,98.76883 L7.84591,99.69173 L30.90170,95.10565 L52.24986,85.26402 L70.71068,70.71068 L85.26402,52.24986 L95.10565,30.90170 L99.69173,7.84591 L98.76883,-15.64345 L92.38795,-38.26834 L80.90170,-58.77853 L64.94480,-76.04060 L45.39905,-89.10065 L23.34454,-97.23699 L0.00000,-100.00000 L-23.34454,-97.23699 L-45.39905,-89.10065 L-64.94480,-76.04060 L-80.90170,-58.77853 L-92.38795,-38.26834 L-98.76883,-15.64345 L-99.69173,7.84591 L-95.10565,30.90170 L-85.26402,52.24986 L-70.71068,70.71068 L-52.24986,85.26402 L-30.90170,95.10565 L-7.84591,99.69173 L15.64345,98.76883 L38.26834,92.38795 L58.77853,80.90170 L76.04060,64.94480 L89.10065,45.39905 L97.23699,23.34454 L100.00000,0.00000 L97.23699,-23.34454 L89.10065,-45.39905 L76.04060,-64.94480 L58.77853,-80.90170 L38.26834,-92.38795 L15.64345,-98.76883 L-7.84591,-99.69173 L-30.90170,-95.10565 L-52.24986,-85.26402 L-70.71068,-70.71068 L-85.26402,-52.24986 L-95.10565,-30.90170 L-99.69173,-7.84591 L-98.76883,15.64345 L-92.38795,38.26834 L-80.90170,58.77853 L-64.94480,76.04060 L-45.39905,89.10065 L-23.34454,97.23699 L0.00000,100.00000 Z"/>
  </g>
</svg>
