<svg xmlns:ns0="http://www.w3.org/2000/svg" xlink="http://www.w3.org/1999/xlink" xmlns="http://www.w3.org/2000/svg" ns0:svg="http://www.w3.org/2000/svg" width="1280" height="1280">
  <defs/>
  <g id="canvas" transform="matrix(1,0,0,-1,0,1280) translate(640,640)">
    <path style="fill:none;stroke:black" d="M0.00000,100.00000 L98.13065,19.24516 L37.77080,-92.59248 L-83.59255,-54.88430 L-69.94583,71.46734 L56.67018,82.39230 L91.75836,-39.75428 L-21.35209,-97.69385 L-99.97685,2.15161 L-17.12931,98.52201 L93.38372,35.76982 L53.07300,-84.75409 L-72.95576,-68.39194 L-81.15391,58.42982 L41.71936,90.88176 L97.21182,-23.44914 L-4.30222,-99.90741 L-98.86776,-15.00554 L-33.75229,94.13173 L85.87640,51.23714 L66.80639,-74.41039 L-60.16241,-79.87794 L-89.96309,43.66512 L25.53533,96.68478 L99.79172,-6.45084 L12.87482,-99.16773 L-94.83616,-31.71913 L-49.37756,86.95894 L75.83058,65.18990 L78.56499,-61.86714 L-45.59067,-89.00276 L-96.11298,27.60970 L8.59648,99.62982 L99.42179,10.73813 L29.67128,-95.49668 L-88.00122,-47.49511 L-63.54323,77.21566 L63.54323,77.21566 L88.00122,-47.49511 L-29.67128,-95.49668 L-99.42179,10.73813 L-8.59648,99.62982 L96.11298,27.60970 L45.59067,-89.00276 L-78.56499,-61.86714 L-75.83058,65.18990 L49.37756,86.95894 L94.83616,-31.71913 L-12.87482,-99.16773 L-99.79172,-6.45084 L-25.53533,96.68478 L89.96309,43.66512 L60.16241,-79.87794 L-66.80639,-74.41039 L-85.87640,51.23714 L33.75229,94.13173 L98.86776,-15.00554 L4.30222,-99.90741 L-97.21182,-23.44914 L-41.71936,90.88176 L81.15391,58.42982 L72.95576,-68.39194 L-53.07300,-84.75409 L-93.38372,35.76982 L17.12931,98.52201 L99.97685,2.15161 L21.35209,-97.69385 L-91.75836,-39.75428 L-56.67018,82.39230 L69.94583,71.46734 L83.59255,-54.88430 L-37.77080,-92.59248 L-98.13065,19.24516 L0.00000,100.00000 Z"/>
  </g>
</svg>
