<svg xmlns:ns0="http://www.w3.org/2000/svg" xlink="http://www.w3.org/1999/xlink" xmlns="http://www.w3.org/2000/svg" ns0:svg="http://www.w3.org/2000/svg" width="1280" height="1280">
  <defs/>
  <g id="canvas" transform="matrix(1,0,0,-1,0,1280) translate(640,640)">
    <path style="fill:none;stroke:black" d="M0.00000,100.00000 L95.61667,29.28228 L55.99748,-82.85096 L-62.82200,-77.80358 L-92.78890,37.28565 L8.48059,99.63975 L97.75552,21.06793 L48.76949,-87.30141 L-69.19389,-72.19561 L-89.29259,45.02037 L16.90008,98.56159 L99.19004,12.70178 L41.19012,-91.12285 L-75.06723,-66.06747 L-85.15291,52.43073 L25.19781,96.77329 L99.90990,4.24412 L33.31398,-94.28774 L-80.39971,-59.46332 L-80.39971,59.46332 L33.31398,94.28774 L99.90990,-4.24412 L25.19781,-96.77329 L-85.15291,-52.43073 L-75.06723,66.06747 L41.19012,91.12285 L99.19004,-12.70178 L16.90008,-98.56159 L-89.29259,-45.02037 L-69.19389,72.19561 L48.76949,87.30141 L97.75552,-21.06793 L8.48059,-99.63975 L-92.78890,-37.28565 L-62.82200,77.80358 L55.99748,82.85096 L95.61667,-29.28228 L0.00000,-100.00000 L-95.61667,-29.28228 L-55.99748,82.85096 L62.82200,77.80358 L92.78890,-37.28565 L-8.48059,-99.63975 L-97.75552,-21.06793 L-48.76949,87.30141 L69.19389,72.19561 L89.29259,-45.02037 L-16.90008,-98.56159 L-99.19004,-12.70178 L-41.19012,91.12285 L75.06723,66.06747 L85.15291,-52.43073 L-25.19781,-96.77329 L-99.90990,-4.24412 L-33.31398,94.28774 L80.39971,59.46332 L80.39971,-59.46332 L-33.31398,-94.28774 L-99.90990,4.24412 L-25.19781,96.77329 L85.15291,52.43073 L75.06723,-66.06747 L-41.19012,-91.12285 L-99.19004,12.70178 L-16.90008,98.56159 L89.29259,45.02037 L69.19389,-72.19561 L-48.76949,-87.30141 L-97.75552,21.06793 L-8.48059,99.63975 L92.78890,37.28565 L62.82200,-77.80358 L-55.99748,-82.85096 L-95.61667,29.28228 L0.00000,100.00000 Z"/>
  </g>
</svg>
