<svg xmlns:ns0="http://www.w3.org/2000/svg" xlink="http://www.w3.org/1999/xlink" xmlns="http://www.w3.org/2000/svg" ns0:svg="http://www.w3.org/2000/svg" width="1280" height="1280">
  <defs/>
  <g id="canvas" transform="matrix(1,0,0,-1,0,1280) translate(640,640)">
    <path style="fill:none;stroke:black" d="M0.00000,100.00000 L81.45760,-58.00569 L-94.50008,-32.70680 L28.17326,95.94930 L61.81590,-78.60531 L-99.88673,-4.75819 L54.06408,84.12535 L37.16625,-92.83679 L-97.18116,23.57589 L75.57496,65.48607 L9.50560,-99.54719 L-86.60254,50.00000 L90.96320,41.54150 L-18.92512,-98.19287 L-69.00790,72.37340 L98.98214,14.23148 L-45.82265,-88.88354 L-45.82265,88.88354 L98.98214,-14.23148 L-69.00790,-72.37340 L-18.92512,98.19287 L90.96320,-41.54150 L-86.60254,-50.00000 L9.50560,99.54719 L75.57496,-65.48607 L-97.18116,-23.57589 L37.16625,92.83679 L54.06408,-84.12535 L-99.88673,4.75819 L61.81590,78.60531 L28.17326,-95.94930 L-94.50008,32.70680 L81.45760,58.00569 L0.00000,-100.00000 L-81.45760,58.00569 L94.50008,32.70680 L-28.17326,-95.94930 L-61.81590,78.60531 L99.88673,4.75819 L-54.06408,-84.12535 L-37.16625,92.83679 L97.18116,-23.57589 L-75.57496,-65.48607 L-9.50560,99.54719 L86.60254,-50.00000 L-90.96320,-41.54150 L18.92512,98.19287 L69.00790,-72.37340 L-98.98214,-14.23148 L45.82265,88.88354 L45.82265,-88.88354 L-98.98214,14.23148 L69.00790,72.37340 L18.92512,-98.19287 L-90.96320,41.54150 L86.60254,50.00000 L-9.50560,-99.54719 L-75.57496,65.48607 L97.18116,23.57589 L-37.16625,-92.83679 L-54.06408,84.12535 L99.88673,-4.75819 L-61.81590,-78.60531 L-28.17326,95.94930 L94.50008,-32.70680 L-81.45760,-58.00569 L0.00000,100.00000 Z"/>
  </g>
</svg>
