<svg xmlns:ns0="http://www.w3.org/2000/svg" xlink="http://www.w3.org/1999/xlink" xmlns="http://www.w3.org/2000/svg" ns0:svg="http://www.w3.org/2000/svg" width="1280" height="1280">
  <defs/>
  <g id="canvas" transform="matrix(1,0,0,-1,0,1280) translate(640,640)">
    <path style="fill:none;stroke:black" d="M0.00000,100.00000 L62.61852,77.96744 L97.64411,21.57842 L89.64269,-44.31915 L42.14011,-90.68744 L-23.93157,-97.09418 L-79.45777,-60.71625 L-99.97080,2.41637 L-76.43157,64.48422 L-19.21267,98.13701 L46.47232,88.54560 L91.67922,39.93646 L96.48756,-26.27074 L58.77853,-80.90170 L-4.83134,-99.88322 L-66.31227,-74.85107 L-98.57261,-16.83570 L-87.39680,48.59834 L-37.70948,92.61746 L28.59457,95.82458 L82.29839,56.80647 L99.73731,-7.24348 L73.22687,-68.10159 L14.44890,-98.95064 L-50.69599,-86.19697 L-93.50162,-35.46049 L-95.10565,30.90170 L-54.80125,83.64701 L9.65139,99.53316 L69.85114,71.55990 L99.27089,12.05367 L84.94679,-52.76402 L33.19079,-94.33118 L-33.19079,-94.33118 L-84.94679,-52.76402 L-99.27089,12.05367 L-69.85114,71.55990 L-9.65139,99.53316 L54.80125,83.64701 L95.10565,30.90170 L93.50162,-35.46049 L50.69599,-86.19697 L-14.44890,-98.95064 L-73.22687,-68.10159 L-99.73731,-7.24348 L-82.29839,56.80647 L-28.59457,95.82458 L37.70948,92.61746 L87.39680,48.59834 L98.57261,-16.83570 L66.31227,-74.85107 L4.83134,-99.88322 L-58.77853,-80.90170 L-96.48756,-26.27074 L-91.67922,39.93646 L-46.47232,88.54560 L19.21267,98.13701 L76.43157,64.48422 L99.97080,2.41637 L79.45777,-60.71625 L23.93157,-97.09418 L-42.14011,-90.68744 L-89.64269,-44.31915 L-97.64411,21.57842 L-62.61852,77.96744 L0.00000,100.00000 Z"/>
  </g>
</svg>
