<svg xmlns:ns0="http://www.w3.org/2000/svg" xlink="http://www.w3.org/1999/xlink" xmlns="http://www.w3.org/2000/svg" ns0:svg="http://www.w3.org/2000/svg" width="1280" height="1280">
  <defs/>
  <g id="canvas" transform="matrix(1,0,0,-1,0,1280) translate(640,640)">
    <path style="fill:none;stroke:black" d="M0.00000,100.00000 L38.68497,-92.21428 L-71.34613,70.06946 L92.89767,-37.01382 L-99.98370,-1.80541 L91.50082,40.34352 L-68.76995,-72.59955 L35.33059,93.55078 L3.61024,-99.93481 L-41.98891,90.75754 L73.82930,-67.44801 L-94.17340,33.63586 L99.85334,5.41389 L-89.98468,-43.62062 L66.10410,75.03498 L-31.93015,-94.76532 L-7.21578,99.73932 L45.23810,-89.18248 L-76.21621,64.73863 L95.32634,-30.21404 L-99.59279,-9.01531 L88.35120,46.84084 L-63.35206,-77.37258 L28.48808,95.85629 L10.81190,-99.41380 L-48.42832,87.49113 L78.50374,-61.94484 L-96.35500,26.75283 L99.20239,12.60497 L-86.60254,-50.00000 L60.51742,79.60931 L-25.00887,-96.82229 L-14.39393,98.95865 L51.55539,-85.68572 L-80.68892,59.07028 L97.25803,-23.25675 L-98.68265,-16.17820 L84.74096,53.09397 L-57.60388,-81.74223 L21.49704,97.66206 L17.95719,-98.37448 L-54.61524,83.76858 L82.76890,-56.11871 L-98.03425,19.73033 L98.03425,19.73033 L-82.76890,-56.11871 L54.61524,83.76858 L-17.95719,-98.37448 L-21.49704,97.66206 L57.60388,-81.74223 L-84.74096,53.09397 L98.68265,-16.17820 L-97.25803,-23.25675 L80.68892,59.07028 L-51.55539,-85.68572 L14.39393,98.95865 L25.00887,-96.82229 L-60.51742,79.60931 L86.60254,-50.00000 L-99.20239,12.60497 L96.35500,26.75283 L-78.50374,-61.94484 L48.42832,87.49113 L-10.81190,-99.41380 L-28.48808,95.85629 L63.35206,-77.37258 L-88.35120,46.84084 L99.59279,-9.01531 L-95.32634,-30.21404 L76.21621,64.73863 L-45.23810,-89.18248 L7.21578,99.73932 L31.93015,-94.76532 L-66.10410,75.03498 L89.98468,-43.62062 L-99.85334,5.41389 L94.17340,33.63586 L-73.82930,-67.44801 L41.98891,90.75754 L-3.61024,-99.93481 L-35.33059,93.55078 L68.76995,-72.59955 L-91.50082,40.34352 L99.98370,-1.80541 L-92.89767,-37.01382 L71.34613,70.06946 L-38.68497,-92.21428 L0.00000,100.00000 Z"/>
  </g>
</svg>
