<svg xmlns:ns0="http://www.w3.org/2000/svg" xlink="http://www.w3.org/1999/xlink" xmlns="http://www.w3.org/2000/svg" ns0:svg="http://www.w3.org/2000/svg" width="1280" height="1280">
  <defs/>
  <g id="canvas" transform="matrix(1,0,0,-1,0,1280) translate(640,640)">
    <path style="fill:none;stroke:black" d="M0.00000,100.00000 L63.30125,77.41416 L98.00826,19.85905 L88.44329,-46.66673 L38.92701,-92.11237 L-28.17326,-95.94930 L-82.54719,-56.44432 L-99.63317,8.55750 L-71.71318,69.69376 L-11.39914,99.34817 L54.06408,84.12535 L95.10565,30.90170 L93.18640,-36.28077 L49.17329,-87.07461 L-17.05222,-98.53538 L-75.57496,-65.48607 L-99.95922,-2.85561 L-79.19022,61.06479 L-22.64968,97.40119 L44.12211,89.73984 L90.96320,41.54150 L96.71469,-25.42183 L58.77853,-80.90170 L-5.70888,-99.83691 L-67.61749,-73.67411 L-98.98214,-14.23148 L-85.63490,51.63975 L-33.60494,94.18444 L33.60494,94.18444 L85.63490,51.63975 L98.98214,-14.23148 L67.61749,-73.67411 L5.70888,-99.83691 L-58.77853,-80.90170 L-96.71469,-25.42183 L-90.96320,41.54150 L-44.12211,89.73984 L22.64968,97.40119 L79.19022,61.06479 L99.95922,-2.85561 L75.57496,-65.48607 L17.05222,-98.53538 L-49.17329,-87.07461 L-93.18640,-36.28077 L-95.10565,30.90170 L-54.06408,84.12535 L11.39914,99.34817 L71.71318,69.69376 L99.63317,8.55750 L82.54719,-56.44432 L28.17326,-95.94930 L-38.92701,-92.11237 L-88.44329,-46.66673 L-98.00826,19.85905 L-63.30125,77.41416 L0.00000,100.00000 Z"/>
  </g>
</svg>
