<svg xmlns:ns0="http://www.w3.org/2000/svg" xlink="http://www.w3.org/1999/xlink" xmlns="http://www.w3.org/2000/svg" ns0:svg="http://www.w3.org/2000/svg" width="1280" height="1280">
  <defs/>
  <g id="canvas" transform="matrix(1,0,0,-1,0,1280) translate(640,640)">
    <path style="fill:none;stroke:black" d="M0.00000,100.00000 L97.97907,20.00257 L39.19666,-91.99794 L-82.29839,-56.80647 L-72.12024,69.27244 L53.44658,84.51901 L93.50162,-35.46049 L-16.04113,-98.70503 L-99.91890,-4.02659 L-23.93157,97.09418 L90.34504,42.86926 L60.07423,-79.94428 L-66.31227,-74.85107 L-86.60254,50.00000 L31.66680,94.85364 L99.27089,-12.05367 L8.04666,-99.67573 L-96.05181,-27.82175 L-46.47232,88.54560 L77.46050,63.24454 L77.46050,-63.24454 L-46.47232,-88.54560 L-96.05181,27.82175 L8.04666,99.67573 L99.27089,12.05367 L31.66680,-94.85364 L-86.60254,-50.00000 L-66.31227,74.85107 L60.07423,79.94428 L90.34504,-42.86926 L-23.93157,-97.09418 L-99.91890,4.02659 L-16.04113,98.70503 L93.50162,35.46049 L53.44658,-84.51901 L-72.12024,-69.27244 L-82.29839,56.80647 L39.19666,91.99794 L97.97907,-20.00257 L0.00000,-100.00000 L-97.97907,-20.00257 L-39.19666,91.99794 L82.29839,56.80647 L72.12024,-69.27244 L-53.44658,-84.51901 L-93.50162,35.46049 L16.04113,98.70503 L99.91890,4.02659 L23.93157,-97.09418 L-90.34504,-42.86926 L-60.07423,79.94428 L66.31227,74.85107 L86.60254,-50.00000 L-31.66680,-94.85364 L-99.27089,12.05367 L-8.04666,99.67573 L96.05181,27.82175 L46.47232,-88.54560 L-77.46050,-63.24454 L-77.46050,63.24454 L46.47232,88.54560 L96.05181,-27.82175 L-8.04666,-99.67573 L-99.27089,-12.05367 L-31.66680,94.85364 L86.60254,50.00000 L66.31227,-74.85107 L-60.07423,-79.94428 L-90.34504,42.86926 L23.93157,97.09418 L99.91890,-4.02659 L16.04113,-98.70503 L-93.50162,-35.46049 L-53.44658,84.51901 L72.12024,69.27244 L82.29839,-56.80647 L-39.19666,-91.99794 L-97.97907,20.00257 L0.00000,100.00000 Z"/>
  </g>
</svg>
