<svg xmlns:ns0="http://www.w3.org/2000/svg" xlink="http://www.w3.org/1999/xlink" xmlns="http://www.w3.org/2000/svg" ns0:svg="http://www.w3.org/2000/svg" width="1280" height="1280">
  <defs/>
  <g id="canvas" transform="matrix(1,0,0,-1,0,1280) translate(640,640)">
    <path style="fill:none;stroke:black" d="M0.00000,100.00000 L15.26493,-98.82804 L-30.17206,95.33964 L44.37198,-89.61656 L-57.53187,81.79294 L69.34325,-72.05216 L-79.52929,60.62254 L87.85123,-47.77198 L-94.11400,33.80169 L98.17083,-19.03911 L-99.92662,3.83027 L99.34021,11.46834 L-96.42535,-26.49815 L91.25036,40.90686 L-83.93654,-54.35676 L74.65532,66.53257 L-63.62424,-77.14892 L51.10187,85.95696 L-37.38171,-92.75025 L22.78535,97.36954 L-7.65493,-99.70658 L-7.65493,99.70658 L22.78535,-97.36954 L-37.38171,92.75025 L51.10187,-85.95696 L-63.62424,77.14892 L74.65532,-66.53257 L-83.93654,54.35676 L91.25036,-40.90686 L-96.42535,26.49815 L99.34021,-11.46834 L-99.92662,-3.83027 L98.17083,19.03911 L-94.11400,-33.80169 L87.85123,47.77198 L-79.52929,-60.62254 L69.34325,72.05216 L-57.53187,-81.79294 L44.37198,89.61656 L-30.17206,-95.33964 L15.26493,98.82804 L0.00000,-100.00000 L-15.26493,98.82804 L30.17206,-95.33964 L-44.37198,89.61656 L57.53187,-81.79294 L-69.34325,72.05216 L79.52929,-60.62254 L-87.85123,47.77198 L94.11400,-33.80169 L-98.17083,19.03911 L99.92662,-3.83027 L-99.34021,-11.46834 L96.42535,26.49815 L-91.25036,-40.90686 L83.93654,54.35676 L-74.65532,-66.53257 L63.62424,77.14892 L-51.10187,-85.95696 L37.38171,92.75025 L-22.78535,-97.36954 L7.65493,99.70658 L7.65493,-99.70658 L-22.78535,97.36954 L37.38171,-92.75025 L-51.10187,85.95696 L63.62424,-77.14892 L-74.65532,66.53257 L83.93654,-54.35676 L-91.25036,40.90686 L96.42535,-26.49815 L-99.34021,11.46834 L99.92662,3.83027 L-98.17083,-19.03911 L94.11400,33.80169 L-87.85123,-47.77198 L79.52929,60.62254 L-69.34325,-72.05216 L57.53187,81.79294 L-44.37198,-89.61656 L30.17206,95.33964 L-15.26493,-98.82804 L0.00000,100.00000 Z"/>
  </g>
</svg>
