<svg xmlns:ns0="http://www.w3.org/2000/svg" xlink="http://www.w3.org/1999/xlink" xmlns="http://www.w3.org/2000/svg" ns0:svg="http://www.w3.org/2000/svg" width="1280" height="1280">
  <defs/>
  <g id="canvas" transform="matrix(1,0,0,-1,0,1280) translate(640,640)">
    <path style="fill:none;stroke:black" d="M0.00000,100.00000 L48.94178,87.20494 L85.35931,52.09403 L99.93328,3.65220 L88.93421,-45.72423 L55.17677,-83.39978 L7.29953,-99.73323 L-42.44567,-90.54482 L-81.32897,-58.18589 L-99.40010,-10.93712 L-92.03462,39.11047 L-61.11737,79.14965 L-14.56012,98.93434 L35.72309,93.40161 L76.86471,63.96730 L98.33657,18.16369 L94.64398,-32.28804 L66.73188,-74.47722 L21.74302,-97.60759 L-28.80991,-95.76006 L-71.99035,-69.40742 L-96.74837,-25.29334 L-96.74837,25.29334 L-71.99035,69.40742 L-28.80991,95.76006 L21.74302,97.60759 L66.73188,74.47722 L94.64398,32.28804 L98.33657,-18.16369 L76.86471,-63.96730 L35.72309,-93.40161 L-14.56012,-98.93434 L-61.11737,-79.14965 L-92.03462,-39.11047 L-99.40010,10.93712 L-81.32897,58.18589 L-42.44567,90.54482 L7.29953,99.73323 L55.17677,83.39978 L88.93421,45.72423 L99.93328,-3.65220 L85.35931,-52.09403 L48.94178,-87.20494 L0.00000,-100.00000 L-48.94178,-87.20494 L-85.35931,-52.09403 L-99.93328,-3.65220 L-88.93421,45.72423 L-55.17677,83.39978 L-7.29953,99.73323 L42.44567,90.54482 L81.32897,58.18589 L99.40010,10.93712 L92.03462,-39.11047 L61.11737,-79.14965 L14.56012,-98.93434 L-35.72309,-93.40161 L-76.86471,-63.96730 L-98.33657,-18.16369 L-94.64398,32.28804 L-66.73188,74.47722 L-21.74302,97.60759 L28.80991,95.76006 L71.99035,69.40742 L96.74837,25.29334 L96.74837,-25.29334 L71.99035,-69.40742 L28.80991,-95.76006 L-21.74302,-97.60759 L-66.73188,-74.47722 L-94.64398,-32.28804 L-98.33657,18.16369 L-76.86471,63.96730 L-35.72309,93.40161 L14.56012,98.93434 L61.11737,79.14965 L92.03462,39.11047 L99.40010,-10.93712 L81.32897,-58.18589 L42.44567,-90.54482 L-7.29953,-99.73323 L-55.17677,-83.39978 L-88.93421,-45.72423 L-99.93328,3.65220 L-85.35931,52.09403 L-48.94178,87.20494 L0.00000,100.00000 Z"/>
  </g>
</svg>
