<svg xmlns:ns0="http://www.w3.org/2000/svg" xlink="http://www.w3.org/1999/xlink" xmlns="http://www.w3.org/2000/svg" ns0:svg="http://www.w3.org/2000/svg" width="1280" height="1280">
  <defs/>
  <g id="canvas" transform="matrix(1,0,0,-1,0,1280) translate(640,640)">
    <path style="fill:none;stroke:black" d="M0.00000,100.00000 L96.50403,26.21017 L50.58774,-86.26054 L-69.98577,-71.42823 L-87.27451,48.81762 L24.23617,97.01860 L99.97919,2.03985 L28.17326,-95.94930 L-85.21068,-52.33680 L-72.84098,68.51417 L47.02719,88.25216 L97.49279,-22.25209 L4.07886,-99.91678 L-95.35464,-30.12462 L-54.06408,84.12535 L67.01407,74.22341 L89.19308,-45.21719 L-20.25875,-97.92642 L-99.81279,-6.11617 L-32.06345,94.72030 L83.00502,55.76887 L75.57496,-65.48607 L-43.38837,-90.09689 L-98.31929,18.25698 L-8.15093,99.66726 L94.04655,33.98893 L57.45044,-81.85015 L-63.93083,-76.89505 L-90.96320,41.54150 L16.24761,98.67125 L99.48025,10.18230 L35.90027,-93.33365 L-80.66121,-59.10811 L-78.18315,62.34898 L39.67734,91.79166 L98.98214,-14.23148 L12.20943,-99.25185 L-92.58192,-37.79667 L-60.74119,79.43871 L60.74119,79.43871 L92.58192,-37.79667 L-12.20943,-99.25185 L-98.98214,-14.23148 L-39.67734,91.79166 L78.18315,62.34898 L80.66121,-59.10811 L-35.90027,-93.33365 L-99.48025,10.18230 L-16.24761,98.67125 L90.96320,41.54150 L63.93083,-76.89505 L-57.45044,-81.85015 L-94.04655,33.98893 L8.15093,99.66726 L98.31929,18.25698 L43.38837,-90.09689 L-75.57496,-65.48607 L-83.00502,55.76887 L32.06345,94.72030 L99.81279,-6.11617 L20.25875,-97.92642 L-89.19308,-45.21719 L-67.01407,74.22341 L54.06408,84.12535 L95.35464,-30.12462 L-4.07886,-99.91678 L-97.49279,-22.25209 L-47.02719,88.25216 L72.84098,68.51417 L85.21068,-52.33680 L-28.17326,-95.94930 L-99.97919,2.03985 L-24.23617,97.01860 L87.27451,48.81762 L69.98577,-71.42823 L-50.58774,-86.26054 L-96.50403,26.21017 L0.00000,100.00000 Z"/>
  </g>
</svg>
