<svg xmlns:ns0="http://www.w3.org/2000/svg" xlink="http://www.w3.org/1999/xlink" xmlns="http://www.w3.org/2000/svg" ns0:svg="http://www.w3.org/2000/svg" width="1280" height="1280">
  <defs/>
  <g id="canvas" transform="matrix(1,0,0,-1,0,1280) translate(640,640)">
    <path style="fill:none;stroke:black" d="M0.00000,100.00000 L94.64398,32.28804 L61.11737,-79.14965 L-55.17677,-83.39978 L-96.74837,25.29334 L-7.29953,99.73323 L92.03462,39.11047 L66.73188,-74.47722 L-48.94178,-87.20494 L-98.33657,18.16369 L-14.56012,98.93434 L88.93421,45.72423 L71.99035,-69.40742 L-42.44567,-90.54482 L-99.40010,10.93712 L-21.74302,97.60759 L85.35931,52.09403 L76.86471,-63.96730 L-35.72309,-93.40161 L-99.93328,3.65220 L-28.80991,95.76006 L81.32897,58.18589 L81.32897,-58.18589 L-28.80991,-95.76006 L-99.93328,-3.65220 L-35.72309,93.40161 L76.86471,63.96730 L85.35931,-52.09403 L-21.74302,-97.60759 L-99.40010,-10.93712 L-42.44567,90.54482 L71.99035,69.40742 L88.93421,-45.72423 L-14.56012,-98.93434 L-98.33657,-18.16369 L-48.94178,87.20494 L66.73188,74.47722 L92.03462,-39.11047 L-7.29953,-99.73323 L-96.74837,-25.29334 L-55.17677,83.39978 L61.11737,79.14965 L94.64398,-32.28804 L0.00000,-100.00000 L-94.64398,-32.28804 L-61.11737,79.14965 L55.17677,83.39978 L96.74837,-25.29334 L7.29953,-99.73323 L-92.03462,-39.11047 L-66.73188,74.47722 L48.94178,87.20494 L98.33657,-18.16369 L14.56012,-98.93434 L-88.93421,-45.72423 L-71.99035,69.40742 L42.44567,90.54482 L99.40010,-10.93712 L21.74302,-97.60759 L-85.35931,-52.09403 L-76.86471,63.96730 L35.72309,93.40161 L99.93328,-3.65220 L28.80991,-95.76006 L-81.32897,-58.18589 L-81.32897,58.18589 L28.80991,95.76006 L99.93328,3.65220 L35.72309,-93.40161 L-76.86471,-63.96730 L-85.35931,52.09403 L21.74302,97.60759 L99.40010,10.93712 L42.44567,-90.54482 L-71.99035,-69.40742 L-88.93421,45.72423 L14.56012,98.93434 L98.33657,18.16369 L48.94178,-87.20494 L-66.73188,-74.47722 L-92.03462,39.11047 L7.29953,99.73323 L96.74837,25.29334 L55.17677,-83.39978 L-61.11737,-79.14965 L-94.64398,32.28804 L0.00000,100.00000 Z"/>
  </g>
</svg>
