<svg xmlns:ns0="http://www.w3.org/2000/svg" xlink="http://www.w3.org/1999/xlink" xmlns="http://www.w3.org/2000/svg" ns0:svg="http://www.w3.org/2000/svg" width="1280" height="1280">
  <defs/>
  <g id="canvas" transform="matrix(1,0,0,-1,0,1280) translate(640,640)">
    <path style="fill:none;stroke:black" d="M0.00000,100.00000 L36.81246,-92.97765 L-68.45471,72.89686 L90.48271,-42.57793 L-99.80267,6.27905 L95.10565,30.90170 L-77.05132,-63.74240 L48.17537,87.63067 L-12.53332,-99.21147 L-24.86899,96.85832 L58.77853,-80.90170 L-84.43279,53.58268 L98.22873,-18.73813 L-98.22873,-18.73813 L84.43279,53.58268 L-58.77853,-80.90170 L24.86899,96.85832 L12.53332,-99.21147 L-48.17537,87.63067 L77.05132,-63.74240 L-95.10565,30.90170 L99.80267,6.27905 L-90.48271,-42.57793 L68.45471,72.89686 L-36.81246,-92.97765 L0.00000,100.00000 Z"/>
  </g>
</svg>
