<svg xmlns:ns0="http://www.w3.org/2000/svg" xlink="http://www.w3.org/1999/xlink" xmlns="http://www.w3.org/2000/svg" ns0:svg="http://www.w3.org/2000/svg" width="1280" height="1280">
  <defs/>
  <g id="canvas" transform="matrix(1,0,0,-1,0,1280) translate(640,640)">
    <path style="fill:none;stroke:black" d="M0.00000,100.00000 L37.81999,92.57240 L70.02173,71.39297 L91.82161,39.60798 L99.98120,1.93913 L93.28837,-36.01777 L72.73736,-68.62416 L41.38107,-91.03629 L3.87754,-99.92480 L-34.20201,-93.96926 L-67.20079,-74.05440 L-90.21674,-43.13861 L-99.83082,-5.81448 L-94.61482,32.37339 L-75.34359,65.75214 L-44.87992,89.36326 L-7.74924,99.69929 L30.53260,95.22479 L64.27876,76.60444 L88.47618,46.60435 L99.53028,9.68109 L95.79895,-28.68032 L77.83649,-62.78121 L48.31126,-87.55582 L11.60929,-99.32384 L-26.81726,-96.33709 L-61.26005,-79.03927 L-86.60254,-50.00000 L-99.08004,-13.53313 L-96.83900,24.94411 L-80.21232,59.71586 L-51.66994,85.61669 L-15.45188,98.79898 L23.06159,97.30449 L58.14921,81.35521 L84.59864,53.32044 L98.48078,17.36482 L97.73339,-21.17039 L82.46750,-56.56069 L54.95090,-83.54878 L19.27123,-98.12553 L-19.27123,-98.12553 L-54.95090,-83.54878 L-82.46750,-56.56069 L-97.73339,-21.17039 L-98.48078,17.36482 L-84.59864,53.32044 L-58.14921,81.35521 L-23.06159,97.30449 L15.45188,98.79898 L51.66994,85.61669 L80.21232,59.71586 L96.83900,24.94411 L99.08004,-13.53313 L86.60254,-50.00000 L61.26005,-79.03927 L26.81726,-96.33709 L-11.60929,-99.32384 L-48.31126,-87.55582 L-77.83649,-62.78121 L-95.79895,-28.68032 L-99.53028,9.68109 L-88.47618,46.60435 L-64.27876,76.60444 L-30.53260,95.22479 L7.74924,99.69929 L44.87992,89.36326 L75.34359,65.75214 L94.61482,32.37339 L99.83082,-5.81448 L90.21674,-43.13861 L67.20079,-74.05440 L34.20201,-93.96926 L-3.87754,-99.92480 L-41.38107,-91.03629 L-72.73736,-68.62416 L-93.28837,-36.01777 L-99.98120,1.93913 L-91.82161,39.60798 L-70.02173,71.39297 L-37.81999,92.57240 L0.00000,100.00000 Z"/>
  </g>
</svg>
