<svg xmlns:ns0="http://www.w3.org/2000/svg" xlink="http://www.w3.org/1999/xlink" xmlns="http://www.w3.org/2000/svg" ns0:svg="http://www.w3.org/2000/svg" width="1280" height="1280">
  <defs/>
  <g id="canvas" transform="matrix(1,0,0,-1,0,1280) translate(640,640)">
    <path style="fill:none;stroke:black" d="M0.00000,100.00000 L16.04113,-98.70503 L-31.66680,94.85364 L46.47232,-88.54560 L-60.07423,79.94428 L72.12024,-69.27244 L-82.29839,56.80647 L90.34504,-42.86926 L-96.05181,27.82175 L99.27089,-12.05367 L-99.91890,-4.02659 L97.97907,20.00257 L-93.50162,-35.46049 L86.60254,50.00000 L-77.46050,-63.24454 L66.31227,74.85107 L-53.44658,-84.51901 L39.19666,91.99794 L-23.93157,-97.09418 L8.04666,99.67573 L8.04666,-99.67573 L-23.93157,97.09418 L39.19666,-91.99794 L-53.44658,84.51901 L66.31227,-74.85107 L-77.46050,63.24454 L86.60254,-50.00000 L-93.50162,35.46049 L97.97907,-20.00257 L-99.91890,4.02659 L99.27089,12.05367 L-96.05181,-27.82175 L90.34504,42.86926 L-82.29839,-56.80647 L72.12024,69.27244 L-60.07423,-79.94428 L46.47232,88.54560 L-31.66680,-94.85364 L16.04113,98.70503 L0.00000,-100.00000 L-16.04113,98.70503 L31.66680,-94.85364 L-46.47232,88.54560 L60.07423,-79.94428 L-72.12024,69.27244 L82.29839,-56.80647 L-90.34504,42.86926 L96.05181,-27.82175 L-99.27089,12.05367 L99.91890,4.02659 L-97.97907,-20.00257 L93.50162,35.46049 L-86.60254,-50.00000 L77.46050,63.24454 L-66.31227,-74.85107 L53.44658,84.51901 L-39.19666,-91.99794 L23.93157,97.09418 L-8.04666,-99.67573 L-8.04666,99.67573 L23.93157,-97.09418 L-39.19666,91.99794 L53.44658,-84.51901 L-66.31227,74.85107 L77.46050,-63.24454 L-86.60254,50.00000 L93.50162,-35.46049 L-97.97907,20.00257 L99.91890,-4.02659 L-99.27089,-12.05367 L96.05181,27.82175 L-90.34504,-42.86926 L82.29839,56.80647 L-72.12024,-69.27244 L60.07423,79.94428 L-46.47232,-88.54560 L31.66680,94.85364 L-16.04113,-98.70503 L0.00000,100.00000 Z"/>
  </g>
</svg>
