<svg xmlns:ns0="http://www.w3.org/2000/svg" xlink="http://www.w3.org/1999/xlink" xmlns="http://www.w3.org/2000/svg" ns0:svg="http://www.w3.org/2000/svg" width="1280" height="1280">
  <defs/>
  <g id="canvas" transform="matrix(1,0,0,-1,0,1280) translate(640,640)">
    <path style="fill:none;stroke:black" d="M0.00000,100.00000 L13.05262,-99.14449 L-25.88190,96.59258 L38.26834,-92.38795 L-50.00000,86.60254 L60.87614,-79.33533 L-70.71068,70.71068 L79.33533,-60.87614 L-86.60254,50.00000 L92.38795,-38.26834 L-96.59258,25.88190 L99.14449,-13.05262 L-100.00000,-0.00000 L99.14449,13.05262 L-96.59258,-25.88190 L92.38795,38.26834 L-86.60254,-50.00000 L79.33533,60.87614 L-70.71068,-70.71068 L60.87614,79.33533 L-50.00000,-86.60254 L38.26834,92.38795 L-25.88190,-96.59258 L13.05262,99.14449 L0.00000,-100.00000 L-13.05262,99.14449 L25.88190,-96.59258 L-38.26834,92.38795 L50.00000,-86.60254 L-60.87614,79.33533 L70.71068,-70.71068 L-79.33533,60.87614 L86.60254,-50.00000 L-92.38795,38.26834 L96.59258,-25.88190 L-99.14449,13.05262 L100.00000,0.00000 L-99.14449,-13.05262 L96.59258,25.88190 L-92.38795,-38.26834 L86.60254,50.00000 L-79.33533,-60.87614 L70.71068,70.71068 L-60.87614,-79.33533 L50.00000,86.60254 L-38.26834,-92.38795 L25.88190,96.59258 L-13.05262,-99.14449 L0.00000,100.00000 Z"/>
  </g>
</svg>
