<svg xmlns:ns0="http://www.w3.org/2000/svg" xlink="http://www.w3.org/1999/xlink" xmlns="http://www.w3.org/2000/svg" ns0:svg="http://www.w3.org/2000/svg" width="1280" height="1280">
  <defs/>
  <g id="canvas" transform="matrix(1,0,0,-1,0,1280) translate(640,640)">
    <path style="fill:none;stroke:black" d="M0.00000,100.00000 L99.70175,-7.71755 L-15.38906,-98.80879 L-97.32644,22.96877 L30.41148,95.26354 L92.63240,-37.67279 L-44.70938,-89.44871 L-85.73146,51.47928 L57.94211,81.50283 L76.78804,-64.05932 L-69.79442,-71.61522 L-66.01521,75.11319 L79.98392,60.02143 L53.66962,-84.37756 L-88.26788,-46.99767 L-40.04539,91.63169 L94.44892,32.85424 L25.46711,-96.70277 L-98.37980,-17.92808 L-10.28210,99.46999 L99.96685,2.57479 L-5.14788,-99.86741 L-99.17227,12.83984 L20.45521,97.88557 L96.01499,-27.94856 L-35.27521,-93.57168 L-90.57023,42.39144 L49.25481,87.02852 L82.96770,-55.82437 L-62.06095,-78.41198 L-73.38854,67.92733 L73.38854,67.92733 L62.06095,-78.41198 L-82.96770,-55.82437 L-49.25481,87.02852 L90.57023,42.39144 L35.27521,-93.57168 L-96.01499,-27.94856 L-20.45521,97.88557 L99.17227,12.83984 L5.14788,-99.86741 L-99.96685,2.57479 L10.28210,99.46999 L98.37980,-17.92808 L-25.46711,-96.70277 L-94.44892,32.85424 L40.04539,91.63169 L88.26788,-46.99767 L-53.66962,-84.37756 L-79.98392,60.02143 L66.01521,75.11319 L69.79442,-71.61522 L-76.78804,-64.05932 L-57.94211,81.50283 L85.73146,51.47928 L44.70938,-89.44871 L-92.63240,-37.67279 L-30.41148,95.26354 L97.32644,22.96877 L15.38906,-98.80879 L-99.70175,-7.71755 L0.00000,100.00000 Z"/>
  </g>
</svg>
