<svg xmlns:ns0="http://www.w3.org/2000/svg" xlink="http://www.w3.org/1999/xlink" xmlns="http://www.w3.org/2000/svg" ns0:svg="http://www.w3.org/2000/svg" width="1280" height="1280">
  <defs/>
  <g id="canvas" transform="matrix(1,0,0,-1,0,1280) translate(640,640)">
    <path style="fill:none;stroke:black" d="M0.00000,100.00000 L26.18645,-96.51047 L-50.54533,86.28540 L71.37661,-70.03841 L-87.22647,48.90340 L96.98874,-24.35538 L-99.98209,-1.89241 L95.99763,28.00814 L-85.31342,-52.16915 L68.67513,72.68925 L-47.24396,-88.13631 L22.51559,97.43227 L3.78415,-99.92838 L-29.81979,95.45041 L53.77429,-84.31089 L-73.97585,67.28725 L89.01457,-45.56759 L-97.84091,20.66774 L99.83887,5.67453 L-94.86900,-31.62077 L83.27816,55.36017 L-65.87527,-75.23595 L43.87491,89.86096 L-18.81249,-98.21451 L-7.56287,99.71360 L33.41042,-94.25362 L-56.92622,82.21560 L76.46911,-64.43970 L-90.67516,42.16651 L98.55293,-16.95049 L-99.55263,-9.44851 L93.60447,35.18810 L-81.12360,-58.47189 L62.98105,77.67488 L-40.44301,-91.45689 L15.08243,98.85606 L11.33077,-99.35599 L-36.95318,92.92181 L59.99661,-80.00254 L-78.85283,61.49984 L92.20586,-38.70503 L-99.12378,13.20896 L99.12378,13.20896 L-92.20586,-38.70503 L78.85283,61.49984 L-59.99661,-80.00254 L36.95318,92.92181 L-11.33077,-99.35599 L-15.08243,98.85606 L40.44301,-91.45689 L-62.98105,77.67488 L81.12360,-58.47189 L-93.60447,35.18810 L99.55263,-9.44851 L-98.55293,-16.95049 L90.67516,42.16651 L-76.46911,-64.43970 L56.92622,82.21560 L-33.41042,-94.25362 L7.56287,99.71360 L18.81249,-98.21451 L-43.87491,89.86096 L65.87527,-75.23595 L-83.27816,55.36017 L94.86900,-31.62077 L-99.83887,5.67453 L97.84091,20.66774 L-89.01457,-45.56759 L73.97585,67.28725 L-53.77429,-84.31089 L29.81979,95.45041 L-3.78415,-99.92838 L-22.51559,97.43227 L47.24396,-88.13631 L-68.67513,72.68925 L85.31342,-52.16915 L-95.99763,28.00814 L99.98209,-1.89241 L-96.98874,-24.35538 L87.22647,48.90340 L-71.37661,-70.03841 L50.54533,86.28540 L-26.18645,-96.51047 L0.00000,100.00000 Z"/>
  </g>
</svg>
