<svg xmlns:ns0="http://www.w3.org/2000/svg" xlink="http://www.w3.org/1999/xlink" xmlns="http://www.w3.org/2000/svg" ns0:svg="http://www.w3.org/2000/svg" width="1280" height="1280">
  <defs/>
  <g id="canvas" transform="matrix(1,0,0,-1,0,1280) translate(640,640)">
    <path style="fill:none;stroke:black" d="M0.00000,100.00000 L29.47552,-95.55728 L-56.33201,82.62388 L78.18315,-62.34898 L-93.08737,36.53410 L99.72038,-7.47301 L-97.49279,-22.25209 L86.60254,50.00000 L-68.01727,-73.30519 L43.38837,90.09689 L-14.90423,-98.88308 L-14.90423,98.88308 L43.38837,-90.09689 L-68.01727,73.30519 L86.60254,-50.00000 L-97.49279,22.25209 L99.72038,7.47301 L-93.08737,-36.53410 L78.18315,62.34898 L-56.33201,-82.62388 L29.47552,95.55728 L0.00000,-100.00000 L-29.47552,95.55728 L56.33201,-82.62388 L-78.18315,62.34898 L93.08737,-36.53410 L-99.72038,7.47301 L97.49279,22.25209 L-86.60254,-50.00000 L68.01727,73.30519 L-43.38837,-90.09689 L14.90423,98.88308 L14.90423,-98.88308 L-43.38837,90.09689 L68.01727,-73.30519 L-86.60254,50.00000 L97.49279,-22.25209 L-99.72038,-7.47301 L93.08737,36.53410 L-78.18315,-62.34898 L56.33201,82.62388 L-29.47552,-95.55728 L0.00000,100.00000 Z"/>
  </g>
</svg>
