<svg xmlns:ns0="http://www.w3.org/2000/svg" xlink="http://www.w3.org/1999/xlink" xmlns="http://www.w3.org/2000/svg" ns0:svg="http://www.w3.org/2000/svg" width="1280" height="1280">
  <defs/>
  <g id="canvas" transform="matrix(1,0,0,-1,0,1280) translate(640,640)">
    <path style="fill:none;stroke:black" d="M0.00000,100.00000 L94.38833,-33.02791 L-62.34898,-78.18315 L-53.20321,84.67242 L97.49279,22.25209 L-11.19645,-99.37122 L-90.09689,43.38837 L70.71068,70.71068 L43.38837,-90.09689 L-99.37122,-11.19645 L22.25209,97.49279 L84.67242,-53.20321 L-78.18315,-62.34898 L-33.02791,94.38833 L100.00000,0.00000 L-33.02791,-94.38833 L-78.18315,62.34898 L84.67242,53.20321 L22.25209,-97.49279 L-99.37122,11.19645 L43.38837,90.09689 L70.71068,-70.71068 L-90.09689,-43.38837 L-11.19645,99.37122 L97.49279,-22.25209 L-53.20321,-84.67242 L-62.34898,78.18315 L94.38833,33.02791 L0.00000,-100.00000 L-94.38833,33.02791 L62.34898,78.18315 L53.20321,-84.67242 L-97.49279,-22.25209 L11.19645,99.37122 L90.09689,-43.38837 L-70.71068,-70.71068 L-43.38837,90.09689 L99.37122,11.19645 L-22.25209,-97.49279 L-84.67242,53.20321 L78.18315,62.34898 L33.02791,-94.38833 L-100.00000,-0.00000 L33.02791,94.38833 L78.18315,-62.34898 L-84.67242,-53.20321 L-22.25209,97.49279 L99.37122,-11.19645 L-43.38837,-90.09689 L-70.71068,70.71068 L90.09689,43.38837 L11.19645,-99.37122 L-97.49279,22.25209 L53.20321,84.67242 L62.34898,-78.18315 L-94.38833,-33.02791 L0.00000,100.00000 Z"/>
  </g>
</svg>
