<svg xmlns:ns0="http://www.w3.org/2000/svg" xlink="http://www.w3.org/1999/xlink" xmlns="http://www.w3.org/2000/svg" ns0:svg="http://www.w3.org/2000/svg" width="1280" height="1280">
  <defs/>
  <g id="canvas" transform="matrix(1,0,0,-1,0,1280) translate(640,640)">
    <path style="fill:none;stroke:black" d="M0.00000,100.00000 L99.19004,12.70178 L25.19781,-96.77329 L-92.78890,-37.28565 L-48.76949,87.30141 L80.39971,59.46332 L69.19389,-72.19561 L-62.82200,-77.80358 L-85.15291,52.43073 L41.19012,91.12285 L95.61667,-29.28228 L-16.90008,-98.56159 L-99.90990,4.24412 L-8.48059,99.63975 L97.75552,21.06793 L33.31398,-94.28774 L-89.29259,-45.02037 L-55.99748,82.85096 L75.06723,66.06747 L75.06723,-66.06747 L-55.99748,-82.85096 L-89.29259,45.02037 L33.31398,94.28774 L97.75552,-21.06793 L-8.48059,-99.63975 L-99.90990,-4.24412 L-16.90008,98.56159 L95.61667,29.28228 L41.19012,-91.12285 L-85.15291,-52.43073 L-62.82200,77.80358 L69.19389,72.19561 L80.39971,-59.46332 L-48.76949,-87.30141 L-92.78890,37.28565 L25.19781,96.77329 L99.19004,-12.70178 L0.00000,-100.00000 L-99.19004,-12.70178 L-25.19781,96.77329 L92.78890,37.28565 L48.76949,-87.30141 L-80.39971,-59.46332 L-69.19389,72.19561 L62.82200,77.80358 L85.15291,-52.43073 L-41.19012,-91.12285 L-95.61667,29.28228 L16.90008,98.56159 L99.90990,-4.24412 L8.48059,-99.63975 L-97.75552,-21.06793 L-33.31398,94.28774 L89.29259,45.02037 L55.99748,-82.85096 L-75.06723,-66.06747 L-75.06723,66.06747 L55.99748,82.85096 L89.29259,-45.02037 L-33.31398,-94.28774 L-97.75552,21.06793 L8.48059,99.63975 L99.90990,4.24412 L16.90008,-98.56159 L-95.61667,-29.28228 L-41.19012,91.12285 L85.15291,52.43073 L62.82200,-77.80358 L-69.19389,-72.19561 L-80.39971,59.46332 L48.76949,87.30141 L92.78890,-37.28565 L-25.19781,-96.77329 L-99.19004,12.70178 L0.00000,100.00000 Z"/>
  </g>
</svg>
