<svg xmlns:ns0="http://www.w3.org/2000/svg" xlink="http://www.w3.org/1999/xlink" xmlns="http://www.w3.org/2000/svg" ns0:svg="http://www.w3.org/2000/svg" width="1280" height="1280">
  <defs/>
  <g id="canvas" transform="matrix(1,0,0,-1,0,1280) translate(640,640)">
    <path style="fill:none;stroke:black" d="M0.00000,100.00000 L97.12810,23.79352 L46.22039,-88.67737 L-75.13319,-65.99245 L-81.97405,57.27351 L36.12417,93.24722 L99.16447,-12.89992 L11.06527,-99.38591 L-93.89884,-34.39489 L-55.74894,83.01840 L67.36956,73.90089 L87.80812,-47.85116 L-25.58428,-96.67184 L-99.98293,1.84789 L-21.99464,97.55120 L89.51633,44.57384 L64.59281,-76.33983 L-58.77853,-80.90170 L-92.56377,37.84111 L14.73017,98.90916 L99.57342,9.22684 L32.65387,-94.51838 L-84.03441,-54.20534 L-72.64336,68.72367 L49.46558,86.90889 L96.18256,-27.36630 L-3.69515,-99.93171 L-97.94098,-20.18824 L-42.91206,90.32472 L77.52040,63.17110 L79.80172,-60.26346 L-39.54512,-91.84870 L-98.62007,16.55539 L-7.38525,99.72692 L95.10565,30.90170 L52.64322,-85.02171 L-70.05430,-71.36102 L-85.97999,51.06312 L29.13897,95.66044 L99.84636,-5.54115 L18.37495,-98.29731 L-91.10226,-41.23563 L-61.72782,78.67449 L61.72782,78.67449 L91.10226,-41.23563 L-18.37495,-98.29731 L-99.84636,-5.54115 L-29.13897,95.66044 L85.97999,51.06312 L70.05430,-71.36102 L-52.64322,-85.02171 L-95.10565,30.90170 L7.38525,99.72692 L98.62007,16.55539 L39.54512,-91.84870 L-79.80172,-60.26346 L-77.52040,63.17110 L42.91206,90.32472 L97.94098,-20.18824 L3.69515,-99.93171 L-96.18256,-27.36630 L-49.46558,86.90889 L72.64336,68.72367 L84.03441,-54.20534 L-32.65387,-94.51838 L-99.57342,9.22684 L-14.73017,98.90916 L92.56377,37.84111 L58.77853,-80.90170 L-64.59281,-76.33983 L-89.51633,44.57384 L21.99464,97.55120 L99.98293,1.84789 L25.58428,-96.67184 L-87.80812,-47.85116 L-67.36956,73.90089 L55.74894,83.01840 L93.89884,-34.39489 L-11.06527,-99.38591 L-99.16447,-12.89992 L-36.12417,93.24722 L81.97405,57.27351 L75.13319,-65.99245 L-46.22039,-88.67737 L-97.12810,23.79352 L0.00000,100.00000 Z"/>
  </g>
</svg>
