<svg xmlns:ns0="http://www.w3.org/2000/svg" xlink="http://www.w3.org/1999/xlink" xmlns="http://www.w3.org/2000/svg" ns0:svg="http://www.w3.org/2000/svg" width="1280" height="1280">
  <defs/>
  <g id="canvas" transform="matrix(1,0,0,-1,0,1280) translate(640,640)">
    <path style="fill:none;stroke:black" d="M0.00000,100.00000 L36.63800,93.04653 L68.18078,73.15313 L90.24170,43.08637 L99.75276,7.02762 L95.39126,-30.00846 L77.76375,-62.87129 L49.32169,-86.99064 L14.02049,-99.01225 L-23.23054,-97.26429 L-57.25090,-81.98984 L-83.30942,-55.31312 L-97.78214,-20.94403 L-98.65637,16.33774 L-85.81050,51.34742 L-61.03103,79.21625 L-27.76400,96.06852 L9.36415,99.56060 L45.19003,89.20684 L74.73136,66.44715 L93.87985,34.44669 L99.97252,-2.34426 L92.16207,-38.80919 L71.53470,-69.87694 L40.95904,-91.22696 L4.68723,-99.89009 L-32.23643,-94.66157 L-64.67699,-76.26852 L-88.12296,-47.26885 L-99.31372,-11.69553 L-96.69298,25.50428 L-80.62520,59.15722 L-53.34493,84.58321 L-18.64601,98.24625 L18.64601,98.24625 L53.34493,84.58321 L80.62520,59.15722 L96.69298,25.50428 L99.31372,-11.69553 L88.12296,-47.26885 L64.67699,-76.26852 L32.23643,-94.66157 L-4.68723,-99.89009 L-40.95904,-91.22696 L-71.53470,-69.87694 L-92.16207,-38.80919 L-99.97252,-2.34426 L-93.87985,34.44669 L-74.73136,66.44715 L-45.19003,89.20684 L-9.36415,99.56060 L27.76400,96.06852 L61.03103,79.21625 L85.81050,51.34742 L98.65637,16.33774 L97.78214,-20.94403 L83.30942,-55.31312 L57.25090,-81.98984 L23.23054,-97.26429 L-14.02049,-99.01225 L-49.32169,-86.99064 L-77.76375,-62.87129 L-95.39126,-30.00846 L-99.75276,7.02762 L-90.24170,43.08637 L-68.18078,73.15313 L-36.63800,93.04653 L0.00000,100.00000 Z"/>
  </g>
</svg>
