<svg xmlns:ns0="http://www.w3.org/2000/svg" xlink="http://www.w3.org/1999/xlink" xmlns="http://www.w3.org/2000/svg" ns0:svg="http://www.w3.org/2000/svg" width="1280" height="1280">
  <defs/>
  <g id="canvas" transform="matrix(1,0,0,-1,0,1280) translate(640,640)">
    <path style="fill:none;stroke:black" d="M0.00000,100.00000 L57.77738,81.61969 L94.31544,33.23548 L96.18256,-27.36630 L62.69238,-77.90806 L6.15609,-99.81033 L-52.64322,-85.02171 L-92.09055,-38.97859 L-97.68483,21.39331 L-67.36956,73.90089 L-12.28883,99.24205 L47.30936,88.10122 L89.51633,44.57384 L98.81655,-15.33917 L71.79119,-69.61339 L18.37495,-98.29731 L-41.79603,-90.84653 L-86.60254,-50.00000 L-99.57342,9.22684 L-75.94049,65.06183 L-24.39137,96.97969 L36.12417,93.24722 L83.36024,55.23650 L99.95257,-3.07951 L79.80172,-60.26346 L30.31527,-95.29420 L-30.31527,-95.29420 L-79.80172,-60.26346 L-99.95257,-3.07951 L-83.36024,55.23650 L-36.12417,93.24722 L24.39137,96.97969 L75.94049,65.06183 L99.57342,9.22684 L86.60254,-50.00000 L41.79603,-90.84653 L-18.37495,-98.29731 L-71.79119,-69.61339 L-98.81655,-15.33917 L-89.51633,44.57384 L-47.30936,88.10122 L12.28883,99.24205 L67.36956,73.90089 L97.68483,21.39331 L92.09055,-38.97859 L52.64322,-85.02171 L-6.15609,-99.81033 L-62.69238,-77.90806 L-96.18256,-27.36630 L-94.31544,33.23548 L-57.77738,81.61969 L0.00000,100.00000 Z"/>
  </g>
</svg>
