<svg xmlns:ns0="http://www.w3.org/2000/svg" xlink="http://www.w3.org/1999/xlink" xmlns="http://www.w3.org/2000/svg" ns0:svg="http://www.w3.org/2000/svg" width="1280" height="1280">
  <defs/>
  <g id="canvas" transform="matrix(1,0,0,-1,0,1280) translate(640,640)">
    <path style="fill:none;stroke:black" d="M0.00000,100.00000 L84.12535,-54.06408 L-90.96320,-41.54150 L14.23148,98.98214 L75.57496,-65.48607 L-95.94930,-28.17326 L28.17326,95.94930 L65.48607,-75.57496 L-98.98214,-14.23148 L41.54150,90.96320 L54.06408,-84.12535 L-100.00000,-0.00000 L54.06408,84.12535 L41.54150,-90.96320 L-98.98214,14.23148 L65.48607,75.57496 L28.17326,-95.94930 L-95.94930,28.17326 L75.57496,65.48607 L14.23148,-98.98214 L-90.96320,41.54150 L84.12535,54.06408 L0.00000,-100.00000 L-84.12535,54.06408 L90.96320,41.54150 L-14.23148,-98.98214 L-75.57496,65.48607 L95.94930,28.17326 L-28.17326,-95.94930 L-65.48607,75.57496 L98.98214,14.23148 L-41.54150,-90.96320 L-54.06408,84.12535 L100.00000,0.00000 L-54.06408,-84.12535 L-41.54150,90.96320 L98.98214,-14.23148 L-65.48607,-75.57496 L-28.17326,95.94930 L95.94930,-28.17326 L-75.57496,-65.48607 L-14.23148,98.98214 L90.96320,-41.54150 L-84.12535,-54.06408 L0.00000,100.00000 Z"/>
  </g>
</svg>
