<svg xmlns:ns0="http://www.w3.org/2000/svg" xlink="http://www.w3.org/1999/xlink" xmlns="http://www.w3.org/2000/svg" ns0:svg="http://www.w3.org/2000/svg" width="1280" height="1280">
  <defs/>
  <g id="canvas" transform="matrix(1,0,0,-1,0,1280) translate(640,640)">
    <path style="fill:none;stroke:black" d="M0.00000,100.00000 L73.57239,67.72816 L99.65845,-8.25793 L61.42127,-78.91405 L-16.45946,-98.63613 L-83.71665,-54.69482 L-96.94003,24.54855 L-47.59474,87.94738 L32.46995,94.58172 L91.57733,40.16954 L91.57733,-40.16954 L32.46995,-94.58172 L-47.59474,-87.94738 L-96.94003,-24.54855 L-83.71665,54.69482 L-16.45946,98.63613 L61.42127,78.91405 L99.65845,8.25793 L73.57239,-67.72816 L0.00000,-100.00000 L-73.57239,-67.72816 L-99.65845,8.25793 L-61.42127,78.91405 L16.45946,98.63613 L83.71665,54.69482 L96.94003,-24.54855 L47.59474,-87.94738 L-32.46995,-94.58172 L-91.57733,-40.16954 L-91.57733,40.16954 L-32.46995,94.58172 L47.59474,87.94738 L96.94003,24.54855 L83.71665,-54.69482 L16.45946,-98.63613 L-61.42127,-78.91405 L-99.65845,-8.25793 L-73.57239,67.72816 L0.00000,100.00000 Z"/>
  </g>
</svg>
