<svg xmlns:ns0="http://www.w3.org/2000/svg" xlink="http://www.w3.org/1999/xlink" xmlns="http://www.w3.org/2000/svg" ns0:svg="http://www.w3.org/2000/svg" width="1280" height="1280">
  <defs/>
  <g id="canvas" transform="matrix(1,0,0,-1,0,1280) translate(640,640)">
    <path style="fill:none;stroke:black" d="M0.00000,100.00000 L48.01569,-87.71826 L-84.23706,53.88986 L99.76688,-6.82424 L-90.79048,-41.91765 L59.51277,80.36311 L-13.61666,-99.06859 L-35.62417,93.43938 L76.11447,-64.85821 L-97.90841,20.34560 L95.65263,29.16459 L-69.90124,-71.51095 L26.97968,96.29173 L22.56904,-97.41991 L-66.57401,74.61837 L94.22609,-33.48796 L-98.73297,-15.86825 L78.98759,61.32668 L-39.84011,-91.72113 L-9.09349,99.58568 L55.79340,-82.98853 L-88.78852,46.00650 L99.97409,2.27632 L-86.60254,-50.00000 L51.95840,85.44194 L-4.55146,-99.89637 L-43.97347,89.81277 L81.69699,-57.66803 L-99.35288,11.35802 L92.60425,37.74192 L-63.10879,-77.57113 L18.11162,98.34617 L31.33440,-94.96397 L-73.08360,68.25531 L96.88092,-24.78078 L-96.88092,-24.78078 L73.08360,68.25531 L-31.33440,-94.96397 L-18.11162,98.34617 L63.10879,-77.57113 L-92.60425,37.74192 L99.35288,11.35802 L-81.69699,-57.66803 L43.97347,89.81277 L4.55146,-99.89637 L-51.95840,85.44194 L86.60254,-50.00000 L-99.97409,2.27632 L88.78852,46.00650 L-55.79340,-82.98853 L9.09349,99.58568 L39.84011,-91.72113 L-78.98759,61.32668 L98.73297,-15.86825 L-94.22609,-33.48796 L66.57401,74.61837 L-22.56904,-97.41991 L-26.97968,96.29173 L69.90124,-71.51095 L-95.65263,29.16459 L97.90841,20.34560 L-76.11447,-64.85821 L35.62417,93.43938 L13.61666,-99.06859 L-59.51277,80.36311 L90.79048,-41.91765 L-99.76688,-6.82424 L84.23706,53.88986 L-48.01569,-87.71826 L0.00000,100.00000 Z"/>
  </g>
</svg>
