<svg xmlns:ns0="http://www.w3.org/2000/svg" xlink="http://www.w3.org/1999/xlink" xmlns="http://www.w3.org/2000/svg" ns0:svg="http://www.w3.org/2000/svg" width="1280" height="1280">
  <defs/>
  <g id="canvas" transform="matrix(1,0,0,-1,0,1280) translate(640,640)">
    <path style="fill:none;stroke:black" d="M0.00000,100.00000 L76.74627,64.10936 L98.40309,-17.79979 L49.42492,-86.93203 L-35.03108,-93.66335 L-94.34133,-33.16193 L-85.93217,51.14355 L-15.83980,98.73753 L65.62257,75.45646 L99.98023,-1.98822 L62.57081,-78.00573 L-19.75274,-98.02974 L-87.89752,-47.68675 L-92.94834,36.88639 L-31.27966,94.98201 L52.84196,84.89834 L99.03295,13.87355 L74.13683,-67.10984 L-3.97565,-99.92094 L-79.23436,-61.00751 L-97.61763,21.69788 L-45.92973,88.82826 L38.72712,92.19659 L95.58515,29.38503 L83.83094,-54.51948 L11.90182,-99.28921 L-68.57058,-72.78788 L-99.82214,5.96151 L-59.42010,80.43166 L23.63444,97.16693 L89.72389,44.15455 L91.40838,-40.55253 L27.47878,-96.15049 L-56.17544,-82.73040 L-99.50622,-9.92538 L-71.41016,70.00421 L7.94502,99.68388 L81.59716,57.80920 L96.67782,-25.56166 L42.36191,-90.58404 L-42.36191,-90.58404 L-96.67782,-25.56166 L-81.59716,57.80920 L-7.94502,99.68388 L71.41016,70.00421 L99.50622,-9.92538 L56.17544,-82.73040 L-27.47878,-96.15049 L-91.40838,-40.55253 L-89.72389,44.15455 L-23.63444,97.16693 L59.42010,80.43166 L99.82214,5.96151 L68.57058,-72.78788 L-11.90182,-99.28921 L-83.83094,-54.51948 L-95.58515,29.38503 L-38.72712,92.19659 L45.92973,88.82826 L97.61763,21.69788 L79.23436,-61.00751 L3.97565,-99.92094 L-74.13683,-67.10984 L-99.03295,13.87355 L-52.84196,84.89834 L31.27966,94.98201 L92.94834,36.88639 L87.89752,-47.68675 L19.75274,-98.02974 L-62.57081,-78.00573 L-99.98023,-1.98822 L-65.62257,75.45646 L15.83980,98.73753 L85.93217,51.14355 L94.34133,-33.16193 L35.03108,-93.66335 L-49.42492,-86.93203 L-98.40309,-17.79979 L-76.74627,64.10936 L0.00000,100.00000 Z"/>
  </g>
</svg>
