<svg xmlns:ns0="http://www.w3.org/2000/svg" xlink="http://www.w3.org/1999/xlink" xmlns="http://www.w3.org/2000/svg" ns0:svg="http://www.w3.org/2000/svg" width="1280" height="1280">
  <defs/>
  <g id="canvas" transform="matrix(1,0,0,-1,0,1280) translate(640,640)">
    <path style="fill:none;stroke:black" d="M0.00000,100.00000 L64.82284,-76.14460 L-98.71818,15.95999 L85.51428,51.83926 L-31.51082,-94.90557 L-37.52670,92.69168 L88.65993,-46.25383 L-97.49279,-22.25209 L59.81105,80.14136 L6.40702,-99.79454 L-69.56826,71.83494 L99.53791,-9.60230 L-82.01723,-57.21167 L25.36546,96.72949 L43.38837,-90.09689 L-91.44126,40.47833 L95.86679,28.45276 L-54.55349,-83.80881 L-12.78772,99.17900 L74.02780,-67.23009 L-99.94862,3.20516 L78.18315,62.34898 L-19.11586,-98.15592 L-49.07176,87.13187 L93.84684,-34.53651 L-93.84684,-34.53651 L49.07176,87.13187 L19.11586,-98.15592 L-78.18315,62.34898 L99.94862,3.20516 L-74.02780,-67.23009 L12.78772,99.17900 L54.55349,-83.80881 L-95.86679,28.45276 L91.44126,40.47833 L-43.38837,-90.09689 L-25.36546,96.72949 L82.01723,-57.21167 L-99.53791,-9.60230 L69.56826,71.83494 L-6.40702,-99.79454 L-59.81105,80.14136 L97.49279,-22.25209 L-88.65993,-46.25383 L37.52670,92.69168 L31.51082,-94.90557 L-85.51428,51.83926 L98.71818,15.95999 L-64.82284,-76.14460 L0.00000,100.00000 Z"/>
  </g>
</svg>
