<svg xmlns:ns0="http://www.w3.org/2000/svg" xlink="http://www.w3.org/1999/xlink" xmlns="http://www.w3.org/2000/svg" ns0:svg="http://www.w3.org/2000/svg" width="1280" height="1280">
  <defs/>
  <g id="canvas" transform="matrix(1,0,0,-1,0,1280) translate(640,640)">
    <path style="fill:none;stroke:black" d="M0.00000,100.00000 L81.24869,58.29795 L94.73264,-32.02699 L29.20568,-95.64010 L-60.68001,-79.48544 L-99.95608,2.96333 L-55.86468,82.94057 L34.82016,93.74197 L96.46356,26.35872 L77.65239,-63.00878 L-5.92406,-99.82437 L-84.55960,-53.38234 L-92.66896,37.58276 L-23.48860,97.20229 L65.28221,75.75112 L99.60498,-8.87959 L50.85311,-86.10436 L-40.31234,-91.51456 L-97.85565,-20.59786 L-73.78333,67.49830 L11.82732,99.29811 L87.57349,48.27922 L90.27978,-43.00652 L17.68903,-98.42306 L-69.65510,-71.75073 L-98.90402,14.76466 L-45.66292,88.96571 L45.66292,88.96571 L98.90402,14.76466 L69.65510,-71.75073 L-17.68903,-98.42306 L-90.27978,-43.00652 L-87.57349,48.27922 L-11.82732,99.29811 L73.78333,67.49830 L97.85565,-20.59786 L40.31234,-91.51456 L-50.85311,-86.10436 L-99.60498,-8.87959 L-65.28221,75.75112 L23.48860,97.20229 L92.66896,37.58276 L84.55960,-53.38234 L5.92406,-99.82437 L-77.65239,-63.00878 L-96.46356,26.35872 L-34.82016,93.74197 L55.86468,82.94057 L99.95608,2.96333 L60.68001,-79.48544 L-29.20568,-95.64010 L-94.73264,-32.02699 L-81.24869,58.29795 L0.00000,100.00000 Z"/>
  </g>
</svg>
