<svg xmlns:ns0="http://www.w3.org/2000/svg" xlink="http://www.w3.org/1999/xlink" xmlns="http://www.w3.org/2000/svg" ns0:svg="http://www.w3.org/2000/svg" width="1280" height="1280">
  <defs/>
  <g id="canvas" transform="matrix(1,0,0,-1,0,1280) translate(640,640)">
    <path style="fill:none;stroke:black" d="M0.00000,100.00000 L98.22873,18.73813 L36.81246,-92.97765 L-84.43279,-53.58268 L-68.45471,72.89686 L58.77853,80.90170 L90.48271,-42.57793 L-24.86899,-96.85832 L-99.80267,6.27905 L-12.53332,99.21147 L95.10565,30.90170 L48.17537,-87.63067 L-77.05132,-63.74240 L-77.05132,63.74240 L48.17537,87.63067 L95.10565,-30.90170 L-12.53332,-99.21147 L-99.80267,-6.27905 L-24.86899,96.85832 L90.48271,42.57793 L58.77853,-80.90170 L-68.45471,-72.89686 L-84.43279,53.58268 L36.81246,92.97765 L98.22873,-18.73813 L0.00000,-100.00000 L-98.22873,-18.73813 L-36.81246,92.97765 L84.43279,53.58268 L68.45471,-72.89686 L-58.77853,-80.90170 L-90.48271,42.57793 L24.86899,96.85832 L99.80267,-6.27905 L12.53332,-99.21147 L-95.10565,-30.90170 L-48.17537,87.63067 L77.05132,63.74240 L77.05132,-63.74240 L-48.17537,-87.63067 L-95.10565,30.90170 L12.53332,99.21147 L99.80267,6.27905 L24.86899,-96.85832 L-90.48271,-42.57793 L-58.77853,80.90170 L68.45471,72.89686 L84.43279,-53.58268 L-36.81246,-92.97765 L-98.22873,18.73813 L0.00000,100.00000 Z"/>
  </g>
</svg>
