<svg xmlns:ns0="http://www.w3.org/2000/svg" xlink="http://www.w3.org/1999/xlink" xmlns="http://www.w3.org/2000/svg" ns0:svg="http://www.w3.org/2000/svg" width="1280" height="1280">
  <defs/>
  <g id="canvas" transform="matrix(1,0,0,-1,0,1280) translate(640,640)">
    <path style="fill:none;stroke:black" d="M0.00000,100.00000 L95.44050,-29.85148 L-56.98081,-82.17778 L-61.42127,78.91405 L93.65112,35.06376 L5.50878,-99.84815 L-96.94003,24.54855 L52.36729,85.19194 L65.67520,-75.41066 L-91.57733,-40.16954 L-11.00082,99.39307 L98.14515,-19.17106 L-47.59474,-87.94738 L-69.72968,71.67825 L89.22542,45.15334 L16.45946,-98.63613 L-99.05221,13.73536 L42.67764,90.43572 L73.57239,-67.72816 L-86.60254,-50.00000 L-21.86811,97.57964 L99.65845,-8.25793 L-37.63094,-92.64941 L-77.19167,63.57237 L83.71665,54.69482 L27.21035,-96.22680 L-99.96203,2.75543 L32.46995,94.58172 L80.57651,-59.22353 L-80.57651,-59.22353 L-32.46995,94.58172 L99.96203,2.75543 L-27.21035,-96.22680 L-83.71665,54.69482 L77.19167,63.57237 L37.63094,-92.64941 L-99.65845,-8.25793 L21.86811,97.57964 L86.60254,-50.00000 L-73.57239,-67.72816 L-42.67764,90.43572 L99.05221,13.73536 L-16.45946,-98.63613 L-89.22542,45.15334 L69.72968,71.67825 L47.59474,-87.94738 L-98.14515,-19.17106 L11.00082,99.39307 L91.57733,-40.16954 L-65.67520,-75.41066 L-52.36729,85.19194 L96.94003,24.54855 L-5.50878,-99.84815 L-93.65112,35.06376 L61.42127,78.91405 L56.98081,-82.17778 L-95.44050,-29.85148 L0.00000,100.00000 Z"/>
  </g>
</svg>
