<svg xmlns:ns0="http://www.w3.org/2000/svg" xlink="http://www.w3.org/1999/xlink" xmlns="http://www.w3.org/2000/svg" ns0:svg="http://www.w3.org/2000/svg" width="1280" height="1280">
  <defs/>
  <g id="canvas" transform="matrix(1,0,0,-1,0,1280) translate(640,640)">
    <path style="fill:none;stroke:black" d="M0.00000,100.00000 L88.19213,47.13967 L83.14696,-55.55702 L-9.80171,-99.51847 L-92.38795,-38.26834 L-77.30105,63.43933 L19.50903,98.07853 L95.69403,29.02847 L70.71068,-70.71068 L-29.02847,-95.69403 L-98.07853,-19.50903 L-63.43933,77.30105 L38.26834,92.38795 L99.51847,9.80171 L55.55702,-83.14696 L-47.13967,-88.19213 L-100.00000,-0.00000 L-47.13967,88.19213 L55.55702,83.14696 L99.51847,-9.80171 L38.26834,-92.38795 L-63.43933,-77.30105 L-98.07853,19.50903 L-29.02847,95.69403 L70.71068,70.71068 L95.69403,-29.02847 L19.50903,-98.07853 L-77.30105,-63.43933 L-92.38795,38.26834 L-9.80171,99.51847 L83.14696,55.55702 L88.19213,-47.13967 L0.00000,-100.00000 L-88.19213,-47.13967 L-83.14696,55.55702 L9.80171,99.51847 L92.38795,38.26834 L77.30105,-63.43933 L-19.50903,-98.07853 L-95.69403,-29.02847 L-70.71068,70.71068 L29.02847,95.69403 L98.07853,19.50903 L63.43933,-77.30105 L-38.26834,-92.38795 L-99.51847,-9.80171 L-55.55702,83.14696 L47.13967,88.19213 L100.00000,0.00000 L47.13967,-88.19213 L-55.55702,-83.14696 L-99.51847,9.80171 L-38.26834,92.38795 L63.43933,77.30105 L98.07853,-19.50903 L29.02847,-95.69403 L-70.71068,-70.71068 L-95.69403,29.02847 L-19.50903,98.07853 L77.30105,63.43933 L92.38795,-38.26834 L9.80171,-99.51847 L-83.14696,-55.55702 L-88.19213,47.13967 L0.00000,100.00000 Z"/>
  </g>
</svg>
