<svg xmlns:ns0="http://www.w3.org/2000/svg" xlink="http://www.w3.org/1999/xlink" xmlns="http://www.w3.org/2000/svg" ns0:svg="http://www.w3.org/2000/svg" width="1280" height="1280">
  <defs/>
  <g id="canvas" transform="matrix(1,0,0,-1,0,1280) translate(640,640)">
    <path style="fill:none;stroke:black" d="M0.00000,100.00000 L11.60929,-99.32384 L-23.06159,97.30449 L34.20201,-93.96926 L-44.87992,89.36326 L54.95090,-83.54878 L-64.27876,76.60444 L72.73736,-68.62416 L-80.21232,59.71586 L86.60254,-50.00000 L-91.82161,39.60798 L95.79895,-28.68032 L-98.48078,17.36482 L99.83082,-5.81448 L-99.83082,-5.81448 L98.48078,17.36482 L-95.79895,-28.68032 L91.82161,39.60798 L-86.60254,-50.00000 L80.21232,59.71586 L-72.73736,-68.62416 L64.27876,76.60444 L-54.95090,-83.54878 L44.87992,89.36326 L-34.20201,-93.96926 L23.06159,97.30449 L-11.60929,-99.32384 L0.00000,100.00000 Z"/>
  </g>
</svg>
