<svg xmlns:ns0="http://www.w3.org/2000/svg" xlink="http://www.w3.org/1999/xlink" xmlns="http://www.w3.org/2000/svg" ns0:svg="http://www.w3.org/2000/svg" width="1280" height="1280">
  <defs/>
  <g id="canvas" transform="matrix(1,0,0,-1,0,1280) translate(640,640)">
    <path style="fill:none;stroke:black" d="M0.00000,100.00000 L98.76883,15.64345 L30.90170,-95.10565 L-89.10065,-45.39905 L-58.77853,80.90170 L70.71068,70.71068 L80.90170,-58.77853 L-45.39905,-89.10065 L-95.10565,30.90170 L15.64345,98.76883 L100.00000,0.00000 L15.64345,-98.76883 L-95.10565,-30.90170 L-45.39905,89.10065 L80.90170,58.77853 L70.71068,-70.71068 L-58.77853,-80.90170 L-89.10065,45.39905 L30.90170,95.10565 L98.76883,-15.64345 L0.00000,-100.00000 L-98.76883,-15.64345 L-30.90170,95.10565 L89.10065,45.39905 L58.77853,-80.90170 L-70.71068,-70.71068 L-80.90170,58.77853 L45.39905,89.10065 L95.10565,-30.90170 L-15.64345,-98.76883 L-100.00000,-0.00000 L-15.64345,98.76883 L95.10565,30.90170 L45.39905,-89.10065 L-80.90170,-58.77853 L-70.71068,70.71068 L58.77853,80.90170 L89.10065,-45.39905 L-30.90170,-95.10565 L-98.76883,15.64345 L0.00000,100.00000 Z"/>
  </g>
</svg>
