<svg xmlns:ns0="http://www.w3.org/2000/svg" xlink="http://www.w3.org/1999/xlink" xmlns="http://www.w3.org/2000/svg" ns0:svg="http://www.w3.org/2000/svg" width="1280" height="1280">
  <defs/>
  <g id="canvas" transform="matrix(1,0,0,-1,0,1280) translate(640,640)">
    <path style="fill:none;stroke:black" d="M0.00000,100.00000 L84.28923,-53.80824 L-90.70909,-42.09348 L13.32870,99.10775 L76.36522,-64.56279 L-95.51025,-29.62756 L26.41954,96.44692 L67.07847,-74.16521 L-98.60703,-16.63294 L39.03893,92.06499 L56.59471,-82.44416 L-99.94416,-3.34150 L50.96166,86.04016 L45.10101,-89.25188 L-99.49778,10.00957 L61.97499,78.47994 L32.80249,-94.46691 L-97.27587,23.18202 L71.88237,69.51924 L19.91860,-97.99617 L-93.31806,35.94078 L80.50701,59.31797 L6.67926,-99.77669 L-87.69499,48.05818 L87.69499,48.05818 L-6.67926,-99.77669 L-80.50701,59.31797 L93.31806,35.94078 L-19.91860,-97.99617 L-71.88237,69.51924 L97.27587,23.18202 L-32.80249,-94.46691 L-61.97499,78.47994 L99.49778,10.00957 L-45.10101,-89.25188 L-50.96166,86.04016 L99.94416,-3.34150 L-56.59471,-82.44416 L-39.03893,92.06499 L98.60703,-16.63294 L-67.07847,-74.16521 L-26.41954,96.44692 L95.51025,-29.62756 L-76.36522,-64.56279 L-13.32870,99.10775 L90.70909,-42.09348 L-84.28923,-53.80824 L0.00000,100.00000 Z"/>
  </g>
</svg>
