<svg xmlns:ns0="http://www.w3.org/2000/svg" xlink="http://www.w3.org/1999/xlink" xmlns="http://www.w3.org/2000/svg" ns0:svg="http://www.w3.org/2000/svg" width="1280" height="1280">
  <defs/>
  <g id="canvas" transform="matrix(1,0,0,-1,0,1280) translate(640,640)">
    <path style="fill:none;stroke:black" d="M0.00000,100.00000 L87.94738,47.59474 L83.71665,-54.69482 L-8.25793,-99.65845 L-91.57733,-40.16954 L-78.91405,61.42127 L16.45946,98.63613 L94.58172,32.46995 L73.57239,-67.72816 L-24.54855,-96.94003 L-96.94003,-24.54855 L-67.72816,73.57239 L32.46995,94.58172 L98.63613,16.45946 L61.42127,-78.91405 L-40.16954,-91.57733 L-99.65845,-8.25793 L-54.69482,83.71665 L47.59474,87.94738 L100.00000,0.00000 L47.59474,-87.94738 L-54.69482,-83.71665 L-99.65845,8.25793 L-40.16954,91.57733 L61.42127,78.91405 L98.63613,-16.45946 L32.46995,-94.58172 L-67.72816,-73.57239 L-96.94003,24.54855 L-24.54855,96.94003 L73.57239,67.72816 L94.58172,-32.46995 L16.45946,-98.63613 L-78.91405,-61.42127 L-91.57733,40.16954 L-8.25793,99.65845 L83.71665,54.69482 L87.94738,-47.59474 L0.00000,-100.00000 L-87.94738,-47.59474 L-83.71665,54.69482 L8.25793,99.65845 L91.57733,40.16954 L78.91405,-61.42127 L-16.45946,-98.63613 L-94.58172,-32.46995 L-73.57239,67.72816 L24.54855,96.94003 L96.94003,24.54855 L67.72816,-73.57239 L-32.46995,-94.58172 L-98.63613,-16.45946 L-61.42127,78.91405 L40.16954,91.57733 L99.65845,8.25793 L54.69482,-83.71665 L-47.59474,-87.94738 L-100.00000,-0.00000 L-47.59474,87.94738 L54.69482,83.71665 L99.65845,-8.25793 L40.16954,-91.57733 L-61.42127,-78.91405 L-98.63613,16.45946 L-32.46995,94.58172 L67.72816,73.57239 L96.94003,-24.54855 L24.54855,-96.94003 L-73.57239,-67.72816 L-94.58172,32.46995 L-16.45946,98.63613 L78.91405,61.42127 L91.57733,-40.16954 L8.25793,-99.65845 L-83.71665,-54.69482 L-87.94738,47.59474 L0.00000,100.00000 Z"/>
  </g>
</svg>
