<svg xmlns:ns0="http://www.w3.org/2000/svg" xlink="http://www.w3.org/1999/xlink" xmlns="http://www.w3.org/2000/svg" ns0:svg="http://www.w3.org/2000/svg" width="1280" height="1280">
  <defs/>
  <g id="canvas" transform="matrix(1,0,0,-1,0,1280) translate(640,640)">
    <path style="fill:none;stroke:black" d="M0.00000,100.00000 L96.59258,-25.88190 L-50.00000,-86.60254 L-70.71068,70.71068 L86.60254,50.00000 L25.88190,-96.59258 L-100.00000,-0.00000 L25.88190,96.59258 L86.60254,-50.00000 L-70.71068,-70.71068 L-50.00000,86.60254 L96.59258,25.88190 L0.00000,-100.00000 L-96.59258,25.88190 L50.00000,86.60254 L70.71068,-70.71068 L-86.60254,-50.00000 L-25.88190,96.59258 L100.00000,0.00000 L-25.88190,-96.59258 L-86.60254,50.00000 L70.71068,70.71068 L50.00000,-86.60254 L-96.59258,-25.88190 L0.00000,100.00000 Z"/>
  </g>
</svg>
