<svg xmlns:ns0="http://www.w3.org/2000/svg" xlink="http://www.w3.org/1999/xlink" xmlns="http://www.w3.org/2000/svg" ns0:svg="http://www.w3.org/2000/svg" width="1280" height="1280">
  <defs/>
  <g id="canvas" transform="matrix(1,0,0,-1,0,1280) translate(640,640)">
    <path style="fill:none;stroke:black" d="M0.00000,100.00000 L93.96926,-34.20201 L-64.27876,-76.60444 L-50.00000,86.60254 L98.48078,17.36482 L-17.36482,-98.48078 L-86.60254,50.00000 L76.60444,64.27876 L34.20201,-93.96926 L-100.00000,-0.00000 L34.20201,93.96926 L76.60444,-64.27876 L-86.60254,-50.00000 L-17.36482,98.48078 L98.48078,-17.36482 L-50.00000,-86.60254 L-64.27876,76.60444 L93.96926,34.20201 L0.00000,-100.00000 L-93.96926,34.20201 L64.27876,76.60444 L50.00000,-86.60254 L-98.48078,-17.36482 L17.36482,98.48078 L86.60254,-50.00000 L-76.60444,-64.27876 L-34.20201,93.96926 L100.00000,0.00000 L-34.20201,-93.96926 L-76.60444,64.27876 L86.60254,50.00000 L17.36482,-98.48078 L-98.48078,17.36482 L50.00000,86.60254 L64.27876,-76.60444 L-93.96926,-34.20201 L0.00000,100.00000 Z"/>
  </g>
</svg>
